<?xml version="1.0" encoding="UTF-8"?>
<!--Generator: Apple Native CoreSVG 175.5-->
<!DOCTYPE svg
PUBLIC "-//W3C//DTD SVG 1.1//EN"
       "http://www.w3.org/Graphics/SVG/1.1/DTD/svg11.dtd">
<svg version="1.1" xmlns="http://www.w3.org/2000/svg" xmlns:xlink="http://www.w3.org/1999/xlink" width="3300" height="2200">
 <!--glyph: "uni101545.medium", point size: 100.0, font version: "18.0d12e2", template writer version: "101"-->
 <g id="Notes">
  <rect height="2200" id="artboard" style="fill:white;opacity:1" width="3300" x="0" y="0"/>
  <line style="fill:none;stroke:black;opacity:1;stroke-width:0.5;" x1="263" x2="3036" y1="292" y2="292"/>
  <text style="stroke:none;fill:black;font-family:sans-serif;font-size:13;font-weight:bold;" transform="matrix(1 0 0 1 263 322)">Weight/Scale Variations</text>
  <text style="stroke:none;fill:black;font-family:sans-serif;font-size:13;text-anchor:middle;" transform="matrix(1 0 0 1 559.711 322)">Ultralight</text>
  <text style="stroke:none;fill:black;font-family:sans-serif;font-size:13;text-anchor:middle;" transform="matrix(1 0 0 1 856.422 322)">Thin</text>
  <text style="stroke:none;fill:black;font-family:sans-serif;font-size:13;text-anchor:middle;" transform="matrix(1 0 0 1 1153.13 322)">Light</text>
  <text style="stroke:none;fill:black;font-family:sans-serif;font-size:13;text-anchor:middle;" transform="matrix(1 0 0 1 1449.84 322)">Regular</text>
  <text style="stroke:none;fill:black;font-family:sans-serif;font-size:13;text-anchor:middle;" transform="matrix(1 0 0 1 1746.56 322)">Medium</text>
  <text style="stroke:none;fill:black;font-family:sans-serif;font-size:13;text-anchor:middle;" transform="matrix(1 0 0 1 2043.27 322)">Semibold</text>
  <text style="stroke:none;fill:black;font-family:sans-serif;font-size:13;text-anchor:middle;" transform="matrix(1 0 0 1 2339.98 322)">Bold</text>
  <text style="stroke:none;fill:black;font-family:sans-serif;font-size:13;text-anchor:middle;" transform="matrix(1 0 0 1 2636.69 322)">Heavy</text>
  <text style="stroke:none;fill:black;font-family:sans-serif;font-size:13;text-anchor:middle;" transform="matrix(1 0 0 1 2933.4 322)">Black</text>
  <line style="fill:none;stroke:black;opacity:1;stroke-width:0.5;" x1="263" x2="3036" y1="1903" y2="1903"/>
  <g transform="matrix(1 0 0 1 263 1933)">
   <path d="M9.24805 0.830078C13.5547 0.830078 17.1387-2.74414 17.1387-7.05078C17.1387-11.3574 13.5449-14.9316 9.23828-14.9316C4.94141-14.9316 1.36719-11.3574 1.36719-7.05078C1.36719-2.74414 4.95117 0.830078 9.24805 0.830078ZM9.24805-0.654297C5.70312-0.654297 2.87109-3.49609 2.87109-7.05078C2.87109-10.6055 5.69336-13.4473 9.23828-13.4473C12.793-13.4473 15.6445-10.6055 15.6445-7.05078C15.6445-3.49609 12.8027-0.654297 9.24805-0.654297ZM5.6543-7.05078C5.6543-6.62109 5.95703-6.32812 6.40625-6.32812L8.50586-6.32812L8.50586-4.20898C8.50586-3.76953 8.79883-3.4668 9.22852-3.4668C9.67773-3.4668 9.9707-3.76953 9.9707-4.20898L9.9707-6.32812L12.0898-6.32812C12.5293-6.32812 12.832-6.62109 12.832-7.05078C12.832-7.49023 12.5293-7.79297 12.0898-7.79297L9.9707-7.79297L9.9707-9.90234C9.9707-10.3516 9.67773-10.6543 9.22852-10.6543C8.79883-10.6543 8.50586-10.3516 8.50586-9.90234L8.50586-7.79297L6.40625-7.79297C5.95703-7.79297 5.6543-7.49023 5.6543-7.05078Z"/>
  </g>
  <g transform="matrix(1 0 0 1 281.867 1933)">
   <path d="M11.709 2.91016C17.1582 2.91016 21.6699-1.61133 21.6699-7.05078C21.6699-12.5 17.1484-17.0117 11.6992-17.0117C6.25977-17.0117 1.74805-12.5 1.74805-7.05078C1.74805-1.61133 6.26953 2.91016 11.709 2.91016ZM11.709 1.25C7.09961 1.25 3.41797-2.44141 3.41797-7.05078C3.41797-11.6602 7.08984-15.3516 11.6992-15.3516C16.3086-15.3516 20.0098-11.6602 20.0098-7.05078C20.0098-2.44141 16.3184 1.25 11.709 1.25ZM7.17773-7.05078C7.17773-6.57227 7.50977-6.25 8.00781-6.25L10.8789-6.25L10.8789-3.36914C10.8789-2.88086 11.2109-2.53906 11.6895-2.53906C12.1777-2.53906 12.5195-2.87109 12.5195-3.36914L12.5195-6.25L15.4004-6.25C15.8887-6.25 16.2305-6.57227 16.2305-7.05078C16.2305-7.53906 15.8887-7.88086 15.4004-7.88086L12.5195-7.88086L12.5195-10.752C12.5195-11.25 12.1777-11.5918 11.6895-11.5918C11.2109-11.5918 10.8789-11.25 10.8789-10.752L10.8789-7.88086L8.00781-7.88086C7.50977-7.88086 7.17773-7.53906 7.17773-7.05078Z"/>
  </g>
  <g transform="matrix(1 0 0 1 305.646 1933)">
   <path d="M14.9707 5.66406C21.9336 5.66406 27.6953-0.0976562 27.6953-7.05078C27.6953-14.0137 21.9238-19.7754 14.9609-19.7754C8.00781-19.7754 2.25586-14.0137 2.25586-7.05078C2.25586-0.0976562 8.01758 5.66406 14.9707 5.66406ZM14.9707 3.84766C8.93555 3.84766 4.08203-1.01562 4.08203-7.05078C4.08203-13.0957 8.92578-17.9492 14.9609-17.9492C21.0059-17.9492 25.8691-13.0957 25.8691-7.05078C25.8691-1.01562 21.0156 3.84766 14.9707 3.84766ZM9.19922-7.05078C9.19922-6.5332 9.57031-6.17188 10.1172-6.17188L14.0625-6.17188L14.0625-2.2168C14.0625-1.67969 14.4336-1.29883 14.9512-1.29883C15.4883-1.29883 15.8594-1.66992 15.8594-2.2168L15.8594-6.17188L19.8145-6.17188C20.3516-6.17188 20.7324-6.5332 20.7324-7.05078C20.7324-7.59766 20.3613-7.96875 19.8145-7.96875L15.8594-7.96875L15.8594-11.9141C15.8594-12.4609 15.4883-12.8418 14.9512-12.8418C14.4336-12.8418 14.0625-12.4609 14.0625-11.9141L14.0625-7.96875L10.1172-7.96875C9.57031-7.96875 9.19922-7.59766 9.19922-7.05078Z"/>
  </g>
  <text style="stroke:none;fill:black;font-family:sans-serif;font-size:13;font-weight:bold;" transform="matrix(1 0 0 1 263 1953)">Design Variations</text>
  <text style="stroke:none;fill:black;font-family:sans-serif;font-size:13;" transform="matrix(1 0 0 1 263 1971)">Symbols are supported in up to nine weights and three scales.</text>
  <text style="stroke:none;fill:black;font-family:sans-serif;font-size:13;" transform="matrix(1 0 0 1 263 1989)">For optimal layout with text and other symbols, vertically align</text>
  <text style="stroke:none;fill:black;font-family:sans-serif;font-size:13;" transform="matrix(1 0 0 1 263 2007)">symbols with the adjacent text.</text>
  <line style="fill:none;stroke:#00AEEF;stroke-width:0.5;opacity:1.0;" x1="776" x2="776" y1="1919" y2="1933"/>
  <g transform="matrix(1 0 0 1 776 1933)">
   <path d="M3.31055 0.15625C3.82812 0.15625 4.08203-0.0390625 4.26758-0.585938L5.52734-4.0332L11.2891-4.0332L12.5488-0.585938C12.7344-0.0390625 12.9883 0.15625 13.4961 0.15625C14.0137 0.15625 14.3457-0.15625 14.3457-0.644531C14.3457-0.810547 14.3164-0.966797 14.2383-1.17188L9.6582-13.3691C9.43359-13.9648 9.0332-14.2676 8.4082-14.2676C7.80273-14.2676 7.39258-13.9746 7.17773-13.3789L2.59766-1.16211C2.51953-0.957031 2.49023-0.800781 2.49023-0.634766C2.49023-0.146484 2.80273 0.15625 3.31055 0.15625ZM6.00586-5.51758L8.37891-12.0898L8.42773-12.0898L10.8008-5.51758Z"/>
  </g>
  <line style="fill:none;stroke:#00AEEF;stroke-width:0.5;opacity:1.0;" x1="793.197" x2="793.197" y1="1919" y2="1933"/>
  <text style="stroke:none;fill:black;font-family:sans-serif;font-size:13;font-weight:bold;" transform="matrix(1 0 0 1 776 1953)">Margins</text>
  <text style="stroke:none;fill:black;font-family:sans-serif;font-size:13;" transform="matrix(1 0 0 1 776 1971)">Leading and trailing margins on the left and right side of each symbol</text>
  <text style="stroke:none;fill:black;font-family:sans-serif;font-size:13;" transform="matrix(1 0 0 1 776 1989)">can be adjusted by modifying the x-location of the margin guidelines.</text>
  <text style="stroke:none;fill:black;font-family:sans-serif;font-size:13;" transform="matrix(1 0 0 1 776 2007)">Modifications are automatically applied proportionally to all</text>
  <text style="stroke:none;fill:black;font-family:sans-serif;font-size:13;" transform="matrix(1 0 0 1 776 2025)">scales and weights.</text>
  <g transform="matrix(1 0 0 1 1289 1933)">
   <path d="M2.8418 1.86523L4.54102 3.57422C5.40039 4.44336 6.38672 4.38477 7.31445 3.35938L18.0078-8.42773L17.041-9.4043L6.42578 2.27539C6.07422 2.67578 5.74219 2.77344 5.27344 2.30469L4.10156 1.14258C3.63281 0.683594 3.74023 0.341797 4.14062-0.0195312L15.6152-10.8203L14.6387-11.7871L3.04688-0.898438C2.06055 0.0195312 1.98242 0.996094 2.8418 1.86523ZM9.25781-16.3281C8.83789-15.918 8.80859-15.3418 9.04297-14.9512C9.27734-14.5898 9.73633-14.3555 10.3809-14.5215C11.8457-14.8633 13.3691-14.9219 14.7949-13.9844L14.209-12.5293C13.8672-11.6992 14.043-11.1133 14.5801-10.5664L16.875-8.25195C17.3633-7.76367 17.7734-7.74414 18.3398-7.8418L19.4043-8.03711L20.0684-7.36328L20.0293-6.80664C19.9902-6.30859 20.1172-5.92773 20.6055-5.44922L21.3672-4.70703C21.8457-4.22852 22.4609-4.19922 22.9297-4.66797L25.8398-7.58789C26.3086-8.05664 26.2891-8.65234 25.8105-9.13086L25.0391-9.89258C24.5605-10.3711 24.1895-10.5273 23.7109-10.4883L23.1348-10.4395L22.4902-11.0742L22.7344-12.1973C22.8613-12.7637 22.7051-13.2031 22.1191-13.7891L19.9219-15.9766C16.582-19.2969 12.1484-19.2188 9.25781-16.3281ZM10.752-15.957C13.1836-17.7344 16.4746-17.4316 18.7012-15.2051L21.1328-12.793C21.3672-12.5586 21.4062-12.373 21.3379-12.0312L21.0156-10.5469L22.5195-9.0625L23.5059-9.12109C23.7598-9.13086 23.8379-9.11133 24.0332-8.91602L24.6094-8.33984L22.168-5.89844L21.5918-6.47461C21.3965-6.66992 21.3672-6.74805 21.377-7.01172L21.4453-7.98828L19.9512-9.47266L18.4277-9.21875C18.1055-9.15039 17.959-9.17969 17.7148-9.41406L15.7129-11.416C15.459-11.6504 15.4297-11.8164 15.5859-12.1875L16.4648-14.2773C14.9023-15.7324 12.8711-16.3574 10.8398-15.7617C10.6836-15.7227 10.625-15.8496 10.752-15.957Z"/>
  </g>
  <text style="stroke:none;fill:black;font-family:sans-serif;font-size:13;font-weight:bold;" transform="matrix(1 0 0 1 1289 1953)">Exporting</text>
  <text style="stroke:none;fill:black;font-family:sans-serif;font-size:13;" transform="matrix(1 0 0 1 1289 1971)">Symbols should be outlined when exporting to ensure the</text>
  <text style="stroke:none;fill:black;font-family:sans-serif;font-size:13;" transform="matrix(1 0 0 1 1289 1989)">design is preserved when submitting to Xcode.</text>
  <text id="template-version" style="stroke:none;fill:black;font-family:sans-serif;font-size:13;text-anchor:end;" transform="matrix(1 0 0 1 3036 1933)">Template v.4.0</text>
  <text style="stroke:none;fill:black;font-family:sans-serif;font-size:13;text-anchor:end;" transform="matrix(1 0 0 1 3036 1951)">Requires Xcode 14 or greater</text>
  <text id="descriptive-name" style="stroke:none;fill:black;font-family:sans-serif;font-size:13;text-anchor:end;" transform="matrix(1 0 0 1 3036 1969)">Generated from figure.surfing</text>
  <text style="stroke:none;fill:black;font-family:sans-serif;font-size:13;text-anchor:end;" transform="matrix(1 0 0 1 3036 1987)">Typeset at 100 points</text>
  <text style="stroke:none;fill:black;font-family:sans-serif;font-size:13;" transform="matrix(1 0 0 1 263 726)">Small</text>
  <text style="stroke:none;fill:black;font-family:sans-serif;font-size:13;" transform="matrix(1 0 0 1 263 1156)">Medium</text>
  <text style="stroke:none;fill:black;font-family:sans-serif;font-size:13;" transform="matrix(1 0 0 1 263 1586)">Large</text>
 </g>
 <g id="Guides">
  <g id="H-reference" style="fill:#27AAE1;stroke:none;" transform="matrix(1 0 0 1 339 696)">
   <path d="M0.993654 0L3.63775 0L29.3281-67.1323L30.0303-67.1323L30.0303-70.459L28.1226-70.459ZM11.6885-24.4799L46.9815-24.4799L46.2315-26.7285L12.4385-26.7285ZM55.1196 0L57.7637 0L30.6382-70.459L29.4326-70.459L29.4326-67.1323Z"/>
  </g>
  <line id="Baseline-S" style="fill:none;stroke:#27AAE1;opacity:1;stroke-width:0.5;" x1="263" x2="3036" y1="696" y2="696"/>
  <line id="Capline-S" style="fill:none;stroke:#27AAE1;opacity:1;stroke-width:0.5;" x1="263" x2="3036" y1="625.541" y2="625.541"/>
  <g id="H-reference" style="fill:#27AAE1;stroke:none;" transform="matrix(1 0 0 1 339 1126)">
   <path d="M0.993654 0L3.63775 0L29.3281-67.1323L30.0303-67.1323L30.0303-70.459L28.1226-70.459ZM11.6885-24.4799L46.9815-24.4799L46.2315-26.7285L12.4385-26.7285ZM55.1196 0L57.7637 0L30.6382-70.459L29.4326-70.459L29.4326-67.1323Z"/>
  </g>
  <line id="Baseline-M" style="fill:none;stroke:#27AAE1;opacity:1;stroke-width:0.5;" x1="263" x2="3036" y1="1126" y2="1126"/>
  <line id="Capline-M" style="fill:none;stroke:#27AAE1;opacity:1;stroke-width:0.5;" x1="263" x2="3036" y1="1055.54" y2="1055.54"/>
  <g id="H-reference" style="fill:#27AAE1;stroke:none;" transform="matrix(1 0 0 1 339 1556)">
   <path d="M0.993654 0L3.63775 0L29.3281-67.1323L30.0303-67.1323L30.0303-70.459L28.1226-70.459ZM11.6885-24.4799L46.9815-24.4799L46.2315-26.7285L12.4385-26.7285ZM55.1196 0L57.7637 0L30.6382-70.459L29.4326-70.459L29.4326-67.1323Z"/>
  </g>
  <line id="Baseline-L" style="fill:none;stroke:#27AAE1;opacity:1;stroke-width:0.5;" x1="263" x2="3036" y1="1556" y2="1556"/>
  <line id="Capline-L" style="fill:none;stroke:#27AAE1;opacity:1;stroke-width:0.5;" x1="263" x2="3036" y1="1485.54" y2="1485.54"/>
  <line id="left-margin-Regular-M" style="fill:none;stroke:#00AEEF;stroke-width:0.5;opacity:1.0;" x1="1379.51" x2="1379.51" y1="1030.79" y2="1150.12"/>
  <line id="right-margin-Regular-M" style="fill:none;stroke:#00AEEF;stroke-width:0.5;opacity:1.0;" x1="1520.17" x2="1520.17" y1="1030.79" y2="1150.12"/>
 </g>
 <g id="Symbols">
  <g id="Black-L" transform="matrix(1 0 0 1 2837.26 1556)">
   <path d="M120.445-77.6257C128.95-77.6257 135.936-84.6106 135.936-93.1158C135.936-101.643 128.95-108.608 120.445-108.608C111.918-108.608 104.953-101.643 104.953-93.1158C104.953-84.6106 111.918-77.6257 120.445-77.6257ZM72.4707 8.83645C75.8879 11.2522 80.9398 10.5516 83.4152 7.07723L98.6294-14.1589L110.899-12.1003L97.3521 8.12088C94.956 11.7353 95.7954 16.8677 99.6654 19.1226C104.061 21.7004 108.375 20.2616 110.631 16.8677L130.283-12.7349C133.298-17.2691 131.664-24.2203 125.151-25.8187L98.0741-32.3375C96.344-32.746 95.7306-34.2713 96.7305-35.7406L108.083-52.8076C108.535-53.4859 109.338-53.6103 110.016-53.1577L126.603-41.8065C127.523-41.1864 128.618-40.7479 129.678-40.5286L166.822-33.731C170.676-33.0512 175.348-35.4485 176.107-40.1788C176.727-44.4122 173.931-48.6235 169.698-49.3825L134.211-55.8221L80.6552-92.3385L95.0957-102.734C98.731-105.369 99.5275-110.283 96.9938-113.758C94.416-117.292 89.4444-118.19 85.9116-115.635L62.2662-98.7476C57.7319-95.4912 57.6527-88.9225 62.405-85.6894L82.4804-71.9488C83.1378-71.4962 83.2819-70.6351 82.8305-70.0373L66.0631-45.6097C58.6165-34.7603 63.2221-19.9279 77.9532-17.6045L81.137-17.0936L70.5947-2.26769C68.0193 1.34673 68.7198 6.33908 72.4707 8.83645ZM17.9064-12.4002C15.9595-10.1833 15.4854-6.67606 18.4541-4.06305C49.7914 23.7846 106.286 47.821 163.566 47.821C166.711 47.821 169.282 45.2704 169.282 42.1253C169.282 38.9814 166.711 36.41 163.566 36.41C108.915 36.41 55.7236 13.8768 25.8906-12.7066C23.0671-15.2339 19.7872-14.451 17.9064-12.4002ZM22.472 22.021C28.2877 22.021 37.2221 19.6261 45.2364 14.3209L31.9843 0.430061C28.0849 6.19651 25.8192 7.89849 19.6346 11.6106C16.7827 13.3478 15.9273 16.2916 16.8335 18.5906C17.5813 20.4738 19.5413 22.021 22.472 22.021Z"/>
  </g>
  <g id="Heavy-L" transform="matrix(1 0 0 1 2541.97 1556)">
   <path d="M118.009-76.7095C126.268-76.7095 133.067-83.503 133.067-91.7617C133.067-100.056 126.268-106.825 118.009-106.825C109.715-106.825 102.946-100.056 102.946-91.7617C102.946-83.503 109.715-76.7095 118.009-76.7095ZM71.3426 8.40284C74.6225 10.7089 79.4456 10.0265 81.8019 6.7076L96.909-14.3862L109.591-12.2581L95.9901 8.04124C93.7087 11.4908 94.5161 16.3943 98.1799 18.5395C102.392 21.012 106.519 19.6328 108.669 16.3943L128.055-12.8331C130.933-17.1705 129.389-23.8195 123.151-25.3539L96.4089-31.796C94.5128-32.2553 93.8211-33.9189 94.9363-35.5492L106.149-52.3994C106.679-53.1929 107.625-53.3449 108.418-52.8141L124.797-41.6074C125.685-41.0054 126.707-40.5945 127.725-40.389L164.399-33.6912C168.084-33.039 172.541-35.3261 173.268-39.8275C173.87-43.8734 171.198-47.8835 167.152-48.6105L132.057-54.9778L78.839-91.2861L93.393-101.749C96.8728-104.26 97.6142-108.958 95.2133-112.283C92.7408-115.652 87.9981-116.504 84.6346-114.073L61.292-97.4024C56.9546-94.2833 56.8798-88.0118 61.4171-84.9342L81.2348-71.3563C81.9981-70.8255 82.1747-69.8354 81.6495-69.1223L65.0851-45.0113C57.8393-34.4586 62.3356-20.0228 76.6608-17.759L80.2085-17.1835L69.5582-2.21163C67.0969 1.23791 67.7793 6.01079 71.3426 8.40284ZM17.752-12.6257C15.932-10.6184 15.4887-7.4018 18.1894-5.02045C49.065 22.4108 104.709 46.0759 161.133 46.0759C163.973 46.0759 166.294 43.7851 166.294 40.9449C166.294 38.1104 163.973 35.7895 161.133 35.7895C107.069 35.7895 54.4147 13.4819 24.9023-12.8218C22.3838-15.0712 19.4646-14.4206 17.752-12.6257ZM22.1283 19.953C27.7952 19.953 36.3673 17.6771 44.0099 12.651L31.6302-0.161046C27.8152 5.28837 25.5252 7.03893 19.6659 10.4879C17.0545 12.053 16.2394 14.6776 17.0364 16.8C17.6838 18.5238 19.4712 19.953 22.1283 19.953Z"/>
  </g>
  <g id="Bold-L" transform="matrix(1 0 0 1 2247.13 1556)">
   <path d="M114.878-75.5053C122.837-75.5053 129.405-82.0606 129.405-90.0195C129.405-98.0296 122.837-104.56 114.878-104.56C106.868-104.56 100.337-98.0296 100.337-90.0195C100.337-82.0606 106.868-75.5053 114.878-75.5053ZM69.8399 7.80537C72.9581 9.9806 77.5119 9.32127 79.7295 6.18704L94.6687-14.6778L107.761-12.4801L94.1507 7.83705C92.0002 11.0941 92.7692 15.7283 96.1943 17.7427C100.191 20.092 104.094 18.7821 106.122 15.7283L125.147-12.9858C127.863-17.0923 126.428-23.3872 120.513-24.8447L94.2302-31.1796C92.1566-31.6929 91.38-33.5034 92.6187-35.311L103.639-51.8625C104.255-52.7795 105.355-52.9624 106.272-52.3466L122.367-41.3391C123.217-40.7602 124.154-40.3801 125.126-40.1901L161.156-33.6227C164.641-33.0013 168.844-35.165 169.533-39.3971C170.112-43.2198 167.585-46.9914 163.763-47.6799L129.219-53.9477L76.5504-89.9054L91.1832-100.408C94.4783-102.773 95.158-107.217 92.9111-110.365C90.5618-113.541 86.0885-114.339 82.9251-112.054L59.9962-95.6754C55.8898-92.7179 55.8226-86.8004 60.1058-83.9074L79.5712-70.5517C80.4502-69.936 80.6578-68.8069 80.0553-67.9703L63.7742-44.2885C56.7744-34.0971 61.1325-20.153 74.9581-17.9585L78.8995-17.3136L68.1631-2.2319C65.8403 1.02519 66.4996 5.53649 69.8399 7.80537ZM17.5524-12.8726C15.9011-11.1265 15.5112-8.28592 17.8665-6.20385C48.1213 20.6678 102.616 43.8346 157.89 43.8346C160.346 43.8346 162.352 41.8665 162.352 39.4104C162.352 36.9675 160.346 34.9614 157.89 34.9614C104.638 34.9614 52.7338 12.9678 23.6655-12.9454C21.5311-14.849 19.0501-14.3599 17.5524-12.8726ZM21.6609 17.4388C27.1881 17.4388 35.3443 15.3016 42.496 10.6063L31.1698-0.846374C27.4921 4.2484 25.1267 6.08275 19.6447 9.18655C17.3479 10.5217 16.5939 12.7542 17.2526 14.639C17.777 16.1632 19.3419 17.4388 21.6609 17.4388Z"/>
  </g>
  <g id="Semibold-L" transform="matrix(1 0 0 1 1951.71 1556)">
   <path d="M112.719-74.6751C120.471-74.6751 126.881-81.0663 126.881-88.8184C126.881-96.6324 120.471-102.999 112.719-102.999C104.905-102.999 98.5388-96.6324 98.5388-88.8184C98.5388-81.0663 104.905-74.6751 112.719-74.6751ZM68.8039 7.39348C71.8107 9.47854 76.1787 8.83509 78.3009 5.82817L93.1243-14.8789L106.5-12.6332L92.8826 7.69629C90.8225 10.8207 91.5649 15.2691 94.8254 17.1934C98.6737 19.4578 102.423 18.1956 104.366 15.2691L123.143-13.0911C125.747-17.0384 124.386-23.0892 118.694-24.4936L92.7283-30.7547C90.5322-31.3053 89.6971-33.2169 91.0209-35.1468L101.91-51.4924C102.584-52.4946 103.79-52.6987 104.792-52.0244L120.692-41.1542C121.515-40.5911 122.394-40.2323 123.334-40.0529L158.921-33.5754C162.268-32.9753 166.296-35.054 166.958-39.1003C167.521-42.7693 165.095-46.3764 161.426-47.0384L127.263-53.2375L74.9726-88.9535L89.6597-99.4832C92.8275-101.748 93.4647-106.017 91.324-109.042C89.0596-112.086 84.772-112.847 81.7465-110.663L59.1029-94.4848C55.1556-91.6388 55.0937-85.9652 59.2019-83.1995L78.4243-69.997C79.3831-69.3227 79.6121-68.0979 78.9563-67.1761L62.8705-43.7901C56.0402-33.8479 60.303-20.2428 73.7843-18.0961L77.9971-17.4032L67.2014-2.24586C64.974 0.878534 65.6174 5.20951 68.8039 7.39348ZM17.4149-13.0428C15.8799-11.4767 15.5267-8.89542 17.6439-7.01968C47.4706 19.4662 101.173 42.2895 155.654 42.2895C157.845 42.2895 159.634 40.5439 159.634 38.3525C159.634 36.1796 157.845 34.3906 155.654 34.3906C102.962 34.3906 51.575 12.6135 22.8129-13.0305C20.9432-14.6958 18.7644-14.318 17.4149-13.0428ZM21.3386 15.7056C26.7695 15.7056 34.639 13.6639 41.4523 9.19671L30.8524-1.31884C27.2694 3.53145 24.852 5.42356 19.6301 8.2894C17.5501 9.46597 16.8382 11.4283 17.4017 13.1493C17.8413 14.5357 19.2527 15.7056 21.3386 15.7056Z"/>
  </g>
  <g id="Medium-L" transform="matrix(1 0 0 1 1655.97 1556)">
   <path d="M111.082-74.0456C118.678-74.0456 124.967-80.3123 124.967-87.9077C124.967-95.573 118.678-101.815 111.082-101.815C103.417-101.815 97.1751-95.573 97.1751-87.9077C97.1751-80.3123 103.417-74.0456 111.082-74.0456ZM68.0183 7.08116C70.9407 9.09786 75.1679 8.46645 77.2176 5.55606L91.9532-15.0314L105.543-12.7492L91.9211 7.58956C89.9294 10.6133 90.6517 14.921 93.7875 16.7768C97.5231 18.9769 101.156 17.751 103.034 14.921L121.623-13.1709C124.143-16.9975 122.838-22.8632 117.315-24.2275L91.5895-30.4325C89.3005-31.0113 88.421-32.9996 89.8095-35.0223L100.598-51.2117C101.317-52.2785 102.604-52.4987 103.67-51.7801L119.422-41.0139C120.225-40.463 121.059-40.1202 121.975-39.9489L157.225-33.5396C160.468-32.9556 164.363-34.9698 165.005-38.8753C165.556-42.4276 163.207-45.91 159.655-46.552L125.78-52.699L73.7763-88.2318L88.5046-98.7823C91.5758-100.97 92.1808-105.107 90.1206-108.039C87.9206-110.983 83.7738-111.716 80.8529-109.608L58.4255-93.582C54.599-90.8205 54.541-85.3319 58.5165-82.6628L77.5546-69.5764C78.5739-68.8578 78.8191-67.5603 78.1229-66.5739L62.1853-43.4123C55.4836-33.6589 59.6741-20.3109 72.8943-18.2004L77.3128-17.4712L66.4722-2.25646C64.3171 0.767336 64.9485 4.96158 68.0183 7.08116ZM17.3106-13.1718C15.8638-11.7423 15.5385-9.35757 17.4751-7.63828C46.9773 18.5551 100.078 41.118 153.959 41.118C155.949 41.118 157.574 39.541 157.574 37.5504C157.574 35.5822 155.949 33.9578 153.959 33.9578C101.691 33.9578 50.6963 12.3448 22.1665-13.0951C20.4975-14.5797 18.5477-14.2862 17.3106-13.1718ZM21.0943 14.3914C26.4522 14.3914 34.1042 12.4222 40.661 8.12791L30.6118-1.67708C27.1005 2.98782 24.6436 4.92374 19.6191 7.60915C17.7034 8.66549 17.0235 10.4229 17.5147 12.0197C17.8901 13.3017 19.1851 14.3914 21.0943 14.3914Z"/>
  </g>
  <g id="Regular-L" transform="matrix(1 0 0 1 1360.53 1556)">
   <path d="M108.947-73.2246C116.338-73.2246 122.47-79.3288 122.47-86.7198C122.47-94.1912 116.338-100.27 108.947-100.27C101.476-100.27 95.3965-94.1912 95.3965-86.7198C95.3965-79.3288 101.476-73.2246 108.947-73.2246ZM66.9937 6.6738C69.8059 8.60132 73.8494 7.98562 75.8046 5.20113L90.4257-15.2302L104.295-12.9006L90.667 7.45034C88.7646 10.3429 89.4607 14.4669 92.4337 16.2336C96.0224 18.3496 99.503 17.1709 101.297 14.4669L119.64-13.2751C122.05-16.9442 120.819-22.5685 115.516-23.8803L90.104-30.0122C87.694-30.6279 86.7566-32.7163 88.2293-34.86L98.8873-50.8457C99.6638-51.9967 101.056-52.2379 102.207-51.4614L117.766-40.831C118.542-40.2958 119.319-39.9741 120.203-39.8132L155.014-33.4928C158.121-32.9299 161.843-34.86 162.458-38.5818C162.994-41.982 160.744-45.3018 157.344-45.9175L123.845-51.9967L72.2159-87.2904L86.9979-97.868C89.9432-99.9563 90.5061-103.919 88.551-106.732C86.4349-109.544 82.4718-110.24 79.6873-108.232L57.542-92.4045C53.8729-89.7532 53.8201-84.5059 57.6224-81.9627L76.4203-69.0278C77.5185-68.2513 77.7849-66.859 77.036-65.7885L61.2915-42.9194C54.7575-33.4124 58.8538-20.3997 71.7334-18.3364L76.4203-17.5599L65.521-2.27027C63.4603 0.622295 64.076 4.63819 66.9937 6.6738ZM17.1746-13.3402C15.8427-12.0888 15.5538-9.96038 17.255-8.44515C46.3338 17.3667 98.6511 39.5899 151.747 39.5899C153.476 39.5899 154.886 38.2329 154.886 36.5041C154.886 34.8029 153.476 33.3932 151.747 33.3932C100.033 33.3932 49.5502 11.9943 21.3232-13.1793C19.9161-14.4282 18.2651-14.2448 17.1746-13.3402ZM20.7756 12.6772C26.0382 12.6772 33.4066 10.8025 39.6288 6.73382L30.2979-2.14434C26.8803 2.27875 24.3719 4.27179 19.6046 6.72185C17.9034 7.62138 17.2652 9.1115 17.6622 10.5463C17.9536 11.6922 19.097 12.6772 20.7756 12.6772Z"/>
  </g>
  <g id="Light-L" transform="matrix(1 0 0 1 1065.82 1556)">
   <path d="M106.046-71.9459C113.265-71.9459 119.245-77.8783 119.245-85.0976C119.245-92.3972 113.265-98.3428 106.046-98.3428C98.7464-98.3428 92.8009-92.3972 92.8009-85.0976C92.8009-77.8783 98.7464-71.9459 106.046-71.9459ZM65.276 5.87221C68.0309 7.74249 71.9791 7.14587 73.8961 4.43772L88.1737-15.4974L101.681-13.2251L88.4149 6.62967C86.5316 9.46498 87.2086 13.4935 90.1244 15.203C93.6367 17.2808 97.0219 16.1213 98.7781 13.4935L116.682-13.5804C119.035-17.1732 117.842-22.683 112.654-23.9566L87.852-29.9359C85.4992-30.5325 84.5809-32.5636 86.0154-34.6882L96.4253-50.2731C97.1827-51.3859 98.5368-51.6272 99.6496-50.8697L114.846-40.5066C115.603-39.9904 116.36-39.6687 117.245-39.5079L151.217-33.321C154.246-32.7581 157.873-34.6882 158.469-38.3146C158.986-41.6194 156.794-44.8437 153.489-45.4404L120.791-51.3859L70.3837-85.8399L84.8222-96.1694C87.6911-98.2005 88.2541-102.068 86.3371-104.823C84.2592-107.578 80.3915-108.255 77.6834-106.304L56.0725-90.8204C52.4797-88.2264 52.446-83.1318 56.1529-80.6649L74.4927-68.0163C75.5718-67.2588 75.8-65.9048 75.0893-64.8724L59.7456-42.5377C53.3643-33.2406 57.3461-20.5714 69.9012-18.5273L74.4927-17.7698L63.8415-2.86192C61.8572-0.0266041 62.4538 3.87478 65.276 5.87221ZM16.9837-13.302C15.8427-12.2414 15.6874-10.4757 17.0641-9.24673C45.3987 15.8971 96.3036 37.5287 148.026 37.5287C149.449 37.5287 150.611 36.4007 150.611 34.9773C150.611 33.6005 149.449 32.439 148.026 32.439C97.4185 32.439 48.0043 11.479 20.3881-13.1412C19.2863-14.1419 17.8834-14.0539 16.9837-13.302ZM20.184 11.2458C25.6374 11.2458 32.9295 9.40925 38.6173 5.47419L29.8399-2.31611C26.7276 2.10698 23.8757 4.30996 19.2038 6.3974C17.8271 7.02974 17.3033 8.27175 17.5858 9.42028C17.801 10.4135 18.7344 11.2458 20.184 11.2458Z"/>
  </g>
  <g id="Thin-L" transform="matrix(1 0 0 1 771.743 1556)">
   <path d="M102.209-70.2547C109.201-70.2547 114.979-75.96 114.979-82.952C114.979-90.0245 109.201-95.7933 102.209-95.7933C95.1368-95.7933 89.368-90.0245 89.368-82.952C89.368-75.96 95.1368-70.2547 102.209-70.2547ZM63.0043 4.81206C65.6834 6.6066 69.5054 6.03523 71.3719 3.42805L85.1951-15.8508L98.2226-13.6542L85.4364 5.54427C83.5783 8.30386 84.2301 12.2062 87.0701 13.8399C90.4815 15.8673 93.7405 14.733 95.4461 12.2062L112.77-13.9843C115.047-17.4761 113.904-22.8344 108.867-24.0576L84.8734-29.8349C82.5964-30.4063 81.7033-32.3617 83.0873-34.461L93.1691-49.5159C93.9013-50.5782 95.2049-50.8194 96.2672-50.0872L110.984-40.0775C111.716-39.5865 112.448-39.2648 113.333-39.104L146.193-33.0939C149.122-32.5309 152.622-34.461 153.194-37.9612C153.685-41.1398 151.569-44.2379 148.39-44.8093L116.752-50.5782L67.9605-83.9215L81.9446-93.9229C84.7126-95.8783 85.2755-99.6197 83.409-102.299C81.3816-104.978 77.6401-105.63 75.033-103.755L54.1288-88.7254C50.637-86.207 50.6286-81.3144 54.2093-78.9484L71.9433-66.6785C72.9972-65.9463 73.1749-64.6427 72.5146-63.6608L57.7011-42.0329C51.5216-33.0134 55.352-20.7986 67.478-18.7797L71.9433-18.0475L61.6203-3.64441C59.7369-0.884826 60.3082 2.86511 63.0043 4.81206ZM16.7313-13.2515C15.8427-12.4434 15.8641-11.1572 16.8117-10.3069C44.1618 13.9535 93.1989 34.8025 143.104 34.8025C144.123 34.8025 144.957 33.9775 144.957 32.9579C144.957 32.0103 144.123 31.1769 143.104 31.1769C93.9603 31.1769 45.9597 10.7974 19.1512-13.0907C18.4533-13.7633 17.3786-13.8015 16.7313-13.2515ZM19.4015 9.35271C25.1073 9.35271 32.2985 7.5666 37.2794 3.80823L29.2341-2.54329C26.5256 1.87981 23.2194 4.36045 18.6737 5.96829C17.7261 6.24724 17.3538 7.16111 17.4849 7.93101C17.599 8.72228 18.2548 9.35271 19.4015 9.35271Z"/>
  </g>
  <g id="Ultralight-L" transform="matrix(1 0 0 1 476.383 1556)">
   <path d="M100.244-69.3884C107.12-69.3884 112.794-74.9774 112.794-81.8531C112.794-88.8092 107.12-94.4875 100.244-94.4875C93.288-94.4875 87.6097-88.8092 87.6097-81.8531C87.6097-74.9774 93.288-69.3884 100.244-69.3884ZM61.8407 4.26905C64.4811 6.02481 68.2383 5.46636 70.079 2.9109L83.6695-16.0318L96.4514-13.874L83.9108 4.98834C82.0656 7.70914 82.7045 11.5468 85.5057 13.1418C88.8654 15.1433 92.0597 14.0219 93.7395 11.5468L110.766-14.1911C113.004-17.6312 111.887-22.912 106.928-24.1093L83.3479-29.7832C81.1096-30.3416 80.2294-32.2582 81.5876-34.3446L91.5013-49.128C92.2206-50.1645 93.4983-50.4057 94.5348-49.6864L109.005-39.8577C109.725-39.3797 110.444-39.058 111.329-38.8971L143.621-32.9775C146.498-32.4146 149.933-34.3446 150.492-37.7802C150.97-40.8942 148.892-43.9277 145.778-44.4861L114.684-50.1645L66.7193-82.939L80.4707-92.7722C83.187-94.6888 83.75-98.3657 81.9093-101.006C79.9078-103.646 76.2309-104.285 73.6754-102.449L53.1333-87.6523C49.6932-85.1727 49.6977-80.3835 53.2137-78.0693L70.6375-65.9933C71.6784-65.274 71.8303-63.9962 71.1959-63.0402L56.6538-41.7743C50.5779-32.8971 54.3306-20.915 66.2368-18.909L70.6375-18.1897L60.4825-4.0452C58.6508-1.3244 59.2093 2.34796 61.8407 4.26905ZM16.602-13.2257C15.8427-12.5468 15.9546-11.5063 16.6824-10.8499C43.5283 12.958 91.6086 33.4062 140.583 33.4062C141.395 33.4062 142.061 32.7364 142.061 31.9236C142.061 31.1958 141.395 30.5304 140.583 30.5304C92.1891 30.5304 44.9125 10.4484 18.5177-13.0648C18.0266-13.5694 17.12-13.6722 16.602-13.2257ZM19.0007 8.38305C24.8358 8.38305 31.9752 6.6228 36.5942 2.95493L28.9238-2.65965C26.4222 1.76345 22.8833 4.3863 18.4022 5.7485C17.6744 5.84645 17.3797 6.59224 17.4332 7.16821C17.4956 7.85605 18.0091 8.38305 19.0007 8.38305Z"/>
  </g>
  <g id="Black-M" transform="matrix(1 0 0 1 2857.97 1126)">
   <path d="M95.0141-68.6898C101.792-68.6898 107.344-74.2424 107.344-81.0204C107.344-87.8035 101.792-93.3504 95.0141-93.3504C88.2309-93.3504 82.684-87.8035 82.684-81.0204C82.684-74.2424 88.2309-68.6898 95.0141-68.6898ZM56.8828-0.825709C59.6405 1.13243 63.7382 0.576615 65.7532-2.23845L77.5857-18.7461L86.6882-17.2187L76.2882-1.68688C74.3358 1.2473 75.011 5.40731 78.1788 7.24084C81.7311 9.32331 85.2214 8.16007 87.0546 5.40731L102.45-17.7589C104.896-21.4306 103.556-27.0602 98.2902-28.3483L77.1081-33.4439C75.9181-33.7143 75.5127-34.7693 76.1832-35.7666L85.0652-49.1212C85.346-49.5425 85.84-49.6152 86.2612-49.3345L99.2414-40.4522C99.9789-39.9587 100.888-39.5953 101.744-39.4135L130.811-34.0794C133.933-33.5291 137.724-35.4812 138.337-39.3296C138.83-42.7576 136.566-46.1804 133.138-46.7933L105.416-51.8263L63.7996-80.1822L74.8432-88.1455C77.7829-90.2853 78.4474-94.2636 76.3753-97.0784C74.2929-99.9503 70.2575-100.683 67.3853-98.6051L48.8783-85.3811C45.2066-82.7481 45.144-77.4243 48.9977-74.7961L64.7103-64.0496C65.1261-63.7689 65.2046-63.2178 64.9235-62.8588L51.813-43.7339C45.892-35.1019 49.5384-23.3164 61.2561-21.4678L63.3971-21.13L55.3559-9.82095C53.2729-6.88676 53.8287-2.84587 56.8828-0.825709ZM13.9797-17.3437C12.3882-15.4719 12.0124-12.554 14.4988-10.3693C39.0731 11.4729 83.3817 30.3337 128.308 30.3337C130.965 30.3337 133.139 28.1655 133.139 25.5081C133.139 22.8504 130.965 20.6767 128.308 20.6767C85.6128 20.6767 44.0868 3.08482 20.7812-17.6759C18.373-19.8392 15.5556-19.1318 13.9797-17.3437ZM17.6252 10.7082C22.2846 10.7082 29.5075 8.75559 35.9636 4.42373L25.0218-7.1178C21.9696-2.37782 20.1887-1.07254 15.1306 1.98037C12.7584 3.43797 12.0765 5.95949 12.8569 7.85352C13.5122 9.42883 15.1506 10.7082 17.6252 10.7082Z"/>
  </g>
  <g id="Heavy-M" transform="matrix(1 0 0 1 2562.46 1126)">
   <path d="M92.9006-67.9121C99.4535-67.9121 104.837-73.2935 104.837-79.8463C104.837-86.4178 99.4535-91.7851 92.9006-91.7851C86.3292-91.7851 80.9618-86.4178 80.9618-79.8463C80.9618-73.2935 86.3292-67.9121 92.9006-67.9121ZM55.9386-1.17564C58.5673 0.680505 62.4501 0.14072 64.3521-2.52937L76.1117-18.9436L85.6507-17.343L75.1645-1.68903C73.3225 1.08926 73.9682 5.03436 76.9396 6.7659C80.32 8.74893 83.6358 7.64215 85.3696 5.03436L100.545-17.8268C102.862-21.3131 101.608-26.6578 96.5996-27.8869L75.688-32.9217C74.3305-33.2433 73.8468-34.4389 74.6335-35.5954L83.4014-48.775C83.7604-49.3124 84.3975-49.4121 84.935-49.0531L97.7453-40.2874C98.4533-39.81 99.2922-39.4735 100.108-39.3053L128.793-34.0564C131.756-33.533 135.346-35.3773 135.93-39.0109C136.407-42.2644 134.258-45.4992 131.005-46.0826L103.592-51.0573L62.1932-79.2872L73.3794-87.3385C76.1741-89.3629 76.7847-93.1397 74.8391-95.8121C72.856-98.5281 69.0356-99.2174 66.3218-97.2554L48.0616-84.2122C44.5753-81.7081 44.5153-76.6607 48.1675-74.1776L63.6705-63.5637C64.1915-63.2047 64.3053-62.524 63.9486-62.0489L50.9995-43.1842C45.2606-34.8229 48.8109-23.3933 60.1617-21.6012L62.6672-21.1985L54.4976-9.71156C52.5191-6.93327 53.0589-3.09637 55.9386-1.17564ZM13.8464-17.5677C12.3613-15.8831 12.0034-13.216 14.2576-11.2313C38.4493 10.2654 82.0566 28.8179 126.273 28.8179C128.66 28.8179 130.612 26.8825 130.612 24.4951C130.612 22.1099 128.66 20.1581 126.273 20.1581C84.0498 20.1581 42.9499 2.74629 19.9013-17.792C17.7631-19.7065 15.2754-19.1197 13.8464-17.5677ZM17.3438 8.81866C21.8401 8.81866 28.7159 6.97892 34.8579 2.9075L24.7179-7.6798C21.7201-3.24974 19.947-1.91633 15.1981 0.912819C13.0311 2.22683 12.3781 4.45909 13.0623 6.20697C13.6265 7.64055 15.1155 8.81866 17.3438 8.81866Z"/>
  </g>
  <g id="Bold-M" transform="matrix(1 0 0 1 2267.1 1126)">
   <path d="M90.5365-67.0422C96.8375-67.0422 102.032-72.232 102.032-78.533C102.032-84.8677 96.8375-90.0341 90.5365-90.0341C84.2018-90.0341 79.0354-84.8677 79.0354-78.533C79.0354-72.232 84.2018-67.0422 90.5365-67.0422ZM54.8822-1.56709C57.3667 0.17496 61.0091-0.346892 62.7849-2.85481L74.4628-19.1646L84.4901-17.4821L73.9075-1.69143C72.1889 0.912469 72.8016 4.61717 75.5535 6.23461C78.7416 8.10641 81.8622 7.06278 83.4847 4.61717L98.4132-17.9027C100.586-21.1816 99.4282-26.2077 94.7084-27.3708L74.0994-32.3374C72.5545-32.7166 71.9833-34.0693 72.8999-35.4039L81.5402-48.3877C81.9868-49.0551 82.784-49.1849 83.4513-48.7383L96.0717-40.1032C96.7467-39.6436 97.5073-39.3373 98.2783-39.1841L126.536-34.0306C129.322-33.5374 132.686-35.2611 133.237-38.6543C133.696-41.7126 131.676-44.7372 128.618-45.2876L101.552-50.197L60.3962-78.286L71.742-86.4358C74.3745-88.331 74.9248-91.8825 73.1205-94.3956C71.2487-96.9372 67.6687-97.5784 65.1322-95.7455L47.148-82.9046C43.8691-80.5447 43.8119-75.8067 47.2388-73.4857L62.5074-63.0202C63.1461-62.5736 63.2994-61.7479 62.8579-61.1428L50.0895-42.5693C44.5544-34.5108 47.9971-23.4794 58.9375-21.7504L61.8508-21.2752L53.5374-9.5892C51.6759-6.9853 52.1978-3.37658 54.8822-1.56709ZM13.6972-17.8182C12.3311-16.3432 11.9932-13.9564 13.9879-12.1955C37.7514 8.91464 80.5743 27.1223 123.997 27.1223C126.082 27.1223 127.786 25.4472 127.786 23.3618C127.786 21.2816 126.082 19.5779 123.997 19.5779C82.3013 19.5779 41.6782 2.3676 18.9171-17.922C17.0809-19.5581 14.9619-19.1061 13.6972-17.8182ZM17.029 6.70489C21.3429 6.70489 27.8304 4.99146 33.6211 1.21138L24.378-8.30848C21.4409-4.22511 19.6767-2.86024 15.2737-0.281386C13.3362 0.871999 12.7154 2.78068 13.292 4.36506C13.7543 5.6401 15.0762 6.70489 17.029 6.70489Z"/>
  </g>
  <g id="Semibold-M" transform="matrix(1 0 0 1 1971.32 1126)">
   <path d="M88.9067-66.4424C95.034-66.4424 100.099-71.5003 100.099-77.6276C100.099-83.7991 95.034-88.827 88.9067-88.827C82.7352-88.827 77.7073-83.7991 77.7073-77.6276C77.7073-71.5003 82.7352-66.4424 88.9067-66.4424ZM54.154-1.83696C56.5391-0.17356 60.0158-0.683048 61.7044-3.07916L73.3261-19.3169L83.69-17.578L73.0409-1.69309C71.4075 0.790592 71.9974 4.32956 74.5979 5.86835C77.6534 7.66346 80.6394 6.66337 82.1853 4.32956L96.9437-17.955C99.0172-21.0909 97.9256-25.8974 93.4047-27.015L73.0043-31.9347C71.3302-32.3534 70.6986-33.8146 71.7047-35.2718L80.257-48.1208C80.764-48.8777 81.6716-49.0283 82.4285-48.5213L94.9179-39.9761C95.5701-39.5289 96.2768-39.2434 97.0167-39.1006L124.98-34.0129C127.643-33.5405 130.852-35.181 131.38-38.4085C131.827-41.3322 129.896-44.2118 126.973-44.7395L100.145-49.604L59.1573-77.5958L70.6131-85.8135C73.1338-87.6196 73.6426-91.0158 71.9358-93.419C70.1407-95.8404 66.7263-96.4485 64.312-94.7047L46.5181-82.0031C43.3822-79.7427 43.327-75.2178 46.5986-73.0087L61.7055-62.6456C62.4254-62.1386 62.606-61.2129 62.1061-60.5182L49.4622-42.1454C44.0676-34.2956 47.436-23.5387 58.0935-21.8532L61.2879-21.3281L52.8755-9.50484C51.0946-7.02116 51.6041-3.56976 54.154-1.83696ZM13.5943-17.9909C12.3103-16.6603 11.9862-14.4669 13.8019-12.8603C37.2703 7.98345 79.5524 25.9533 122.428 25.9533C124.305 25.9533 125.837 24.4578 125.837 22.5806C125.837 20.7105 124.305 19.178 122.428 19.178C81.096 19.178 40.8015 2.10653 18.2385-18.0115C16.6105-19.4558 14.7458-19.0968 13.5943-17.9909ZM16.812 5.24767C21.0002 5.24767 27.22 3.62132 32.7684 0.0420918L24.1436-8.74189C21.2485-4.89753 19.4903-3.51096 15.3258-1.10466C13.5465-0.0620164 12.948 1.62359 13.4504 3.09527C13.8424 4.26101 15.0492 5.24767 16.812 5.24767Z"/>
  </g>
  <g id="Medium-M" transform="matrix(1 0 0 1 1675.31 1126)">
   <path d="M87.6709-65.9877C93.6666-65.9877 98.6329-70.9454 98.6329-76.9411C98.6329-82.9888 93.6666-87.9117 87.6709-87.9117C81.6231-87.9117 76.7002-82.9888 76.7002-76.9411C76.7002-70.9454 81.6231-65.9877 87.6709-65.9877ZM53.6019-2.04158C55.9115-0.437822 59.2625-0.937936 60.8852-3.24927L72.4642-19.4323L83.0833-17.6507L72.3839-1.69434C70.815 0.698179 71.3877 4.11148 73.8733 5.59063C76.8283 7.3276 79.7123 6.36052 81.2 4.11148L95.8294-17.9947C97.8276-21.0222 96.7862-25.6621 92.4161-26.7452L72.1739-31.6293C70.4018-32.078 69.7244-33.6214 70.7985-35.1717L79.2841-47.9183C79.8369-48.7432 80.8281-48.9096 81.653-48.3568L94.043-39.8798C94.678-39.442 95.3438-39.1722 96.06-39.0373L123.8-33.9994C126.37-33.5428 129.462-35.1203 129.972-38.2221C130.41-41.0438 128.547-43.8135 125.725-44.3239L99.079-49.1543L58.218-77.0725L69.7572-85.3416C72.1931-87.0802 72.6704-90.3586 71.0375-92.6786C69.3005-95.0088 66.0118-95.5918 63.6902-93.9154L46.0406-81.3196C43.013-79.1346 42.9593-74.7714 46.1131-72.647L61.0975-62.3615C61.879-61.8087 62.0801-60.8072 61.536-60.0446L48.9865-41.824C43.6984-34.1324 47.0106-23.5837 57.4536-21.9312L60.8611-21.3682L52.3736-9.44088C50.6539-7.04836 51.154-3.71624 53.6019-2.04158ZM13.5163-18.1219C12.2946-16.9007 11.981-14.8539 13.6609-13.3643C36.9055 7.27738 78.7775 25.0669 121.238 25.0669C122.957 25.0669 124.36 23.7076 124.36 21.9882C124.36 20.2775 122.957 18.8747 121.238 18.8747C80.182 18.8747 40.1367 1.90858 17.724-18.0795C16.2539-19.3782 14.582-19.0897 13.5163-18.1219ZM16.6475 4.14275C20.7403 4.14275 26.7571 2.58242 32.1218-0.844515L23.9659-9.07051C21.1026-5.40738 19.349-4.00437 15.3654-1.72891C13.706-0.770226 13.1243 0.74624 13.5705 2.13245C13.9093 3.21532 15.0286 4.14275 16.6475 4.14275Z"/>
  </g>
  <g id="Regular-M" transform="matrix(1 0 0 1 1379.51 1126)">
   <path d="M86.0589-65.3945C91.8829-65.3945 96.7206-70.2217 96.7206-76.0456C96.7206-81.9319 91.8829-86.7178 86.0589-86.7178C80.1726-86.7178 75.3867-81.9319 75.3867-76.0456C75.3867-70.2217 80.1726-65.3945 86.0589-65.3945ZM52.8817-2.30848C55.093-0.782512 58.2801-1.2704 59.8166-3.47116L71.3399-19.583L82.292-17.7455L71.5269-1.69598C70.0421 0.577641 70.5923 3.82703 72.9282 5.22839C75.752 6.88951 78.503 5.96549 79.9149 3.82703L94.3761-18.0465C96.2759-20.9326 95.3001-25.3552 91.1267-26.3933L71.0907-31.2309C69.1909-31.7188 68.4538-33.3694 69.6165-35.0411L78.0151-47.6543C78.6276-48.5677 79.728-48.7547 80.6414-48.1422L92.9019-39.7541C93.5144-39.3285 94.1269-39.0793 94.8122-38.9547L122.26-33.9819C124.71-33.5458 127.648-35.0411 128.136-37.9789C128.562-40.6676 126.787-43.2939 124.098-43.7818L97.6878-48.5677L56.9928-76.3898L68.6407-84.7261C70.9661-86.3767 71.4022-89.5015 69.8657-91.7128C68.2046-93.9241 65.0798-94.4743 62.8791-92.886L45.4176-80.4281C42.5315-78.3414 42.4798-74.1891 45.48-72.1752L60.3045-61.9909C61.1662-61.3784 61.3943-60.278 60.7923-59.4269L48.3661-41.4047C43.2169-33.9196 46.4557-23.6423 56.6189-22.033L60.3045-21.4205L51.719-9.35745C50.0789-7.08383 50.5668-3.9073 52.8817-2.30848ZM13.4146-18.2927C12.274-17.2144 11.9741-15.3588 13.4769-14.0218C36.4297 6.35642 77.7669 23.9108 119.686 23.9108C121.199 23.9108 122.433 22.729 122.433 21.2156C122.433 19.7127 121.199 18.4792 119.686 18.4792C78.9899 18.4792 39.2696 1.65038 17.0529-18.1681C15.7887-19.277 14.3683-19.0805 13.4146-18.2927ZM16.4329 2.70154C20.4013 2.70154 26.1534 1.22733 31.2785-2.00096L23.7341-9.49916C20.9123-6.0724 19.1647-4.64794 15.4169-2.54314C13.914-1.69398 13.3543-0.398132 13.7271 0.87661C13.9965 1.85138 15.0019 2.70154 16.4329 2.70154Z"/>
  </g>
  <g id="Light-M" transform="matrix(1 0 0 1 1084.59 1126)">
   <path d="M83.4581-64.2481C89.1281-64.2481 93.8288-68.9212 93.8288-74.5912C93.8288-80.3235 89.1281-84.9896 83.4581-84.9896C77.7258-84.9896 73.0597-80.3235 73.0597-74.5912C73.0597-68.9212 77.7258-64.2481 83.4581-64.2481ZM51.3417-3.02714C53.5017-1.5525 56.6032-2.02328 58.1055-4.1556L69.3208-19.8225L79.9478-18.0364L69.5078-2.43175C68.0401-0.209463 68.5732 2.95438 70.8578 4.3044C73.6132 5.9313 76.2786 5.02439 77.6562 2.95438L91.7239-18.3202C93.5724-21.1379 92.6308-25.4579 88.5601-26.4617L69.0716-31.1625C67.2232-31.6333 66.5032-33.2325 67.6316-34.8871L75.8078-47.1409C76.4032-48.0202 77.4693-48.2071 78.3486-47.6117L90.2839-39.4632C90.8793-39.0548 91.4747-38.8056 92.16-38.6809L118.855-33.8279C121.237-33.3918 124.089-34.8871 124.56-37.7394C124.969-40.3425 123.245-42.8833 120.642-43.3541L94.9501-48.0202L55.3501-75.0894L66.6901-83.2032C68.947-84.8025 69.3832-87.8417 67.8809-90.0017C66.254-92.1617 63.2147-92.6947 61.0824-91.1578L44.1001-79.0079C41.2824-76.9725 41.2478-72.9571 44.1624-71.0117L58.5763-61.084C59.4209-60.4886 59.6148-59.4225 59.047-58.6055L46.9801-41.0625C41.9678-33.7656 45.104-23.7963 54.9763-22.2041L58.5763-21.6087L50.2132-9.88789C48.6416-7.6656 49.1124-4.59173 51.3417-3.02714ZM13.2435-18.2584C12.274-17.3513 12.0938-15.8208 13.3058-14.7404C35.5912 5.03888 75.6622 22.0628 116.349 22.0628C117.589 22.0628 118.6 21.0863 118.6 19.8467C118.6 18.6347 117.589 17.6236 116.349 17.6236C76.6457 17.6236 37.8836 1.18838 16.2145-18.1338C15.2241-19.0203 14.0261-18.9094 13.2435-18.2584ZM15.9024 1.41822C20.042 1.41822 25.7256-0.0217657 30.3716-3.13028L23.3234-9.65316C20.7754-6.2264 18.7199-4.61372 15.0576-2.83402C13.8456-2.22442 13.3885-1.15101 13.6587-0.132936C13.8596 0.704948 14.6768 1.41822 15.9024 1.41822Z"/>
  </g>
  <g id="Thin-M" transform="matrix(1 0 0 1 790.245 1126)">
   <path d="M80.0182-62.7319C85.4845-62.7319 90.0043-67.2013 90.0043-72.6676C90.0043-78.1962 85.4845-82.7039 80.0182-82.7039C74.4896-82.7039 69.9819-78.1962 69.9819-72.6676C69.9819-67.2013 74.4896-62.7319 80.0182-62.7319ZM49.3049-3.97762C51.397-2.57088 54.3854-3.01903 55.8424-5.06082L66.6504-20.1393L76.8474-18.4211L66.8374-3.40487C65.3923-1.25047 65.9028 1.80022 68.1195 3.08235C70.7843 4.66399 73.3366 3.77971 74.669 1.80022L88.2162-18.6823C89.9967-21.4095 89.1005-25.5936 85.1655-26.5522L66.4012-31.072C64.6207-31.5201 63.9233-33.0515 65.0065-34.6834L72.8884-46.462C73.4612-47.296 74.4821-47.4829 75.3161-46.9102L86.8214-39.0785C87.3942-38.6927 87.967-38.4435 88.6523-38.3189L114.352-33.6242C116.643-33.1881 119.382-34.6834 119.83-37.4226C120.216-39.9125 118.56-42.3401 116.07-42.7883L91.3292-47.296L53.1776-73.3695L64.1102-81.1891C66.2766-82.7204 66.7127-85.6465 65.2557-87.7386C63.6741-89.8307 60.748-90.3412 58.7062-88.8721L42.3576-77.1295C39.6304-75.162 39.6184-71.3277 42.4199-69.4728L56.2906-59.8846C57.1125-59.3118 57.2612-58.2909 56.7387-57.5193L45.147-40.6099C40.3158-33.5619 43.3161-24 52.8037-22.4304L56.2906-21.8576L48.2217-10.5894C46.7407-8.43505 47.1888-5.49696 49.3049-3.97762ZM13.0172-18.2132C12.274-17.5323 12.2522-16.4318 13.0795-15.6909C34.4823 3.29632 72.8787 19.6187 111.936 19.6187C112.814 19.6187 113.531 18.9138 113.531 18.0363C113.531 17.209 112.814 16.4921 111.936 16.4921C73.5453 16.4921 36.0505 0.577354 15.1056-18.0886C14.4773-18.6809 13.5734-18.6831 13.0172-18.2132ZM15.2009-0.279072C19.5667-0.279072 25.1599-1.6738 29.1722-4.6239L22.7803-9.85683C20.5943-6.43007 18.1315-4.56846 14.5823-3.21874C13.7551-2.92596 13.4338-2.14676 13.5682-1.46814C13.6785-0.811302 14.2468-0.279072 15.2009-0.279072Z"/>
  </g>
  <g id="Ultralight-M" transform="matrix(1 0 0 1 494.746 1126)">
   <path d="M78.2563-61.9552C83.6183-61.9552 88.0453-66.3204 88.0453-71.6824C88.0453-77.1066 83.6183-81.5332 78.2563-81.5332C72.8321-81.5332 68.4055-77.1066 68.4055-71.6824C68.4055-66.3204 72.8321-61.9552 78.2563-61.9552ZM48.2617-4.46445C50.319-3.09249 53.2494-3.52904 54.6833-5.52448L65.2827-20.3016L75.2594-18.6181L65.4696-3.90329C64.0362-1.78367 64.535 1.20906 66.7169 2.45642C69.3354 4.01488 71.8297 3.14219 73.1389 1.20906L86.4195-18.8678C88.1653-21.5486 87.2922-25.6632 83.4268-26.5986L65.0334-31.0256C63.2877-31.4622 62.6019-32.9587 63.6619-34.5791L71.3932-46.1143C71.9543-46.9251 72.952-47.112 73.7628-46.5508L85.048-38.8815C85.6091-38.5072 86.1703-38.258 86.8557-38.1334L112.045-33.5199C114.29-33.0838 116.971-34.5791 117.408-37.2603C117.782-39.6923 116.161-42.062 113.729-42.4985L89.4746-46.9251L52.0648-72.4885L62.7888-80.1575C64.9088-81.654 65.345-84.5222 63.9111-86.5795C62.3527-88.6368 59.4845-89.1357 57.4891-87.7014L41.465-76.1674C38.7842-74.2347 38.7838-70.4931 41.5273-68.6846L55.1198-59.2703C55.9302-58.7091 56.0557-57.7114 55.5564-56.9629L44.2081-40.378C39.4696-33.4576 42.4004-24.1043 51.691-22.5463L55.1198-21.9851L47.2017-10.9488C45.767-8.82915 46.2035-5.96061 48.2617-4.46445ZM12.9013-18.19C12.274-17.6251 12.3334-16.7448 12.9636-16.1777C33.9144 2.40379 71.4529 18.3668 109.676 18.3668C110.368 18.3668 110.934 17.801 110.934 17.109C110.934 16.4788 110.368 15.9125 109.676 15.9125C71.9573 15.9125 35.1116 0.26439 14.5376-18.0654C14.0947-18.507 13.3416-18.5672 12.9013-18.19ZM14.8416-1.14842C19.3233-1.14842 24.8701-2.51996 28.5579-5.38892L22.5021-9.96115C20.5016-6.5344 17.8301-4.54528 14.3389-3.4158C13.7087-3.28529 13.457-2.65678 13.5218-2.15203C13.5858-1.58792 14.0266-1.14842 14.8416-1.14842Z"/>
  </g>
  <g id="Black-S" transform="matrix(1 0 0 1 2874.03 696)">
   <path d="M74.9512-61.6211C80.3223-61.6211 84.7168-66.0156 84.7168-71.3867C84.7168-76.7578 80.3223-81.1523 74.9512-81.1523C69.5801-81.1523 65.1855-76.7578 65.1855-71.3867C65.1855-66.0156 69.5801-61.6211 74.9512-61.6211ZM44.7754-8.20312C46.9727-6.64062 50.2441-7.08008 51.8555-9.32617L61.1328-22.2656L68.1152-21.0938L60.0098-8.98438C58.4473-6.64062 58.9844-3.32031 61.5234-1.85547C64.3555-0.195312 67.1387-1.12305 68.6035-3.32031L80.7129-21.5332C82.666-24.4629 81.5918-28.9551 77.3926-29.9805L60.7422-33.9844C59.8633-34.1797 59.5703-34.9609 60.0586-35.6934L67.041-46.1914C67.2363-46.4844 67.5781-46.5332 67.8711-46.3379L78.0762-39.3555C78.6621-38.9648 79.3945-38.6719 80.0781-38.5254L102.93-34.3262C105.42-33.8867 108.447-35.4492 108.936-38.5254C109.326-41.2598 107.52-43.9941 104.785-44.4824L83.0078-48.4375L50.3906-70.6543L58.9844-76.8555C61.3281-78.5645 61.8652-81.7383 60.2051-83.9844C58.5449-86.2793 55.3223-86.8652 53.0273-85.2051L38.4766-74.8047C35.5469-72.7051 35.498-68.457 38.5742-66.3574L50.9277-57.9102C51.2207-57.7148 51.2695-57.3242 51.0742-57.0801L40.7715-42.041C36.084-35.2051 38.9648-25.8789 48.2422-24.4141L49.8047-24.1699L43.5547-15.3809C41.8945-13.0371 42.334-9.81445 44.7754-8.20312ZM10.9863-21.1426C9.7168-19.6289 9.42383-17.2852 11.4258-15.5273C30.7617 1.66016 65.625 16.5039 100.977 16.5039C103.125 16.5039 104.883 14.7461 104.883 12.5977C104.883 10.4492 103.125 8.69141 100.977 8.69141C67.4316 8.69141 34.8145-5.12695 16.5039-21.4355C14.5508-23.1934 12.2559-22.6074 10.9863-21.1426ZM13.8672 1.26953C17.5781 1.26953 23.3398-0.292969 28.4668-3.75977L19.6777-13.0371C17.2852-9.22852 15.8691-8.20312 11.8164-5.76172C9.91211-4.58984 9.375-2.53906 10.0098-1.02539C10.5469 0.244141 11.8652 1.26953 13.8672 1.26953Z"/>
  </g>
  <g id="Heavy-S" transform="matrix(1 0 0 1 2578.11 696)">
   <path d="M73.476-61.1025C78.6743-61.1025 82.942-65.3703 82.942-70.5685C82.942-75.7782 78.6743-80.0345 73.476-80.0345C68.2663-80.0345 64.0101-75.7782 64.0101-70.5685C64.0101-65.3703 68.2663-61.1025 73.476-61.1025ZM44.1646-8.41057C46.2581-6.92874 49.3568-7.35667 50.8759-9.48751L60.1302-22.4039L67.5275-21.1629L59.3068-8.89218C57.8365-6.6752 58.3505-3.52775 60.7282-2.14358C63.422-0.564095 66.0669-1.44573 67.4511-3.52775L79.4222-21.5563C81.2716-24.3361 80.2665-28.5978 76.2747-29.5771L59.7857-33.5464C58.7569-33.7879 58.3948-34.6959 58.9868-35.5666L65.9001-45.9609C66.1646-46.3576 66.6331-46.4295 67.0298-46.165L77.1312-39.2517C77.6941-38.8726 78.3689-38.6027 79.0179-38.4678L101.639-34.3262C104.002-33.9098 106.868-35.3801 107.334-38.2834C107.713-40.8795 105.998-43.464 103.402-43.9292L81.7977-47.8498L49.2267-70.055L57.9817-76.3599C60.2103-77.9767 60.7013-80.9892 59.1448-83.12C57.5653-85.2882 54.5156-85.8396 52.3474-84.2716L37.9464-73.9865C35.1666-71.9906 35.1177-67.9615 38.0326-65.9771L50.2593-57.6105C50.6445-57.3461 50.7279-56.8402 50.4634-56.4923L40.2529-41.6146C35.7037-34.9861 38.5154-25.925 47.5161-24.5063L49.4013-24.2045L43.013-15.2195C41.4336-13.0025 41.8615-9.94122 44.1646-8.41057ZM10.8941-21.3385C9.69375-19.9631 9.40078-17.7922 11.2414-16.1727C30.3353 0.795821 64.7607 15.4437 99.6628 15.4437C101.615 15.4437 103.212 13.8587 103.212 11.9062C103.212 9.95367 101.615 8.3572 99.6628 8.3572C66.3944 8.3572 34.0193-5.35744 15.8585-21.5393C14.1013-23.1127 12.0599-22.6189 10.8941-21.3385ZM13.6943-0.182551C17.2439-0.182551 22.7175-1.65286 27.637-4.91221L19.4703-13.4981C17.0892-9.95456 15.7193-8.92917 11.9201-6.63758C10.1541-5.5579 9.62854-3.72608 10.1942-2.30461C10.6621-1.1388 11.8768-0.182551 13.6943-0.182551Z"/>
  </g>
  <g id="Bold-S" transform="matrix(1 0 0 1 2282.3 696)">
   <path d="M71.8262-60.5225C76.8311-60.5225 80.957-64.6484 80.957-69.6533C80.957-74.6826 76.8311-78.7842 71.8262-78.7842C66.7969-78.7842 62.6953-74.6826 62.6953-69.6533C62.6953-64.6484 66.7969-60.5225 71.8262-60.5225ZM43.4814-8.64258C45.459-7.25098 48.3643-7.66602 49.7803-9.66797L59.0088-22.5586L66.8701-21.2402L58.5205-8.78906C57.1533-6.71387 57.6416-3.75977 59.8389-2.46582C62.3779-0.976562 64.8682-1.80664 66.1621-3.75977L77.9785-21.582C79.7119-24.1943 78.7842-28.1982 75.0244-29.126L58.7158-33.0566C57.5195-33.3496 57.0801-34.3994 57.7881-35.4248L64.624-45.7031C64.9658-46.2158 65.5762-46.3135 66.0889-45.9717L76.0742-39.1357C76.6113-38.7695 77.2217-38.5254 77.832-38.4033L100.195-34.3262C102.417-33.9355 105.103-35.3027 105.542-38.0127C105.908-40.4541 104.297-42.8711 101.855-43.3105L80.4443-47.1924L47.9248-69.3848L56.8604-75.8057C58.96-77.3193 59.3994-80.1514 57.959-82.1533C56.4697-84.1797 53.6133-84.6924 51.5869-83.2275L37.3535-73.0713C34.7412-71.1914 34.6924-67.4072 37.4268-65.5518L49.5117-57.2754C50-56.9336 50.1221-56.2988 49.7803-55.835L39.6729-41.1377C35.2783-34.7412 38.0127-25.9766 46.7041-24.6094L48.9502-24.2432L42.4072-15.0391C40.918-12.9639 41.333-10.083 43.4814-8.64258ZM10.791-21.5576C9.66797-20.3369 9.375-18.3594 11.0352-16.8945C29.8584-0.170898 63.7939 14.2578 98.1934 14.2578C99.9268 14.2578 101.343 12.8662 101.343 11.1328C101.343 9.39941 99.9268 7.9834 98.1934 7.9834C65.2344 7.9834 33.1299-5.61523 15.1367-21.6553C13.5986-23.0225 11.8408-22.6318 10.791-21.5576ZM13.501-1.80664C16.8701-1.80664 22.0215-3.17383 26.709-6.20117L19.2383-14.0137C16.8701-10.7666 15.5518-9.74121 12.0361-7.61719C10.4248-6.64062 9.91211-5.05371 10.4004-3.73535C10.791-2.68555 11.8896-1.80664 13.501-1.80664Z"/>
  </g>
  <g id="Semibold-S" transform="matrix(1 0 0 1 1986.21 696)">
   <path d="M70.6887-60.1226C75.5603-60.1226 79.5885-64.1508 79.5885-69.0224C79.5885-73.9272 75.5603-77.9222 70.6887-77.9222C65.7838-77.9222 61.7889-73.9272 61.7889-69.0224C61.7889-64.1508 65.7838-60.1226 70.6887-60.1226ZM43.0104-8.80254C44.908-7.47314 47.68-7.8793 49.0249-9.79238L58.2356-22.6652L66.4169-21.2936L57.9784-8.71797C56.6823-6.74053 57.1528-3.91973 59.2257-2.68799C61.6581-1.26094 64.0417-2.05547 65.2734-3.91973L76.9832-21.5998C78.6366-24.0966 77.7622-27.9228 74.1624-28.8149L57.9782-32.7189C56.6664-33.0475 56.1736-34.195 56.9616-35.3271L63.7442-45.5254C64.1394-46.1181 64.8475-46.2335 65.4401-45.8384L75.3455-39.0558C75.8648-38.6984 76.4308-38.4721 77.0145-38.3589L99.2-34.3262C101.324-33.9533 103.885-35.2494 104.307-37.8261C104.664-40.1608 103.124-42.4623 100.789-42.884L79.5112-46.7392L47.0272-68.9227L56.0872-75.4235C58.0979-76.8661 58.5019-79.5737 57.1414-81.4868C55.7144-83.4154 52.9912-83.9015 51.0626-82.5077L36.9447-72.4403C34.4479-70.6404 34.3991-67.0251 37.0091-65.2585L48.9963-57.0443C49.5557-56.6492 49.7044-55.9256 49.3093-55.3817L39.2729-40.8089C34.9851-34.5724 37.6661-26.0121 46.1442-24.6805L48.6392-24.2698L41.9896-14.9146C40.5625-12.9372 40.9687-10.1808 43.0104-8.80254ZM10.7199-21.7087C9.6502-20.5946 9.35723-18.7504 10.893-17.3922C29.5296-0.837402 63.1274 13.4402 97.1803 13.4402C98.7626 13.4402 100.054 12.1819 100.054 10.5996C100.054 9.01729 98.7626 7.72568 97.1803 7.72568C64.4346 7.72568 32.5167-5.79297 14.6391-21.7353C13.2521-22.9603 11.6897-22.6407 10.7199-21.7087ZM13.3677-2.92637C16.6124-2.92637 21.5416-4.22246 26.0691-7.08984L19.0783-14.3691C16.719-11.3265 15.4362-10.3011 12.1161-8.29258C10.6114-7.38711 10.1076-5.96904 10.5426-4.72178C10.8799-3.75195 11.8985-2.92637 13.3677-2.92637Z"/>
  </g>
  <g id="Medium-S" transform="matrix(1 0 0 1 1689.96 696)">
   <path d="M69.8262-59.8193C74.5967-59.8193 78.5508-63.7734 78.5508-68.5439C78.5508-73.3545 74.5967-77.2686 69.8262-77.2686C65.0156-77.2686 61.1016-73.3545 61.1016-68.5439C61.1016-63.7734 65.0156-59.8193 69.8262-59.8193ZM42.6533-8.92383C44.4902-7.6416 47.1611-8.04102 48.4521-9.88672L57.6494-22.7461L66.0732-21.334L57.5674-8.66406C56.3252-6.76074 56.7822-4.04102 58.7607-2.85645C61.1123-1.47656 63.415-2.24414 64.5996-4.04102L76.2285-21.6133C77.8213-24.0225 76.9873-27.7139 73.5088-28.5791L57.4189-32.4629C56.0195-32.8184 55.4863-34.04 56.335-35.2529L63.0771-45.3906C63.5127-46.0439 64.2949-46.1729 64.9482-45.7373L74.793-38.9951C75.2988-38.6445 75.8311-38.4316 76.3945-38.3252L98.4453-34.3262C100.495-33.9668 102.962-35.209 103.37-37.6846C103.721-39.9385 102.234-42.1523 99.9805-42.5605L78.8037-46.3955L46.3467-68.5723L55.501-75.1338C57.4443-76.5225 57.8213-79.1357 56.5215-80.9814C55.1416-82.8359 52.5195-83.3018 50.665-81.9619L36.6348-71.9619C34.2256-70.2227 34.1768-66.7354 36.6924-65.0361L48.6055-56.8691C49.2188-56.4336 49.3877-55.6426 48.9521-55.0381L38.9697-40.5596C34.7627-34.4443 37.4033-26.0391 45.7197-24.7344L48.4033-24.29L41.6729-14.8203C40.293-12.917 40.6924-10.2549 42.6533-8.92383ZM10.666-21.8232C9.63672-20.79 9.34375-19.0469 10.7852-17.7695C29.2803-1.34277 62.6221 12.8203 96.4121 12.8203C97.8799 12.8203 99.0771 11.6631 99.0771 10.1953C99.0771 8.72754 97.8799 7.53027 96.4121 7.53027C63.8281 7.53027 32.0518-5.92773 14.2617-21.7959C12.9893-22.9131 11.5752-22.6475 10.666-21.8232ZM13.2666-3.77539C16.417-3.77539 21.1777-5.01758 25.584-7.76367L18.957-14.6387C16.6045-11.751 15.3486-10.7256 12.1768-8.80469C10.7529-7.95312 10.2559-6.66309 10.6504-5.46973C10.9473-4.56055 11.9053-3.77539 13.2666-3.77539Z"/>
  </g>
  <g id="Regular-S" transform="matrix(1 0 0 1 1393.86 696)">
   <path d="M68.7012-59.4238C73.3398-59.4238 77.1973-63.2812 77.1973-67.9199C77.1973-72.6074 73.3398-76.416 68.7012-76.416C64.0137-76.416 60.2051-72.6074 60.2051-67.9199C60.2051-63.2812 64.0137-59.4238 68.7012-59.4238ZM42.1875-9.08203C43.9453-7.86133 46.4844-8.25195 47.7051-10.0098L56.8848-22.8516L65.625-21.3867L57.0312-8.59375C55.8594-6.78711 56.2988-4.19922 58.1543-3.07617C60.4004-1.75781 62.5977-2.49023 63.7207-4.19922L75.2441-21.6309C76.7578-23.9258 75.9766-27.4414 72.6562-28.2715L56.6895-32.1289C55.1758-32.5195 54.5898-33.8379 55.5176-35.1562L62.207-45.2148C62.6953-45.9473 63.5742-46.0938 64.3066-45.6055L74.0723-38.916C74.5605-38.5742 75.0488-38.3789 75.5859-38.2812L97.4609-34.3262C99.4141-33.9844 101.758-35.1562 102.148-37.5C102.49-39.6484 101.074-41.748 98.9258-42.1387L77.8809-45.9473L45.459-68.1152L54.7363-74.7559C56.5918-76.0742 56.9336-78.5645 55.7129-80.3223C54.3945-82.0801 51.9043-82.5195 50.1465-81.25L36.2305-71.3379C33.9355-69.6777 33.8867-66.3574 36.2793-64.7461L48.0957-56.6406C48.7793-56.1523 48.9746-55.2734 48.4863-54.5898L38.5742-40.2344C34.4727-34.2773 37.0605-26.0742 45.166-24.8047L48.0957-24.3164L41.2598-14.6973C39.9414-12.8906 40.332-10.3516 42.1875-9.08203ZM10.5957-21.9727C9.61914-21.0449 9.32617-19.4336 10.6445-18.2617C28.9551-2.00195 61.9629 12.0117 95.4102 12.0117C96.7285 12.0117 97.8027 10.9863 97.8027 9.66797C97.8027 8.34961 96.7285 7.27539 95.4102 7.27539C63.0371 7.27539 31.4453-6.10352 13.7695-21.875C12.6465-22.8516 11.4258-22.6562 10.5957-21.9727ZM13.1348-4.88281C16.1621-4.88281 20.7031-6.05469 24.9512-8.64258L18.7988-14.9902C16.4551-12.3047 15.2344-11.2793 12.2559-9.47266C10.9375-8.69141 10.4492-7.56836 10.791-6.44531C11.0352-5.61523 11.9141-4.88281 13.1348-4.88281Z"/>
  </g>
  <g id="Light-S" transform="matrix(1 0 0 1 1098.73 696)">
   <path d="M66.4004-58.4097C70.9029-58.4097 74.6392-62.1309 74.6392-66.6333C74.6392-71.1846 70.9029-74.8872 66.4004-74.8872C61.8491-74.8872 58.1465-71.1846 58.1465-66.6333C58.1465-62.1309 61.8491-58.4097 66.4004-58.4097ZM40.8252-9.71777C42.5376-8.54248 45.001-8.91796 46.1914-10.6152L55.0986-23.0635L63.5513-21.644L55.2451-9.24462C54.0884-7.48339 54.5127-4.97119 56.3228-3.89355C58.5083-2.60546 60.6299-3.32275 61.7227-4.97119L72.898-21.873C74.3662-24.1074 73.6153-27.5322 70.3858-28.332L54.9033-32.0684C53.4351-32.4438 52.8643-33.7168 53.7617-35.02L60.2544-44.7607C60.7276-45.4629 61.5762-45.6094 62.2783-45.1362L71.7564-38.6587C72.2295-38.332 72.7027-38.1367 73.2398-38.0391L94.4488-34.1899C96.3413-33.8481 98.6094-35.02 98.9849-37.2881C99.3115-39.3608 97.9409-41.3848 95.8682-41.7603L75.459-45.4629L44.0059-66.9649L53.0108-73.4087C54.8057-74.6817 55.1475-77.0962 53.957-78.8086C52.669-80.521 50.2544-80.9453 48.5571-79.7212L35.065-70.0816C32.8306-68.4668 32.7969-65.2676 35.1138-63.7168L46.5669-55.8384C47.2354-55.3652 47.4004-54.5166 46.9424-53.8633L37.3482-39.9316C33.3677-34.1411 35.8648-26.2104 43.7129-24.9561L46.5669-24.4829L39.9277-15.1665C38.6699-13.4053 39.0454-10.957 40.8252-9.71777ZM10.4443-21.9424C9.61914-21.166 9.43213-19.8423 10.4932-18.8975C28.2134-3.16747 60.1011 10.377 92.4585 10.377C93.5347 10.377 94.4121 9.53321 94.4121 8.45704C94.4121 7.396 93.5347 6.51856 92.4585 6.51856C60.9634 6.51856 30.2192-6.5122 13.0278-21.8447C12.147-22.6245 11.123-22.5049 10.4443-21.9424ZM12.6655-6.01806C15.8442-6.01806 20.3247-7.15966 24.1489-9.64159L18.4355-15.1265C16.334-12.4409 14.8408-11.249 11.938-9.72998C10.877-9.16064 10.4795-8.23437 10.7305-7.33837C10.9141-6.62939 11.6265-6.01806 12.6655-6.01806Z"/>
  </g>
  <g id="Thin-S" transform="matrix(1 0 0 1 804.115 696)">
   <path d="M63.3575-57.0684C67.6797-57.0684 71.2559-60.6094 71.2559-64.9317C71.2559-69.3028 67.6797-72.8653 63.3575-72.8653C58.9864-72.8653 55.4239-69.3028 55.4239-64.9317C55.4239-60.6094 58.9864-57.0684 63.3575-57.0684ZM39.0235-10.5586C40.6758-9.44335 43.0391-9.79882 44.1895-11.416L52.7364-23.3437L60.8086-21.9844L52.8828-10.1055C51.7461-8.40428 52.1504-5.99217 53.9004-4.97459C56.0059-3.72655 58.0274-4.42381 59.0801-5.99217L69.795-22.1934C71.2032-24.3477 70.4922-27.6523 67.3829-28.4121L52.541-31.9883C51.1328-32.3438 50.5821-33.5566 51.4395-34.8398L57.6719-44.1602C58.125-44.8223 58.9336-44.9688 59.5957-44.5156L68.6934-38.3184C69.1465-38.0117 69.5997-37.8164 70.1368-37.7188L90.4649-34.0098C92.2774-33.668 94.4454-34.8398 94.8008-37.0078C95.1075-38.9805 93.7969-40.9043 91.8243-41.2598L72.2559-44.8223L42.084-65.4434L50.7285-71.627C52.4434-72.8399 52.7852-75.1543 51.6348-76.8067C50.3868-78.459 48.0723-78.8633 46.4551-77.6992L33.5235-68.4199C31.3692-66.8653 31.3555-63.8262 33.5723-62.3555L44.5449-54.7774C45.1934-54.3242 45.3184-53.5156 44.9004-52.9024L35.7266-39.5313C31.9063-33.9609 34.2832-26.3906 41.791-25.1562L44.5449-24.7031L38.166-15.7871C36.9883-14.0859 37.3438-11.7578 39.0235-10.5586ZM10.2441-21.9023C9.61914-21.3262 9.57226-20.3828 10.293-19.7383C27.2324-4.70896 57.6387 8.21487 88.5547 8.21487C89.3106 8.21487 89.9278 7.61135 89.9278 6.85549C89.9278 6.13478 89.3106 5.51759 88.5547 5.51759C58.2207 5.51759 28.5977-7.05273 12.0469-21.8047C11.4863-22.3242 10.7227-22.3047 10.2441-21.9023ZM12.0449-7.51951C15.4238-7.51951 19.8242-8.62107 23.0879-10.9629L17.9551-15.3066C16.1738-12.6211 14.3203-11.209 11.5176-10.0703C10.7969-9.78124 10.5195-9.11522 10.6504-8.51951C10.7539-7.97068 11.2461-7.51951 12.0449-7.51951Z"/>
  </g>
  <g id="Ultralight-S" transform="matrix(1 0 0 1 508.475 696)">
   <path d="M61.7989-56.3814C66.0289-56.3814 69.523-59.8301 69.523-64.0601C69.523-68.3389 66.0289-71.8296 61.7989-71.8296C57.5201-71.8296 54.0293-68.3389 54.0293-64.0601C54.0293-59.8301 57.5201-56.3814 61.7989-56.3814ZM38.1006-10.9892C39.7222-9.90477 42.0342-10.25 43.1641-11.8262L51.5264-23.4873L59.4039-22.1587L51.6729-10.5464C50.5464-8.87596 50.9405-6.51512 52.6597-5.5283C54.7242-4.30076 56.6944-4.98777 57.7266-6.51512L68.2056-22.3574C69.5831-24.4707 68.8926-27.7139 65.8448-28.4531L51.3311-31.9473C49.9537-32.2925 49.4131-33.4746 50.25-34.7476L56.3492-43.8525C56.792-44.4942 57.5801-44.6406 58.2217-44.1978L67.1246-38.144C67.5674-37.8477 68.0103-37.6523 68.5474-37.5547L88.4244-33.9175C90.1959-33.5757 92.3126-34.7476 92.6578-36.8643C92.9542-38.7857 91.6744-40.6582 89.753-41.0034L70.6153-44.4942L41.0996-64.6641L49.5596-70.7144C51.2334-71.8965 51.5752-74.1597 50.4454-75.7813C49.2178-77.4029 46.9546-77.7969 45.3785-76.6636L32.7339-67.5689C30.6206-66.045 30.6172-63.0879 32.7827-61.6582L43.5093-54.2339C44.1475-53.791 44.252-53.0029 43.8545-52.4102L34.896-39.3262C31.1577-33.8687 33.4732-26.4829 40.8067-25.2588L43.5093-24.8159L37.2637-16.105C36.127-14.4346 36.4722-12.168 38.1006-10.9892ZM10.1416-21.8818C9.61914-21.4082 9.64404-20.6597 10.1904-20.1689C26.73-5.49851 56.3775 7.10746 86.5552 7.10746C87.147 7.10746 87.6309 6.62699 87.6309 6.03518C87.6309 5.48879 87.147 5.0049 86.5552 5.0049C56.816 5.0049 27.7671-7.32958 11.5445-21.7842C11.148-22.1704 10.5176-22.2022 10.1416-21.8818ZM11.7271-8.28855C15.2085-8.28855 19.5679-9.3696 22.5445-11.6396L17.709-15.3989C16.0918-12.7134 14.0537-11.1885 11.3023-10.2446C10.7559-10.0991 10.54-9.56639 10.6094-9.12449C10.6719-8.65769 11.0513-8.28855 11.7271-8.28855Z"/>
  </g>
 </g>
</svg>
