<?xml version="1.0" encoding="UTF-8"?>
<!--Generator: Apple Native CoreSVG 175.5-->
<!DOCTYPE svg
PUBLIC "-//W3C//DTD SVG 1.1//EN"
       "http://www.w3.org/Graphics/SVG/1.1/DTD/svg11.dtd">
<svg version="1.1" xmlns="http://www.w3.org/2000/svg" xmlns:xlink="http://www.w3.org/1999/xlink" width="3300" height="2200">
 <!--glyph: "uni10007B.medium", point size: 100.0, font version: "18.0d12e2", template writer version: "101"-->
 <g id="Notes">
  <rect height="2200" id="artboard" style="fill:white;opacity:1" width="3300" x="0" y="0"/>
  <line style="fill:none;stroke:black;opacity:1;stroke-width:0.5;" x1="263" x2="3036" y1="292" y2="292"/>
  <text style="stroke:none;fill:black;font-family:sans-serif;font-size:13;font-weight:bold;" transform="matrix(1 0 0 1 263 322)">Weight/Scale Variations</text>
  <text style="stroke:none;fill:black;font-family:sans-serif;font-size:13;text-anchor:middle;" transform="matrix(1 0 0 1 559.711 322)">Ultralight</text>
  <text style="stroke:none;fill:black;font-family:sans-serif;font-size:13;text-anchor:middle;" transform="matrix(1 0 0 1 856.422 322)">Thin</text>
  <text style="stroke:none;fill:black;font-family:sans-serif;font-size:13;text-anchor:middle;" transform="matrix(1 0 0 1 1153.13 322)">Light</text>
  <text style="stroke:none;fill:black;font-family:sans-serif;font-size:13;text-anchor:middle;" transform="matrix(1 0 0 1 1449.84 322)">Regular</text>
  <text style="stroke:none;fill:black;font-family:sans-serif;font-size:13;text-anchor:middle;" transform="matrix(1 0 0 1 1746.56 322)">Medium</text>
  <text style="stroke:none;fill:black;font-family:sans-serif;font-size:13;text-anchor:middle;" transform="matrix(1 0 0 1 2043.27 322)">Semibold</text>
  <text style="stroke:none;fill:black;font-family:sans-serif;font-size:13;text-anchor:middle;" transform="matrix(1 0 0 1 2339.98 322)">Bold</text>
  <text style="stroke:none;fill:black;font-family:sans-serif;font-size:13;text-anchor:middle;" transform="matrix(1 0 0 1 2636.69 322)">Heavy</text>
  <text style="stroke:none;fill:black;font-family:sans-serif;font-size:13;text-anchor:middle;" transform="matrix(1 0 0 1 2933.4 322)">Black</text>
  <line style="fill:none;stroke:black;opacity:1;stroke-width:0.5;" x1="263" x2="3036" y1="1903" y2="1903"/>
  <g transform="matrix(1 0 0 1 263 1933)">
   <path d="M9.24805 0.830078C13.5547 0.830078 17.1387-2.74414 17.1387-7.05078C17.1387-11.3574 13.5449-14.9316 9.23828-14.9316C4.94141-14.9316 1.36719-11.3574 1.36719-7.05078C1.36719-2.74414 4.95117 0.830078 9.24805 0.830078ZM9.24805-0.654297C5.70312-0.654297 2.87109-3.49609 2.87109-7.05078C2.87109-10.6055 5.69336-13.4473 9.23828-13.4473C12.793-13.4473 15.6445-10.6055 15.6445-7.05078C15.6445-3.49609 12.8027-0.654297 9.24805-0.654297ZM5.6543-7.05078C5.6543-6.62109 5.95703-6.32812 6.40625-6.32812L8.50586-6.32812L8.50586-4.20898C8.50586-3.76953 8.79883-3.4668 9.22852-3.4668C9.67773-3.4668 9.9707-3.76953 9.9707-4.20898L9.9707-6.32812L12.0898-6.32812C12.5293-6.32812 12.832-6.62109 12.832-7.05078C12.832-7.49023 12.5293-7.79297 12.0898-7.79297L9.9707-7.79297L9.9707-9.90234C9.9707-10.3516 9.67773-10.6543 9.22852-10.6543C8.79883-10.6543 8.50586-10.3516 8.50586-9.90234L8.50586-7.79297L6.40625-7.79297C5.95703-7.79297 5.6543-7.49023 5.6543-7.05078Z"/>
  </g>
  <g transform="matrix(1 0 0 1 281.867 1933)">
   <path d="M11.709 2.91016C17.1582 2.91016 21.6699-1.61133 21.6699-7.05078C21.6699-12.5 17.1484-17.0117 11.6992-17.0117C6.25977-17.0117 1.74805-12.5 1.74805-7.05078C1.74805-1.61133 6.26953 2.91016 11.709 2.91016ZM11.709 1.25C7.09961 1.25 3.41797-2.44141 3.41797-7.05078C3.41797-11.6602 7.08984-15.3516 11.6992-15.3516C16.3086-15.3516 20.0098-11.6602 20.0098-7.05078C20.0098-2.44141 16.3184 1.25 11.709 1.25ZM7.17773-7.05078C7.17773-6.57227 7.50977-6.25 8.00781-6.25L10.8789-6.25L10.8789-3.36914C10.8789-2.88086 11.2109-2.53906 11.6895-2.53906C12.1777-2.53906 12.5195-2.87109 12.5195-3.36914L12.5195-6.25L15.4004-6.25C15.8887-6.25 16.2305-6.57227 16.2305-7.05078C16.2305-7.53906 15.8887-7.88086 15.4004-7.88086L12.5195-7.88086L12.5195-10.752C12.5195-11.25 12.1777-11.5918 11.6895-11.5918C11.2109-11.5918 10.8789-11.25 10.8789-10.752L10.8789-7.88086L8.00781-7.88086C7.50977-7.88086 7.17773-7.53906 7.17773-7.05078Z"/>
  </g>
  <g transform="matrix(1 0 0 1 305.646 1933)">
   <path d="M14.9707 5.66406C21.9336 5.66406 27.6953-0.0976562 27.6953-7.05078C27.6953-14.0137 21.9238-19.7754 14.9609-19.7754C8.00781-19.7754 2.25586-14.0137 2.25586-7.05078C2.25586-0.0976562 8.01758 5.66406 14.9707 5.66406ZM14.9707 3.84766C8.93555 3.84766 4.08203-1.01562 4.08203-7.05078C4.08203-13.0957 8.92578-17.9492 14.9609-17.9492C21.0059-17.9492 25.8691-13.0957 25.8691-7.05078C25.8691-1.01562 21.0156 3.84766 14.9707 3.84766ZM9.19922-7.05078C9.19922-6.5332 9.57031-6.17188 10.1172-6.17188L14.0625-6.17188L14.0625-2.2168C14.0625-1.67969 14.4336-1.29883 14.9512-1.29883C15.4883-1.29883 15.8594-1.66992 15.8594-2.2168L15.8594-6.17188L19.8145-6.17188C20.3516-6.17188 20.7324-6.5332 20.7324-7.05078C20.7324-7.59766 20.3613-7.96875 19.8145-7.96875L15.8594-7.96875L15.8594-11.9141C15.8594-12.4609 15.4883-12.8418 14.9512-12.8418C14.4336-12.8418 14.0625-12.4609 14.0625-11.9141L14.0625-7.96875L10.1172-7.96875C9.57031-7.96875 9.19922-7.59766 9.19922-7.05078Z"/>
  </g>
  <text style="stroke:none;fill:black;font-family:sans-serif;font-size:13;font-weight:bold;" transform="matrix(1 0 0 1 263 1953)">Design Variations</text>
  <text style="stroke:none;fill:black;font-family:sans-serif;font-size:13;" transform="matrix(1 0 0 1 263 1971)">Symbols are supported in up to nine weights and three scales.</text>
  <text style="stroke:none;fill:black;font-family:sans-serif;font-size:13;" transform="matrix(1 0 0 1 263 1989)">For optimal layout with text and other symbols, vertically align</text>
  <text style="stroke:none;fill:black;font-family:sans-serif;font-size:13;" transform="matrix(1 0 0 1 263 2007)">symbols with the adjacent text.</text>
  <line style="fill:none;stroke:#00AEEF;stroke-width:0.5;opacity:1.0;" x1="776" x2="776" y1="1919" y2="1933"/>
  <g transform="matrix(1 0 0 1 776 1933)">
   <path d="M3.31055 0.15625C3.82812 0.15625 4.08203-0.0390625 4.26758-0.585938L5.52734-4.0332L11.2891-4.0332L12.5488-0.585938C12.7344-0.0390625 12.9883 0.15625 13.4961 0.15625C14.0137 0.15625 14.3457-0.15625 14.3457-0.644531C14.3457-0.810547 14.3164-0.966797 14.2383-1.17188L9.6582-13.3691C9.43359-13.9648 9.0332-14.2676 8.4082-14.2676C7.80273-14.2676 7.39258-13.9746 7.17773-13.3789L2.59766-1.16211C2.51953-0.957031 2.49023-0.800781 2.49023-0.634766C2.49023-0.146484 2.80273 0.15625 3.31055 0.15625ZM6.00586-5.51758L8.37891-12.0898L8.42773-12.0898L10.8008-5.51758Z"/>
  </g>
  <line style="fill:none;stroke:#00AEEF;stroke-width:0.5;opacity:1.0;" x1="793.197" x2="793.197" y1="1919" y2="1933"/>
  <text style="stroke:none;fill:black;font-family:sans-serif;font-size:13;font-weight:bold;" transform="matrix(1 0 0 1 776 1953)">Margins</text>
  <text style="stroke:none;fill:black;font-family:sans-serif;font-size:13;" transform="matrix(1 0 0 1 776 1971)">Leading and trailing margins on the left and right side of each symbol</text>
  <text style="stroke:none;fill:black;font-family:sans-serif;font-size:13;" transform="matrix(1 0 0 1 776 1989)">can be adjusted by modifying the x-location of the margin guidelines.</text>
  <text style="stroke:none;fill:black;font-family:sans-serif;font-size:13;" transform="matrix(1 0 0 1 776 2007)">Modifications are automatically applied proportionally to all</text>
  <text style="stroke:none;fill:black;font-family:sans-serif;font-size:13;" transform="matrix(1 0 0 1 776 2025)">scales and weights.</text>
  <g transform="matrix(1 0 0 1 1289 1933)">
   <path d="M2.8418 1.86523L4.54102 3.57422C5.40039 4.44336 6.38672 4.38477 7.31445 3.35938L18.0078-8.42773L17.041-9.4043L6.42578 2.27539C6.07422 2.67578 5.74219 2.77344 5.27344 2.30469L4.10156 1.14258C3.63281 0.683594 3.74023 0.341797 4.14062-0.0195312L15.6152-10.8203L14.6387-11.7871L3.04688-0.898438C2.06055 0.0195312 1.98242 0.996094 2.8418 1.86523ZM9.25781-16.3281C8.83789-15.918 8.80859-15.3418 9.04297-14.9512C9.27734-14.5898 9.73633-14.3555 10.3809-14.5215C11.8457-14.8633 13.3691-14.9219 14.7949-13.9844L14.209-12.5293C13.8672-11.6992 14.043-11.1133 14.5801-10.5664L16.875-8.25195C17.3633-7.76367 17.7734-7.74414 18.3398-7.8418L19.4043-8.03711L20.0684-7.36328L20.0293-6.80664C19.9902-6.30859 20.1172-5.92773 20.6055-5.44922L21.3672-4.70703C21.8457-4.22852 22.4609-4.19922 22.9297-4.66797L25.8398-7.58789C26.3086-8.05664 26.2891-8.65234 25.8105-9.13086L25.0391-9.89258C24.5605-10.3711 24.1895-10.5273 23.7109-10.4883L23.1348-10.4395L22.4902-11.0742L22.7344-12.1973C22.8613-12.7637 22.7051-13.2031 22.1191-13.7891L19.9219-15.9766C16.582-19.2969 12.1484-19.2188 9.25781-16.3281ZM10.752-15.957C13.1836-17.7344 16.4746-17.4316 18.7012-15.2051L21.1328-12.793C21.3672-12.5586 21.4062-12.373 21.3379-12.0312L21.0156-10.5469L22.5195-9.0625L23.5059-9.12109C23.7598-9.13086 23.8379-9.11133 24.0332-8.91602L24.6094-8.33984L22.168-5.89844L21.5918-6.47461C21.3965-6.66992 21.3672-6.74805 21.377-7.01172L21.4453-7.98828L19.9512-9.47266L18.4277-9.21875C18.1055-9.15039 17.959-9.17969 17.7148-9.41406L15.7129-11.416C15.459-11.6504 15.4297-11.8164 15.5859-12.1875L16.4648-14.2773C14.9023-15.7324 12.8711-16.3574 10.8398-15.7617C10.6836-15.7227 10.625-15.8496 10.752-15.957Z"/>
  </g>
  <text style="stroke:none;fill:black;font-family:sans-serif;font-size:13;font-weight:bold;" transform="matrix(1 0 0 1 1289 1953)">Exporting</text>
  <text style="stroke:none;fill:black;font-family:sans-serif;font-size:13;" transform="matrix(1 0 0 1 1289 1971)">Symbols should be outlined when exporting to ensure the</text>
  <text style="stroke:none;fill:black;font-family:sans-serif;font-size:13;" transform="matrix(1 0 0 1 1289 1989)">design is preserved when submitting to Xcode.</text>
  <text id="template-version" style="stroke:none;fill:black;font-family:sans-serif;font-size:13;text-anchor:end;" transform="matrix(1 0 0 1 3036 1933)">Template v.4.0</text>
  <text style="stroke:none;fill:black;font-family:sans-serif;font-size:13;text-anchor:end;" transform="matrix(1 0 0 1 3036 1951)">Requires Xcode 14 or greater</text>
  <text id="descriptive-name" style="stroke:none;fill:black;font-family:sans-serif;font-size:13;text-anchor:end;" transform="matrix(1 0 0 1 3036 1969)">Generated from arrow.left.circle.fill</text>
  <text style="stroke:none;fill:black;font-family:sans-serif;font-size:13;text-anchor:end;" transform="matrix(1 0 0 1 3036 1987)">Typeset at 100 points</text>
  <text style="stroke:none;fill:black;font-family:sans-serif;font-size:13;" transform="matrix(1 0 0 1 263 726)">Small</text>
  <text style="stroke:none;fill:black;font-family:sans-serif;font-size:13;" transform="matrix(1 0 0 1 263 1156)">Medium</text>
  <text style="stroke:none;fill:black;font-family:sans-serif;font-size:13;" transform="matrix(1 0 0 1 263 1586)">Large</text>
 </g>
 <g id="Guides">
  <g id="H-reference" style="fill:#27AAE1;stroke:none;" transform="matrix(1 0 0 1 339 696)">
   <path d="M0.993654 0L3.63775 0L29.3281-67.1323L30.0303-67.1323L30.0303-70.459L28.1226-70.459ZM11.6885-24.4799L46.9815-24.4799L46.2315-26.7285L12.4385-26.7285ZM55.1196 0L57.7637 0L30.6382-70.459L29.4326-70.459L29.4326-67.1323Z"/>
  </g>
  <line id="Baseline-S" style="fill:none;stroke:#27AAE1;opacity:1;stroke-width:0.5;" x1="263" x2="3036" y1="696" y2="696"/>
  <line id="Capline-S" style="fill:none;stroke:#27AAE1;opacity:1;stroke-width:0.5;" x1="263" x2="3036" y1="625.541" y2="625.541"/>
  <g id="H-reference" style="fill:#27AAE1;stroke:none;" transform="matrix(1 0 0 1 339 1126)">
   <path d="M0.993654 0L3.63775 0L29.3281-67.1323L30.0303-67.1323L30.0303-70.459L28.1226-70.459ZM11.6885-24.4799L46.9815-24.4799L46.2315-26.7285L12.4385-26.7285ZM55.1196 0L57.7637 0L30.6382-70.459L29.4326-70.459L29.4326-67.1323Z"/>
  </g>
  <line id="Baseline-M" style="fill:none;stroke:#27AAE1;opacity:1;stroke-width:0.5;" x1="263" x2="3036" y1="1126" y2="1126"/>
  <line id="Capline-M" style="fill:none;stroke:#27AAE1;opacity:1;stroke-width:0.5;" x1="263" x2="3036" y1="1055.54" y2="1055.54"/>
  <g id="H-reference" style="fill:#27AAE1;stroke:none;" transform="matrix(1 0 0 1 339 1556)">
   <path d="M0.993654 0L3.63775 0L29.3281-67.1323L30.0303-67.1323L30.0303-70.459L28.1226-70.459ZM11.6885-24.4799L46.9815-24.4799L46.2315-26.7285L12.4385-26.7285ZM55.1196 0L57.7637 0L30.6382-70.459L29.4326-70.459L29.4326-67.1323Z"/>
  </g>
  <line id="Baseline-L" style="fill:none;stroke:#27AAE1;opacity:1;stroke-width:0.5;" x1="263" x2="3036" y1="1556" y2="1556"/>
  <line id="Capline-L" style="fill:none;stroke:#27AAE1;opacity:1;stroke-width:0.5;" x1="263" x2="3036" y1="1485.54" y2="1485.54"/>
  <line id="left-margin-Regular-M" style="fill:none;stroke:#00AEEF;stroke-width:0.5;opacity:1.0;" x1="1391.32" x2="1391.32" y1="1030.79" y2="1150.12"/>
  <line id="right-margin-Regular-M" style="fill:none;stroke:#00AEEF;stroke-width:0.5;opacity:1.0;" x1="1508.37" x2="1508.37" y1="1030.79" y2="1150.12"/>
 </g>
 <g id="Symbols">
  <g id="Black-L" transform="matrix(1 0 0 1 2854.19 1556)">
   <path d="M79.1958 32.7257C116.56 32.7257 147.154 2.15259 147.154-35.2113C147.154-72.5752 116.539-103.148 79.175-103.148C41.8307-103.148 11.2588-72.5752 11.2588-35.2113C11.2588 2.15259 41.8515 32.7257 79.1958 32.7257ZM43.9252-35.1749C43.9252-38.2243 45.0287-40.7036 47.2396-42.7393L70.2377-64.2009C72.1485-65.974 73.7701-66.6282 76.1598-66.6282C80.488-66.6282 83.4948-63.5034 83.4948-58.9636C83.4948-56.8075 82.4277-54.559 80.887-53.2531L74.0628-47.305L68.0083-43.4363L80.6853-44.3449L106.119-44.3449C111.074-44.3449 114.588-40.344 114.588-35.1737C114.588-30.007 111.076-26.0049 106.119-26.0049L80.6853-26.0049L67.9887-26.9123L73.7708-23.0824L80.887-17.0967C82.5069-15.8492 83.4948-13.6007 83.4948-11.3862C83.4948-6.84638 80.488-3.70081 76.1598-3.70081C73.7701-3.70081 72.1485-4.37578 70.2377-6.14894L47.2396-27.5897C45.0507-29.6034 43.9252-32.1023 43.9252-35.1749Z"/>
  </g>
  <g id="Heavy-L" transform="matrix(1 0 0 1 2558.42 1556)">
   <path d="M78.2532 31.7694C115.056 31.7694 145.278 1.57794 145.278-35.2251C145.278-72.0281 115.026-102.22 78.2231-102.22C41.4446-102.22 11.2588-72.0281 11.2588-35.2251C11.2588 1.57794 41.4748 31.7694 78.2532 31.7694ZM43.458-35.2163C43.458-37.8504 44.4247-39.9823 46.404-41.8277L69.206-63.4797C70.8703-65.0245 72.3518-65.6241 74.4818-65.6241C78.3924-65.6241 81.1366-62.7851 81.1366-58.7317C81.1366-56.7802 80.1788-54.7865 78.8068-53.5987L71.5664-47.0276L65.0763-42.4932L77.8873-43.3014L105.64-43.3014C110.062-43.3014 113.189-39.7931 113.189-35.2106C113.189-30.6451 110.068-27.1311 105.64-27.1311L77.8873-27.1311L65.0517-27.9337L71.3433-23.4193L78.8068-16.8339C80.2536-15.6906 81.1366-13.6969 81.1366-11.7008C81.1366-7.64745 78.3924-4.77824 74.4818-4.77824C72.3518-4.77824 70.8703-5.40798 69.206-6.95283L46.404-28.5747C44.4605-30.3842 43.458-32.5407 43.458-35.2163Z"/>
  </g>
  <g id="Bold-L" transform="matrix(1 0 0 1 2262.89 1556)">
   <path d="M77.0704 30.5711C113.182 30.5711 142.92 0.870872 142.92-35.2405C142.92-71.3519 113.144-101.052 77.0324-101.052C40.9458-101.052 11.2588-71.3519 11.2588-35.2405C11.2588 0.870872 40.9838 30.5711 77.0704 30.5711ZM42.8444-35.2625C42.8444-37.3893 43.642-39.1058 45.322-40.6981L68.0198-62.6703C69.3843-63.9383 70.6742-64.4687 72.4815-64.4687C75.8475-64.4687 78.239-62.0056 78.239-58.574C78.239-56.8835 77.4194-55.2123 76.2549-54.1779L68.3134-46.6744L61.3226-41.3178L74.0641-42.003L105.063-42.003C108.81-42.003 111.453-39.1018 111.453-35.2493C111.453-31.4365 108.823-28.522 105.063-28.522L74.0641-28.522L61.2979-29.194L68.1674-23.8418L76.2549-16.3471C77.4866-15.3419 78.239-13.6707 78.239-11.951C78.239-8.51947 75.8475-6.0183 72.4815-6.0183C70.6742-6.0183 69.3843-6.58672 68.0198-7.85477L45.322-29.7889C43.6932-31.33 42.8444-33.0713 42.8444-35.2625Z"/>
  </g>
  <g id="Semibold-L" transform="matrix(1 0 0 1 1966.99 1556)">
   <path d="M76.2549 29.745C111.889 29.745 141.294 0.383422 141.294-35.2511C141.294-70.8857 111.846-100.247 76.2116-100.247C40.6019-100.247 11.2588-70.8857 11.2588-35.2511C11.2588 0.383422 40.6453 29.745 76.2549 29.745ZM42.4214-35.2944C42.4214-37.0714 43.1024-38.5015 44.5761-39.9194L67.2021-62.1122C68.3598-63.1895 69.5177-63.6723 71.1025-63.6723C74.093-63.6723 76.2415-61.4682 76.2415-58.4653C76.2415-56.9548 75.5171-55.5059 74.4957-54.5773L66.0708-46.431L58.7349-40.5075L71.4284-41.1079L104.665-41.1079C107.946-41.1079 110.256-38.6252 110.256-35.2759C110.256-31.9821 107.965-29.4809 104.665-29.4809L71.4284-29.4809L58.71-30.0629L65.9779-24.133L74.4957-16.0115C75.5791-15.1015 76.2415-13.6526 76.2415-12.1235C76.2415-9.12064 74.093-6.87318 71.1025-6.87318C69.5177-6.87318 68.3598-7.39934 67.2021-8.47656L44.5761-30.626C43.1643-31.9821 42.4214-33.437 42.4214-35.2944Z"/>
  </g>
  <g id="Medium-L" transform="matrix(1 0 0 1 1670.9 1556)">
   <path d="M75.6366 29.1187C110.91 29.1187 140.062 0.0138167 140.062-35.2592C140.062-70.5322 110.862-99.637 75.5892-99.637C40.3412-99.637 11.2588-70.5322 11.2588-35.2592C11.2588 0.0138167 40.3886 29.1187 75.6366 29.1187ZM42.1006-35.3186C42.1006-36.8304 42.6933-38.0434 44.0105-39.329L66.5821-61.6891C67.583-62.6217 68.6408-63.0683 70.0569-63.0683C72.7627-63.0683 74.7268-61.0607 74.7268-58.3828C74.7268-57.0088 74.0747-55.7285 73.1618-54.8801L64.3704-46.2464L56.7727-39.893L69.43-40.4292L104.364-40.4292C107.292-40.4292 109.348-38.2639 109.348-35.2961C109.348-32.3958 107.314-30.208 104.364-30.208L69.43-30.208L56.7477-30.7217L64.3178-24.3539L73.1618-15.7571C74.1327-14.9192 74.7268-13.6389 74.7268-12.2543C74.7268-9.57647 72.7627-7.52139 70.0569-7.52139C68.6408-7.52139 67.583-8.01551 66.5821-8.94803L44.0105-31.2607C42.7632-32.4765 42.1006-33.7144 42.1006-35.3186Z"/>
  </g>
  <g id="Regular-L" transform="matrix(1 0 0 1 1374.99 1556)">
   <path d="M74.8301 28.3017C109.632 28.3017 138.454-0.468277 138.454-35.2697C138.454-70.0711 109.579-98.8411 74.7774-98.8411C40.0011-98.8411 11.2588-70.0711 11.2588-35.2697C11.2588-0.468277 40.0538 28.3017 74.8301 28.3017ZM41.6822-35.3501C41.6822-36.516 42.1597-37.4457 43.2728-38.5589L65.7733-61.1373C66.5698-61.881 67.497-62.2806 68.6931-62.2806C71.0275-62.2806 72.7512-60.5292 72.7512-58.2753C72.7512-57.0792 72.1934-56.0188 71.4219-55.275L62.1524-46.0056L54.2134-39.0916L66.8233-39.5439L103.97-39.5439C106.438-39.5439 108.164-37.7925 108.164-35.3225C108.164-32.9354 106.465-31.1563 103.97-31.1563L66.8233-31.1563L54.1883-31.581L62.1524-24.6419L71.4219-15.4252C72.2461-14.6814 72.7512-13.621 72.7512-12.4249C72.7512-10.171 71.0275-8.36689 68.6931-8.36689C67.497-8.36689 66.5698-8.8192 65.7733-9.56298L43.2728-32.0886C42.2401-33.1213 41.6822-34.0762 41.6822-35.3501Z"/>
  </g>
  <g id="Light-L" transform="matrix(1 0 0 1 1079.2 1556)">
   <path d="M73.9141 27.3856C108.257 27.3856 136.603-0.926323 136.603-35.2697C136.603-69.6131 108.224-97.925 73.8804-97.925C39.5239-97.925 11.2588-69.6131 11.2588-35.2697C11.2588-0.926323 39.5576 27.3856 73.9141 27.3856ZM41.0333-35.3501C41.0333-36.2106 41.3962-36.9495 42.2231-37.7764L65.5443-61.1182C66.1691-61.7093 66.8481-62.0516 67.8152-62.0516C69.5961-62.0516 70.8999-60.701 70.8999-59.0005C70.8999-58.0335 70.4566-57.2403 69.8187-56.6492L58.8698-45.7002L50.8353-38.2328L61.8802-38.6087L103.684-38.6087C105.579-38.6087 106.943-37.2581 106.943-35.3034C106.943-33.4888 105.626-32.0915 103.684-32.0915L61.8802-32.0915L50.8484-32.4207L58.8698-24.9664L69.8187-14.0511C70.4903-13.46 70.8999-12.6668 70.8999-11.6997C70.8999-9.99927 69.5961-8.61499 67.8152-8.61499C66.8481-8.61499 66.1691-8.99097 65.5443-9.58207L42.2231-32.8902C41.4767-33.6366 41.0333-34.3624 41.0333-35.3501Z"/>
  </g>
  <g id="Thin-L" transform="matrix(1 0 0 1 783.716 1556)">
   <path d="M72.7024 26.174C106.44 26.174 134.155-1.53213 134.155-35.2697C134.155-69.0073 106.432-96.7134 72.694-96.7134C38.8929-96.7134 11.2588-69.0073 11.2588-35.2697C11.2588-1.53213 38.9013 26.174 72.7024 26.174ZM40.1751-35.3501C40.1751-35.8068 40.3866-36.2932 40.8348-36.7415L65.2414-61.0929C65.639-61.4821 65.9899-61.7487 66.6541-61.7487C67.7029-61.7487 68.4515-60.9282 68.4515-59.9597C68.4515-59.2956 68.1596-58.8558 67.6984-58.4666L54.5282-45.2963L46.3675-37.0969L55.3425-37.3719L103.305-37.3719C104.443-37.3719 105.327-36.5514 105.327-35.2781C105.327-34.2209 104.515-33.3284 103.305-33.3284L55.3425-33.3284L46.4311-33.5314L54.5282-25.3955L67.6984-12.2336C68.168-11.8445 68.4515-11.4047 68.4515-10.7405C68.4515-9.77209 67.7029-8.94314 66.6541-8.94314C65.9899-8.94314 65.639-9.21814 65.2414-9.60731L40.8348-33.9503C40.467-34.3181 40.1751-34.7411 40.1751-35.3501Z"/>
  </g>
  <g id="Ultralight-L" transform="matrix(1 0 0 1 487.631 1556)">
   <path d="M72.0819 25.5534C105.509 25.5534 132.9-1.84242 132.9-35.2697C132.9-68.697 105.514-96.0928 72.0864-96.0928C38.5697-96.0928 11.2588-68.697 11.2588-35.2697C11.2588-1.84242 38.5652 25.5534 72.0819 25.5534ZM39.7355-35.3501C39.7355-35.5999 39.8694-35.9571 40.1237-36.2114L65.0862-61.08C65.3675-61.3657 65.5503-61.5935 66.0594-61.5935C66.7333-61.5935 67.1974-61.0445 67.1974-60.451C67.1974-59.942 66.9831-59.6832 66.6124-59.3975L52.3044-45.0895L44.0791-36.5151L51.994-36.7384L103.111-36.7384C103.861-36.7384 104.5-36.1894 104.5-35.2652C104.5-34.5958 103.946-33.9619 103.111-33.9619L51.994-33.9619L44.1685-34.1002L52.3044-25.6153L66.6124-11.3028C66.9786-11.017 67.1974-10.7583 67.1974-10.2492C67.1974-9.65573 66.7333-9.11121 66.0594-9.11121C65.5503-9.11121 65.3675-9.3345 65.0862-9.62024L40.1237-34.4934C39.9498-34.6672 39.7355-34.935 39.7355-35.3501Z"/>
  </g>
  <g id="Black-M" transform="matrix(1 0 0 1 2871.36 1126)">
   <path d="M62.0422 18.116C91.4096 18.116 115.367-5.83621 115.367-35.2035C115.367-64.5709 91.4041-88.5231 62.0367-88.5231C32.6752-88.5231 8.72266-64.5709 8.72266-35.2035C8.72266-5.83621 32.6807 18.116 62.0422 18.116ZM34.3443-35.1517C34.3443-37.8297 35.3012-40.0232 37.1744-41.7251L55.2717-58.292C56.9406-59.8413 58.2838-60.3873 60.3274-60.3873C63.9645-60.3873 66.4627-57.7752 66.4627-53.9149C66.4627-52.0996 65.5577-50.1748 64.2371-49.0823L59.0803-44.782L54.7511-42.2818L64.2452-43.0616L82.5886-43.0616C86.8074-43.0616 89.8134-39.593 89.8134-35.1519C89.8134-30.71 86.8071-27.2417 82.5886-27.2417L64.2452-27.2417L54.7453-28.0218L58.7948-25.573L64.2371-21.221C65.6203-20.1856 66.4627-18.2608 66.4627-16.3885C66.4627-12.5282 63.9645-9.91055 60.3274-9.91055C58.2838-9.91055 56.9406-10.462 55.2717-12.0113L37.1744-28.5727C35.3064-30.2694 34.3443-32.4687 34.3443-35.1517Z"/>
  </g>
  <g id="Heavy-M" transform="matrix(1 0 0 1 2575.48 1126)">
   <path d="M61.2053 17.2657C90.0667 17.2657 113.704-6.35571 113.704-35.217C113.704-64.0783 90.0502-87.6997 61.1889-87.6997C32.3418-87.6997 8.72266-64.0783 8.72266-35.217C8.72266-6.35571 32.3582 17.2657 61.2053 17.2657ZM33.9475-35.1921C33.9475-37.4923 34.7812-39.3638 36.4544-40.9061L54.2843-57.5888C55.7281-58.929 56.9572-59.4268 58.768-59.4268C62.048-59.4268 64.3283-57.0571 64.3283-53.6213C64.3283-51.9849 63.5194-50.2846 62.3515-49.2934L56.9427-44.5389L52.1965-41.4391L61.966-42.1279L82.146-42.1279C85.8973-42.1279 88.5583-39.1037 88.5583-35.1898C88.5583-31.2827 85.8996-28.2563 82.146-28.2563L61.966-28.2563L52.1823-28.9428L56.7246-25.8724L62.3515-21.0908C63.5795-20.1432 64.3283-18.4429 64.3283-16.7629C64.3283-13.3271 62.048-10.9409 58.768-10.9409C56.9572-10.9409 55.7281-11.4552 54.2843-12.7954L36.4544-29.4616C34.7999-30.9852 33.9475-32.8709 33.9475-35.1921Z"/>
  </g>
  <g id="Bold-M" transform="matrix(1 0 0 1 2279.69 1126)">
   <path d="M60.2692 16.3144C88.5644 16.3144 111.844-6.93686 111.844-35.2321C111.844-63.5273 88.5358-86.7786 60.2405-86.7786C31.9688-86.7786 8.72266-63.5273 8.72266-35.2321C8.72266-6.93686 31.9974 16.3144 60.2692 16.3144ZM33.5035-35.2373C33.5035-37.115 34.1996-38.6262 35.6489-39.99L53.1798-56.8021C54.3717-57.9084 55.4732-58.3525 57.0236-58.3525C59.9041-58.3525 61.9405-56.2538 61.9405-53.2928C61.9405-51.8566 61.2393-50.4073 60.2421-49.5294L54.5515-44.2671L49.3387-40.4964L59.4164-41.0833L81.6509-41.0833C84.8793-41.0833 87.1543-38.5564 87.1543-35.2322C87.1543-31.9234 84.8844-29.3913 81.6509-29.3913L59.4164-29.3913L49.3153-29.9731L54.4088-26.2075L60.2421-20.9452C61.2965-20.0958 61.9405-18.6466 61.9405-17.1818C61.9405-14.2209 59.9041-12.0935 57.0236-12.0935C55.4732-12.0935 54.3717-12.5662 53.1798-13.6725L35.6489-30.456C34.2333-31.786 33.5035-33.3208 33.5035-35.2373Z"/>
  </g>
  <g id="Semibold-M" transform="matrix(1 0 0 1 1983.62 1126)">
   <path d="M59.6238 15.6586C87.5288 15.6586 110.562-7.33749 110.562-35.2425C110.562-63.1475 87.4917-86.1436 59.5867-86.1436C31.7117-86.1436 8.72266-63.1475 8.72266-35.2425C8.72266-7.33749 31.7487 15.6586 59.6238 15.6586ZM33.1975-35.2685C33.1975-36.8548 33.7985-38.1178 35.0936-39.3584L52.4183-56.2598C53.4367-57.2048 54.4501-57.6118 55.821-57.6118C58.4261-57.6118 60.2945-55.7 60.2945-53.0664C60.2945-51.7681 59.6674-50.4919 58.7879-49.6922L52.903-44.0797L47.3687-39.8465L57.6587-40.3632L81.3096-40.3632C84.1775-40.3632 86.1864-38.179 86.1864-35.2614C86.1864-32.365 84.1846-30.1738 81.3096-30.1738L57.6587-30.1738L47.3387-30.6833L52.8123-26.4384L58.7879-20.8448C59.7226-20.0632 60.2945-18.787 60.2945-17.4706C60.2945-14.837 58.4261-12.8881 55.821-12.8881C54.4501-12.8881 53.4367-13.3322 52.4183-14.2772L35.0936-31.1415C33.8427-32.338 33.1975-33.6309 33.1975-35.2685Z"/>
  </g>
  <g id="Medium-M" transform="matrix(1 0 0 1 1687.4 1126)">
   <path d="M59.1344 15.1614C86.7435 15.1614 109.59-7.64127 109.59-35.2504C109.59-62.8595 86.7001-85.6621 59.091-85.6621C31.5167-85.6621 8.72266-62.8595 8.72266-35.2504C8.72266-7.64127 31.5601 15.1614 59.1344 15.1614ZM32.9654-35.2921C32.9654-36.6575 33.4945-37.7322 34.6726-38.8795L51.8409-55.8486C52.7276-56.6713 53.6744-57.0502 54.9091-57.0502C57.3054-57.0502 59.0463-55.2801 59.0463-52.8947C59.0463-51.7011 58.4755-50.5561 57.6853-49.8156L51.6531-43.9375L45.8749-39.3538L56.326-39.8172L81.0508-39.8172C83.6453-39.8172 85.4525-37.8929 85.4525-35.2835C85.4525-32.6999 83.6539-30.7671 81.0508-30.7671L56.326-30.7671L45.84-31.2219L51.6017-26.6135L57.6853-20.7686C58.5292-20.0384 59.0463-18.8934 59.0463-17.6895C59.0463-15.3042 57.3054-13.4906 54.9091-13.4906C53.6744-13.4906 52.7276-13.9129 51.8409-14.7357L34.6726-31.6613C33.5465-32.7566 32.9654-33.8661 32.9654-35.2921Z"/>
  </g>
  <g id="Regular-M" transform="matrix(1 0 0 1 1391.32 1126)">
   <path d="M58.4961 14.5128C85.7192 14.5128 108.321-8.0375 108.321-35.2606C108.321-62.4838 85.6675-85.0341 58.4443-85.0341C31.2624-85.0341 8.72266-62.4838 8.72266-35.2606C8.72266-8.0375 31.3141 14.5128 58.4961 14.5128ZM32.6627-35.3229C32.6627-36.4002 33.0979-37.2293 34.1234-38.2548L51.0878-55.3122C51.8028-55.9755 52.6626-56.3176 53.7197-56.3176C55.8436-56.3176 57.4183-54.7324 57.4183-52.6708C57.4183-51.6136 56.9209-50.6398 56.2471-49.9766L50.0227-43.7522L43.9264-38.711L54.5876-39.105L80.7132-39.105C82.9512-39.105 84.4952-37.5197 84.4952-35.3124C84.4952-33.1367 82.9617-31.5409 80.7132-31.5409L54.5876-31.5409L43.8852-31.9243L50.0227-26.842L56.2471-20.6693C56.9727-20.0061 57.4183-19.0323 57.4183-17.9751C57.4183-15.9135 55.8436-14.2765 53.7197-14.2765C52.6626-14.2765 51.8028-14.6704 51.0878-15.3337L34.1234-32.3393C33.1602-33.3026 32.6627-34.1728 32.6627-35.3229Z"/>
  </g>
  <g id="Light-M" transform="matrix(1 0 0 1 1095.44 1126)">
   <path d="M57.6748 13.6915C84.4872 13.6915 106.662-8.44816 106.662-35.2606C106.662-62.0731 84.4526-84.2128 57.6401-84.2128C30.8346-84.2128 8.72266-62.0731 8.72266-35.2606C8.72266-8.44816 30.8693 13.6915 57.6748 13.6915ZM32.081-35.3229C32.081-36.1265 32.4134-36.7844 33.1823-37.5533L50.8825-55.2951C51.4435-55.8215 52.0808-56.1123 52.9326-56.1123C54.5603-56.1123 55.7586-54.8864 55.7586-53.321C55.7586-52.4691 55.3638-51.7349 54.8098-51.2086L47.0796-43.4784L40.8978-37.9411L50.1559-38.2665L80.4566-38.2665C82.1812-38.2665 83.4001-37.0406 83.4001-35.2953C83.4001-33.633 82.2088-32.3794 80.4566-32.3794L50.1559-32.3794L40.8908-32.6772L47.0796-27.1329L54.8098-19.4373C55.3985-18.911 55.7586-18.1768 55.7586-17.3249C55.7586-15.7595 54.5603-14.499 52.9326-14.499C52.0808-14.499 51.4435-14.8244 50.8825-15.3508L33.1823-33.058C32.4757-33.7645 32.081-34.4295 32.081-35.3229Z"/>
  </g>
  <g id="Thin-M" transform="matrix(1 0 0 1 799.828 1126)">
   <path d="M56.5885 12.6052C82.8578 12.6052 104.466-8.9913 104.466-35.2606C104.466-61.53 82.8458-83.1265 56.5765-83.1265C30.2689-83.1265 8.72266-61.53 8.72266-35.2606C8.72266-8.9913 30.2809 12.6052 56.5885 12.6052ZM31.3115-35.3229C31.3115-35.7644 31.5082-36.196 31.9376-36.6254L50.6109-55.2725C50.9683-55.6178 51.3113-55.8407 51.8916-55.8407C52.863-55.8407 53.5634-55.09 53.5634-54.1809C53.5634-53.6007 53.3044-53.1833 52.9088-52.838L43.1872-43.1163L36.8922-36.9227L44.2945-37.1576L80.1171-37.1576C81.1628-37.1576 81.9518-36.4069 81.9518-35.2727C81.9518-34.2892 81.2131-33.4883 80.1171-33.4883L44.2945-33.4883L36.9304-33.6729L43.1872-27.5176L52.9088-17.8079C53.3164-17.4626 53.5634-17.0452 53.5634-16.465C53.5634-15.5559 52.863-14.7932 51.8916-14.7932C51.3113-14.7932 50.9683-15.0281 50.6109-15.3734L31.9376-34.0085C31.5705-34.3756 31.3115-34.7689 31.3115-35.3229Z"/>
  </g>
  <g id="Ultralight-M" transform="matrix(1 0 0 1 503.679 1126)">
   <path d="M56.0321 12.0488C82.0233 12.0488 103.342-9.26949 103.342-35.2606C103.342-61.2518 82.0228-82.5701 56.0317-82.5701C29.9791-82.5701 8.72266-61.2518 8.72266-35.2606C8.72266-9.26949 29.9795 12.0488 56.0321 12.0488ZM30.9174-35.3229C30.9174-35.5789 31.0446-35.8946 31.3001-36.1502L50.4718-55.2609C50.7249-55.5135 50.9172-55.7016 51.3584-55.7016C51.9937-55.7016 52.4391-55.1944 52.4391-54.6214C52.4391-54.1802 52.2496-53.9251 51.9352-53.6725L41.1935-42.9309L34.8405-36.4011L41.2924-36.5897L79.9432-36.5897C80.6412-36.5897 81.2099-36.0824 81.2099-35.2611C81.2099-34.6254 80.7031-34.0562 79.9432-34.0562L41.2924-34.0562L34.902-34.1829L41.1935-27.7146L51.9352-16.9734C52.25-16.7208 52.4391-16.4657 52.4391-16.0245C52.4391-15.4515 51.9937-14.9438 51.3584-14.9438C50.9172-14.9438 50.7249-15.1324 50.4718-15.385L31.3001-34.4953C31.1069-34.6885 30.9174-34.9428 30.9174-35.3229Z"/>
  </g>
  <g id="Black-S" transform="matrix(1 0 0 1 2884.57 696)">
   <path d="M48.8281 6.78711C71.9727 6.78711 90.8203-12.0605 90.8203-35.2051C90.8203-58.3496 71.9727-77.1973 48.8281-77.1973C25.6836-77.1973 6.83594-58.3496 6.83594-35.2051C6.83594-12.0605 25.6836 6.78711 48.8281 6.78711ZM27.002-35.1562C27.002-37.3535 27.7832-39.1602 29.2969-40.5273L43.6035-53.5156C44.9707-54.7852 46.0449-55.2246 47.7051-55.2246C50.6348-55.2246 52.6367-53.125 52.6367-50C52.6367-48.5352 51.9043-46.9727 50.8301-46.0938L46.7773-42.7734L43.5059-40.9668L50.7812-41.6016L64.8438-41.6016C68.2617-41.6016 70.7031-38.7695 70.7031-35.1562C70.7031-31.543 68.2617-28.7109 64.8438-28.7109L50.7812-28.7109L43.5059-29.3457L46.5332-27.5879L50.8301-24.2188C51.9531-23.3887 52.6367-21.8262 52.6367-20.3125C52.6367-17.1875 50.6348-15.0879 47.7051-15.0879C46.0449-15.0879 44.9707-15.5273 43.6035-16.7969L29.2969-29.7852C27.7832-31.1523 27.002-32.959 27.002-35.1562Z"/>
  </g>
  <g id="Heavy-S" transform="matrix(1 0 0 1 2588.47 696)">
   <path d="M48.2173 6.16479C70.9816 6.16479 89.6102-12.4524 89.6102-35.2166C89.6102-57.9808 70.97-76.598 48.2058-76.598C25.4531-76.598 6.83594-57.9808 6.83594-35.2166C6.83594-12.4524 25.4646 6.16479 48.2173 6.16479ZM26.7369-35.1908C26.7369-37.1 27.4259-38.6531 28.8013-39.9165L42.7853-52.9164C43.9796-54.0245 44.9847-54.4294 46.472-54.4294C49.1596-54.4294 51.0233-52.4912 51.0233-49.6658C51.0233-48.3277 50.36-46.9266 49.401-46.1168L45.3253-42.6006L41.708-40.3445L49.3983-40.9101L64.498-40.9101C67.5818-40.9101 69.7696-38.4123 69.7696-35.1908C69.7696-31.9694 67.5818-29.4716 64.498-29.4716L49.3983-29.4716L41.6965-30.0372L45.1387-27.8069L49.401-24.2648C50.4088-23.4924 51.0233-22.0912 51.0233-20.7159C51.0233-17.8905 49.1596-15.9407 46.472-15.9407C44.9847-15.9407 43.9796-16.3571 42.7853-17.4653L28.8013-30.4536C27.4375-31.7055 26.7369-33.2701 26.7369-35.1908Z"/>
  </g>
  <g id="Bold-S" transform="matrix(1 0 0 1 2292.43 696)">
   <path d="M47.5342 5.46875C69.873 5.46875 88.2568-12.8906 88.2568-35.2295C88.2568-57.5684 69.8486-75.9277 47.5098-75.9277C25.1953-75.9277 6.83594-57.5684 6.83594-35.2295C6.83594-12.8906 25.2197 5.46875 47.5342 5.46875ZM26.4404-35.2295C26.4404-36.8164 27.0264-38.0859 28.2471-39.2334L41.8701-52.2461C42.8711-53.1738 43.7988-53.54 45.0928-53.54C47.5098-53.54 49.2188-51.7822 49.2188-49.292C49.2188-48.0957 48.6328-46.875 47.8027-46.1426L43.7012-42.4072L39.6973-39.6484L47.8516-40.1367L64.1113-40.1367C66.8213-40.1367 68.7256-38.0127 68.7256-35.2295C68.7256-32.4463 66.8213-30.3223 64.1113-30.3223L47.8516-30.3223L39.6729-30.8105L43.5791-28.0518L47.8027-24.3164C48.6816-23.6084 49.2188-22.3877 49.2188-21.167C49.2188-18.6768 47.5098-16.8945 45.0928-16.8945C43.7988-16.8945 42.8711-17.2852 41.8701-18.2129L28.2471-31.2012C27.0508-32.3242 26.4404-33.6182 26.4404-35.2295Z"/>
  </g>
  <g id="Semibold-S" transform="matrix(1 0 0 1 1996.19 696)">
   <path d="M47.0632 4.98887C69.1088 4.98887 87.3237-13.1928 87.3237-35.2384C87.3237-57.284 69.0755-75.4656 47.0299-75.4656C25.0176-75.4656 6.83594-57.284 6.83594-35.2384C6.83594-13.1928 25.0509 4.98887 47.0632 4.98887ZM26.236-35.2562C26.236-36.6209 26.7509-37.6949 27.8649-38.7624L41.2392-51.784C42.1068-52.5873 42.9813-52.9269 44.1419-52.9269C46.3723-52.9269 47.9746-51.2935 47.9746-49.0343C47.9746-47.9357 47.442-46.8395 46.7008-46.1604L42.5814-42.2739L38.3109-39.1686L46.7852-39.6035L63.8447-39.6035C66.297-39.6035 68.0058-37.7372 68.0058-35.2562C68.0058-32.7751 66.297-30.9088 63.8447-30.9088L46.7852-30.9088L38.2776-31.3438L42.5038-28.2206L46.7008-24.352C47.4908-23.6884 47.9746-22.5921 47.9746-21.478C47.9746-19.2188 46.3723-17.5521 44.1419-17.5521C42.9813-17.5521 42.1068-17.925 41.2392-18.7283L27.8649-31.7166C26.7842-32.7508 26.236-33.8581 26.236-35.2562Z"/>
  </g>
  <g id="Medium-S" transform="matrix(1 0 0 1 1699.83 696)">
   <path d="M46.7061 4.625C68.5293 4.625 86.6162-13.4219 86.6162-35.2451C86.6162-57.0684 68.4893-75.1152 46.666-75.1152C24.8828-75.1152 6.83594-57.0684 6.83594-35.2451C6.83594-13.4219 24.9229 4.625 46.7061 4.625ZM26.0811-35.2764C26.0811-36.4727 26.542-37.3984 27.5752-38.4053L40.7607-51.4336C41.5273-52.1426 42.3613-52.4619 43.4209-52.4619C45.5098-52.4619 47.0312-50.9229 47.0312-48.8389C47.0312-47.8145 46.5391-46.8125 45.8652-46.1738L41.7324-42.1729L37.2598-38.8047L45.9766-39.1992L63.6426-39.1992C65.8994-39.1992 67.46-37.5283 67.46-35.2764C67.46-33.0244 65.8994-31.3535 63.6426-31.3535L45.9766-31.3535L37.2197-31.748L41.6885-28.3486L45.8652-24.3789C46.5879-23.749 47.0312-22.7471 47.0312-21.7139C47.0312-19.6299 45.5098-18.0508 43.4209-18.0508C42.3613-18.0508 41.5273-18.4102 40.7607-19.1191L27.5752-32.1074C26.582-33.0742 26.0811-34.04 26.0811-35.2764Z"/>
  </g>
  <g id="Regular-S" transform="matrix(1 0 0 1 1403.58 696)">
   <path d="M46.2402 4.15039C67.7734 4.15039 85.6934-13.7207 85.6934-35.2539C85.6934-56.7871 67.7246-74.6582 46.1914-74.6582C24.707-74.6582 6.83594-56.7871 6.83594-35.2539C6.83594-13.7207 24.7559 4.15039 46.2402 4.15039ZM25.8789-35.3027C25.8789-36.2793 26.2695-37.0117 27.1973-37.9395L40.1367-50.9766C40.7715-51.5625 41.5527-51.8555 42.4805-51.8555C44.3848-51.8555 45.8008-50.4395 45.8008-48.584C45.8008-47.6562 45.3613-46.7773 44.7754-46.1914L40.625-42.041L35.8887-38.3301L44.9219-38.6719L63.3789-38.6719C65.3809-38.6719 66.748-37.2559 66.748-35.3027C66.748-33.3496 65.3809-31.9336 63.3789-31.9336L44.9219-31.9336L35.8398-32.2754L40.625-28.5156L44.7754-24.4141C45.4102-23.8281 45.8008-22.9492 45.8008-22.0215C45.8008-20.166 44.3848-18.7012 42.4805-18.7012C41.5527-18.7012 40.7715-19.043 40.1367-19.6289L27.1973-32.6172C26.3184-33.4961 25.8789-34.2773 25.8789-35.3027Z"/>
  </g>
  <g id="Light-S" transform="matrix(1 0 0 1 1107.6 696)">
   <path d="M45.5137 3.42383C66.6836 3.42383 84.2251-14.084 84.2251-35.2539C84.2251-56.4238 66.6499-73.9316 45.48-73.9316C24.3286-73.9316 6.83594-56.4238 6.83594-35.2539C6.83594-14.084 24.3623 3.42383 45.5137 3.42383ZM25.3643-35.3027C25.3643-36.0371 25.6641-36.6182 26.3648-37.3189L39.9551-50.9614C40.4536-51.4263 41.0381-51.6738 41.7842-51.6738C43.2495-51.6738 44.3325-50.5757 44.3325-49.1592C44.3325-48.4131 43.9839-47.7461 43.5039-47.2812L38.0215-41.7988L33.2095-37.6489L41.0015-37.9302L63.1519-37.9302C64.6997-37.9302 65.7793-36.832 65.7793-35.2876C65.7793-33.7886 64.7148-32.6753 63.1519-32.6753L41.0015-32.6753L33.1909-32.9414L38.0215-28.7729L43.5039-23.3242C44.0176-22.8594 44.3325-22.1924 44.3325-21.4463C44.3325-20.0298 43.2495-18.8979 41.7842-18.8979C41.0381-18.8979 40.4536-19.1792 39.9551-19.644L26.3648-33.2529C25.7129-33.9048 25.3643-34.5044 25.3643-35.3027Z"/>
  </g>
  <g id="Thin-S" transform="matrix(1 0 0 1 811.863 696)">
   <path d="M44.5527 2.4629C65.2422 2.4629 82.2832-14.5644 82.2832-35.2539C82.2832-55.9434 65.2285-72.9707 44.5391-72.9707C23.8281-72.9707 6.83594-55.9434 6.83594-35.2539C6.83594-14.5644 23.8418 2.4629 44.5527 2.4629ZM24.6836-35.3027C24.6836-35.7168 24.8633-36.0977 25.2637-36.4981L39.7148-50.9414C40.0332-51.2461 40.3574-51.4336 40.8633-51.4336C41.7481-51.4336 42.3907-50.7559 42.3907-49.9199C42.3907-49.414 42.1621-49.0273 41.8223-48.7226L34.5782-41.4785L29.6661-36.7481L35.8165-36.9492L62.8516-36.9492C63.7988-36.9492 64.4981-36.2715 64.4981-35.2676C64.4981-34.3691 63.834-33.6562 62.8516-33.6562L35.8165-33.6562L29.6875-33.8223L34.5782-29.1133L41.8223-21.8828C42.1758-21.5781 42.3907-21.1914 42.3907-20.6856C42.3907-19.8496 41.7481-19.1582 40.8633-19.1582C40.3574-19.1582 40.0332-19.3594 39.7148-19.6641L25.2637-34.0937C24.9121-34.4453 24.6836-34.8047 24.6836-35.3027Z"/>
  </g>
  <g id="Ultralight-S" transform="matrix(1 0 0 1 515.649 696)">
   <path d="M44.0606 1.97072C64.5039 1.97072 81.2886-14.8105 81.2886-35.2539C81.2886-55.6973 64.5005-72.4785 44.0571-72.4785C23.5718-72.4785 6.83594-55.6973 6.83594-35.2539C6.83594-14.8105 23.5752 1.97072 44.0606 1.97072ZM24.335-35.3027C24.335-35.5527 24.4531-35.8311 24.6997-36.0777L39.5918-50.9312C39.8179-51.1538 40.0088-51.3106 40.3916-51.3106C40.979-51.3106 41.396-50.8481 41.396-50.3096C41.396-49.9267 41.229-49.6836 40.961-49.4609L32.8145-41.3145L27.8511-36.2866L33.1607-36.4468L62.6978-36.4468C63.3374-36.4468 63.8418-35.9844 63.8418-35.2573C63.8418-34.6665 63.3828-34.1587 62.6978-34.1587L33.1607-34.1587L27.8931-34.2734L32.8145-29.2876L40.961-21.1446C41.2325-20.9219 41.396-20.6787 41.396-20.2959C41.396-19.7573 40.979-19.2915 40.3916-19.2915C40.0088-19.2915 39.8179-19.4517 39.5918-19.6743L24.6997-34.5244C24.502-34.7222 24.335-34.9585 24.335-35.3027Z"/>
  </g>
 </g>
</svg>
