<?xml version="1.0" encoding="UTF-8"?>
<!--Generator: Apple Native CoreSVG 175.5-->
<!DOCTYPE svg
PUBLIC "-//W3C//DTD SVG 1.1//EN"
       "http://www.w3.org/Graphics/SVG/1.1/DTD/svg11.dtd">
<svg version="1.1" xmlns="http://www.w3.org/2000/svg" xmlns:xlink="http://www.w3.org/1999/xlink" width="3300" height="2200">
 <!--glyph: "uni101526.medium", point size: 100.0, font version: "18.0d12e2", template writer version: "101"-->
 <g id="Notes">
  <rect height="2200" id="artboard" style="fill:white;opacity:1" width="3300" x="0" y="0"/>
  <line style="fill:none;stroke:black;opacity:1;stroke-width:0.5;" x1="263" x2="3036" y1="292" y2="292"/>
  <text style="stroke:none;fill:black;font-family:sans-serif;font-size:13;font-weight:bold;" transform="matrix(1 0 0 1 263 322)">Weight/Scale Variations</text>
  <text style="stroke:none;fill:black;font-family:sans-serif;font-size:13;text-anchor:middle;" transform="matrix(1 0 0 1 559.711 322)">Ultralight</text>
  <text style="stroke:none;fill:black;font-family:sans-serif;font-size:13;text-anchor:middle;" transform="matrix(1 0 0 1 856.422 322)">Thin</text>
  <text style="stroke:none;fill:black;font-family:sans-serif;font-size:13;text-anchor:middle;" transform="matrix(1 0 0 1 1153.13 322)">Light</text>
  <text style="stroke:none;fill:black;font-family:sans-serif;font-size:13;text-anchor:middle;" transform="matrix(1 0 0 1 1449.84 322)">Regular</text>
  <text style="stroke:none;fill:black;font-family:sans-serif;font-size:13;text-anchor:middle;" transform="matrix(1 0 0 1 1746.56 322)">Medium</text>
  <text style="stroke:none;fill:black;font-family:sans-serif;font-size:13;text-anchor:middle;" transform="matrix(1 0 0 1 2043.27 322)">Semibold</text>
  <text style="stroke:none;fill:black;font-family:sans-serif;font-size:13;text-anchor:middle;" transform="matrix(1 0 0 1 2339.98 322)">Bold</text>
  <text style="stroke:none;fill:black;font-family:sans-serif;font-size:13;text-anchor:middle;" transform="matrix(1 0 0 1 2636.69 322)">Heavy</text>
  <text style="stroke:none;fill:black;font-family:sans-serif;font-size:13;text-anchor:middle;" transform="matrix(1 0 0 1 2933.4 322)">Black</text>
  <line style="fill:none;stroke:black;opacity:1;stroke-width:0.5;" x1="263" x2="3036" y1="1903" y2="1903"/>
  <g transform="matrix(1 0 0 1 263 1933)">
   <path d="M9.24805 0.830078C13.5547 0.830078 17.1387-2.74414 17.1387-7.05078C17.1387-11.3574 13.5449-14.9316 9.23828-14.9316C4.94141-14.9316 1.36719-11.3574 1.36719-7.05078C1.36719-2.74414 4.95117 0.830078 9.24805 0.830078ZM9.24805-0.654297C5.70312-0.654297 2.87109-3.49609 2.87109-7.05078C2.87109-10.6055 5.69336-13.4473 9.23828-13.4473C12.793-13.4473 15.6445-10.6055 15.6445-7.05078C15.6445-3.49609 12.8027-0.654297 9.24805-0.654297ZM5.6543-7.05078C5.6543-6.62109 5.95703-6.32812 6.40625-6.32812L8.50586-6.32812L8.50586-4.20898C8.50586-3.76953 8.79883-3.4668 9.22852-3.4668C9.67773-3.4668 9.9707-3.76953 9.9707-4.20898L9.9707-6.32812L12.0898-6.32812C12.5293-6.32812 12.832-6.62109 12.832-7.05078C12.832-7.49023 12.5293-7.79297 12.0898-7.79297L9.9707-7.79297L9.9707-9.90234C9.9707-10.3516 9.67773-10.6543 9.22852-10.6543C8.79883-10.6543 8.50586-10.3516 8.50586-9.90234L8.50586-7.79297L6.40625-7.79297C5.95703-7.79297 5.6543-7.49023 5.6543-7.05078Z"/>
  </g>
  <g transform="matrix(1 0 0 1 281.867 1933)">
   <path d="M11.709 2.91016C17.1582 2.91016 21.6699-1.61133 21.6699-7.05078C21.6699-12.5 17.1484-17.0117 11.6992-17.0117C6.25977-17.0117 1.74805-12.5 1.74805-7.05078C1.74805-1.61133 6.26953 2.91016 11.709 2.91016ZM11.709 1.25C7.09961 1.25 3.41797-2.44141 3.41797-7.05078C3.41797-11.6602 7.08984-15.3516 11.6992-15.3516C16.3086-15.3516 20.0098-11.6602 20.0098-7.05078C20.0098-2.44141 16.3184 1.25 11.709 1.25ZM7.17773-7.05078C7.17773-6.57227 7.50977-6.25 8.00781-6.25L10.8789-6.25L10.8789-3.36914C10.8789-2.88086 11.2109-2.53906 11.6895-2.53906C12.1777-2.53906 12.5195-2.87109 12.5195-3.36914L12.5195-6.25L15.4004-6.25C15.8887-6.25 16.2305-6.57227 16.2305-7.05078C16.2305-7.53906 15.8887-7.88086 15.4004-7.88086L12.5195-7.88086L12.5195-10.752C12.5195-11.25 12.1777-11.5918 11.6895-11.5918C11.2109-11.5918 10.8789-11.25 10.8789-10.752L10.8789-7.88086L8.00781-7.88086C7.50977-7.88086 7.17773-7.53906 7.17773-7.05078Z"/>
  </g>
  <g transform="matrix(1 0 0 1 305.646 1933)">
   <path d="M14.9707 5.66406C21.9336 5.66406 27.6953-0.0976562 27.6953-7.05078C27.6953-14.0137 21.9238-19.7754 14.9609-19.7754C8.00781-19.7754 2.25586-14.0137 2.25586-7.05078C2.25586-0.0976562 8.01758 5.66406 14.9707 5.66406ZM14.9707 3.84766C8.93555 3.84766 4.08203-1.01562 4.08203-7.05078C4.08203-13.0957 8.92578-17.9492 14.9609-17.9492C21.0059-17.9492 25.8691-13.0957 25.8691-7.05078C25.8691-1.01562 21.0156 3.84766 14.9707 3.84766ZM9.19922-7.05078C9.19922-6.5332 9.57031-6.17188 10.1172-6.17188L14.0625-6.17188L14.0625-2.2168C14.0625-1.67969 14.4336-1.29883 14.9512-1.29883C15.4883-1.29883 15.8594-1.66992 15.8594-2.2168L15.8594-6.17188L19.8145-6.17188C20.3516-6.17188 20.7324-6.5332 20.7324-7.05078C20.7324-7.59766 20.3613-7.96875 19.8145-7.96875L15.8594-7.96875L15.8594-11.9141C15.8594-12.4609 15.4883-12.8418 14.9512-12.8418C14.4336-12.8418 14.0625-12.4609 14.0625-11.9141L14.0625-7.96875L10.1172-7.96875C9.57031-7.96875 9.19922-7.59766 9.19922-7.05078Z"/>
  </g>
  <text style="stroke:none;fill:black;font-family:sans-serif;font-size:13;font-weight:bold;" transform="matrix(1 0 0 1 263 1953)">Design Variations</text>
  <text style="stroke:none;fill:black;font-family:sans-serif;font-size:13;" transform="matrix(1 0 0 1 263 1971)">Symbols are supported in up to nine weights and three scales.</text>
  <text style="stroke:none;fill:black;font-family:sans-serif;font-size:13;" transform="matrix(1 0 0 1 263 1989)">For optimal layout with text and other symbols, vertically align</text>
  <text style="stroke:none;fill:black;font-family:sans-serif;font-size:13;" transform="matrix(1 0 0 1 263 2007)">symbols with the adjacent text.</text>
  <line style="fill:none;stroke:#00AEEF;stroke-width:0.5;opacity:1.0;" x1="776" x2="776" y1="1919" y2="1933"/>
  <g transform="matrix(1 0 0 1 776 1933)">
   <path d="M3.31055 0.15625C3.82812 0.15625 4.08203-0.0390625 4.26758-0.585938L5.52734-4.0332L11.2891-4.0332L12.5488-0.585938C12.7344-0.0390625 12.9883 0.15625 13.4961 0.15625C14.0137 0.15625 14.3457-0.15625 14.3457-0.644531C14.3457-0.810547 14.3164-0.966797 14.2383-1.17188L9.6582-13.3691C9.43359-13.9648 9.0332-14.2676 8.4082-14.2676C7.80273-14.2676 7.39258-13.9746 7.17773-13.3789L2.59766-1.16211C2.51953-0.957031 2.49023-0.800781 2.49023-0.634766C2.49023-0.146484 2.80273 0.15625 3.31055 0.15625ZM6.00586-5.51758L8.37891-12.0898L8.42773-12.0898L10.8008-5.51758Z"/>
  </g>
  <line style="fill:none;stroke:#00AEEF;stroke-width:0.5;opacity:1.0;" x1="793.197" x2="793.197" y1="1919" y2="1933"/>
  <text style="stroke:none;fill:black;font-family:sans-serif;font-size:13;font-weight:bold;" transform="matrix(1 0 0 1 776 1953)">Margins</text>
  <text style="stroke:none;fill:black;font-family:sans-serif;font-size:13;" transform="matrix(1 0 0 1 776 1971)">Leading and trailing margins on the left and right side of each symbol</text>
  <text style="stroke:none;fill:black;font-family:sans-serif;font-size:13;" transform="matrix(1 0 0 1 776 1989)">can be adjusted by modifying the x-location of the margin guidelines.</text>
  <text style="stroke:none;fill:black;font-family:sans-serif;font-size:13;" transform="matrix(1 0 0 1 776 2007)">Modifications are automatically applied proportionally to all</text>
  <text style="stroke:none;fill:black;font-family:sans-serif;font-size:13;" transform="matrix(1 0 0 1 776 2025)">scales and weights.</text>
  <g transform="matrix(1 0 0 1 1289 1933)">
   <path d="M2.8418 1.86523L4.54102 3.57422C5.40039 4.44336 6.38672 4.38477 7.31445 3.35938L18.0078-8.42773L17.041-9.4043L6.42578 2.27539C6.07422 2.67578 5.74219 2.77344 5.27344 2.30469L4.10156 1.14258C3.63281 0.683594 3.74023 0.341797 4.14062-0.0195312L15.6152-10.8203L14.6387-11.7871L3.04688-0.898438C2.06055 0.0195312 1.98242 0.996094 2.8418 1.86523ZM9.25781-16.3281C8.83789-15.918 8.80859-15.3418 9.04297-14.9512C9.27734-14.5898 9.73633-14.3555 10.3809-14.5215C11.8457-14.8633 13.3691-14.9219 14.7949-13.9844L14.209-12.5293C13.8672-11.6992 14.043-11.1133 14.5801-10.5664L16.875-8.25195C17.3633-7.76367 17.7734-7.74414 18.3398-7.8418L19.4043-8.03711L20.0684-7.36328L20.0293-6.80664C19.9902-6.30859 20.1172-5.92773 20.6055-5.44922L21.3672-4.70703C21.8457-4.22852 22.4609-4.19922 22.9297-4.66797L25.8398-7.58789C26.3086-8.05664 26.2891-8.65234 25.8105-9.13086L25.0391-9.89258C24.5605-10.3711 24.1895-10.5273 23.7109-10.4883L23.1348-10.4395L22.4902-11.0742L22.7344-12.1973C22.8613-12.7637 22.7051-13.2031 22.1191-13.7891L19.9219-15.9766C16.582-19.2969 12.1484-19.2188 9.25781-16.3281ZM10.752-15.957C13.1836-17.7344 16.4746-17.4316 18.7012-15.2051L21.1328-12.793C21.3672-12.5586 21.4062-12.373 21.3379-12.0312L21.0156-10.5469L22.5195-9.0625L23.5059-9.12109C23.7598-9.13086 23.8379-9.11133 24.0332-8.91602L24.6094-8.33984L22.168-5.89844L21.5918-6.47461C21.3965-6.66992 21.3672-6.74805 21.377-7.01172L21.4453-7.98828L19.9512-9.47266L18.4277-9.21875C18.1055-9.15039 17.959-9.17969 17.7148-9.41406L15.7129-11.416C15.459-11.6504 15.4297-11.8164 15.5859-12.1875L16.4648-14.2773C14.9023-15.7324 12.8711-16.3574 10.8398-15.7617C10.6836-15.7227 10.625-15.8496 10.752-15.957Z"/>
  </g>
  <text style="stroke:none;fill:black;font-family:sans-serif;font-size:13;font-weight:bold;" transform="matrix(1 0 0 1 1289 1953)">Exporting</text>
  <text style="stroke:none;fill:black;font-family:sans-serif;font-size:13;" transform="matrix(1 0 0 1 1289 1971)">Symbols should be outlined when exporting to ensure the</text>
  <text style="stroke:none;fill:black;font-family:sans-serif;font-size:13;" transform="matrix(1 0 0 1 1289 1989)">design is preserved when submitting to Xcode.</text>
  <text id="template-version" style="stroke:none;fill:black;font-family:sans-serif;font-size:13;text-anchor:end;" transform="matrix(1 0 0 1 3036 1933)">Template v.4.0</text>
  <text style="stroke:none;fill:black;font-family:sans-serif;font-size:13;text-anchor:end;" transform="matrix(1 0 0 1 3036 1951)">Requires Xcode 14 or greater</text>
  <text id="descriptive-name" style="stroke:none;fill:black;font-family:sans-serif;font-size:13;text-anchor:end;" transform="matrix(1 0 0 1 3036 1969)">Generated from figure.fencing</text>
  <text style="stroke:none;fill:black;font-family:sans-serif;font-size:13;text-anchor:end;" transform="matrix(1 0 0 1 3036 1987)">Typeset at 100 points</text>
  <text style="stroke:none;fill:black;font-family:sans-serif;font-size:13;" transform="matrix(1 0 0 1 263 726)">Small</text>
  <text style="stroke:none;fill:black;font-family:sans-serif;font-size:13;" transform="matrix(1 0 0 1 263 1156)">Medium</text>
  <text style="stroke:none;fill:black;font-family:sans-serif;font-size:13;" transform="matrix(1 0 0 1 263 1586)">Large</text>
 </g>
 <g id="Guides">
  <g id="H-reference" style="fill:#27AAE1;stroke:none;" transform="matrix(1 0 0 1 339 696)">
   <path d="M0.993654 0L3.63775 0L29.3281-67.1323L30.0303-67.1323L30.0303-70.459L28.1226-70.459ZM11.6885-24.4799L46.9815-24.4799L46.2315-26.7285L12.4385-26.7285ZM55.1196 0L57.7637 0L30.6382-70.459L29.4326-70.459L29.4326-67.1323Z"/>
  </g>
  <line id="Baseline-S" style="fill:none;stroke:#27AAE1;opacity:1;stroke-width:0.5;" x1="263" x2="3036" y1="696" y2="696"/>
  <line id="Capline-S" style="fill:none;stroke:#27AAE1;opacity:1;stroke-width:0.5;" x1="263" x2="3036" y1="625.541" y2="625.541"/>
  <g id="H-reference" style="fill:#27AAE1;stroke:none;" transform="matrix(1 0 0 1 339 1126)">
   <path d="M0.993654 0L3.63775 0L29.3281-67.1323L30.0303-67.1323L30.0303-70.459L28.1226-70.459ZM11.6885-24.4799L46.9815-24.4799L46.2315-26.7285L12.4385-26.7285ZM55.1196 0L57.7637 0L30.6382-70.459L29.4326-70.459L29.4326-67.1323Z"/>
  </g>
  <line id="Baseline-M" style="fill:none;stroke:#27AAE1;opacity:1;stroke-width:0.5;" x1="263" x2="3036" y1="1126" y2="1126"/>
  <line id="Capline-M" style="fill:none;stroke:#27AAE1;opacity:1;stroke-width:0.5;" x1="263" x2="3036" y1="1055.54" y2="1055.54"/>
  <g id="H-reference" style="fill:#27AAE1;stroke:none;" transform="matrix(1 0 0 1 339 1556)">
   <path d="M0.993654 0L3.63775 0L29.3281-67.1323L30.0303-67.1323L30.0303-70.459L28.1226-70.459ZM11.6885-24.4799L46.9815-24.4799L46.2315-26.7285L12.4385-26.7285ZM55.1196 0L57.7637 0L30.6382-70.459L29.4326-70.459L29.4326-67.1323Z"/>
  </g>
  <line id="Baseline-L" style="fill:none;stroke:#27AAE1;opacity:1;stroke-width:0.5;" x1="263" x2="3036" y1="1556" y2="1556"/>
  <line id="Capline-L" style="fill:none;stroke:#27AAE1;opacity:1;stroke-width:0.5;" x1="263" x2="3036" y1="1485.54" y2="1485.54"/>
  <line id="left-margin-Regular-M" style="fill:none;stroke:#00AEEF;stroke-width:0.5;opacity:1.0;" x1="1397.02" x2="1397.02" y1="1030.79" y2="1150.12"/>
  <line id="right-margin-Regular-M" style="fill:none;stroke:#00AEEF;stroke-width:0.5;opacity:1.0;" x1="1502.67" x2="1502.67" y1="1030.79" y2="1150.12"/>
 </g>
 <g id="Symbols">
  <g id="Black-L" transform="matrix(1 0 0 1 2861.54 1556)">
   <path d="M71.2894-83.1073C79.7934-83.1073 86.7587-90.0714 86.7587-98.6195C86.7587-107.125 79.7934-114.09 71.2894-114.09C62.7205-114.09 55.7761-107.125 55.7761-98.6195C55.7761-90.0714 62.7205-83.1073 71.2894-83.1073ZM23.4865 45.4686C26.8013 47.1486 31.7156 46.5272 34.051 42.3158L50.7755 12.2516L59.7286-7.77043C60.1427-8.6958 61.1901-8.93466 62.0195-8.38175L86.1006 9.0628L86.1006 38.4822C86.1006 42.8336 89.6137 46.3092 93.9859 46.3092C98.3593 46.3092 101.834 42.8336 101.834 38.4822L101.834 5.55081C101.834 3.41151 101.214 1.01657 99.418-0.640206L72.2896-26.265L74.291-42.6681C74.3714-43.2739 75.2976-43.3543 75.5389-42.7121L80.0202-31.9077C81.2981-28.8927 84.094-27.0762 87.2687-27.0762L115.587-27.0762C119.938-27.0762 123.414-30.5494 123.414-34.9216C123.414-39.295 119.938-42.7486 115.587-42.7486L92.4387-42.7486L83.1451-64.5113C80.5609-70.5984 76.4807-74.022 67.785-76.505L63.8944-77.6077C54.6514-80.2151 48.0234-80.6136 40.2915-77.308L31.7588-73.637L31.7588-96.6549C31.7588-100.888 28.2039-104.401 23.9318-104.401C19.5596-104.401 16.084-100.888 16.084-96.6549L16.084-60.8761C16.084-55.1676 21.9533-52.2317 27.0065-54.4294L44.3802-61.9714C45.1248-62.293 45.6346-61.8689 45.5333-61.1607L36.3202 6.00337L20.3326 34.7289C18.2374 38.4822 19.5152 43.4537 23.4865 45.4686ZM109.069-55.0505L120.48-55.0505L120.48-112.084C120.48-115.229 117.929-117.799 114.785-117.799C111.64-117.799 109.069-115.229 109.069-112.084ZM105.809-49.1375L123.702-49.1375C126.804-49.1375 128.341-51.7804 127.33-54.6747C125.545-59.8695 120.545-63.7084 114.785-63.7084C108.945-63.7084 104.003-59.8695 102.16-54.6162C101.17-51.5468 102.939-49.1375 105.809-49.1375Z"/>
  </g>
  <g id="Heavy-L" transform="matrix(1 0 0 1 2565.79 1556)">
   <path d="M70.0782-82.5228C78.3313-82.5228 85.1003-89.2861 85.1003-97.6108C85.1003-105.87 78.3313-112.638 70.0782-112.638C61.7233-112.638 54.9846-105.87 54.9846-97.6108C54.9846-89.2861 61.7233-82.5228 70.0782-82.5228ZM23.2582 44.0129C26.4219 45.6333 31.1256 45.0258 33.3512 41.0157L49.8495 11.3359L58.887-8.90595C59.2509-9.69843 60.1841-9.92846 60.9176-9.43952L85.224 8.18301L85.224 37.3607C85.224 41.5014 88.5629 44.8259 92.7338 44.8259C96.9104 44.8259 100.229 41.5014 100.229 37.3607L100.229 4.84968C100.229 2.78813 99.6273 0.5123 97.9233-1.06673L71.0465-26.4626L73.1355-43.6788C73.2159-44.3077 74.1609-44.3881 74.4022-43.7503L79.1928-32.2354C80.4111-29.3576 83.0834-27.6233 86.1164-27.6233L114.068-27.6233C118.209-27.6233 121.534-30.9366 121.534-35.1075C121.534-39.2841 118.209-42.5728 114.068-42.5728L91.0344-42.5728L81.8032-64.2206C79.2736-70.1621 75.3258-73.4991 66.8077-75.9182L62.9668-77.0026C53.8643-79.5737 47.3957-79.9589 39.837-76.7167L31.0447-72.9344L31.0447-96.0586C31.0447-100.104 27.6453-103.443 23.5794-103.443C19.4085-103.443 16.084-100.104 16.084-96.0586L16.084-60.7409C16.084-55.307 21.6787-52.504 26.5074-54.6102L44.0001-62.2089C44.7541-62.5306 45.3239-62.0927 45.2133-61.3475L36.0626 5.38053L20.2554 33.7861C18.2655 37.3607 19.4838 42.1034 23.2582 44.0129ZM108.114-54.2726L118.401-54.2726L118.401-111.108C118.401-113.948 116.11-116.263 113.275-116.263C110.435-116.263 108.114-113.948 108.114-111.108ZM104.373-48.8639L122.128-48.8639C124.996-48.8639 126.352-51.2913 125.427-53.9395C123.679-59.028 118.844-62.7345 113.275-62.7345C107.627-62.7345 102.836-59.028 101.043-53.8949C100.149-51.1128 101.677-48.8639 104.373-48.8639Z"/>
  </g>
  <g id="Bold-L" transform="matrix(1 0 0 1 2270.32 1556)">
   <path d="M68.5574-81.8154C76.5031-81.8154 83.0337-88.3327 83.0337-96.3808C83.0337-104.34 76.5031-110.87 68.5574-110.87C60.4714-110.87 53.9788-104.34 53.9788-96.3808C53.9788-88.3327 60.4714-81.8154 68.5574-81.8154ZM22.9814 42.0955C25.968 43.6466 30.4254 43.0545 32.5202 39.2829L48.712 10.1243L57.8197-10.3047C58.1221-10.9431 58.9169-11.1579 59.535-10.7459L84.0212 7.02486L84.0212 35.8358C84.0212 39.7302 87.1599 42.8777 91.0923 42.8777C95.0379 42.8777 98.1722 39.7302 98.1722 35.8358L98.1722 3.89941C98.1722 1.9302 97.5932-0.207046 95.9969-1.69374L69.4872-26.7531L71.669-44.812C71.7494-45.4641 72.71-45.5445 72.9512-44.9144L78.0664-32.65C79.2154-29.9339 81.7415-28.2995 84.6053-28.2995L112.059-28.2995C115.954-28.2995 119.101-31.4205 119.101-35.3529C119.101-39.2986 115.954-42.3948 112.059-42.3948L89.2307-42.3948L80.0987-63.8446C77.6382-69.6018 73.8518-72.8313 65.5564-75.1734L61.7845-76.2348C52.8661-78.7598 46.5972-79.1222 39.2537-75.9643L30.2057-72.0735L30.2057-95.2389C30.2057-99.0617 26.991-102.2 23.1638-102.2C19.2314-102.2 16.084-99.0617 16.084-95.2389L16.084-60.5495C16.084-55.4389 21.3555-52.7899 25.9224-54.7884L43.4866-62.4264C44.2484-62.7481 44.8801-62.2948 44.7617-61.511L35.7102 4.51516L20.1556 32.4691C18.2889 35.8358 19.4379 40.3091 22.9814 42.0955ZM106.819-53.4238L115.692-53.4238L115.692-109.774C115.692-112.23 113.724-114.223 111.281-114.223C108.825-114.223 106.819-112.23 106.819-109.774ZM102.463-48.5258L120.057-48.5258C122.656-48.5258 123.781-50.7066 122.964-53.0476C121.255-58.0277 116.619-61.5728 111.281-61.5728C105.863-61.5728 101.257-58.0277 99.5185-53.0184C98.7396-50.5898 99.968-48.5258 102.463-48.5258Z"/>
  </g>
  <g id="Semibold-L" transform="matrix(1 0 0 1 1974.46 1556)">
   <path d="M67.509-81.3276C75.2427-81.3276 81.609-87.6754 81.609-95.5328C81.609-103.285 75.2427-109.651 67.509-109.651C59.6083-109.651 53.2854-103.285 53.2854-95.5328C53.2854-87.6754 59.6083-81.3276 67.509-81.3276ZM22.7906 40.7736C25.6552 42.277 29.9427 41.6955 31.9473 38.0884L47.9278 9.28898L57.0839-11.2689C57.3439-11.8012 58.0434-12.0055 58.5819-11.6465L83.1921 6.22644L83.1921 34.7846C83.1921 38.5091 86.1927 41.5345 89.9606 41.5345C93.7471 41.5345 96.754 38.5091 96.754 34.7846L96.754 3.2443C96.754 1.33874 96.1909-0.702959 94.6689-2.126L68.4123-26.9534L70.6579-45.5932C70.7384-46.2614 71.7097-46.3418 71.951-45.7169L77.2899-32.9359C78.3911-30.3311 80.8164-28.7657 83.5635-28.7657L110.674-28.7657C114.399-28.7657 117.424-31.7542 117.424-35.5221C117.424-39.3085 114.399-42.2721 110.674-42.2721L87.9872-42.2721L78.9236-63.5854C76.5108-69.2155 72.8357-72.3708 64.6939-74.6599L60.9694-75.7055C52.178-78.1987 46.0468-78.5453 38.8515-75.4456L29.6273-71.48L29.6273-94.6739C29.6273-98.3428 26.54-101.343 22.8773-101.343C19.1094-101.343 16.084-98.3428 16.084-94.6739L16.084-60.4176C16.084-55.5298 21.1326-52.987 25.5191-54.9112L43.1326-62.5764C43.8998-62.8981 44.5741-62.4341 44.4503-61.6237L35.4672 3.91858L20.0869 31.5612C18.305 34.7846 19.4063 39.0722 22.7906 40.7736ZM105.926-52.8386L113.825-52.8386L113.825-108.855C113.825-111.047 112.08-112.817 109.907-112.817C107.715-112.817 105.926-111.047 105.926-108.855ZM101.147-48.2927L118.629-48.2927C121.043-48.2927 122.008-50.3036 121.266-52.4327C119.583-57.3382 115.085-60.772 109.907-60.772C104.648-60.772 100.169-57.3382 98.4674-52.4142C97.768-50.2293 98.7898-48.2927 101.147-48.2927Z"/>
  </g>
  <g id="Medium-L" transform="matrix(1 0 0 1 1678.4 1556)">
   <path d="M66.7141-80.9578C74.287-80.9578 80.5287-87.1771 80.5287-94.8898C80.5287-102.485 74.287-108.727 66.7141-108.727C58.9539-108.727 52.7596-102.485 52.7596-94.8898C52.7596-87.1771 58.9539-80.9578 66.7141-80.9578ZM22.6459 39.7713C25.4179 41.2385 29.5767 40.665 31.5129 37.1826L47.3332 8.65562L56.526-12.0001C56.7539-12.4519 57.381-12.6482 57.8592-12.3294L82.5634 5.62104L82.5634 33.9875C82.5634 37.5833 85.4593 40.5161 89.1025 40.5161C92.7683 40.5161 95.6787 37.5833 95.6787 33.9875L95.6787 2.74757C95.6787 0.890277 95.1277-1.07898 93.662-2.45376L67.5973-27.1053L69.8913-46.1856C69.9718-46.8659 70.9513-46.9463 71.1925-46.3254L76.7011-33.1526C77.7661-30.6324 80.115-29.1192 82.7736-29.1192L109.624-29.1192C113.22-29.1192 116.152-32.0072 116.152-35.6504C116.152-39.3161 113.22-42.1791 109.624-42.1791L87.0443-42.1791L78.0326-63.3888C75.6559-68.9226 72.0652-72.0217 64.0398-74.2706L60.3514-75.3041C51.6562-77.7732 45.6294-78.1079 38.5466-75.0523L29.1888-71.03L29.1888-94.2454C29.1888-97.7977 26.1979-100.694 22.6601-100.694C19.0168-100.694 16.084-97.7977 16.084-94.2454L16.084-60.3176C16.084-55.5988 20.9636-53.1365 25.2133-55.0043L42.8642-62.6901C43.6354-63.0118 44.3421-62.5398 44.2143-61.7092L35.283 3.46623L20.0347 30.8727C18.3172 33.9875 19.3823 38.1343 22.6459 39.7713ZM105.249-52.3949L112.41-52.3949L112.41-108.158C112.41-110.149 110.833-111.751 108.864-111.751C106.874-111.751 105.249-110.149 105.249-108.158ZM100.149-48.116L117.547-48.116C119.819-48.116 120.665-49.998 119.978-51.9665C118.316-56.8153 113.922-60.1648 108.864-60.1648C103.726-60.1648 99.3433-56.8153 97.6704-51.956C97.0313-49.9559 97.8965-48.116 100.149-48.116Z"/>
  </g>
  <g id="Regular-L" transform="matrix(1 0 0 1 1382.53 1556)">
   <path d="M65.6772-80.4755C73.0405-80.4755 79.1197-86.527 79.1197-94.0512C79.1197-101.442 73.0405-107.521 65.6772-107.521C58.1003-107.521 52.0739-101.442 52.0739-94.0512C52.0739-86.527 58.1003-80.4755 65.6772-80.4755ZM22.4572 38.464C25.1085 39.8839 29.0993 39.3209 30.9464 36.0012L46.5576 7.82949L55.7983-12.9538C55.9842-13.3006 56.517-13.4865 56.9165-13.2201L81.7433 4.83139L81.7433 32.9478C81.7433 36.3756 84.5027 39.1878 87.9833 39.1878C91.4916 39.1878 94.2761 36.3756 94.2761 32.9478L94.2761 2.09967C94.2761 0.305322 93.7408-1.56944 92.3485-2.88127L66.5341-27.3034L68.8914-46.9582C68.9718-47.6544 69.962-47.7348 70.2033-47.1191L75.9331-33.4353C76.9509-31.0253 79.2001-29.5803 81.7433-29.5803L108.254-29.5803C111.682-29.5803 114.494-32.3371 114.494-35.8177C114.494-39.326 111.682-42.0577 108.254-42.0577L85.8145-42.0577L76.8705-63.1325C74.5408-68.5406 71.0602-71.5663 63.1867-73.7628L59.5453-74.7806C50.9756-77.2183 45.085-77.5374 38.1489-74.5393L28.6167-70.443L28.6167-93.6865C28.6167-97.0867 25.7518-99.8461 22.3767-99.8461C18.8961-99.8461 16.084-97.0867 16.084-93.6865L16.084-60.1871C16.084-55.6887 20.7432-53.3314 24.8144-55.1258L42.5141-62.8384C43.2906-63.1601 44.0395-62.6776 43.9063-61.8206L35.0427 2.87621L19.9667 29.9748C18.3332 32.9478 19.351 36.9109 22.4572 38.464ZM104.366-51.8162L110.563-51.8162L110.563-107.249C110.563-108.978 109.206-110.36 107.505-110.36C105.776-110.36 104.366-108.978 104.366-107.249ZM98.8473-47.8854L116.135-47.8854C118.223-47.8854 118.912-49.5994 118.299-51.3584C116.663-56.1334 112.405-59.3727 107.505-59.3727C102.524-59.3727 98.2669-56.1334 96.6308-51.3584C96.0704-49.5994 96.7312-47.8854 98.8473-47.8854Z"/>
  </g>
  <g id="Light-L" transform="matrix(1 0 0 1 1087.01 1556)">
   <path d="M64.4939-80.0938C71.6664-80.0938 77.6119-85.9926 77.6119-93.3259C77.6119-100.545 71.6664-106.491 64.4939-106.491C57.1269-106.491 51.215-100.545 51.215-93.3259C51.215-85.9926 57.1269-80.0938 64.4939-80.0938ZM22.3045 36.4028C24.8985 37.8036 28.813 37.2407 30.6028 34.0163L45.8324 6.49352L54.9013-13.8699C55.049-14.1785 55.5054-14.3263 55.8477-14.0981L80.1592 3.59085L80.1592 31.0202C80.1592 34.3717 82.8805 37.1266 86.2656 37.1266C89.6976 37.1266 92.4057 34.3717 92.4057 31.0202L92.4057 0.916379C92.4057-0.839795 91.8895-2.67639 90.5354-3.95004L65.3318-27.7996L67.6509-46.9773C67.7313-47.6544 68.6833-47.7348 68.9245-47.1382L74.5017-33.7789C75.5004-31.4261 77.6923-30.0383 80.1592-30.0383L106.04-30.0383C109.391-30.0383 112.146-32.6997 112.146-36.0849C112.146-39.5169 109.391-42.1913 106.04-42.1913L84.1541-42.1913L75.42-62.7698C73.1476-68.0253 69.7624-70.9747 62.0607-73.133L58.5147-74.1317C50.1359-76.5312 44.3979-76.7931 37.6145-73.8904L28.3305-69.9086L28.3305-92.5987C28.3305-95.9034 25.5419-98.6247 22.2241-98.6247C18.8389-98.6247 16.084-95.9034 16.084-92.5987L16.084-59.9008C16.084-55.5169 20.6287-53.1978 24.6236-54.954L41.8843-62.4949C42.6417-62.8166 43.3524-62.3341 43.2383-61.4962L34.5846 1.67384L19.8713 28.1044C18.2759 31.0202 19.2747 34.8879 22.3045 36.4028ZM102.744-51.9689L107.834-51.9689L107.834-105.532C107.834-106.955 106.706-108.07 105.329-108.07C103.906-108.07 102.744-106.955 102.744-105.532ZM96.6906-47.6564L113.921-47.6564C115.952-47.6564 116.45-49.3322 115.913-50.8622C114.258-55.7135 110.115-58.8574 105.329-58.8574C100.463-58.8574 96.3202-55.7135 94.665-50.8622C94.1619-49.3322 94.6128-47.6564 96.6906-47.6564Z"/>
  </g>
  <g id="Thin-L" transform="matrix(1 0 0 1 791.881 1556)">
   <path d="M62.9289-79.589C69.849-79.589 75.6178-85.2858 75.6178-92.3667C75.6178-99.3588 69.849-105.128 62.9289-105.128C55.8396-105.128 50.0791-99.3588 50.0791-92.3667C50.0791-85.2858 55.8396-79.589 62.9289-79.589ZM22.1025 33.6767C24.6209 35.0522 28.4344 34.4893 30.1485 31.3912L44.8732 4.72659L53.7149-15.0815C53.8122-15.3396 54.1676-15.4369 54.4342-15.2592L78.0642 1.95013L78.0642 28.4707C78.0642 31.7213 80.7349 34.4004 83.9939 34.4004C87.3248 34.4004 89.932 31.7213 89.932 28.4707L89.932-0.648614C89.932-2.3543 89.4411-4.14041 88.1375-5.36359L63.7415-28.4559L66.0102-47.0026C66.0906-47.6544 66.9921-47.7348 67.2333-47.1634L72.6085-34.2332C73.582-31.9562 75.6982-30.6441 78.0642-30.6441L103.112-30.6441C106.362-30.6441 109.042-33.1793 109.042-36.4383C109.042-39.7693 106.362-42.368 103.112-42.368L81.9581-42.368L73.5016-62.2902C71.305-67.3438 68.046-70.1922 60.5714-72.3L57.1516-73.2735C49.0252-75.6225 43.4892-75.8087 36.9077-73.0322L27.9518-69.2019L27.9518-91.1599C27.9518-94.3384 25.2642-97.0092 22.0221-97.0092C18.7632-97.0092 16.084-94.3384 16.084-91.1599L16.084-59.5222C16.084-55.2898 20.4773-53.0211 24.3712-54.7268L41.0513-62.0405C41.7835-62.3622 42.4437-61.8797 42.3549-61.0671L33.9788 0.0836019L19.7451 25.6307C18.2002 28.4707 19.1737 32.2122 22.1025 33.6767ZM100.599-52.1708L104.224-52.1708L104.224-103.26C104.224-104.28 103.399-105.041 102.452-105.041C101.432-105.041 100.599-104.28 100.599-103.26ZM93.8383-47.3535L110.993-47.3535C112.948-47.3535 113.194-48.9788 112.758-50.2059C111.077-55.1582 107.086-58.1759 102.452-58.1759C97.7367-58.1759 93.7455-55.1582 92.0651-50.2059C91.6377-48.9788 91.8109-47.3535 93.8383-47.3535Z"/>
  </g>
  <g id="Ultralight-L" transform="matrix(1 0 0 1 495.978 1556)">
   <path d="M62.1273-79.3304C68.9181-79.3304 74.5965-84.9238 74.5965-91.8754C74.5965-98.7511 68.9181-104.429 62.1273-104.429C55.1802-104.429 49.4973-98.7511 49.4973-91.8754C49.4973-84.9238 55.1802-79.3304 62.1273-79.3304ZM21.9991 32.2804C24.4787 33.643 28.2404 33.0801 29.9158 30.0466L44.3819 3.82158L53.1073-15.702C53.1787-15.9343 53.4824-16.0058 53.7102-15.8539L76.9911 1.10976L76.9911 27.1649C76.9911 30.3638 79.636 33.0041 82.8303 33.0041C86.1095 33.0041 88.665 30.3638 88.665 27.1649L88.665-1.4502C88.665-3.13003 88.187-4.89028 86.9092-6.0876L62.927-28.7921L65.1698-47.0155C65.2502-47.6544 66.1259-47.7348 66.3671-47.1763L71.6389-34.4659C72.5994-32.2277 74.6769-30.9544 76.9911-30.9544L101.612-30.9544C104.811-30.9544 107.451-33.425 107.451-36.6193C107.451-39.8986 104.811-42.4585 101.612-42.4585L80.8333-42.4585L72.519-62.0446C70.3612-66.9947 67.1668-69.7914 59.8086-71.8734L56.4534-72.8339C48.4564-75.1571 43.0238-75.3045 36.5457-72.5926L27.7579-68.8399L27.7579-90.423C27.7579-93.5369 25.122-96.1817 21.9187-96.1817C18.7244-96.1817 16.084-93.5369 16.084-90.423L16.084-59.3283C16.084-55.1734 20.3997-52.9306 24.2419-54.6105L40.6246-61.8078C41.3439-62.1295 41.9783-61.647 41.9024-60.8473L33.6685-0.730909L19.6804 24.3637C18.1614 27.1649 19.122 30.8418 21.9991 32.2804ZM99.4997-52.2742L102.375-52.2742L102.375-102.096C102.375-102.909 101.706-103.49 100.978-103.49C100.165-103.49 99.4997-102.909 99.4997-102.096ZM92.3773-47.1984L109.493-47.1984C111.41-47.1984 111.526-48.7978 111.142-49.8697C109.448-54.8737 105.535-57.8268 100.978-57.8268C96.3404-57.8268 92.4268-54.8737 90.7335-49.8697C90.3448-48.7978 90.3758-47.1984 92.3773-47.1984Z"/>
  </g>
  <g id="Black-M" transform="matrix(1 0 0 1 2877.07 1126)">
   <path d="M56.1114-72.7731C62.8897-72.7731 68.4366-78.3203 68.4366-85.109C68.4366-91.8869 62.8897-97.4338 56.1114-97.4338C49.3173-97.4338 43.7759-91.8869 43.7759-85.109C43.7759-78.3203 49.3173-72.7731 56.1114-72.7731ZM18.3715 28.2624C21.0617 29.6126 25.0397 29.1194 26.9356 25.6966L40.0354 2.16203L46.8761-13.104C47.2348-13.93 48.1341-14.1175 48.8513-13.6393L67.2445-0.32636L67.2445 22.5807C67.2445 26.1226 70.1108 28.9374 73.6582 28.9374C77.2053 28.9374 80.0204 26.1226 80.0204 22.5807L80.0204-3.19303C80.0204-4.91209 79.5269-6.86473 78.0622-8.20996L56.9113-28.1818L58.3813-40.1265C58.4436-40.5733 59.1399-40.6356 59.3268-40.1369L62.5122-32.421C63.5509-29.9748 65.8153-28.5047 68.3864-28.5047L90.5552-28.5047C94.0971-28.5047 96.9118-31.32 96.9118-34.8674C96.9118-38.4145 94.0971-41.2241 90.5552-41.2241L72.598-41.2241L65.3727-58.116C63.3315-62.9364 60.0696-65.6529 53.2033-67.6264L50.1594-68.4937C42.9033-70.5399 37.6521-70.8523 31.5337-68.2497L25.1798-65.5168L25.1798-83.1835C25.1798-86.6115 22.3024-89.4778 18.8231-89.4778C15.2757-89.4778 12.4609-86.6115 12.4609-83.1835L12.4609-55.1763C12.4609-50.5332 17.2287-48.1497 21.3261-49.9258L34.6245-55.6969C35.1907-55.9461 35.5289-55.6293 35.4611-55.115L28.2981-2.91228L15.806 19.5271C14.0973 22.5807 15.136 26.6161 18.3715 28.2624ZM85.1004-51.2749L94.7575-51.2749L94.7575-95.3783C94.7575-98.0357 92.5892-100.21 89.9316-100.21C87.2742-100.21 85.1004-98.0357 85.1004-95.3783ZM82.9169-46.2086L96.8894-46.2086C99.486-46.2086 100.807-48.4364 99.9601-50.859C98.543-54.9854 94.5436-58.0604 89.9316-58.0604C85.2572-58.0604 81.3149-54.9854 79.8407-50.8019C78.9988-48.208 80.5489-46.2086 82.9169-46.2086Z"/>
  </g>
  <g id="Heavy-M" transform="matrix(1 0 0 1 2581.18 1126)">
   <path d="M55.0366-72.2369C61.5872-72.2369 66.9545-77.6019 66.9545-84.1898C66.9545-90.7427 61.5872-96.11 55.0366-96.11C48.4323-96.11 43.0814-90.7427 43.0814-84.1898C43.0814-77.6019 48.4323-72.2369 55.0366-72.2369ZM18.1624 27.0296C20.7102 28.3233 24.4893 27.8435 26.2832 24.6087L39.1972 1.39017L46.1361-14.1296C46.4493-14.8291 47.244-15.0115 47.8727-14.5923L66.5337-1.07197L66.5337 21.6622C66.5337 25.0052 69.2332 27.6776 72.5927 27.6776C75.9544 27.6776 78.6245 25.0052 78.6245 21.6622L78.6245-3.76927C78.6245-5.41584 78.147-7.25558 76.7683-8.52832L55.8069-28.3291L57.3662-41.1127C57.4285-41.5839 58.1467-41.6462 58.3336-41.1501L61.8354-32.7095C62.8176-30.3923 64.9666-28.9973 67.4061-28.9973L89.2749-28.9973C92.6179-28.9973 95.2903-31.6651 95.2903-35.0245C95.2903-38.3862 92.6179-41.0399 89.2749-41.0399L71.3784-41.0399L64.1948-57.8653C62.2016-62.5574 59.0603-65.1963 52.3517-67.1108L49.3476-67.9621C42.2114-69.9762 37.1019-70.2809 31.1387-67.7316L24.5081-64.8793L24.5081-82.7009C24.5081-85.9544 21.7757-88.6539 18.4927-88.6539C15.1333-88.6539 12.4609-85.9544 12.4609-82.7009L12.4609-55.0706C12.4609-50.6854 16.9708-48.4282 20.8558-50.1184L34.3111-55.9608C34.8882-56.21 35.2886-55.8798 35.2099-55.3276L28.0885-3.41023L15.7393 18.778C14.1301 21.6622 15.1123 25.4827 18.1624 27.0296ZM84.3172-50.5004L92.977-50.5004L92.977-94.5823C92.977-96.9697 91.0416-98.9192 88.6564-98.9192C86.269-98.9192 84.3172-96.9697 84.3172-94.5823ZM81.7117-45.9624L95.5553-45.9624C97.9286-45.9624 99.0897-47.9828 98.32-50.1862C96.9408-54.2015 93.0914-57.1559 88.6564-57.1559C84.1591-57.1559 80.3534-54.2015 78.9305-50.1426C78.1772-47.8084 79.5105-45.9624 81.7117-45.9624Z"/>
  </g>
  <g id="Bold-M" transform="matrix(1 0 0 1 2285.4 1126)">
   <path d="M53.8343-71.6371C60.1301-71.6371 65.2965-76.7983 65.2965-83.1617C65.2965-89.4626 60.1301-94.629 53.8343-94.629C47.4423-94.629 42.3045-89.4626 42.3045-83.1617C42.3045-76.7983 47.4423-71.6371 53.8343-71.6371ZM17.9285 25.6505C20.317 26.881 23.8736 26.4163 25.5534 23.3918L38.2594 0.526721L45.3082-15.2768C45.5705-15.835 46.2483-16.0116 46.778-15.6585L65.7386-1.90604L65.7386 20.6347C65.7386 23.7553 68.2515 26.2683 71.4007 26.2683C74.555 26.2683 77.0629 23.7553 77.0629 20.6347L77.0629-4.41388C77.0629-5.97936 76.6034-7.69279 75.3209-8.88444L54.5716-28.4939L56.2306-42.2159C56.293-42.7145 57.0355-42.7768 57.2225-42.2835L61.0782-33.0324C61.9973-30.8594 64.0171-29.5482 66.3095-29.5482L87.8428-29.5482C90.9633-29.5482 93.4764-32.051 93.4764-35.2002C93.4764-38.3545 90.9633-40.8338 87.8428-40.8338L70.0142-40.8338L62.877-57.5849C60.9377-62.1335 57.9312-64.6856 51.3992-66.5341L48.4394-67.3674C41.4374-69.3457 36.4864-69.6418 30.6969-67.152L23.7567-64.1661L23.7567-82.161C23.7567-85.2193 21.1865-87.7323 18.1232-87.7323C14.974-87.7323 12.4609-85.2193 12.4609-82.161L12.4609-54.9524C12.4609-50.8556 16.6823-48.7398 20.3298-50.3338L33.9604-56.256C34.5498-56.5052 35.0198-56.1599 34.9289-55.5653L27.8541-3.96726L15.6647 17.94C14.1667 20.6347 15.0857 24.2148 17.9285 25.6505ZM83.441-49.6339L90.9853-49.6339L90.9853-93.6917C90.9853-95.7772 89.3103-97.4757 87.23-97.4757C85.1446-97.4757 83.441-95.7772 83.441-93.6917ZM80.3635-45.6869L94.0628-45.6869C96.1864-45.6869 97.1682-47.4755 96.4853-49.4335C95.1484-53.3246 91.467-56.1442 87.23-56.1442C82.9307-56.1442 79.2778-53.3246 77.9124-49.405C77.2581-47.3613 78.3489-45.6869 80.3635-45.6869Z"/>
  </g>
  <g id="Semibold-M" transform="matrix(1 0 0 1 1989.32 1126)">
   <path d="M53.0054-71.2235C59.1257-71.2235 64.1536-76.2443 64.1536-82.4529C64.1536-88.5802 59.1257-93.6081 53.0054-93.6081C46.7598-93.6081 41.769-88.5802 41.769-82.4529C41.769-76.2443 46.7598-71.2235 53.0054-71.2235ZM17.7673 24.6997C20.0459 25.8867 23.4492 25.4324 25.0503 22.5528L37.613-0.068533L44.7376-16.0676C44.9647-16.5284 45.5618-16.7011 46.0233-16.3934L65.1904-2.48104L65.1904 19.9264C65.1904 22.8936 67.5747 25.2968 70.579 25.2968C73.5903 25.2968 75.9864 22.8936 75.9864 19.9264L75.9864-4.85827C75.9864-6.36785 75.5392-7.9942 74.323-9.12995L53.72-28.6075L55.4478-42.9765C55.5101-43.4938 56.2696-43.5561 56.4565-43.0648L60.5563-33.2549C61.4317-31.1814 63.3625-29.9281 65.5535-29.9281L86.8555-29.9281C89.8226-29.9281 92.2259-32.3171 92.2259-35.3213C92.2259-38.3326 89.8226-40.6917 86.8555-40.6917L69.0736-40.6917L61.9686-57.3915C60.0663-61.8413 57.1529-64.3335 50.7425-66.1365L47.8134-66.9575C40.9038-68.911 36.0621-69.2012 30.3923-66.7524L23.2388-63.6745L23.2388-81.7888C23.2388-84.7126 20.7804-87.0969 17.8684-87.0969C14.8642-87.0969 12.4609-84.7126 12.4609-81.7888L12.4609-54.8708C12.4609-50.973 16.4834-48.9546 19.9672-50.4824L33.7187-56.4595C34.3165-56.7087 34.8345-56.353 34.7352-55.7292L27.6925-4.35127L15.6133 17.3622C14.192 19.9264 15.0675 23.3407 17.7673 24.6997ZM82.8369-49.0366L89.6122-49.0366L89.6122-93.0778C89.6122-94.955 88.1167-96.4805 86.2466-96.4805C84.3694-96.4805 82.8369-94.955 82.8369-93.0778ZM79.434-45.4969L93.0339-45.4969C94.9854-45.4969 95.8435-47.1258 95.2204-48.9146C93.9128-52.7201 90.3471-55.4466 86.2466-55.4466C82.0839-55.4466 78.5363-52.7201 77.2105-48.8965C76.6245-47.0532 77.5481-45.4969 79.434-45.4969Z"/>
  </g>
  <g id="Medium-M" transform="matrix(1 0 0 1 1693.1 1126)">
   <path d="M52.3769-70.91C58.364-70.91 63.2869-75.8243 63.2869-81.9154C63.2869-87.9111 58.364-92.834 52.3769-92.834C46.2424-92.834 41.3629-87.9111 41.3629-81.9154C41.3629-75.8243 46.2424-70.91 52.3769-70.91ZM17.645 23.9788C19.8403 25.1328 23.1273 24.6864 24.6688 21.9167L37.1228-0.519879L44.3048-16.6673C44.5054-17.0541 45.0414-17.2239 45.4511-16.9507L64.7748-2.91704L64.7748 19.3893C64.7748 22.2402 67.0616 24.5601 69.9559 24.5601C72.8588 24.5601 75.1701 22.2402 75.1701 19.3893L75.1701-5.19522C75.1701-6.66242 74.7323-8.22275 73.5664-9.31611L53.0742-28.6937L54.8542-43.5532C54.9165-44.0848 55.6887-44.1471 55.8757-43.6572L60.1605-33.4236C61.0029-31.4255 62.8662-30.2161 64.9803-30.2161L86.1068-30.2161C88.9577-30.2161 91.2777-32.5189 91.2777-35.4132C91.2777-38.3161 88.9577-40.584 86.1068-40.584L68.3605-40.584L61.2798-57.2449C59.4056-61.6197 56.5627-64.0665 50.2445-65.835L47.3387-66.6466C40.4992-68.5814 35.7404-68.8671 30.1613-66.4494L22.846-63.3017L22.846-81.5066C22.846-84.3284 20.4724-86.6151 17.6752-86.6151C14.7809-86.6151 12.4609-84.3284 12.4609-81.5066L12.4609-54.809C12.4609-51.0619 16.3326-49.1175 19.6922-50.595L33.5354-56.6138C34.1396-56.863 34.694-56.4995 34.5883-55.8535L27.5699-4.64244L15.5743 16.9242C14.2111 19.3893 15.0536 22.678 17.645 23.9788ZM82.3789-48.5837L88.5711-48.5837L88.5711-92.6124C88.5711-94.3317 87.2117-95.7259 85.501-95.7259C83.7817-95.7259 82.3789-94.3317 82.3789-92.6124ZM78.7293-45.3529L92.2538-45.3529C94.0747-45.3529 94.8391-46.8606 94.2614-48.5212C92.9758-52.2618 89.4979-54.9178 85.501-54.9178C81.4418-54.9178 77.9741-52.2618 76.6783-48.5109C76.144-46.8195 76.9409-45.3529 78.7293-45.3529Z"/>
  </g>
  <g id="Regular-M" transform="matrix(1 0 0 1 1397.02 1126)">
   <path d="M51.5572-70.501C57.3706-70.501 62.1565-75.2763 62.1565-81.2144C62.1565-87.0384 57.3706-91.8243 51.5572-91.8243C45.5674-91.8243 40.8332-87.0384 40.8332-81.2144C40.8332-75.2763 45.5674-70.501 51.5572-70.501ZM17.4855 23.0385C19.5722 24.1494 22.7076 23.7133 24.1712 21.087L36.4834-1.10859L43.7404-17.4495C43.9062-17.7399 44.3625-17.9057 44.7046-17.6776L64.2327-3.48572L64.2327 18.6887C64.2327 21.3879 66.3922 23.5993 69.1432 23.5993C71.9047 23.5993 74.1055 21.3879 74.1055 18.6887L74.1055-5.63473C74.1055-7.04664 73.6799-8.52085 72.5795-9.55892L52.232-28.8061L54.08-44.3054C54.1423-44.8556 54.9312-44.9179 55.1181-44.43L59.6442-33.6437C60.4436-31.7439 62.2188-30.5918 64.2327-30.5918L85.1304-30.5918C87.8296-30.5918 90.0409-32.782 90.0409-35.533C90.0409-38.2945 87.8296-40.4435 85.1304-40.4435L67.4303-40.4435L60.3813-57.0537C58.5438-61.3306 55.7929-63.7183 49.5951-65.4418L46.7195-66.2412C39.9715-68.1515 35.3207-68.4314 29.86-66.0543L22.3337-62.8154L22.3337-81.1385C22.3337-83.8272 20.0707-85.9867 17.4232-85.9867C14.6723-85.9867 12.4609-83.8272 12.4609-81.1385L12.4609-54.7284C12.4609-51.178 16.1359-49.33 19.3336-50.7419L33.2963-56.8151C33.9088-57.0643 34.5108-56.6905 34.3967-56.0157L27.4101-5.02223L15.5234 16.3528C14.2361 18.6887 15.0355 21.8135 17.4855 23.0385ZM81.7815-47.9929L87.2131-47.9929L87.2131-92.0052C87.2131-93.5186 86.0313-94.7416 84.5284-94.7416C83.015-94.7416 81.7815-93.5186 81.7815-92.0052ZM77.8101-45.1651L91.2362-45.1651C92.8868-45.1651 93.529-46.5147 93.0104-48.008C91.7538-51.6639 88.3903-54.2279 84.5284-54.2279C80.6042-54.2279 77.2408-51.6639 75.9841-48.008C75.5174-46.5147 76.149-45.1651 77.8101-45.1651Z"/>
  </g>
  <g id="Light-M" transform="matrix(1 0 0 1 1101.37 1126)">
   <path d="M50.4963-70.1588C56.1386-70.1588 60.8047-74.7972 60.8047-80.5642C60.8047-86.2342 56.1386-90.9003 50.4963-90.9003C44.6947-90.9003 40.0632-86.2342 40.0632-80.5642C40.0632-74.7972 44.6947-70.1588 50.4963-70.1588ZM17.3486 21.1905C19.384 22.2844 22.4509 21.8482 23.8632 19.3074L35.8332-2.30636L42.9362-18.2708C43.0678-18.527 43.4556-18.6586 43.7464-18.4647L62.8125-4.59793L62.8125 16.9605C62.8125 19.5913 64.9378 21.7513 67.6032 21.7513C70.2963 21.7513 72.4286 19.5913 72.4286 16.9605L72.4286-6.69561C72.4286-8.07329 72.0201-9.51328 70.9539-10.5171L51.154-29.2509L52.9678-44.3225C53.0301-44.8556 53.7847-44.9179 53.9716-44.4471L58.3609-33.9517C59.1432-32.1033 60.867-31.0025 62.8125-31.0025L83.1455-31.0025C85.7763-31.0025 87.9362-33.1071 87.9362-35.7725C87.9362-38.4656 85.7763-40.5633 83.1455-40.5633L65.9417-40.5633L59.0809-56.7286C57.2947-60.8687 54.6293-63.1879 48.5855-64.8771L45.7955-65.6594C39.2186-67.5355 34.7048-67.7641 29.3809-65.4725L22.0771-62.3363L22.0771-80.1632C22.0771-82.7663 19.8824-84.8916 17.2863-84.8916C14.6209-84.8916 12.4609-82.7663 12.4609-80.1632L12.4609-54.4717C12.4609-51.024 16.0332-49.2102 19.1624-50.5879L32.7317-56.5071C33.3271-56.7563 33.8948-56.3825 33.7978-55.7248L26.9994-6.10022L15.4379 14.6759C14.1848 16.9605 14.9671 19.9998 17.3486 21.1905ZM80.3271-48.1298L84.7662-48.1298L84.7662-90.4652C84.7662-91.7048 83.7898-92.6883 82.5778-92.6883C81.3381-92.6883 80.3271-91.7048 80.3271-90.4652ZM75.8765-44.9598L89.2514-44.9598C90.8506-44.9598 91.3216-46.2751 90.8715-47.5631C89.5978-51.2874 86.337-53.7659 82.5778-53.7659C78.7563-53.7659 75.4955-51.2874 74.2217-47.5631C73.8063-46.2751 74.2496-44.9598 75.8765-44.9598Z"/>
  </g>
  <g id="Thin-M" transform="matrix(1 0 0 1 806.077 1126)">
   <path d="M49.0932-69.7062C54.5092-69.7062 59.0169-74.1636 59.0169-79.7042C59.0169-85.1705 54.5092-89.6782 49.0932-89.6782C43.5405-89.6782 39.0448-85.1705 39.0448-79.7042C39.0448-74.1636 43.5405-69.7062 49.0932-69.7062ZM17.1676 18.7464C19.1351 19.8176 22.1114 19.3815 23.4559 16.9538L34.9733-3.8905L41.8726-19.3571C41.9589-19.568 42.2562-19.6544 42.4791-19.5057L60.9341-6.06892L60.9341 14.6748C60.9341 17.2151 63.0142 19.3072 65.5664 19.3072C68.169 19.3072 70.2108 17.2151 70.2108 14.6748L70.2108-8.09871C70.2108-9.43113 69.8249-10.8259 68.804-11.7845L49.7282-29.8393L51.4968-44.3451C51.5591-44.8556 52.2685-44.9179 52.4554-44.4697L56.6636-34.3591C57.4233-32.5785 59.0792-31.5456 60.9341-31.5456L80.5204-31.5456C83.0606-31.5456 85.1527-33.5371 85.1527-36.0893C85.1527-38.6919 83.0606-40.7217 80.5204-40.7217L63.9728-40.7217L57.361-56.2986C55.6427-60.2576 53.0905-62.4863 47.2503-64.1303L44.5735-64.89C38.2229-66.7208 33.8901-66.8815 28.7473-64.703L21.7376-61.7026L21.7376-78.8733C21.7376-81.3632 19.6335-83.4433 17.1053-83.4433C14.553-83.4433 12.4609-81.3632 12.4609-78.8733L12.4609-54.1322C12.4609-50.8203 15.8975-49.0518 18.9361-50.3842L31.9849-56.0997C32.5576-56.3489 33.0801-55.9751 33.0058-55.34L26.4563-7.52595L15.3247 12.4581C14.1169 14.6748 14.8766 17.6009 17.1676 18.7464ZM78.4035-48.3108L81.53-48.3108L81.53-88.4285C81.53-89.306 80.8251-89.9726 79.9979-89.9726C79.1204-89.9726 78.4035-89.306 78.4035-88.4285ZM73.3193-44.6882L86.6262-44.6882C88.1576-44.6882 88.4023-45.9583 88.0427-46.9747C86.7463-50.7896 83.6213-53.1549 79.9979-53.1549C76.3122-53.1549 73.1871-50.7896 71.8908-46.9747C71.5432-45.9583 71.7376-44.6882 73.3193-44.6882Z"/>
  </g>
  <g id="Ultralight-M" transform="matrix(1 0 0 1 510.09 1126)">
   <path d="M48.3745-69.4743C53.6746-69.4743 58.1012-73.839 58.1012-79.2637C58.1012-84.6257 53.6746-89.0523 48.3745-89.0523C42.9494-89.0523 38.5232-84.6257 38.5232-79.2637C38.5232-73.839 42.9494-69.4743 48.3745-69.4743ZM17.0749 17.4946C19.0076 18.5542 21.9376 18.118 23.2472 15.7484L34.5328-4.70189L41.3278-19.9135C41.3909-20.1012 41.6418-20.1644 41.83-20.0389L59.972-6.82235L59.972 13.5041C59.972 15.998 62.0289 18.0553 64.5232 18.0553C67.0794 18.0553 69.0748 15.998 69.0748 13.5041L69.0748-8.81737C69.0748-10.1266 68.7006-11.4982 67.7029-12.4336L48.998-30.1407L50.7434-44.3567C50.8057-44.8556 51.4919-44.9179 51.6788-44.4813L55.7943-34.5677C56.5423-32.8219 58.1635-31.8238 59.972-31.8238L79.1758-31.8238C81.6696-31.8238 83.727-33.7573 83.727-36.2516C83.727-38.8078 81.6696-40.8028 79.1758-40.8028L62.9643-40.8028L56.48-56.0784C54.7965-59.9447 52.3022-62.127 46.5664-63.7478L43.9475-64.4959C37.7129-66.3035 33.4728-66.4294 28.4227-64.3089L21.5637-61.3781L21.5637-78.2126C21.5637-80.6445 19.506-82.7014 17.0125-82.7014C14.5183-82.7014 12.4609-80.6445 12.4609-78.2126L12.4609-53.9584C12.4609-50.716 15.8279-48.9706 18.8202-50.2799L31.6024-55.8911C32.1635-56.1403 32.6628-55.7665 32.6001-55.143L26.1781-8.2562L15.2668 11.3222C14.0821 13.5041 14.8302 16.3722 17.0749 17.4946ZM77.4182-48.4036L79.8725-48.4036L79.8725-87.3852C79.8725-88.0773 79.3067-88.5817 78.6765-88.5817C77.9844-88.5817 77.4182-88.0773 77.4182-87.3852ZM72.0095-44.5491L85.2816-44.5491C86.7782-44.5491 86.907-45.796 86.5938-46.6733C85.2858-50.5346 82.2304-52.8419 78.6765-52.8419C75.0603-52.8419 72.0048-50.5346 70.6969-46.6733C70.3841-45.796 70.451-44.5491 72.0095-44.5491Z"/>
  </g>
  <g id="Black-S" transform="matrix(1 0 0 1 2889.06 696)">
   <path d="M44.2383-64.7949C49.6094-64.7949 54.0039-69.1895 54.0039-74.5605C54.0039-79.9316 49.6094-84.3262 44.2383-84.3262C38.8672-84.3262 34.4727-79.9316 34.4727-74.5605C34.4727-69.1895 38.8672-64.7949 44.2383-64.7949ZM14.4531 14.7949C16.6016 15.8691 19.7754 15.4785 21.2891 12.7441L31.5918-5.76172L36.9141-17.627C37.207-18.3105 37.9395-18.457 38.5254-18.0664L52.832-7.71484L52.832 10.2539C52.832 13.0859 55.127 15.332 57.959 15.332C60.791 15.332 63.0371 13.0859 63.0371 10.2539L63.0371-10.0098C63.0371-11.377 62.6465-12.9395 61.4746-14.0137L44.873-29.6875L45.9961-38.7695C46.0449-39.1113 46.582-39.1602 46.7285-38.7695L49.1211-32.959C49.9512-31.0059 51.7578-29.834 53.8086-29.834L71.2402-29.834C74.0723-29.834 76.3184-32.0801 76.3184-34.9121C76.3184-37.7441 74.0723-39.9902 71.2402-39.9902L57.1777-39.9902L51.5137-53.2227C49.9023-57.0312 47.3145-59.1797 41.8945-60.7422L39.502-61.4258C33.7891-63.0371 29.6387-63.2812 24.8047-61.2305L19.9219-59.1309L19.9219-72.9004C19.9219-75.6348 17.627-77.9297 14.8438-77.9297C12.0117-77.9297 9.76562-75.6348 9.76562-72.9004L9.76562-50.8789C9.76562-47.168 13.5742-45.2637 16.8457-46.6797L27.1973-51.1719C27.6367-51.3672 27.8809-51.123 27.832-50.7324L22.2168-9.81445L12.4023 7.8125C11.0352 10.2539 11.8652 13.4766 14.4531 14.7949ZM66.8457-48.0469L74.6582-48.0469L74.6582-82.5195C74.6582-84.668 72.9004-86.4258 70.752-86.4258C68.6035-86.4258 66.8457-84.668 66.8457-82.5195ZM65.2344-43.8965L76.2207-43.8965C78.3203-43.8965 79.3945-45.7031 78.7109-47.6562C77.5879-50.9277 74.4141-53.3691 70.752-53.3691C67.041-53.3691 63.916-50.9277 62.7441-47.6074C62.0605-45.5078 63.3301-43.8965 65.2344-43.8965Z"/>
  </g>
  <g id="Heavy-S" transform="matrix(1 0 0 1 2592.92 696)">
   <path d="M43.4546-64.38C48.6528-64.38 52.9091-68.6363 52.9091-73.8576C52.9091-79.0558 48.6528-83.312 43.4546-83.312C38.2218-83.312 33.9771-79.0558 33.9771-73.8576C33.9771-68.6363 38.2218-64.38 43.4546-64.38ZM14.2918 13.9767C16.325 15.0048 19.3375 14.6257 20.7705 12.0411L30.958-6.2688L36.3839-18.3991C36.6423-18.979 37.2941-19.1255 37.8109-18.7809L52.4056-8.2104L52.4056 9.68921C52.4056 12.3599 54.5623 14.4907 57.2445 14.4907C59.9267 14.4907 62.0575 12.3599 62.0575 9.68921L62.0575-10.367C62.0575-11.6766 61.6784-13.1469 60.5757-14.1635L44.0663-29.7566L45.2701-39.6108C45.3189-39.9757 45.879-40.0245 46.0255-39.6339L48.7062-33.1664C49.4902-31.317 51.2046-30.2028 53.1517-30.2028L70.3989-30.2028C73.0696-30.2028 75.2005-32.3336 75.2005-35.0158C75.2005-37.698 73.0696-39.8174 70.3989-39.8174L56.3249-39.8174L50.6724-53.0498C49.0956-56.7662 46.5999-58.857 41.2953-60.3734L38.9257-61.0455C33.2935-62.6338 29.2468-62.8779 24.5281-60.8617L19.3802-58.6468L19.3802-72.6123C19.3802-75.2084 17.2005-77.365 14.5787-77.365C11.8965-77.365 9.76562-75.2084 9.76562-72.6123L9.76562-50.8213C9.76562-47.3178 13.3668-45.5172 16.4654-46.8641L27.0013-51.4369C27.4523-51.6323 27.7541-51.3766 27.6937-50.9514L22.09-10.1026L12.3562 7.38609C11.0697 9.68921 11.8537 12.739 14.2918 13.9767ZM66.3617-47.3669L73.4481-47.3669L73.4481-82.0355C73.4481-83.988 71.8632-85.5845 69.9107-85.5845C67.9581-85.5845 66.3617-83.988 66.3617-82.0355ZM64.4507-43.7121L75.3333-43.7121C77.2485-43.7121 78.2075-45.3459 77.5815-47.1376C76.4931-50.3054 73.4345-52.6546 69.9107-52.6546C66.338-52.6546 63.3167-50.3054 62.191-47.1003C61.5765-45.1967 62.6847-43.7121 64.4507-43.7121Z"/>
  </g>
  <g id="Bold-S" transform="matrix(1 0 0 1 2296.85 696)">
   <path d="M42.5781-63.916C47.583-63.916 51.6846-68.0176 51.6846-73.0713C51.6846-78.0762 47.583-82.1777 42.5781-82.1777C37.5-82.1777 33.4229-78.0762 33.4229-73.0713C33.4229-68.0176 37.5-63.916 42.5781-63.916ZM14.1113 13.0615C16.0156 14.0381 18.8477 13.6719 20.1904 11.2549L30.249-6.83594L35.791-19.2627C36.0107-19.7266 36.5723-19.873 37.0117-19.5801L51.9287-8.76465L51.9287 9.05762C51.9287 11.5479 53.9307 13.5498 56.4453 13.5498C58.96 13.5498 60.9619 11.5479 60.9619 9.05762L60.9619-10.7666C60.9619-12.0117 60.5957-13.3789 59.5703-14.3311L43.1641-29.834L44.458-40.5518C44.5068-40.9424 45.0928-40.9912 45.2393-40.6006L48.2422-33.3984C48.9746-31.665 50.5859-30.6152 52.417-30.6152L69.458-30.6152C71.9482-30.6152 73.9502-32.6172 73.9502-35.1318C73.9502-37.6465 71.9482-39.624 69.458-39.624L55.3711-39.624L49.7314-52.8564C48.1934-56.4697 45.8008-58.4961 40.625-59.9609L38.2812-60.6201C32.7393-62.1826 28.8086-62.4268 24.2188-60.4492L18.7744-58.1055L18.7744-72.29C18.7744-74.7314 16.7236-76.7334 14.2822-76.7334C11.7676-76.7334 9.76562-74.7314 9.76562-72.29L9.76562-50.7568C9.76562-47.4854 13.1348-45.8008 16.04-47.0703L26.7822-51.7334C27.2461-51.9287 27.6123-51.6602 27.5391-51.1963L21.9482-10.4248L12.3047 6.90918C11.1084 9.05762 11.8408 11.9141 14.1113 13.0615ZM65.8203-46.6064L72.0947-46.6064L72.0947-81.4941C72.0947-83.2275 70.7031-84.6436 68.9697-84.6436C67.2363-84.6436 65.8203-83.2275 65.8203-81.4941ZM63.5742-43.5059L74.3408-43.5059C76.0498-43.5059 76.8799-44.9463 76.3184-46.5576C75.2686-49.6094 72.3389-51.8555 68.9697-51.8555C65.5518-51.8555 62.6465-49.6094 61.5723-46.5332C61.0352-44.8486 61.9629-43.5059 63.5742-43.5059Z"/>
  </g>
  <g id="Semibold-S" transform="matrix(1 0 0 1 2000.58 696)">
   <path d="M41.9738-63.5961C46.8454-63.5961 50.8403-67.591 50.8403-72.5292C50.8403-77.4008 46.8454-81.3957 41.9738-81.3957C37.0023-81.3957 33.0407-77.4008 33.0407-72.5292C33.0407-67.591 37.0023-63.5961 41.9738-63.5961ZM13.9869 12.4306C15.8023 13.3716 18.51 13.0143 19.7905 10.7128L29.7603-7.22695L35.3822-19.8581C35.5753-20.242 36.0746-20.3885 36.4607-20.1311L51.5999-9.14678L51.5999 8.62217C51.5999 10.988 53.4952 12.9011 55.8943 12.9011C58.2935 12.9011 60.2065 10.988 60.2065 8.62217L60.2065-11.0421C60.2065-12.2428 59.8492-13.5389 58.8771-14.4466L42.542-29.8873L43.8981-41.2005C43.947-41.6089 44.5507-41.6577 44.6972-41.2671L47.9223-33.5584C48.6191-31.905 50.1594-30.8996 51.9104-30.8996L68.8093-30.8996C71.1751-30.8996 73.0882-32.8127 73.0882-35.2118C73.0882-37.6109 71.1751-39.4907 68.8093-39.4907L54.7135-39.4907L49.0827-52.7231C47.5713-56.2653 45.2498-58.2473 40.1629-59.6766L37.8369-60.3269C32.3571-61.8716 28.5064-62.1157 24.0055-60.1648L18.3567-57.7322L18.3567-72.0679C18.3567-74.4026 16.3948-76.2979 14.0778-76.2979C11.6787-76.2979 9.76562-74.4026 9.76562-72.0679L9.76562-50.7124C9.76562-47.6009 12.9748-45.9963 15.7468-47.2125L26.6312-51.9378C27.1039-52.1331 27.5146-51.8557 27.4324-51.3651L21.8505-10.647L12.2691 6.58037C11.1351 8.62217 11.8319 11.3453 13.9869 12.4306ZM65.4471-46.0821L71.1616-46.0821L71.1616-81.1209C71.1616-82.7032 69.9033-83.9948 68.321-83.9948C66.7387-83.9948 65.4471-82.7032 65.4471-81.1209ZM62.9699-43.3637L73.6565-43.3637C75.2233-43.3637 75.9646-44.6708 75.4475-46.1577C74.4243-49.1295 71.5835-51.3045 68.321-51.3045C65.0097-51.3045 62.1844-49.1295 61.1457-46.1422C60.6619-44.6087 61.4652-43.3637 62.9699-43.3637Z"/>
  </g>
  <g id="Medium-S" transform="matrix(1 0 0 1 1704.2 696)">
   <path d="M41.5156-63.3535C46.2861-63.3535 50.2002-67.2676 50.2002-72.1182C50.2002-76.8887 46.2861-80.8027 41.5156-80.8027C36.625-80.8027 32.751-76.8887 32.751-72.1182C32.751-67.2676 36.625-63.3535 41.5156-63.3535ZM13.8926 11.9521C15.6406 12.8662 18.2539 12.5156 19.4873 10.3018L29.3896-7.52344L35.0723-20.3096C35.2451-20.6328 35.6973-20.7793 36.043-20.5488L51.3506-9.43652L51.3506 8.29199C51.3506 10.5635 53.165 12.4092 55.4766 12.4092C57.7881 12.4092 59.6338 10.5635 59.6338 8.29199L59.6338-11.251C59.6338-12.418 59.2832-13.6602 58.3516-14.5342L42.0703-29.9277L43.4736-41.6924C43.5225-42.1143 44.1396-42.1631 44.2861-41.7725L47.6797-33.6797C48.3496-32.0869 49.8359-31.1152 51.5264-31.1152L68.3174-31.1152C70.5889-31.1152 72.4346-32.9609 72.4346-35.2725C72.4346-37.584 70.5889-39.3896 68.3174-39.3896L54.2148-39.3896L48.5908-52.6221C47.0996-56.1104 44.832-58.0586 39.8125-59.4609L37.5-60.1045C32.0674-61.6357 28.2773-61.8799 23.8438-59.9492L18.04-57.4492L18.04-71.8994C18.04-74.1533 16.1455-75.9678 13.9229-75.9678C11.6113-75.9678 9.76562-74.1533 9.76562-71.8994L9.76562-50.6787C9.76562-47.6885 12.8535-46.1445 15.5244-47.3203L26.5166-52.0928C26.9961-52.2881 27.4404-52.0039 27.3516-51.4932L21.7764-10.8154L12.2422 6.33105C11.1553 8.29199 11.8252 10.9141 13.8926 11.9521ZM65.1641-45.6846L70.4541-45.6846L70.4541-80.8379C70.4541-82.3057 69.2969-83.5029 67.8291-83.5029C66.3613-83.5029 65.1641-82.3057 65.1641-80.8379ZM62.5117-43.2559L73.1377-43.2559C74.5967-43.2559 75.2705-44.4619 74.7871-45.8545C73.7842-48.7656 71.0107-50.8867 67.8291-50.8867C64.5986-50.8867 61.834-48.7656 60.8223-45.8457C60.3789-44.4268 61.0879-43.2559 62.5117-43.2559Z"/>
  </g>
  <g id="Regular-S" transform="matrix(1 0 0 1 1407.93 696)">
   <path d="M40.918-63.0371C45.5566-63.0371 49.3652-66.8457 49.3652-71.582C49.3652-76.2207 45.5566-80.0293 40.918-80.0293C36.1328-80.0293 32.373-76.2207 32.373-71.582C32.373-66.8457 36.1328-63.0371 40.918-63.0371ZM13.7695 11.3281C15.4297 12.207 17.9199 11.8652 19.0918 9.76562L28.9062-7.91016L34.668-20.8984C34.8145-21.1426 35.2051-21.2891 35.498-21.0938L51.0254-9.81445L51.0254 7.86133C51.0254 10.0098 52.7344 11.7676 54.9316 11.7676C57.1289 11.7676 58.8867 10.0098 58.8867 7.86133L58.8867-11.5234C58.8867-12.6465 58.5449-13.8184 57.666-14.6484L41.4551-29.9805L42.9199-42.334C42.9688-42.7734 43.6035-42.8223 43.75-42.4316L47.3633-33.8379C47.998-32.3242 49.4141-31.3965 51.0254-31.3965L67.6758-31.3965C69.8242-31.3965 71.582-33.1543 71.582-35.3516C71.582-37.5488 69.8242-39.2578 67.6758-39.2578L53.5645-39.2578L47.9492-52.4902C46.4844-55.9082 44.2871-57.8125 39.3555-59.1797L37.0605-59.8145C31.6895-61.3281 27.9785-61.5723 23.6328-59.668L17.627-57.0801L17.627-71.6797C17.627-73.8281 15.8203-75.5371 13.7207-75.5371C11.5234-75.5371 9.76562-73.8281 9.76562-71.6797L9.76562-50.6348C9.76562-47.8027 12.6953-46.3379 15.2344-47.4609L26.3672-52.2949C26.8555-52.4902 27.3438-52.1973 27.2461-51.6602L21.6797-11.0352L12.207 6.00586C11.1816 7.86133 11.8164 10.3516 13.7695 11.3281ZM64.7949-45.166L69.5312-45.166L69.5312-80.4688C69.5312-81.7871 68.5059-82.8613 67.1875-82.8613C65.8691-82.8613 64.7949-81.7871 64.7949-80.4688ZM61.9141-43.1152L72.4609-43.1152C73.7793-43.1152 74.3652-44.1895 73.9258-45.459C72.9492-48.291 70.2637-50.3418 67.1875-50.3418C64.0625-50.3418 61.377-48.291 60.4004-45.459C60.0098-44.1895 60.5957-43.1152 61.9141-43.1152Z"/>
  </g>
  <g id="Light-S" transform="matrix(1 0 0 1 1112.16 696)">
   <path d="M39.9795-62.7344C44.4668-62.7344 48.1694-66.4219 48.1694-71.0068C48.1694-75.5093 44.4668-79.2119 39.9795-79.2119C35.3608-79.2119 31.6919-75.5093 31.6919-71.0068C31.6919-66.4219 35.3608-62.7344 39.9795-62.7344ZM13.6484 9.69337C15.2632 10.5571 17.6929 10.2153 18.8193 8.19142L28.3311-8.96972L33.9565-21.625C34.0728-21.8389 34.4028-21.9551 34.6504-21.79L49.7691-10.7983L49.7691 6.33253C49.7691 8.42042 51.4478 10.1328 53.5693 10.1328C55.7061 10.1328 57.4033 8.42042 57.4033 6.33253L57.4033-12.4619C57.4033-13.5547 57.0767-14.6963 56.228-15.4961L40.5015-30.374L41.936-42.3491C41.9849-42.7734 42.5894-42.8223 42.7358-42.4468L46.228-34.1103C46.8477-32.6421 48.2183-31.7598 49.7691-31.7598L65.9199-31.7598C68.0078-31.7598 69.7202-33.4419 69.7202-35.5635C69.7202-37.7002 68.0078-39.3638 65.9199-39.3638L52.2476-39.3638L46.7988-52.2026C45.3794-55.4995 43.2578-57.3433 38.4624-58.6802L36.2432-59.2998C31.0234-60.7832 27.4336-60.9819 23.209-59.1533L17.3999-56.6563L17.3999-70.8169C17.3999-72.8897 15.6538-74.5684 13.5996-74.5684C11.478-74.5684 9.76562-72.8897 9.76562-70.8169L9.76562-50.4077C9.76562-47.6665 12.6045-46.2319 15.083-47.3247L25.8677-52.0225C26.3408-52.2178 26.7988-51.9248 26.7163-51.4028L21.3164-11.9888L12.1313 4.52247C11.1362 6.33253 11.7559 8.74708 13.6484 9.69337ZM63.5083-45.2871L67.3667-45.2871L67.3667-79.1065C67.3667-80.1826 66.523-81.0449 65.4619-81.0449C64.3858-81.0449 63.5083-80.1826 63.5083-79.1065ZM60.2036-42.9336L70.7051-42.9336C71.978-42.9336 72.4126-43.9775 72.0337-45.0654C71.042-47.958 68.4473-49.9331 65.4619-49.9331C62.4277-49.9331 59.833-47.958 58.8413-45.0654C58.4961-43.9775 58.9155-42.9336 60.2036-42.9336Z"/>
  </g>
  <g id="Thin-S" transform="matrix(1 0 0 1 816.701 696)">
   <path d="M38.7383-62.334C43.0254-62.334 46.5879-65.8613 46.5879-70.2461C46.5879-74.5684 43.0254-78.1309 38.7383-78.1309C34.3399-78.1309 30.791-74.5684 30.791-70.2461C30.791-65.8613 34.3399-62.334 38.7383-62.334ZM13.4883 7.53128C15.043 8.37503 17.3926 8.03323 18.459 6.1094L27.5703-10.3711L33.0156-22.5859C33.0918-22.7598 33.3418-22.8359 33.5293-22.7109L48.1074-12.0996L48.1074 4.31057C48.1074 6.31839 49.7461 7.97073 51.7676 7.97073C53.8242 7.97073 55.4414 6.31839 55.4414 4.31057L55.4414-13.7031C55.4414-14.7558 55.1348-15.8574 54.3262-16.6172L39.2403-30.8945L40.6348-42.3691C40.6836-42.7734 41.2481-42.8223 41.3945-42.4668L44.7266-34.4707C45.3262-33.0625 46.6367-32.2402 48.1074-32.2402L63.5977-32.2402C65.6055-32.2402 67.2578-33.8223 67.2578-35.8437C67.2578-37.9004 65.6055-39.5039 63.5977-39.5039L50.5059-39.5039L45.2774-51.8223C43.918-54.959 41.8965-56.7227 37.2813-58.0195L35.1621-58.6192C30.1426-60.0625 26.7129-60.2012 22.6484-58.4727L17.0996-56.0957L17.0996-69.6758C17.0996-71.6485 15.4336-73.2871 13.4395-73.2871C11.418-73.2871 9.76562-71.6485 9.76562-69.6758L9.76562-50.1074C9.76562-47.4863 12.4844-46.0918 14.8828-47.1445L25.207-51.6621C25.6602-51.8574 26.0781-51.5645 26.0156-51.0625L20.8359-13.25L12.0313 2.56057C11.0762 4.31057 11.6758 6.62503 13.4883 7.53128ZM61.8067-45.4473L64.5039-45.4473L64.5039-77.3047C64.5039-78.0606 63.9004-78.6426 63.1797-78.6426C62.4239-78.6426 61.8067-78.0606 61.8067-77.3047ZM57.9414-42.6934L68.3828-42.6934C69.5957-42.6934 69.8301-43.6973 69.5313-44.5449C68.5196-47.5176 66.045-49.3926 63.1797-49.3926C60.2657-49.3926 57.791-47.5176 56.7793-44.5449C56.4942-43.6973 56.6934-42.6934 57.9414-42.6934Z"/>
  </g>
  <g id="Ultralight-S" transform="matrix(1 0 0 1 520.63 696)">
   <path d="M38.1026-62.1289C42.2871-62.1289 45.7779-65.5742 45.7779-69.8565C45.7779-74.0864 42.2871-77.5772 38.1026-77.5772C33.8169-77.5772 30.3296-74.0864 30.3296-69.8565C30.3296-65.5742 33.8169-62.1289 38.1026-62.1289ZM13.4063 6.42387C14.9302 7.25736 17.2388 6.91557 18.2744 5.04301L27.1807-11.0888L32.5337-23.0781C32.5894-23.2314 32.7984-23.2871 32.9551-23.1826L47.2564-12.7661L47.2564 3.27494C47.2564 5.24174 48.8745 6.86332 50.8448 6.86332C52.8604 6.86332 54.4366 5.24174 54.4366 3.27494L54.4366-14.3388C54.4366-15.3711 54.1402-16.4521 53.3521-17.1914L38.5943-31.1611L39.9683-42.3794C40.0171-42.7734 40.5611-42.8223 40.7075-42.4771L43.9575-34.6553C44.5469-33.2778 45.8267-32.4863 47.2564-32.4863L62.4082-32.4863C64.375-32.4863 65.9966-34.0171 65.9966-35.9873C65.9966-38.0029 64.375-39.5757 62.4082-39.5757L49.6138-39.5757L44.4981-51.6274C43.1695-54.6821 41.1992-56.4048 36.6763-57.6812L34.6084-58.2705C29.6914-59.6934 26.3438-59.8013 22.3613-58.124L16.9458-55.8086L16.9458-69.0913C16.9458-71.0127 15.3208-72.6309 13.3574-72.6309C11.3872-72.6309 9.76562-71.0127 9.76562-69.0913L9.76562-49.9536C9.76562-47.394 12.4229-46.02 14.7803-47.0522L24.8687-51.4775C25.3115-51.6729 25.709-51.3799 25.6568-50.8882L20.5899-13.896L11.98 1.5557C11.0454 3.27494 11.6348 5.53812 13.4063 6.42387ZM60.9351-45.5293L63.0376-45.5293L63.0376-76.3819C63.0376-76.9737 62.5572-77.4122 62.0108-77.4122C61.419-77.4122 60.9351-76.9737 60.9351-76.3819ZM56.7828-42.5703L67.1934-42.5703C68.3755-42.5703 68.5074-43.5537 68.2496-44.2783C67.2276-47.292 64.8145-49.1157 62.0108-49.1157C59.1582-49.1157 56.7452-47.292 55.7232-44.2783C55.4688-43.5537 55.5552-42.5703 56.7828-42.5703Z"/>
  </g>
 </g>
</svg>
