<?xml version="1.0" encoding="UTF-8"?>
<!--Generator: Apple Native CoreSVG 175.5-->
<!DOCTYPE svg
PUBLIC "-//W3C//DTD SVG 1.1//EN"
       "http://www.w3.org/Graphics/SVG/1.1/DTD/svg11.dtd">
<svg version="1.1" xmlns="http://www.w3.org/2000/svg" xmlns:xlink="http://www.w3.org/1999/xlink" width="3300" height="2200">
 <!--glyph: "uni10148B.medium", point size: 100.0, font version: "18.0d12e2", template writer version: "101"-->
 <g id="Notes">
  <rect height="2200" id="artboard" style="fill:white;opacity:1" width="3300" x="0" y="0"/>
  <line style="fill:none;stroke:black;opacity:1;stroke-width:0.5;" x1="263" x2="3036" y1="292" y2="292"/>
  <text style="stroke:none;fill:black;font-family:sans-serif;font-size:13;font-weight:bold;" transform="matrix(1 0 0 1 263 322)">Weight/Scale Variations</text>
  <text style="stroke:none;fill:black;font-family:sans-serif;font-size:13;text-anchor:middle;" transform="matrix(1 0 0 1 559.711 322)">Ultralight</text>
  <text style="stroke:none;fill:black;font-family:sans-serif;font-size:13;text-anchor:middle;" transform="matrix(1 0 0 1 856.422 322)">Thin</text>
  <text style="stroke:none;fill:black;font-family:sans-serif;font-size:13;text-anchor:middle;" transform="matrix(1 0 0 1 1153.13 322)">Light</text>
  <text style="stroke:none;fill:black;font-family:sans-serif;font-size:13;text-anchor:middle;" transform="matrix(1 0 0 1 1449.84 322)">Regular</text>
  <text style="stroke:none;fill:black;font-family:sans-serif;font-size:13;text-anchor:middle;" transform="matrix(1 0 0 1 1746.56 322)">Medium</text>
  <text style="stroke:none;fill:black;font-family:sans-serif;font-size:13;text-anchor:middle;" transform="matrix(1 0 0 1 2043.27 322)">Semibold</text>
  <text style="stroke:none;fill:black;font-family:sans-serif;font-size:13;text-anchor:middle;" transform="matrix(1 0 0 1 2339.98 322)">Bold</text>
  <text style="stroke:none;fill:black;font-family:sans-serif;font-size:13;text-anchor:middle;" transform="matrix(1 0 0 1 2636.69 322)">Heavy</text>
  <text style="stroke:none;fill:black;font-family:sans-serif;font-size:13;text-anchor:middle;" transform="matrix(1 0 0 1 2933.4 322)">Black</text>
  <line style="fill:none;stroke:black;opacity:1;stroke-width:0.5;" x1="263" x2="3036" y1="1903" y2="1903"/>
  <g transform="matrix(1 0 0 1 263 1933)">
   <path d="M9.24805 0.830078C13.5547 0.830078 17.1387-2.74414 17.1387-7.05078C17.1387-11.3574 13.5449-14.9316 9.23828-14.9316C4.94141-14.9316 1.36719-11.3574 1.36719-7.05078C1.36719-2.74414 4.95117 0.830078 9.24805 0.830078ZM9.24805-0.654297C5.70312-0.654297 2.87109-3.49609 2.87109-7.05078C2.87109-10.6055 5.69336-13.4473 9.23828-13.4473C12.793-13.4473 15.6445-10.6055 15.6445-7.05078C15.6445-3.49609 12.8027-0.654297 9.24805-0.654297ZM5.6543-7.05078C5.6543-6.62109 5.95703-6.32812 6.40625-6.32812L8.50586-6.32812L8.50586-4.20898C8.50586-3.76953 8.79883-3.4668 9.22852-3.4668C9.67773-3.4668 9.9707-3.76953 9.9707-4.20898L9.9707-6.32812L12.0898-6.32812C12.5293-6.32812 12.832-6.62109 12.832-7.05078C12.832-7.49023 12.5293-7.79297 12.0898-7.79297L9.9707-7.79297L9.9707-9.90234C9.9707-10.3516 9.67773-10.6543 9.22852-10.6543C8.79883-10.6543 8.50586-10.3516 8.50586-9.90234L8.50586-7.79297L6.40625-7.79297C5.95703-7.79297 5.6543-7.49023 5.6543-7.05078Z"/>
  </g>
  <g transform="matrix(1 0 0 1 281.867 1933)">
   <path d="M11.709 2.91016C17.1582 2.91016 21.6699-1.61133 21.6699-7.05078C21.6699-12.5 17.1484-17.0117 11.6992-17.0117C6.25977-17.0117 1.74805-12.5 1.74805-7.05078C1.74805-1.61133 6.26953 2.91016 11.709 2.91016ZM11.709 1.25C7.09961 1.25 3.41797-2.44141 3.41797-7.05078C3.41797-11.6602 7.08984-15.3516 11.6992-15.3516C16.3086-15.3516 20.0098-11.6602 20.0098-7.05078C20.0098-2.44141 16.3184 1.25 11.709 1.25ZM7.17773-7.05078C7.17773-6.57227 7.50977-6.25 8.00781-6.25L10.8789-6.25L10.8789-3.36914C10.8789-2.88086 11.2109-2.53906 11.6895-2.53906C12.1777-2.53906 12.5195-2.87109 12.5195-3.36914L12.5195-6.25L15.4004-6.25C15.8887-6.25 16.2305-6.57227 16.2305-7.05078C16.2305-7.53906 15.8887-7.88086 15.4004-7.88086L12.5195-7.88086L12.5195-10.752C12.5195-11.25 12.1777-11.5918 11.6895-11.5918C11.2109-11.5918 10.8789-11.25 10.8789-10.752L10.8789-7.88086L8.00781-7.88086C7.50977-7.88086 7.17773-7.53906 7.17773-7.05078Z"/>
  </g>
  <g transform="matrix(1 0 0 1 305.646 1933)">
   <path d="M14.9707 5.66406C21.9336 5.66406 27.6953-0.0976562 27.6953-7.05078C27.6953-14.0137 21.9238-19.7754 14.9609-19.7754C8.00781-19.7754 2.25586-14.0137 2.25586-7.05078C2.25586-0.0976562 8.01758 5.66406 14.9707 5.66406ZM14.9707 3.84766C8.93555 3.84766 4.08203-1.01562 4.08203-7.05078C4.08203-13.0957 8.92578-17.9492 14.9609-17.9492C21.0059-17.9492 25.8691-13.0957 25.8691-7.05078C25.8691-1.01562 21.0156 3.84766 14.9707 3.84766ZM9.19922-7.05078C9.19922-6.5332 9.57031-6.17188 10.1172-6.17188L14.0625-6.17188L14.0625-2.2168C14.0625-1.67969 14.4336-1.29883 14.9512-1.29883C15.4883-1.29883 15.8594-1.66992 15.8594-2.2168L15.8594-6.17188L19.8145-6.17188C20.3516-6.17188 20.7324-6.5332 20.7324-7.05078C20.7324-7.59766 20.3613-7.96875 19.8145-7.96875L15.8594-7.96875L15.8594-11.9141C15.8594-12.4609 15.4883-12.8418 14.9512-12.8418C14.4336-12.8418 14.0625-12.4609 14.0625-11.9141L14.0625-7.96875L10.1172-7.96875C9.57031-7.96875 9.19922-7.59766 9.19922-7.05078Z"/>
  </g>
  <text style="stroke:none;fill:black;font-family:sans-serif;font-size:13;font-weight:bold;" transform="matrix(1 0 0 1 263 1953)">Design Variations</text>
  <text style="stroke:none;fill:black;font-family:sans-serif;font-size:13;" transform="matrix(1 0 0 1 263 1971)">Symbols are supported in up to nine weights and three scales.</text>
  <text style="stroke:none;fill:black;font-family:sans-serif;font-size:13;" transform="matrix(1 0 0 1 263 1989)">For optimal layout with text and other symbols, vertically align</text>
  <text style="stroke:none;fill:black;font-family:sans-serif;font-size:13;" transform="matrix(1 0 0 1 263 2007)">symbols with the adjacent text.</text>
  <line style="fill:none;stroke:#00AEEF;stroke-width:0.5;opacity:1.0;" x1="776" x2="776" y1="1919" y2="1933"/>
  <g transform="matrix(1 0 0 1 776 1933)">
   <path d="M3.31055 0.15625C3.82812 0.15625 4.08203-0.0390625 4.26758-0.585938L5.52734-4.0332L11.2891-4.0332L12.5488-0.585938C12.7344-0.0390625 12.9883 0.15625 13.4961 0.15625C14.0137 0.15625 14.3457-0.15625 14.3457-0.644531C14.3457-0.810547 14.3164-0.966797 14.2383-1.17188L9.6582-13.3691C9.43359-13.9648 9.0332-14.2676 8.4082-14.2676C7.80273-14.2676 7.39258-13.9746 7.17773-13.3789L2.59766-1.16211C2.51953-0.957031 2.49023-0.800781 2.49023-0.634766C2.49023-0.146484 2.80273 0.15625 3.31055 0.15625ZM6.00586-5.51758L8.37891-12.0898L8.42773-12.0898L10.8008-5.51758Z"/>
  </g>
  <line style="fill:none;stroke:#00AEEF;stroke-width:0.5;opacity:1.0;" x1="793.197" x2="793.197" y1="1919" y2="1933"/>
  <text style="stroke:none;fill:black;font-family:sans-serif;font-size:13;font-weight:bold;" transform="matrix(1 0 0 1 776 1953)">Margins</text>
  <text style="stroke:none;fill:black;font-family:sans-serif;font-size:13;" transform="matrix(1 0 0 1 776 1971)">Leading and trailing margins on the left and right side of each symbol</text>
  <text style="stroke:none;fill:black;font-family:sans-serif;font-size:13;" transform="matrix(1 0 0 1 776 1989)">can be adjusted by modifying the x-location of the margin guidelines.</text>
  <text style="stroke:none;fill:black;font-family:sans-serif;font-size:13;" transform="matrix(1 0 0 1 776 2007)">Modifications are automatically applied proportionally to all</text>
  <text style="stroke:none;fill:black;font-family:sans-serif;font-size:13;" transform="matrix(1 0 0 1 776 2025)">scales and weights.</text>
  <g transform="matrix(1 0 0 1 1289 1933)">
   <path d="M2.8418 1.86523L4.54102 3.57422C5.40039 4.44336 6.38672 4.38477 7.31445 3.35938L18.0078-8.42773L17.041-9.4043L6.42578 2.27539C6.07422 2.67578 5.74219 2.77344 5.27344 2.30469L4.10156 1.14258C3.63281 0.683594 3.74023 0.341797 4.14062-0.0195312L15.6152-10.8203L14.6387-11.7871L3.04688-0.898438C2.06055 0.0195312 1.98242 0.996094 2.8418 1.86523ZM9.25781-16.3281C8.83789-15.918 8.80859-15.3418 9.04297-14.9512C9.27734-14.5898 9.73633-14.3555 10.3809-14.5215C11.8457-14.8633 13.3691-14.9219 14.7949-13.9844L14.209-12.5293C13.8672-11.6992 14.043-11.1133 14.5801-10.5664L16.875-8.25195C17.3633-7.76367 17.7734-7.74414 18.3398-7.8418L19.4043-8.03711L20.0684-7.36328L20.0293-6.80664C19.9902-6.30859 20.1172-5.92773 20.6055-5.44922L21.3672-4.70703C21.8457-4.22852 22.4609-4.19922 22.9297-4.66797L25.8398-7.58789C26.3086-8.05664 26.2891-8.65234 25.8105-9.13086L25.0391-9.89258C24.5605-10.3711 24.1895-10.5273 23.7109-10.4883L23.1348-10.4395L22.4902-11.0742L22.7344-12.1973C22.8613-12.7637 22.7051-13.2031 22.1191-13.7891L19.9219-15.9766C16.582-19.2969 12.1484-19.2188 9.25781-16.3281ZM10.752-15.957C13.1836-17.7344 16.4746-17.4316 18.7012-15.2051L21.1328-12.793C21.3672-12.5586 21.4062-12.373 21.3379-12.0312L21.0156-10.5469L22.5195-9.0625L23.5059-9.12109C23.7598-9.13086 23.8379-9.11133 24.0332-8.91602L24.6094-8.33984L22.168-5.89844L21.5918-6.47461C21.3965-6.66992 21.3672-6.74805 21.377-7.01172L21.4453-7.98828L19.9512-9.47266L18.4277-9.21875C18.1055-9.15039 17.959-9.17969 17.7148-9.41406L15.7129-11.416C15.459-11.6504 15.4297-11.8164 15.5859-12.1875L16.4648-14.2773C14.9023-15.7324 12.8711-16.3574 10.8398-15.7617C10.6836-15.7227 10.625-15.8496 10.752-15.957Z"/>
  </g>
  <text style="stroke:none;fill:black;font-family:sans-serif;font-size:13;font-weight:bold;" transform="matrix(1 0 0 1 1289 1953)">Exporting</text>
  <text style="stroke:none;fill:black;font-family:sans-serif;font-size:13;" transform="matrix(1 0 0 1 1289 1971)">Symbols should be outlined when exporting to ensure the</text>
  <text style="stroke:none;fill:black;font-family:sans-serif;font-size:13;" transform="matrix(1 0 0 1 1289 1989)">design is preserved when submitting to Xcode.</text>
  <text id="template-version" style="stroke:none;fill:black;font-family:sans-serif;font-size:13;text-anchor:end;" transform="matrix(1 0 0 1 3036 1933)">Template v.4.0</text>
  <text style="stroke:none;fill:black;font-family:sans-serif;font-size:13;text-anchor:end;" transform="matrix(1 0 0 1 3036 1951)">Requires Xcode 14 or greater</text>
  <text id="descriptive-name" style="stroke:none;fill:black;font-family:sans-serif;font-size:13;text-anchor:end;" transform="matrix(1 0 0 1 3036 1969)">Generated from figure.tennis</text>
  <text style="stroke:none;fill:black;font-family:sans-serif;font-size:13;text-anchor:end;" transform="matrix(1 0 0 1 3036 1987)">Typeset at 100 points</text>
  <text style="stroke:none;fill:black;font-family:sans-serif;font-size:13;" transform="matrix(1 0 0 1 263 726)">Small</text>
  <text style="stroke:none;fill:black;font-family:sans-serif;font-size:13;" transform="matrix(1 0 0 1 263 1156)">Medium</text>
  <text style="stroke:none;fill:black;font-family:sans-serif;font-size:13;" transform="matrix(1 0 0 1 263 1586)">Large</text>
 </g>
 <g id="Guides">
  <g id="H-reference" style="fill:#27AAE1;stroke:none;" transform="matrix(1 0 0 1 339 696)">
   <path d="M0.993654 0L3.63775 0L29.3281-67.1323L30.0303-67.1323L30.0303-70.459L28.1226-70.459ZM11.6885-24.4799L46.9815-24.4799L46.2315-26.7285L12.4385-26.7285ZM55.1196 0L57.7637 0L30.6382-70.459L29.4326-70.459L29.4326-67.1323Z"/>
  </g>
  <line id="Baseline-S" style="fill:none;stroke:#27AAE1;opacity:1;stroke-width:0.5;" x1="263" x2="3036" y1="696" y2="696"/>
  <line id="Capline-S" style="fill:none;stroke:#27AAE1;opacity:1;stroke-width:0.5;" x1="263" x2="3036" y1="625.541" y2="625.541"/>
  <g id="H-reference" style="fill:#27AAE1;stroke:none;" transform="matrix(1 0 0 1 339 1126)">
   <path d="M0.993654 0L3.63775 0L29.3281-67.1323L30.0303-67.1323L30.0303-70.459L28.1226-70.459ZM11.6885-24.4799L46.9815-24.4799L46.2315-26.7285L12.4385-26.7285ZM55.1196 0L57.7637 0L30.6382-70.459L29.4326-70.459L29.4326-67.1323Z"/>
  </g>
  <line id="Baseline-M" style="fill:none;stroke:#27AAE1;opacity:1;stroke-width:0.5;" x1="263" x2="3036" y1="1126" y2="1126"/>
  <line id="Capline-M" style="fill:none;stroke:#27AAE1;opacity:1;stroke-width:0.5;" x1="263" x2="3036" y1="1055.54" y2="1055.54"/>
  <g id="H-reference" style="fill:#27AAE1;stroke:none;" transform="matrix(1 0 0 1 339 1556)">
   <path d="M0.993654 0L3.63775 0L29.3281-67.1323L30.0303-67.1323L30.0303-70.459L28.1226-70.459ZM11.6885-24.4799L46.9815-24.4799L46.2315-26.7285L12.4385-26.7285ZM55.1196 0L57.7637 0L30.6382-70.459L29.4326-70.459L29.4326-67.1323Z"/>
  </g>
  <line id="Baseline-L" style="fill:none;stroke:#27AAE1;opacity:1;stroke-width:0.5;" x1="263" x2="3036" y1="1556" y2="1556"/>
  <line id="Capline-L" style="fill:none;stroke:#27AAE1;opacity:1;stroke-width:0.5;" x1="263" x2="3036" y1="1485.54" y2="1485.54"/>
  <line id="left-margin-Regular-M" style="fill:none;stroke:#00AEEF;stroke-width:0.5;opacity:1.0;" x1="1389.7" x2="1389.7" y1="1030.79" y2="1150.12"/>
  <line id="right-margin-Regular-M" style="fill:none;stroke:#00AEEF;stroke-width:0.5;opacity:1.0;" x1="1509.99" x2="1509.99" y1="1030.79" y2="1150.12"/>
 </g>
 <g id="Symbols">
  <g id="Black-L" transform="matrix(1 0 0 1 2851.53 1556)">
   <path d="M80.2976-64.4975C88.8237-64.4975 95.7877-71.4616 95.7877-79.9876C95.7877-88.5357 88.8237-95.4801 80.2976-95.4801C71.7496-95.4801 64.7843-88.5357 64.7843-79.9876C64.7843-71.4616 71.7496-64.4975 80.2976-64.4975ZM139.805 44.3615C144.119 44.3615 147.653 40.8067 147.653 36.5137L147.653 3.04143C147.653 0.207996 146.157-1.85088 144.236-3.47127L118.553-24.6558L113.537-52.0474C113.055-54.7989 113.376-57.156 114.684-59.749L136.505-103.411C138.462-107.304 136.863-112.056 132.95-114.012C129.058-115.91 124.306-114.391 122.408-110.559L100.909-67.48C99.5215-64.6833 97.6081-62.8736 94.5934-61.6465L57.3112-46.2142L42.6511-58.04C42.1586-58.4069 41.6929-58.6278 41.2064-58.8291L41.2064-79.6718L29.7966-79.6718L29.7966-51.9382C29.7966-49.5357 30.7892-47.2211 32.7081-45.6812L51.3603-30.8611C53.8213-28.8606 56.9896-28.9047 60.1511-30.2046L80.9271-38.9275C82.5688-39.6642 83.7596-38.8187 83.9644-37.4166L94.0389 18.1465L66.5748 29.1473C62.5815 30.7248 60.5446 35.3163 62.0638 39.39C63.823 43.4558 68.16 45.4345 72.3649 43.7414L105.858 30.3445C109.253 28.9861 111.07 25.5338 110.83 22.1178L108.925-3.91589C108.802-5.79249 110.706-6.98845 112.347-5.89373L131.899 7.25398L131.899 36.5137C131.899 40.8067 135.432 44.3615 139.805 44.3615ZM35.4923-115.243C24.6697-115.243 16.084-106.578 16.084-95.676C16.084-85.766 24.7209-75.1811 35.4923-71.7987C46.3417-75.1811 54.8618-85.766 54.8618-95.676C54.8618-106.578 46.3345-115.243 35.4923-115.243ZM35.4923-103.832C40.1623-103.832 43.4508-100.443 43.4508-95.4383C43.4508-90.5711 40.1159-85.7814 35.4923-84.0002C30.8311-85.7814 27.4949-90.5711 27.4949-95.4383C27.4949-100.443 30.7835-103.832 35.4923-103.832Z"/>
  </g>
  <g id="Heavy-L" transform="matrix(1 0 0 1 2555.94 1556)">
   <path d="M79.4011-63.9538C87.69-63.9538 94.4533-70.7171 94.4533-79.006C94.4533-87.3307 87.69-94.0695 79.4011-94.0695C71.0764-94.0695 64.3075-87.3307 64.3075-79.006C64.3075-70.7171 71.0764-63.9538 79.4011-63.9538ZM137.924 43.1237C142.051 43.1237 145.42 39.7244 145.42 35.6283L145.42 2.59015C145.42-0.096605 144.002-2.07773 142.14-3.64793L116.705-24.6073L111.738-51.7612C111.256-54.5088 111.578-56.9171 112.894-59.5151L134.44-102.631C136.305-106.33 134.771-110.868 131.041-112.733C127.341-114.553 122.804-113.093 120.984-109.444L99.7653-66.9213C98.368-64.0964 96.4222-62.2724 93.3975-61.036L56.4519-45.7289L41.8393-57.5023C41.1885-57.9955 40.5016-58.2357 39.8788-58.3569L39.8788-78.3478L29.598-78.3478L29.598-51.7347C29.598-49.3961 30.5035-47.2007 32.3539-45.7109L50.7712-31.09C53.1544-29.1534 56.1302-29.225 59.1958-30.4792L79.696-39.0846C81.5958-39.9227 82.8234-38.9113 83.0559-37.394L93.0498 17.6708L65.7314 28.6098C61.9212 30.114 59.9759 34.4904 61.4355 38.381C63.1307 42.3558 67.2984 44.1096 71.2513 42.5218L104.32 29.3014C107.564 28.0026 109.298 24.7195 109.062 21.4453L107.185-4.26291C107.039-6.34681 109.21-7.62601 110.957-6.45741L130.384 6.60585L130.384 35.6283C130.384 39.7244 133.748 43.1237 137.924 43.1237ZM34.7289-113.351C24.3288-113.351 16.084-105.031 16.084-94.5564C16.084-85.0104 24.3397-74.7404 34.7289-71.4347C45.1873-74.7404 53.3538-85.0104 53.3538-94.5564C53.3538-105.031 45.1536-113.351 34.7289-113.351ZM34.7289-103.065C39.5682-103.065 43.0674-99.4604 43.0674-94.332C43.0674-89.323 39.5797-84.2598 34.7289-82.4344C29.8636-84.2598 26.3704-89.323 26.3704-94.332C26.3704-99.4604 29.8695-103.065 34.7289-103.065Z"/>
  </g>
  <g id="Bold-L" transform="matrix(1 0 0 1 2260.68 1556)">
   <path d="M78.1305-63.3001C86.1274-63.3001 92.6447-69.8174 92.6447-77.8143C92.6447-85.8623 86.1274-92.3549 78.1305-92.3549C70.0825-92.3549 63.5519-85.8623 63.5519-77.8143C63.5519-69.8174 70.0825-63.3001 78.1305-63.3001ZM135.425 41.4902C139.328 41.4902 142.505 38.2755 142.505 34.4103L142.505 1.96221C142.505-0.555117 141.179-2.44391 139.386-3.95262L114.311-24.5906L109.413-51.3928C108.931-54.1253 109.252-56.5802 110.577-59.1784L131.747-101.543C133.504-105.02 132.047-109.303 128.533-111.06C125.056-112.788 120.773-111.398 119.045-107.964L98.2098-66.1999C96.8046-63.3516 94.8278-61.5197 91.8027-60.2754L55.3542-45.1594L40.8402-56.8338C39.9748-57.5032 38.9815-57.7515 38.1823-57.7431L38.1823-76.7408L29.3223-76.7408L29.3223-51.4588C29.3223-49.1971 30.1276-47.1403 31.8936-45.712L49.989-31.3593C52.2799-29.4997 55.0325-29.6022 57.9827-30.8024L78.1074-39.247C80.2851-40.1932 81.5514-39.0042 81.8147-37.3634L91.6864 16.9675L64.6194 27.7998C61.0246 29.2193 59.187 33.3417 60.5773 37.0169C62.1957 40.8765 66.1633 42.3759 69.8236 40.9113L102.31 27.9285C105.377 26.699 107.011 23.616 106.783 20.511L104.944-4.75281C104.774-7.06057 107.231-8.42485 109.087-7.17898L128.316 5.74699L128.316 34.4103C128.316 38.2755 131.479 41.4902 135.425 41.4902ZM33.7465-110.94C23.8913-110.94 16.084-103.066 16.084-93.1434C16.084-84.0581 23.8411-74.1725 33.7465-70.9739C43.7059-74.1725 51.4046-84.0581 51.4046-93.1434C51.4046-103.066 43.6265-110.94 33.7465-110.94ZM33.7465-102.067C38.7859-102.067 42.5314-98.2164 42.5314-92.9418C42.5314-87.7636 38.889-82.3623 33.7465-80.4607C28.6128-82.3623 24.9572-87.7636 24.9572-92.9418C24.9572-98.2164 28.7027-102.067 33.7465-102.067Z"/>
  </g>
  <g id="Semibold-L" transform="matrix(1 0 0 1 1964.98 1556)">
   <path d="M77.2546-62.8494C85.0501-62.8494 91.3979-69.1971 91.3979-76.9927C91.3979-84.85 85.0501-91.1729 77.2546-91.1729C69.3973-91.1729 63.031-84.85 63.031-76.9927C63.031-69.1971 69.3973-62.8494 77.2546-62.8494ZM133.702 40.364C137.451 40.364 140.495 37.2767 140.495 33.5707L140.495 1.52932C140.495-0.871212 139.233-2.69635 137.488-4.16267L112.661-24.5791L107.81-51.1388C107.328-53.861 107.649-56.348 108.979-58.9464L129.891-100.794C131.574-104.116 130.169-108.224 126.803-109.907C123.481-111.572 119.373-110.229 117.709-106.944L97.1374-65.7026C95.7269-62.8382 93.7286-61.0007 90.7033-59.751L54.5974-44.7667L40.1514-56.373C39.1381-57.1638 37.9336-57.4178 37.0127-57.32L37.0127-75.633L29.1322-75.633L29.1322-51.2686C29.1322-49.0599 29.8685-47.0987 31.5762-45.7128L49.4498-31.545C51.6771-29.7385 54.2757-29.8622 57.1464-31.0253L77.0122-39.3589C79.3815-40.3797 80.6744-39.0682 80.959-37.3422L90.7464 16.4826L63.8527 27.2414C60.4065 28.6025 58.6432 32.5498 59.9858 36.0764C61.5511 39.8566 65.3808 41.1807 68.8394 39.801L100.924 26.982C103.869 25.8003 105.434 22.8552 105.212 19.8669L103.399-5.09055C103.213-7.55263 105.867-8.97557 107.797-7.67642L126.89 5.1549L126.89 33.5707C126.89 37.2767 129.915 40.364 133.702 40.364ZM33.0693-109.278C23.5897-109.278 16.084-101.711 16.084-92.1692C16.084-83.4016 23.4974-73.781 33.0693-70.6563C42.6846-73.781 50.0608-83.4016 50.0608-92.1692C50.0608-101.711 42.5737-109.278 33.0693-109.278ZM33.0693-101.379C38.2466-101.379 42.1619-97.3588 42.1619-91.9834C42.1619-86.6885 38.4128-81.0541 33.0693-79.1001C27.7505-81.0541 23.9829-86.6885 23.9829-91.9834C23.9829-97.3588 27.8982-101.379 33.0693-101.379Z"/>
  </g>
  <g id="Medium-L" transform="matrix(1 0 0 1 1669.03 1556)">
   <path d="M76.5905-62.5076C84.2333-62.5076 90.4525-68.7268 90.4525-76.3697C90.4525-84.0825 84.2333-90.2767 76.5905-90.2767C68.8777-90.2767 62.636-84.0825 62.636-76.3697C62.636-68.7268 68.8777-62.5076 76.5905-62.5076ZM132.395 39.5101C136.028 39.5101 138.971 36.5193 138.971 32.934L138.971 1.20108C138.971-1.11089 137.757-2.88777 136.049-4.32194L111.409-24.5703L106.595-50.9462C106.112-53.6605 106.434-56.172 107.768-58.7704L128.483-100.225C130.11-103.431 128.745-107.407 125.492-109.033C122.287-110.649 118.311-109.343 116.695-106.17L96.3243-65.3255C94.9097-62.4489 92.8952-60.6072 89.8697-59.3535L54.0235-44.4689L39.6292-56.0236C38.5037-56.9064 37.139-57.1647 36.1259-56.9991L36.1259-74.7929L28.9881-74.7929L28.9881-51.1244C28.9881-48.9559 29.6721-47.0671 31.3356-45.7133L49.041-31.6858C51.22-29.9195 53.7019-30.0593 56.5122-31.1942L76.1818-39.4438C78.6964-40.5211 80.0095-39.1167 80.3102-37.3262L90.0337 16.1149L63.2714 26.8179C59.9379 28.1348 58.2309 31.9494 59.5372 35.3633C61.0623 39.0833 64.7874 40.2745 68.0931 38.9591L99.8734 26.2643C102.726 25.1189 104.239 22.2784 104.02 19.3785L102.227-5.34664C102.03-7.92574 104.833-9.39315 106.82-8.0536L125.808 4.70595L125.808 32.934C125.808 36.5193 128.729 39.5101 132.395 39.5101ZM32.5557-108.018C23.361-108.018 16.084-100.683 16.084-91.4306C16.084-82.9038 23.2367-73.4841 32.5557-70.4155C41.9102-73.4841 49.0419-82.9038 49.0419-91.4306C49.0419-100.683 41.7755-108.018 32.5557-108.018ZM32.5557-100.858C37.8376-100.858 41.8817-96.7086 41.8817-91.2567C41.8817-85.8734 38.0518-80.0622 32.5557-78.0683C27.0966-80.0622 23.2442-85.8734 23.2442-91.2567C23.2442-96.7086 27.2883-100.858 32.5557-100.858Z"/>
  </g>
  <g id="Regular-L" transform="matrix(1 0 0 1 1373.31 1556)">
   <path d="M75.7242-62.0619C83.1679-62.0619 89.2194-68.1134 89.2194-75.5571C89.2194-83.0813 83.1679-89.1077 75.7242-89.1077C68.2-89.1077 62.1209-83.0813 62.1209-75.5571C62.1209-68.1134 68.2-62.0619 75.7242-62.0619ZM130.691 38.3963C134.171 38.3963 136.983 35.5314 136.983 32.1036L136.983 0.772935C136.983-1.42351 135.832-3.13743 134.171-4.52968L109.777-24.5589L105.009-50.695C104.527-53.3991 104.849-55.9423 106.188-58.5409L126.647-99.484C128.2-102.537 126.888-106.34 123.782-107.893C120.729-109.446 116.926-108.187 115.373-105.161L95.2637-64.8336C93.8438-61.9411 91.8082-60.094 88.7824-58.8349L53.2751-44.0806L38.948-55.5679C37.6761-56.5708 36.1027-56.8346 34.9691-56.5806L34.9691-73.6973L28.8001-73.6973L28.8001-50.9363C28.8001-48.8203 29.4158-47.0259 31.0217-45.7141L48.5077-31.8695C50.6237-30.1556 52.9534-30.3164 55.6851-31.4146L75.0987-39.5545C77.8027-40.7055 79.1422-39.1801 79.4639-37.3053L89.1041 15.6353L62.5131 26.2657C59.3266 27.5247 57.6931 31.1662 58.9521 34.4332C60.4248 38.0746 64.0135 39.0924 67.1196 37.861L98.503 25.3283C101.235 24.2301 102.68 21.526 102.466 18.7415L100.699-5.68067C100.486-8.41239 103.484-9.93782 105.545-8.54558L124.398 4.12036L124.398 32.1036C124.398 35.5314 127.182 38.3963 130.691 38.3963ZM31.8859-106.375C23.0627-106.375 16.084-99.3432 16.084-90.4672C16.084-82.2545 22.8967-73.0969 31.8859-70.1013C40.9002-73.0969 47.7129-82.2545 47.7129-90.4672C47.7129-99.3432 40.7343-106.375 31.8859-106.375ZM31.8859-100.178C37.3042-100.178 41.5163-95.8604 41.5163-90.3089C41.5163-84.8101 37.5808-78.7684 31.8859-76.7226C26.2438-78.7684 22.2806-84.8101 22.2806-90.3089C22.2806-95.8604 26.4927-100.178 31.8859-100.178Z"/>
  </g>
  <g id="Light-L" transform="matrix(1 0 0 1 1078.09 1556)">
   <path d="M73.8156-61.7374C81.0685-61.7374 86.9674-67.6363 86.9674-74.8892C86.9674-82.2225 81.0685-88.1343 73.8156-88.1343C66.4823-88.1343 60.5368-82.2225 60.5368-74.8892C60.5368-67.6363 66.4823-61.7374 73.8156-61.7374ZM127.866 36.6214C131.251 36.6214 134.006 33.8328 134.006 30.4813L134.006-0.104988C134.006-2.26326 132.893-3.93902 131.251-5.29309L107.448-24.8261L102.776-50.3515C102.294-52.9792 102.616-55.4461 103.936-58.0065L123.918-97.9572C125.433-100.953 124.159-104.66 121.129-106.175C118.133-107.69 114.426-106.45 112.911-103.501L93.2979-64.1466C91.8971-61.3113 89.8996-59.5214 86.9502-58.2814L52.3017-43.8897L38.2991-55.0908C36.76-56.3418 34.7667-56.5101 33.4614-55.9699L33.4614-72.8003L28.4184-72.8003L28.4184-50.5928C28.4184-48.5149 29.015-46.7587 30.5636-45.4851L47.6298-31.9649C49.7077-30.2892 51.98-30.45 54.6545-31.5292L73.5909-39.4591C76.2187-40.5719 77.5391-39.1037 77.8607-37.2671L87.2719 14.4139L61.3108 24.777C58.2005 26.017 56.6052 29.563 57.8452 32.7537C59.2797 36.2997 62.792 37.2984 65.8218 36.1052L96.4418 23.8587C99.1163 22.7796 100.504 20.1518 100.31 17.4437L98.6001-6.40591C98.4056-9.08038 101.308-10.5485 103.293-9.19448L121.726 3.1661L121.726 30.4813C121.726 33.8328 124.434 36.6214 127.866 36.6214ZM30.9698-104.275C22.6619-104.275 16.084-97.6637 16.084-89.3221C16.084-81.4911 22.3814-72.5625 30.9698-69.7196C39.5451-72.5625 45.8426-81.4911 45.8426-89.3221C45.8426-97.6637 39.2647-104.275 30.9698-104.275ZM30.9698-99.1856C36.4645-99.1856 40.7529-94.8298 40.7529-89.221C40.7529-83.6459 36.9319-77.3752 30.9698-75.1386C25.0414-77.3752 21.1737-83.6459 21.1737-89.221C21.1737-94.8298 25.4621-99.1856 30.9698-99.1856Z"/>
  </g>
  <g id="Thin-L" transform="matrix(1 0 0 1 783.346 1556)">
   <path d="M71.2915-61.3083C78.2919-61.3083 83.9888-67.0052 83.9888-74.0057C83.9888-81.0866 78.2919-86.847 71.2915-86.847C64.2106-86.847 58.4417-81.0866 58.4417-74.0057C58.4417-67.0052 64.2106-61.3083 71.2915-61.3083ZM124.13 34.2739C127.389 34.2739 130.068 31.5863 130.068 28.3358L130.068-1.26611C130.068-3.3739 129.006-4.99917 127.389-6.30276L104.369-25.1795L99.8231-49.8971C99.3406-52.4239 99.6623-54.7898 100.957-57.2997L120.308-95.9379C121.773-98.8583 120.55-102.439 117.621-103.903C114.7-105.368 111.12-104.153 109.655-101.305L90.698-63.2379C89.3224-60.4783 87.3755-58.7641 84.527-57.5494L51.0144-43.6373L37.4408-54.4597C35.5484-56.0389 32.9998-56.081 31.4673-55.1621L31.4673-71.6139L27.9136-71.6139L27.9136-50.1384C27.9136-48.111 28.485-46.4053 29.9578-45.1822L46.4687-32.0911C48.496-30.4659 50.6927-30.6267 53.2914-31.6806L71.5968-39.3329C74.1236-40.3952 75.4187-39.0028 75.7404-37.2167L84.8487 12.7984L59.7205 22.8081C56.7113 24.0229 55.1664 27.4427 56.3811 30.5324C57.7652 33.9522 61.1765 34.9257 64.1054 33.7829L93.7157 21.9151C96.3144 20.8612 97.6265 18.3344 97.4572 15.7272L95.8235-7.3651C95.6542-9.96384 98.4307-11.3563 100.314-10.0527L118.192 1.90401L118.192 28.3358C118.192 31.5863 120.799 34.2739 124.13 34.2739ZM29.7582-101.499C22.1318-101.499 16.084-95.4424 16.084-87.8076C16.084-80.4815 21.6999-71.8557 29.7582-69.2148C37.753-71.8557 43.3689-80.4815 43.3689-87.8076C43.3689-95.4424 37.3211-101.499 29.7582-101.499ZM29.7582-97.873C35.3539-97.873 39.7432-93.4668 39.7432-87.7823C39.7432-82.1062 36.0737-75.5326 29.7582-73.0435C23.4512-75.5326 19.7097-82.1062 19.7097-87.7823C19.7097-93.4668 24.099-97.873 29.7582-97.873Z"/>
  </g>
  <g id="Ultralight-L" transform="matrix(1 0 0 1 487.643 1556)">
   <path d="M69.9986-61.0885C76.8698-61.0885 82.4632-66.682 82.4632-73.5532C82.4632-80.5048 76.8698-86.1877 69.9986-86.1877C63.047-86.1877 57.3686-80.5048 57.3686-73.5532C57.3686-66.682 63.047-61.0885 69.9986-61.0885ZM122.217 33.0715C125.411 33.0715 128.051 30.4356 128.051 27.2368L128.051-1.86083C128.051-3.94277 127.015-5.54218 125.411-6.81991L102.792-25.3605L98.3105-49.6644C97.8279-52.1395 98.1496-54.4537 99.4318-56.9377L118.459-94.9036C119.898-97.7852 118.701-101.301 115.824-102.74C112.942-104.178 109.426-102.977 107.987-100.18L89.3663-62.7724C88.0037-60.0516 86.0826-58.3763 83.2859-57.1745L50.355-43.508L37.0013-54.1365C34.9279-55.8837 32.0947-55.8612 30.4459-54.7484L30.4459-71.0063L27.655-71.0063L27.655-49.9057C27.655-47.9042 28.2135-46.2243 29.6475-45.027L45.874-32.1558C47.8755-30.5564 50.0333-30.7172 52.5933-31.7582L70.5755-39.2682C73.0505-40.3047 74.3327-38.951 74.6544-37.1908L83.6075 11.9709L58.906 21.7997C55.9485 23.0015 54.4295 26.3567 55.6313 29.3947C56.9894 32.7498 60.3491 33.7104 63.2262 32.5935L92.3194 20.9196C94.8794 19.8786 96.1526 17.4036 95.9962 14.8481L94.4013-7.85639C94.245-10.4163 96.9568-11.77 98.7885-10.4923L116.382 1.25757L116.382 27.2368C116.382 30.4356 118.937 33.0715 122.217 33.0715ZM29.1376-100.076C21.8603-100.076 16.084-94.3047 16.084-87.0318C16.084-79.9643 21.3508-71.4937 29.1376-68.9562C36.835-71.4937 42.1019-79.9643 42.1019-87.0318C42.1019-94.3047 36.3256-100.076 29.1376-100.076ZM29.1376-97.2007C34.785-97.2007 39.2261-92.7686 39.2261-87.0453C39.2261-81.3175 35.6341-74.5888 29.1376-71.9704C22.6366-74.5888 18.9598-81.3175 18.9598-87.0453C18.9598-92.7686 23.4009-97.2007 29.1376-97.2007Z"/>
  </g>
  <g id="Black-M" transform="matrix(1 0 0 1 2869.22 1126)">
   <path d="M62.7219-58.328C69.5053-58.328 75.0525-63.8752 75.0525-70.6586C75.0525-77.4473 69.5053-82.9887 62.7219-82.9887C55.9332-82.9887 50.3863-77.4473 50.3863-70.6586C50.3863-63.8752 55.9332-58.328 62.7219-58.328ZM109.546 27.2563C113.036 27.2563 115.908 24.3789 115.908 20.8941L115.908-5.31051C115.908-7.62658 114.688-9.28333 113.151-10.5767L93.1214-27.1154L89.2052-48.4585C88.8314-50.5832 89.0806-52.3549 90.0829-54.3544L107.161-88.5169C108.751-91.6899 107.462-95.5436 104.284-97.1329C101.111-98.665 97.2573-97.4395 95.7251-94.3233L78.8957-60.6024C77.831-58.4676 76.3818-57.0856 74.065-56.1455L45.0081-44.131L33.6534-53.2992C33.3717-53.5085 33.1441-53.6502 32.861-53.8361L32.861-70.6773L23.2036-70.6773L23.2036-48.3028C23.2036-46.3917 24.0449-44.5013 25.5826-43.2703L40.1783-31.6614C42.1466-30.0617 44.7588-30.0721 47.2829-31.116L63.5513-37.9466C64.5912-38.4249 65.4794-37.9202 65.6144-36.9382L73.4578 6.36639L52.1402 14.9061C48.8994 16.1887 47.2479 19.9178 48.4734 23.2209C49.8862 26.4361 53.3814 28.1599 56.8454 26.7628L83.0555 16.2707C85.808 15.1698 87.2781 12.3599 87.0909 9.60196L85.6-10.7695C85.5269-12.0375 86.7592-12.8848 87.9287-12.1053L103.127-1.88803L103.127 20.8941C103.127 24.3789 105.999 27.2563 109.546 27.2563ZM28.0293-98.5605C19.3513-98.5605 12.4609-91.6076 12.4609-82.867C12.4609-74.9282 19.4101-66.488 28.0293-63.8223C36.7114-66.488 43.5463-74.9282 43.5463-82.867C43.5463-91.6076 36.7131-98.5605 28.0293-98.5605ZM28.0293-88.9035C31.5122-88.9035 33.8893-86.4584 33.8893-82.6793C33.8893-79.0198 31.4523-75.5131 28.0293-74.1453C24.5547-75.5131 22.118-79.0198 22.118-82.6793C22.118-86.4584 24.495-88.9035 28.0293-88.9035Z"/>
  </g>
  <g id="Heavy-M" transform="matrix(1 0 0 1 2573.46 1126)">
   <path d="M62.0215-57.8264C68.5907-57.8264 73.9558-63.1914 73.9558-69.7607C73.9558-76.3486 68.5907-81.6995 62.0215-81.6995C55.4336-81.6995 50.0663-76.3486 50.0663-69.7607C50.0663-63.1914 55.4336-57.8264 62.0215-57.8264ZM107.968 26.21C111.284 26.21 114 23.4776 114 20.1782L114-5.67067C114-7.84687 112.852-9.43114 111.372-10.6789L91.5293-27.0434L87.6529-48.2104C87.2791-50.3383 87.5283-52.1672 88.5416-54.1751L105.394-87.8947C106.898-90.8848 105.668-94.5371 102.662-96.0404C99.6718-97.5 96.0195-96.3309 94.5599-93.3867L77.9586-60.1196C76.883-57.952 75.3985-56.5508 73.065-55.5998L44.2578-43.6742L32.9197-52.8176C32.5078-53.1275 32.1027-53.2968 31.7023-53.4309L31.7023-69.4656L23.0447-69.4656L23.0447-48.1356C23.0447-46.2834 23.8026-44.506 25.2787-43.3205L39.6834-31.8763C41.5792-30.3356 44.0086-30.373 46.4442-31.3739L62.487-38.109C63.7861-38.69 64.7121-38.0178 64.8741-36.9196L72.6599 6.01411L51.4267 14.518C48.3578 15.7307 46.7922 19.2584 47.9613 22.3895C49.3151 25.5246 52.6518 27.0302 55.8765 25.7326L81.7418 15.3866C84.3519 14.3422 85.7469 11.6907 85.5623 9.06428L84.0925-11.0419C83.9951-12.5178 85.4976-13.4517 86.7781-12.5965L101.893-2.43359L101.893 20.1782C101.893 23.4776 104.607 26.21 107.968 26.21ZM27.3676-96.9049C19.055-96.9049 12.4609-90.2507 12.4609-81.8782C12.4609-74.26 19.085-66.1065 27.3676-63.5017C35.7079-66.1065 42.2447-74.26 42.2447-81.8782C42.2447-90.2507 35.6942-96.9049 27.3676-96.9049ZM27.3676-88.245C31.0089-88.245 33.5849-85.5926 33.5849-81.6981C33.5849-77.9072 30.988-74.1542 27.3676-72.7608C23.7199-74.1542 21.1208-77.9072 21.1208-81.6981C21.1208-85.5926 23.6967-88.245 27.3676-88.245Z"/>
  </g>
  <g id="Bold-M" transform="matrix(1 0 0 1 2277.81 1126)">
   <path d="M61.2381-57.2653C67.5677-57.2653 72.7289-62.4266 72.7289-68.7562C72.7289-75.1195 67.5677-80.2573 61.2381-80.2573C54.8747-80.2573 49.7083-75.1195 49.7083-68.7562C49.7083-62.4266 54.8747-57.2653 61.2381-57.2653ZM106.204 25.0396C109.324 25.0396 111.866 22.4694 111.866 19.3774L111.866-6.07357C111.866-8.09331 110.799-9.59649 109.381-10.7933L89.7484-26.9629L85.9164-47.9328C85.5426-50.0644 85.7918-51.9571 86.8173-53.9744L103.418-87.1986C104.825-89.9842 103.662-93.4111 100.847-94.8182C98.0618-96.1968 94.6349-95.0909 93.2563-92.339L76.9103-59.5795C75.8225-57.3753 74.2985-55.9525 71.9463-54.9893L43.4186-43.1633L32.0989-52.2788C31.5415-52.7013 30.9378-52.9015 30.4061-52.9776L30.4061-68.1103L22.8669-68.1103L22.8669-47.9484C22.8669-46.1623 23.5315-44.5111 24.9387-43.3766L39.1298-32.1167C40.9445-30.6421 43.1694-30.7096 45.5059-31.6623L61.2963-38.2906C62.8855-38.9865 63.8539-38.127 64.046-36.8988L71.7673 5.62002L50.6285 14.0839C47.7519 15.2184 46.2825 18.5207 47.3885 21.4595C48.6762 24.5049 51.8357 25.7665 54.7927 24.5801L80.2723 14.3977C82.723 13.4163 84.0341 10.9422 83.8523 8.4628L82.4062-11.3465C82.2815-13.055 84.0862-14.0859 85.491-13.1459L100.513-3.04387L100.513 19.3774C100.513 22.4694 103.049 25.0396 106.204 25.0396ZM26.6273-95.0527C18.7236-95.0527 12.4609-88.7329 12.4609-80.772C12.4609-73.5125 18.7214-65.6798 26.6273-63.143C34.5853-65.6798 40.7887-73.5125 40.7887-80.772C40.7887-88.7329 34.5545-95.0527 26.6273-95.0527ZM26.6273-87.5084C30.4459-87.5084 33.2443-84.6242 33.2443-80.6005C33.2443-76.6625 30.4687-72.634 26.6273-71.212C22.786-72.634 20.0053-76.6625 20.0053-80.6005C20.0053-84.6242 22.8037-87.5084 26.6273-87.5084Z"/>
  </g>
  <g id="Semibold-M" transform="matrix(1 0 0 1 1981.84 1126)">
   <path d="M60.698-56.8785C66.8623-56.8785 71.8831-61.8993 71.8831-68.0636C71.8831-74.2722 66.8623-79.263 60.698-79.263C54.4894-79.263 49.4615-74.2722 49.4615-68.0636C49.4615-61.8993 54.4894-56.8785 60.698-56.8785ZM104.987 24.2328C107.973 24.2328 110.394 21.7743 110.394 18.8253L110.394-6.35132C110.394-8.2632 109.383-9.71048 108.009-10.8722L88.5207-26.9073L84.7193-47.7414C84.3455-49.8755 84.5947-51.8124 85.6286-53.836L102.055-86.7187C103.396-89.3633 102.278-92.6349 99.5966-93.9757C96.952-95.2984 93.6804-94.236 92.3577-91.6167L76.1877-59.2072C75.0914-56.9777 73.5402-55.54 71.175-54.5684L42.84-42.811L31.533-51.9074C30.8753-52.4074 30.1347-52.6289 29.5125-52.6651L29.5125-67.1759L22.7443-67.1759L22.7443-47.8194C22.7443-46.0788 23.3446-44.5147 24.7043-43.4153L38.7481-32.2824C40.5069-30.8533 42.5908-30.9416 44.8591-31.8612L60.4755-38.4158C62.2646-39.1909 63.2622-38.2022 63.4751-36.8845L71.1519 5.34835L50.0782 13.7846C47.3343 14.8652 45.9311 18.0121 46.9935 20.8184C48.2357 23.802 51.273 24.8953 54.0455 23.7856L79.2592 13.7159C81.6001 12.7781 82.8533 10.4261 82.6735 8.04815L81.2437-11.5565C81.1002-13.4254 83.1132-14.5231 84.6036-13.5247L99.5613-3.4646L99.5613 18.8253C99.5613 21.7743 101.976 24.2328 104.987 24.2328ZM26.117-93.7759C18.4952-93.7759 12.4609-87.6865 12.4609-80.0094C12.4609-72.9972 18.4707-65.3855 26.117-62.8957C33.8114-65.3855 39.7849-72.9972 39.7849-80.0094C39.7849-87.6865 33.7688-93.7759 26.117-93.7759ZM26.117-87.0006C30.0578-87.0006 33.0096-83.9566 33.0096-79.8438C33.0096-75.8044 30.1107-71.586 26.117-70.1442C22.1422-71.586 19.2362-75.8044 19.2362-79.8438C19.2362-83.9566 22.188-87.0006 26.117-87.0006Z"/>
  </g>
  <g id="Medium-M" transform="matrix(1 0 0 1 1685.69 1126)">
   <path d="M60.2884-56.5851C66.3276-56.5851 71.2418-61.4994 71.2418-67.5386C71.2418-73.6297 66.3276-78.5092 60.2884-78.5092C54.1973-78.5092 49.2744-73.6297 49.2744-67.5386C49.2744-61.4994 54.1973-56.5851 60.2884-56.5851ZM104.064 23.621C106.948 23.621 109.279 21.2473 109.279 18.4067L109.279-6.56192C109.279-8.39202 108.31-9.79691 106.969-10.932L87.5897-26.8652L83.8116-47.5963C83.4378-49.7323 83.687-51.7026 84.7273-53.7311L101.022-86.3548C102.312-88.8925 101.229-92.0463 98.6481-93.3369C96.1104-94.6172 92.9566-93.5878 91.6763-91.069L75.6397-58.9248C74.5371-56.6762 72.9652-55.2272 70.5903-54.2492L42.4013-42.5439L31.104-51.6257C30.3702-52.1846 29.5258-52.4223 28.835-52.4282L28.835-66.4674L22.6514-66.4674L22.6514-47.7216C22.6514-46.0154 23.2029-44.5174 24.5266-43.4446L38.4587-32.4081C40.1751-31.0135 42.1521-31.1175 44.3686-32.012L59.8531-38.5108C61.7938-39.3459 62.8135-38.2593 63.0422-36.8736L70.6853 5.14235L49.661 13.5577C47.0175 14.5973 45.6647 17.6265 46.6941 20.3323C47.9018 23.269 50.8464 24.2348 53.4789 23.1831L78.491 13.1989C80.7486 12.2941 81.958 10.0348 81.7797 7.73374L80.3622-11.7158C80.2044-13.7062 82.3755-14.8546 83.9308-13.8119L98.8399-3.78362L98.8399 18.4067C98.8399 21.2473 101.161 23.621 104.064 23.621ZM25.7301-92.8078C18.322-92.8078 12.4609-86.893 12.4609-79.4312C12.4609-72.6065 18.2806-65.1624 25.7301-62.7082C33.2247-65.1624 39.0238-72.6065 39.0238-79.4312C39.0238-86.893 33.173-92.8078 25.7301-92.8078ZM25.7301-86.6156C29.7635-86.6156 32.8316-83.4504 32.8316-79.2701C32.8316-75.1538 29.8393-70.7914 25.7301-69.3346C21.654-70.7914 18.6531-75.1538 18.6531-79.2701C18.6531-83.4504 21.7212-86.6156 25.7301-86.6156Z"/>
  </g>
  <g id="Regular-M" transform="matrix(1 0 0 1 1389.7 1126)">
   <path d="M59.7543-56.2026C65.63-56.2026 70.4054-60.9779 70.4054-66.8537C70.4054-72.7917 65.63-77.5259 59.7543-77.5259C53.8162-77.5259 49.0303-72.7917 49.0303-66.8537C49.0303-60.9779 53.8162-56.2026 59.7543-56.2026ZM102.861 22.823C105.612 22.823 107.823 20.5599 107.823 17.8607L107.823-6.83662C107.823-8.56005 106.91-9.90965 105.612-11.01L86.3755-26.8103L82.6276-47.4071C82.2538-49.5455 82.503-51.5594 83.5517-53.5943L99.674-85.8802C100.899-88.2785 99.8609-91.2786 97.4109-92.5036C95.0127-93.7286 92.0125-92.7423 90.7875-90.3546L74.925-58.5566C73.814-56.283 72.2152-54.8193 69.8275-53.833L41.8291-42.1956L30.5444-51.2584C29.7113-51.894 28.7315-52.1528 27.9512-52.1191L27.9512-65.5433L22.5302-65.5433L22.5302-47.594C22.5302-45.9328 23.0181-44.5209 24.2948-43.4829L38.0813-32.572C39.7424-31.2224 41.5799-31.347 43.7289-32.2087L59.0413-38.6346C61.1797-39.5481 62.2284-38.3337 62.4776-36.8595L70.0767 4.87366L49.1167 13.2617C46.6044 14.248 45.3171 17.1236 46.3035 19.6982C47.4662 22.5737 50.29 23.3731 52.74 22.3974L77.489 12.5246C79.638 11.6629 80.7902 9.52441 80.6138 7.32364L79.2124-11.9235C79.0361-14.0725 81.4132-15.2869 83.0532-14.1866L97.8988-4.19972L97.8988 17.8607C97.8988 20.5599 100.1 22.823 102.861 22.823ZM25.2254-91.545C18.096-91.545 12.4609-85.8581 12.4609-78.677C12.4609-72.0968 18.0327-64.8715 25.2254-62.4637C32.4593-64.8715 38.031-72.0968 38.031-78.677C38.031-85.8581 32.396-91.545 25.2254-91.545ZM25.2254-86.1134C29.3797-86.1134 32.5994-82.7901 32.5994-78.5217C32.5994-74.3051 29.4852-69.7549 25.2254-68.2787C21.0173-69.7549 17.8925-74.3051 17.8925-78.5217C17.8925-82.7901 21.1123-86.1134 25.2254-86.1134Z"/>
  </g>
  <g id="Light-M" transform="matrix(1 0 0 1 1094.33 1126)">
   <path d="M58.0432-55.9117C63.7478-55.9117 68.3863-60.5501 68.3863-66.2548C68.3863-72.0217 63.7478-76.6532 58.0432-76.6532C52.2762-76.6532 47.6101-72.0217 47.6101-66.2548C47.6101-60.5501 52.2762-55.9117 58.0432-55.9117ZM100.329 21.2316C102.994 21.2316 105.154 19.037 105.154 16.4063L105.154-7.62372C105.154-9.31293 104.275-10.6283 102.994-11.6945L84.2879-27.0499L80.6257-47.0991C80.2518-49.1691 80.501-51.1145 81.5326-53.1152L97.2271-84.5114C98.4179-86.8583 97.4141-89.7729 95.0325-90.9636C92.6856-92.1544 89.771-91.1852 88.5802-88.866L73.1625-57.9406C72.0687-55.7183 70.5041-54.306 68.1849-53.3368L40.9564-42.0245L29.9626-50.8306C28.89-51.6887 27.5338-51.8619 26.5995-51.5716L26.5995-64.739L22.188-64.739L22.188-47.286C22.188-45.6591 22.6587-44.2814 23.8842-43.2775L37.2942-32.6575C38.9211-31.3422 40.7072-31.4668 42.8049-32.3114L57.6895-38.5491C59.7595-39.4283 60.791-38.2652 61.0403-36.8252L68.4341 3.77856L48.0387 11.927C45.5949 12.8962 44.3418 15.6863 45.311 18.1924C46.4395 20.9824 49.1949 21.7647 51.5764 20.8232L75.641 11.207C77.7387 10.3624 78.8395 8.29242 78.6803 6.1601L77.3302-12.5737C77.171-14.6714 79.4626-15.8345 81.0341-14.7683L95.5033-5.05527L95.5033 16.4063C95.5033 19.037 97.6356 21.2316 100.329 21.2316ZM24.4041-89.6627C17.7367-89.6627 12.4609-84.3524 12.4609-77.6503C12.4609-71.4124 17.5707-64.3924 24.4041-62.1215C31.2444-64.3924 36.3542-71.4124 36.3542-77.6503C36.3542-84.3524 31.0784-89.6627 24.4041-89.6627ZM24.4041-85.2236C28.6268-85.2236 31.915-81.8661 31.915-77.5464C31.915-73.2613 28.9034-68.5058 24.4041-66.8585C19.9393-68.5058 16.9001-73.2613 16.9001-77.5464C16.9001-81.8661 20.1883-85.2236 24.4041-85.2236Z"/>
  </g>
  <g id="Thin-M" transform="matrix(1 0 0 1 799.38 1126)">
   <path d="M55.7801-55.527C61.2584-55.527 65.7159-59.9844 65.7159-65.4627C65.7159-71.0033 61.2584-75.499 55.7801-75.499C50.2395-75.499 45.7318-71.0033 45.7318-65.4627C45.7318-59.9844 50.2395-55.527 55.7801-55.527ZM96.9794 19.127C99.5316 19.127 101.624 17.0229 101.624 14.4827L101.624-8.66473C101.624-10.3087 100.79-11.5788 99.5316-12.5997L81.527-27.3667L77.9779-46.6917C77.6041-48.6712 77.8533-50.5261 78.8622-52.4816L93.991-82.7009C95.1365-84.9799 94.1779-87.7814 91.8869-88.9269C89.6079-90.0724 86.8064-89.1258 85.6609-86.8971L70.8316-57.1259C69.7604-54.9715 68.2411-53.6271 66.0123-52.6805L39.8023-41.7981L29.1932-50.2649C27.8037-51.4171 25.9496-51.4772 24.8117-50.8474L24.8117-63.6754L21.7354-63.6754L21.7354-46.8786C21.7354-45.297 22.1835-43.9646 23.341-43.006L36.2531-32.7707C37.8348-31.5006 39.553-31.6252 41.5828-32.4472L55.9017-38.4359C57.8812-39.2699 58.8901-38.1747 59.1393-36.78L66.2616 2.3302L46.613 10.1618C44.2597 11.1084 43.0519 13.7853 43.9985 16.2009C45.0817 18.8778 47.7465 19.6374 50.0375 18.7411L73.1969 9.46448C75.2267 8.64251 76.2596 6.66302 76.123 4.62122L74.8409-13.4337C74.7042-15.4635 76.8827-16.5587 78.3637-15.5378L92.335-6.1868L92.335 14.4827C92.335 17.0229 94.3768 19.127 96.9794 19.127ZM23.3178-87.1734C17.2614-87.1734 12.4609-82.3609 12.4609-76.2925C12.4609-70.5071 16.9597-63.7587 23.3178-61.6689C29.6376-63.7587 34.1364-70.5071 34.1364-76.2925C34.1364-82.3609 29.3359-87.1734 23.3178-87.1734ZM23.3178-84.0468C27.6311-84.0468 31.0098-80.6441 31.0098-76.2565C31.0098-71.8809 28.134-66.8537 23.3178-64.9801C18.5136-66.8537 15.5875-71.8809 15.5875-76.2565C15.5875-80.6441 18.9662-84.0468 23.3178-84.0468Z"/>
  </g>
  <g id="Ultralight-M" transform="matrix(1 0 0 1 503.573 1126)">
   <path d="M54.621-55.3299C59.9834-55.3299 64.3481-59.6946 64.3481-65.057C64.3481-70.4817 59.9834-74.9079 54.621-74.9079C49.1963-74.9079 44.7697-70.4817 44.7697-65.057C44.7697-59.6946 49.1963-55.3299 54.621-55.3299ZM95.2638 18.049C97.7581 18.049 99.8155 15.9913 99.8155 13.4974L99.8155-9.19793C99.8155-10.8187 99.0047-12.0656 97.7581-13.0633L80.1129-27.529L76.6217-46.4831C76.2479-48.4162 76.4971-50.2247 77.4944-52.157L92.3334-81.7736C93.4557-84.0178 92.5203-86.7613 90.2757-87.8837C88.0315-89.006 85.2879-88.071 84.1656-85.8887L69.6377-56.7086C68.5781-54.589 67.0819-53.2793 64.8996-52.3443L39.2111-41.6822L28.7991-49.9751C27.2473-51.278 25.1382-51.2801 23.8959-50.4765L23.8959-63.1306L21.5035-63.1306L21.5035-46.67C21.5035-45.1115 21.9401-43.8023 23.0628-42.8669L35.7199-32.8287C37.2784-31.5817 38.9619-31.7063 40.9569-32.5167L54.986-38.378C56.9191-39.1888 57.9164-38.1283 58.1656-36.7568L65.1488 1.58836L45.8828 9.25773C43.5758 10.1927 42.3912 12.8116 43.3262 15.1809C44.3862 17.7998 47.0047 18.5479 49.2493 17.6748L71.9451 8.57196C73.9401 7.76157 74.9382 5.82844 74.8132 3.83301L73.5658-13.8741C73.4408-15.8692 75.5613-16.9296 76.9959-15.9319L90.7122-6.76636L90.7122 13.4974C90.7122 15.9913 92.7077 18.049 95.2638 18.049ZM22.7614-85.8983C17.018-85.8983 12.4609-81.3408 12.4609-75.597C12.4609-70.0435 16.6467-63.4341 22.7614-61.437C28.8146-63.4341 33.0004-70.0435 33.0004-75.597C33.0004-81.3408 28.4433-85.8983 22.7614-85.8983ZM22.7614-83.4441C27.1211-83.4441 30.5461-80.0181 30.5461-75.5958C30.5461-71.1738 27.7399-66.0076 22.7614-64.018C17.7833-66.0076 14.9152-71.1738 14.9152-75.5958C14.9152-80.0181 18.3403-83.4441 22.7614-83.4441Z"/>
  </g>
  <g id="Black-S" transform="matrix(1 0 0 1 2882.89 696)">
   <path d="M49.2676-53.4668C54.6387-53.4668 59.0332-57.8613 59.0332-63.2324C59.0332-68.6035 54.6387-72.998 49.2676-72.998C43.8965-72.998 39.502-68.6035 39.502-63.2324C39.502-57.8613 43.8965-53.4668 49.2676-53.4668ZM86.1816 13.9648C88.9648 13.9648 91.2598 11.6699 91.2598 8.88672L91.2598-11.7188C91.2598-13.5742 90.2832-14.8926 89.0625-15.918L73.3398-28.9062L70.2637-45.6543C69.9707-47.3145 70.166-48.6816 70.9473-50.2441L84.375-77.0996C85.6445-79.6387 84.6191-82.7148 82.0801-83.9844C79.541-85.2051 76.4648-84.2285 75.2441-81.7383L62.0117-55.2246C61.1816-53.5645 60.0586-52.4902 58.252-51.7578L35.4492-42.334L26.5625-49.5117C26.3672-49.6582 26.2207-49.7559 26.0254-49.9023L26.0254-63.3301L18.2129-63.3301L18.2129-45.5078C18.2129-43.9941 18.8965-42.4805 20.1172-41.5039L31.5918-32.373C33.1543-31.1035 35.2539-31.1035 37.2559-31.9336L50.0488-37.3047C50.7812-37.6465 51.4648-37.3047 51.5625-36.5723L57.7148-2.58789L41.0156 4.10156C38.4277 5.12695 37.1094 8.10547 38.0859 10.7422C39.209 13.2812 41.9922 14.6973 44.7754 13.5742L65.3809 5.32227C67.5781 4.44336 68.75 2.19727 68.6035 0L67.4316-16.0156C67.3828-16.9434 68.2617-17.5781 69.1406-16.9922L81.0547-8.98438L81.0547 8.88672C81.0547 11.6699 83.3496 13.9648 86.1816 13.9648ZM22.1191-85.2539C15.2344-85.2539 9.76562-79.7363 9.76562-72.8027C9.76562-66.5039 15.2832-59.8145 22.1191-57.7148C29.0039-59.8145 34.4238-66.5039 34.4238-72.8027C34.4238-79.7363 29.0039-85.2539 22.1191-85.2539ZM22.1191-77.4414C24.8047-77.4414 26.6113-75.5859 26.6113-72.6562C26.6113-69.8242 24.7559-67.1387 22.1191-66.0645C19.4336-67.1387 17.5781-69.8242 17.5781-72.6562C17.5781-75.5859 19.3848-77.4414 22.1191-77.4414Z"/>
  </g>
  <g id="Heavy-S" transform="matrix(1 0 0 1 2586.82 696)">
   <path d="M48.8873-53.075C54.097-53.075 58.3533-57.3312 58.3533-62.541C58.3533-67.7622 54.097-72.0069 48.8873-72.0069C43.666-72.0069 39.4098-67.7622 39.4098-62.541C39.4098-57.3312 43.666-53.075 48.8873-53.075ZM85.156 13.2734C87.8009 13.2734 89.969 11.0937 89.969 8.46031L89.969-11.9262C89.969-13.6664 89.0501-14.9272 87.8755-15.918L72.245-28.8141L69.1919-45.4814C68.8989-47.1531 69.0942-48.5779 69.887-50.1519L83.1765-76.7424C84.3768-79.1316 83.3975-82.0464 80.9968-83.2468C78.6075-84.4099 75.6927-83.4794 74.5296-81.1275L61.4355-54.8904C60.5939-53.1957 59.4363-52.0984 57.6066-51.3545L34.9191-41.9652L26.0093-49.1545C25.7333-49.3586 25.4831-49.4908 25.2072-49.6258L25.2072-62.3966L18.1207-62.3966L18.1207-45.4041C18.1207-43.9365 18.7351-42.515 19.9097-41.5731L31.2691-32.5459C32.774-31.3225 34.7238-31.3455 36.6566-32.141L49.3113-37.4545C50.2742-37.8885 50.9923-37.3969 51.113-36.5607L57.2423-2.74923L40.5431 3.94022C38.0935 4.90799 36.8443 7.72516 37.7748 10.2236C38.8517 12.705 41.5082 13.9367 44.0954 12.8943L64.4935 4.73452C66.5755 3.90171 67.6897 1.78238 67.5433-0.311161L66.3829-16.1654C66.311-17.2776 67.432-17.993 68.4146-17.3379L80.3056-9.34163L80.3056 8.46031C80.3056 11.0937 82.4737 13.2734 85.156 13.2734ZM21.6582-84.0784C15.0269-84.0784 9.76562-78.7683 9.76562-72.0882C9.76562-66.0199 15.0642-59.5494 21.6582-57.4844C28.3009-59.5494 33.5249-66.0199 33.5249-72.0882C33.5249-78.7683 28.3009-84.0784 21.6582-84.0784ZM21.6582-76.992C24.4705-76.992 26.4385-74.9636 26.4385-71.9417C26.4385-69.006 24.4332-66.136 21.6582-65.0618C18.8574-66.136 16.8521-69.006 16.8521-71.9417C16.8521-74.9636 18.8201-76.992 21.6582-76.992Z"/>
  </g>
  <g id="Bold-S" transform="matrix(1 0 0 1 2290.83 696)">
   <path d="M48.4619-52.6367C53.4912-52.6367 57.5928-56.7383 57.5928-61.7676C57.5928-66.8213 53.4912-70.8984 48.4619-70.8984C43.4082-70.8984 39.3066-66.8213 39.3066-61.7676C39.3066-56.7383 43.4082-52.6367 48.4619-52.6367ZM84.0088 12.5C86.499 12.5 88.5254 10.4492 88.5254 7.9834L88.5254-12.1582C88.5254-13.7695 87.6709-14.9658 86.5479-15.918L71.0205-28.7109L67.9932-45.2881C67.7002-46.9727 67.8955-48.4619 68.7012-50.0488L81.8359-76.3428C82.959-78.5645 82.0312-81.2988 79.7852-82.4219C77.5635-83.5205 74.8291-82.6416 73.7305-80.4443L60.791-54.5166C59.9365-52.7832 58.7402-51.6602 56.8848-50.9033L34.3262-41.5527L25.3906-48.7549C25.0244-49.0234 24.6582-49.1943 24.292-49.3164L24.292-61.3525L18.0176-61.3525L18.0176-45.2881C18.0176-43.8721 18.5547-42.5537 19.6777-41.6504L30.9082-32.7393C32.3486-31.5674 34.1309-31.6162 35.9863-32.373L48.4863-37.6221C49.707-38.1592 50.4639-37.5 50.6104-36.5479L56.7139-2.92969L40.0146 3.75977C37.7197 4.66309 36.5479 7.2998 37.4268 9.64355C38.4521 12.0605 40.9668 13.0859 43.335 12.1338L63.501 4.07715C65.4541 3.2959 66.5039 1.31836 66.3574-0.65918L65.21-16.333C65.1123-17.6514 66.5039-18.457 67.6025-17.7246L79.4678-9.74121L79.4678 7.9834C79.4678 10.4492 81.4941 12.5 84.0088 12.5ZM21.1426-82.7637C14.7949-82.7637 9.76562-77.6855 9.76562-71.2891C9.76562-65.4785 14.8193-59.2529 21.1426-57.2266C27.5146-59.2529 32.5195-65.4785 32.5195-71.2891C32.5195-77.6855 27.5146-82.7637 21.1426-82.7637ZM21.1426-76.4893C24.0967-76.4893 26.2451-74.2676 26.2451-71.1426C26.2451-68.0908 24.0723-65.0146 21.1426-63.9404C18.2129-65.0146 16.04-68.0908 16.04-71.1426C16.04-74.2676 18.1885-76.4893 21.1426-76.4893Z"/>
  </g>
  <g id="Semibold-S" transform="matrix(1 0 0 1 1994.62 696)">
   <path d="M48.1687-52.3346C53.0735-52.3346 57.0685-56.3295 57.0685-61.2344C57.0685-66.1726 53.0735-70.1342 48.1687-70.1342C43.2305-70.1342 39.2355-66.1726 39.2355-61.2344C39.2355-56.3295 43.2305-52.3346 48.1687-52.3346ZM83.2179 11.9668C85.6015 11.9668 87.5301 10.0049 87.5301 7.65459L87.5301-12.3182C87.5301-13.8406 86.72-14.9925 85.6325-15.918L70.1763-28.6398L67.1667-45.1548C66.8737-46.8482 67.069-48.3819 67.8836-49.9777L80.9117-76.0673C81.9814-78.1734 81.0893-80.7834 78.9498-81.8531C76.8437-82.9073 74.2337-82.064 73.1795-79.9733L60.3467-54.2589C59.4833-52.4988 58.2604-51.358 56.3871-50.5923L33.9174-41.2684L24.9641-48.4794C24.5356-48.7924 24.0895-48.9899 23.661-49.1031L23.661-60.6327L17.9465-60.6327L17.9465-45.2081C17.9465-43.8276 18.4303-42.5804 19.5178-41.7037L30.6594-32.8726C32.0554-31.7362 33.7221-31.8028 35.5242-32.533L47.9176-37.7376C49.316-38.3458 50.0995-37.5711 50.2638-36.539L56.3495-3.0541L39.6503 3.63535C37.462 4.49424 36.3435 7.00654 37.1868 9.24365C38.1767 11.6162 40.5936 12.4994 42.8106 11.6095L62.8167 3.62393C64.681 2.87822 65.6863 0.998437 65.5398-0.899121L64.4013-16.4485C64.2858-17.9091 65.8641-18.777 67.0427-17.9912L78.8901-10.0167L78.8901 7.65459C78.8901 10.0049 80.8187 11.9668 83.2179 11.9668ZM20.7871-81.8572C14.635-81.8572 9.76562-76.9391 9.76562-70.7381C9.76562-65.1053 14.6505-59.0485 20.7871-57.0488C26.9726-59.0485 31.8264-65.1053 31.8264-70.7381C31.8264-76.9391 26.9726-81.8572 20.7871-81.8572ZM20.7871-76.1427C23.839-76.1427 26.1118-73.7877 26.1118-70.5916C26.1118-67.4599 23.8234-64.2415 20.7871-63.1673C17.7686-64.2415 15.4802-67.4599 15.4802-70.5916C15.4802-73.7877 17.753-76.1427 20.7871-76.1427Z"/>
  </g>
  <g id="Medium-S" transform="matrix(1 0 0 1 1698.29 696)">
   <path d="M47.9463-52.1055C52.7568-52.1055 56.6709-56.0195 56.6709-60.8301C56.6709-65.6807 52.7568-69.5547 47.9463-69.5547C43.0957-69.5547 39.1816-65.6807 39.1816-60.8301C39.1816-56.0195 43.0957-52.1055 47.9463-52.1055ZM82.6182 11.5625C84.9209 11.5625 86.7754 9.66797 86.7754 7.40527L86.7754-12.4395C86.7754-13.8945 85.999-15.0127 84.9385-15.918L69.5361-28.5859L66.54-45.0537C66.2471-46.7539 66.4424-48.3213 67.2637-49.9238L80.2109-75.8584C81.2402-77.877 80.375-80.3926 78.3164-81.4219C76.2979-82.4424 73.7822-81.626 72.7617-79.6162L60.0098-54.0635C59.1396-52.2832 57.8965-51.1289 56.0098-50.3564L33.6074-41.0527L24.6406-48.2705C24.165-48.6172 23.6582-48.835 23.1826-48.9414L23.1826-60.0869L17.8926-60.0869L17.8926-45.1475C17.8926-43.7939 18.3359-42.6006 19.3965-41.7441L30.4707-32.9736C31.833-31.8643 33.4121-31.9443 35.1738-32.6543L47.4863-37.8252C49.0195-38.4873 49.8232-37.625 50.001-36.5322L56.0732-3.14844L39.374 3.54102C37.2666 4.36621 36.1885 6.78418 37.0049 8.94043C37.9678 11.2793 40.3105 12.0547 42.4131 11.2119L62.2979 3.28027C64.0947 2.56152 65.0664 0.755859 64.9199-1.08105L63.7881-16.5361C63.6592-18.1045 65.3789-19.0195 66.6182-18.1934L78.4521-10.2256L78.4521 7.40527C78.4521 9.66797 80.3066 11.5625 82.6182 11.5625ZM20.5176-81.1699C14.5137-81.1699 9.76562-76.373 9.76562-70.3203C9.76562-64.8223 14.5225-58.8936 20.5176-56.9141C26.5615-58.8936 31.3008-64.8223 31.3008-70.3203C31.3008-76.373 26.5615-81.1699 20.5176-81.1699ZM20.5176-75.8799C23.6436-75.8799 26.0107-73.4238 26.0107-70.1738C26.0107-66.9814 23.6348-63.6553 20.5176-62.5811C17.4316-63.6553 15.0557-66.9814 15.0557-70.1738C15.0557-73.4238 17.4229-75.8799 20.5176-75.8799Z"/>
  </g>
  <g id="Regular-S" transform="matrix(1 0 0 1 1402.07 696)">
   <path d="M47.6562-51.8066C52.3438-51.8066 56.1523-55.6152 56.1523-60.3027C56.1523-65.0391 52.3438-68.7988 47.6562-68.7988C42.9199-68.7988 39.1113-65.0391 39.1113-60.3027C39.1113-55.6152 42.9199-51.8066 47.6562-51.8066ZM81.8359 11.0352C84.0332 11.0352 85.791 9.22852 85.791 7.08008L85.791-12.5977C85.791-13.9648 85.0586-15.0391 84.0332-15.918L68.7012-28.5156L65.7227-44.9219C65.4297-46.6309 65.625-48.2422 66.4551-49.8535L79.2969-75.5859C80.2734-77.4902 79.4434-79.8828 77.4902-80.8594C75.5859-81.8359 73.1934-81.0547 72.2168-79.1504L59.5703-53.8086C58.6914-52.002 57.4219-50.8301 55.5176-50.0488L33.2031-40.7715L24.2188-47.998C23.6816-48.3887 23.0957-48.6328 22.5586-48.7305L22.5586-59.375L17.8223-59.375L17.8223-45.0684C17.8223-43.75 18.2129-42.627 19.2383-41.7969L30.2246-33.1055C31.543-32.0312 33.0078-32.1289 34.7168-32.8125L46.9238-37.9395C48.6328-38.6719 49.4629-37.6953 49.6582-36.5234L55.7129-3.27148L39.0137 3.41797C37.0117 4.19922 35.9863 6.49414 36.7676 8.54492C37.6953 10.8398 39.9414 11.4746 41.8945 10.6934L61.6211 2.83203C63.3301 2.14844 64.2578 0.439453 64.1113-1.31836L62.9883-16.6504C62.8418-18.3594 64.7461-19.3359 66.0645-18.457L77.8809-10.498L77.8809 7.08008C77.8809 9.22852 79.6387 11.0352 81.8359 11.0352ZM20.166-80.2734C14.3555-80.2734 9.76562-75.6348 9.76562-69.7754C9.76562-64.4531 14.3555-58.6914 20.166-56.7383C26.0254-58.6914 30.6152-64.4531 30.6152-69.7754C30.6152-75.6348 26.0254-80.2734 20.166-80.2734ZM20.166-75.5371C23.3887-75.5371 25.8789-72.9492 25.8789-69.6289C25.8789-66.3574 23.3887-62.8906 20.166-61.8164C16.9922-62.8906 14.502-66.3574 14.502-69.6289C14.502-72.9492 16.9922-75.5371 20.166-75.5371Z"/>
  </g>
  <g id="Light-S" transform="matrix(1 0 0 1 1106.54 696)">
   <path d="M46.1426-51.5493C50.6787-51.5493 54.3662-55.2368 54.3662-59.773C54.3662-64.3579 50.6787-68.0269 46.1426-68.0269C41.5576-68.0269 37.855-64.3579 37.855-59.773C37.855-55.2368 41.5576-51.5493 46.1426-51.5493ZM79.5957 9.62745C81.7173 9.62745 83.4297 7.88136 83.4297 5.79347L83.4297-13.2939C83.4297-14.6309 82.7276-15.6748 81.7173-16.5234L66.8545-28.7275L63.9517-44.6494C63.6587-46.2979 63.854-47.8486 64.669-49.4297L77.1323-74.375C78.0786-76.2339 77.2788-78.5508 75.3862-79.4971C73.5274-80.4434 71.2105-79.6773 70.2642-77.8335L58.0112-53.2637C57.1475-51.5024 55.9082-50.376 54.0645-49.6099L32.4312-40.6201L23.7041-47.6196C22.9551-48.207 22.0361-48.3755 21.3628-48.2461L21.3628-58.6636L17.5195-58.6636L17.5195-44.7959C17.5195-43.5078 17.895-42.415 18.875-41.6152L29.5283-33.1812C30.8164-32.1372 32.2358-32.2349 33.8994-32.9033L45.728-37.8638C47.3765-38.5659 48.1914-37.6348 48.3867-36.4932L54.2598-4.24023L38.0601 2.23731C36.1187 3.00343 35.1235 5.22267 35.8897 7.2129C36.7871 9.43214 38.9727 10.0518 40.8652 9.30079L59.9863 1.66651C61.6499 0.998056 62.5322-0.650382 62.4009-2.34765L61.3233-17.2256C61.1919-18.8892 63.0205-19.8203 64.2783-18.9717L75.7617-11.2549L75.7617 5.79347C75.7617 7.88136 77.459 9.62745 79.5957 9.62745ZM19.4395-78.6084C14.0376-78.6084 9.76562-74.3027 9.76562-68.8672C9.76562-63.8477 13.9468-58.2676 19.4395-56.4355C24.9507-58.2676 29.1318-63.8477 29.1318-68.8672C29.1318-74.3027 24.8599-78.6084 19.4395-78.6084ZM19.4395-74.75C22.7227-74.75 25.2734-72.1318 25.2734-68.7661C25.2734-65.4341 22.874-61.7857 19.4395-60.5601C16.0386-61.7857 13.624-65.4341 13.624-68.7661C13.624-72.1318 16.1748-74.75 19.4395-74.75Z"/>
  </g>
  <g id="Thin-S" transform="matrix(1 0 0 1 811.386 696)">
   <path d="M44.1407-51.209C48.4766-51.209 52.0039-54.7363 52.0039-59.0723C52.0039-63.457 48.4766-67.0059 44.1407-67.0059C39.7559-67.0059 36.1934-63.457 36.1934-59.0723C36.1934-54.7363 39.7559-51.209 44.1407-51.209ZM76.6329 7.76565C78.6543 7.76565 80.3067 6.09963 80.3067 4.09182L80.3067-14.2148C80.3067-15.5117 79.6446-16.5156 78.6543-17.3242L64.4121-29.0078L61.6094-44.2891C61.3164-45.8574 61.5118-47.3281 62.3067-48.8691L74.2696-72.7735C75.1758-74.5723 74.4161-76.7891 72.6036-77.6953C70.8047-78.6016 68.5879-77.8555 67.6817-76.0918L55.9492-52.543C55.1055-50.8418 53.9063-49.7754 52.1426-49.0293L31.4102-40.4199L23.0234-47.1191C21.9942-47.9668 20.6348-48.0352 19.7813-47.6055L19.7813-57.7227L17.1191-57.7227L17.1191-44.4356C17.1191-43.1875 17.4746-42.1348 18.3945-41.375L28.6074-33.2812C29.8555-32.2773 31.2149-32.375 32.8184-33.0234L44.1465-37.7637C45.7149-38.4258 46.5098-37.5547 46.7051-36.4531L52.3379-5.52147L36.7988 0.675803C34.9375 1.4219 33.9824 3.54104 34.7285 5.4512C35.586 7.57034 37.6914 8.16995 39.5039 7.45901L57.8242 0.125021C59.4278-0.523416 60.25-2.09178 60.1387-3.70897L59.1211-17.9863C59.0098-19.5898 60.7383-20.4609 61.916-19.6523L72.959-12.2558L72.959 4.09182C72.959 6.09963 74.5762 7.76565 76.6329 7.76565ZM18.4785-76.4063C13.6172-76.4063 9.76562-72.541 9.76562-67.666C9.76562-63.0469 13.4063-57.707 18.4785-56.0352C23.5293-57.707 27.1699-63.0469 27.1699-67.666C27.1699-72.541 23.3184-76.4063 18.4785-76.4063ZM18.4785-73.709C21.8418-73.709 24.4727-71.0508 24.4727-67.625C24.4727-64.2129 22.1934-60.3242 18.4785-58.8985C14.7774-60.3242 12.4629-64.2129 12.4629-67.625C12.4629-71.0508 15.0938-73.709 18.4785-73.709Z"/>
  </g>
  <g id="Ultralight-S" transform="matrix(1 0 0 1 515.475 696)">
   <path d="M43.1153-51.0347C47.3487-51.0347 50.794-54.48 50.794-58.7134C50.794-62.9956 47.3487-66.4829 43.1153-66.4829C38.833-66.4829 35.3423-62.9956 35.3423-58.7134C35.3423-54.48 38.833-51.0347 43.1153-51.0347ZM75.1153 6.81204C77.0855 6.81204 78.7071 5.18704 78.7071 3.22025L78.7071-14.6865C78.7071-15.9629 78.0655-16.9463 77.0855-17.7344L63.1612-29.1514L60.4097-44.1045C60.1167-45.6318 60.3121-47.0615 61.0967-48.582L72.8033-71.9532C73.689-73.7212 72.9498-75.8868 71.1783-76.7725C69.4102-77.6582 67.2447-76.9224 66.3589-75.1997L54.8931-52.1738C54.0596-50.5034 52.8809-49.4678 51.1582-48.7319L30.8872-40.3174L22.6748-46.8628C21.502-47.8438 19.917-47.8608 18.9712-47.2774L18.9712-57.2407L16.9141-57.2407L16.9141-44.251C16.9141-43.0234 17.2593-41.9912 18.1484-41.252L28.1358-33.3325C29.3633-32.3491 30.6919-32.4468 32.2647-33.085L43.3365-37.7124C44.8638-38.354 45.6485-37.5137 45.8438-36.4326L51.3535-6.17771L36.1529-0.123996C34.3325 0.611845 33.398 2.67972 34.1338 4.54886C34.9707 6.61673 37.0352 7.20609 38.8067 6.51566L56.7168-0.664523C58.2896-1.30271 59.0811-2.83005 58.98-4.40623L57.9932-18.376C57.8921-19.9487 59.5694-20.7891 60.7061-20.001L71.5235-12.7685L71.5235 3.22025C71.5235 5.18704 73.0997 6.81204 75.1153 6.81204ZM17.9863-75.2784C13.4019-75.2784 9.76562-71.6387 9.76562-67.0508C9.76562-62.6367 13.1294-57.4199 17.9863-55.8301C22.8013-57.4199 26.1651-62.6367 26.1651-67.0508C26.1651-71.6387 22.5288-75.2784 17.9863-75.2784ZM17.9863-73.1758C21.3906-73.1758 24.0625-70.4971 24.0625-67.0405C24.0625-63.5874 21.8447-59.5757 17.9863-58.0474C14.1314-59.5757 11.8682-63.5874 11.8682-67.0405C11.8682-70.4971 14.5401-73.1758 17.9863-73.1758Z"/>
  </g>
 </g>
</svg>
