<?xml version="1.0" encoding="UTF-8"?>
<!--Generator: Apple Native CoreSVG 175.5-->
<!DOCTYPE svg
PUBLIC "-//W3C//DTD SVG 1.1//EN"
       "http://www.w3.org/Graphics/SVG/1.1/DTD/svg11.dtd">
<svg version="1.1" xmlns="http://www.w3.org/2000/svg" xmlns:xlink="http://www.w3.org/1999/xlink" width="3300" height="2200">
 <!--glyph: "uni10152B.medium", point size: 100.0, font version: "18.0d12e2", template writer version: "101"-->
 <g id="Notes">
  <rect height="2200" id="artboard" style="fill:white;opacity:1" width="3300" x="0" y="0"/>
  <line style="fill:none;stroke:black;opacity:1;stroke-width:0.5;" x1="263" x2="3036" y1="292" y2="292"/>
  <text style="stroke:none;fill:black;font-family:sans-serif;font-size:13;font-weight:bold;" transform="matrix(1 0 0 1 263 322)">Weight/Scale Variations</text>
  <text style="stroke:none;fill:black;font-family:sans-serif;font-size:13;text-anchor:middle;" transform="matrix(1 0 0 1 559.711 322)">Ultralight</text>
  <text style="stroke:none;fill:black;font-family:sans-serif;font-size:13;text-anchor:middle;" transform="matrix(1 0 0 1 856.422 322)">Thin</text>
  <text style="stroke:none;fill:black;font-family:sans-serif;font-size:13;text-anchor:middle;" transform="matrix(1 0 0 1 1153.13 322)">Light</text>
  <text style="stroke:none;fill:black;font-family:sans-serif;font-size:13;text-anchor:middle;" transform="matrix(1 0 0 1 1449.84 322)">Regular</text>
  <text style="stroke:none;fill:black;font-family:sans-serif;font-size:13;text-anchor:middle;" transform="matrix(1 0 0 1 1746.56 322)">Medium</text>
  <text style="stroke:none;fill:black;font-family:sans-serif;font-size:13;text-anchor:middle;" transform="matrix(1 0 0 1 2043.27 322)">Semibold</text>
  <text style="stroke:none;fill:black;font-family:sans-serif;font-size:13;text-anchor:middle;" transform="matrix(1 0 0 1 2339.98 322)">Bold</text>
  <text style="stroke:none;fill:black;font-family:sans-serif;font-size:13;text-anchor:middle;" transform="matrix(1 0 0 1 2636.69 322)">Heavy</text>
  <text style="stroke:none;fill:black;font-family:sans-serif;font-size:13;text-anchor:middle;" transform="matrix(1 0 0 1 2933.4 322)">Black</text>
  <line style="fill:none;stroke:black;opacity:1;stroke-width:0.5;" x1="263" x2="3036" y1="1903" y2="1903"/>
  <g transform="matrix(1 0 0 1 263 1933)">
   <path d="M9.24805 0.830078C13.5547 0.830078 17.1387-2.74414 17.1387-7.05078C17.1387-11.3574 13.5449-14.9316 9.23828-14.9316C4.94141-14.9316 1.36719-11.3574 1.36719-7.05078C1.36719-2.74414 4.95117 0.830078 9.24805 0.830078ZM9.24805-0.654297C5.70312-0.654297 2.87109-3.49609 2.87109-7.05078C2.87109-10.6055 5.69336-13.4473 9.23828-13.4473C12.793-13.4473 15.6445-10.6055 15.6445-7.05078C15.6445-3.49609 12.8027-0.654297 9.24805-0.654297ZM5.6543-7.05078C5.6543-6.62109 5.95703-6.32812 6.40625-6.32812L8.50586-6.32812L8.50586-4.20898C8.50586-3.76953 8.79883-3.4668 9.22852-3.4668C9.67773-3.4668 9.9707-3.76953 9.9707-4.20898L9.9707-6.32812L12.0898-6.32812C12.5293-6.32812 12.832-6.62109 12.832-7.05078C12.832-7.49023 12.5293-7.79297 12.0898-7.79297L9.9707-7.79297L9.9707-9.90234C9.9707-10.3516 9.67773-10.6543 9.22852-10.6543C8.79883-10.6543 8.50586-10.3516 8.50586-9.90234L8.50586-7.79297L6.40625-7.79297C5.95703-7.79297 5.6543-7.49023 5.6543-7.05078Z"/>
  </g>
  <g transform="matrix(1 0 0 1 281.867 1933)">
   <path d="M11.709 2.91016C17.1582 2.91016 21.6699-1.61133 21.6699-7.05078C21.6699-12.5 17.1484-17.0117 11.6992-17.0117C6.25977-17.0117 1.74805-12.5 1.74805-7.05078C1.74805-1.61133 6.26953 2.91016 11.709 2.91016ZM11.709 1.25C7.09961 1.25 3.41797-2.44141 3.41797-7.05078C3.41797-11.6602 7.08984-15.3516 11.6992-15.3516C16.3086-15.3516 20.0098-11.6602 20.0098-7.05078C20.0098-2.44141 16.3184 1.25 11.709 1.25ZM7.17773-7.05078C7.17773-6.57227 7.50977-6.25 8.00781-6.25L10.8789-6.25L10.8789-3.36914C10.8789-2.88086 11.2109-2.53906 11.6895-2.53906C12.1777-2.53906 12.5195-2.87109 12.5195-3.36914L12.5195-6.25L15.4004-6.25C15.8887-6.25 16.2305-6.57227 16.2305-7.05078C16.2305-7.53906 15.8887-7.88086 15.4004-7.88086L12.5195-7.88086L12.5195-10.752C12.5195-11.25 12.1777-11.5918 11.6895-11.5918C11.2109-11.5918 10.8789-11.25 10.8789-10.752L10.8789-7.88086L8.00781-7.88086C7.50977-7.88086 7.17773-7.53906 7.17773-7.05078Z"/>
  </g>
  <g transform="matrix(1 0 0 1 305.646 1933)">
   <path d="M14.9707 5.66406C21.9336 5.66406 27.6953-0.0976562 27.6953-7.05078C27.6953-14.0137 21.9238-19.7754 14.9609-19.7754C8.00781-19.7754 2.25586-14.0137 2.25586-7.05078C2.25586-0.0976562 8.01758 5.66406 14.9707 5.66406ZM14.9707 3.84766C8.93555 3.84766 4.08203-1.01562 4.08203-7.05078C4.08203-13.0957 8.92578-17.9492 14.9609-17.9492C21.0059-17.9492 25.8691-13.0957 25.8691-7.05078C25.8691-1.01562 21.0156 3.84766 14.9707 3.84766ZM9.19922-7.05078C9.19922-6.5332 9.57031-6.17188 10.1172-6.17188L14.0625-6.17188L14.0625-2.2168C14.0625-1.67969 14.4336-1.29883 14.9512-1.29883C15.4883-1.29883 15.8594-1.66992 15.8594-2.2168L15.8594-6.17188L19.8145-6.17188C20.3516-6.17188 20.7324-6.5332 20.7324-7.05078C20.7324-7.59766 20.3613-7.96875 19.8145-7.96875L15.8594-7.96875L15.8594-11.9141C15.8594-12.4609 15.4883-12.8418 14.9512-12.8418C14.4336-12.8418 14.0625-12.4609 14.0625-11.9141L14.0625-7.96875L10.1172-7.96875C9.57031-7.96875 9.19922-7.59766 9.19922-7.05078Z"/>
  </g>
  <text style="stroke:none;fill:black;font-family:sans-serif;font-size:13;font-weight:bold;" transform="matrix(1 0 0 1 263 1953)">Design Variations</text>
  <text style="stroke:none;fill:black;font-family:sans-serif;font-size:13;" transform="matrix(1 0 0 1 263 1971)">Symbols are supported in up to nine weights and three scales.</text>
  <text style="stroke:none;fill:black;font-family:sans-serif;font-size:13;" transform="matrix(1 0 0 1 263 1989)">For optimal layout with text and other symbols, vertically align</text>
  <text style="stroke:none;fill:black;font-family:sans-serif;font-size:13;" transform="matrix(1 0 0 1 263 2007)">symbols with the adjacent text.</text>
  <line style="fill:none;stroke:#00AEEF;stroke-width:0.5;opacity:1.0;" x1="776" x2="776" y1="1919" y2="1933"/>
  <g transform="matrix(1 0 0 1 776 1933)">
   <path d="M3.31055 0.15625C3.82812 0.15625 4.08203-0.0390625 4.26758-0.585938L5.52734-4.0332L11.2891-4.0332L12.5488-0.585938C12.7344-0.0390625 12.9883 0.15625 13.4961 0.15625C14.0137 0.15625 14.3457-0.15625 14.3457-0.644531C14.3457-0.810547 14.3164-0.966797 14.2383-1.17188L9.6582-13.3691C9.43359-13.9648 9.0332-14.2676 8.4082-14.2676C7.80273-14.2676 7.39258-13.9746 7.17773-13.3789L2.59766-1.16211C2.51953-0.957031 2.49023-0.800781 2.49023-0.634766C2.49023-0.146484 2.80273 0.15625 3.31055 0.15625ZM6.00586-5.51758L8.37891-12.0898L8.42773-12.0898L10.8008-5.51758Z"/>
  </g>
  <line style="fill:none;stroke:#00AEEF;stroke-width:0.5;opacity:1.0;" x1="793.197" x2="793.197" y1="1919" y2="1933"/>
  <text style="stroke:none;fill:black;font-family:sans-serif;font-size:13;font-weight:bold;" transform="matrix(1 0 0 1 776 1953)">Margins</text>
  <text style="stroke:none;fill:black;font-family:sans-serif;font-size:13;" transform="matrix(1 0 0 1 776 1971)">Leading and trailing margins on the left and right side of each symbol</text>
  <text style="stroke:none;fill:black;font-family:sans-serif;font-size:13;" transform="matrix(1 0 0 1 776 1989)">can be adjusted by modifying the x-location of the margin guidelines.</text>
  <text style="stroke:none;fill:black;font-family:sans-serif;font-size:13;" transform="matrix(1 0 0 1 776 2007)">Modifications are automatically applied proportionally to all</text>
  <text style="stroke:none;fill:black;font-family:sans-serif;font-size:13;" transform="matrix(1 0 0 1 776 2025)">scales and weights.</text>
  <g transform="matrix(1 0 0 1 1289 1933)">
   <path d="M2.8418 1.86523L4.54102 3.57422C5.40039 4.44336 6.38672 4.38477 7.31445 3.35938L18.0078-8.42773L17.041-9.4043L6.42578 2.27539C6.07422 2.67578 5.74219 2.77344 5.27344 2.30469L4.10156 1.14258C3.63281 0.683594 3.74023 0.341797 4.14062-0.0195312L15.6152-10.8203L14.6387-11.7871L3.04688-0.898438C2.06055 0.0195312 1.98242 0.996094 2.8418 1.86523ZM9.25781-16.3281C8.83789-15.918 8.80859-15.3418 9.04297-14.9512C9.27734-14.5898 9.73633-14.3555 10.3809-14.5215C11.8457-14.8633 13.3691-14.9219 14.7949-13.9844L14.209-12.5293C13.8672-11.6992 14.043-11.1133 14.5801-10.5664L16.875-8.25195C17.3633-7.76367 17.7734-7.74414 18.3398-7.8418L19.4043-8.03711L20.0684-7.36328L20.0293-6.80664C19.9902-6.30859 20.1172-5.92773 20.6055-5.44922L21.3672-4.70703C21.8457-4.22852 22.4609-4.19922 22.9297-4.66797L25.8398-7.58789C26.3086-8.05664 26.2891-8.65234 25.8105-9.13086L25.0391-9.89258C24.5605-10.3711 24.1895-10.5273 23.7109-10.4883L23.1348-10.4395L22.4902-11.0742L22.7344-12.1973C22.8613-12.7637 22.7051-13.2031 22.1191-13.7891L19.9219-15.9766C16.582-19.2969 12.1484-19.2188 9.25781-16.3281ZM10.752-15.957C13.1836-17.7344 16.4746-17.4316 18.7012-15.2051L21.1328-12.793C21.3672-12.5586 21.4062-12.373 21.3379-12.0312L21.0156-10.5469L22.5195-9.0625L23.5059-9.12109C23.7598-9.13086 23.8379-9.11133 24.0332-8.91602L24.6094-8.33984L22.168-5.89844L21.5918-6.47461C21.3965-6.66992 21.3672-6.74805 21.377-7.01172L21.4453-7.98828L19.9512-9.47266L18.4277-9.21875C18.1055-9.15039 17.959-9.17969 17.7148-9.41406L15.7129-11.416C15.459-11.6504 15.4297-11.8164 15.5859-12.1875L16.4648-14.2773C14.9023-15.7324 12.8711-16.3574 10.8398-15.7617C10.6836-15.7227 10.625-15.8496 10.752-15.957Z"/>
  </g>
  <text style="stroke:none;fill:black;font-family:sans-serif;font-size:13;font-weight:bold;" transform="matrix(1 0 0 1 1289 1953)">Exporting</text>
  <text style="stroke:none;fill:black;font-family:sans-serif;font-size:13;" transform="matrix(1 0 0 1 1289 1971)">Symbols should be outlined when exporting to ensure the</text>
  <text style="stroke:none;fill:black;font-family:sans-serif;font-size:13;" transform="matrix(1 0 0 1 1289 1989)">design is preserved when submitting to Xcode.</text>
  <text id="template-version" style="stroke:none;fill:black;font-family:sans-serif;font-size:13;text-anchor:end;" transform="matrix(1 0 0 1 3036 1933)">Template v.4.0</text>
  <text style="stroke:none;fill:black;font-family:sans-serif;font-size:13;text-anchor:end;" transform="matrix(1 0 0 1 3036 1951)">Requires Xcode 14 or greater</text>
  <text id="descriptive-name" style="stroke:none;fill:black;font-family:sans-serif;font-size:13;text-anchor:end;" transform="matrix(1 0 0 1 3036 1969)">Generated from figure.hand.cycling</text>
  <text style="stroke:none;fill:black;font-family:sans-serif;font-size:13;text-anchor:end;" transform="matrix(1 0 0 1 3036 1987)">Typeset at 100 points</text>
  <text style="stroke:none;fill:black;font-family:sans-serif;font-size:13;" transform="matrix(1 0 0 1 263 726)">Small</text>
  <text style="stroke:none;fill:black;font-family:sans-serif;font-size:13;" transform="matrix(1 0 0 1 263 1156)">Medium</text>
  <text style="stroke:none;fill:black;font-family:sans-serif;font-size:13;" transform="matrix(1 0 0 1 263 1586)">Large</text>
 </g>
 <g id="Guides">
  <g id="H-reference" style="fill:#27AAE1;stroke:none;" transform="matrix(1 0 0 1 339 696)">
   <path d="M0.993654 0L3.63775 0L29.3281-67.1323L30.0303-67.1323L30.0303-70.459L28.1226-70.459ZM11.6885-24.4799L46.9815-24.4799L46.2315-26.7285L12.4385-26.7285ZM55.1196 0L57.7637 0L30.6382-70.459L29.4326-70.459L29.4326-67.1323Z"/>
  </g>
  <line id="Baseline-S" style="fill:none;stroke:#27AAE1;opacity:1;stroke-width:0.5;" x1="263" x2="3036" y1="696" y2="696"/>
  <line id="Capline-S" style="fill:none;stroke:#27AAE1;opacity:1;stroke-width:0.5;" x1="263" x2="3036" y1="625.541" y2="625.541"/>
  <g id="H-reference" style="fill:#27AAE1;stroke:none;" transform="matrix(1 0 0 1 339 1126)">
   <path d="M0.993654 0L3.63775 0L29.3281-67.1323L30.0303-67.1323L30.0303-70.459L28.1226-70.459ZM11.6885-24.4799L46.9815-24.4799L46.2315-26.7285L12.4385-26.7285ZM55.1196 0L57.7637 0L30.6382-70.459L29.4326-70.459L29.4326-67.1323Z"/>
  </g>
  <line id="Baseline-M" style="fill:none;stroke:#27AAE1;opacity:1;stroke-width:0.5;" x1="263" x2="3036" y1="1126" y2="1126"/>
  <line id="Capline-M" style="fill:none;stroke:#27AAE1;opacity:1;stroke-width:0.5;" x1="263" x2="3036" y1="1055.54" y2="1055.54"/>
  <g id="H-reference" style="fill:#27AAE1;stroke:none;" transform="matrix(1 0 0 1 339 1556)">
   <path d="M0.993654 0L3.63775 0L29.3281-67.1323L30.0303-67.1323L30.0303-70.459L28.1226-70.459ZM11.6885-24.4799L46.9815-24.4799L46.2315-26.7285L12.4385-26.7285ZM55.1196 0L57.7637 0L30.6382-70.459L29.4326-70.459L29.4326-67.1323Z"/>
  </g>
  <line id="Baseline-L" style="fill:none;stroke:#27AAE1;opacity:1;stroke-width:0.5;" x1="263" x2="3036" y1="1556" y2="1556"/>
  <line id="Capline-L" style="fill:none;stroke:#27AAE1;opacity:1;stroke-width:0.5;" x1="263" x2="3036" y1="1485.54" y2="1485.54"/>
  <line id="left-margin-Regular-M" style="fill:none;stroke:#00AEEF;stroke-width:0.5;opacity:1.0;" x1="1391.43" x2="1391.43" y1="1030.79" y2="1150.12"/>
  <line id="right-margin-Regular-M" style="fill:none;stroke:#00AEEF;stroke-width:0.5;opacity:1.0;" x1="1508.26" x2="1508.26" y1="1030.79" y2="1150.12"/>
 </g>
 <g id="Symbols">
  <g id="Black-L" transform="matrix(1 0 0 1 2849.58 1556)">
   <path d="M44.1404-78.6286C52.6664-78.6286 59.6317-85.573 59.6317-94.1211C59.6317-102.647 52.6664-109.611 44.1404-109.611C35.6143-109.611 28.6491-102.647 28.6491-94.1211C28.6491-85.573 35.6143-78.6286 44.1404-78.6286ZM67.1581 34.6059C70.9113 35.6646 75.4443 33.7081 76.7222 29.0375L86.7087-7.14589C88.1474-12.3419 85.8913-16.3132 80.5969-17.8312L52.4114-25.8404L54.6387-50.339C54.6608-50.8291 54.0256-50.5304 54.4342-50.2451L67.9103-40.6167C70.7073-38.5798 74.3206-38.5798 77.1164-40.6167L100.659-57.3632C104.156-59.8606 105.033-64.8309 102.478-68.3077C100.002-71.9794 94.9717-72.6799 91.4169-70.1838L72.5834-56.6703L57.1786-67.7372C53.5942-70.3006 49.2495-72.1622 43.9423-72.1622C34.7377-72.1622 27.7944-66.3204 27.2327-58.1149L25.0065-26.6287C24.3059-16.7367 29.2475-9.23291 40.3578-7.61133L69.2979-3.41466L61.5664 24.9625C60.2885 29.5552 62.9235 33.4669 67.1581 34.6059ZM131.423-44.4187C142.525-44.4187 151.552-53.4469 151.552-64.5679C151.552-75.689 142.525-84.6756 131.423-84.6756C120.26-84.6756 111.295-75.689 111.295-64.5679C111.295-53.4469 120.26-44.4187 131.423-44.4187ZM131.423-55.8296C126.523-55.8296 122.685-59.6674 122.685-64.5679C122.685-69.4268 126.523-73.2646 131.423-73.2646C136.303-73.2646 140.141-69.4268 140.141-64.5679C140.141-59.6674 136.303-55.8296 131.423-55.8296ZM87.7594 39.0455L124.983 39.0455C130.782 39.0455 132.652 31.6286 127.809 28.4263L116.372 20.7807C117.272 19.0027 117.9 17.0661 118.407 15.0784L134.145-47.7637L122.871-50.4143L107.193 12.3122C104.919 21.5073 97.2786 27.4737 87.7594 27.4737C84.4767 27.4737 81.9858 30.2411 81.9858 33.2498C81.9858 36.2781 84.4767 39.0455 87.7594 39.0455ZM31.9825 11.9942L45.2382 9.20626C47.7727 8.65215 49.3563 6.31845 49.3563 3.87872C49.3563 1.24295 47.3587-0.87151 44.9618-1.28679L22.6602-5.09694C17.4031-5.97034 15.1926-0.926427 17.0354 2.64473L18.2977 5.11334C20.972 10.329 25.5342 13.3721 31.9825 11.9942ZM21.9477 39.0455L50.5864 39.0455C53.8923 39.0455 56.3833 36.2792 56.3833 33.2498C56.3833 30.2399 53.8923 27.4737 50.5864 27.4737C47.2591 27.4737 44.7644 25.6877 44.0086 22.195L39.636 2.62114L28.3626 5.17051L31.645 19.9901L18.8014 28.4263C13.9803 31.6286 15.9267 39.0455 21.9477 39.0455Z"/>
  </g>
  <g id="Heavy-L" transform="matrix(1 0 0 1 2555 1556)">
   <path d="M42.6597-77.7307C50.9486-77.7307 57.7176-84.4695 57.7176-92.7942C57.7176-101.083 50.9486-107.846 42.6597-107.846C34.3708-107.846 27.6019-101.083 27.6019-92.7942C27.6019-84.4695 34.3708-77.7307 42.6597-77.7307ZM65.3376 33.6815C68.9122 34.6943 73.244 32.8294 74.4623 28.3782L84.3131-7.35279C85.6923-12.3525 83.5415-16.1269 78.4715-17.5809L50.4405-25.5366L52.6453-49.9534C52.6811-50.4987 52.3999-50.3654 52.8591-50.0525L66.1543-40.5322C68.8323-38.5869 72.2762-38.5869 74.9485-40.5322L98.1749-57.0664C101.53-59.4585 102.351-64.1955 99.9204-67.5256C97.5585-71.0142 92.7712-71.6966 89.3719-69.3101L70.6168-55.8536L55.2502-66.8999C51.7523-69.3994 47.5218-71.2108 42.3375-71.2108C33.4021-71.2108 26.6689-65.5566 26.1116-57.5837L23.9125-26.509C23.2301-16.8586 28.0211-9.57377 38.8397-7.99796L67.6986-3.814L59.993 24.482C58.7746 28.864 61.2861 32.5882 65.3376 33.6815ZM127.938-44.9827C138.594-44.9827 147.29-53.6844 147.29-64.3648C147.29-75.0452 138.594-83.6865 127.938-83.6865C117.197-83.6865 108.586-75.0452 108.586-64.3648C108.586-53.6844 117.197-44.9827 127.938-44.9827ZM127.938-55.2691C122.814-55.2691 118.843-59.2404 118.843-64.3648C118.843-69.4288 122.814-73.4001 127.938-73.4001C133.032-73.4001 137.004-69.4288 137.004-64.3648C137.004-59.2404 133.032-55.2691 127.938-55.2691ZM84.8169 37.1835L121.571 37.1835C126.818 37.1835 128.457 30.4952 124.101 27.6161L112.421 19.8012C113.407 17.9636 114.072 15.9764 114.602 13.8839L130.076-47.8568L119.903-50.2526L104.485 11.4045C102.197 20.6597 94.405 26.7363 84.8169 26.7363C81.8573 26.7363 79.6168 29.2213 79.6168 31.9476C79.6168 34.6985 81.8573 37.1835 84.8169 37.1835ZM31.2308 10.911L44.3149 8.15451C46.598 7.65996 48.036 5.56339 48.036 3.33377C48.036 0.940095 46.2341-0.951009 44.0705-1.32052L22.0536-5.08102C17.2393-5.88603 15.2891-1.34344 16.9582 1.91671L18.1979 4.3627C20.7585 9.38697 25.0654 12.2343 31.2308 10.911ZM21.4094 37.1835L49.6774 37.1835C52.6784 37.1835 54.9189 34.7041 54.9189 31.9476C54.9189 29.2157 52.6784 26.7363 49.6774 26.7363C46.1582 26.7363 43.5362 24.9828 42.7026 21.1334L38.5026 2.30518L28.3356 4.59037L31.5364 19.0879L18.5637 27.6161C14.2434 30.4952 15.94 37.1835 21.4094 37.1835Z"/>
  </g>
  <g id="Bold-L" transform="matrix(1 0 0 1 2260.93 1556)">
   <path d="M40.883-76.6166C48.8798-76.6166 55.4104-83.1092 55.4104-91.1573C55.4104-99.1542 48.8798-105.672 40.883-105.672C32.8861-105.672 26.3555-99.1542 26.3555-91.1573C26.3555-83.1092 32.8861-76.6166 40.883-76.6166ZM63.1085 32.4546C66.4752 33.4136 70.5684 31.6564 71.7174 27.4668L81.3843-7.65116C82.6942-12.4125 80.6666-15.956 75.8583-17.3331L48.094-25.2048L50.2681-49.4472C50.3193-50.0542 50.4314-50.1058 50.9447-49.7621L63.9947-40.3949C66.534-38.5574 69.7779-38.5574 72.304-40.3949L95.1012-56.638C98.2867-58.9069 99.0468-63.367 96.762-66.5276C94.5311-69.8007 90.0286-70.46 86.8139-68.2044L68.2108-54.8543L52.9351-65.8403C49.5447-68.2628 45.4527-70.0128 40.422-70.0128C31.817-70.0128 25.3377-64.5816 24.788-56.8932L22.6271-26.3779C21.9678-17.0271 26.5743-10.0113 37.0317-8.48934L65.7087-4.33567L58.0562 23.7784C56.9072 27.9141 59.2725 31.4151 63.1085 32.4546ZM123.657-45.6298C133.745-45.6298 142.004-53.9019 142.004-64.0144C142.004-74.1268 133.745-82.323 123.657-82.323C113.469-82.323 105.311-74.1268 105.311-64.0144C105.311-53.9019 113.469-45.6298 123.657-45.6298ZM123.657-54.503C118.264-54.503 114.146-58.6208 114.146-64.0144C114.146-69.332 118.264-73.4498 123.657-73.4498C129.013-73.4498 133.131-69.332 133.131-64.0144C133.131-58.6208 129.013-54.503 123.657-54.503ZM81.2789 34.841L117.389 34.841C121.945 34.841 123.292 29.0668 119.55 26.5947L107.578 18.5798C108.68 16.6728 109.383 14.6315 109.944 12.4084L125.087-47.9423L116.297-50.0156L101.209 10.29C98.9062 19.6071 90.9442 25.807 81.2789 25.807C78.7264 25.807 76.8008 27.9387 76.8008 30.3117C76.8008 32.7094 78.7264 34.841 81.2789 34.841ZM30.2936 9.544L43.1403 6.83344C45.1233 6.40818 46.377 4.60366 46.377 2.62781C46.377 0.526362 44.8209-1.08812 42.9342-1.40376L21.3081-5.09533C17.0319-5.81581 15.397-1.89557 16.8584 0.995249L18.0675 3.41059C20.4823 8.19669 24.4741 10.7982 30.2936 9.544ZM20.7484 34.841L48.5107 34.841C51.1277 34.841 53.0533 32.7226 53.0533 30.3117C53.0533 27.9255 51.1277 25.807 48.5107 25.807C44.7608 25.807 41.9775 24.0845 41.0516 19.812L37.0741 1.93567L28.2973 3.89055L31.3907 17.9662L18.2791 26.5947C14.5886 29.0668 15.9628 34.841 20.7484 34.841Z"/>
  </g>
  <g id="Semibold-L" transform="matrix(1 0 0 1 1966.04 1556)">
   <path d="M39.6581-75.8486C47.4536-75.8486 53.8198-82.1715 53.8198-90.0288C53.8198-97.8244 47.4536-104.172 39.6581-104.172C31.8625-104.172 25.4963-97.8244 25.4963-90.0288C25.4963-82.1715 31.8625-75.8486 39.6581-75.8486ZM61.5717 31.6088C64.7951 32.5306 68.7239 30.8477 69.8252 26.8384L79.3652-7.85685C80.6273-12.4539 78.6846-15.8382 74.0568-17.1622L46.4763-24.9761L48.6292-49.0982C48.6911-49.7477 49.0743-49.9269 49.6249-49.5619L62.5058-40.3003C64.9496-38.537 68.0555-38.537 70.4809-40.3003L92.9822-56.3426C96.051-58.5266 96.7687-62.7957 94.5846-65.8396C92.444-68.9641 88.1378-69.6076 85.0505-67.4421L66.5521-54.1654L51.339-65.1097C48.0228-67.4792 44.0262-69.1868 39.1014-69.1868C30.7243-69.1868 24.4199-63.9095 23.8754-56.4171L21.741-26.2875C21.0975-17.1433 25.5769-10.3129 35.7853-8.8281L64.3369-4.69531L56.7211 23.2934C55.6198 27.2592 57.8843 30.6065 61.5717 31.6088ZM120.706-46.0759C130.402-46.0759 138.359-54.0519 138.359-63.7728C138.359-73.4938 130.402-81.3831 120.706-81.3831C110.898-81.3831 103.052-73.4938 103.052-63.7728C103.052-54.0519 110.898-46.0759 120.706-46.0759ZM120.706-53.9748C115.127-53.9748 110.908-58.1937 110.908-63.7728C110.908-69.2653 115.127-73.4841 120.706-73.4841C126.242-73.4841 130.461-69.2653 130.461-63.7728C130.461-58.1937 126.242-53.9748 120.706-53.9748ZM78.8399 33.2262L114.507 33.2262C118.586 33.2262 119.732 28.082 116.413 25.8905L104.24 17.7377C105.421 15.783 106.151 13.7044 106.732 11.3913L121.648-48.0012L113.811-49.8521L98.9508 9.52166C96.6372 18.8814 88.5583 25.1664 78.8399 25.1664C76.568 25.1664 74.8594 27.0545 74.8594 29.1838C74.8594 31.3381 76.568 33.2262 78.8399 33.2262ZM29.6474 8.60163L42.3304 5.92271C44.1067 5.54521 45.2333 3.94202 45.2333 2.14112C45.2333 0.241137 43.8466-1.18264 42.1509-1.46114L20.7941-5.1052C16.889-5.7674 15.4715-2.27621 16.7896 0.359999L17.9776 2.75421C20.2918 7.37612 24.0664 9.80821 29.6474 8.60163ZM20.2927 33.2262L47.7064 33.2262C50.0586 33.2262 51.7672 31.3565 51.7672 29.1838C51.7672 27.036 50.0586 25.1664 47.7064 25.1664C43.7974 25.1664 40.9029 23.4653 39.9134 18.901L36.0894 1.68093L28.2709 3.40809L31.2903 17.1928L18.0829 25.8905C14.8265 28.082 15.9786 33.2262 20.2927 33.2262Z"/>
  </g>
  <g id="Medium-L" transform="matrix(1 0 0 1 1670.72 1556)">
   <path d="M38.7293-75.2662C46.3722-75.2662 52.6138-81.4604 52.6138-89.1732C52.6138-96.8161 46.3722-103.035 38.7293-103.035C31.0864-103.035 24.8448-96.8161 24.8448-89.1732C24.8448-81.4604 31.0864-75.2662 38.7293-75.2662ZM60.4065 30.9674C63.5212 31.8611 67.3253 30.2346 68.3903 26.362L77.8343-8.01281C79.0601-12.4852 77.1818-15.7489 72.6909-17.0327L45.2497-24.8026L47.3866-48.8336C47.4565-49.5153 48.0453-49.7912 48.6242-49.4101L61.3769-40.2285C63.7483-38.5215 66.7496-38.5215 69.0985-40.2285L91.3755-56.1187C94.3558-58.2383 95.0413-62.3626 92.9336-65.3179C90.8615-68.3298 86.7042-68.9612 83.7134-66.8641L65.2944-53.643L50.1288-64.5558C46.8689-66.8851 42.9446-68.5605 38.1001-68.5605C29.8958-68.5605 23.724-63.3998 23.1835-56.0562L21.0691-26.2189C20.4376-17.2314 24.8206-10.5416 34.8402-9.08496L63.2967-4.968L55.7087 22.9256C54.6436 26.7627 56.8317 29.9933 60.4065 30.9674ZM118.468-46.4141C127.867-46.4141 135.596-54.1656 135.596-63.5897C135.596-73.0137 127.867-80.6704 118.468-80.6704C108.949-80.6704 101.34-73.0137 101.34-63.5897C101.34-54.1656 108.949-46.4141 118.468-46.4141ZM118.468-53.5743C112.748-53.5743 108.453-57.8698 108.453-63.5897C108.453-69.2147 112.748-73.5102 118.468-73.5102C124.14-73.5102 128.436-69.2147 128.436-63.5897C128.436-57.8698 124.14-53.5743 118.468-53.5743ZM76.9905 32.0017L112.321 32.0017C116.039 32.0017 117.032 27.3353 114.035 25.3566L101.709 17.0992C102.95 15.1082 103.7 13.0014 104.297 10.62L119.041-48.0459L111.926-49.7282L97.2385 8.93909C94.9168 18.3311 86.7492 24.6806 76.9905 24.6806C74.9314 24.6806 73.3874 26.384 73.3874 28.3287C73.3874 30.2983 74.9314 32.0017 76.9905 32.0017ZM29.1575 7.88709L41.7164 5.23215C43.3358 4.89088 44.3661 3.44035 44.3661 1.7721C44.3661 0.0248671 43.1079-1.25431 41.557-1.50465L20.4044-5.11268C16.7806-5.7307 15.5279-2.56483 16.7375-0.121674L17.9094 2.25651C20.1474 6.75392 23.7573 9.05753 29.1575 7.88709ZM19.9472 32.0017L47.0966 32.0017C49.248 32.0017 50.792 30.3208 50.792 28.3287C50.792 26.3616 49.248 24.6806 47.0966 24.6806C43.0669 24.6806 40.0882 22.9958 39.0503 18.2102L35.3427 1.48778L28.2509 3.04228L31.2142 16.6065L17.9341 25.3566C15.007 27.3353 15.9905 32.0017 19.9472 32.0017Z"/>
  </g>
  <g id="Regular-L" transform="matrix(1 0 0 1 1375.81 1556)">
   <path d="M37.5179-74.5066C44.9616-74.5066 51.0408-80.533 51.0408-88.0571C51.0408-95.5009 44.9616-101.552 37.5179-101.552C30.0741-101.552 23.9949-95.5009 23.9949-88.0571C23.9949-80.533 30.0741-74.5066 37.5179-74.5066ZM58.8866 30.1309C61.8596 30.9879 65.501 29.4348 66.5188 25.7406L75.8374-8.21625C77.016-12.5262 75.2217-15.6323 70.9092-16.8637L43.6498-24.5764L45.7658-48.4884C45.8462-49.2122 46.7032-49.6143 47.3189-49.2122L59.9044-40.1349C62.1813-38.5014 65.0462-38.5014 67.2954-40.1349L89.2798-55.8266C92.1447-57.8622 92.7881-61.7977 90.7802-64.6375C88.7973-67.5024 84.8342-68.1181 81.9693-66.1102L63.6539-52.9617L48.5503-63.8333C45.3637-66.1102 41.5337-67.7437 36.7941-67.7437C28.815-67.7437 22.8163-62.7351 22.281-55.5853L20.1927-26.1295C19.577-17.3463 23.8341-10.8399 33.6075-9.41999L61.94-5.32368L54.3882 22.4459C53.3704 26.115 55.4588 29.1935 58.8866 30.1309ZM115.549-46.8553C124.561-46.8553 131.992-54.3139 131.992-63.3508C131.992-72.3876 124.561-79.7407 115.549-79.7407C106.407-79.7407 99.1064-72.3876 99.1064-63.3508C99.1064-54.3139 106.407-46.8553 115.549-46.8553ZM115.549-53.0519C109.646-53.0519 105.25-57.4474 105.25-63.3508C105.25-69.1487 109.646-73.5441 115.549-73.5441C121.4-73.5441 125.795-69.1487 125.795-63.3508C125.795-57.4474 121.4-53.0519 115.549-53.0519ZM74.5783 30.4045L109.47 30.4045C112.717 30.4045 113.511 26.3614 110.932 24.6602L98.4069 16.2663C99.7264 14.2282 100.503 12.0845 101.121 9.61403L115.639-48.1041L109.468-49.5666L95.005 8.17922C92.6728 17.6135 84.3895 24.047 74.5783 24.047C72.7967 24.047 71.4674 25.5095 71.4674 27.2132C71.4674 28.9421 72.7967 30.4045 74.5783 30.4045ZM28.5185 6.95507L40.9155 4.33142C42.3303 4.03739 43.2349 2.78598 43.2349 1.29076C43.2349-0.257224 42.1444-1.3478 40.7823-1.5614L19.8961-5.12243C16.6393-5.68282 15.6015-2.94129 16.6695-0.749944L17.8205 1.60734C19.959 5.94237 23.3541 8.0784 28.5185 6.95507ZM19.4965 30.4045L46.3011 30.4045C48.1908 30.4045 49.52 28.9697 49.52 27.2132C49.52 25.4819 48.1908 24.047 46.3011 24.047C42.1141 24.047 39.0254 22.3833 37.9247 17.3092L34.3687 1.23584L28.2248 2.56512L31.1149 15.8417L17.74 24.6602C15.2423 26.3614 16.0061 30.4045 19.4965 30.4045Z"/>
  </g>
  <g id="Light-L" transform="matrix(1 0 0 1 1080.95 1556)">
   <path d="M36.659-73.7241C43.9119-73.7241 49.8575-79.636 49.8575-86.9693C49.8575-94.2222 43.9119-100.121 36.659-100.121C29.4061-100.121 23.4606-94.2222 23.4606-86.9693C23.4606-79.636 29.4061-73.7241 36.659-73.7241ZM57.5125 28.7568C60.4282 29.5946 63.9742 28.0797 64.9729 24.5L74.0624-8.69338C75.222-12.8697 73.4658-15.8995 69.2297-17.0928L42.6383-24.6337L44.7161-47.954C44.7965-48.6778 45.6344-49.0799 46.231-48.6778L58.5112-39.8295C60.7499-38.2342 63.5384-38.2342 65.7304-39.8295L87.1805-55.1395C89.969-57.137 90.6124-60.9579 88.6617-63.7596C86.6979-66.5481 82.8302-67.1447 80.0417-65.1941L62.1844-52.351L47.4243-62.9554C44.314-65.1941 40.5604-66.7894 35.9352-66.7894C28.1661-66.7894 22.301-61.8762 21.7848-54.8983L19.7537-26.1486C19.1571-17.5753 23.2997-11.2407 32.825-9.83987L60.5086-5.85807L53.1286 21.2626C52.1298 24.8554 54.161 27.8385 57.5125 28.7568ZM112.82-46.9698C121.335-46.9698 128.289-53.9704 128.289-62.4728C128.289-70.9753 121.335-77.9085 112.82-77.9085C104.25-77.9085 97.3505-70.9753 97.3505-62.4728C97.3505-53.9704 104.25-46.9698 112.82-46.9698ZM112.82-52.0595C106.783-52.0595 102.407-56.4358 102.407-62.4728C102.407-68.4425 106.783-72.8188 112.82-72.8188C118.823-72.8188 123.2-68.4425 123.2-62.4728C123.2-56.4358 118.823-52.0595 112.82-52.0595ZM72.8224 28.5533L106.874 28.5533C109.587 28.5533 110.152 25.2163 108.07 23.8395L95.3914 15.3693C96.8445 13.3121 97.602 11.1875 98.2584 8.62159L112.528-47.9705L107.426-49.1658L93.2491 7.47306C90.9169 16.8691 82.6337 23.3027 72.8224 23.3027C71.3653 23.3027 70.2841 24.498 70.2841 25.9345C70.2841 27.358 71.3653 28.5533 72.8224 28.5533ZM27.8314 5.84812L39.904 3.30081C41.1852 3.02588 41.9371 1.96532 41.9371 0.603691C41.9371-0.791611 41.0374-1.69133 39.7899-1.88585L19.419-5.35146C16.4675-5.85459 15.6015-3.55202 16.5741-1.51335L17.6869 0.805759C19.6919 4.96902 22.877 6.9142 27.8314 5.84812ZM19.0767 28.5533L45.2323 28.5533C46.8166 28.5533 47.8978 27.4047 47.8978 25.9345C47.8978 24.4513 46.8166 23.3027 45.2323 23.3027C40.9309 23.3027 37.7085 21.6008 36.5696 16.355L33.2236 1.12133L28.1676 2.2025L30.9431 15.0401L17.6064 23.8395C15.6049 25.2163 16.0634 28.5533 19.0767 28.5533Z"/>
  </g>
  <g id="Thin-L" transform="matrix(1 0 0 1 786.684 1556)">
   <path d="M35.5231-72.6892C42.5236-72.6892 48.2925-78.4496 48.2925-85.5305C48.2925-92.531 42.5236-98.2279 35.5231-98.2279C28.5227-98.2279 22.7538-92.531 22.7538-85.5305C22.7538-78.4496 28.5227-72.6892 35.5231-72.6892ZM55.695 26.9394C58.5351 27.752 61.9549 26.2876 62.9283 22.8593L71.7149-9.32442C72.8492-13.3241 71.1436-16.2529 67.0084-17.3957L41.3004-24.7094L43.3278-47.2472C43.4082-47.971 44.2209-48.3731 44.7922-47.971L56.6685-39.4257C58.8567-37.8808 61.5443-37.8808 63.6606-39.4257L84.4039-54.2308C87.0915-56.1778 87.7348-59.8473 85.8599-62.5984C83.9213-65.286 80.1798-65.8574 77.4922-63.9825L60.2407-51.5432L45.935-61.7942C42.9257-63.9825 39.2731-65.5273 34.7994-65.5273C27.3079-65.5273 21.6195-60.7403 21.1285-53.9896L19.1731-26.1738C18.6018-17.8782 22.593-11.7708 31.7901-10.3952L58.6155-6.56484L51.4626 19.6976C50.4891 23.1894 52.4445 26.0463 55.695 26.9394ZM109.21-47.1212C117.07-47.1212 123.392-53.516 123.392-61.3117C123.392-69.1074 117.07-75.4853 109.21-75.4853C101.398-75.4853 95.0283-69.1074 95.0283-61.3117C95.0283-53.516 101.398-47.1212 109.21-47.1212ZM109.21-50.7469C102.997-50.7469 98.6455-55.098 98.6455-61.3117C98.6455-67.5085 102.997-71.8597 109.21-71.8597C115.416-71.8597 119.767-67.5085 119.767-61.3117C119.767-55.098 115.416-50.7469 109.21-50.7469ZM70.5002 26.1048L103.441 26.1048C105.447 26.1048 105.709 23.7018 104.283 22.7541L91.4032 14.1829C93.033 12.1005 93.7652 10.0011 94.4721 7.30902L108.414-47.7938L104.725-48.6357L90.9269 6.53912C88.5947 15.8847 80.3114 22.3183 70.5002 22.3183C69.4722 22.3183 68.7191 23.1602 68.7191 24.2433C68.7191 25.2629 69.4722 26.1048 70.5002 26.1048ZM26.9227 4.3841L38.5662 1.93775C39.6707 1.68806 40.2207 0.879918 40.2207-0.305014C40.2207-1.49838 39.5734-2.14568 38.4773-2.31496L18.7879-5.65436C16.2403-6.08177 15.6015-4.35975 16.4478-2.52303L17.5102-0.254397C19.3385 3.68168 22.246 5.37444 26.9227 4.3841ZM18.5213 26.1048L43.8188 26.1048C44.9992 26.1048 45.7522 25.3349 45.7522 24.2433C45.7522 23.0882 44.9992 22.3183 43.8188 22.3183C39.3659 22.3183 35.9669 20.5659 34.7774 15.0929L31.7091 0.96988L28.0919 1.72291L30.7159 13.9799L17.4298 22.7541C16.0845 23.7018 16.1391 26.1048 18.5213 26.1048Z"/>
  </g>
  <g id="Ultralight-L" transform="matrix(1 0 0 1 491.227 1556)">
   <path d="M34.9413-72.1591C41.8125-72.1591 47.4909-77.8419 47.4909-84.7936C47.4909-91.6647 41.8125-97.2582 34.9413-97.2582C28.0702-97.2582 22.3918-91.6647 22.3918-84.7936C22.3918-77.8419 28.0702-72.1591 34.9413-72.1591ZM54.7642 26.0085C57.5654 26.8082 60.9206 25.3696 61.8811 22.0189L70.5126-9.64764C71.6339-13.5568 69.9541-16.4339 65.8707-17.5508L40.6152-24.7482L42.6167-46.8852C42.6971-47.609 43.4969-48.0111 44.0553-47.609L55.7247-39.2188C57.8871-37.6998 60.523-37.6998 62.6004-39.2188L82.9817-53.7654C85.6176-55.6865 86.2609-59.2784 84.4248-62.0037C82.4992-64.6396 78.8223-65.1981 76.1864-63.3619L59.2452-51.1295L45.1722-61.1995C42.2146-63.3619 38.6137-64.8809 34.2176-64.8809C26.8683-64.8809 21.2704-60.1586 20.7924-53.5241L18.8758-26.1867C18.3173-18.0333 22.2309-12.0423 31.26-10.6796L57.6458-6.92684L50.6093 18.896C49.6488 22.3361 51.5654 25.1284 54.7642 26.0085ZM107.362-47.1988C114.885-47.1988 120.884-53.2833 120.884-60.717C120.884-68.1507 114.885-74.2442 107.362-74.2442C99.9368-74.2442 93.8388-68.1507 93.8388-60.717C93.8388-53.2833 99.9368-47.1988 107.362-47.1988ZM107.362-50.0746C101.057-50.0746 96.7191-54.4128 96.7191-60.717C96.7191-67.0302 101.057-71.3684 107.362-71.3684C113.67-71.3684 118.008-67.0302 118.008-60.717C118.008-54.4128 113.67-50.0746 107.362-50.0746ZM69.3108 24.8507L101.683 24.8507C103.327 24.8507 103.434 22.926 102.344 22.1982L89.3605 13.5753C91.0808 11.4799 91.8 9.39346 92.5328 6.63672L106.307-47.7033L103.341-48.3642L89.7374 6.06075C87.4052 15.3805 79.122 21.8141 69.3108 21.8141C68.5025 21.8141 67.9176 22.475 67.9176 23.3771C67.9176 24.1898 68.5025 24.8507 69.3108 24.8507ZM26.4573 3.63423L37.8809 1.2396C38.8949 1.00284 39.3415 0.323982 39.3415-0.770449C39.3415-1.86039 38.8235-2.3784 37.805-2.53475L18.4647-5.8095C16.124-6.19812 15.6015-4.77347 16.3832-3.04018L17.4197-0.797404C19.1575 3.02232 21.9227 4.58579 26.4573 3.63423ZM18.2369 24.8507L43.0948 24.8507C44.0683 24.8507 44.6533 24.2747 44.6533 23.3771C44.6533 22.39 44.0683 21.8141 43.0948 21.8141C38.5643 21.8141 35.0748 20.0358 33.8595 14.4464L30.9334 0.892307L28.0531 1.47726L30.5996 13.4369L17.3393 22.1982C16.3302 22.926 16.1779 24.8507 18.2369 24.8507Z"/>
  </g>
  <g id="Black-M" transform="matrix(1 0 0 1 2866.88 1126)">
   <path d="M35.3536-69.5182C42.137-69.5182 47.6839-75.0596 47.6839-81.8483C47.6839-88.6317 42.137-94.1789 35.3536-94.1789C28.5701-94.1789 23.0232-88.6317 23.0232-81.8483C23.0232-75.0596 28.5701-69.5182 35.3536-69.5182ZM53.4085 19.4833C56.4621 20.3402 60.1341 18.751 61.1727 14.9593L68.9953-13.3588C70.1585-17.535 68.3253-20.7705 64.0409-21.9964L42.1621-28.2242L43.902-47.1944C43.9072-47.5268 43.1083-47.1531 43.3786-46.9558L53.9333-39.4344C56.1975-37.7828 59.1319-37.7828 61.3964-39.4344L79.8359-52.5395C82.6562-54.5596 83.383-58.5953 81.3054-61.4098C79.2908-64.4014 75.1983-64.9572 72.3209-62.9367L57.7244-52.4598L45.8035-61.0151C42.9624-63.0509 39.5086-64.5312 35.3067-64.5312C27.9726-64.5312 22.4309-59.8571 21.9945-53.3232L20.2544-28.6715C19.6985-20.8286 23.6409-14.8502 32.4656-13.5572L54.8686-10.3104L48.8796 11.6565C47.841 15.3853 49.9808 18.5641 53.4085 19.4833ZM104.444-41.8795C113.361-41.8795 120.574-49.0926 120.574-58.0149C120.574-66.9372 113.361-74.1393 104.444-74.1393C95.5109-74.1393 88.3143-66.9372 88.3143-58.0149C88.3143-49.0926 95.5109-41.8795 104.444-41.8795ZM104.444-51.5365C100.822-51.5365 97.9658-54.3926 97.9658-58.0149C97.9658-61.6262 100.822-64.4823 104.444-64.4823C108.061-64.4823 110.917-61.6262 110.917-58.0149C110.917-54.3926 108.061-51.5365 104.444-51.5365ZM70.282 23.6638L99.4112 23.6638C104.304 23.6638 105.922 17.3872 101.819 14.6724L93.1449 8.88423C93.7868 7.55529 94.2388 6.10116 94.6173 4.63832L107.004-44.8421L97.4667-47.0784L85.1367 2.28752C83.387 9.35456 77.5977 13.8822 70.282 13.8822C67.5049 13.8822 65.3935 16.2327 65.3935 18.7701C65.3935 21.3133 67.5049 23.6638 70.282 23.6638ZM25.3312 2.13761L35.7044-0.0389791C37.866-0.516866 39.1973-2.50283 39.1973-4.55547C39.1973-6.78488 37.5072-8.58914 35.4653-8.94763L18.0125-11.9293C13.6004-12.6569 11.6874-8.37782 13.2515-5.36449L14.2437-3.43769C16.3951 0.744286 20.1207 3.24432 25.3312 2.13761ZM17.4095 23.6638L39.8278 23.6638C42.6098 23.6638 44.7212 21.313 44.7212 18.7701C44.7212 16.233 42.6098 13.8822 39.8278 13.8822C37.3994 13.8822 35.5581 12.4653 35.0342 10.0428L31.5266-5.64899L21.9892-3.48046L24.5869 8.2183L14.7524 14.6724C10.6541 17.3872 12.3355 23.6638 17.4095 23.6638Z"/>
  </g>
  <g id="Heavy-M" transform="matrix(1 0 0 1 2572.08 1126)">
   <path d="M33.9853-68.7127C40.5546-68.7127 45.9219-74.0636 45.9219-80.6515C45.9219-87.2207 40.5546-92.5857 33.9853-92.5857C27.4161-92.5857 22.0488-87.2207 22.0488-80.6515C22.0488-74.0636 27.4161-68.7127 33.9853-68.7127ZM51.7557 18.7063C54.6399 19.5203 58.1239 18.017 59.1061 14.4293L66.8171-13.517C67.9239-17.5136 66.1901-20.5638 62.1181-21.7306L40.3287-27.9219L42.05-46.8668C42.0687-47.2531 41.6176-47.0411 41.9393-46.8168L52.3453-39.38C54.4965-37.8144 57.2725-37.8144 59.4215-39.38L77.6008-52.3127C80.2896-54.2334 80.9625-58.0516 79.0004-60.7262C77.0961-63.5459 73.232-64.0857 70.4996-62.1672L55.9375-51.7177L44.0222-60.2777C41.2587-62.2545 37.9095-63.6892 33.8172-63.6892C26.7269-63.6892 21.3783-59.1896 20.9444-52.8673L19.2254-28.5528C18.6856-20.9267 22.4913-15.1464 31.0537-13.8964L53.4372-10.6515L47.4577 11.2959C46.4755 14.8258 48.4999 17.8301 51.7557 18.7063ZM101.289-42.4203C109.816-42.4203 116.75-49.3565 116.75-57.8973C116.75-66.4381 109.816-73.3414 101.289-73.3414C92.7157-73.3414 85.8287-66.4381 85.8287-57.8973C85.8287-49.3565 92.7157-42.4203 101.289-42.4203ZM101.289-51.0801C97.4604-51.0801 94.4722-54.0684 94.4722-57.8973C94.4722-61.6933 97.4604-64.6816 101.289-64.6816C105.102-64.6816 108.09-61.6933 108.09-57.8973C108.09-54.0684 105.102-51.0801 101.289-51.0801ZM67.5674 22.0144L96.3146 22.0144C100.718 22.0144 102.13 16.3849 98.4573 13.9561L89.5608 8.00948C90.2745 6.62407 90.7644 5.11861 91.1615 3.56213L103.313-44.9455L94.7542-46.9574L82.6512 1.46528C80.888 8.59458 74.9504 13.23 67.5674 13.23C65.0763 13.23 63.1868 15.3291 63.1868 17.6151C63.1868 19.9153 65.0763 22.0144 67.5674 22.0144ZM24.6597 1.18083L34.8951-0.972058C36.8233-1.39349 38.0263-3.16524 38.0263-5.02481C38.0263-7.03164 36.51-8.63517 34.6856-8.95067L17.4635-11.8926C13.4561-12.5587 11.7818-8.72914 13.1848-6.00575L14.1584-4.09754C16.2111-0.0867994 19.7064 2.23944 24.6597 1.18083ZM16.922 22.0144L39.0378 22.0144C41.5498 22.0144 43.4394 19.9176 43.4394 17.6151C43.4394 15.3268 41.5498 13.23 39.0378 13.23C36.4324 13.23 34.4788 11.8485 33.8824 9.09303L30.5242-5.9473L21.9681-4.01413L24.4965 7.41023L14.5324 13.9561C10.8779 16.3849 12.3431 22.0144 16.922 22.0144Z"/>
  </g>
  <g id="Bold-M" transform="matrix(1 0 0 1 2277.51 1126)">
   <path d="M32.4548-67.8116C38.7844-67.8116 43.9508-72.9494 43.9508-79.3127C43.9508-85.6423 38.7844-90.8036 32.4548-90.8036C26.1252-90.8036 20.9588-85.6423 20.9588-79.3127C20.9588-72.9494 26.1252-67.8116 32.4548-67.8116ZM49.9068 17.8372C52.6015 18.603 55.8753 17.1959 56.7943 13.8364L64.3805-13.694C65.4242-17.4897 63.8016-20.3325 59.9672-21.4333L38.2779-27.5838L39.9784-46.5003C40.0122-46.9469 39.9501-46.9158 40.3292-46.6614L50.5688-39.3192C52.5938-37.8497 55.1926-37.8497 57.2124-39.3192L75.1005-52.059C77.6422-53.8685 78.2548-57.4434 76.4219-59.9616C74.6411-62.5889 71.0324-63.1108 68.4622-61.3064L53.9386-50.8876L42.0295-59.4527C39.3529-61.3635 36.1206-62.7473 32.151-62.7473C25.3333-62.7473 20.2007-58.4429 19.7697-52.3574L18.0743-28.42C17.5524-21.0363 21.2053-15.4778 29.4743-14.2758L51.8359-11.033L45.8671 10.8924C44.9481 14.1999 46.8433 17.009 49.9068 17.8372ZM97.7601-43.0253C105.851-43.0253 112.472-49.6517 112.472-57.7657C112.472-65.8797 105.851-72.4488 97.7601-72.4488C89.5888-72.4488 83.0483-65.8797 83.0483-57.7657C83.0483-49.6517 89.5888-43.0253 97.7601-43.0253ZM97.7601-50.5697C93.7002-50.5697 90.564-53.7058 90.564-57.7657C90.564-61.7683 93.7002-64.9045 97.7601-64.9045C101.791-64.9045 104.927-61.7683 104.927-57.7657C104.927-53.7058 101.791-50.5697 97.7601-50.5697ZM64.5307 20.1694L92.8506 20.1694C96.7071 20.1694 97.8889 15.2636 94.6971 13.1548L85.5516 7.03094C86.3456 5.58238 86.8779 4.01948 87.2957 2.35826L99.1836-45.0611L91.7198-46.8219L79.8708 0.545492C78.0925 7.74444 71.9892 12.5004 64.5307 12.5004C62.3596 12.5004 60.7183 14.3183 60.7183 16.3231C60.7183 18.3515 62.3596 20.1694 64.5307 20.1694ZM23.9086 0.110529L33.9899-2.01584C35.6568-2.37412 36.7164-3.90624 36.7164-5.54983C36.7164-7.30768 35.3945-8.68665 33.8133-8.95407L16.8494-11.8515C13.2947-12.4487 11.8873-9.12213 13.1102-6.7231L14.0631-4.83568C16.0052-1.01649 19.243 1.11534 23.9086 0.110529ZM16.3768 20.1694L38.1541 20.1694C40.3641 20.1694 42.0054 18.3566 42.0054 16.3231C42.0054 14.3132 40.3641 12.5004 38.1541 12.5004C35.3506 12.5004 33.2716 11.1584 32.5941 8.03054L29.403-6.281L21.9444-4.61112L24.3954 6.50628L14.2862 13.1548C11.1282 15.2636 12.3517 20.1694 16.3768 20.1694Z"/>
  </g>
  <g id="Semibold-M" transform="matrix(1 0 0 1 1982.27 1126)">
   <path d="M31.3997-67.1904C37.5641-67.1904 42.592-72.1813 42.592-78.3898C42.592-84.5542 37.5641-89.575 31.3997-89.575C25.2353-89.575 20.2074-84.5542 20.2074-78.3898C20.2074-72.1813 25.2353-67.1904 31.3997-67.1904ZM48.6321 17.238C51.1962 17.9707 54.3251 16.6299 55.2006 13.4277L62.7008-13.8161C63.7009-17.4733 62.155-20.1731 58.4843-21.2284L36.8641-27.3507L38.5502-46.2477C38.5944-46.7358 38.8006-46.8294 39.2193-46.5542L49.3442-39.2772C51.2821-37.8741 53.7586-37.8741 55.6894-39.2772L73.3769-51.8841C75.8171-53.6169 76.3882-57.0241 74.6443-59.4344C72.9486-61.9292 69.516-62.4387 67.0576-60.713L52.5606-50.3153L40.6558-58.884C38.039-60.7493 34.8874-62.0979 31.0023-62.0979C24.3726-62.0979 19.3889-57.9281 18.9598-52.0058L17.2808-28.3284C16.7713-21.112 20.3188-15.7063 28.3855-14.5374L50.732-11.2961L44.7706 10.6143C43.8951 13.7684 45.7012 16.4429 48.6321 17.238ZM95.3271-43.4424C103.117-43.4424 109.523-49.8552 109.523-57.675C109.523-65.4948 103.117-71.8335 95.3271-71.8335C87.4332-71.8335 81.1316-65.4948 81.1316-57.675C81.1316-49.8552 87.4332-43.4424 95.3271-43.4424ZM95.3271-50.2177C91.1079-50.2177 87.8698-53.4558 87.8698-57.675C87.8698-61.8201 91.1079-65.0582 95.3271-65.0582C99.5092-65.0582 102.747-61.8201 102.747-57.675C102.747-53.4558 99.5092-50.2177 95.3271-50.2177ZM62.4373 18.8974L90.4626 18.8974C93.9417 18.8974 94.9647 14.4907 92.1048 12.6024L82.7876 6.35633C83.637 4.86424 84.1985 3.26174 84.6307 1.52832L96.337-45.1409L89.628-46.7286L77.954-0.0886082C76.1653 7.15835 69.9477 11.9975 62.4373 11.9975C60.4867 11.9975 59.0165 13.6215 59.0165 15.4325C59.0165 17.2733 60.4867 18.8974 62.4373 18.8974ZM23.3907-0.627328L33.3658-2.73542C34.8527-3.05016 35.8133-4.41708 35.8133-5.91178C35.8133-7.49798 34.6255-8.72214 33.212-8.95642L16.426-11.8232C13.1834-12.373 11.96-9.39306 13.0588-7.21763L13.9973-5.34455C15.8633-1.65741 18.9235 0.340395 23.3907-0.627328ZM16.0009 18.8974L37.5449 18.8974C39.5467 18.8974 41.0169 17.2804 41.0169 15.4325C41.0169 13.6144 39.5467 11.9975 37.5449 11.9975C34.6049 11.9975 32.4393 10.6827 31.7059 7.29807L28.63-6.51105L21.9281-5.02268L24.3257 5.8831L14.1166 12.6024C11.3007 14.4907 12.3576 18.8974 16.0009 18.8974Z"/>
  </g>
  <g id="Medium-M" transform="matrix(1 0 0 1 1686.68 1126)">
   <path d="M30.5996-66.7194C36.6387-66.7194 41.5616-71.5988 41.5616-77.69C41.5616-83.7291 36.6387-88.6434 30.5996-88.6434C24.5605-88.6434 19.6376-83.7291 19.6376-77.69C19.6376-71.5988 24.5605-66.7194 30.5996-66.7194ZM47.6656 16.7836C50.1307 17.4912 53.1496 16.2006 53.9921 13.1177L61.4271-13.9086C62.3942-17.4608 60.9065-20.0522 57.3599-21.073L35.792-27.174L37.4673-46.0561C37.5194-46.5757 37.9289-46.7639 38.3776-46.473L48.4156-39.2454C50.2874-37.8926 52.6714-37.8926 54.5346-39.2454L72.0699-51.7514C74.4333-53.4261 74.9728-56.7062 73.2965-59.0347C71.6652-61.4289 68.3663-61.929 65.9926-60.263L51.5157-49.8814L39.6142-58.4528C37.0428-60.2835 33.9523-61.6056 30.1314-61.6056C23.6442-61.6056 18.7733-57.5377 18.3458-51.7392L16.6791-28.259C16.1789-21.1693 19.6466-15.8795 27.5599-14.7358L49.895-11.4955L43.9391 10.4034C43.0966 13.4412 44.8353 16.0137 47.6656 16.7836ZM93.4822-43.7587C101.044-43.7587 107.286-50.0095 107.286-57.6062C107.286-65.2029 101.044-71.3669 93.4822-71.3669C85.7987-71.3669 79.6782-65.2029 79.6782-57.6062C79.6782-50.0095 85.7987-43.7587 93.4822-43.7587ZM93.4822-49.9509C89.1423-49.9509 85.8269-53.2663 85.8269-57.6062C85.8269-61.8593 89.1423-65.1747 93.4822-65.1747C97.7788-65.1747 101.094-61.8593 101.094-57.6062C101.094-53.2663 97.7788-49.9509 93.4822-49.9509ZM60.8499 17.9329L88.6519 17.9329C91.8449 17.9329 92.7475 13.9046 90.1392 12.1836L80.6919 5.84482C81.5833 4.31972 82.1669 2.6872 82.6099 0.899023L94.1787-45.2013L88.0419-46.6578L76.5006-0.569409C74.7041 6.71396 68.3997 11.6161 60.8499 11.6161C59.0666 11.6161 57.7262 13.0931 57.7262 14.7571C57.7262 16.4559 59.0666 17.9329 60.8499 17.9329ZM22.9981-1.1868L32.8926-3.28103C34.2429-3.56276 35.1286-4.80442 35.1286-6.18622C35.1286-7.64228 34.0424-8.74905 32.756-8.9582L16.105-11.8018C13.0991-12.3155 12.0152-9.59849 13.0198-7.59261L13.9474-5.73039C15.7557-2.14338 18.6813-0.247202 22.9981-1.1868ZM15.7158 17.9329L37.083 17.9329C38.9269 17.9329 40.2674 16.4645 40.2674 14.7571C40.2674 13.0845 38.9269 11.6161 37.083 11.6161C34.0394 11.6161 31.8082 10.322 31.0324 6.74267L28.0439-6.68549L21.9157-5.33474L24.2728 5.41059L13.9879 12.1836C11.4316 13.9046 12.3621 17.9329 15.7158 17.9329Z"/>
  </g>
  <g id="Regular-M" transform="matrix(1 0 0 1 1391.43 1126)">
   <path d="M29.5561-66.105C35.4318-66.105 40.2177-70.8392 40.2177-76.7772C40.2177-82.6529 35.4318-87.4283 29.5561-87.4283C23.6803-87.4283 18.8944-82.6529 18.8944-76.7772C18.8944-70.8392 23.6803-66.105 29.5561-66.105ZM46.405 16.191C48.7409 16.8658 51.6165 15.6408 52.4159 12.7135L59.7658-14.0293C60.6898-17.4445 59.2779-19.8945 55.8934-20.8703L34.3937-26.9435L36.0548-45.8062C36.1172-46.367 36.792-46.6785 37.2798-46.367L47.2044-39.2039C48.9901-37.9166 51.2532-37.9166 53.0284-39.2039L70.3652-51.5785C72.6282-53.1773 73.1267-56.2915 71.5384-58.5134C69.9913-60.7765 66.8666-61.2643 64.6035-59.6761L50.1528-49.3154L38.2556-57.8903C35.7433-59.6761 32.7326-60.9634 28.9953-60.9634C22.694-60.9634 17.9704-57.0286 17.5448-51.3915L15.8942-28.1685C15.4064-21.2441 18.7698-16.1055 26.483-14.9945L48.8032-11.7557L42.8546 10.1284C42.0552 13.0145 43.7058 15.4539 46.405 16.191ZM91.076-44.1712C98.3405-44.1712 104.37-50.2108 104.37-57.5165C104.37-64.8223 98.3405-70.7583 91.076-70.7583C83.6667-70.7583 77.7824-64.8223 77.7824-57.5165C77.7824-50.2108 83.6667-44.1712 91.076-44.1712ZM91.076-49.6028C86.5785-49.6028 83.1623-53.019 83.1623-57.5165C83.1623-61.9105 86.5785-65.3267 91.076-65.3267C95.5217-65.3267 98.9379-61.9105 98.9379-57.5165C98.9379-53.019 95.5217-49.6028 91.076-49.6028ZM58.7795 16.6749L86.2901 16.6749C89.1099 16.6749 89.8555 13.1401 87.5754 11.6372L77.9583 5.17764C78.9044 3.60947 79.5169 1.93779 79.9742 0.0782015L91.3634-45.2801L85.973-46.5654L74.6049-1.19654C72.7981 6.13431 66.3807 11.1187 58.7795 11.1187C57.2143 11.1187 56.0431 12.404 56.0431 13.8762C56.0431 15.3896 57.2143 16.6749 58.7795 16.6749ZM22.486-1.91655L32.2754-3.99271C33.4476-4.23137 34.2355-5.30965 34.2355-6.54419C34.2355-7.83049 33.2818-8.78416 32.1613-8.96052L15.6862-11.7738C12.989-12.2406 12.0871-9.86644 12.9689-8.08171L13.8824-6.23367C15.6154-2.77726 18.3653-1.01363 22.486-1.91655ZM15.344 16.6749L36.4804 16.6749C38.1185 16.6749 39.2897 15.4001 39.2897 13.8762C39.2897 12.3934 38.1185 11.1187 36.4804 11.1187C33.3019 11.1187 30.9851 9.85149 30.154 6.01825L27.2794-6.91301L21.8996-5.74178L24.2039 4.79426L13.8201 11.6372C11.6022 13.1401 12.368 16.6749 15.344 16.6749Z"/>
  </g>
  <g id="Light-M" transform="matrix(1 0 0 1 1096.38 1126)">
   <path d="M28.7861-65.4035C34.4907-65.4035 39.1568-70.0349 39.1568-75.8019C39.1568-81.5065 34.4907-86.145 28.7861-86.145C23.0814-86.145 18.4153-81.5065 18.4153-75.8019C18.4153-70.0349 23.0814-65.4035 28.7861-65.4035ZM45.173 14.959C47.4576 15.6167 50.2476 14.4259 51.0299 11.6013L58.1745-14.4571C59.0814-17.7525 57.7037-20.134 54.3876-21.0756L33.4868-26.9948L35.1137-45.3271C35.1761-45.8879 35.8337-46.1994 36.3045-45.8879L45.9553-38.9302C47.7068-37.6771 49.9014-37.6771 51.6253-38.9302L68.483-50.9625C70.6776-52.5271 71.176-55.5386 69.6391-57.7263C68.1091-59.9209 65.0699-60.3917 62.8753-58.8547L48.8353-48.7678L37.2461-57.1032C34.8022-58.8547 31.8599-60.1078 28.2253-60.1078C22.1122-60.1078 17.5084-56.2586 17.0999-50.7756L15.5007-28.1856C15.0299-21.4494 18.2907-16.4648 25.7815-15.371L47.5199-12.2348L41.7253 9.06748C40.943 11.8851 42.5422 14.239 45.173 14.959ZM88.6291-44.2739C95.4488-44.2739 101.05-49.9028 101.05-56.7294C101.05-63.556 95.4488-69.1156 88.6291-69.1156C81.7332-69.1156 76.2082-63.556 76.2082-56.7294C76.2082-49.9028 81.7332-44.2739 88.6291-44.2739ZM88.6291-48.713C84.0118-48.713 80.6127-52.1121 80.6127-56.7294C80.6127-61.2774 84.0118-64.6765 88.6291-64.6765C93.2117-64.6765 96.6108-61.2774 96.6108-56.7294C96.6108-52.1121 93.2117-48.713 88.6291-48.713ZM57.2053 15.0151L83.963 15.0151C86.3037 15.0151 86.844 12.1134 85.0087 10.9015L75.2548 4.37342C76.3207 2.78814 76.9161 1.13358 77.4075-0.811567L88.5743-45.1604L84.1421-46.2061L73.0307-1.82965C71.2238 5.46698 64.8065 10.4514 57.2053 10.4514C55.931 10.4514 54.9822 11.4971 54.9822 12.7298C54.9822 13.9694 55.931 15.0151 57.2053 15.0151ZM21.87-2.90898L31.3685-4.9167C32.4209-5.13825 33.0719-6.04542 33.0719-7.16019C33.0719-8.30959 32.2894-9.09215 31.2715-9.25141L15.2585-11.9791C12.835-12.3946 12.0871-10.414 12.8834-8.76615L13.7626-6.95233C15.3758-3.64992 17.9376-2.0574 21.87-2.90898ZM14.9676 15.0151L35.5222 15.0151C36.8865 15.0151 37.8353 13.997 37.8353 12.7298C37.8353 11.4694 36.8865 10.4514 35.5222 10.4514C32.241 10.4514 29.8044 9.14994 28.9391 5.1627L26.2528-7.01568L21.8483-6.06689L24.0499 4.0756L13.7003 10.9015C11.9273 12.1134 12.4193 15.0151 14.9676 15.0151Z"/>
  </g>
  <g id="Thin-M" transform="matrix(1 0 0 1 801.862 1126)">
   <path d="M27.7677-64.4756C33.246-64.4756 37.7537-68.9713 37.7537-74.5119C37.7537-79.9903 33.246-84.4477 27.7677-84.4477C22.2894-84.4477 17.7817-79.9903 17.7817-74.5119C17.7817-68.9713 22.2894-64.4756 27.7677-64.4756ZM43.5436 13.3296C45.7603 13.9647 48.4371 12.8192 49.1968 10.1303L56.0699-15.0228C56.9541-18.1599 55.6217-20.4509 52.3961-21.3472L32.2874-27.0627L33.8691-44.6935C33.9314-45.2542 34.5664-45.5657 35.0146-45.2542L44.3033-38.5681C46.0095-37.3603 48.1136-37.3603 49.7696-38.5681L65.9936-50.1478C68.0977-51.6671 68.5961-54.5429 67.1271-56.6853C65.6198-58.7894 62.6937-59.2375 60.5896-57.7685L47.0927-48.0437L35.9109-56.0622C33.5575-57.7685 30.7058-58.9763 27.207-58.9763C21.3428-58.9763 16.8974-55.2403 16.5115-49.9609L14.9802-28.2082C14.532-21.721 17.657-16.94 24.8536-15.8688L45.8226-12.8684L40.2317 7.66438C39.472 10.3915 41.0033 12.6323 43.5436 13.3296ZM85.3929-44.4097C91.6242-44.4097 96.6596-49.4954 96.6596-55.6884C96.6596-61.8814 91.6242-66.9431 85.3929-66.9431C79.1759-66.9431 74.1262-61.8814 74.1262-55.6884C74.1262-49.4954 79.1759-44.4097 85.3929-44.4097ZM85.3929-47.5363C80.6172-47.5363 77.2408-50.9127 77.2408-55.6884C77.2408-60.4401 80.6172-63.8165 85.3929-63.8165C90.1566-63.8165 93.5331-60.4401 93.5331-55.6884C93.5331-50.9127 90.1566-47.5363 85.3929-47.5363ZM55.1233 12.82L80.8852 12.82C82.5923 12.82 82.861 10.7556 81.6141 9.92834L71.6792 3.30978C72.9035 1.70187 73.4762 0.0699405 74.013-1.98836L84.8855-45.002L81.7206-45.7309L70.9487-2.66698C69.1418 4.58439 62.7245 9.56877 55.1233 9.56877C54.2337 9.56877 53.5791 10.2977 53.5791 11.2135C53.5791 12.091 54.2337 12.82 55.1233 12.82ZM21.0553-4.22156L30.1691-6.13875C31.0631-6.33767 31.533-7.01854 31.533-7.97489C31.533-8.94325 30.9768-9.4995 30.0947-9.63613L14.6927-12.2507C12.6314-12.5982 12.0871-11.1382 12.7702-9.67137L13.6042-7.90282C15.059-4.80408 17.3718-3.43787 21.0553-4.22156ZM14.4697 12.82L34.2549 12.82C35.2571 12.82 35.9117 12.1413 35.9117 11.2135C35.9117 10.2474 35.2571 9.56877 34.2549 9.56877C30.8379 9.56877 28.2429 8.22209 27.3324 4.03117L24.8949-7.15146L21.7804-6.49687L23.8462 3.12511L13.5419 9.92834C12.3573 10.7556 12.4872 12.82 14.4697 12.82Z"/>
  </g>
  <g id="Ultralight-M" transform="matrix(1 0 0 1 506.275 1126)">
   <path d="M27.2461-64.0004C32.6085-64.0004 37.0351-68.4265 37.0351-73.8512C37.0351-79.2136 32.6085-83.5783 27.2461-83.5783C21.8837-83.5783 17.4571-79.2136 17.4571-73.8512C17.4571-68.4265 21.8837-64.0004 27.2461-64.0004ZM42.709 12.495C44.8909 13.1185 47.5098 11.9962 48.2579 9.37687L54.9919-15.3126C55.8646-18.3685 54.5553-20.6132 51.3761-21.4863L31.6731-27.0975L33.2315-44.3689C33.2938-44.9297 33.9173-45.2412 34.3539-44.9297L43.4571-38.3826C45.1402-37.198 47.1979-37.198 48.8191-38.3826L64.7186-49.7305C66.7763-51.2266 67.2747-54.0329 65.8405-56.1521C64.3447-58.2098 61.4766-58.6464 59.4189-57.2121L46.2002-47.6727L35.227-55.529C32.92-57.2121 30.1146-58.3967 26.6853-58.3967C20.9487-58.3967 16.5844-54.7186 16.2102-49.5436L14.7136-28.2198C14.277-21.8601 17.3325-17.1834 24.3784-16.1238L44.9532-13.193L39.4666 6.94572C38.7186 9.62651 40.2151 11.8093 42.709 12.495ZM83.7354-44.4792C89.6653-44.4792 94.4109-49.2868 94.4109-55.1552C94.4109-61.0236 89.6653-65.8303 83.7354-65.8303C77.8661-65.8303 73.0598-61.0236 73.0598-55.1552C73.0598-49.2868 77.8661-44.4792 83.7354-44.4792ZM83.7354-46.9335C78.8786-46.9335 75.5137-50.2984 75.5137-55.1552C75.5137-60.0112 78.8786-63.3761 83.7354-63.3761C88.5918-63.3761 91.9566-60.0112 91.9566-55.1552C91.9566-50.2984 88.5918-46.9335 83.7354-46.9335ZM54.0569 11.6956L79.3088 11.6956C80.6913 11.6956 80.8209 10.0601 79.8754 9.42991L69.8477 2.76499C71.1532 1.14549 71.7144-0.47485 72.2743-2.5911L82.9961-44.9208L80.4804-45.4875L69.8823-3.09585C68.0754 4.13233 61.6581 9.11671 54.0569 9.11671C53.3644 9.11671 52.8605 9.68334 52.8605 10.4369C52.8605 11.129 53.3644 11.6956 54.0569 11.6956ZM20.638-4.89385L29.5547-6.76468C30.3676-6.95201 30.7448-7.51696 30.7448-8.39217C30.7448-9.26781 30.3045-9.70815 29.492-9.83318L14.4029-12.3898C12.527-12.7026 12.0871-11.5091 12.7123-10.135L13.5231-8.38965C14.8967-5.39524 17.082-4.14493 20.638-4.89385ZM14.2147 11.6956L33.6058 11.6956C34.4225 11.6956 34.9264 11.1909 34.9264 10.4369C34.9264 9.62146 34.4225 9.11671 33.6058 9.11671C30.1193 9.11671 27.4431 7.74684 26.5094 3.45161L24.1995-7.22101L21.7456-6.7171L23.7419 2.63828L13.4608 9.42991C12.5776 10.0601 12.522 11.6956 14.2147 11.6956Z"/>
  </g>
  <g id="Black-S" transform="matrix(1 0 0 1 2880.79 696)">
   <path d="M28.0762-62.3047C33.4473-62.3047 37.8418-66.6992 37.8418-72.0703C37.8418-77.4414 33.4473-81.8359 28.0762-81.8359C22.7051-81.8359 18.3105-77.4414 18.3105-72.0703C18.3105-66.6992 22.7051-62.3047 28.0762-62.3047ZM42.2852 7.8125C44.7266 8.49609 47.6562 7.22656 48.4863 4.19922L54.6387-18.0664C55.5664-21.3867 54.1016-23.9746 50.6836-24.9512L33.5449-29.834L34.9121-44.6777C34.9121-44.9219 34.1797-44.5801 34.375-44.4336L42.6758-38.5254C44.4824-37.207 46.8262-37.207 48.6328-38.5254L63.1348-48.8281C65.3809-50.4395 65.9668-53.6621 64.3066-55.9082C62.6953-58.3008 59.4238-58.7402 57.1289-57.1289L45.7031-48.9258L36.377-55.6152C34.1309-57.2266 31.3965-58.3984 28.0762-58.3984C22.2656-58.3984 17.8711-54.6875 17.5293-49.5117L16.1621-30.127C15.7227-23.9258 18.8477-19.1895 25.8301-18.1641L43.3594-15.625L38.6719 1.5625C37.8418 4.54102 39.5508 7.08008 42.2852 7.8125ZM82.666-40.2832C89.7461-40.2832 95.459-45.9961 95.459-53.0762C95.459-60.1562 89.7461-65.8691 82.666-65.8691C75.5859-65.8691 69.873-60.1562 69.873-53.0762C69.873-45.9961 75.5859-40.2832 82.666-40.2832ZM82.666-48.0957C79.8828-48.0957 77.6855-50.293 77.6855-53.0762C77.6855-55.8594 79.8828-58.0566 82.666-58.0566C85.4492-58.0566 87.6465-55.8594 87.6465-53.0762C87.6465-50.293 85.4492-48.0957 82.666-48.0957ZM55.8105 11.3281L78.7109 11.3281C82.666 11.3281 83.9844 6.25 80.6641 4.05273L73.9258-0.439453C74.4141-1.46484 74.7559-2.58789 75.0488-3.71094L84.8145-42.7246L77.0996-44.5312L67.3828-5.61523C66.0156-0.0976562 61.5234 3.41797 55.8105 3.41797C53.5645 3.41797 51.8555 5.32227 51.8555 7.37305C51.8555 9.42383 53.5645 11.3281 55.8105 11.3281ZM20.0195-5.71289L28.1738-7.42188C29.9316-7.8125 31.0059-9.42383 31.0059-11.084C31.0059-12.8906 29.6387-14.3555 27.9785-14.6484L14.2578-16.9922C10.6934-17.5781 9.13086-14.1113 10.4004-11.6699L11.1816-10.1562C12.8906-6.83594 15.8691-4.83398 20.0195-5.71289ZM13.7695 11.3281L31.3965 11.3281C33.6426 11.3281 35.3516 9.42383 35.3516 7.37305C35.3516 5.32227 33.6426 3.41797 31.3965 3.41797C29.541 3.41797 28.125 2.29492 27.7344 0.488281L24.9512-11.9629L17.2363-10.2051L19.2871-0.976562L11.6211 4.05273C8.30078 6.25 9.66797 11.3281 13.7695 11.3281Z"/>
  </g>
  <g id="Heavy-S" transform="matrix(1 0 0 1 2585.5 696)">
   <path d="M27.0044-61.7054C32.2141-61.7054 36.4704-65.9501 36.4704-71.1714C36.4704-76.3812 32.2141-80.6374 27.0044-80.6374C21.7946-80.6374 17.5384-76.3812 17.5384-71.1714C17.5384-65.9501 21.7946-61.7054 27.0044-61.7054ZM41.029 7.30542C43.3321 7.95444 46.112 6.75406 46.896 3.88806L52.9791-18.1471C53.8608-21.3291 52.4766-23.7672 49.2315-24.6976L32.0928-29.5689L33.4485-44.4588C33.46-44.749 33.0272-44.5455 33.2687-44.376L41.4772-38.5139C43.1917-37.2647 45.4087-37.2647 47.1231-38.5139L61.4637-48.7129C63.6061-50.2435 64.1459-53.2933 62.578-55.4242C61.0588-57.6785 57.9717-58.1064 55.7921-56.5757L44.3432-48.3611L34.9825-55.0851C32.794-56.6503 30.1403-57.7876 26.9007-57.7876C21.2745-57.7876 17.0298-54.215 16.688-49.2006L15.3323-30.0232C14.9044-23.9834 17.9257-19.3969 24.7122-18.4061L42.2991-15.8555L37.6001 1.38963C36.8161 4.20681 38.4329 6.60758 41.029 7.30542ZM80.2805-40.7327C87.0839-40.7327 92.6124-46.2612 92.6124-53.0762C92.6124-59.8912 87.0839-65.3966 80.2805-65.3966C73.4424-65.3966 67.9485-59.8912 67.9485-53.0762C67.9485-46.2612 73.4424-40.7327 80.2805-40.7327ZM80.2805-47.8191C77.3359-47.8191 75.0234-50.1316 75.0234-53.0762C75.0234-55.9977 77.3359-58.3102 80.2805-58.3102C83.2135-58.3102 85.526-55.9977 85.526-53.0762C85.526-50.1316 83.2135-47.8191 80.2805-47.8191ZM53.69 10.1296L76.3599 10.1296C79.9578 10.1296 81.1263 5.52396 78.1172 3.53413L71.206-1.08482C71.7404-2.15631 72.1168-3.32546 72.4213-4.51765L82.014-42.8283L75.0137-44.4736L65.4582-6.23756C64.0795-0.662355 59.4606 2.94547 53.69 2.94547C51.6514 2.94547 50.1037 4.66537 50.1037 6.53176C50.1037 8.40968 51.6514 10.1296 53.69 10.1296ZM19.524-6.40436L27.5976-8.10182C29.171-8.44635 30.153-9.89633 30.153-11.4067C30.153-13.0404 28.9126-14.3555 27.4253-14.6139L13.8429-16.9346C10.5896-17.4744 9.21153-14.3418 10.3543-12.1309L11.124-10.6288C12.7639-7.43521 15.5695-5.56003 19.524-6.40436ZM13.4007 10.1296L30.8433 10.1296C32.8935 10.1296 34.4411 8.40968 34.4411 6.53176C34.4411 4.66537 32.8935 2.94547 30.8433 2.94547C28.8495 2.94547 27.3529 1.85699 26.9046-0.214711L24.2251-12.2049L17.2248-10.62L19.2295-1.57583L11.4482 3.53413C8.4506 5.52396 9.66797 10.1296 13.4007 10.1296Z"/>
  </g>
  <g id="Bold-S" transform="matrix(1 0 0 1 2290.38 696)">
   <path d="M25.8057-61.0352C30.835-61.0352 34.9365-65.1123 34.9365-70.166C34.9365-75.1953 30.835-79.2969 25.8057-79.2969C20.7764-79.2969 16.6748-75.1953 16.6748-70.166C16.6748-65.1123 20.7764-61.0352 25.8057-61.0352ZM39.624 6.73828C41.7725 7.34863 44.3848 6.22559 45.1172 3.54004L51.123-18.2373C51.9531-21.2646 50.6592-23.5352 47.6074-24.4141L30.4688-29.2725L31.8115-44.2139C31.8359-44.5557 31.7383-44.5068 32.0312-44.3115L40.1367-38.501C41.748-37.3291 43.8232-37.3291 45.4346-38.501L59.5947-48.584C61.6211-50.0244 62.1094-52.8809 60.6445-54.8828C59.2285-56.9824 56.3477-57.3975 54.2969-55.957L42.8223-47.7295L33.4229-54.4922C31.2988-56.0059 28.7354-57.1045 25.5859-57.1045C20.166-57.1045 16.0889-53.6865 15.7471-48.8525L14.4043-29.9072C13.9893-24.0479 16.8945-19.6289 23.4619-18.6768L41.1133-16.1133L36.4014 1.19629C35.6689 3.83301 37.1826 6.0791 39.624 6.73828ZM77.6123-41.2354C84.1064-41.2354 89.4287-46.5576 89.4287-53.0762C89.4287-59.5947 84.1064-64.8682 77.6123-64.8682C71.0449-64.8682 65.7959-59.5947 65.7959-53.0762C65.7959-46.5576 71.0449-41.2354 77.6123-41.2354ZM77.6123-47.5098C74.4873-47.5098 72.0459-49.9512 72.0459-53.0762C72.0459-56.1523 74.4873-58.5938 77.6123-58.5938C80.7129-58.5938 83.1543-56.1523 83.1543-53.0762C83.1543-49.9512 80.7129-47.5098 77.6123-47.5098ZM51.3184 8.78906L73.7305 8.78906C76.9287 8.78906 77.9297 4.71191 75.2686 2.9541L68.1641-1.80664C68.75-2.92969 69.165-4.15039 69.4824-5.41992L78.8818-42.9443L72.6807-44.4092L63.3057-6.93359C61.9141-1.29395 57.1533 2.41699 51.3184 2.41699C49.5117 2.41699 48.1445 3.93066 48.1445 5.59082C48.1445 7.27539 49.5117 8.78906 51.3184 8.78906ZM18.9697-7.17773L26.9531-8.8623C28.3203-9.15527 29.1992-10.4248 29.1992-11.7676C29.1992-13.208 28.1006-14.3555 26.8066-14.5752L13.3789-16.8701C10.4736-17.3584 9.30176-14.5996 10.3027-12.6465L11.0596-11.1572C12.6221-8.10547 15.2344-6.37207 18.9697-7.17773ZM12.9883 8.78906L30.2246 8.78906C32.0557 8.78906 33.4229 7.27539 33.4229 5.59082C33.4229 3.93066 32.0557 2.41699 30.2246 2.41699C28.0762 2.41699 26.4893 1.36719 25.9766-1.00098L23.4131-12.4756L17.2119-11.084L19.165-2.24609L11.2549 2.9541C8.61816 4.71191 9.66797 8.78906 12.9883 8.78906Z"/>
  </g>
  <g id="Semibold-S" transform="matrix(1 0 0 1 1994.77 696)">
   <path d="M24.9792-60.573C29.8841-60.573 33.879-64.5347 33.879-69.4729C33.879-74.3777 29.8841-78.3727 24.9792-78.3727C20.0743-78.3727 16.0794-74.3777 16.0794-69.4729C16.0794-64.5347 20.0743-60.573 24.9792-60.573ZM38.6554 6.34727C40.6972 6.93096 43.1939 5.86123 43.8908 3.3001L49.8434-18.2995C50.6379-21.2202 49.4062-23.3752 46.4877-24.2186L29.349-29.0681L30.6829-44.045C30.7162-44.4224 30.8496-44.4802 31.1781-44.2671L39.2125-38.4921C40.7527-37.3735 42.7302-37.3735 44.2704-38.4921L58.3062-48.4951C60.2525-49.8733 60.7053-52.5965 59.3115-54.5096C57.9666-56.5025 55.2279-56.9087 53.266-55.5305L41.7736-47.294L32.3476-54.0834C30.268-55.5615 27.7667-56.6335 24.6795-56.6335C19.4018-56.6335 15.4401-53.3222 15.0983-48.6126L13.7645-29.8272C13.3583-24.0923 16.1836-19.7889 22.5999-18.8634L40.2957-16.291L35.5749 1.06299C34.878 3.57529 36.3206 5.71475 38.6554 6.34727ZM75.7728-41.5819C82.0536-41.5819 87.2337-46.762 87.2337-53.0762C87.2337-59.3903 82.0536-64.5038 75.7728-64.5038C69.392-64.5038 64.3118-59.3903 64.3118-53.0762C64.3118-46.762 69.392-41.5819 75.7728-41.5819ZM75.7728-47.2965C72.5233-47.2965 69.9931-49.8268 69.9931-53.0762C69.9931-56.259 72.5233-58.7893 75.7728-58.7893C78.9889-58.7893 81.5191-56.259 81.5191-53.0762C81.5191-49.8268 78.9889-47.2965 75.7728-47.2965ZM49.6832 7.86484L71.9176 7.86484C74.8403 7.86484 75.7258 4.15205 73.3046 2.5542L66.0668-2.3043C66.6883-3.46289 67.13-4.71914 67.4562-6.04199L76.7224-43.0243L71.0722-44.3647L61.8216-7.41348C60.4211-1.72939 55.5626 2.05264 49.6832 2.05264C48.0365 2.05264 46.7938 3.42412 46.7938 4.94209C46.7938 6.49336 48.0365 7.86484 49.6832 7.86484ZM18.5876-7.71094L26.5088-9.38662C27.7338-9.64404 28.5416-10.7892 28.5416-12.0164C28.5416-13.3235 27.5407-14.3555 26.3801-14.5485L13.059-16.8257C10.3937-17.2784 9.36396-14.7773 10.2672-13.002L11.0151-11.5216C12.5243-8.56758 15.0033-6.93193 18.5876-7.71094ZM12.7039 7.86484L29.798 7.86484C31.478 7.86484 32.7208 6.49336 32.7208 4.94209C32.7208 3.42412 31.478 2.05264 29.798 2.05264C27.543 2.05264 25.8938 1.02949 25.3367-1.54307L22.8532-12.6622L17.203-11.4039L19.1206-2.7082L11.1216 2.5542C8.73369 4.15205 9.66797 7.86484 12.7039 7.86484Z"/>
  </g>
  <g id="Medium-S" transform="matrix(1 0 0 1 1698.89 696)">
   <path d="M24.3525-60.2227C29.1631-60.2227 33.0771-64.0967 33.0771-68.9473C33.0771-73.7578 29.1631-77.6719 24.3525-77.6719C19.542-77.6719 15.6279-73.7578 15.6279-68.9473C15.6279-64.0967 19.542-60.2227 24.3525-60.2227ZM37.9209 6.05078C39.8818 6.61426 42.291 5.58496 42.9609 3.11816L48.873-18.3467C49.6406-21.1865 48.4561-23.2539 45.6387-24.0703L28.5-28.9131L29.8271-43.917C29.8672-44.3213 30.1758-44.46 30.5312-44.2334L38.5117-38.4854C39.998-37.4072 41.9014-37.4072 43.3877-38.4854L57.3291-48.4277C59.2148-49.7588 59.6406-52.3809 58.3008-54.2266C57.0098-56.1387 54.3789-56.5381 52.4844-55.207L40.9785-46.9639L31.5322-53.7734C29.4863-55.2246 27.0322-56.2764 23.9922-56.2764C18.8223-56.2764 14.9482-53.0459 14.6064-48.4307L13.2793-29.7666C12.8799-24.126 15.6445-19.9102 21.9463-19.0049L39.6758-16.4258L34.9482 0.961914C34.2783 3.37988 35.667 5.43848 37.9209 6.05078ZM74.3779-41.8447C80.4971-41.8447 85.5693-46.917 85.5693-53.0762C85.5693-59.2354 80.4971-64.2275 74.3779-64.2275C68.1387-64.2275 63.1865-59.2354 63.1865-53.0762C63.1865-46.917 68.1387-41.8447 74.3779-41.8447ZM74.3779-47.1348C71.0342-47.1348 68.4365-49.7324 68.4365-53.0762C68.4365-56.3398 71.0342-58.9375 74.3779-58.9375C77.6816-58.9375 80.2793-56.3398 80.2793-53.0762C80.2793-49.7324 77.6816-47.1348 74.3779-47.1348ZM48.4434 7.16406L70.543 7.16406C73.2568 7.16406 74.0547 3.72754 71.8154 2.25098L64.4766-2.68164C65.125-3.86719 65.5869-5.15039 65.9199-6.51367L75.085-43.085L69.8525-44.3311L60.6963-7.77734C59.2891-2.05957 54.3564 1.77637 48.4434 1.77637C46.918 1.77637 45.7695 3.04004 45.7695 4.4502C45.7695 5.90039 46.918 7.16406 48.4434 7.16406ZM18.2979-8.11523L26.1719-9.78418C27.2891-10.0146 28.043-11.0654 28.043-12.2051C28.043-13.4111 27.1162-14.3555 26.0566-14.5283L12.8164-16.792C10.333-17.2178 9.41113-14.9121 10.2402-13.2715L10.9814-11.7979C12.4502-8.91797 14.8281-7.35645 18.2979-8.11523ZM12.4883 7.16406L29.4746 7.16406C31.04 7.16406 32.1885 5.90039 32.1885 4.4502C32.1885 3.04004 31.04 1.77637 29.4746 1.77637C27.1387 1.77637 25.4424 0.773438 24.8516-1.9541L22.4287-12.8037L17.1963-11.6465L19.0869-3.05859L11.0205 2.25098C8.82129 3.72754 9.66797 7.16406 12.4883 7.16406Z"/>
  </g>
  <g id="Regular-S" transform="matrix(1 0 0 1 1403.26 696)">
   <path d="M23.5352-59.7656C28.2227-59.7656 32.0312-63.5254 32.0312-68.2617C32.0312-72.9492 28.2227-76.7578 23.5352-76.7578C18.8477-76.7578 15.0391-72.9492 15.0391-68.2617C15.0391-63.5254 18.8477-59.7656 23.5352-59.7656ZM36.9629 5.66406C38.8184 6.20117 41.1133 5.22461 41.748 2.88086L47.6074-18.4082C48.3398-21.1426 47.2168-23.0957 44.5312-23.877L27.3926-28.7109L28.7109-43.75C28.7598-44.1895 29.2969-44.4336 29.6875-44.1895L37.5977-38.4766C39.0137-37.4512 40.8203-37.4512 42.2363-38.4766L56.0547-48.3398C57.8613-49.6094 58.252-52.0996 56.9824-53.8574C55.7617-55.6641 53.2715-56.0547 51.4648-54.7852L39.9414-46.5332L30.4688-53.3691C28.4668-54.7852 26.0742-55.8105 23.0957-55.8105C18.0664-55.8105 14.3066-52.6855 13.9648-48.1934L12.6465-29.6875C12.2559-24.1699 14.9414-20.0684 21.0938-19.1895L38.8672-16.6016L34.1309 0.830078C33.4961 3.125 34.8145 5.07812 36.9629 5.66406ZM72.5586-42.1875C78.4668-42.1875 83.3984-47.1191 83.3984-53.0762C83.3984-59.0332 78.4668-63.8672 72.5586-63.8672C66.5039-63.8672 61.7188-59.0332 61.7188-53.0762C61.7188-47.1191 66.5039-42.1875 72.5586-42.1875ZM72.5586-46.9238C69.0918-46.9238 66.4062-49.6094 66.4062-53.0762C66.4062-56.4453 69.0918-59.1309 72.5586-59.1309C75.9766-59.1309 78.6621-56.4453 78.6621-53.0762C78.6621-49.6094 75.9766-46.9238 72.5586-46.9238ZM46.8262 6.25L68.75 6.25C71.1914 6.25 71.875 3.17383 69.873 1.85547L62.4023-3.17383C63.0859-4.39453 63.5742-5.71289 63.916-7.12891L72.9492-43.1641L68.2617-44.2871L59.2285-8.25195C57.8125-2.49023 52.7832 1.41602 46.8262 1.41602C45.459 1.41602 44.4336 2.53906 44.4336 3.80859C44.4336 5.12695 45.459 6.25 46.8262 6.25ZM17.9199-8.64258L25.7324-10.3027C26.709-10.498 27.3926-11.4258 27.3926-12.4512C27.3926-13.5254 26.5625-14.3555 25.6348-14.502L12.5-16.748C10.2539-17.1387 9.47266-15.0879 10.2051-13.623L10.9375-12.1582C12.3535-9.375 14.5996-7.91016 17.9199-8.64258ZM12.207 6.25L29.0527 6.25C30.4688 6.25 31.4941 5.12695 31.4941 3.80859C31.4941 2.53906 30.4688 1.41602 29.0527 1.41602C26.6113 1.41602 24.8535 0.439453 24.2188-2.49023L21.875-12.9883L17.1875-11.9629L19.043-3.51562L10.8887 1.85547C8.93555 3.17383 9.66797 6.25 12.207 6.25Z"/>
  </g>
  <g id="Light-S" transform="matrix(1 0 0 1 1108.02 696)">
   <path d="M22.854-59.145C27.3901-59.145 31.0928-62.814 31.0928-67.3989C31.0928-71.9351 27.3901-75.6226 22.854-75.6226C18.3179-75.6226 14.6152-71.9351 14.6152-67.3989C14.6152-62.814 18.3179-59.145 22.854-59.145ZM35.8731 4.57423C37.6831 5.0962 39.9024 4.14991 40.522 1.89698L46.1997-18.7866C46.917-21.415 45.8242-23.3076 43.1992-24.0586L26.5903-28.7563L27.8784-43.3262C27.9273-43.7656 28.4492-44.0098 28.8247-43.7656L36.4927-38.2344C37.8784-37.2393 39.6245-37.2393 40.9951-38.2344L54.3897-47.7949C56.1358-49.0342 56.5264-51.4336 55.3023-53.1611C54.0967-54.9072 51.6821-55.2827 49.936-54.0586L38.7759-46.0488L29.5757-52.6729C27.6343-54.0586 25.3023-55.0537 22.4146-55.0537C17.5518-55.0537 13.898-52.0044 13.5713-47.6484L12.2983-29.7026C11.9229-24.3516 14.5176-20.3862 20.4731-19.5225L37.7319-17.0254L33.1318-0.108391C32.5122 2.12598 33.7852 4.00343 35.8731 4.57423ZM70.3941-42.2783C75.9087-42.2783 80.4619-46.8467 80.4619-52.3799C80.4619-57.9131 75.9087-62.4141 70.3941-62.4141C64.7935-62.4141 60.3262-57.9131 60.3262-52.3799C60.3262-46.8467 64.7935-42.2783 70.3941-42.2783ZM70.3941-46.1367C66.8213-46.1367 64.1509-48.8071 64.1509-52.3799C64.1509-55.8853 66.8213-58.5557 70.3941-58.5557C73.9331-58.5557 76.6035-55.8853 76.6035-52.3799C76.6035-48.8071 73.9331-46.1367 70.3941-46.1367ZM45.4336 4.78175L66.6914 4.78175C68.709 4.78175 69.211 2.26563 67.6026 1.20459L60.0108-3.88525C60.8003-5.12109 61.2735-6.42431 61.6455-7.91601L70.482-43.0581L66.6421-43.9692L57.8359-8.81201C56.4199-3.08056 51.3906 0.825688 45.4336 0.825688C44.3237 0.825688 43.4951 1.73682 43.4951 2.79444C43.4951 3.87062 44.3237 4.78175 45.4336 4.78175ZM17.375-9.5205L24.9302-11.1201C25.8008-11.3003 26.3633-12.0767 26.3633-12.9961C26.3633-13.9492 25.6846-14.6279 24.8477-14.7593L12.1216-16.9297C10.1177-17.2749 9.47266-15.5723 10.1294-14.2285L10.8315-12.7939C12.1416-10.147 14.2212-8.83349 17.375-9.5205ZM11.874 4.78175L28.2051 4.78175C29.3789 4.78175 30.2075 3.88575 30.2075 2.79444C30.2075 1.72169 29.3789 0.825688 28.2051 0.825688C25.6729 0.825688 23.8091-0.181147 23.1441-3.24706L20.9668-13.0791L17.1421-12.2505L18.9067-4.15136L10.7827 1.20459C9.22314 2.26563 9.71338 4.78175 11.874 4.78175Z"/>
  </g>
  <g id="Thin-S" transform="matrix(1 0 0 1 813.25 696)">
   <path d="M21.9531-58.3242C26.2891-58.3242 29.8516-61.8731 29.8516-66.2578C29.8516-70.5938 26.2891-74.1211 21.9531-74.1211C17.6172-74.1211 14.0547-70.5938 14.0547-66.2578C14.0547-61.8731 17.6172-58.3242 21.9531-58.3242ZM34.4317 3.13283C36.1817 3.63479 38.3008 2.72854 38.9004 0.595721L44.3379-19.2871C45.0352-21.7754 43.9824-23.5879 41.4375-24.2988L25.5293-28.8164L26.7774-42.7656C26.8262-43.2051 27.3281-43.4492 27.6836-43.2051L35.0313-37.9141C36.377-36.959 38.043-36.959 39.3535-37.9141L52.1875-47.0742C53.8535-48.2734 54.2442-50.5527 53.0801-52.2402C51.8946-53.9063 49.5801-54.2617 47.9141-53.0977L37.2344-45.4082L28.3945-51.752C26.5332-53.0977 24.2813-54.0527 21.5137-54.0527C16.8711-54.0527 13.3574-51.1035 13.0508-46.9277L11.8379-29.7227C11.4824-24.5918 13.957-20.8066 19.6524-19.9629L36.2305-17.5859L31.8106-1.34959C31.211 0.804706 32.4238 2.58205 34.4317 3.13283ZM67.5313-42.3984C72.5254-42.3984 76.5782-46.4863 76.5782-51.459C76.5782-56.4317 72.5254-60.4922 67.5313-60.4922C62.5313-60.4922 58.4844-56.4317 58.4844-51.459C58.4844-46.4863 62.5313-42.3984 67.5313-42.3984ZM67.5313-45.0957C63.8184-45.0957 61.168-47.7461 61.168-51.459C61.168-55.1445 63.8184-57.7949 67.5313-57.7949C71.2305-57.7949 73.8809-55.1445 73.8809-51.459C73.8809-47.7461 71.2305-45.0957 67.5313-45.0957ZM43.5918 2.83987L63.9688 2.83987C65.4258 2.83987 65.6875 1.06447 64.5997 0.343762L56.8477-4.82616C57.7774-6.08202 58.2305-7.36522 58.6426-8.95702L67.2188-42.918L64.5-43.5488L55.9942-9.55272C54.5782-3.86132 49.5489 0.0449327 43.5918 0.0449327C42.8223 0.0449327 42.2539 0.675796 42.2539 1.45314C42.2539 2.20901 42.8223 2.83987 43.5918 2.83987ZM16.6543-10.6816L23.8692-12.2012C24.5996-12.3613 25.002-12.9375 25.002-13.7168C25.002-14.5098 24.5235-14.9883 23.8067-15.0996L11.6211-17.1699C9.9375-17.4551 9.47266-16.2129 10.0293-15.0293L10.6914-13.6348C11.8613-11.168 13.7207-10.0547 16.6543-10.6816ZM11.4336 2.83987L27.084 2.83987C27.9375 2.83987 28.5059 2.24416 28.5059 1.45314C28.5059 0.64064 27.9375 0.0449327 27.084 0.0449327C24.4317 0.0449327 22.4278-1.00194 21.7227-4.24803L19.7656-13.1992L17.082-12.6309L18.7266-4.99218L10.6426 0.343762C9.60351 1.06447 9.77344 2.83987 11.4336 2.83987Z"/>
  </g>
  <g id="Ultralight-S" transform="matrix(1 0 0 1 517.534 696)">
   <path d="M21.4917-57.9038C25.7251-57.9038 29.2158-61.3911 29.2158-65.6734C29.2158-69.9068 25.7251-73.3521 21.4917-73.3521C17.2583-73.3521 13.7676-69.9068 13.7676-65.6734C13.7676-61.3911 17.2583-57.9038 21.4917-57.9038ZM33.6934 2.39456C35.4126 2.88626 37.4805 2.00051 38.0699-0.0707775L43.3843-19.5434C44.0713-21.96 43.0391-23.7314 40.5352-24.4219L24.9859-28.8472L26.2134-42.4785C26.2622-42.918 26.7539-43.1621 27.0991-42.918L34.2827-37.75C35.6079-36.8154 37.2329-36.8154 38.5127-37.75L51.0596-46.7051C52.6846-47.8838 53.0752-50.1016 51.9419-51.7686C50.7666-53.3936 48.5035-53.7388 46.8785-52.6055L36.4449-45.0801L27.7896-51.2803C25.9693-52.6055 23.7583-53.5401 21.0523-53.5401C16.5225-53.5401 13.0806-50.6421 12.7842-46.5586L11.6021-29.7329C11.2568-24.7148 13.6699-21.022 19.2319-20.1885L35.4615-17.873L31.1338-1.98533C30.5445 0.127953 31.7266 1.85403 33.6934 2.39456ZM66.065-42.46C70.7925-42.46 74.5889-46.3018 74.5889-50.9873C74.5889-55.6729 70.7925-59.5078 66.065-59.5078C61.3726-59.5078 57.541-55.6729 57.541-50.9873C57.541-46.3018 61.3726-42.46 66.065-42.46ZM66.065-44.5625C62.2803-44.5625 59.6402-47.2027 59.6402-50.9873C59.6402-54.7651 62.2803-57.4053 66.065-57.4053C69.8462-57.4053 72.4864-54.7651 72.4864-50.9873C72.4864-47.2027 69.8462-44.5625 66.065-44.5625ZM42.6485 1.84525L62.5743 1.84525C63.7442 1.84525 63.8829 0.44924 63.0616-0.0971526L55.2276-5.30809C56.2291-6.5742 56.6719-7.84715 57.1045-9.49022L65.5474-42.8462L63.4029-43.3335L55.0508-9.93212C53.6348-4.26122 48.6055-0.354967 42.6485-0.354967C42.0532-0.354967 41.6182 0.132343 41.6182 0.766137C41.6182 1.35794 42.0532 1.84525 42.6485 1.84525ZM16.2852-11.2763L23.3257-12.7549C23.9844-12.9048 24.3047-13.3784 24.3047-14.0859C24.3047-14.7969 23.9287-15.1728 23.2735-15.2739L11.3648-17.293C9.84522-17.5474 9.47266-16.541 9.97803-15.4394L10.6196-14.0654C11.7178-11.6909 13.4644-10.6802 16.2852-11.2763ZM11.208 1.84525L26.5098 1.84525C27.1992 1.84525 27.6343 1.40335 27.6343 0.766137C27.6343 0.0869334 27.1992-0.354967 26.5098-0.354967C23.7959-0.354967 21.7202-1.42235 20.9947-4.76072L19.1504-13.2607L17.0513-12.8257L18.6343-5.42284L10.5708-0.0971526C9.79833 0.44924 9.8042 1.84525 11.208 1.84525Z"/>
  </g>
 </g>
</svg>
