<?xml version="1.0" encoding="UTF-8"?>
<!--Generator: Apple Native CoreSVG 175.5-->
<!DOCTYPE svg
PUBLIC "-//W3C//DTD SVG 1.1//EN"
       "http://www.w3.org/Graphics/SVG/1.1/DTD/svg11.dtd">
<svg version="1.1" xmlns="http://www.w3.org/2000/svg" xmlns:xlink="http://www.w3.org/1999/xlink" width="3300" height="2200">
 <!--glyph: "uni10007D.medium", point size: 100.0, font version: "18.0d12e2", template writer version: "101"-->
 <g id="Notes">
  <rect height="2200" id="artboard" style="fill:white;opacity:1" width="3300" x="0" y="0"/>
  <line style="fill:none;stroke:black;opacity:1;stroke-width:0.5;" x1="263" x2="3036" y1="292" y2="292"/>
  <text style="stroke:none;fill:black;font-family:sans-serif;font-size:13;font-weight:bold;" transform="matrix(1 0 0 1 263 322)">Weight/Scale Variations</text>
  <text style="stroke:none;fill:black;font-family:sans-serif;font-size:13;text-anchor:middle;" transform="matrix(1 0 0 1 559.711 322)">Ultralight</text>
  <text style="stroke:none;fill:black;font-family:sans-serif;font-size:13;text-anchor:middle;" transform="matrix(1 0 0 1 856.422 322)">Thin</text>
  <text style="stroke:none;fill:black;font-family:sans-serif;font-size:13;text-anchor:middle;" transform="matrix(1 0 0 1 1153.13 322)">Light</text>
  <text style="stroke:none;fill:black;font-family:sans-serif;font-size:13;text-anchor:middle;" transform="matrix(1 0 0 1 1449.84 322)">Regular</text>
  <text style="stroke:none;fill:black;font-family:sans-serif;font-size:13;text-anchor:middle;" transform="matrix(1 0 0 1 1746.56 322)">Medium</text>
  <text style="stroke:none;fill:black;font-family:sans-serif;font-size:13;text-anchor:middle;" transform="matrix(1 0 0 1 2043.27 322)">Semibold</text>
  <text style="stroke:none;fill:black;font-family:sans-serif;font-size:13;text-anchor:middle;" transform="matrix(1 0 0 1 2339.98 322)">Bold</text>
  <text style="stroke:none;fill:black;font-family:sans-serif;font-size:13;text-anchor:middle;" transform="matrix(1 0 0 1 2636.69 322)">Heavy</text>
  <text style="stroke:none;fill:black;font-family:sans-serif;font-size:13;text-anchor:middle;" transform="matrix(1 0 0 1 2933.4 322)">Black</text>
  <line style="fill:none;stroke:black;opacity:1;stroke-width:0.5;" x1="263" x2="3036" y1="1903" y2="1903"/>
  <g transform="matrix(1 0 0 1 263 1933)">
   <path d="M9.24805 0.830078C13.5547 0.830078 17.1387-2.74414 17.1387-7.05078C17.1387-11.3574 13.5449-14.9316 9.23828-14.9316C4.94141-14.9316 1.36719-11.3574 1.36719-7.05078C1.36719-2.74414 4.95117 0.830078 9.24805 0.830078ZM9.24805-0.654297C5.70312-0.654297 2.87109-3.49609 2.87109-7.05078C2.87109-10.6055 5.69336-13.4473 9.23828-13.4473C12.793-13.4473 15.6445-10.6055 15.6445-7.05078C15.6445-3.49609 12.8027-0.654297 9.24805-0.654297ZM5.6543-7.05078C5.6543-6.62109 5.95703-6.32812 6.40625-6.32812L8.50586-6.32812L8.50586-4.20898C8.50586-3.76953 8.79883-3.4668 9.22852-3.4668C9.67773-3.4668 9.9707-3.76953 9.9707-4.20898L9.9707-6.32812L12.0898-6.32812C12.5293-6.32812 12.832-6.62109 12.832-7.05078C12.832-7.49023 12.5293-7.79297 12.0898-7.79297L9.9707-7.79297L9.9707-9.90234C9.9707-10.3516 9.67773-10.6543 9.22852-10.6543C8.79883-10.6543 8.50586-10.3516 8.50586-9.90234L8.50586-7.79297L6.40625-7.79297C5.95703-7.79297 5.6543-7.49023 5.6543-7.05078Z"/>
  </g>
  <g transform="matrix(1 0 0 1 281.867 1933)">
   <path d="M11.709 2.91016C17.1582 2.91016 21.6699-1.61133 21.6699-7.05078C21.6699-12.5 17.1484-17.0117 11.6992-17.0117C6.25977-17.0117 1.74805-12.5 1.74805-7.05078C1.74805-1.61133 6.26953 2.91016 11.709 2.91016ZM11.709 1.25C7.09961 1.25 3.41797-2.44141 3.41797-7.05078C3.41797-11.6602 7.08984-15.3516 11.6992-15.3516C16.3086-15.3516 20.0098-11.6602 20.0098-7.05078C20.0098-2.44141 16.3184 1.25 11.709 1.25ZM7.17773-7.05078C7.17773-6.57227 7.50977-6.25 8.00781-6.25L10.8789-6.25L10.8789-3.36914C10.8789-2.88086 11.2109-2.53906 11.6895-2.53906C12.1777-2.53906 12.5195-2.87109 12.5195-3.36914L12.5195-6.25L15.4004-6.25C15.8887-6.25 16.2305-6.57227 16.2305-7.05078C16.2305-7.53906 15.8887-7.88086 15.4004-7.88086L12.5195-7.88086L12.5195-10.752C12.5195-11.25 12.1777-11.5918 11.6895-11.5918C11.2109-11.5918 10.8789-11.25 10.8789-10.752L10.8789-7.88086L8.00781-7.88086C7.50977-7.88086 7.17773-7.53906 7.17773-7.05078Z"/>
  </g>
  <g transform="matrix(1 0 0 1 305.646 1933)">
   <path d="M14.9707 5.66406C21.9336 5.66406 27.6953-0.0976562 27.6953-7.05078C27.6953-14.0137 21.9238-19.7754 14.9609-19.7754C8.00781-19.7754 2.25586-14.0137 2.25586-7.05078C2.25586-0.0976562 8.01758 5.66406 14.9707 5.66406ZM14.9707 3.84766C8.93555 3.84766 4.08203-1.01562 4.08203-7.05078C4.08203-13.0957 8.92578-17.9492 14.9609-17.9492C21.0059-17.9492 25.8691-13.0957 25.8691-7.05078C25.8691-1.01562 21.0156 3.84766 14.9707 3.84766ZM9.19922-7.05078C9.19922-6.5332 9.57031-6.17188 10.1172-6.17188L14.0625-6.17188L14.0625-2.2168C14.0625-1.67969 14.4336-1.29883 14.9512-1.29883C15.4883-1.29883 15.8594-1.66992 15.8594-2.2168L15.8594-6.17188L19.8145-6.17188C20.3516-6.17188 20.7324-6.5332 20.7324-7.05078C20.7324-7.59766 20.3613-7.96875 19.8145-7.96875L15.8594-7.96875L15.8594-11.9141C15.8594-12.4609 15.4883-12.8418 14.9512-12.8418C14.4336-12.8418 14.0625-12.4609 14.0625-11.9141L14.0625-7.96875L10.1172-7.96875C9.57031-7.96875 9.19922-7.59766 9.19922-7.05078Z"/>
  </g>
  <text style="stroke:none;fill:black;font-family:sans-serif;font-size:13;font-weight:bold;" transform="matrix(1 0 0 1 263 1953)">Design Variations</text>
  <text style="stroke:none;fill:black;font-family:sans-serif;font-size:13;" transform="matrix(1 0 0 1 263 1971)">Symbols are supported in up to nine weights and three scales.</text>
  <text style="stroke:none;fill:black;font-family:sans-serif;font-size:13;" transform="matrix(1 0 0 1 263 1989)">For optimal layout with text and other symbols, vertically align</text>
  <text style="stroke:none;fill:black;font-family:sans-serif;font-size:13;" transform="matrix(1 0 0 1 263 2007)">symbols with the adjacent text.</text>
  <line style="fill:none;stroke:#00AEEF;stroke-width:0.5;opacity:1.0;" x1="776" x2="776" y1="1919" y2="1933"/>
  <g transform="matrix(1 0 0 1 776 1933)">
   <path d="M3.31055 0.15625C3.82812 0.15625 4.08203-0.0390625 4.26758-0.585938L5.52734-4.0332L11.2891-4.0332L12.5488-0.585938C12.7344-0.0390625 12.9883 0.15625 13.4961 0.15625C14.0137 0.15625 14.3457-0.15625 14.3457-0.644531C14.3457-0.810547 14.3164-0.966797 14.2383-1.17188L9.6582-13.3691C9.43359-13.9648 9.0332-14.2676 8.4082-14.2676C7.80273-14.2676 7.39258-13.9746 7.17773-13.3789L2.59766-1.16211C2.51953-0.957031 2.49023-0.800781 2.49023-0.634766C2.49023-0.146484 2.80273 0.15625 3.31055 0.15625ZM6.00586-5.51758L8.37891-12.0898L8.42773-12.0898L10.8008-5.51758Z"/>
  </g>
  <line style="fill:none;stroke:#00AEEF;stroke-width:0.5;opacity:1.0;" x1="793.197" x2="793.197" y1="1919" y2="1933"/>
  <text style="stroke:none;fill:black;font-family:sans-serif;font-size:13;font-weight:bold;" transform="matrix(1 0 0 1 776 1953)">Margins</text>
  <text style="stroke:none;fill:black;font-family:sans-serif;font-size:13;" transform="matrix(1 0 0 1 776 1971)">Leading and trailing margins on the left and right side of each symbol</text>
  <text style="stroke:none;fill:black;font-family:sans-serif;font-size:13;" transform="matrix(1 0 0 1 776 1989)">can be adjusted by modifying the x-location of the margin guidelines.</text>
  <text style="stroke:none;fill:black;font-family:sans-serif;font-size:13;" transform="matrix(1 0 0 1 776 2007)">Modifications are automatically applied proportionally to all</text>
  <text style="stroke:none;fill:black;font-family:sans-serif;font-size:13;" transform="matrix(1 0 0 1 776 2025)">scales and weights.</text>
  <g transform="matrix(1 0 0 1 1289 1933)">
   <path d="M2.8418 1.86523L4.54102 3.57422C5.40039 4.44336 6.38672 4.38477 7.31445 3.35938L18.0078-8.42773L17.041-9.4043L6.42578 2.27539C6.07422 2.67578 5.74219 2.77344 5.27344 2.30469L4.10156 1.14258C3.63281 0.683594 3.74023 0.341797 4.14062-0.0195312L15.6152-10.8203L14.6387-11.7871L3.04688-0.898438C2.06055 0.0195312 1.98242 0.996094 2.8418 1.86523ZM9.25781-16.3281C8.83789-15.918 8.80859-15.3418 9.04297-14.9512C9.27734-14.5898 9.73633-14.3555 10.3809-14.5215C11.8457-14.8633 13.3691-14.9219 14.7949-13.9844L14.209-12.5293C13.8672-11.6992 14.043-11.1133 14.5801-10.5664L16.875-8.25195C17.3633-7.76367 17.7734-7.74414 18.3398-7.8418L19.4043-8.03711L20.0684-7.36328L20.0293-6.80664C19.9902-6.30859 20.1172-5.92773 20.6055-5.44922L21.3672-4.70703C21.8457-4.22852 22.4609-4.19922 22.9297-4.66797L25.8398-7.58789C26.3086-8.05664 26.2891-8.65234 25.8105-9.13086L25.0391-9.89258C24.5605-10.3711 24.1895-10.5273 23.7109-10.4883L23.1348-10.4395L22.4902-11.0742L22.7344-12.1973C22.8613-12.7637 22.7051-13.2031 22.1191-13.7891L19.9219-15.9766C16.582-19.2969 12.1484-19.2188 9.25781-16.3281ZM10.752-15.957C13.1836-17.7344 16.4746-17.4316 18.7012-15.2051L21.1328-12.793C21.3672-12.5586 21.4062-12.373 21.3379-12.0312L21.0156-10.5469L22.5195-9.0625L23.5059-9.12109C23.7598-9.13086 23.8379-9.11133 24.0332-8.91602L24.6094-8.33984L22.168-5.89844L21.5918-6.47461C21.3965-6.66992 21.3672-6.74805 21.377-7.01172L21.4453-7.98828L19.9512-9.47266L18.4277-9.21875C18.1055-9.15039 17.959-9.17969 17.7148-9.41406L15.7129-11.416C15.459-11.6504 15.4297-11.8164 15.5859-12.1875L16.4648-14.2773C14.9023-15.7324 12.8711-16.3574 10.8398-15.7617C10.6836-15.7227 10.625-15.8496 10.752-15.957Z"/>
  </g>
  <text style="stroke:none;fill:black;font-family:sans-serif;font-size:13;font-weight:bold;" transform="matrix(1 0 0 1 1289 1953)">Exporting</text>
  <text style="stroke:none;fill:black;font-family:sans-serif;font-size:13;" transform="matrix(1 0 0 1 1289 1971)">Symbols should be outlined when exporting to ensure the</text>
  <text style="stroke:none;fill:black;font-family:sans-serif;font-size:13;" transform="matrix(1 0 0 1 1289 1989)">design is preserved when submitting to Xcode.</text>
  <text id="template-version" style="stroke:none;fill:black;font-family:sans-serif;font-size:13;text-anchor:end;" transform="matrix(1 0 0 1 3036 1933)">Template v.4.0</text>
  <text style="stroke:none;fill:black;font-family:sans-serif;font-size:13;text-anchor:end;" transform="matrix(1 0 0 1 3036 1951)">Requires Xcode 14 or greater</text>
  <text id="descriptive-name" style="stroke:none;fill:black;font-family:sans-serif;font-size:13;text-anchor:end;" transform="matrix(1 0 0 1 3036 1969)">Generated from arrow.right.circle.fill</text>
  <text style="stroke:none;fill:black;font-family:sans-serif;font-size:13;text-anchor:end;" transform="matrix(1 0 0 1 3036 1987)">Typeset at 100 points</text>
  <text style="stroke:none;fill:black;font-family:sans-serif;font-size:13;" transform="matrix(1 0 0 1 263 726)">Small</text>
  <text style="stroke:none;fill:black;font-family:sans-serif;font-size:13;" transform="matrix(1 0 0 1 263 1156)">Medium</text>
  <text style="stroke:none;fill:black;font-family:sans-serif;font-size:13;" transform="matrix(1 0 0 1 263 1586)">Large</text>
 </g>
 <g id="Guides">
  <g id="H-reference" style="fill:#27AAE1;stroke:none;" transform="matrix(1 0 0 1 339 696)">
   <path d="M0.993654 0L3.63775 0L29.3281-67.1323L30.0303-67.1323L30.0303-70.459L28.1226-70.459ZM11.6885-24.4799L46.9815-24.4799L46.2315-26.7285L12.4385-26.7285ZM55.1196 0L57.7637 0L30.6382-70.459L29.4326-70.459L29.4326-67.1323Z"/>
  </g>
  <line id="Baseline-S" style="fill:none;stroke:#27AAE1;opacity:1;stroke-width:0.5;" x1="263" x2="3036" y1="696" y2="696"/>
  <line id="Capline-S" style="fill:none;stroke:#27AAE1;opacity:1;stroke-width:0.5;" x1="263" x2="3036" y1="625.541" y2="625.541"/>
  <g id="H-reference" style="fill:#27AAE1;stroke:none;" transform="matrix(1 0 0 1 339 1126)">
   <path d="M0.993654 0L3.63775 0L29.3281-67.1323L30.0303-67.1323L30.0303-70.459L28.1226-70.459ZM11.6885-24.4799L46.9815-24.4799L46.2315-26.7285L12.4385-26.7285ZM55.1196 0L57.7637 0L30.6382-70.459L29.4326-70.459L29.4326-67.1323Z"/>
  </g>
  <line id="Baseline-M" style="fill:none;stroke:#27AAE1;opacity:1;stroke-width:0.5;" x1="263" x2="3036" y1="1126" y2="1126"/>
  <line id="Capline-M" style="fill:none;stroke:#27AAE1;opacity:1;stroke-width:0.5;" x1="263" x2="3036" y1="1055.54" y2="1055.54"/>
  <g id="H-reference" style="fill:#27AAE1;stroke:none;" transform="matrix(1 0 0 1 339 1556)">
   <path d="M0.993654 0L3.63775 0L29.3281-67.1323L30.0303-67.1323L30.0303-70.459L28.1226-70.459ZM11.6885-24.4799L46.9815-24.4799L46.2315-26.7285L12.4385-26.7285ZM55.1196 0L57.7637 0L30.6382-70.459L29.4326-70.459L29.4326-67.1323Z"/>
  </g>
  <line id="Baseline-L" style="fill:none;stroke:#27AAE1;opacity:1;stroke-width:0.5;" x1="263" x2="3036" y1="1556" y2="1556"/>
  <line id="Capline-L" style="fill:none;stroke:#27AAE1;opacity:1;stroke-width:0.5;" x1="263" x2="3036" y1="1485.54" y2="1485.54"/>
  <line id="left-margin-Regular-M" style="fill:none;stroke:#00AEEF;stroke-width:0.5;opacity:1.0;" x1="1391.32" x2="1391.32" y1="1030.79" y2="1150.12"/>
  <line id="right-margin-Regular-M" style="fill:none;stroke:#00AEEF;stroke-width:0.5;opacity:1.0;" x1="1508.37" x2="1508.37" y1="1030.79" y2="1150.12"/>
 </g>
 <g id="Symbols">
  <g id="Black-L" transform="matrix(1 0 0 1 2854.19 1556)">
   <path d="M79.1958 32.7257C116.56 32.7257 147.154 2.15259 147.154-35.2113C147.154-72.5752 116.539-103.148 79.175-103.148C41.8307-103.148 11.2588-72.5752 11.2588-35.2113C11.2588 2.15259 41.8515 32.7257 79.1958 32.7257ZM114.508-35.1749C114.508-32.1023 113.383-29.6034 111.194-27.5897L88.1747-6.14894C86.2847-4.37578 84.6631-3.70081 82.2526-3.70081C77.944-3.70081 74.9385-6.84638 74.9385-11.3862C74.9385-13.6007 75.9263-15.8492 77.5254-17.0967L84.6624-23.0824L90.4237-26.9123L77.7468-26.0049L52.3139-26.0049C47.3576-26.0049 43.824-30.007 43.824-35.1737C43.824-40.344 47.3588-44.3449 52.3139-44.3449L77.7468-44.3449L90.4041-43.4363L84.3704-47.305L77.5254-53.2531C76.0055-54.559 74.9385-56.8075 74.9385-58.9636C74.9385-63.5034 77.944-66.6282 82.2526-66.6282C84.6631-66.6282 86.2847-65.974 88.1747-64.2009L111.194-42.7393C113.405-40.7036 114.508-38.2243 114.508-35.1749Z"/>
  </g>
  <g id="Heavy-L" transform="matrix(1 0 0 1 2558.42 1556)">
   <path d="M78.2532 31.7694C115.056 31.7694 145.278 1.57794 145.278-35.2251C145.278-72.0281 115.026-102.22 78.2231-102.22C41.4446-102.22 11.2588-72.0281 11.2588-35.2251C11.2588 1.57794 41.4748 31.7694 78.2532 31.7694ZM113.109-35.2163C113.109-32.5407 112.106-30.3842 110.163-28.5747L87.3306-6.95283C85.6965-5.40798 84.2151-4.77824 82.0549-4.77824C78.1688-4.77824 75.4303-7.64745 75.4303-11.7008C75.4303-13.6969 76.3133-15.6906 77.7299-16.8339L85.2236-23.4193L91.485-27.9337L78.674-27.1311L50.9273-27.1311C46.4988-27.1311 43.3474-30.6451 43.3474-35.2106C43.3474-39.7931 46.5044-43.3014 50.9273-43.3014L78.674-43.3014L91.4604-42.4932L85.0005-47.0276L77.7299-53.5987C76.3881-54.7865 75.4303-56.7802 75.4303-58.7317C75.4303-62.7851 78.1688-65.6241 82.0549-65.6241C84.2151-65.6241 85.6965-65.0245 87.3306-63.4797L110.163-41.8277C112.142-39.9823 113.109-37.8504 113.109-35.2163Z"/>
  </g>
  <g id="Bold-L" transform="matrix(1 0 0 1 2262.89 1556)">
   <path d="M77.0704 30.5711C113.182 30.5711 142.92 0.870872 142.92-35.2405C142.92-71.3519 113.144-101.052 77.0324-101.052C40.9458-101.052 11.2588-71.3519 11.2588-35.2405C11.2588 0.870872 40.9838 30.5711 77.0704 30.5711ZM111.372-35.2625C111.372-33.0713 110.524-31.33 108.895-29.7889L86.1589-7.85477C84.8325-6.58672 83.5425-6.0183 81.6973-6.0183C78.3561-6.0183 75.9777-8.51947 75.9777-11.951C75.9777-13.6707 76.7302-15.3419 77.9238-16.3471L86.0494-23.8418L92.8809-29.194L80.1394-28.522L49.1541-28.522C45.3936-28.522 42.726-31.4365 42.726-35.2493C42.726-39.1018 45.4068-42.003 49.1541-42.003L80.1394-42.003L92.8562-41.3178L85.9034-46.6744L77.9238-54.1779C76.7974-55.2123 75.9777-56.8835 75.9777-58.574C75.9777-62.0056 78.3561-64.4687 81.6973-64.4687C83.5425-64.4687 84.8325-63.9383 86.1589-62.6703L108.895-40.6981C110.575-39.1058 111.372-37.3893 111.372-35.2625Z"/>
  </g>
  <g id="Semibold-L" transform="matrix(1 0 0 1 1966.99 1556)">
   <path d="M76.2549 29.745C111.889 29.745 141.294 0.383422 141.294-35.2511C141.294-70.8857 111.846-100.247 76.2116-100.247C40.6019-100.247 11.2588-70.8857 11.2588-35.2511C11.2588 0.383422 40.6453 29.745 76.2549 29.745ZM110.175-35.2944C110.175-33.437 109.432-31.9821 108.021-30.626L85.3511-8.47656C84.2368-7.39934 83.0789-6.87318 81.4507-6.87318C78.4852-6.87318 76.3552-9.12064 76.3552-12.1235C76.3552-13.6526 77.0176-15.1015 78.0575-16.0115L86.6187-24.133L93.8433-30.0629L81.1497-29.4809L47.9316-29.4809C44.6317-29.4809 42.2976-31.9821 42.2976-35.2759C42.2976-38.6252 44.6502-41.1079 47.9316-41.1079L81.1497-41.1079L93.8184-40.5075L86.5258-46.431L78.0575-54.5773C77.0795-55.5059 76.3552-56.9548 76.3552-58.4653C76.3552-61.4682 78.4852-63.6723 81.4507-63.6723C83.0789-63.6723 84.2368-63.1895 85.3511-62.1122L108.021-39.9194C109.494-38.5015 110.175-37.0714 110.175-35.2944Z"/>
  </g>
  <g id="Medium-L" transform="matrix(1 0 0 1 1670.9 1556)">
   <path d="M75.6366 29.1187C110.91 29.1187 140.062 0.0138167 140.062-35.2592C140.062-70.5322 110.862-99.637 75.5892-99.637C40.3412-99.637 11.2588-70.5322 11.2588-35.2592C11.2588 0.0138167 40.3886 29.1187 75.6366 29.1187ZM109.268-35.3186C109.268-33.7144 108.605-32.4765 107.358-31.2607L84.7387-8.94803C83.7851-8.01551 82.7273-7.52139 81.2638-7.52139C78.583-7.52139 76.6413-9.57647 76.6413-12.2543C76.6413-13.6389 77.2355-14.9192 78.1589-15.7571L87.0503-24.3539L94.573-30.7217L81.9157-30.208L47.0046-30.208C44.054-30.208 41.9728-32.3958 41.9728-35.2961C41.9728-38.2639 44.0764-40.4292 47.0046-40.4292L81.9157-40.4292L94.548-39.893L86.9978-46.2464L78.1589-54.8801C77.2934-55.7285 76.6413-57.0088 76.6413-58.3828C76.6413-61.0607 78.583-63.0683 81.2638-63.0683C82.7273-63.0683 83.7851-62.6217 84.7387-61.6891L107.358-39.329C108.675-38.0434 109.268-36.8304 109.268-35.3186Z"/>
  </g>
  <g id="Regular-L" transform="matrix(1 0 0 1 1374.99 1556)">
   <path d="M74.8301 28.3017C109.632 28.3017 138.454-0.468277 138.454-35.2697C138.454-70.0711 109.579-98.8411 74.7774-98.8411C40.0011-98.8411 11.2588-70.0711 11.2588-35.2697C11.2588-0.468277 40.0538 28.3017 74.8301 28.3017ZM108.084-35.3501C108.084-34.0762 107.526-33.1213 106.493-32.0886L83.9398-9.56298C83.196-8.8192 82.2688-8.36689 81.0199-8.36689C78.7107-8.36689 77.0146-10.171 77.0146-12.4249C77.0146-13.621 77.5197-14.6814 78.2911-15.4252L87.6134-24.6419L95.5247-31.581L82.9149-31.1563L45.7956-31.1563C43.3004-31.1563 41.549-32.9354 41.549-35.3225C41.549-37.7925 43.3281-39.5439 45.7956-39.5439L82.9149-39.5439L95.4996-39.0916L87.6134-46.0056L78.2911-55.275C77.5725-56.0188 77.0146-57.0792 77.0146-58.2753C77.0146-60.5292 78.7107-62.2806 81.0199-62.2806C82.2688-62.2806 83.196-61.881 83.9398-61.1373L106.493-38.5589C107.606-37.4457 108.084-36.516 108.084-35.3501Z"/>
  </g>
  <g id="Light-L" transform="matrix(1 0 0 1 1079.2 1556)">
   <path d="M73.9141 27.3856C108.257 27.3856 136.603-0.926323 136.603-35.2697C136.603-69.6131 108.224-97.925 73.8804-97.925C39.5239-97.925 11.2588-69.6131 11.2588-35.2697C11.2588-0.926323 39.5576 27.3856 73.9141 27.3856ZM106.862-35.3501C106.862-34.3624 106.419-33.6366 105.672-32.8902L82.3175-9.58207C81.7264-8.99097 81.0473-8.61499 80.0466-8.61499C78.2527-8.61499 76.9955-9.99927 76.9955-11.6997C76.9955-12.6668 77.4052-13.46 78.043-14.0511L89.0257-24.9664L97.0134-32.4207L85.9686-32.0915L44.2115-32.0915C42.2698-32.0915 40.9192-33.4888 40.9192-35.3034C40.9192-37.2581 42.3166-38.6087 44.2115-38.6087L85.9686-38.6087L97.0265-38.2328L89.0257-45.7002L78.043-56.6492C77.4389-57.2403 76.9955-58.0335 76.9955-59.0005C76.9955-60.701 78.2527-62.0516 80.0466-62.0516C81.0473-62.0516 81.7264-61.7093 82.3175-61.1182L105.672-37.7764C106.499-36.9495 106.862-36.2106 106.862-35.3501Z"/>
  </g>
  <g id="Thin-L" transform="matrix(1 0 0 1 783.716 1556)">
   <path d="M72.7024 26.174C106.44 26.174 134.155-1.53213 134.155-35.2697C134.155-69.0073 106.432-96.7134 72.694-96.7134C38.8929-96.7134 11.2588-69.0073 11.2588-35.2697C11.2588-1.53213 38.9013 26.174 72.7024 26.174ZM105.247-35.3501C105.247-34.7411 104.955-34.3181 104.587-33.9503L80.172-9.60731C79.7828-9.21814 79.4319-8.94314 78.7592-8.94314C77.6469-8.94314 76.9703-9.77209 76.9703-10.7405C76.9703-11.4047 77.2537-11.8445 77.7149-12.2336L90.8936-25.3955L98.9823-33.5314L90.0072-33.3284L42.1165-33.3284C40.9068-33.3284 40.0863-34.2209 40.0863-35.2781C40.0863-36.5514 40.9788-37.3719 42.1165-37.3719L90.0072-37.3719L99.0458-37.0969L90.8936-45.2963L77.7149-58.4666C77.2622-58.8558 76.9703-59.2956 76.9703-59.9597C76.9703-60.9282 77.6469-61.7487 78.7592-61.7487C79.4319-61.7487 79.7828-61.4821 80.172-61.0929L104.587-36.7415C105.035-36.2932 105.247-35.8068 105.247-35.3501Z"/>
  </g>
  <g id="Ultralight-L" transform="matrix(1 0 0 1 487.631 1556)">
   <path d="M72.0819 25.5534C105.509 25.5534 132.9-1.84242 132.9-35.2697C132.9-68.697 105.514-96.0928 72.0864-96.0928C38.5697-96.0928 11.2588-68.697 11.2588-35.2697C11.2588-1.84242 38.5652 25.5534 72.0819 25.5534ZM104.419-35.3501C104.419-34.935 104.205-34.6672 104.031-34.4934L79.073-9.62024C78.7873-9.3345 78.6044-9.11121 78.0999-9.11121C77.3366-9.11121 76.9574-9.65573 76.9574-10.2492C76.9574-10.7583 77.1762-11.017 77.5468-11.3028L91.8503-25.6153L99.9907-34.1002L92.0758-33.9619L41.0434-33.9619C40.2086-33.9619 39.6596-34.5958 39.6596-35.2652C39.6596-36.1894 40.2935-36.7384 41.0434-36.7384L92.0758-36.7384L100.08-36.5151L91.8503-45.0895L77.5468-59.3975C77.1717-59.6832 76.9574-59.942 76.9574-60.451C76.9574-61.0445 77.3366-61.5935 78.0999-61.5935C78.6044-61.5935 78.7873-61.3657 79.073-61.08L104.031-36.2114C104.285-35.9571 104.419-35.5999 104.419-35.3501Z"/>
  </g>
  <g id="Black-M" transform="matrix(1 0 0 1 2871.36 1126)">
   <path d="M62.0422 18.116C91.4096 18.116 115.367-5.83621 115.367-35.2035C115.367-64.5709 91.4041-88.5231 62.0367-88.5231C32.6752-88.5231 8.72266-64.5709 8.72266-35.2035C8.72266-5.83621 32.6807 18.116 62.0422 18.116ZM89.7511-35.1517C89.7511-32.4687 88.789-30.2694 86.921-28.5727L68.8183-12.0113C67.1548-10.462 65.8117-9.91055 63.7625-9.91055C60.1312-9.91055 57.6327-12.5282 57.6327-16.3885C57.6327-18.2608 58.4751-20.1856 59.8528-21.221L65.3006-25.573L69.3447-28.0218L59.8505-27.2417L41.5068-27.2417C37.2883-27.2417 34.2765-30.71 34.2765-35.1519C34.2765-39.593 37.288-43.0616 41.5068-43.0616L59.8505-43.0616L69.3389-42.2818L65.0151-44.782L59.8528-49.0823C58.5377-50.1748 57.6327-52.0996 57.6327-53.9149C57.6327-57.7752 60.1312-60.3873 63.7625-60.3873C65.8117-60.3873 67.1548-59.8413 68.8183-58.292L86.921-41.7251C88.7942-40.0232 89.7511-37.8297 89.7511-35.1517Z"/>
  </g>
  <g id="Heavy-M" transform="matrix(1 0 0 1 2575.48 1126)">
   <path d="M61.2053 17.2657C90.0667 17.2657 113.704-6.35571 113.704-35.217C113.704-64.0783 90.0502-87.6997 61.1889-87.6997C32.3418-87.6997 8.72266-64.0783 8.72266-35.217C8.72266-6.35571 32.3582 17.2657 61.2053 17.2657ZM88.496-35.1921C88.496-32.8709 87.6436-30.9852 85.9891-29.4616L68.1428-12.7954C66.7154-11.4552 65.4863-10.9409 63.6591-10.9409C60.3932-10.9409 58.1152-13.3271 58.1152-16.7629C58.1152-18.4429 58.864-20.1432 60.0756-21.0908L65.7189-25.8724L70.2448-28.9428L60.4752-28.2563L40.2975-28.2563C36.5439-28.2563 33.8688-31.2827 33.8688-35.1898C33.8688-39.1037 36.5462-42.1279 40.2975-42.1279L60.4752-42.1279L70.2306-41.4391L65.5008-44.5389L60.0756-49.2934C58.9241-50.2846 58.1152-51.9849 58.1152-53.6213C58.1152-57.0571 60.3932-59.4268 63.6591-59.4268C65.4863-59.4268 66.7154-58.929 68.1428-57.5888L85.9891-40.9061C87.6623-39.3638 88.496-37.4923 88.496-35.1921Z"/>
  </g>
  <g id="Bold-M" transform="matrix(1 0 0 1 2279.69 1126)">
   <path d="M60.2692 16.3144C88.5644 16.3144 111.844-6.93686 111.844-35.2321C111.844-63.5273 88.5358-86.7786 60.2405-86.7786C31.9688-86.7786 8.72266-63.5273 8.72266-35.2321C8.72266-6.93686 31.9974 16.3144 60.2692 16.3144ZM87.092-35.2373C87.092-33.3208 86.3623-31.786 84.9467-30.456L67.3872-13.6725C66.2238-12.5662 65.1224-12.0935 63.5434-12.0935C60.6864-12.0935 58.655-14.2209 58.655-17.1818C58.655-18.6466 59.2991-20.0958 60.3248-20.9452L66.1868-26.2075L71.2517-29.9731L61.174-29.3913L38.9446-29.3913C35.7111-29.3913 33.4126-31.9234 33.4126-35.2322C33.4126-38.5564 35.7163-41.0833 38.9446-41.0833L61.174-41.0833L71.2282-40.4964L66.044-44.2671L60.3248-49.5294C59.3562-50.4073 58.655-51.8566 58.655-53.2928C58.655-56.2538 60.6864-58.3525 63.5434-58.3525C65.1224-58.3525 66.2238-57.9084 67.3872-56.8021L84.9467-39.99C86.396-38.6262 87.092-37.115 87.092-35.2373Z"/>
  </g>
  <g id="Semibold-M" transform="matrix(1 0 0 1 1983.62 1126)">
   <path d="M59.6238 15.6586C87.5288 15.6586 110.562-7.33749 110.562-35.2425C110.562-63.1475 87.4917-86.1436 59.5867-86.1436C31.7117-86.1436 8.72266-63.1475 8.72266-35.2425C8.72266-7.33749 31.7487 15.6586 59.6238 15.6586ZM86.1241-35.2685C86.1241-33.6309 85.4789-32.338 84.228-31.1415L66.8663-14.2772C65.8849-13.3322 64.8715-12.8881 63.4636-12.8881C60.8884-12.8881 59.0271-14.837 59.0271-17.4706C59.0271-18.787 59.599-20.0632 60.4966-20.8448L66.5094-26.4384L71.9458-30.6833L61.6558-30.1738L38.012-30.1738C35.137-30.1738 33.0981-32.365 33.0981-35.2614C33.0981-38.179 35.1442-40.3632 38.012-40.3632L61.6558-40.3632L71.9159-39.8465L66.4186-44.0797L60.4966-49.6922C59.6542-50.4919 59.0271-51.7681 59.0271-53.0664C59.0271-55.7 60.8884-57.6118 63.4636-57.6118C64.8715-57.6118 65.8849-57.2048 66.8663-56.2598L84.228-39.3584C85.5231-38.1178 86.1241-36.8548 86.1241-35.2685Z"/>
  </g>
  <g id="Medium-M" transform="matrix(1 0 0 1 1687.4 1126)">
   <path d="M59.1344 15.1614C86.7435 15.1614 109.59-7.64127 109.59-35.2504C109.59-62.8595 86.7001-85.6621 59.091-85.6621C31.5167-85.6621 8.72266-62.8595 8.72266-35.2504C8.72266-7.64127 31.5601 15.1614 59.1344 15.1614ZM85.3902-35.2921C85.3902-33.8661 84.8091-32.7566 83.6831-31.6613L66.4713-14.7357C65.628-13.9129 64.6813-13.4906 63.4031-13.4906C61.0416-13.4906 59.3093-15.3042 59.3093-17.6895C59.3093-18.8934 59.8264-20.0384 60.6269-20.7686L66.7539-26.6135L72.4722-31.2219L62.0211-30.7671L37.3049-30.7671C34.7017-30.7671 32.8597-32.6999 32.8597-35.2835C32.8597-37.8929 34.7103-39.8172 37.3049-39.8172L62.0211-39.8172L72.4374-39.3538L66.7026-43.9375L60.6269-49.8156C59.8801-50.5561 59.3093-51.7011 59.3093-52.8947C59.3093-55.2801 61.0416-57.0502 63.4031-57.0502C64.6813-57.0502 65.628-56.6713 66.4713-55.8486L83.6831-38.8795C84.8612-37.7322 85.3902-36.6575 85.3902-35.2921Z"/>
  </g>
  <g id="Regular-M" transform="matrix(1 0 0 1 1391.32 1126)">
   <path d="M58.4961 14.5128C85.7192 14.5128 108.321-8.0375 108.321-35.2606C108.321-62.4838 85.6675-85.0341 58.4443-85.0341C31.2624-85.0341 8.72266-62.4838 8.72266-35.2606C8.72266-8.0375 31.3141 14.5128 58.4961 14.5128ZM84.4329-35.3229C84.4329-34.1728 83.9355-33.3026 82.9723-32.3393L65.9561-15.3337C65.2928-14.6704 64.4331-14.2765 63.3242-14.2765C61.2415-14.2765 59.6773-15.9135 59.6773-17.9751C59.6773-19.0323 60.123-20.0061 60.7968-20.6693L67.073-26.842L73.1587-31.9243L62.4975-31.5409L36.3825-31.5409C34.134-31.5409 32.5487-33.1367 32.5487-35.3124C32.5487-37.5197 34.1445-39.105 36.3825-39.105L62.4975-39.105L73.1175-38.711L67.073-43.7522L60.7968-49.9766C60.1748-50.6398 59.6773-51.6136 59.6773-52.6708C59.6773-54.7324 61.2415-56.3176 63.3242-56.3176C64.4331-56.3176 65.2928-55.9755 65.9561-55.3122L82.9723-38.2548C83.9978-37.2293 84.4329-36.4002 84.4329-35.3229Z"/>
  </g>
  <g id="Light-M" transform="matrix(1 0 0 1 1095.44 1126)">
   <path d="M57.6748 13.6915C84.4872 13.6915 106.662-8.44816 106.662-35.2606C106.662-62.0731 84.4526-84.2128 57.6401-84.2128C30.8346-84.2128 8.72266-62.0731 8.72266-35.2606C8.72266-8.44816 30.8693 13.6915 57.6748 13.6915ZM83.3378-35.3229C83.3378-34.4295 82.9431-33.7645 82.2365-33.058L64.5017-15.3508C63.9753-14.8244 63.338-14.499 62.4515-14.499C60.8308-14.499 59.6602-15.7595 59.6602-17.3249C59.6602-18.1768 60.0204-18.911 60.5744-19.4373L68.3392-27.1329L74.4934-32.6772L65.2353-32.3794L34.9623-32.3794C33.21-32.3794 31.984-33.633 31.984-35.2953C31.984-37.0406 33.2376-38.2665 34.9623-38.2665L65.2353-38.2665L74.4864-37.9411L68.3392-43.4784L60.5744-51.2086C60.055-51.7349 59.6602-52.4691 59.6602-53.321C59.6602-54.8864 60.8308-56.1123 62.4515-56.1123C63.338-56.1123 63.9753-55.8215 64.5017-55.2951L82.2365-37.5533C83.0054-36.7844 83.3378-36.1265 83.3378-35.3229Z"/>
  </g>
  <g id="Thin-M" transform="matrix(1 0 0 1 799.828 1126)">
   <path d="M56.5885 12.6052C82.8578 12.6052 104.466-8.9913 104.466-35.2606C104.466-61.53 82.8458-83.1265 56.5765-83.1265C30.2689-83.1265 8.72266-61.53 8.72266-35.2606C8.72266-8.9913 30.2809 12.6052 56.5885 12.6052ZM81.8895-35.3229C81.8895-34.7689 81.6305-34.3756 81.2634-34.0085L62.5781-15.3734C62.2327-15.0281 61.8897-14.7932 61.2974-14.7932C60.2877-14.7932 59.6376-15.5559 59.6376-16.465C59.6376-17.0452 59.8846-17.4626 60.2802-17.8079L70.0138-27.5176L76.2586-33.6729L68.8562-33.4883L33.0839-33.4883C31.9879-33.4883 31.2372-34.2892 31.2372-35.2727C31.2372-36.4069 32.0382-37.1576 33.0839-37.1576L68.8562-37.1576L76.2968-36.9227L70.0138-43.1163L60.2802-52.838C59.8966-53.1833 59.6376-53.6007 59.6376-54.1809C59.6376-55.09 60.2877-55.8407 61.2974-55.8407C61.8897-55.8407 62.2327-55.6178 62.5781-55.2725L81.2634-36.6254C81.6928-36.196 81.8895-35.7644 81.8895-35.3229Z"/>
  </g>
  <g id="Ultralight-M" transform="matrix(1 0 0 1 503.679 1126)">
   <path d="M56.0321 12.0488C82.0233 12.0488 103.342-9.26949 103.342-35.2606C103.342-61.2518 82.0228-82.5701 56.0317-82.5701C29.9791-82.5701 8.72266-61.2518 8.72266-35.2606C8.72266-9.26949 29.9795 12.0488 56.0321 12.0488ZM81.1476-35.3229C81.1476-34.9428 80.9582-34.6885 80.765-34.4953L61.5928-15.385C61.3402-15.1324 61.1478-14.9438 60.7062-14.9438C60.0095-14.9438 59.626-15.4515 59.626-16.0245C59.626-16.4657 59.815-16.7208 60.1295-16.9734L70.8716-27.7146L77.1627-34.1829L70.7108-34.0562L32.1218-34.0562C31.362-34.0562 30.8547-34.6254 30.8547-35.2611C30.8547-36.0824 31.4239-36.5897 32.1218-36.5897L70.7108-36.5897L77.2241-36.4011L70.8716-42.9309L60.1295-53.6725C59.8154-53.9251 59.626-54.1802 59.626-54.6214C59.626-55.1944 60.0095-55.7016 60.7062-55.7016C61.1478-55.7016 61.3402-55.5135 61.5928-55.2609L80.765-36.1502C81.0205-35.8946 81.1476-35.5789 81.1476-35.3229Z"/>
  </g>
  <g id="Black-S" transform="matrix(1 0 0 1 2884.57 696)">
   <path d="M48.8281 6.78711C71.9727 6.78711 90.8203-12.0605 90.8203-35.2051C90.8203-58.3496 71.9727-77.1973 48.8281-77.1973C25.6836-77.1973 6.83594-58.3496 6.83594-35.2051C6.83594-12.0605 25.6836 6.78711 48.8281 6.78711ZM70.6543-35.1562C70.6543-32.959 69.873-31.1523 68.3594-29.7852L54.0527-16.7969C52.6855-15.5273 51.6113-15.0879 49.9512-15.0879C47.0215-15.0879 45.0195-17.1875 45.0195-20.3125C45.0195-21.8262 45.7031-23.3887 46.8262-24.2188L51.123-27.5879L54.1504-29.3457L46.875-28.7109L32.8125-28.7109C29.3945-28.7109 26.9531-31.543 26.9531-35.1562C26.9531-38.7695 29.3945-41.6016 32.8125-41.6016L46.875-41.6016L54.1504-40.9668L50.8789-42.7734L46.8262-46.0938C45.752-46.9727 45.0195-48.5352 45.0195-50C45.0195-53.125 47.0215-55.2246 49.9512-55.2246C51.6113-55.2246 52.6855-54.7852 54.0527-53.5156L68.3594-40.5273C69.873-39.1602 70.6543-37.3535 70.6543-35.1562Z"/>
  </g>
  <g id="Heavy-S" transform="matrix(1 0 0 1 2588.47 696)">
   <path d="M48.2173 6.16479C70.9816 6.16479 89.6102-12.4524 89.6102-35.2166C89.6102-57.9808 70.97-76.598 48.2058-76.598C25.4531-76.598 6.83594-57.9808 6.83594-35.2166C6.83594-12.4524 25.4646 6.16479 48.2173 6.16479ZM69.7208-35.1908C69.7208-33.2701 69.0202-31.7055 67.6564-30.4536L53.6609-17.4653C52.4781-16.3571 51.473-15.9407 49.9742-15.9407C47.2981-15.9407 45.4344-17.8905 45.4344-20.7159C45.4344-22.0912 46.0489-23.4924 47.0451-24.2648L51.319-27.8069L54.7497-30.0372L47.0594-29.4716L31.9597-29.4716C28.8759-29.4716 26.6765-31.9694 26.6765-35.1908C26.6765-38.4123 28.8759-40.9101 31.9597-40.9101L47.0594-40.9101L54.7381-40.3445L51.1324-42.6006L47.0451-46.1168C46.0977-46.9266 45.4344-48.3277 45.4344-49.6658C45.4344-52.4912 47.2981-54.4294 49.9742-54.4294C51.473-54.4294 52.4781-54.0245 53.6609-52.9164L67.6564-39.9165C69.0318-38.6531 69.7208-37.1 69.7208-35.1908Z"/>
  </g>
  <g id="Bold-S" transform="matrix(1 0 0 1 2292.43 696)">
   <path d="M47.5342 5.46875C69.873 5.46875 88.2568-12.8906 88.2568-35.2295C88.2568-57.5684 69.8486-75.9277 47.5098-75.9277C25.1953-75.9277 6.83594-57.5684 6.83594-35.2295C6.83594-12.8906 25.2197 5.46875 47.5342 5.46875ZM68.6768-35.2295C68.6768-33.6182 68.0664-32.3242 66.8701-31.2012L53.2227-18.2129C52.2461-17.2852 51.3184-16.8945 50-16.8945C47.6074-16.8945 45.8984-18.6768 45.8984-21.167C45.8984-22.3877 46.4355-23.6084 47.29-24.3164L51.5381-28.0518L55.4199-30.8105L47.2656-30.3223L31.0059-30.3223C28.2959-30.3223 26.3672-32.4463 26.3672-35.2295C26.3672-38.0127 28.2959-40.1367 31.0059-40.1367L47.2656-40.1367L55.3955-39.6484L51.416-42.4072L47.29-46.1426C46.4844-46.875 45.8984-48.0957 45.8984-49.292C45.8984-51.7822 47.6074-53.54 50-53.54C51.3184-53.54 52.2461-53.1738 53.2227-52.2461L66.8701-39.2334C68.0908-38.0859 68.6768-36.8164 68.6768-35.2295Z"/>
  </g>
  <g id="Semibold-S" transform="matrix(1 0 0 1 1996.19 696)">
   <path d="M47.0632 4.98887C69.1088 4.98887 87.3237-13.1928 87.3237-35.2384C87.3237-57.284 69.0755-75.4656 47.0299-75.4656C25.0176-75.4656 6.83594-57.284 6.83594-35.2384C6.83594-13.1928 25.0509 4.98887 47.0632 4.98887ZM67.9569-35.2562C67.9569-33.8581 67.4088-32.7508 66.328-31.7166L52.9205-18.7283C52.0861-17.925 51.2117-17.5521 50.0178-17.5521C47.8207-17.5521 46.2184-19.2188 46.2184-21.478C46.2184-22.5921 46.7021-23.6884 47.4589-24.352L51.6892-28.2206L55.882-31.3438L47.4078-30.9088L30.3482-30.9088C27.896-30.9088 26.1539-32.7751 26.1539-35.2562C26.1539-37.7372 27.896-39.6035 30.3482-39.6035L47.4078-39.6035L55.8487-39.1686L51.6115-42.2739L47.4589-46.1604C46.751-46.8395 46.2184-47.9357 46.2184-49.0343C46.2184-51.2935 47.8207-52.9269 50.0178-52.9269C51.2117-52.9269 52.0861-52.5873 52.9205-51.784L66.328-38.7624C67.4421-37.6949 67.9569-36.6209 67.9569-35.2562Z"/>
  </g>
  <g id="Medium-S" transform="matrix(1 0 0 1 1699.83 696)">
   <path d="M46.7061 4.625C68.5293 4.625 86.6162-13.4219 86.6162-35.2451C86.6162-57.0684 68.4893-75.1152 46.666-75.1152C24.8828-75.1152 6.83594-57.0684 6.83594-35.2451C6.83594-13.4219 24.9229 4.625 46.7061 4.625ZM67.4111-35.2764C67.4111-34.04 66.9102-33.0742 65.917-32.1074L52.6914-19.1191C51.9648-18.4102 51.1309-18.0508 50.0312-18.0508C47.9824-18.0508 46.4609-19.6299 46.4609-21.7139C46.4609-22.7471 46.9043-23.749 47.5869-24.3789L51.8037-28.3486L56.2324-31.748L47.5156-31.3535L29.8496-31.3535C27.5928-31.3535 25.9922-33.0244 25.9922-35.2764C25.9922-37.5283 27.5928-39.1992 29.8496-39.1992L47.5156-39.1992L56.1924-38.8047L51.7598-42.1729L47.5869-46.1738C46.9531-46.8125 46.4609-47.8145 46.4609-48.8389C46.4609-50.9229 47.9824-52.4619 50.0312-52.4619C51.1309-52.4619 51.9648-52.1426 52.6914-51.4336L65.917-38.4053C66.9502-37.3984 67.4111-36.4727 67.4111-35.2764Z"/>
  </g>
  <g id="Regular-S" transform="matrix(1 0 0 1 1403.58 696)">
   <path d="M46.2402 4.15039C67.7734 4.15039 85.6934-13.7207 85.6934-35.2539C85.6934-56.7871 67.7246-74.6582 46.1914-74.6582C24.707-74.6582 6.83594-56.7871 6.83594-35.2539C6.83594-13.7207 24.7559 4.15039 46.2402 4.15039ZM66.6992-35.3027C66.6992-34.2773 66.2598-33.4961 65.3809-32.6172L52.3926-19.6289C51.8066-19.043 51.0254-18.7012 50.0488-18.7012C48.1934-18.7012 46.7773-20.166 46.7773-22.0215C46.7773-22.9492 47.168-23.8281 47.7539-24.4141L51.9531-28.5156L56.6895-32.2754L47.6562-31.9336L29.1992-31.9336C27.1973-31.9336 25.7812-33.3496 25.7812-35.3027C25.7812-37.2559 27.1973-38.6719 29.1992-38.6719L47.6562-38.6719L56.6406-38.3301L51.9531-42.041L47.7539-46.1914C47.2168-46.7773 46.7773-47.6562 46.7773-48.584C46.7773-50.4395 48.1934-51.8555 50.0488-51.8555C51.0254-51.8555 51.8066-51.5625 52.3926-50.9766L65.3809-37.9395C66.3086-37.0117 66.6992-36.2793 66.6992-35.3027Z"/>
  </g>
  <g id="Light-S" transform="matrix(1 0 0 1 1107.6 696)">
   <path d="M45.5137 3.42383C66.6836 3.42383 84.2251-14.084 84.2251-35.2539C84.2251-56.4238 66.6499-73.9316 45.48-73.9316C24.3286-73.9316 6.83594-56.4238 6.83594-35.2539C6.83594-14.084 24.3623 3.42383 45.5137 3.42383ZM65.7305-35.3027C65.7305-34.5044 65.3818-33.9048 64.73-33.2529L51.106-19.644C50.6411-19.1792 50.0566-18.8979 49.2769-18.8979C47.8301-18.8979 46.7622-20.0298 46.7622-21.4463C46.7622-22.1924 47.0771-22.8594 47.5571-23.3242L53.0732-28.7729L57.8701-32.9414L50.0781-32.6753L27.9429-32.6753C26.3799-32.6753 25.2817-33.7886 25.2817-35.2876C25.2817-36.832 26.395-37.9302 27.9429-37.9302L50.0781-37.9302L57.8516-37.6489L53.0732-41.7988L47.5571-47.2812C47.1108-47.7461 46.7622-48.4131 46.7622-49.1592C46.7622-50.5757 47.8301-51.6738 49.2769-51.6738C50.0566-51.6738 50.6411-51.4263 51.106-50.9614L64.73-37.3189C65.4307-36.6182 65.7305-36.0371 65.7305-35.3027Z"/>
  </g>
  <g id="Thin-S" transform="matrix(1 0 0 1 811.863 696)">
   <path d="M44.5527 2.4629C65.2422 2.4629 82.2832-14.5644 82.2832-35.2539C82.2832-55.9434 65.2285-72.9707 44.5391-72.9707C23.8281-72.9707 6.83594-55.9434 6.83594-35.2539C6.83594-14.5644 23.8418 2.4629 44.5527 2.4629ZM64.4492-35.3027C64.4492-34.8047 64.2207-34.4453 63.8692-34.0937L49.4043-19.6641C49.0996-19.3594 48.7754-19.1582 48.2559-19.1582C47.3496-19.1582 46.7422-19.8496 46.7422-20.6856C46.7422-21.1914 46.957-21.5781 47.2969-21.8828L54.5547-29.1133L59.4316-33.8223L53.2812-33.6562L26.2813-33.6562C25.2988-33.6562 24.6211-34.3691 24.6211-35.2676C24.6211-36.2715 25.334-36.9492 26.2813-36.9492L53.2812-36.9492L59.4531-36.7481L54.5547-41.4785L47.2969-48.7226C46.9707-49.0273 46.7422-49.414 46.7422-49.9199C46.7422-50.7559 47.3496-51.4336 48.2559-51.4336C48.7754-51.4336 49.0996-51.2461 49.4043-50.9414L63.8692-36.4981C64.2695-36.0977 64.4492-35.7168 64.4492-35.3027Z"/>
  </g>
  <g id="Ultralight-S" transform="matrix(1 0 0 1 515.649 696)">
   <path d="M44.0606 1.97072C64.5039 1.97072 81.2886-14.8105 81.2886-35.2539C81.2886-55.6973 64.5005-72.4785 44.0571-72.4785C23.5718-72.4785 6.83594-55.6973 6.83594-35.2539C6.83594-14.8105 23.5752 1.97072 44.0606 1.97072ZM63.793-35.3027C63.793-34.9585 63.626-34.7222 63.4282-34.5244L48.5327-19.6743C48.3101-19.4517 48.1192-19.2915 47.7329-19.2915C47.1035-19.2915 46.7319-19.7573 46.7319-20.2959C46.7319-20.6787 46.8955-20.9219 47.1636-21.1446L55.3135-29.2876L60.2314-34.2734L54.9218-34.1587L25.4302-34.1587C24.7451-34.1587 24.2827-34.6665 24.2827-35.2573C24.2827-35.9844 24.7905-36.4468 25.4302-36.4468L54.9218-36.4468L60.2734-36.2866L55.3135-41.3145L47.1636-49.4609C46.8989-49.6836 46.7319-49.9267 46.7319-50.3096C46.7319-50.8481 47.1035-51.3106 47.7329-51.3106C48.1192-51.3106 48.3101-51.1538 48.5327-50.9312L63.4282-36.0777C63.6748-35.8311 63.793-35.5527 63.793-35.3027Z"/>
  </g>
 </g>
</svg>
