<?xml version="1.0" encoding="UTF-8"?>
<!--Generator: Apple Native CoreSVG 175.5-->
<!DOCTYPE svg
PUBLIC "-//W3C//DTD SVG 1.1//EN"
       "http://www.w3.org/Graphics/SVG/1.1/DTD/svg11.dtd">
<svg version="1.1" xmlns="http://www.w3.org/2000/svg" xmlns:xlink="http://www.w3.org/1999/xlink" width="3300" height="2200">
 <!--glyph: "uni101490.medium", point size: 100.0, font version: "18.0d12e2", template writer version: "101"-->
 <g id="Notes">
  <rect height="2200" id="artboard" style="fill:white;opacity:1" width="3300" x="0" y="0"/>
  <line style="fill:none;stroke:black;opacity:1;stroke-width:0.5;" x1="263" x2="3036" y1="292" y2="292"/>
  <text style="stroke:none;fill:black;font-family:sans-serif;font-size:13;font-weight:bold;" transform="matrix(1 0 0 1 263 322)">Weight/Scale Variations</text>
  <text style="stroke:none;fill:black;font-family:sans-serif;font-size:13;text-anchor:middle;" transform="matrix(1 0 0 1 559.711 322)">Ultralight</text>
  <text style="stroke:none;fill:black;font-family:sans-serif;font-size:13;text-anchor:middle;" transform="matrix(1 0 0 1 856.422 322)">Thin</text>
  <text style="stroke:none;fill:black;font-family:sans-serif;font-size:13;text-anchor:middle;" transform="matrix(1 0 0 1 1153.13 322)">Light</text>
  <text style="stroke:none;fill:black;font-family:sans-serif;font-size:13;text-anchor:middle;" transform="matrix(1 0 0 1 1449.84 322)">Regular</text>
  <text style="stroke:none;fill:black;font-family:sans-serif;font-size:13;text-anchor:middle;" transform="matrix(1 0 0 1 1746.56 322)">Medium</text>
  <text style="stroke:none;fill:black;font-family:sans-serif;font-size:13;text-anchor:middle;" transform="matrix(1 0 0 1 2043.27 322)">Semibold</text>
  <text style="stroke:none;fill:black;font-family:sans-serif;font-size:13;text-anchor:middle;" transform="matrix(1 0 0 1 2339.98 322)">Bold</text>
  <text style="stroke:none;fill:black;font-family:sans-serif;font-size:13;text-anchor:middle;" transform="matrix(1 0 0 1 2636.69 322)">Heavy</text>
  <text style="stroke:none;fill:black;font-family:sans-serif;font-size:13;text-anchor:middle;" transform="matrix(1 0 0 1 2933.4 322)">Black</text>
  <line style="fill:none;stroke:black;opacity:1;stroke-width:0.5;" x1="263" x2="3036" y1="1903" y2="1903"/>
  <g transform="matrix(1 0 0 1 263 1933)">
   <path d="M9.24805 0.830078C13.5547 0.830078 17.1387-2.74414 17.1387-7.05078C17.1387-11.3574 13.5449-14.9316 9.23828-14.9316C4.94141-14.9316 1.36719-11.3574 1.36719-7.05078C1.36719-2.74414 4.95117 0.830078 9.24805 0.830078ZM9.24805-0.654297C5.70312-0.654297 2.87109-3.49609 2.87109-7.05078C2.87109-10.6055 5.69336-13.4473 9.23828-13.4473C12.793-13.4473 15.6445-10.6055 15.6445-7.05078C15.6445-3.49609 12.8027-0.654297 9.24805-0.654297ZM5.6543-7.05078C5.6543-6.62109 5.95703-6.32812 6.40625-6.32812L8.50586-6.32812L8.50586-4.20898C8.50586-3.76953 8.79883-3.4668 9.22852-3.4668C9.67773-3.4668 9.9707-3.76953 9.9707-4.20898L9.9707-6.32812L12.0898-6.32812C12.5293-6.32812 12.832-6.62109 12.832-7.05078C12.832-7.49023 12.5293-7.79297 12.0898-7.79297L9.9707-7.79297L9.9707-9.90234C9.9707-10.3516 9.67773-10.6543 9.22852-10.6543C8.79883-10.6543 8.50586-10.3516 8.50586-9.90234L8.50586-7.79297L6.40625-7.79297C5.95703-7.79297 5.6543-7.49023 5.6543-7.05078Z"/>
  </g>
  <g transform="matrix(1 0 0 1 281.867 1933)">
   <path d="M11.709 2.91016C17.1582 2.91016 21.6699-1.61133 21.6699-7.05078C21.6699-12.5 17.1484-17.0117 11.6992-17.0117C6.25977-17.0117 1.74805-12.5 1.74805-7.05078C1.74805-1.61133 6.26953 2.91016 11.709 2.91016ZM11.709 1.25C7.09961 1.25 3.41797-2.44141 3.41797-7.05078C3.41797-11.6602 7.08984-15.3516 11.6992-15.3516C16.3086-15.3516 20.0098-11.6602 20.0098-7.05078C20.0098-2.44141 16.3184 1.25 11.709 1.25ZM7.17773-7.05078C7.17773-6.57227 7.50977-6.25 8.00781-6.25L10.8789-6.25L10.8789-3.36914C10.8789-2.88086 11.2109-2.53906 11.6895-2.53906C12.1777-2.53906 12.5195-2.87109 12.5195-3.36914L12.5195-6.25L15.4004-6.25C15.8887-6.25 16.2305-6.57227 16.2305-7.05078C16.2305-7.53906 15.8887-7.88086 15.4004-7.88086L12.5195-7.88086L12.5195-10.752C12.5195-11.25 12.1777-11.5918 11.6895-11.5918C11.2109-11.5918 10.8789-11.25 10.8789-10.752L10.8789-7.88086L8.00781-7.88086C7.50977-7.88086 7.17773-7.53906 7.17773-7.05078Z"/>
  </g>
  <g transform="matrix(1 0 0 1 305.646 1933)">
   <path d="M14.9707 5.66406C21.9336 5.66406 27.6953-0.0976562 27.6953-7.05078C27.6953-14.0137 21.9238-19.7754 14.9609-19.7754C8.00781-19.7754 2.25586-14.0137 2.25586-7.05078C2.25586-0.0976562 8.01758 5.66406 14.9707 5.66406ZM14.9707 3.84766C8.93555 3.84766 4.08203-1.01562 4.08203-7.05078C4.08203-13.0957 8.92578-17.9492 14.9609-17.9492C21.0059-17.9492 25.8691-13.0957 25.8691-7.05078C25.8691-1.01562 21.0156 3.84766 14.9707 3.84766ZM9.19922-7.05078C9.19922-6.5332 9.57031-6.17188 10.1172-6.17188L14.0625-6.17188L14.0625-2.2168C14.0625-1.67969 14.4336-1.29883 14.9512-1.29883C15.4883-1.29883 15.8594-1.66992 15.8594-2.2168L15.8594-6.17188L19.8145-6.17188C20.3516-6.17188 20.7324-6.5332 20.7324-7.05078C20.7324-7.59766 20.3613-7.96875 19.8145-7.96875L15.8594-7.96875L15.8594-11.9141C15.8594-12.4609 15.4883-12.8418 14.9512-12.8418C14.4336-12.8418 14.0625-12.4609 14.0625-11.9141L14.0625-7.96875L10.1172-7.96875C9.57031-7.96875 9.19922-7.59766 9.19922-7.05078Z"/>
  </g>
  <text style="stroke:none;fill:black;font-family:sans-serif;font-size:13;font-weight:bold;" transform="matrix(1 0 0 1 263 1953)">Design Variations</text>
  <text style="stroke:none;fill:black;font-family:sans-serif;font-size:13;" transform="matrix(1 0 0 1 263 1971)">Symbols are supported in up to nine weights and three scales.</text>
  <text style="stroke:none;fill:black;font-family:sans-serif;font-size:13;" transform="matrix(1 0 0 1 263 1989)">For optimal layout with text and other symbols, vertically align</text>
  <text style="stroke:none;fill:black;font-family:sans-serif;font-size:13;" transform="matrix(1 0 0 1 263 2007)">symbols with the adjacent text.</text>
  <line style="fill:none;stroke:#00AEEF;stroke-width:0.5;opacity:1.0;" x1="776" x2="776" y1="1919" y2="1933"/>
  <g transform="matrix(1 0 0 1 776 1933)">
   <path d="M3.31055 0.15625C3.82812 0.15625 4.08203-0.0390625 4.26758-0.585938L5.52734-4.0332L11.2891-4.0332L12.5488-0.585938C12.7344-0.0390625 12.9883 0.15625 13.4961 0.15625C14.0137 0.15625 14.3457-0.15625 14.3457-0.644531C14.3457-0.810547 14.3164-0.966797 14.2383-1.17188L9.6582-13.3691C9.43359-13.9648 9.0332-14.2676 8.4082-14.2676C7.80273-14.2676 7.39258-13.9746 7.17773-13.3789L2.59766-1.16211C2.51953-0.957031 2.49023-0.800781 2.49023-0.634766C2.49023-0.146484 2.80273 0.15625 3.31055 0.15625ZM6.00586-5.51758L8.37891-12.0898L8.42773-12.0898L10.8008-5.51758Z"/>
  </g>
  <line style="fill:none;stroke:#00AEEF;stroke-width:0.5;opacity:1.0;" x1="793.197" x2="793.197" y1="1919" y2="1933"/>
  <text style="stroke:none;fill:black;font-family:sans-serif;font-size:13;font-weight:bold;" transform="matrix(1 0 0 1 776 1953)">Margins</text>
  <text style="stroke:none;fill:black;font-family:sans-serif;font-size:13;" transform="matrix(1 0 0 1 776 1971)">Leading and trailing margins on the left and right side of each symbol</text>
  <text style="stroke:none;fill:black;font-family:sans-serif;font-size:13;" transform="matrix(1 0 0 1 776 1989)">can be adjusted by modifying the x-location of the margin guidelines.</text>
  <text style="stroke:none;fill:black;font-family:sans-serif;font-size:13;" transform="matrix(1 0 0 1 776 2007)">Modifications are automatically applied proportionally to all</text>
  <text style="stroke:none;fill:black;font-family:sans-serif;font-size:13;" transform="matrix(1 0 0 1 776 2025)">scales and weights.</text>
  <g transform="matrix(1 0 0 1 1289 1933)">
   <path d="M2.8418 1.86523L4.54102 3.57422C5.40039 4.44336 6.38672 4.38477 7.31445 3.35938L18.0078-8.42773L17.041-9.4043L6.42578 2.27539C6.07422 2.67578 5.74219 2.77344 5.27344 2.30469L4.10156 1.14258C3.63281 0.683594 3.74023 0.341797 4.14062-0.0195312L15.6152-10.8203L14.6387-11.7871L3.04688-0.898438C2.06055 0.0195312 1.98242 0.996094 2.8418 1.86523ZM9.25781-16.3281C8.83789-15.918 8.80859-15.3418 9.04297-14.9512C9.27734-14.5898 9.73633-14.3555 10.3809-14.5215C11.8457-14.8633 13.3691-14.9219 14.7949-13.9844L14.209-12.5293C13.8672-11.6992 14.043-11.1133 14.5801-10.5664L16.875-8.25195C17.3633-7.76367 17.7734-7.74414 18.3398-7.8418L19.4043-8.03711L20.0684-7.36328L20.0293-6.80664C19.9902-6.30859 20.1172-5.92773 20.6055-5.44922L21.3672-4.70703C21.8457-4.22852 22.4609-4.19922 22.9297-4.66797L25.8398-7.58789C26.3086-8.05664 26.2891-8.65234 25.8105-9.13086L25.0391-9.89258C24.5605-10.3711 24.1895-10.5273 23.7109-10.4883L23.1348-10.4395L22.4902-11.0742L22.7344-12.1973C22.8613-12.7637 22.7051-13.2031 22.1191-13.7891L19.9219-15.9766C16.582-19.2969 12.1484-19.2188 9.25781-16.3281ZM10.752-15.957C13.1836-17.7344 16.4746-17.4316 18.7012-15.2051L21.1328-12.793C21.3672-12.5586 21.4062-12.373 21.3379-12.0312L21.0156-10.5469L22.5195-9.0625L23.5059-9.12109C23.7598-9.13086 23.8379-9.11133 24.0332-8.91602L24.6094-8.33984L22.168-5.89844L21.5918-6.47461C21.3965-6.66992 21.3672-6.74805 21.377-7.01172L21.4453-7.98828L19.9512-9.47266L18.4277-9.21875C18.1055-9.15039 17.959-9.17969 17.7148-9.41406L15.7129-11.416C15.459-11.6504 15.4297-11.8164 15.5859-12.1875L16.4648-14.2773C14.9023-15.7324 12.8711-16.3574 10.8398-15.7617C10.6836-15.7227 10.625-15.8496 10.752-15.957Z"/>
  </g>
  <text style="stroke:none;fill:black;font-family:sans-serif;font-size:13;font-weight:bold;" transform="matrix(1 0 0 1 1289 1953)">Exporting</text>
  <text style="stroke:none;fill:black;font-family:sans-serif;font-size:13;" transform="matrix(1 0 0 1 1289 1971)">Symbols should be outlined when exporting to ensure the</text>
  <text style="stroke:none;fill:black;font-family:sans-serif;font-size:13;" transform="matrix(1 0 0 1 1289 1989)">design is preserved when submitting to Xcode.</text>
  <text id="template-version" style="stroke:none;fill:black;font-family:sans-serif;font-size:13;text-anchor:end;" transform="matrix(1 0 0 1 3036 1933)">Template v.4.0</text>
  <text style="stroke:none;fill:black;font-family:sans-serif;font-size:13;text-anchor:end;" transform="matrix(1 0 0 1 3036 1951)">Requires Xcode 14 or greater</text>
  <text id="descriptive-name" style="stroke:none;fill:black;font-family:sans-serif;font-size:13;text-anchor:end;" transform="matrix(1 0 0 1 3036 1969)">Generated from figure.american.football</text>
  <text style="stroke:none;fill:black;font-family:sans-serif;font-size:13;text-anchor:end;" transform="matrix(1 0 0 1 3036 1987)">Typeset at 100 points</text>
  <text style="stroke:none;fill:black;font-family:sans-serif;font-size:13;" transform="matrix(1 0 0 1 263 726)">Small</text>
  <text style="stroke:none;fill:black;font-family:sans-serif;font-size:13;" transform="matrix(1 0 0 1 263 1156)">Medium</text>
  <text style="stroke:none;fill:black;font-family:sans-serif;font-size:13;" transform="matrix(1 0 0 1 263 1586)">Large</text>
 </g>
 <g id="Guides">
  <g id="H-reference" style="fill:#27AAE1;stroke:none;" transform="matrix(1 0 0 1 339 696)">
   <path d="M0.993654 0L3.63775 0L29.3281-67.1323L30.0303-67.1323L30.0303-70.459L28.1226-70.459ZM11.6885-24.4799L46.9815-24.4799L46.2315-26.7285L12.4385-26.7285ZM55.1196 0L57.7637 0L30.6382-70.459L29.4326-70.459L29.4326-67.1323Z"/>
  </g>
  <line id="Baseline-S" style="fill:none;stroke:#27AAE1;opacity:1;stroke-width:0.5;" x1="263" x2="3036" y1="696" y2="696"/>
  <line id="Capline-S" style="fill:none;stroke:#27AAE1;opacity:1;stroke-width:0.5;" x1="263" x2="3036" y1="625.541" y2="625.541"/>
  <g id="H-reference" style="fill:#27AAE1;stroke:none;" transform="matrix(1 0 0 1 339 1126)">
   <path d="M0.993654 0L3.63775 0L29.3281-67.1323L30.0303-67.1323L30.0303-70.459L28.1226-70.459ZM11.6885-24.4799L46.9815-24.4799L46.2315-26.7285L12.4385-26.7285ZM55.1196 0L57.7637 0L30.6382-70.459L29.4326-70.459L29.4326-67.1323Z"/>
  </g>
  <line id="Baseline-M" style="fill:none;stroke:#27AAE1;opacity:1;stroke-width:0.5;" x1="263" x2="3036" y1="1126" y2="1126"/>
  <line id="Capline-M" style="fill:none;stroke:#27AAE1;opacity:1;stroke-width:0.5;" x1="263" x2="3036" y1="1055.54" y2="1055.54"/>
  <g id="H-reference" style="fill:#27AAE1;stroke:none;" transform="matrix(1 0 0 1 339 1556)">
   <path d="M0.993654 0L3.63775 0L29.3281-67.1323L30.0303-67.1323L30.0303-70.459L28.1226-70.459ZM11.6885-24.4799L46.9815-24.4799L46.2315-26.7285L12.4385-26.7285ZM55.1196 0L57.7637 0L30.6382-70.459L29.4326-70.459L29.4326-67.1323Z"/>
  </g>
  <line id="Baseline-L" style="fill:none;stroke:#27AAE1;opacity:1;stroke-width:0.5;" x1="263" x2="3036" y1="1556" y2="1556"/>
  <line id="Capline-L" style="fill:none;stroke:#27AAE1;opacity:1;stroke-width:0.5;" x1="263" x2="3036" y1="1485.54" y2="1485.54"/>
  <line id="left-margin-Regular-M" style="fill:none;stroke:#00AEEF;stroke-width:0.5;opacity:1.0;" x1="1382.94" x2="1382.94" y1="1030.79" y2="1150.12"/>
  <line id="right-margin-Regular-M" style="fill:none;stroke:#00AEEF;stroke-width:0.5;opacity:1.0;" x1="1516.75" x2="1516.75" y1="1030.79" y2="1150.12"/>
 </g>
 <g id="Symbols">
  <g id="Black-L" transform="matrix(1 0 0 1 2842.47 1556)">
   <path d="M88.7586-82.4738C97.2847-82.4738 104.268-89.4366 104.268-97.9418C104.268-106.467 97.2847-113.43 88.7586-113.43C80.2338-113.43 73.2917-106.467 73.2917-97.9418C73.2917-89.4366 80.2338-82.4738 88.7586-82.4738ZM36.5182 25.1192C32.4224 29.1941 33.3786 34.3253 36.4157 37.1212C39.1532 39.6173 44.0431 40.0778 47.8184 36.3402L72.6986 11.5404C73.5303 10.7086 73.8288 10.2921 74.3477 9.31391L86.6515-13.7514C88.2752-16.7987 92.2844-16.8106 94.9423-14.8181L122.507 6.04349L122.507 34.5002C122.507 39.6754 125.72 42.9682 130.495 42.9682C135.269 42.9682 138.562 39.6754 138.562 34.5002L138.562 2.18901C138.562-0.147521 137.605-2.18319 135.547-4.002L104.286-30.8671L104.286-59.4183C104.286-60.7907 105.272-61.901 106.791-62.1631L158.989-70.1063C163.36-70.7848 166.317-74.939 165.697-79.3112C164.96-83.6846 160.944-86.6788 156.572-86.0003L53.1036-70.3112L53.1036-91.7581L37.19-91.7581L37.19-60.6146C37.19-55.6223 41.2637-52.3595 46.3145-53.1185L68.5521-56.4901C70.1501-56.7522 71.2448-55.7611 71.2448-54.1034L71.2448-28.1869L60.5502 1.08723ZM40.0445-81.9027C48.2709-81.9027 56.9046-85.5908 62.2751-91.4558C64.6945-94.036 64.6945-97.2924 62.2739-99.8958C56.9046-105.739 48.2709-109.448 40.0445-109.448C31.795-109.448 23.1613-105.739 17.8712-99.9542C15.4882-97.2924 15.4882-94.036 17.8712-91.3962C23.1613-85.5908 31.795-81.9027 40.0445-81.9027Z"/>
  </g>
  <g id="Heavy-L" transform="matrix(1 0 0 1 2546.96 1556)">
   <path d="M87.6009-81.9117C95.8898-81.9117 102.678-88.6694 102.678-96.9281C102.678-105.211 95.8898-111.969 87.6009-111.969C79.3176-111.969 72.5901-105.211 72.5901-96.9281C72.5901-88.6694 79.3176-81.9117 87.6009-81.9117ZM36.2088 24.3265C32.2823 28.2228 33.179 33.1207 36.0926 35.7931C38.7202 38.1795 43.3769 38.6262 46.9873 35.0303L71.6292 10.4688C72.3738 9.72418 72.6541 9.34906 73.1454 8.4166L85.3262-14.4441C86.9659-17.5133 91.1067-17.5694 93.8065-15.5488L121.177 5.17763L121.177 33.4015C121.177 38.371 124.23 41.4989 128.803 41.4989C133.376 41.4989 136.504 38.371 136.504 33.4015L136.504 1.49244C136.504-0.738771 135.608-2.67849 133.626-4.42396L102.668-31.0237L102.668-59.4479C102.668-60.8666 103.663-62.0138 105.269-62.2853L156.895-70.1336C161.06-70.7801 163.893-74.7512 163.291-78.9221C162.6-83.0987 158.754-85.9463 154.583-85.2997L52.1358-69.7728L52.1358-90.8567L36.9451-90.8567L36.9451-60.5802C36.9451-55.8073 40.8357-52.6311 45.6532-53.3581L67.7208-56.7077C69.4022-56.9791 70.5707-55.9324 70.5707-54.2008L70.5707-28.435L59.9748 0.560482ZM39.5151-81.6614C47.5181-81.6614 56.0691-85.2811 61.3205-91.0711C63.549-93.4605 63.549-96.4852 61.3149-98.916C56.0691-104.67 47.5181-108.32 39.5151-108.32C31.4707-108.32 22.9197-104.67 17.7488-98.9606C15.5291-96.4852 15.5291-93.4605 17.7488-91.0209C22.9197-85.2811 31.4707-81.6614 39.5151-81.6614Z"/>
  </g>
  <g id="Bold-L" transform="matrix(1 0 0 1 2251.82 1556)">
   <path d="M86.097-81.1678C94.0939-81.1678 100.636-87.6719 100.636-95.6308C100.636-103.614 94.0939-110.119 86.097-110.119C78.1134-110.119 71.6472-103.614 71.6472-95.6308C71.6472-87.6719 78.1134-81.1678 86.097-81.1678ZM35.8171 23.2685C32.0908 26.9569 32.9181 31.5778 35.6855 34.104C38.1824 36.3596 42.5621 36.7909 45.98 33.3642L70.2776 9.14702C70.9221 8.50251 71.1794 8.17364 71.6399 7.29506L83.6671-15.3046C85.2924-18.3448 89.535-18.4771 92.2736-16.4331L119.369 4.10198L119.369 31.9743C119.369 36.6977 122.237 39.6331 126.572 39.6331C130.906 39.6331 133.842 36.6977 133.842 31.9743L133.842 0.616866C133.842-1.49117 133.014-3.31552 131.125-4.97629L100.602-31.1935L100.602-59.3819C100.602-60.8471 101.605-62.0329 103.305-62.3122L154.126-70.0302C158.045-70.6384 160.732-74.3939 160.154-78.3263C159.516-82.2719 155.87-84.9501 151.938-84.342L50.9595-69.0447L50.9595-89.653L36.6229-89.653L36.6229-60.4373C36.6229-55.926 40.2981-52.8574 44.8386-53.5459L66.6465-56.8574C68.4129-57.1367 69.6588-56.0357 69.6588-54.2268L69.6588-28.7125L59.2081-0.122442ZM38.8694-81.2202C46.5958-81.2202 55.0542-84.7554 60.167-90.483C62.1499-92.6267 62.1499-95.3522 60.1538-97.5604C55.0542-103.237 46.5958-106.81 38.8694-106.81C31.0785-106.81 22.6201-103.237 17.5877-97.5896C15.5827-95.3522 15.5827-92.6267 17.5877-90.4405C22.6201-84.7554 31.0785-81.2202 38.8694-81.2202Z"/>
  </g>
  <g id="Semibold-L" transform="matrix(1 0 0 1 1956.19 1556)">
   <path d="M85.0602-80.655C92.8558-80.655 99.2284-86.9843 99.2284-94.7365C99.2284-102.513 92.8558-108.843 85.0602-108.843C77.2832-108.843 70.9973-102.513 70.9973-94.7365C70.9973-86.9843 77.2832-80.655 85.0602-80.655ZM35.5472 22.5391C31.9587 26.0842 32.7383 30.5142 35.4049 32.9395C37.8116 35.105 42.0004 35.5257 45.2856 32.2156L69.3459 8.23577C69.9214 7.66029 70.1627 7.36331 70.602 6.52187L82.5232-15.8978C84.1387-18.9181 88.4515-19.1029 91.2169-17.0427L118.122 3.36043L118.122 30.9905C118.122 35.5441 120.863 38.3469 125.033 38.3469C129.203 38.3469 132.006 35.5441 132.006 30.9905L132.006 0.0132515C132.006-2.00988 131.226-3.75469 129.401-5.35705L99.1787-31.3105L99.1787-59.3365C99.1787-60.8336 100.187-62.0461 101.95-62.3307L152.218-69.959C155.967-70.5406 158.553-74.1476 157.99-77.9156C157.39-81.702 153.882-84.2634 150.114-83.6818L50.1485-68.5428L50.1485-88.8232L36.4009-88.8232L36.4009-60.3388C36.4009-56.0079 39.9274-53.0134 44.277-53.6754L65.9058-56.9606C67.7309-57.2453 69.03-56.1068 69.03-54.2448L69.03-28.9039L58.6796-0.593246ZM38.4242-80.916C45.9599-80.916 54.3546-84.3929 59.3718-90.0775C61.1854-92.0519 61.1854-94.571 59.3533-96.6258C54.3546-102.249 45.9599-105.769 38.4242-105.769C30.8082-105.769 22.4135-102.249 17.4767-96.6444C15.6198-94.571 15.6198-92.0519 17.4767-90.0404C22.4135-84.3929 30.8082-80.916 38.4242-80.916Z"/>
  </g>
  <g id="Medium-L" transform="matrix(1 0 0 1 1660.3 1556)">
   <path d="M84.2741-80.2662C91.917-80.2662 98.1612-86.4629 98.1612-94.0583C98.1612-101.679 91.917-107.875 84.2741-107.875C76.6537-107.875 70.5044-101.679 70.5044-94.0583C70.5044-86.4629 76.6537-80.2662 84.2741-80.2662ZM35.3425 21.9861C31.8586 25.4225 32.602 29.7077 35.1921 32.0566C37.5305 34.1537 41.5744 34.5663 44.7591 31.3447L68.6394 7.54482C69.1625 7.02169 69.3918 6.74889 69.815 5.93561L81.6559-16.3476C83.2639-19.3527 87.6299-19.5774 90.4156-17.505L117.177 2.79815L117.177 30.2445C117.177 34.6694 119.821 37.3716 123.866 37.3716C127.912 37.3716 130.614 34.6694 130.614 30.2445L130.614-0.444435C130.614-2.40318 129.871-4.08769 128.094-5.64577L98.0993-31.3993L98.0993-59.302C98.0993-60.8234 99.1117-62.0561 100.923-62.3448L150.771-69.905C154.391-70.4665 156.901-73.9609 156.35-77.6041C155.778-81.2698 152.375-83.7426 148.731-83.1811L49.5336-68.1622L49.5336-88.1941L36.2325-88.1941L36.2325-60.2641C36.2325-56.0699 39.6464-53.1317 43.8512-53.7736L65.3442-57.0389C67.2138-57.3276 68.5533-56.1608 68.5533-54.2583L68.5533-29.049L58.2788-0.950229ZM38.0866-80.6853C45.4777-80.6853 53.824-84.1181 58.7688-89.77C60.4541-91.6161 60.4541-93.9787 58.7464-95.9172C53.824-101.499 45.4777-104.979 38.0866-104.979C30.6032-104.979 22.2568-101.499 17.3925-95.9277C15.6478-93.9787 15.6478-91.6161 17.3925-89.737C22.2568-84.1181 30.6032-80.6853 38.0866-80.6853Z"/>
  </g>
  <g id="Regular-L" transform="matrix(1 0 0 1 1364.66 1556)">
   <path d="M83.2487-79.759C90.6925-79.759 96.7691-85.7828 96.7691-93.1738C96.7691-100.59 90.6925-106.614 83.2487-106.614C75.8326-106.614 69.8616-100.59 69.8616-93.1738C69.8616-85.7828 75.8326-79.759 83.2487-79.759ZM35.0754 21.2647C31.728 24.5594 32.4241 28.6557 34.9146 30.9049C37.1638 32.9129 41.0189 33.315 44.0723 30.2088L67.7179 6.64359C68.1727 6.18873 68.3864 5.94747 68.7885 5.17092L80.5247-16.9344C82.1229-19.9197 86.5583-20.1963 89.3705-18.1079L115.944 2.06475L115.944 29.2714C115.944 33.5286 118.462 36.0994 122.345 36.0994C126.227 36.0994 128.798 33.5286 128.798 29.2714L128.798-1.04142C128.798-2.91618 128.102-4.52203 126.388-6.02235L96.6912-31.5151L96.6912-59.257C96.6912-60.8101 97.709-62.0691 99.5838-62.3632L148.883-69.8346C152.336-70.3699 154.746-73.7173 154.211-77.1979C153.675-80.7062 150.408-83.0635 146.928-82.5282L48.7315-67.6658L48.7315-87.3734L36.0128-87.3734L36.0128-60.1667C36.0128-56.1508 39.2798-53.2859 43.2957-53.9016L64.6117-57.141C66.5392-57.435 67.9315-56.2313 67.9315-54.2761L67.9315-29.2382L57.756-1.41586ZM37.6463-80.3845C44.8488-80.3845 53.1321-83.7596 57.9824-89.369C59.5001-91.0476 59.5001-93.2062 57.9547-94.9929C53.1321-100.522 44.8488-103.95 37.6463-103.95C30.3358-103.95 22.0525-100.522 17.2826-94.9929C15.6844-93.2062 15.6844-91.0476 17.2826-89.3413C22.0525-83.7596 30.3358-80.3845 37.6463-80.3845Z"/>
  </g>
  <g id="Light-L" transform="matrix(1 0 0 1 1069.54 1556)">
   <path d="M81.7601-78.9383C89.013-78.9383 94.8987-84.7904 94.8987-92.0096C94.8987-99.2158 89.013-105.068 81.7601-105.068C74.5539-105.068 68.7355-99.2158 68.7355-92.0096C68.7355-84.7904 74.5539-78.9383 81.7601-78.9383ZM34.751 20.0433C31.4799 23.2807 32.1569 27.2625 34.5902 29.4544C36.7821 31.4051 40.5226 31.8072 43.5188 28.7774L66.6109 5.76567C67.0467 5.32989 67.2412 5.08863 67.6433 4.33117L79.265-17.5451C80.6342-20.1487 84.7452-20.6161 87.5001-18.585L113.654 1.30134L113.654 27.8591C113.654 32.0017 116.134 34.5154 119.921 34.5154C123.708 34.5154 126.222 32.0017 126.222 27.8591L126.222-1.72849C126.222-3.56508 125.545-5.11367 123.869-6.59491L94.8781-31.4769L94.8781-58.5508C94.8781-60.0658 95.8768-61.3057 97.7134-61.5807L145.848-68.8803C149.187-69.3965 151.54-72.6676 151.023-76.0528C150.507-79.4847 147.317-81.8038 143.931-81.2876L48.0635-66.7688L48.0635-85.9801L35.6693-85.9801L35.6693-59.4224C35.6693-55.521 38.86-52.7324 42.7613-53.3291L63.5811-56.473C65.4514-56.7479 66.8055-55.6014 66.8055-53.6844L66.8055-29.2382L56.8781-2.08384ZM37.2646-79.163C44.2763-79.163 52.5595-82.4809 57.3716-88.2429C58.6604-89.6925 58.6604-91.5648 57.3249-93.1416C52.5595-98.8232 44.2763-102.175 37.2646-102.175C30.1258-102.175 21.8426-98.8232 17.1109-93.1416C15.7417-91.5648 15.7417-89.6925 17.1109-88.1962C21.8426-82.4809 30.1258-79.163 37.2646-79.163Z"/>
  </g>
  <g id="Thin-L" transform="matrix(1 0 0 1 774.936 1556)">
   <path d="M79.7912-77.8529C86.7917-77.8529 92.425-83.4778 92.425-90.4699C92.425-97.3983 86.7917-103.023 79.7912-103.023C72.8627-103.023 67.2463-97.3983 67.2463-90.4699C67.2463-83.4778 72.8627-77.8529 79.7912-77.8529ZM34.3219 18.4278C31.1518 21.5895 31.8036 25.4198 34.161 27.536C36.2773 29.411 39.8664 29.8131 42.7868 26.8842L65.1469 4.60454C65.5575 4.19401 65.7267 3.95275 66.1288 3.22053L77.5991-18.3528C78.6653-20.4516 82.3472-21.1715 85.0264-19.2161L110.625 0.29167L110.625 25.9912C110.625 29.9824 113.054 32.4203 116.715 32.4203C120.376 32.4203 122.814 29.9824 122.814 25.9912L122.814-2.63719C122.814-4.4233 122.162-5.89617 120.537-7.35216L92.4801-31.4264L92.4801-57.6169C92.4801-59.0813 93.4536-60.2961 95.2397-60.5458L141.835-67.6182C145.022-68.1092 147.299-71.2793 146.808-74.5383C146.317-77.8692 143.227-80.1379 139.968-79.6469L47.1801-65.5824L47.1801-84.1375L35.2149-84.1375L35.2149-58.438C35.2149-54.688 38.3046-52.0004 42.0546-52.5718L62.2181-55.5895C64.0126-55.8392 65.3162-54.7685 65.3162-52.9019L65.3162-29.2382L55.717-2.96731ZM36.7598-77.5476C43.519-77.5476 51.8023-80.7897 56.5639-86.7537C57.5498-87.9004 57.5498-89.394 56.4919-90.6931C51.8023-96.5767 43.519-99.8273 36.7598-99.8273C29.8482-99.8273 21.5649-96.5767 16.8837-90.6931C15.8174-89.394 15.8174-87.9004 16.8837-86.6817C21.5649-80.7897 29.8482-77.5476 36.7598-77.5476Z"/>
  </g>
  <g id="Ultralight-L" transform="matrix(1 0 0 1 479.304 1556)">
   <path d="M78.7828-77.297C85.654-77.297 91.158-82.8055 91.158-89.6812C91.158-96.4675 85.654-101.976 78.7828-101.976C71.9965-101.976 66.4835-96.4675 66.4835-89.6812C66.4835-82.8055 71.9965-77.297 78.7828-77.297ZM34.1021 17.6003C30.9837 20.7232 31.6226 24.476 33.9413 26.5535C36.0187 28.3896 39.5302 28.7917 42.4119 25.9146L64.397 4.00982C64.7947 3.61221 64.951 3.37095 65.3531 2.65167L76.7458-18.7665C77.6569-20.6068 81.119-21.4559 83.7594-19.5393L109.073-0.22548L109.073 25.0345C109.073 28.9481 111.477 31.3472 115.073 31.3472C118.67 31.3472 121.069 28.9481 121.069 25.0345L121.069-3.10263C121.069-4.86288 120.43-6.29696 118.831-7.74003L91.2519-31.4006L91.2519-57.1385C91.2519-58.5771 92.2125-59.7789 93.9727-60.0157L139.779-66.9718C142.889-67.4498 145.127-70.5682 144.649-73.7625C144.171-77.0418 141.133-79.2846 137.939-78.8065L46.7276-64.9748L46.7276-83.1937L34.9822-83.1937L34.9822-57.9337C34.9822-54.2614 38.0202-51.6255 41.6926-52.1839L61.5199-55.137C63.2757-55.3738 64.5534-54.3418 64.5534-52.5011L64.5534-29.2382L55.1222-3.41981ZM36.5012-76.7201C43.1311-76.7201 51.4144-79.9234 56.1502-85.9909C56.9809-86.9824 56.9809-88.2822 56.0653-89.439C51.4144-95.4261 43.1311-98.6249 36.5012-98.6249C29.706-98.6249 21.4227-95.4261 16.7673-89.439C15.8562-88.2822 15.8562-86.9824 16.7673-85.906C21.4227-79.9234 29.706-76.7201 36.5012-76.7201Z"/>
  </g>
  <g id="Black-M" transform="matrix(1 0 0 1 2862.13 1126)">
   <path d="M69.5583-72.2035C76.3418-72.2035 81.8947-77.7509 81.8947-84.5289C81.8947-91.3126 76.3418-96.8601 69.5583-96.8601C62.7746-96.8601 57.2327-91.3126 57.2327-84.5289C57.2327-77.7509 62.7746-72.2035 69.5583-72.2035ZM28.5141 12.0409C25.2058 15.3437 25.9952 19.504 28.4466 21.7685C30.654 23.7889 34.6273 24.1576 37.6861 21.1504L57.0917 1.80706C57.8084 1.09037 58.0527 0.732171 58.4784-0.0624477L68.1009-18.0769C69.3141-20.3672 72.2631-20.3644 74.2785-18.8526L95.7434-2.61286L95.7434 19.546C95.7434 23.7167 98.3658 26.4017 102.225 26.4017C106.084 26.4017 108.769 23.7167 108.769 19.546L108.769-5.73424C108.769-7.6298 107.979-9.28162 106.322-10.7512L81.9406-31.71L81.9406-53.8485C81.9406-54.8668 82.6937-55.6927 83.7899-55.8851L124.564-62.0973C128.112-62.6479 130.501-66.0133 130.008-69.5606C129.4-73.1077 126.154-75.5484 122.607-74.9978L41.8829-62.7499L41.8829-79.6104L28.9766-79.6104L28.9766-54.8251C28.9766-50.7842 32.2797-48.1924 36.3777-48.8053L53.6849-51.4235C54.8437-51.6159 55.6231-50.9036 55.6231-49.688L55.6231-29.5601L47.2863-6.73121ZM31.4275-71.4311C37.9669-71.4311 44.7269-74.3394 48.9848-78.9684C50.9921-81.1003 50.9921-83.7835 48.9851-85.9204C44.7269-90.5441 37.9669-93.4579 31.4275-93.4579C24.8831-93.4579 18.1232-90.5441 13.9275-85.9775C11.9721-83.7835 11.9721-81.1003 13.9275-78.9115C18.1232-74.3394 24.8831-71.4311 31.4275-71.4311Z"/>
  </g>
  <g id="Heavy-M" transform="matrix(1 0 0 1 2566.45 1126)">
   <path d="M68.5639-71.7297C75.1331-71.7297 80.5123-77.0925 80.5123-83.6453C80.5123-90.2122 75.1331-95.575 68.5639-95.575C61.997-95.575 56.6506-90.2122 56.6506-83.6453C56.6506-77.0925 61.997-71.7297 68.5639-71.7297ZM28.2416 11.3787C25.0917 14.5122 25.8247 18.455 28.1606 20.604C30.266 22.5224 34.0219 22.8776 36.9248 20.0019L56.1484 0.84054C56.7817 0.207256 57.01-0.110523 57.4087-0.862161L66.9216-18.6977C68.1715-21.0447 71.2791-21.0674 73.3407-19.5229L94.6551-3.38887L94.6551 18.6022C94.6551 22.5824 97.1241 25.1115 100.795 25.1115C104.466 25.1115 106.995 22.5824 106.995 18.6022L106.995-6.3518C106.995-8.14792 106.262-9.71123 104.678-11.1109L80.5254-31.8666L80.5254-53.9426C80.5254-55.0096 81.2894-55.8734 82.4748-56.0767L122.797-62.212C126.154-62.7331 128.428-65.9265 127.95-69.286C127.386-72.6476 124.298-74.9485 120.939-74.4274L40.9984-62.3064L40.9984-78.8578L28.7689-78.8578L28.7689-54.8602C28.7689-51.0233 31.9-48.509 35.7805-49.0924L52.9674-51.6978C54.2128-51.9011 55.068-51.1292 55.068-49.8378L55.068-29.8026L46.8048-7.18451ZM30.9451-71.3079C37.2838-71.3079 43.9629-74.1547 48.1079-78.6962C49.9499-80.6628 49.9499-83.1459 48.1057-85.1334C43.9629-89.6563 37.2838-92.5195 30.9451-92.5195C24.5855-92.5195 17.9064-89.6563 13.8237-85.177C12.0067-83.1459 12.0067-80.6628 13.8237-78.6503C17.9064-74.1547 24.5855-71.3079 30.9451-71.3079Z"/>
  </g>
  <g id="Bold-M" transform="matrix(1 0 0 1 2270.89 1126)">
   <path d="M67.4515-71.1997C73.7811-71.1997 78.9658-76.3559 78.9658-82.6568C78.9658-88.9813 73.7811-94.1374 67.4515-94.1374C61.127-94.1374 55.9995-88.9813 55.9995-82.6568C55.9995-76.3559 61.127-71.1997 67.4515-71.1997ZM27.9367 10.638C24.9641 13.5819 25.6339 17.2815 27.8407 19.3013C29.8319 21.1057 33.3446 21.4457 36.0731 18.7172L55.0932-0.240656C55.6332-0.780639 55.8435-1.0532 56.2121-1.75675L65.6023-19.3922C66.8932-21.8025 70.1783-21.8539 72.2917-20.2727L93.4376-4.25695L93.4376 17.5464C93.4376 21.3135 95.7351 23.6682 99.1958 23.6682C102.656 23.6682 105.011 21.3135 105.011 17.5464L105.011-7.04264C105.011-8.72752 104.341-10.1918 102.838-11.5132L78.9423-32.0418L78.9423-54.0478C78.9423-55.1694 79.7185-56.0755 81.0037-56.291L120.82-62.3403C123.964-62.8284 126.108-65.8295 125.649-68.9787C125.132-72.133 122.222-74.2773 119.073-73.7892L40.0089-61.8102L40.0089-78.0159L28.5365-78.0159L28.5365-54.8994C28.5365-51.2906 31.4753-48.8632 35.1126-49.4136L52.1648-52.0047C53.5072-52.2202 54.4471-51.3815 54.4471-50.0054L54.4471-30.0739L46.2663-7.6916ZM30.4056-71.1701C36.5197-71.1701 43.1084-73.9479 47.1271-78.3918C48.784-80.1733 48.784-82.4326 47.122-84.253C43.1084-88.6631 36.5197-91.4696 30.4056-91.4696C24.2526-91.4696 17.6639-88.6631 13.7075-84.2816C12.0454-82.4326 12.0454-80.1733 13.7075-78.3581C17.6639-73.9479 24.2526-71.1701 30.4056-71.1701Z"/>
  </g>
  <g id="Semibold-M" transform="matrix(1 0 0 1 1974.97 1126)">
   <path d="M66.6846-70.8344C72.849-70.8344 77.8997-75.8481 77.8997-81.9754C77.8997-88.1327 72.849-93.1464 66.6846-93.1464C60.5273-93.1464 55.5506-88.1327 55.5506-81.9754C55.5506-75.8481 60.5273-70.8344 66.6846-70.8344ZM27.7265 10.1273C24.8761 12.9406 25.5024 16.4725 27.6201 18.4033C29.5327 20.129 32.8776 20.4587 35.4859 17.8315L54.3657-0.986026C54.8414-1.46169 55.0394-1.70307 55.3872-2.37348L64.6928-19.8709C66.012-22.325 69.4195-22.396 71.5685-20.7896L92.5982-4.8554L92.5982 16.8186C92.5982 20.4387 94.7775 22.6732 98.0932 22.6732C101.409 22.6732 103.643 20.4387 103.643 16.8186L103.643-7.51889C103.643-9.12709 103.017-10.5231 101.57-11.7906L77.8509-32.1625L77.8509-54.1203C77.8509-55.2796 78.6356-56.2148 79.9896-56.4388L119.457-62.4287C122.454-62.8941 124.509-65.7626 124.062-68.7668C123.579-71.7782 120.79-73.8147 117.786-73.3493L39.3268-61.4681L39.3268-77.4356L28.3763-77.4356L28.3763-54.9264C28.3763-51.475 31.1826-49.1073 34.6521-49.635L51.6115-52.2162C53.0207-52.4402 54.019-51.5554 54.019-50.121L54.019-30.261L45.895-8.04119ZM30.0336-71.075C35.9929-71.075 42.5193-73.8054 46.4509-78.182C47.9802-79.8359 47.9802-81.9409 46.4438-83.6461C42.5193-87.9785 35.9929-90.7459 30.0336-90.7459C24.0231-90.7459 17.4967-87.9785 13.6274-83.6642C12.0721-81.9409 12.0721-79.8359 13.6274-78.1567C17.4967-73.8054 24.0231-71.075 30.0336-71.075Z"/>
  </g>
  <g id="Medium-M" transform="matrix(1 0 0 1 1678.86 1126)">
   <path d="M66.1031-70.5574C72.1422-70.5574 77.0913-75.463 77.0913-81.4587C77.0913-87.4893 72.1422-92.3949 66.1031-92.3949C60.0725-92.3949 55.2103-87.4893 55.2103-81.4587C55.2103-75.463 60.0725-70.5574 66.1031-70.5574ZM27.5672 9.74006C24.8094 12.4544 25.4027 15.8591 27.4528 17.7223C29.3058 19.3884 32.5236 19.7102 35.0407 17.1599L53.8142-1.5512C54.241-1.97809 54.4296-2.19583 54.7617-2.84111L64.0031-20.234C65.3439-22.7211 68.8441-22.8071 71.0201-21.1815L91.9618-5.30917L91.9618 16.2667C91.9618 19.7755 94.0514 21.9188 97.2573 21.9188C100.463 21.9188 102.606 19.7755 102.606 16.2667L102.606-7.88001C102.606-9.43006 102.013-10.7743 100.608-12.0009L77.0233-32.2541L77.0233-54.1753C77.0233-55.3631 77.8144-56.3205 79.2206-56.5509L118.423-62.4958C121.309-62.9439 123.297-65.7119 122.859-68.6062C122.401-71.5091 119.705-73.4639 116.811-73.0158L38.8096-61.2087L38.8096-76.9955L28.2548-76.9955L28.2548-54.9469C28.2548-51.6147 30.9606-49.2925 34.303-49.8029L51.1919-52.3767C52.6518-52.607 53.6944-51.6873 53.6944-50.2086L53.6944-30.4028L45.6135-8.30626ZM29.7516-71.003C35.5935-71.003 42.0726-73.6974 45.9382-78.0228C47.3707-79.58 47.3707-81.5681 45.9296-83.1859C42.0726-87.4593 35.5935-90.1971 29.7516-90.1971C23.849-90.1971 17.37-87.4593 13.5667-83.1962C12.0924-81.5681 12.0924-79.58 13.5667-78.004C17.37-73.6974 23.849-71.003 29.7516-71.003Z"/>
  </g>
  <g id="Regular-M" transform="matrix(1 0 0 1 1382.94 1126)">
   <path d="M65.3446-70.196C71.2203-70.196 76.0369-74.9608 76.0369-80.7848C76.0369-86.65 71.2203-91.4148 65.3446-91.4148C59.4794-91.4148 54.7664-86.65 54.7664-80.7848C54.7664-74.9608 59.4794-70.196 65.3446-70.196ZM27.3593 9.23499C24.7224 11.8201 25.2726 15.059 27.2347 16.8342C29.0099 18.4224 32.0618 18.7339 34.46 16.284L53.0947-2.28838C53.458-2.65165 53.6343-2.83857 53.9458-3.45106L63.1036-20.7075C64.4723-23.2378 68.0935-23.3434 70.3049-21.6928L91.1317-5.90105L91.1317 15.5469C91.1317 18.9103 93.1044 20.9347 96.1669 20.9347C99.2293 20.9347 101.254 18.9103 101.254 15.5469L101.254-8.35103C101.254-9.82524 100.704-11.102 99.3539-12.2752L75.9439-32.3735L75.9439-54.247C75.9439-55.472 76.7434-56.4583 78.2176-56.697L117.075-62.5833C119.816-63.0089 121.715-65.6458 121.29-68.3967C120.864-71.1582 118.29-73.0063 115.539-72.5807L38.135-60.8704L38.135-76.4215L28.0964-76.4215L28.0964-54.9736C28.0964-51.797 30.671-49.534 33.8475-50.0218L50.6447-52.5859C52.1707-52.8246 53.271-51.8593 53.271-50.3228L53.271-30.5878L45.2463-8.652ZM29.3837-70.909C35.0725-70.909 41.4899-73.5565 45.2694-77.8153C46.5758-79.2463 46.5758-81.0818 45.2588-82.5856C41.4899-86.7821 35.0725-89.4814 29.3837-89.4814C23.622-89.4814 17.2046-86.7821 13.4875-82.5856C12.1188-81.0818 12.1188-79.2463 13.4875-77.8047C17.2046-73.5565 23.622-70.909 29.3837-70.909Z"/>
  </g>
  <g id="Light-M" transform="matrix(1 0 0 1 1087.66 1126)">
   <path d="M64.0099-69.4602C69.7146-69.4602 74.36-74.071 74.36-79.741C74.36-85.418 69.7146-90.0288 64.0099-90.0288C58.333-90.0288 53.7568-85.418 53.7568-79.741C53.7568-74.071 58.333-69.4602 64.0099-69.4602ZM27.0684 8.13989C24.5 10.6737 25.033 13.8099 26.9438 15.5337C28.6677 17.0707 31.6169 17.3822 33.9638 15.0006L52.1022-3.07548C52.4484-3.42164 52.6077-3.60856 52.9192-4.20394L61.9743-21.255C63.1377-23.4432 66.468-23.7198 68.628-22.1206L89.0784-6.58548L89.0784 14.2807C89.0784 17.5414 91.0168 19.5145 93.9938 19.5145C96.9707 19.5145 98.9438 17.5414 98.9438 14.2807L98.9438-8.96702C98.9438-10.407 98.4107-11.6324 97.0953-12.7886L74.3184-32.3393L74.3184-53.6139C74.3184-54.8047 75.1007-55.7739 76.5407-55.9954L114.354-61.7277C116.992-62.1362 118.841-64.7047 118.432-67.3701C118.024-70.0631 115.518-71.8769 112.852-71.4685L37.5361-60.0662L37.5361-75.1724L27.7884-75.1724L27.7884-54.3062C27.7884-51.2324 30.2946-49.0377 33.3684-49.5085L49.7207-51.987C51.1953-52.2086 52.2615-51.2947 52.2615-49.7924L52.2615-30.5878L44.4592-9.25088ZM29.0415-69.8139C34.5592-69.8139 40.9766-72.41 44.7218-76.8057C45.8229-78.0314 45.8229-79.6102 44.6942-80.9259C40.9766-85.2593 34.5592-87.89 29.0415-87.89C23.4338-87.89 17.0164-85.2593 13.3335-80.9259C12.1701-79.6102 12.1701-78.0314 13.3335-76.7781C17.0164-72.41 23.4338-69.8139 29.0415-69.8139Z"/>
  </g>
  <g id="Thin-M" transform="matrix(1 0 0 1 792.834 1126)">
   <path d="M62.2448-68.4871C67.7231-68.4871 72.1422-72.8943 72.1422-78.3606C72.1422-83.7886 67.7231-88.1957 62.2448-88.1957C56.8167-88.1957 52.4216-83.7886 52.4216-78.3606C52.4216-72.8943 56.8167-68.4871 62.2448-68.4871ZM26.6837 6.69153C24.2058 9.15745 24.7162 12.1578 26.5591 13.8138C28.215 15.2828 31.0285 15.5944 33.3075 13.3034L50.7897-4.11649C51.1132-4.44002 51.2498-4.62694 51.5614-5.19969L60.4807-21.9792C61.3725-23.7147 64.3181-24.2177 66.4102-22.6863L86.3627-7.49071L86.3627 12.606C86.3627 15.731 88.2559 17.6362 91.1197 17.6362C93.9835 17.6362 95.8886 15.731 95.8886 12.606L95.8886-9.78172C95.8886-11.1765 95.3782-12.334 94.1081-13.4675L72.1685-32.294L72.1685-52.7766C72.1685-53.9221 72.9282-54.8687 74.3229-55.0676L110.756-60.5962C113.258-60.9821 115.039-63.46 114.653-66.0122C114.267-68.6148 111.851-70.3833 109.299-69.9975L36.7441-59.0026L36.7441-73.5203L27.3811-73.5203L27.3811-53.4236C27.3811-50.4856 29.7967-48.3815 32.7348-48.8296L48.4987-51.1949C49.9054-51.3939 50.9263-50.5479 50.9263-49.0908L50.9263-30.5878L43.4182-10.043ZM28.5889-68.3656C33.8803-68.3656 40.2977-70.8938 43.9977-75.4705C44.8272-76.4246 44.8272-77.664 43.9474-78.7307C40.2977-83.2452 33.8803-85.7854 28.5889-85.7854C23.1849-85.7854 16.7675-83.2452 13.1298-78.7307C12.238-77.664 12.238-76.4246 13.1298-75.4202C16.7675-70.8938 23.1849-68.3656 28.5889-68.3656Z"/>
  </g>
  <g id="Ultralight-M" transform="matrix(1 0 0 1 497.091 1126)">
   <path d="M61.3406-67.9887C66.703-67.9887 71.0063-72.2915 71.0063-77.6535C71.0063-82.954 66.703-87.2568 61.3406-87.2568C56.0401-87.2568 51.7377-82.954 51.7377-77.6535C51.7377-72.2915 56.0401-67.9887 61.3406-67.9887ZM26.4866 5.94969C24.0551 8.38083 24.5539 11.3117 26.362 12.9329C27.9832 14.3671 30.7272 14.6787 32.9714 12.434L50.1174-4.64968C50.4293-4.96163 50.5544-5.14854 50.8659-5.70971L59.7157-22.3501C60.4684-23.8538 63.2169-24.4727 65.2742-22.9761L84.9718-7.95436L84.9718 11.7482C84.9718 14.8037 86.8418 16.6741 89.6476 16.6741C92.4534 16.6741 94.3238 14.8037 94.3238 11.7482L94.3238-10.199C94.3238-11.5706 93.8249-12.6933 92.578-13.8152L71.0673-32.2709L71.0673-52.3477C71.0673-53.47 71.8154-54.405 73.1869-54.5924L108.913-60.0166C111.346-60.3909 113.091-62.8225 112.717-65.3168C112.343-67.8729 109.974-69.6183 107.479-69.2441L36.3384-58.4578L36.3384-72.6742L27.1724-72.6742L27.1724-52.9716C27.1724-50.103 29.5417-48.0453 32.4102-48.4819L47.8727-50.7892C49.2447-50.9766 50.2424-50.1654 50.2424-48.7315L50.2424-30.5878L42.885-10.4486ZM28.357-67.6237C33.5325-67.6237 39.9499-70.1172 43.6267-74.7866C44.3171-75.6017 44.3171-76.6671 43.5649-77.6063C39.9499-82.2135 33.5325-84.7074 28.357-84.7074C23.0574-84.7074 16.64-82.2135 13.0255-77.6063C12.2728-76.6671 12.2728-75.6017 13.0255-74.7248C16.64-70.1172 23.0574-67.6237 28.357-67.6237Z"/>
  </g>
  <g id="Black-S" transform="matrix(1 0 0 1 2877.32 696)">
   <path d="M54.7363-64.3066C60.1074-64.3066 64.502-68.7012 64.502-74.0723C64.502-79.4434 60.1074-83.8379 54.7363-83.8379C49.3652-83.8379 44.9707-79.4434 44.9707-74.0723C44.9707-68.7012 49.3652-64.3066 54.7363-64.3066ZM22.4121 1.95312C19.7754 4.58984 20.4102 7.91016 22.3633 9.7168C24.1211 11.3281 27.2949 11.6211 29.7363 9.22852L44.9707-5.95703C45.5566-6.54297 45.752-6.83594 46.0938-7.4707L53.6621-21.6309C54.5898-23.3887 56.8359-23.3887 58.3984-22.2168L75.2441-9.47266L75.2441 7.91016C75.2441 11.2305 77.3438 13.3789 80.4199 13.3789C83.4961 13.3789 85.6445 11.2305 85.6445 7.91016L85.6445-11.9629C85.6445-13.4766 85.0098-14.7949 83.6914-15.9668L64.5508-32.4219L64.5508-49.7559C64.5508-50.5371 65.1367-51.1719 65.9668-51.3184L97.998-56.2012C100.83-56.6406 102.734-59.3262 102.344-62.1582C101.855-64.9902 99.2676-66.9434 96.4355-66.5039L33.0566-56.8848L33.0566-70.166L22.7539-70.166L22.7539-50.5371C22.7539-47.3145 25.3906-45.2637 28.6621-45.752L42.2363-47.8027C43.1152-47.9492 43.7012-47.4121 43.7012-46.4844L43.7012-30.7129L37.1582-12.793ZM24.7559-63.5742C29.9316-63.5742 35.2539-65.8691 38.623-69.5312C40.2344-71.2402 40.2344-73.3887 38.623-75.0977C35.2539-78.7598 29.9316-81.0547 24.7559-81.0547C19.5801-81.0547 14.2578-78.7598 10.9375-75.1465C9.375-73.3887 9.375-71.2402 10.9375-69.4824C14.2578-65.8691 19.5801-63.5742 24.7559-63.5742Z"/>
  </g>
  <g id="Heavy-S" transform="matrix(1 0 0 1 2581.31 696)">
   <path d="M54.0564-63.9955C59.2661-63.9955 63.5339-68.2517 63.5339-73.4499C63.5339-78.6597 59.2661-82.9159 54.0564-82.9159C48.8466-82.9159 44.6019-78.6597 44.6019-73.4499C44.6019-68.2517 48.8466-63.9955 54.0564-63.9955ZM22.2162 1.52672C19.7062 4.02514 20.2949 7.17259 22.1558 8.88704C23.833 10.4177 26.8339 10.6991 29.1486 8.41028L44.2908-6.68307C44.8076-7.19986 44.9913-7.45826 45.3101-8.05845L52.7978-22.0918C53.7831-23.9418 56.2021-23.9418 57.8107-22.7354L74.5757-10.0489L74.5757 7.26479C74.5757 10.4353 76.5486 12.4569 79.4749 12.4569C82.4013 12.4569 84.4229 10.4353 84.4229 7.26479L84.4229-12.4123C84.4229-13.8453 83.8343-15.0946 82.5735-16.2088L63.5482-32.5602L63.5482-49.9172C63.5482-50.7445 64.1456-51.4139 65.0564-51.5719L96.8341-56.4086C99.5163-56.825 101.328-59.3723 100.949-62.0545C100.496-64.7367 98.0345-66.5746 95.3522-66.1582L32.3767-56.6082L32.3767-69.682L22.6156-69.682L22.6156-50.6524C22.6156-47.591 25.114-45.5979 28.2127-46.0631L41.7408-48.1139C42.7004-48.2719 43.3554-47.6772 43.3554-46.6803L43.3554-30.9203L36.847-13.1041ZM24.3871-63.6088C29.413-63.6088 34.6662-65.8576 37.9431-69.4275C39.4392-71.0213 39.4392-73.0314 37.9431-74.6367C34.6662-78.1951 29.413-80.4554 24.3871-80.4554C19.3496-80.4554 14.0965-78.1951 10.8684-74.674C9.39805-73.0314 9.39805-71.0213 10.8684-69.3902C14.0965-65.8576 19.3496-63.6088 24.3871-63.6088Z"/>
  </g>
  <g id="Bold-S" transform="matrix(1 0 0 1 2285.38 696)">
   <path d="M53.2959-63.6475C58.3252-63.6475 62.4512-67.749 62.4512-72.7539C62.4512-77.7832 58.3252-81.8848 53.2959-81.8848C48.2666-81.8848 44.1895-77.7832 44.1895-72.7539C44.1895-67.749 48.2666-63.6475 53.2959-63.6475ZM21.9971 1.0498C19.6289 3.39355 20.166 6.34766 21.9238 7.95898C23.5107 9.39941 26.3184 9.66797 28.4912 7.49512L43.5303-7.49512C43.9697-7.93457 44.1406-8.1543 44.4336-8.71582L51.8311-22.6074C52.8809-24.5605 55.4932-24.5605 57.1533-23.3154L73.8281-10.6934L73.8281 6.54297C73.8281 9.5459 75.6592 11.4258 78.418 11.4258C81.1768 11.4258 83.0566 9.5459 83.0566 6.54297L83.0566-12.915C83.0566-14.2578 82.5195-15.4297 81.3232-16.4795L62.4268-32.7148L62.4268-50.0977C62.4268-50.9766 63.0371-51.6846 64.0381-51.8555L95.5322-56.6406C98.0469-57.0312 99.7559-59.4238 99.3896-61.9385C98.9746-64.4531 96.6553-66.1621 94.1406-65.7715L31.6162-56.2988L31.6162-69.1406L22.4609-69.1406L22.4609-50.7812C22.4609-47.9004 24.8047-45.9717 27.71-46.4111L41.1865-48.4619C42.2363-48.6328 42.9688-47.9736 42.9688-46.8994L42.9688-31.1523L36.499-13.4521ZM23.9746-63.6475C28.833-63.6475 34.0088-65.8447 37.1826-69.3115C38.5498-70.7764 38.5498-72.6318 37.1826-74.1211C34.0088-77.5635 28.833-79.7852 23.9746-79.7852C19.0918-79.7852 13.916-77.5635 10.791-74.1455C9.42383-72.6318 9.42383-70.7764 10.791-69.2871C13.916-65.8447 19.0918-63.6475 23.9746-63.6475Z"/>
  </g>
  <g id="Semibold-S" transform="matrix(1 0 0 1 1989.2 696)">
   <path d="M52.7716-63.4075C57.6765-63.4075 61.7047-67.4024 61.7047-72.274C61.7047-77.1789 57.6765-81.1738 52.7716-81.1738C47.8667-81.1738 43.9051-77.1789 43.9051-72.274C43.9051-67.4024 47.8667-63.4075 52.7716-63.4075ZM21.846 0.720996C19.5756 2.95811 20.0771 5.77891 21.7639 7.31914C23.2886 8.69736 25.9629 8.95703 28.038 6.86416L43.006-8.05498C43.3921-8.44111 43.5541-8.63418 43.8293-9.16904L51.1646-22.9629C52.2588-24.9871 55.0044-24.9871 56.7001-23.7153L73.3127-11.1377L73.3127 6.04531C73.3127 8.93271 75.046 10.7148 77.6893 10.7148C80.3325 10.7148 82.1146 8.93271 82.1146 6.04531L82.1146-13.2616C82.1146-14.5422 81.6131-15.6607 80.4612-16.6661L61.6536-32.8215L61.6536-50.2221C61.6536-51.1365 62.2729-51.8712 63.336-52.051L94.6347-56.8006C97.0338-57.1734 98.6717-59.4594 98.3144-61.8585C97.926-64.2576 95.7044-65.8777 93.3053-65.5049L31.0919-56.0855L31.0919-68.7674L22.3543-68.7674L22.3543-50.8701C22.3543-48.1137 24.5914-46.2294 27.3634-46.6511L40.8044-48.7019C41.9164-48.8816 42.7021-48.178 42.7021-47.0505L42.7021-31.3123L36.2591-13.6921ZM23.6902-63.6741C28.4331-63.6741 33.5556-65.8358 36.6583-69.2315C37.9366-70.6075 37.9366-72.3563 36.6583-73.7656C33.5556-77.128 28.4331-79.323 23.6902-79.323C18.9141-79.323 13.7916-77.128 10.7377-73.7812C9.4416-72.3563 9.4416-70.6075 10.7377-69.216C13.7916-65.8358 18.9141-63.6741 23.6902-63.6741Z"/>
  </g>
  <g id="Medium-S" transform="matrix(1 0 0 1 1692.9 696)">
   <path d="M52.374-63.2256C57.1846-63.2256 61.1387-67.1396 61.1387-71.9102C61.1387-76.7207 57.1846-80.6348 52.374-80.6348C47.5635-80.6348 43.6895-76.7207 43.6895-71.9102C43.6895-67.1396 47.5635-63.2256 52.374-63.2256ZM21.7314 0.47168C19.5352 2.62793 20.0098 5.34766 21.6426 6.83398C23.1201 8.16504 25.6934 8.41797 27.6943 6.38574L42.6084-8.47949C42.9541-8.8252 43.1094-8.99805 43.3711-9.5127L50.6592-23.2324C51.7871-25.3105 54.6338-25.3105 56.3564-24.0186L72.9219-11.4746L72.9219 5.66797C72.9219 8.46777 74.5811 10.1758 77.1367 10.1758C79.6924 10.1758 81.4004 8.46777 81.4004 5.66797L81.4004-13.5244C81.4004-14.7578 80.9258-15.8359 79.8076-16.8076L61.0674-32.9023L61.0674-50.3164C61.0674-51.2578 61.6934-52.0127 62.8037-52.1992L93.9541-56.9219C96.2656-57.2812 97.8496-59.4863 97.499-61.7979C97.1309-64.1094 94.9834-65.6621 92.6719-65.3027L30.6943-55.9238L30.6943-68.4844L22.2734-68.4844L22.2734-50.9375C22.2734-48.2754 24.4297-46.4248 27.1006-46.833L40.5146-48.8838C41.6738-49.0703 42.5-48.333 42.5-47.165L42.5-31.4336L36.0771-13.874ZM23.4746-63.6943C28.1299-63.6943 33.2119-65.8291 36.2607-69.1709C37.4717-70.4795 37.4717-72.1475 36.2607-73.4961C33.2119-76.7979 28.1299-78.9727 23.4746-78.9727C18.7793-78.9727 13.6973-76.7979 10.6973-73.5049C9.45508-72.1475 9.45508-70.4795 10.6973-69.1621C13.6973-65.8291 18.7793-63.6943 23.4746-63.6943Z"/>
  </g>
  <g id="Regular-S" transform="matrix(1 0 0 1 1396.72 696)">
   <path d="M51.8555-62.9883C56.543-62.9883 60.4004-66.7969 60.4004-71.4355C60.4004-76.123 56.543-79.9316 51.8555-79.9316C47.168-79.9316 43.4082-76.123 43.4082-71.4355C43.4082-66.7969 47.168-62.9883 51.8555-62.9883ZM21.582 0.146484C19.4824 2.19727 19.9219 4.78516 21.4844 6.20117C22.9004 7.4707 25.3418 7.71484 27.2461 5.76172L42.0898-9.0332C42.3828-9.32617 42.5293-9.47266 42.7734-9.96094L50-23.584C51.1719-25.7324 54.1504-25.7324 55.9082-24.4141L72.4121-11.9141L72.4121 5.17578C72.4121 7.86133 73.9746 9.47266 76.416 9.47266C78.8574 9.47266 80.4688 7.86133 80.4688 5.17578L80.4688-13.8672C80.4688-15.0391 80.0293-16.0645 78.9551-16.9922L60.3027-33.0078L60.3027-50.4395C60.3027-51.416 60.9375-52.1973 62.1094-52.3926L93.0664-57.0801C95.2637-57.4219 96.7773-59.5215 96.4355-61.7188C96.0938-63.916 94.043-65.3809 91.8457-65.0391L30.1758-55.7129L30.1758-68.1152L22.168-68.1152L22.168-51.0254C22.168-48.4863 24.2188-46.6797 26.7578-47.0703L40.1367-49.1211C41.3574-49.3164 42.2363-48.5352 42.2363-47.3145L42.2363-31.5918L35.8398-14.1113ZM23.1934-63.7207C27.7344-63.7207 32.7637-65.8203 35.7422-69.0918C36.8652-70.3125 36.8652-71.875 35.7422-73.1445C32.7637-76.3672 27.7344-78.5156 23.1934-78.5156C18.6035-78.5156 13.5742-76.3672 10.6445-73.1445C9.47266-71.875 9.47266-70.3125 10.6445-69.0918C13.5742-65.8203 18.6035-63.7207 23.1934-63.7207Z"/>
  </g>
  <g id="Light-S" transform="matrix(1 0 0 1 1101.27 696)">
   <path d="M50.6748-62.3374C55.2109-62.3374 58.917-66.0098 58.917-70.5122C58.917-75.0332 55.2109-78.7056 50.6748-78.7056C46.1538-78.7056 42.5151-75.0332 42.5151-70.5122C42.5151-66.0098 46.1538-62.3374 50.6748-62.3374ZM21.3247-0.822258C19.2856 1.18311 19.71 3.68018 21.2271 5.05079C22.5977 6.27491 24.9482 6.51905 26.8071 4.62647L41.2119-9.72949C41.4898-10.0073 41.6211-10.1538 41.8652-10.6269L49.001-24.0684C49.9912-25.9141 52.7124-26.0654 54.4248-24.7925L70.5957-12.5195L70.5957 4.05567C70.5957 6.6504 72.1279 8.21632 74.4937 8.21632C76.8594 8.21632 78.4253 6.6504 78.4253 4.05567L78.4253-14.4121C78.4253-15.5537 78.001-16.5337 76.957-17.4463L58.8648-32.9775L58.8648-49.8794C58.8648-50.8257 59.4844-51.5918 60.626-51.772L90.6597-56.3232C92.7661-56.6499 94.2344-58.689 93.9077-60.8106C93.5811-62.9473 91.5908-64.3818 89.4693-64.0552L29.646-55.0015L29.646-67.0103L21.8955-67.0103L21.8955-50.4351C21.8955-47.9868 23.8857-46.2407 26.334-46.6162L39.3193-48.5913C40.4946-48.7715 41.3433-48.0356 41.3433-46.8452L41.3433-31.5918L35.1436-14.6411ZM22.8906-62.752C27.2803-62.752 32.3096-64.8062 35.2578-68.1987C36.1992-69.2378 36.1992-70.5733 35.2427-71.6763C32.3096-75.02 27.2803-77.1079 22.8906-77.1079C18.437-77.1079 13.4077-75.02 10.5083-71.6763C9.51807-70.5733 9.51807-69.2378 10.5083-68.1836C13.4077-64.8062 18.437-62.752 22.8906-62.752Z"/>
  </g>
  <g id="Thin-S" transform="matrix(1 0 0 1 806.233 696)">
   <path d="M49.1133-61.4766C53.4492-61.4766 56.9551-64.9688 56.9551-69.291C56.9551-73.5918 53.4492-77.084 49.1133-77.084C44.8125-77.084 41.334-73.5918 41.334-69.291C41.334-64.9688 44.8125-61.4766 49.1133-61.4766ZM20.9844-2.1035C19.0254-0.158185 19.4297 2.21877 20.8867 3.52932C22.1973 4.69338 24.4277 4.93752 26.2266 3.12502L40.0508-10.6504C40.3086-10.9082 40.4199-11.0547 40.6641-11.5078L47.6797-24.709C48.4297-26.1543 50.8106-26.5059 52.4629-25.293L68.1934-13.3203L68.1934 2.57424C68.1934 5.04885 69.6856 6.55471 71.9512 6.55471C74.2168 6.55471 75.7227 5.04885 75.7227 2.57424L75.7227-15.1328C75.7227-16.2344 75.3184-17.1543 74.3145-18.0469L56.9629-32.9375L56.9629-49.1387C56.9629-50.0449 57.5625-50.791 58.6641-50.9512L87.4766-55.3223C89.4629-55.6289 90.8711-57.5879 90.5645-59.6094C90.2579-61.666 88.3477-63.0606 86.3262-62.7539L28.9453-54.0606L28.9453-65.5488L21.5352-65.5488L21.5352-49.6543C21.5352-47.3262 23.4453-45.6602 25.7734-46.0156L38.2383-47.8906C39.3535-48.0508 40.1621-47.375 40.1621-46.2246L40.1621-31.5918L34.2227-15.3418ZM22.4902-61.4707C26.6797-61.4707 31.709-63.4649 34.6172-67.0176C35.3184-67.8164 35.3184-68.8516 34.582-69.7344C31.709-73.2383 26.6797-75.2461 22.4902-75.2461C18.2168-75.2461 13.1875-73.2383 10.3281-69.7344C9.57812-68.8516 9.57812-67.8164 10.3281-66.9824C13.1875-63.4649 18.2168-61.4707 22.4902-61.4707Z"/>
  </g>
  <g id="Ultralight-S" transform="matrix(1 0 0 1 510.378 696)">
   <path d="M48.3135-61.0357C52.5469-61.0357 55.9502-64.4356 55.9502-68.6655C55.9502-72.8535 52.5469-76.2534 48.3135-76.2534C44.1255-76.2534 40.729-72.8535 40.729-68.6655C40.729-64.4356 44.1255-61.0357 48.3135-61.0357ZM20.8101-2.75974C18.8921-0.845191 19.2861 1.47024 20.7124 2.75003C21.9922 3.88333 24.1611 4.12747 25.9292 2.35598L39.4561-11.1221C39.7036-11.3696 39.8047-11.5161 40.0488-11.959L47.003-25.0371C47.6299-26.2773 49.8365-26.7314 51.458-25.5493L66.9629-13.7305L66.9629 1.81546C66.9629 4.22854 68.4346 5.70364 70.649 5.70364C72.8633 5.70364 74.3384 4.22854 74.3384 1.81546L74.3384-15.5019C74.3384-16.583 73.9444-17.4722 72.961-18.3545L55.9888-32.917L55.9888-48.7593C55.9888-49.645 56.5782-50.3809 57.6592-50.5308L85.8462-54.8096C87.7711-55.106 89.1485-57.0239 88.8521-58.9942C88.5557-61.0098 86.6866-62.3838 84.7164-62.0874L28.5864-53.5786L28.5864-64.8003L21.3506-64.8003L21.3506-49.2544C21.3506-46.9878 23.2197-45.3628 25.4863-45.708L37.6846-47.5318C38.7691-47.6817 39.5572-47.0366 39.5572-45.9067L39.5572-31.5918L33.751-15.7007ZM22.2852-60.8145C26.3721-60.8145 31.4014-62.7779 34.2891-66.4126C34.8672-67.0884 34.8672-67.9698 34.2437-68.7398C31.4014-72.3257 26.3721-74.2925 22.2852-74.2925C18.104-74.2925 13.0747-72.3257 10.2358-68.7398C9.60889-67.9698 9.60889-67.0884 10.2358-66.3672C13.0747-62.7779 18.104-60.8145 22.2852-60.8145Z"/>
  </g>
 </g>
</svg>
