<?xml version="1.0" encoding="UTF-8"?>
<!--Generator: Apple Native CoreSVG 175.5-->
<!DOCTYPE svg
PUBLIC "-//W3C//DTD SVG 1.1//EN"
       "http://www.w3.org/Graphics/SVG/1.1/DTD/svg11.dtd">
<svg version="1.1" xmlns="http://www.w3.org/2000/svg" xmlns:xlink="http://www.w3.org/1999/xlink" width="3300" height="2200">
 <!--glyph: "uni101524.medium", point size: 100.0, font version: "18.0d12e2", template writer version: "101"-->
 <g id="Notes">
  <rect height="2200" id="artboard" style="fill:white;opacity:1" width="3300" x="0" y="0"/>
  <line style="fill:none;stroke:black;opacity:1;stroke-width:0.5;" x1="263" x2="3036" y1="292" y2="292"/>
  <text style="stroke:none;fill:black;font-family:sans-serif;font-size:13;font-weight:bold;" transform="matrix(1 0 0 1 263 322)">Weight/Scale Variations</text>
  <text style="stroke:none;fill:black;font-family:sans-serif;font-size:13;text-anchor:middle;" transform="matrix(1 0 0 1 559.711 322)">Ultralight</text>
  <text style="stroke:none;fill:black;font-family:sans-serif;font-size:13;text-anchor:middle;" transform="matrix(1 0 0 1 856.422 322)">Thin</text>
  <text style="stroke:none;fill:black;font-family:sans-serif;font-size:13;text-anchor:middle;" transform="matrix(1 0 0 1 1153.13 322)">Light</text>
  <text style="stroke:none;fill:black;font-family:sans-serif;font-size:13;text-anchor:middle;" transform="matrix(1 0 0 1 1449.84 322)">Regular</text>
  <text style="stroke:none;fill:black;font-family:sans-serif;font-size:13;text-anchor:middle;" transform="matrix(1 0 0 1 1746.56 322)">Medium</text>
  <text style="stroke:none;fill:black;font-family:sans-serif;font-size:13;text-anchor:middle;" transform="matrix(1 0 0 1 2043.27 322)">Semibold</text>
  <text style="stroke:none;fill:black;font-family:sans-serif;font-size:13;text-anchor:middle;" transform="matrix(1 0 0 1 2339.98 322)">Bold</text>
  <text style="stroke:none;fill:black;font-family:sans-serif;font-size:13;text-anchor:middle;" transform="matrix(1 0 0 1 2636.69 322)">Heavy</text>
  <text style="stroke:none;fill:black;font-family:sans-serif;font-size:13;text-anchor:middle;" transform="matrix(1 0 0 1 2933.4 322)">Black</text>
  <line style="fill:none;stroke:black;opacity:1;stroke-width:0.5;" x1="263" x2="3036" y1="1903" y2="1903"/>
  <g transform="matrix(1 0 0 1 263 1933)">
   <path d="M9.24805 0.830078C13.5547 0.830078 17.1387-2.74414 17.1387-7.05078C17.1387-11.3574 13.5449-14.9316 9.23828-14.9316C4.94141-14.9316 1.36719-11.3574 1.36719-7.05078C1.36719-2.74414 4.95117 0.830078 9.24805 0.830078ZM9.24805-0.654297C5.70312-0.654297 2.87109-3.49609 2.87109-7.05078C2.87109-10.6055 5.69336-13.4473 9.23828-13.4473C12.793-13.4473 15.6445-10.6055 15.6445-7.05078C15.6445-3.49609 12.8027-0.654297 9.24805-0.654297ZM5.6543-7.05078C5.6543-6.62109 5.95703-6.32812 6.40625-6.32812L8.50586-6.32812L8.50586-4.20898C8.50586-3.76953 8.79883-3.4668 9.22852-3.4668C9.67773-3.4668 9.9707-3.76953 9.9707-4.20898L9.9707-6.32812L12.0898-6.32812C12.5293-6.32812 12.832-6.62109 12.832-7.05078C12.832-7.49023 12.5293-7.79297 12.0898-7.79297L9.9707-7.79297L9.9707-9.90234C9.9707-10.3516 9.67773-10.6543 9.22852-10.6543C8.79883-10.6543 8.50586-10.3516 8.50586-9.90234L8.50586-7.79297L6.40625-7.79297C5.95703-7.79297 5.6543-7.49023 5.6543-7.05078Z"/>
  </g>
  <g transform="matrix(1 0 0 1 281.867 1933)">
   <path d="M11.709 2.91016C17.1582 2.91016 21.6699-1.61133 21.6699-7.05078C21.6699-12.5 17.1484-17.0117 11.6992-17.0117C6.25977-17.0117 1.74805-12.5 1.74805-7.05078C1.74805-1.61133 6.26953 2.91016 11.709 2.91016ZM11.709 1.25C7.09961 1.25 3.41797-2.44141 3.41797-7.05078C3.41797-11.6602 7.08984-15.3516 11.6992-15.3516C16.3086-15.3516 20.0098-11.6602 20.0098-7.05078C20.0098-2.44141 16.3184 1.25 11.709 1.25ZM7.17773-7.05078C7.17773-6.57227 7.50977-6.25 8.00781-6.25L10.8789-6.25L10.8789-3.36914C10.8789-2.88086 11.2109-2.53906 11.6895-2.53906C12.1777-2.53906 12.5195-2.87109 12.5195-3.36914L12.5195-6.25L15.4004-6.25C15.8887-6.25 16.2305-6.57227 16.2305-7.05078C16.2305-7.53906 15.8887-7.88086 15.4004-7.88086L12.5195-7.88086L12.5195-10.752C12.5195-11.25 12.1777-11.5918 11.6895-11.5918C11.2109-11.5918 10.8789-11.25 10.8789-10.752L10.8789-7.88086L8.00781-7.88086C7.50977-7.88086 7.17773-7.53906 7.17773-7.05078Z"/>
  </g>
  <g transform="matrix(1 0 0 1 305.646 1933)">
   <path d="M14.9707 5.66406C21.9336 5.66406 27.6953-0.0976562 27.6953-7.05078C27.6953-14.0137 21.9238-19.7754 14.9609-19.7754C8.00781-19.7754 2.25586-14.0137 2.25586-7.05078C2.25586-0.0976562 8.01758 5.66406 14.9707 5.66406ZM14.9707 3.84766C8.93555 3.84766 4.08203-1.01562 4.08203-7.05078C4.08203-13.0957 8.92578-17.9492 14.9609-17.9492C21.0059-17.9492 25.8691-13.0957 25.8691-7.05078C25.8691-1.01562 21.0156 3.84766 14.9707 3.84766ZM9.19922-7.05078C9.19922-6.5332 9.57031-6.17188 10.1172-6.17188L14.0625-6.17188L14.0625-2.2168C14.0625-1.67969 14.4336-1.29883 14.9512-1.29883C15.4883-1.29883 15.8594-1.66992 15.8594-2.2168L15.8594-6.17188L19.8145-6.17188C20.3516-6.17188 20.7324-6.5332 20.7324-7.05078C20.7324-7.59766 20.3613-7.96875 19.8145-7.96875L15.8594-7.96875L15.8594-11.9141C15.8594-12.4609 15.4883-12.8418 14.9512-12.8418C14.4336-12.8418 14.0625-12.4609 14.0625-11.9141L14.0625-7.96875L10.1172-7.96875C9.57031-7.96875 9.19922-7.59766 9.19922-7.05078Z"/>
  </g>
  <text style="stroke:none;fill:black;font-family:sans-serif;font-size:13;font-weight:bold;" transform="matrix(1 0 0 1 263 1953)">Design Variations</text>
  <text style="stroke:none;fill:black;font-family:sans-serif;font-size:13;" transform="matrix(1 0 0 1 263 1971)">Symbols are supported in up to nine weights and three scales.</text>
  <text style="stroke:none;fill:black;font-family:sans-serif;font-size:13;" transform="matrix(1 0 0 1 263 1989)">For optimal layout with text and other symbols, vertically align</text>
  <text style="stroke:none;fill:black;font-family:sans-serif;font-size:13;" transform="matrix(1 0 0 1 263 2007)">symbols with the adjacent text.</text>
  <line style="fill:none;stroke:#00AEEF;stroke-width:0.5;opacity:1.0;" x1="776" x2="776" y1="1919" y2="1933"/>
  <g transform="matrix(1 0 0 1 776 1933)">
   <path d="M3.31055 0.15625C3.82812 0.15625 4.08203-0.0390625 4.26758-0.585938L5.52734-4.0332L11.2891-4.0332L12.5488-0.585938C12.7344-0.0390625 12.9883 0.15625 13.4961 0.15625C14.0137 0.15625 14.3457-0.15625 14.3457-0.644531C14.3457-0.810547 14.3164-0.966797 14.2383-1.17188L9.6582-13.3691C9.43359-13.9648 9.0332-14.2676 8.4082-14.2676C7.80273-14.2676 7.39258-13.9746 7.17773-13.3789L2.59766-1.16211C2.51953-0.957031 2.49023-0.800781 2.49023-0.634766C2.49023-0.146484 2.80273 0.15625 3.31055 0.15625ZM6.00586-5.51758L8.37891-12.0898L8.42773-12.0898L10.8008-5.51758Z"/>
  </g>
  <line style="fill:none;stroke:#00AEEF;stroke-width:0.5;opacity:1.0;" x1="793.197" x2="793.197" y1="1919" y2="1933"/>
  <text style="stroke:none;fill:black;font-family:sans-serif;font-size:13;font-weight:bold;" transform="matrix(1 0 0 1 776 1953)">Margins</text>
  <text style="stroke:none;fill:black;font-family:sans-serif;font-size:13;" transform="matrix(1 0 0 1 776 1971)">Leading and trailing margins on the left and right side of each symbol</text>
  <text style="stroke:none;fill:black;font-family:sans-serif;font-size:13;" transform="matrix(1 0 0 1 776 1989)">can be adjusted by modifying the x-location of the margin guidelines.</text>
  <text style="stroke:none;fill:black;font-family:sans-serif;font-size:13;" transform="matrix(1 0 0 1 776 2007)">Modifications are automatically applied proportionally to all</text>
  <text style="stroke:none;fill:black;font-family:sans-serif;font-size:13;" transform="matrix(1 0 0 1 776 2025)">scales and weights.</text>
  <g transform="matrix(1 0 0 1 1289 1933)">
   <path d="M2.8418 1.86523L4.54102 3.57422C5.40039 4.44336 6.38672 4.38477 7.31445 3.35938L18.0078-8.42773L17.041-9.4043L6.42578 2.27539C6.07422 2.67578 5.74219 2.77344 5.27344 2.30469L4.10156 1.14258C3.63281 0.683594 3.74023 0.341797 4.14062-0.0195312L15.6152-10.8203L14.6387-11.7871L3.04688-0.898438C2.06055 0.0195312 1.98242 0.996094 2.8418 1.86523ZM9.25781-16.3281C8.83789-15.918 8.80859-15.3418 9.04297-14.9512C9.27734-14.5898 9.73633-14.3555 10.3809-14.5215C11.8457-14.8633 13.3691-14.9219 14.7949-13.9844L14.209-12.5293C13.8672-11.6992 14.043-11.1133 14.5801-10.5664L16.875-8.25195C17.3633-7.76367 17.7734-7.74414 18.3398-7.8418L19.4043-8.03711L20.0684-7.36328L20.0293-6.80664C19.9902-6.30859 20.1172-5.92773 20.6055-5.44922L21.3672-4.70703C21.8457-4.22852 22.4609-4.19922 22.9297-4.66797L25.8398-7.58789C26.3086-8.05664 26.2891-8.65234 25.8105-9.13086L25.0391-9.89258C24.5605-10.3711 24.1895-10.5273 23.7109-10.4883L23.1348-10.4395L22.4902-11.0742L22.7344-12.1973C22.8613-12.7637 22.7051-13.2031 22.1191-13.7891L19.9219-15.9766C16.582-19.2969 12.1484-19.2188 9.25781-16.3281ZM10.752-15.957C13.1836-17.7344 16.4746-17.4316 18.7012-15.2051L21.1328-12.793C21.3672-12.5586 21.4062-12.373 21.3379-12.0312L21.0156-10.5469L22.5195-9.0625L23.5059-9.12109C23.7598-9.13086 23.8379-9.11133 24.0332-8.91602L24.6094-8.33984L22.168-5.89844L21.5918-6.47461C21.3965-6.66992 21.3672-6.74805 21.377-7.01172L21.4453-7.98828L19.9512-9.47266L18.4277-9.21875C18.1055-9.15039 17.959-9.17969 17.7148-9.41406L15.7129-11.416C15.459-11.6504 15.4297-11.8164 15.5859-12.1875L16.4648-14.2773C14.9023-15.7324 12.8711-16.3574 10.8398-15.7617C10.6836-15.7227 10.625-15.8496 10.752-15.957Z"/>
  </g>
  <text style="stroke:none;fill:black;font-family:sans-serif;font-size:13;font-weight:bold;" transform="matrix(1 0 0 1 1289 1953)">Exporting</text>
  <text style="stroke:none;fill:black;font-family:sans-serif;font-size:13;" transform="matrix(1 0 0 1 1289 1971)">Symbols should be outlined when exporting to ensure the</text>
  <text style="stroke:none;fill:black;font-family:sans-serif;font-size:13;" transform="matrix(1 0 0 1 1289 1989)">design is preserved when submitting to Xcode.</text>
  <text id="template-version" style="stroke:none;fill:black;font-family:sans-serif;font-size:13;text-anchor:end;" transform="matrix(1 0 0 1 3036 1933)">Template v.4.0</text>
  <text style="stroke:none;fill:black;font-family:sans-serif;font-size:13;text-anchor:end;" transform="matrix(1 0 0 1 3036 1951)">Requires Xcode 14 or greater</text>
  <text id="descriptive-name" style="stroke:none;fill:black;font-family:sans-serif;font-size:13;text-anchor:end;" transform="matrix(1 0 0 1 3036 1969)">Generated from figure.skiing.downhill</text>
  <text style="stroke:none;fill:black;font-family:sans-serif;font-size:13;text-anchor:end;" transform="matrix(1 0 0 1 3036 1987)">Typeset at 100 points</text>
  <text style="stroke:none;fill:black;font-family:sans-serif;font-size:13;" transform="matrix(1 0 0 1 263 726)">Small</text>
  <text style="stroke:none;fill:black;font-family:sans-serif;font-size:13;" transform="matrix(1 0 0 1 263 1156)">Medium</text>
  <text style="stroke:none;fill:black;font-family:sans-serif;font-size:13;" transform="matrix(1 0 0 1 263 1586)">Large</text>
 </g>
 <g id="Guides">
  <g id="H-reference" style="fill:#27AAE1;stroke:none;" transform="matrix(1 0 0 1 339 696)">
   <path d="M0.993654 0L3.63775 0L29.3281-67.1323L30.0303-67.1323L30.0303-70.459L28.1226-70.459ZM11.6885-24.4799L46.9815-24.4799L46.2315-26.7285L12.4385-26.7285ZM55.1196 0L57.7637 0L30.6382-70.459L29.4326-70.459L29.4326-67.1323Z"/>
  </g>
  <line id="Baseline-S" style="fill:none;stroke:#27AAE1;opacity:1;stroke-width:0.5;" x1="263" x2="3036" y1="696" y2="696"/>
  <line id="Capline-S" style="fill:none;stroke:#27AAE1;opacity:1;stroke-width:0.5;" x1="263" x2="3036" y1="625.541" y2="625.541"/>
  <g id="H-reference" style="fill:#27AAE1;stroke:none;" transform="matrix(1 0 0 1 339 1126)">
   <path d="M0.993654 0L3.63775 0L29.3281-67.1323L30.0303-67.1323L30.0303-70.459L28.1226-70.459ZM11.6885-24.4799L46.9815-24.4799L46.2315-26.7285L12.4385-26.7285ZM55.1196 0L57.7637 0L30.6382-70.459L29.4326-70.459L29.4326-67.1323Z"/>
  </g>
  <line id="Baseline-M" style="fill:none;stroke:#27AAE1;opacity:1;stroke-width:0.5;" x1="263" x2="3036" y1="1126" y2="1126"/>
  <line id="Capline-M" style="fill:none;stroke:#27AAE1;opacity:1;stroke-width:0.5;" x1="263" x2="3036" y1="1055.54" y2="1055.54"/>
  <g id="H-reference" style="fill:#27AAE1;stroke:none;" transform="matrix(1 0 0 1 339 1556)">
   <path d="M0.993654 0L3.63775 0L29.3281-67.1323L30.0303-67.1323L30.0303-70.459L28.1226-70.459ZM11.6885-24.4799L46.9815-24.4799L46.2315-26.7285L12.4385-26.7285ZM55.1196 0L57.7637 0L30.6382-70.459L29.4326-70.459L29.4326-67.1323Z"/>
  </g>
  <line id="Baseline-L" style="fill:none;stroke:#27AAE1;opacity:1;stroke-width:0.5;" x1="263" x2="3036" y1="1556" y2="1556"/>
  <line id="Capline-L" style="fill:none;stroke:#27AAE1;opacity:1;stroke-width:0.5;" x1="263" x2="3036" y1="1485.54" y2="1485.54"/>
  <line id="left-margin-Regular-M" style="fill:none;stroke:#00AEEF;stroke-width:0.5;opacity:1.0;" x1="1384.32" x2="1384.32" y1="1030.79" y2="1150.12"/>
  <line id="right-margin-Regular-M" style="fill:none;stroke:#00AEEF;stroke-width:0.5;opacity:1.0;" x1="1515.37" x2="1515.37" y1="1030.79" y2="1150.12"/>
 </g>
 <g id="Symbols">
  <g id="Black-L" transform="matrix(1 0 0 1 2843.89 1556)">
   <path d="M126.967-88.1691C135.493-88.1691 142.459-95.1551 142.459-103.662C142.459-112.186 135.493-119.172 126.967-119.172C118.461-119.172 111.475-112.186 111.475-103.662C111.475-95.1551 118.461-88.1691 126.967-88.1691ZM100.899 6.41997C105.353 6.41997 108.886 2.88597 108.886-1.48743L108.886-33.3745C108.886-35.4334 108.069-37.5507 106.631-38.9662L89.9211-55.5372L104.725-70.423C105.339-71.0364 106.126-71.0949 106.739-70.423L117.552-59.4727C118.97-57.9756 121.144-57.2166 123.123-57.2166L155.01-57.2166C159.404-57.2166 162.938-60.6702 162.938-65.124C162.938-69.4962 159.404-73.051 155.01-73.051L126.436-73.051L103.061-96.4861C99.8773-99.6905 95.2354-101.611 90.6727-101.611L65.7626-101.611C57.8928-101.611 55.499-92.8649 60.4122-87.9726L70.7056-77.7387L62.6383-69.8323C56.5357-63.8684 56.5941-53.7416 62.6383-47.7194L74.0204-36.419L74.0204 0.0965637C74.0204 4.39074 77.4948 8.00396 81.9474 8.00396C86.3 8.00396 89.9132 4.39074 89.9132 0.0965637L89.9132-33.1409L92.9943-30.061L92.9943-1.48743C92.9943 2.88597 96.6063 6.41997 100.899 6.41997ZM21.7785-67.9512L87.565-67.9512L87.565-79.361L21.7785-79.361C18.6554-79.361 16.084-76.7908 16.084-73.6457C16.084-70.5214 18.6554-67.9512 21.7785-67.9512ZM157.21 6.15004C160.334 6.15004 162.905 3.57866 162.905 0.454368L162.905-65.112L151.494-65.112L151.494 0.454368C151.494 3.57866 154.066 6.15004 157.21 6.15004ZM126.747 48.8465C129.892 48.8465 132.442 46.2959 132.442 43.1312C132.442 39.9861 129.892 37.4355 126.747 37.4355C122.813 37.4355 121.429 36.5365 118.276 33.4421L47.8209-36.9546C45.6028-39.1727 41.9095-39.2311 39.7731-36.9558C37.5562-34.7973 37.6146-31.104 39.7731-28.9664L111.394 42.7343C115.671 47.0688 120.939 48.8465 126.747 48.8465ZM143.873 45.3348C147.018 45.3348 149.568 42.7842 149.568 39.6403C149.568 36.4952 147.018 33.9238 143.873 33.9238C139.939 33.9238 138.555 33.0249 135.403 29.9304L64.9475-40.4454C62.7294-42.6843 59.035-42.7427 56.8789-40.4466C54.6828-38.309 54.7412-34.6157 56.8789-32.4781L128.52 39.2226C132.797 43.5572 138.064 45.3348 143.873 45.3348Z"/>
  </g>
  <g id="Heavy-L" transform="matrix(1 0 0 1 2548.49 1556)">
   <path d="M124.98-87.3781C133.269-87.3781 140.038-94.1773 140.038-102.442C140.038-110.725 133.269-117.524 124.98-117.524C116.716-117.524 109.916-110.725 109.916-102.442C109.916-94.1773 116.716-87.3781 124.98-87.3781ZM99.3267 5.62142C103.584 5.62142 106.947 2.2523 106.947-1.92424L106.947-33.3954C106.947-35.3765 106.176-37.4023 104.802-38.74L88.1297-55.2872L102.919-70.1625C103.611-70.8542 104.577-70.8988 105.269-70.1625L115.96-59.3523C117.309-57.9285 119.374-57.2015 121.274-57.2015L152.746-57.2015C156.952-57.2015 160.321-60.4902 160.321-64.7471C160.321-68.9181 156.952-72.3174 152.746-72.3174L124.432-72.3174L101.277-95.5229C98.1757-98.6545 93.6706-100.511 89.2402-100.511L64.6467-100.511C57.1155-100.511 54.8453-92.1631 59.5433-87.4952L69.8897-77.1991L61.7425-69.2128C55.8223-63.4177 55.867-53.5832 61.7425-47.7435L73.0533-36.5187L73.0533-0.362866C73.0533 3.73887 76.3722 7.1828 80.6236 7.1828C84.7699 7.1828 88.2138 3.73887 88.2138-0.362866L88.2138-33.8101L91.7922-30.2374L91.7922-1.92424C91.7922 2.2523 95.2305 5.62142 99.3267 5.62142ZM21.2093-68.106L85.7796-68.106L85.7796-78.3868L21.2093-78.3868C18.405-78.3868 16.084-76.0715 16.084-73.2313C16.084-70.4214 18.405-68.106 21.2093-68.106ZM155.104 4.65225C157.914 4.65225 160.235 2.33126 160.235-0.478667L160.235-64.691L149.949-64.691L149.949-0.478667C149.949 2.33126 152.27 4.65225 155.104 4.65225ZM124.727 47.338C127.567 47.338 129.858 45.0472 129.858 42.1825C129.858 39.3424 127.567 37.0516 124.727 37.0516C120.697 37.0516 119.345 36.1939 116.078 32.971L46.5269-36.5353C44.514-38.5482 41.2073-38.5928 39.2804-36.5409C37.2731-34.5782 37.3177-31.2716 39.2804-29.3391L109.918 41.373C114.124 45.6238 119.165 47.338 124.727 47.338ZM141.628 43.8578C144.468 43.8578 146.753 41.5669 146.753 38.7324C146.753 35.8923 144.468 33.5713 141.628 33.5713C137.597 33.5713 136.246 32.7137 132.978 29.4908L63.4274-39.9853C61.4144-42.0284 58.1022-42.0731 56.1507-39.9909C54.1736-38.0584 54.2182-34.7518 56.1507-32.8193L126.813 37.8927C131.024 42.1435 136.06 43.8578 141.628 43.8578Z"/>
  </g>
  <g id="Bold-L" transform="matrix(1 0 0 1 2253.5 1556)">
   <path d="M122.379-86.3649C130.376-86.3649 136.907-92.9335 136.907-100.906C136.907-108.889 130.376-115.458 122.379-115.458C114.407-115.458 107.839-108.889 107.839-100.906C107.839-92.9335 114.407-86.3649 122.379-86.3649ZM97.2409 4.64516C101.267 4.64516 104.43 1.4685 104.43-2.47712L104.43-33.3813C104.43-35.2701 103.713-37.1881 102.416-38.4335L85.842-54.8978L100.564-69.713C101.34-70.4896 102.5-70.5188 103.277-69.713L113.799-59.0944C115.071-57.7553 117.005-57.0668 118.813-57.0668L149.717-57.0668C153.701-57.0668 156.878-60.163 156.878-64.1891C156.878-68.1214 153.701-71.3361 149.717-71.3361L121.787-71.3361L98.9525-94.2126C95.951-97.252 91.6149-99.0312 87.346-99.0312L63.1817-99.0312C56.0506-99.0312 53.9266-91.1532 58.3707-86.7471L68.7413-76.4189L60.5315-68.3699C54.8344-62.7823 54.8636-53.3015 60.5315-47.6848L71.728-36.582L71.728-0.946397C71.728 2.93203 74.8622 6.17588 78.875 6.17588C82.7826 6.17588 86.0265 2.93203 86.0265-0.946397L86.0265-34.5133L90.1451-30.4079L90.1451-2.47712C90.1451 1.4685 93.3757 4.64516 97.2409 4.64516ZM20.495-68.2311L83.4772-68.2311L83.4772-77.091L20.495-77.091C18.0901-77.091 16.084-75.0981 16.084-72.642C16.084-70.2239 18.0901-68.2311 20.495-68.2311ZM152.283 2.83758C154.701 2.83758 156.707 0.831485 156.707-1.58664L156.707-64.0568L147.834-64.0568L147.834-1.58664C147.834 0.831485 149.84 2.83758 152.283 2.83758ZM122.021 45.3962C124.477 45.3962 126.445 43.4281 126.445 40.9472C126.445 38.4911 124.477 36.523 122.021 36.523C117.883 36.523 116.562 35.7116 113.164 32.3423L44.8465-35.9458C43.0872-37.7051 40.2719-37.7343 38.6062-35.959C36.8601-34.2421 36.8893-31.4269 38.6062-29.748L107.88 39.5932C112.024 43.7664 116.773 45.3962 122.021 45.3962ZM138.615 41.9619C141.071 41.9619 143.026 39.9938 143.026 37.5509C143.026 35.0948 141.071 33.0887 138.615 33.0887C134.477 33.0887 133.156 32.2773 129.758 28.908L61.4404-39.3422C59.6811-41.1395 56.8526-41.1687 55.1622-39.3554C53.4541-37.6765 53.4833-34.8612 55.1622-33.1823L124.461 36.1589C128.618 40.332 133.354 41.9619 138.615 41.9619Z"/>
  </g>
  <g id="Semibold-L" transform="matrix(1 0 0 1 1957.97 1556)">
   <path d="M120.587-85.6664C128.382-85.6664 134.748-92.076 134.748-99.8467C134.748-107.624 128.382-114.033 120.587-114.033C112.816-114.033 106.406-107.624 106.406-99.8467C106.406-92.076 112.816-85.6664 120.587-85.6664ZM95.803 3.97213C99.6699 3.97213 102.695 0.928155 102.695-2.85827L102.695-33.3715C102.695-35.1967 102.015-37.0404 100.771-38.2222L84.2649-54.6294L98.9399-69.4032C99.775-70.2383 101.068-70.2569 101.903-69.4032L112.309-58.9166C113.528-57.6359 115.372-56.9739 117.116-56.9739L147.63-56.9739C151.459-56.9739 154.503-59.9375 154.503-63.8043C154.503-67.5723 151.459-70.6596 147.63-70.6596L119.962-70.6596L97.3498-93.3093C94.4173-96.2852 90.1978-98.0113 86.0402-98.0113L62.1717-98.0113C55.3165-98.0113 53.2932-90.457 57.5623-86.2313L67.9497-75.8809L59.6967-67.7888C54.1533-62.3443 54.1718-53.1074 59.6967-47.6443L70.8143-36.6257L70.8143-1.34868C70.8143 2.37581 73.8212 5.48172 77.6696 5.48172C81.4126 5.48172 84.5185 2.37581 84.5185-1.34868L84.5185-34.998L89.0096-30.5255L89.0096-2.85827C89.0096 0.928155 92.097 3.97213 95.803 3.97213ZM20.0025-68.3172L81.89-68.3172L81.89-76.1977L20.0025-76.1977C17.873-76.1977 16.084-74.4272 16.084-72.2358C16.084-70.0878 17.873-68.3172 20.0025-68.3172ZM150.338 1.58655C152.486 1.58655 154.275-0.202454 154.275-2.35047L154.275-63.6195L146.376-63.6195L146.376-2.35047C146.376-0.202454 148.165 1.58655 150.338 1.58655ZM120.155 44.0576C122.347 44.0576 124.092 42.3119 124.092 40.0957C124.092 37.9043 122.347 36.1586 120.155 36.1586C115.943 36.1586 114.644 35.3791 111.155 31.9089L43.6881-35.5394C42.1035-37.1239 39.6271-37.1425 38.1415-35.5579C36.5754-34.0104 36.594-31.534 38.1415-30.0299L106.476 38.3662C110.577 42.4859 115.125 44.0576 120.155 44.0576ZM136.538 40.6549C138.729 40.6549 140.457 38.9092 140.457 36.7363C140.457 34.545 138.729 32.7559 136.538 32.7559C132.325 32.7559 131.026 31.9764 127.538 28.5062L60.0707-38.8987C58.4862-40.5266 55.9912-40.5452 54.4807-38.9172C52.958-37.4131 52.9766-34.9367 54.4807-33.4326L122.84 34.9635C126.959 39.0832 131.489 40.6549 136.538 40.6549Z"/>
  </g>
  <g id="Medium-L" transform="matrix(1 0 0 1 1662.16 1556)">
   <path d="M119.227-85.1367C126.87-85.1367 133.112-91.4259 133.112-99.0437C133.112-106.664 126.87-112.953 119.227-112.953C111.609-112.953 105.32-106.664 105.32-99.0437C105.32-91.4259 111.609-85.1367 119.227-85.1367ZM94.7127 3.46182C98.4589 3.46182 101.38 0.518443 101.38-3.14727L101.38-33.3642C101.38-35.141 100.727-36.9284 99.5239-38.0619L83.0691-54.4258L97.7087-69.1683C98.5882-70.0478 99.982-70.0583 100.861-69.1683L111.18-58.7818C112.358-57.5454 114.133-56.9035 115.83-56.9035L146.047-56.9035C149.76-56.9035 152.703-59.7664 152.703-63.5126C152.703-67.1558 149.76-70.1466 146.047-70.1466L118.579-70.1466L96.1347-92.6243C93.2544-95.5521 89.1232-97.238 85.05-97.238L61.4058-97.238C54.7598-97.238 52.813-89.9291 56.9493-85.8402L67.3494-75.4731L59.0638-67.3482C53.6368-62.0122 53.6473-52.9601 59.0638-47.6136L70.1215-36.6588L70.1215-1.65371C70.1215 1.95405 73.0319 4.95538 76.7555 4.95538C80.3738 4.95538 83.3751 1.95405 83.3751-1.65371L83.3751-35.3656L88.1486-30.6146L88.1486-3.14727C88.1486 0.518443 91.1274 3.46182 94.7127 3.46182ZM19.6291-68.3826L80.6865-68.3826L80.6865-75.5203L19.6291-75.5203C17.7084-75.5203 16.084-73.9184 16.084-71.9277C16.084-69.9845 17.7084-68.3826 19.6291-68.3826ZM148.864 0.637973C150.807 0.637973 152.431-0.986429 152.431-2.92964L152.431-63.2879L145.271-63.2879L145.271-2.92964C145.271-0.986429 146.895 0.637973 148.864 0.637973ZM118.741 43.0426C120.732 43.0426 122.308 41.4656 122.308 39.45C122.308 37.4593 120.732 35.8824 118.741 35.8824C114.472 35.8824 113.189 35.127 109.632 31.5803L42.8097-35.2313C41.3577-36.6832 39.1381-36.6938 37.789-35.2537C36.3595-33.8347 36.37-31.6151 37.789-30.2436L105.411 37.4359C109.479 41.5149 113.875 43.0426 118.741 43.0426ZM134.963 39.6638C136.954 39.6638 138.508 38.0869 138.508 36.1187C138.508 34.128 136.954 32.5036 134.963 32.5036C130.694 32.5036 129.411 31.7483 125.854 28.2016L59.0321-38.5625C57.5801-40.062 55.338-40.0725 53.964-38.585C52.5819-37.2135 52.5924-34.9939 53.964-33.6223L121.61 34.0572C125.701 38.1362 130.075 39.6638 134.963 39.6638Z"/>
  </g>
  <g id="Regular-L" transform="matrix(1 0 0 1 1366.62 1556)">
   <path d="M117.454-84.4459C124.898-84.4459 130.977-90.5778 130.977-97.9965C130.977-105.413 124.898-111.544 117.454-111.544C110.035-111.544 103.904-105.413 103.904-97.9965C103.904-90.5778 110.035-84.4459 117.454-84.4459ZM93.2906 2.79618C96.8793 2.79618 99.6638-0.0159639 99.6638-3.52423L99.6638-33.3545C99.6638-35.0685 99.0481-36.7824 97.8971-37.8529L81.5093-54.1603L96.1028-68.8619C97.0402-69.7993 98.5656-69.7993 99.503-68.8619L109.706-58.606C110.832-57.4273 112.518-56.8116 114.152-56.8116L143.982-56.8116C147.543-56.8116 150.355-59.5434 150.355-63.1321C150.355-66.6127 147.543-69.4776 143.982-69.4776L116.775-69.4776L94.5497-91.731C91.7375-94.5959 87.7217-96.2294 83.7585-96.2294L60.4069-96.2294C54.0337-96.2294 52.1866-89.2405 56.1498-85.3301L66.5665-74.941L58.2381-66.7735C52.9632-61.579 52.9632-52.7681 58.2381-47.5736L69.2178-36.702L69.2178-2.05157C69.2178 1.40394 72.0023 4.26885 75.5633 4.26885C79.0188 4.26885 81.8838 1.40394 81.8838-2.05157L81.8838-35.845L87.0255-30.7309L87.0255-3.52423C87.0255-0.0159639 89.8628 2.79618 93.2906 2.79618ZM19.1421-68.4678L79.1167-68.4678L79.1167-74.6368L19.1421-74.6368C17.4937-74.6368 16.084-73.2548 16.084-71.5259C16.084-69.8499 17.4937-68.4678 19.1421-68.4678ZM146.94-0.599304C148.616-0.599304 150.026-2.00901 150.026-3.68507L150.026-62.8555L143.829-62.8555L143.829-3.68507C143.829-2.00901 145.239-0.599304 146.94-0.599304ZM116.896 41.7186C118.625 41.7186 119.982 40.3617 119.982 38.6078C119.982 36.8789 118.625 35.522 116.896 35.522C112.553 35.522 111.292 34.7982 107.645 31.1517L41.664-34.8294C40.3849-36.1084 38.5003-36.1084 37.3294-34.857C36.0779-33.6056 36.0779-31.721 37.3294-30.5224L104.021 36.2224C108.047 40.2485 112.244 41.7186 116.896 41.7186ZM132.909 38.3712C134.638 38.3712 135.967 37.0143 135.967 35.3131C135.967 33.5843 134.638 32.1746 132.909 32.1746C128.567 32.1746 127.305 31.4508 123.658 27.8042L57.6774-38.124C56.3983-39.4558 54.4861-39.4558 53.29-38.1517C52.0913-36.953 52.0913-35.0685 53.29-33.8698L120.007 32.875C124.061 36.9011 128.23 38.3712 132.909 38.3712Z"/>
  </g>
  <g id="Light-L" transform="matrix(1 0 0 1 1071.76 1556)">
   <path d="M114.763-83.5298C122.016-83.5298 127.962-89.509 127.962-96.775C127.962-103.981 122.016-109.96 114.763-109.96C107.497-109.96 101.518-103.981 101.518-96.775C101.518-89.509 107.497-83.5298 114.763-83.5298ZM90.9622 2.20454C94.4746 2.20454 97.1827-0.550352 97.1827-3.98228L97.1827-33.0873C97.1827-34.7631 96.5861-36.4388 95.4733-37.4712L79.4863-53.3778L93.7171-67.7359C94.6354-68.6542 96.1036-68.6542 97.0219-67.7359L106.996-57.7281C108.122-56.5685 109.751-55.9719 111.346-55.9719L140.451-55.9719C143.917-55.9719 146.672-58.6464 146.672-62.1587C146.672-65.5439 143.917-68.3325 140.451-68.3325L113.894-68.3325L92.2022-90.0705C89.4473-92.8591 85.5459-94.4544 81.6782-94.4544L58.861-94.4544C52.6405-94.4544 50.8507-87.6373 54.7184-83.8033L64.887-73.6814L56.7495-65.7047C51.6081-60.6438 51.6081-52.0238 56.7495-46.9628L67.4811-36.3584L67.4811-2.54779C67.4811 0.850465 70.1892 3.63903 73.6548 3.63903C77.0531 3.63903 79.8416 0.850465 79.8416-2.54779L79.8416-35.5205L84.8689-30.54L84.8689-3.98228C84.8689-0.550352 87.6107 2.20454 90.9622 2.20454ZM18.5886-68.1243L76.941-68.1243L76.941-73.1673L18.5886-73.1673C17.2456-73.1673 16.084-72.0524 16.084-70.6289C16.084-69.2391 17.2456-68.1243 18.5886-68.1243ZM143.619-1.59174C145.009-1.59174 146.171-2.75333 146.171-4.14312L146.171-61.6913L141.081-61.6913L141.081-4.14312C141.081-2.75333 142.243-1.59174 143.619-1.59174ZM113.709 39.9055C115.132 39.9055 116.26 38.7776 116.26 37.3672C116.26 35.9438 115.132 34.8158 113.709 34.8158C109.366 34.8158 108.066 34.0921 104.4 30.4264L40.0036-33.9705C38.8963-35.0778 37.4316-35.0778 36.4514-34.0173C35.3909-32.9567 35.3909-31.492 36.4514-30.4651L101.273 34.3902C105.414 38.5308 109.343 39.9055 113.709 39.9055ZM129.34 36.6344C130.764 36.6344 131.845 35.5065 131.845 34.1298C131.845 32.7063 130.764 31.5447 129.34 31.5447C124.998 31.5447 123.698 30.821 120.032 27.1553L55.6352-37.2079C54.5279-38.3489 53.0165-38.3489 52.0494-37.2547C51.0225-36.2278 51.0225-34.7631 52.0494-33.7362L116.858 31.1192C121.045 35.2598 124.928 36.6344 129.34 36.6344Z"/>
  </g>
  <g id="Thin-L" transform="matrix(1 0 0 1 777.48 1556)">
   <path d="M111.204-82.3182C118.204-82.3182 123.973-88.0955 123.973-95.1595C123.973-102.088 118.204-107.865 111.204-107.865C104.14-107.865 98.3626-102.088 98.3626-95.1595C98.3626-88.0955 104.14-82.3182 111.204-82.3182ZM87.8827 1.42204C91.2941 1.42204 93.9013-1.25712 93.9013-4.58808L93.9013-32.734C93.9013-34.3592 93.3299-35.9845 92.2676-36.9664L76.8106-52.3429L90.5619-66.2466C91.4549-67.1396 92.8474-67.1396 93.7405-66.2466L103.412-56.5669C104.538-55.4326 106.091-54.8613 107.636-54.8613L135.782-54.8613C139.121-54.8613 141.8-57.46 141.8-60.8714C141.8-64.1304 139.121-66.818 135.782-66.818L110.082-66.818L89.0975-87.8745C86.4183-90.5621 82.6684-92.107 78.9269-92.107L56.8164-92.107C50.7979-92.107 49.0837-85.517 52.8252-81.784L62.6657-72.0155L54.7806-64.2912C49.816-59.407 49.816-51.0393 54.7806-46.1551L65.184-35.9041L65.184-3.20407C65.184 0.118452 67.7912 2.80605 71.1306 2.80605C74.4532 2.80605 77.1408 0.118452 77.1408-3.20407L77.1408-35.0914L82.0166-30.2876L82.0166-4.58808C82.0166-1.25712 84.6322 1.42204 87.8827 1.42204ZM17.8566-67.6699L74.0634-67.6699L74.0634-71.2236L17.8566-71.2236C16.9174-71.2236 16.084-70.4622 16.084-69.4426C16.084-68.4314 16.9174-67.6699 17.8566-67.6699ZM139.227-2.90431C140.238-2.90431 141.072-3.73776 141.072-4.74892L141.072-60.1515L137.446-60.1515L137.446-4.74892C137.446-3.73776 138.28-2.90431 139.227-2.90431ZM109.493 37.5076C110.513 37.5076 111.338 36.6825 111.338 35.7265C111.338 34.7069 110.513 33.8819 109.493 33.8819C105.151 33.8819 103.8 33.1581 100.109 29.4672L37.8075-32.8346C36.9274-33.7148 36.018-33.7148 35.2903-32.9066C34.4822-32.0985 34.4822-31.1891 35.2903-30.3894L97.6383 31.967C101.93 36.2591 105.507 37.5076 109.493 37.5076ZM124.62 34.3374C125.64 34.3374 126.393 33.5124 126.393 32.5648C126.393 31.5452 125.64 30.7118 124.62 30.7118C120.277 30.7118 118.927 29.988 115.236 26.2971L52.9344-35.9963C52.0542-36.8849 51.0729-36.8849 50.4087-36.0683C49.609-35.2686 49.609-34.3592 50.4087-33.5595L112.693 28.7969C117.057 33.089 120.561 34.3374 124.62 34.3374Z"/>
  </g>
  <g id="Ultralight-L" transform="matrix(1 0 0 1 482.017 1556)">
   <path d="M109.381-81.6976C116.252-81.6976 121.931-87.3715 121.931-94.3321C121.931-101.118 116.252-106.792 109.381-106.792C102.42-106.792 96.7465-101.118 96.7465-94.3321C96.7465-87.3715 102.42-81.6976 109.381-81.6976ZM86.3054 1.02125C89.6651 1.02125 92.2206-1.61913 92.2206-4.89837L92.2206-32.5529C92.2206-34.1524 91.6621-35.7518 90.6256-36.7078L75.4402-51.8129L88.9458-65.4838C89.8259-66.3639 91.1796-66.3639 92.0597-65.4838L101.576-55.9722C102.702-54.8508 104.216-54.2924 105.735-54.2924L133.39-54.2924C136.664-54.2924 139.305-56.8523 139.305-60.212C139.305-63.4064 136.664-66.0422 133.39-66.0422L108.13-66.0422L87.5072-86.7497C84.8668-89.3856 81.1945-90.9046 77.5176-90.9046L55.7692-90.9046C49.8541-90.9046 48.1787-84.431 51.8556-80.7497L61.528-71.1622L53.7722-63.5672C48.898-58.7734 48.898-50.5351 53.7722-45.7414L64.0075-35.6714L64.0075-3.54022C64.0075-0.256481 66.563 2.37941 69.8378 2.37941C73.1215 2.37941 75.7574-0.256481 75.7574-3.54022L75.7574-34.8716L80.5556-30.1583L80.5556-4.89837C80.5556-1.61913 83.1066 1.02125 86.3054 1.02125ZM17.4817-67.4372L72.5896-67.4372L72.5896-70.2281L17.4817-70.2281C16.7494-70.2281 16.084-69.6477 16.084-68.8349C16.084-68.0177 16.7494-67.4372 17.4817-67.4372ZM136.978-3.57661C137.795-3.57661 138.46-4.24198 138.46-5.05921L138.46-59.3629L135.584-59.3629L135.584-5.05921C135.584-4.24198 136.25-3.57661 136.978-3.57661ZM107.334 36.2793C108.147 36.2793 108.817 35.6095 108.817 34.8861C108.817 34.0734 108.147 33.4035 107.334 33.4035C102.991 33.4035 101.615 32.6797 97.9115 28.9759L36.6827-32.2528C35.919-33.0166 35.294-33.0166 34.6956-32.3378C34.0167-31.6589 34.0167-31.034 34.6956-30.3506L95.7766 30.7259C100.146 35.0955 103.541 36.2793 107.334 36.2793ZM122.202 33.1609C123.015 33.1609 123.6 32.4911 123.6 31.7632C123.6 30.9505 123.015 30.2851 122.202 30.2851C117.86 30.2851 116.484 29.5613 112.78 25.8575L51.551-35.3757C50.7872-36.135 50.0774-36.135 49.5683-35.4607C48.885-34.7773 48.885-34.1524 49.5683-33.469L110.56 27.6075C115.014 31.9771 118.325 33.1609 122.202 33.1609Z"/>
  </g>
  <g id="Black-M" transform="matrix(1 0 0 1 2863.18 1126)">
   <path d="M99.7102-76.7996C106.494-76.7996 112.041-82.352 112.041-89.1297C112.041-95.9134 106.494-101.466 99.7102-101.466C92.9326-101.466 87.3802-95.9134 87.3802-89.1297C87.3802-82.352 92.9326-76.7996 99.7102-76.7996ZM79.207-2.35578C82.8164-2.35578 85.6886-5.22765 85.6886-8.77475L85.6886-33.7382C85.6886-35.395 85.0185-37.1088 83.855-38.2672L70.9312-51.0716L82.3644-62.5668C82.7697-62.9722 83.2173-63.0293 83.6227-62.5668L92.0735-53.9963C93.2312-52.776 95.0024-52.1631 96.5969-52.1631L121.56-52.1631C125.113-52.1631 127.985-54.9726 127.985-58.582C127.985-62.1294 125.113-65.0068 121.56-65.0068L99.2873-65.0068L81.0606-83.2903C78.5313-85.8251 74.833-87.3625 71.1973-87.3625L51.6986-87.3625C45.3312-87.3625 43.3783-80.268 47.3566-76.2952L55.2523-68.4563L49.0968-62.4253C44.23-57.678 44.2871-49.607 49.0968-44.8025L57.9425-36.0188L57.9425-7.5333C57.9425-4.04879 60.7576-1.11432 64.3672-1.11432C67.9088-1.11432 70.8433-4.04879 70.8433-7.5333L70.8433-32.9922L72.7875-31.0478L72.7875-8.77475C72.7875-5.22765 75.7222-2.35578 79.207-2.35578ZM17.2869-60.4008L69.0799-60.4008L69.0799-70.0581L17.2869-70.0581C14.6347-70.0581 12.4609-67.8841 12.4609-65.2267C12.4609-62.5748 14.6347-60.4008 17.2869-60.4008ZM123.157-2.01826C125.808-2.01826 127.982-4.19199 127.982-6.84389L127.982-58.5849L118.325-58.5849L118.325-6.84389C118.325-4.19199 120.499-2.01826 123.157-2.01826ZM99.4996 30.9585C102.157 30.9585 104.325 28.7903 104.325 26.1271C104.325 23.4697 102.157 21.3015 99.4996 21.3015C96.5348 21.3015 95.4295 20.5694 93.0829 18.2799L37.936-36.81C36.0645-38.6815 32.9278-38.7386 31.1183-36.8097C29.2465-34.995 29.3036-31.8583 31.1183-30.0491L87.1988 26.094C90.5874 29.5397 94.8279 30.9585 99.4996 30.9585ZM112.911 28.2212C115.568 28.2212 117.737 26.0529 117.737 23.3953C117.737 20.7379 115.568 18.5641 112.911 18.5641C109.946 18.5641 108.841 17.8321 106.494 15.5425L51.3473-39.5418C49.4759-41.4188 46.3394-41.4759 44.5242-39.5415C42.6579-37.7323 42.715-34.5956 44.5242-32.7865L100.611 23.3567C103.999 26.8024 108.24 28.2212 112.911 28.2212Z"/>
  </g>
  <g id="Heavy-M" transform="matrix(1 0 0 1 2567.58 1126)">
   <path d="M98.0157-76.111C104.585-76.111 109.952-81.4947 109.952-88.0498C109.952-94.6167 104.585-100 98.0157-100C91.4606-100 86.0769-94.6167 86.0769-88.0498C86.0769-81.4947 91.4606-76.111 98.0157-76.111ZM77.8845-3.08183C81.3085-3.08183 84.0222-5.79781 84.0222-9.15951L84.0222-33.7833C84.0222-35.3676 83.3951-36.9954 82.2906-38.0813L69.3666-50.8994L80.8185-62.4159C81.3022-62.8996 81.9308-62.9432 82.4144-62.4159L90.7672-53.9596C91.8575-52.8092 93.5268-52.2257 95.0487-52.2257L119.673-52.2257C123.051-52.2257 125.767-54.8794 125.767-58.3034C125.767-61.6628 123.051-64.3952 119.673-64.3952L97.5942-64.3952L79.5334-82.502C77.0791-84.9726 73.5039-86.451 69.9888-86.451L50.7504-86.451C44.6999-86.451 42.8624-79.7298 46.6393-75.9694L54.6096-68.045L48.3583-61.9183C43.6577-57.3236 43.7013-49.5207 48.3583-44.8824L57.1574-36.1479L57.1574-7.93664C57.1574-4.63498 59.8274-1.85896 63.2492-1.85896C66.5945-1.85896 69.3705-4.63498 69.3705-7.93664L69.3705-33.6764L71.8113-31.2378L71.8113-9.15951C71.8113-5.79781 74.5851-3.08183 77.8845-3.08183ZM16.7815-60.5838L67.5353-60.5838L67.5353-69.2414L16.7815-69.2414C14.4128-69.2414 12.4609-67.2918 12.4609-64.9044C12.4609-62.5334 14.4128-60.5838 16.7815-60.5838ZM121.405-3.39089C123.776-3.39089 125.727-5.34273 125.727-7.71374L125.727-58.2807L117.068-58.2807L117.068-7.71374C117.068-5.34273 119.019-3.39089 121.405-3.39089ZM97.8195 29.6511C100.207 29.6511 102.142 27.7157 102.142 25.3141C102.142 22.9267 100.207 20.9913 97.8195 20.9913C94.7604 20.9913 93.6904 20.2997 91.2334 17.8863L36.8242-36.4793C35.1374-38.1661 32.3399-38.2097 30.7177-36.4816C29.0332-34.8407 29.0768-32.0432 30.7177-30.4187L86.0087 24.9323C89.3183 28.2855 93.3613 29.6511 97.8195 29.6511ZM111.045 26.9375C113.432 26.9375 115.366 25.002 115.366 22.6169C115.366 20.2295 113.432 18.2776 111.045 18.2776C107.986 18.2776 106.916 17.586 104.459 15.1726L50.0497-39.1765C48.3629-40.8797 45.5631-40.9234 43.9268-39.1788C42.2587-37.5543 42.3023-34.7569 43.9268-33.1324L99.2319 22.2186C102.544 25.5719 106.585 26.9375 111.045 26.9375Z"/>
  </g>
  <g id="Bold-M" transform="matrix(1 0 0 1 2272.1 1126)">
   <path d="M96.1202-75.3406C102.45-75.3406 107.616-80.5356 107.616-86.8417C107.616-93.1662 102.45-98.3612 96.1202-98.3612C89.8141-98.3612 84.619-93.1662 84.619-86.8417C84.619-80.5356 89.8141-75.3406 96.1202-75.3406ZM76.405-3.89402C79.6216-3.89402 82.1581-6.43561 82.1581-9.58991L82.1581-33.8337C82.1581-35.3369 81.5791-36.8686 80.5406-37.8733L67.6163-50.7068L79.0893-62.2472C79.6606-62.8184 80.4916-62.847 81.0628-62.2472L89.3059-53.9184C90.3209-52.8462 91.876-52.2958 93.3169-52.2958L117.561-52.2958C120.744-52.2958 123.285-54.7751 123.285-57.9917C123.285-61.1409 120.744-63.7111 117.561-63.7111L95.7002-63.7111L77.825-81.62C75.4547-84.019 72.0172-85.4313 68.637-85.4313L49.6896-85.4313C43.9937-85.4313 42.2854-79.1278 45.8369-75.6049L53.8906-67.5849L47.5323-61.3512C43.0175-56.9272 43.046-49.4243 47.5323-44.9717L56.2791-36.2924L56.2791-8.38785C56.2791-5.29072 58.787-2.69195 61.9985-2.69195C65.1241-2.69195 67.7229-5.29072 67.7229-8.38785L67.7229-34.4417L70.7194-31.4504L70.7194-9.58991C70.7194-6.43561 73.313-3.89402 76.405-3.89402ZM16.2162-60.7886L65.8074-60.7886L65.8074-68.3278L16.2162-68.3278C14.1646-68.3278 12.4609-66.6293 12.4609-64.5439C12.4609-62.4871 14.1646-60.7886 16.2162-60.7886ZM119.445-4.92637C121.502-4.92637 123.205-6.63001 123.205-8.68679L123.205-57.9404L115.661-57.9404L115.661-8.68679C115.661-6.63001 117.365-4.92637 119.445-4.92637ZM95.94 28.1886C98.0254 28.1886 99.7004 26.5136 99.7004 24.4047C99.7004 22.3193 98.0254 20.6443 95.94 20.6443C92.7754 20.6443 91.7449 19.9979 89.1644 17.446L35.5805-36.1094C34.1003-37.5896 31.6823-37.6181 30.2696-36.1146C28.7946-34.6681 28.8231-32.2501 30.2696-30.8322L84.6773 23.6327C87.8986 26.8825 91.7207 28.1886 95.94 28.1886ZM108.958 25.5015C111.043 25.5015 112.713 23.8264 112.713 21.7462C112.713 19.6608 111.043 17.9571 108.958 17.9571C105.793 17.9571 104.762 17.3108 102.182 14.7588L48.5981-38.7679C47.1179-40.2767 44.6948-40.3053 43.2585-38.7731C41.8121-37.3552 41.8407-34.9372 43.2585-33.5193L97.6898 20.9456C100.916 24.1954 104.733 25.5015 108.958 25.5015Z"/>
  </g>
  <g id="Semibold-M" transform="matrix(1 0 0 1 1976.25 1126)">
   <path d="M94.8134-74.8095C100.978-74.8095 106.006-79.8744 106.006-86.0089C106.006-92.1662 100.978-97.2311 94.8134-97.2311C88.6789-97.2311 83.614-92.1662 83.614-86.0089C83.614-79.8744 88.6789-74.8095 94.8134-74.8095ZM75.3851-4.45394C78.4587-4.45394 80.873-6.87531 80.873-9.88664L80.873-33.8684C80.873-35.3157 80.3272-36.7811 79.3342-37.73L66.4097-50.574L77.8972-62.1309C78.5288-62.7625 79.4994-62.7806 80.131-62.1309L88.2985-53.8901C89.2615-52.8718 90.738-52.3442 92.123-52.3442L116.105-52.3442C119.153-52.3442 121.575-54.7032 121.575-57.7769C121.575-60.7811 119.153-63.2395 116.105-63.2395L94.3945-63.2395L76.6472-81.0121C74.3348-83.3615 70.9923-84.7283 67.705-84.7283L48.9584-84.7283C43.5068-84.7283 41.8876-78.7128 45.2838-75.3536L53.395-67.2677L46.9628-60.9602C42.5761-56.6539 42.5943-49.3577 46.9628-45.0333L55.6736-36.392L55.6736-8.6989C55.6736-5.74278 58.0697-3.2662 61.1362-3.2662C64.1105-3.2662 66.5871-5.74278 66.5871-8.6989L66.5871-34.9693L69.9666-31.5969L69.9666-9.88664C69.9666-6.87531 72.4361-4.45394 75.3851-4.45394ZM15.8265-60.9297L64.6162-60.9297L64.6162-67.6979L15.8265-67.6979C13.9935-67.6979 12.4609-66.1725 12.4609-64.2953C12.4609-62.4552 13.9935-60.9297 15.8265-60.9297ZM118.094-5.98493C119.934-5.98493 121.466-7.51745 121.466-9.35761L121.466-57.7058L114.691-57.7058L114.691-9.35761C114.691-7.51745 116.224-5.98493 118.094-5.98493ZM94.6443 27.1803C96.5215 27.1803 98.017 25.6848 98.017 23.7777C98.017 21.9005 96.5215 20.405 94.6443 20.405C91.4069 20.405 90.4037 19.7898 87.7381 17.1424L34.7231-35.8544C33.3854-37.1922 31.229-37.2103 29.9607-35.8615C28.6301-34.5491 28.6482-32.3927 29.9607-31.1173L83.7595 22.7368C86.9199 25.9153 90.5896 27.1803 94.6443 27.1803ZM107.518 24.5115C109.396 24.5115 110.884 23.016 110.884 21.1459C110.884 19.2687 109.396 17.7362 107.518 17.7362C104.281 17.7362 103.278 17.121 100.612 14.4736L47.5973-38.4862C46.2596-39.861 44.0961-39.8791 42.7978-38.4933C41.5043-37.2179 41.5224-35.0615 42.7978-33.7861L96.6266 20.0679C99.7941 23.2465 103.457 24.5115 107.518 24.5115Z"/>
  </g>
  <g id="Medium-M" transform="matrix(1 0 0 1 1680.19 1126)">
   <path d="M93.8225-74.4068C99.8616-74.4068 104.785-79.3731 104.785-85.3774C104.785-91.4079 99.8616-96.3742 93.8225-96.3742C87.8182-96.3742 82.8519-91.4079 82.8519-85.3774C82.8519-79.3731 87.8182-74.4068 93.8225-74.4068ZM74.6117-4.87849C77.5769-4.87849 79.8986-7.20871 79.8986-10.1116L79.8986-33.8948C79.8986-35.2997 79.3779-36.7148 78.4194-37.6213L65.4949-50.4733L76.9933-62.0426C77.6707-62.72 78.7471-62.7303 79.4245-62.0426L87.5346-53.8686C88.4583-52.8912 89.8751-52.3808 91.2177-52.3808L115.001-52.3808C117.947-52.3808 120.277-54.6487 120.277-57.614C120.277-60.5083 117.947-62.8819 115.001-62.8819L93.4044-62.8819L75.7542-80.551C73.4856-82.863 70.2151-84.1953 66.9984-84.1953L48.4039-84.1953C43.1377-84.1953 41.5859-78.3981 44.8643-75.1631L53.0191-67.0272L46.531-60.6637C42.2415-56.4467 42.2518-49.3073 46.531-45.0801L55.2145-36.4675L55.2145-8.93476C55.2145-6.08555 57.5258-3.70163 60.4824-3.70163C63.3419-3.70163 65.7258-6.08555 65.7258-8.93476L65.7258-35.3694L69.3958-31.708L69.3958-10.1116C69.3958-7.20871 71.7711-4.87849 74.6117-4.87849ZM15.531-61.0368L63.713-61.0368L63.713-67.2204L15.531-67.2204C13.8637-67.2204 12.4609-65.8262 12.4609-64.1069C12.4609-62.431 13.8637-61.0368 15.531-61.0368ZM117.069-6.78757C118.745-6.78757 120.148-8.19035 120.148-9.86625L120.148-57.5279L113.956-57.5279L113.956-9.86625C113.956-8.19035 115.359-6.78757 117.069-6.78757ZM93.6618 26.4158C95.3812 26.4158 96.7405 25.0565 96.7405 23.3023C96.7405 21.583 95.3812 20.2236 93.6618 20.2236C90.3693 20.2236 89.3867 19.6321 86.6566 16.9123L34.073-35.6611C32.8433-36.8908 30.8852-36.9011 29.7264-35.6697C28.5053-34.4589 28.5156-32.5008 29.7264-31.3334L83.0636 22.0575C86.1778 25.1819 89.732 26.4158 93.6618 26.4158ZM106.427 23.7608C108.147 23.7608 109.497 22.4015 109.497 20.6908C109.497 18.9714 108.147 17.5687 106.427 17.5687C103.135 17.5687 102.152 16.9771 99.4221 14.2573L46.8385-38.2726C45.6088-39.5458 43.6422-39.5561 42.4485-38.2812C41.2708-37.1138 41.2811-35.1558 42.4485-33.9884L95.8205 19.4025C98.9433 22.5269 102.489 23.7608 106.427 23.7608Z"/>
  </g>
  <g id="Regular-M" transform="matrix(1 0 0 1 1384.32 1126)">
   <path d="M92.5301-73.8815C98.4058-73.8815 103.192-78.7192 103.192-84.5537C103.192-90.4189 98.4058-95.2566 92.5301-95.2566C86.6955-95.2566 81.8579-90.4189 81.8579-84.5537C81.8579-78.7192 86.6955-73.8815 92.5301-73.8815ZM73.603-5.43226C76.4268-5.43226 78.6276-7.64357 78.6276-10.4051L78.6276-33.9291C78.6276-35.2787 78.1397-36.6283 77.2262-37.4795L64.3015-50.3419L75.8143-61.9276C76.5514-62.6647 77.7659-62.6647 78.503-61.9276L86.5383-53.8405C87.4105-52.9165 88.7496-52.4286 90.0369-52.4286L113.561-52.4286C116.374-52.4286 118.586-54.5776 118.586-57.4014C118.586-60.1524 116.374-62.4155 113.561-62.4155L92.113-62.4155L74.5893-79.9497C72.378-82.2128 69.2015-83.5001 66.0767-83.5001L47.6807-83.5001C42.6561-83.5001 41.1925-77.9876 44.3173-74.9146L52.5289-66.7135L45.9678-60.277C41.805-56.1765 41.805-49.2415 45.9678-45.141L54.6156-36.566L54.6156-9.24239C54.6156-6.53264 56.8164-4.26957 59.6297-4.26957C62.3394-4.26957 64.6025-6.53264 64.6025-9.24239L64.6025-35.8912L68.6513-31.853L68.6513-10.4051C68.6513-7.64357 70.9038-5.43226 73.603-5.43226ZM15.1456-61.1764L62.5349-61.1764L62.5349-66.5974L15.1456-66.5974C13.6945-66.5974 12.4609-65.3744 12.4609-63.861C12.4609-62.3994 13.6945-61.1764 15.1456-61.1764ZM115.733-7.83449C117.195-7.83449 118.428-9.06803 118.428-10.5297L118.428-57.2959L112.997-57.2959L112.997-10.5297C112.997-9.06803 114.23-7.83449 115.733-7.83449ZM92.3804 25.4186C93.8938 25.4186 95.0756 24.2369 95.0756 22.6822C95.0756 21.1688 93.8938 19.9871 92.3804 19.9871C89.0159 19.9871 88.0602 19.4263 85.246 16.612L33.225-35.4089C32.1362-36.4977 30.4369-36.4977 29.4209-35.4194C28.3426-34.3412 28.3426-32.6418 29.4209-31.6153L82.1558 21.1714C85.2098 24.2253 88.6134 25.4186 92.3804 25.4186ZM105.004 22.7818C106.518 22.7818 107.689 21.6 107.689 20.0971C107.689 18.5837 106.518 17.3502 105.004 17.3502C101.64 17.3502 100.684 16.7894 97.8697 13.9752L45.8488-37.994C44.7599-39.1346 43.0501-39.1346 41.9929-38.0046C40.9664-36.9781 40.9664-35.2787 41.9929-34.2522L94.769 18.5345C97.8335 21.5884 101.227 22.7818 105.004 22.7818Z"/>
  </g>
  <g id="Light-M" transform="matrix(1 0 0 1 1089.26 1126)">
   <path d="M90.1174-73.0602C95.8221-73.0602 100.488-77.761 100.488-83.4586C100.488-89.1356 95.8221-93.8364 90.1174-93.8364C84.4198-93.8364 79.719-89.1356 79.719-83.4586C79.719-77.761 84.4198-73.0602 90.1174-73.0602ZM71.5155-5.9627C74.2708-5.9627 76.4032-8.12268 76.4032-10.8157L76.4032-33.6896C76.4032-35.005 75.9324-36.3203 75.0531-37.1373L62.4878-49.6404L73.6755-60.918C74.3955-61.638 75.5586-61.638 76.2786-60.918L84.1085-53.0534C84.9808-52.1465 86.2685-51.6757 87.5216-51.6757L110.395-51.6757C113.123-51.6757 115.283-53.7734 115.283-56.5288C115.283-59.1942 113.123-61.3888 110.395-61.3888L89.5293-61.3888L72.4847-78.4611C70.3247-80.6557 67.2508-81.9088 64.2116-81.9088L46.2947-81.9088C41.407-81.9088 39.9947-76.5503 43.0339-73.5457L51.0232-65.5842L44.6332-59.3188C40.5901-55.338 40.5901-48.5742 44.6332-44.5934L53.0585-36.258L53.0585-9.68728C53.0585-7.02886 55.1909-4.83423 57.9186-4.83423C60.577-4.83423 62.7716-7.02886 62.7716-9.68728L62.7716-35.6004L66.7178-31.6819L66.7178-10.8157C66.7178-8.12268 68.8847-5.9627 71.5155-5.9627ZM14.6494-60.8684L60.5842-60.8684L60.5842-65.2799L14.6494-65.2799C13.472-65.2799 12.4609-64.2965 12.4609-63.0568C12.4609-61.8518 13.472-60.8684 14.6494-60.8684ZM112.756-8.72426C113.961-8.72426 114.972-9.73536 114.972-10.9404L114.972-56.2522L110.533-56.2522L110.533-10.9404C110.533-9.73536 111.544-8.72426 112.756-8.72426ZM89.5228 23.7931C90.7625 23.7931 91.7389 22.8167 91.7389 21.57C91.7389 20.3304 90.7625 19.3539 89.5228 19.3539C86.1584 19.3539 85.1685 18.7932 82.3371 15.9618L31.7364-34.6389C30.8015-35.5737 29.4787-35.5737 28.6338-34.6666C27.7266-33.7594 27.7266-32.4365 28.6338-31.564L79.6919 19.5287C82.8485 22.6853 86.0126 23.7931 89.5228 23.7931ZM101.804 21.2247C103.044 21.2247 103.993 20.2482 103.993 19.0362C103.993 17.7966 103.044 16.7855 101.804 16.7855C98.4399 16.7855 97.45 16.2248 94.6186 13.3934L44.0179-37.1727C43.0831-38.1422 41.7325-38.1422 40.8807-37.2004C40.0082-36.3278 40.0082-35.005 40.8807-34.1324L91.9457 16.9603C95.13 20.1169 98.2664 21.2247 101.804 21.2247Z"/>
  </g>
  <g id="Thin-M" transform="matrix(1 0 0 1 794.734 1126)">
   <path d="M86.9265-71.9739C92.4048-71.9739 96.9126-76.4937 96.9126-82.0103C96.9126-87.4383 92.4048-91.958 86.9265-91.958C81.4099-91.958 76.8902-87.4383 76.8902-82.0103C76.8902-76.4937 81.4099-71.9739 86.9265-71.9739ZM68.7545-6.66425C71.4194-6.66425 73.4612-8.75634 73.4612-11.3589L73.4612-33.3728C73.4612-34.6429 73.013-35.913 72.1791-36.6847L60.0889-48.7125L70.8466-59.5828C71.544-60.2802 72.6392-60.2802 73.3366-59.5828L80.895-52.0124C81.7672-51.1281 82.9871-50.68 84.1949-50.68L106.209-50.68C108.823-50.68 110.915-52.7098 110.915-55.3746C110.915-57.9269 108.823-60.031 106.209-60.031L86.1121-60.031L69.7011-76.4922C67.609-78.5963 64.6709-79.8041 61.7449-79.8041L44.4617-79.8041C39.755-79.8041 38.4106-74.6493 41.3367-71.7353L49.0317-64.0906L42.868-58.0515C38.9833-54.2291 38.9833-47.6916 42.868-43.8693L50.9992-35.8507L50.9992-10.2757C50.9992-7.68514 53.041-5.58104 55.6555-5.58104C58.246-5.58104 60.3501-7.68514 60.3501-10.2757L60.3501-35.2156L64.1605-31.4556L64.1605-11.3589C64.1605-8.75634 66.2143-6.66425 68.7545-6.66425ZM13.9931-60.461L58.0043-60.461L58.0043-63.5373L13.9931-63.5373C13.1778-63.5373 12.4609-62.8707 12.4609-61.9932C12.4609-61.1276 13.1778-60.461 13.9931-60.461ZM108.818-9.90105C109.684-9.90105 110.4-10.618 110.4-11.4835L110.4-54.8717L107.274-54.8717L107.274-11.4835C107.274-10.618 107.991-9.90105 108.818-9.90105ZM85.7435 21.6432C86.6211 21.6432 87.326 20.9383 87.326 20.099C87.326 19.2215 86.6211 18.5166 85.7435 18.5166C82.3791 18.5166 81.3439 17.9559 78.4899 15.1019L29.7675-33.6205C29.0364-34.3517 28.2114-34.3517 27.5928-33.6708C26.9119-32.99 26.9119-32.1649 27.5928-31.4961L76.4331 17.3562C79.7254 20.6486 82.5727 21.6432 85.7435 21.6432ZM97.5724 19.1653C98.45 19.1653 99.1046 18.4604 99.1046 17.6331C99.1046 16.7556 98.45 16.0387 97.5724 16.0387C94.208 16.0387 93.1728 15.4779 90.3188 12.6239L41.5964-36.0864C40.8653-36.8296 39.99-36.8296 39.4097-36.1367C38.7408-35.4679 38.7408-34.6429 39.4097-33.974L88.2117 14.8783C91.5544 18.1706 94.3513 19.1653 97.5724 19.1653Z"/>
  </g>
  <g id="Ultralight-M" transform="matrix(1 0 0 1 499.141 1126)">
   <path d="M85.2922-71.4176C90.6546-71.4176 95.0811-75.8446 95.0811-81.2684C95.0811-86.569 90.6546-90.996 85.2922-90.996C79.8683-90.996 75.4413-86.569 75.4413-81.2684C75.4413-75.8446 79.8683-71.4176 85.2922-71.4176ZM67.3404-7.02358C69.9589-7.02358 71.9543-9.08089 71.9543-11.6371L71.9543-33.2105C71.9543-34.4574 71.5178-35.7044 70.707-36.4529L58.8602-48.2373L69.3977-58.899C70.0835-59.5847 71.1439-59.5847 71.8297-58.899L79.249-51.4792C80.1213-50.6065 81.3063-50.17 82.491-50.17L104.064-50.17C106.621-50.17 108.678-52.165 108.678-54.7835C108.678-57.2778 106.621-59.3355 104.064-59.3355L84.3618-59.3355L68.2754-75.4838C66.2181-77.5415 63.3495-78.7261 60.4814-78.7261L43.5228-78.7261C38.9088-78.7261 37.5992-73.6757 40.4673-70.808L48.0116-63.3255L41.9639-57.4024C38.1603-53.6611 38.1603-47.2396 41.9639-43.4983L49.9444-35.642L49.9444-10.577C49.9444-8.02129 51.9398-5.96355 54.4964-5.96355C57.0521-5.96355 59.1099-8.02129 59.1099-10.577L59.1099-35.0186L62.8507-31.3397L62.8507-11.6371C62.8507-9.08089 64.8465-7.02358 67.3404-7.02358ZM13.6569-60.2524L56.6829-60.2524L56.6829-62.6448L13.6569-62.6448C13.0272-62.6448 12.4609-62.1405 12.4609-61.4484C12.4609-60.7567 13.0272-60.2524 13.6569-60.2524ZM106.801-10.5038C107.493-10.5038 108.059-11.07 108.059-11.7617L108.059-54.1646L105.605-54.1646L105.605-11.7617C105.605-11.07 106.171-10.5038 106.801-10.5038ZM83.8078 20.542C84.4999 20.542 85.0657 19.9762 85.0657 19.3456C85.0657 18.6535 84.4999 18.0877 83.8078 18.0877C80.4433 18.0877 79.385 17.527 76.5194 14.6614L28.7591-33.0989C28.1322-33.7258 27.5622-33.7258 27.0596-33.1608C26.4946-32.5959 26.4946-32.0259 27.0596-31.4613L74.7639 16.2434C78.1258 19.6054 80.8108 20.542 83.8078 20.542ZM95.4049 18.1105C96.097 18.1105 96.6009 17.5447 96.6009 16.9145C96.6009 16.2224 96.097 15.6562 95.4049 15.6562C92.0404 15.6562 90.9821 15.0954 88.1165 12.2298L40.3562-35.5301C39.7293-36.1573 39.0974-36.1573 38.6563-35.5919C38.0917-35.0274 38.0917-34.4574 38.6563-33.8929L86.2991 13.8119C89.7229 17.1738 92.346 18.1105 95.4049 18.1105Z"/>
  </g>
  <g id="Black-S" transform="matrix(1 0 0 1 2878.13 696)">
   <path d="M78.5156-67.9688C83.8867-67.9688 88.2812-72.3633 88.2812-77.7344C88.2812-83.1055 83.8867-87.5 78.5156-87.5C73.1445-87.5 68.75-83.1055 68.75-77.7344C68.75-72.3633 73.1445-67.9688 78.5156-67.9688ZM62.3535-9.27734C65.2344-9.27734 67.5293-11.5723 67.5293-14.4043L67.5293-34.0332C67.5293-35.3516 66.9922-36.7188 66.0645-37.6465L55.957-47.6562L64.8926-56.6406C65.1855-56.9336 65.4785-56.9824 65.7715-56.6406L72.4121-49.9023C73.3398-48.9258 74.7559-48.4375 76.0254-48.4375L95.6543-48.4375C98.4863-48.4375 100.781-50.6836 100.781-53.5645C100.781-56.3965 98.4863-58.6914 95.6543-58.6914L78.1738-58.6914L63.8672-73.0469C61.8652-75.0488 58.9355-76.2695 56.0547-76.2695L40.7227-76.2695C35.6445-76.2695 34.082-70.6055 37.2559-67.4316L43.4082-61.3281L38.623-56.6406C34.7656-52.8809 34.8145-46.4844 38.623-42.6758L45.5566-35.791L45.5566-13.4277C45.5566-10.6445 47.8027-8.30078 50.6836-8.30078C53.5156-8.30078 55.8594-10.6445 55.8594-13.4277L55.8594-33.252L57.2266-31.8848L57.2266-14.4043C57.2266-11.5723 59.5703-9.27734 62.3535-9.27734ZM13.6719-54.8828L54.4922-54.8828L54.4922-62.6953L13.6719-62.6953C11.5234-62.6953 9.76562-60.9375 9.76562-58.7891C9.76562-56.6406 11.5234-54.8828 13.6719-54.8828ZM96.875-8.83789C99.0234-8.83789 100.781-10.5957 100.781-12.7441L100.781-53.5645L92.9688-53.5645L92.9688-12.7441C92.9688-10.5957 94.7266-8.83789 96.875-8.83789ZM78.3203 16.9434C80.4688 16.9434 82.2266 15.1855 82.2266 13.0371C82.2266 10.8887 80.4688 9.13086 78.3203 9.13086C76.0254 9.13086 75.1465 8.54492 73.3398 6.78711L29.9805-36.5234C28.4668-38.0371 25.9277-38.0859 24.4629-36.5234C22.9492-35.0586 22.998-32.5195 24.4629-31.0547L68.5547 13.0859C71.2402 15.8203 74.6094 16.9434 78.3203 16.9434ZM88.8672 14.7949C91.0156 14.7949 92.7734 13.0371 92.7734 10.8887C92.7734 8.74023 91.0156 6.98242 88.8672 6.98242C86.5723 6.98242 85.6934 6.39648 83.8867 4.63867L40.5273-38.6719C39.0137-40.1855 36.4746-40.2344 35.0098-38.6719C33.4961-37.207 33.5449-34.668 35.0098-33.2031L79.1016 10.9375C81.7871 13.6719 85.1562 14.7949 88.8672 14.7949Z"/>
  </g>
  <g id="Heavy-S" transform="matrix(1 0 0 1 2582.15 696)">
   <path d="M77.3747-67.4847C82.5845-67.4847 86.8407-71.7525 86.8407-76.9507C86.8407-82.1605 82.5845-86.4282 77.3747-86.4282C72.1765-86.4282 67.9087-82.1605 67.9087-76.9507C67.9087-71.7525 72.1765-67.4847 77.3747-67.4847ZM61.4892-9.83052C64.2202-9.83052 66.3884-11.9987 66.3884-14.6809L66.3884-34.1023C66.3884-35.3631 65.8858-36.6611 65.0042-37.5312L54.8507-47.5986L63.8439-56.6406C64.206-57.0027 64.6603-57.04 65.0224-56.6406L71.6054-49.9715C72.4755-49.0526 73.8109-48.5873 75.0228-48.5873L94.4442-48.5873C97.138-48.5873 99.3061-50.7066 99.3061-53.4377C99.3061-56.1199 97.138-58.2996 94.4442-58.2996L77.056-58.2996L62.83-72.5628C60.8857-74.5187 58.0482-75.6933 55.2595-75.6933L40.0888-75.6933C35.2642-75.6933 33.7939-70.3289 36.8064-67.3279L43.0509-61.1207L38.1621-56.3295C34.4314-52.6849 34.4687-46.4959 38.1621-42.8141L45.0841-35.9408L45.0841-13.7158C45.0841-11.0825 47.215-8.86548 49.946-8.86548C52.6167-8.86548 54.8337-11.0825 54.8337-13.7158L54.8337-33.8743L56.6388-32.0692L56.6388-14.6809C56.6388-11.9987 58.8558-9.83052 61.4892-9.83052ZM13.3031-55.0787L53.4204-55.0787L53.4204-62.1652L13.3031-62.1652C11.3621-62.1652 9.76562-60.5687 9.76562-58.6162C9.76562-56.6752 11.3621-55.0787 13.3031-55.0787ZM95.7571-9.89814C97.6981-9.89814 99.2946-11.4946 99.2946-13.4356L99.2946-53.4377L92.2081-53.4377L92.2081-13.4356C92.2081-11.4946 93.8046-9.89814 95.7571-9.89814ZM77.2485 16.0329C79.2011 16.0329 80.786 14.448 80.786 12.4839C80.786 10.5314 79.2011 8.94647 77.2485 8.94647C74.8729 8.94647 74.0286 8.3951 72.1298 6.53357L29.2199-36.339C27.8445-37.7144 25.5474-37.7517 24.2209-36.339C22.8455-35.001 22.8828-32.7039 24.2209-31.3774L67.8517 12.3023C70.4566 14.9445 73.6874 16.0329 77.2485 16.0329ZM87.6802 13.896C89.6327 13.896 91.2176 12.3111 91.2176 10.3585C91.2176 8.40602 89.6327 6.80955 87.6802 6.80955C85.3046 6.80955 84.4602 6.25819 82.5614 4.39666L39.6515-38.4644C38.2761-39.8513 35.9791-39.8886 34.641-38.4644C33.2771-37.1379 33.3144-34.8408 34.641-33.5143L78.2833 10.1654C80.8882 12.8075 84.119 13.896 87.6802 13.896Z"/>
  </g>
  <g id="Bold-S" transform="matrix(1 0 0 1 2286.27 696)">
   <path d="M76.0986-66.9434C81.1279-66.9434 85.2295-71.0693 85.2295-76.0742C85.2295-81.1035 81.1279-85.2295 76.0986-85.2295C71.0938-85.2295 66.9678-81.1035 66.9678-76.0742C66.9678-71.0693 71.0938-66.9434 76.0986-66.9434ZM60.5225-10.4492C63.0859-10.4492 65.1123-12.4756 65.1123-14.9902L65.1123-34.1797C65.1123-35.376 64.6484-36.5967 63.8184-37.4023L53.6133-47.5342L62.6709-56.6406C63.1104-57.0801 63.7451-57.1045 64.1846-56.6406L70.7031-50.0488C71.5088-49.1943 72.7539-48.7549 73.9014-48.7549L93.0908-48.7549C95.6299-48.7549 97.6562-50.7324 97.6562-53.2959C97.6562-55.8105 95.6299-57.8613 93.0908-57.8613L75.8057-57.8613L61.6699-72.0215C59.79-73.9258 57.0557-75.0488 54.3701-75.0488L39.3799-75.0488C34.8389-75.0488 33.4717-70.0195 36.3037-67.2119L42.6514-60.8887L37.6465-55.9814C34.0576-52.4658 34.082-46.5088 37.6465-42.9688L44.5557-36.1084L44.5557-14.0381C44.5557-11.5723 46.5576-9.49707 49.1211-9.49707C51.6113-9.49707 53.6865-11.5723 53.6865-14.0381L53.6865-34.5703L55.9814-32.2754L55.9814-14.9902C55.9814-12.4756 58.0566-10.4492 60.5225-10.4492ZM12.8906-55.2979L52.2217-55.2979L52.2217-61.5723L12.8906-61.5723C11.1816-61.5723 9.76562-60.1562 9.76562-58.4229C9.76562-56.7139 11.1816-55.2979 12.8906-55.2979ZM94.5068-11.084C96.2158-11.084 97.6318-12.5 97.6318-14.209L97.6318-53.2959L91.3574-53.2959L91.3574-14.209C91.3574-12.5 92.7734-11.084 94.5068-11.084ZM76.0498 15.0146C77.7832 15.0146 79.1748 13.623 79.1748 11.8652C79.1748 10.1318 77.7832 8.74023 76.0498 8.74023C73.584 8.74023 72.7783 8.22754 70.7764 6.25L28.3691-36.1328C27.1484-37.3535 25.1221-37.3779 23.9502-36.1328C22.7295-34.9365 22.7539-32.9102 23.9502-31.7383L67.0654 11.4258C69.5801 13.9648 72.6562 15.0146 76.0498 15.0146ZM86.3525 12.8906C88.0859 12.8906 89.4775 11.499 89.4775 9.76562C89.4775 8.03223 88.0859 6.61621 86.3525 6.61621C83.8867 6.61621 83.0811 6.10352 81.0791 4.12598L38.6719-38.2324C37.4512-39.4775 35.4248-39.502 34.2285-38.2324C33.0322-37.0605 33.0566-35.0342 34.2285-33.8623L77.3682 9.30176C79.8828 11.8408 82.959 12.8906 86.3525 12.8906Z"/>
  </g>
  <g id="Semibold-S" transform="matrix(1 0 0 1 1990.12 696)">
   <path d="M75.2188-66.5701C80.1237-66.5701 84.1187-70.5983 84.1187-75.4699C84.1187-80.3748 80.1237-84.403 75.2188-84.403C70.3473-84.403 66.319-80.3748 66.319-75.4699C66.319-70.5983 70.3473-66.5701 75.2188-66.5701ZM59.856-10.8758C62.3039-10.8758 64.2325-12.8044 64.2325-15.2035L64.2325-34.233C64.2325-35.3849 63.7953-36.5522 63.0008-37.3135L52.7602-47.4897L61.8622-56.6406C62.355-57.1334 63.1142-57.1489 63.6069-56.6406L70.0811-50.1021C70.8423-49.2921 72.0252-48.8704 73.1282-48.8704L92.1577-48.8704C94.5901-48.8704 96.5187-50.7502 96.5187-53.1981C96.5187-55.5973 94.5901-57.5592 92.1577-57.5592L74.9437-57.5592L60.8701-71.6482C59.0347-73.517 56.3714-74.6045 53.7569-74.6045L38.8911-74.6045C34.5456-74.6045 33.2495-69.8063 35.9571-67.1319L42.3759-60.7287L37.291-55.7415C33.7999-52.3147 33.8154-46.5177 37.291-43.0754L44.1913-36.2239L44.1913-14.2603C44.1913-11.91 46.1044-9.93252 48.5523-9.93252C50.9182-9.93252 52.8956-11.91 52.8956-14.2603L52.8956-35.0502L55.5282-32.4176L55.5282-15.2035C55.5282-12.8044 57.5057-10.8758 59.856-10.8758ZM12.6062-55.4489L51.3952-55.4489L51.3952-61.1635L12.6062-61.1635C11.0572-61.1635 9.76562-59.8719 9.76562-58.2896C9.76562-56.7405 11.0572-55.4489 12.6062-55.4489ZM93.6448-11.9016C95.1938-11.9016 96.4854-13.1932 96.4854-14.7422L96.4854-53.1981L90.7709-53.1981L90.7709-14.7422C90.7709-13.1932 92.0625-11.9016 93.6448-11.9016ZM75.2233 14.3126C76.8057 14.3126 78.064 13.0543 78.064 11.4387C78.064 9.85635 76.8057 8.59805 75.2233 8.59805C72.6953 8.59805 71.9163 8.11201 69.8433 6.05449L27.7826-35.9906C26.6686-37.1047 24.8288-37.1202 23.7636-35.9906C22.6495-34.8921 22.665-33.0523 23.7636-31.9871L66.5233 10.8215C68.9758 13.2895 71.9453 14.3126 75.2233 14.3126ZM85.4372 12.1975C87.0195 12.1975 88.2778 10.9392 88.2778 9.35684C88.2778 7.77451 87.0195 6.48291 85.4372 6.48291C82.9092 6.48291 82.1302 5.99688 80.0571 3.93936L37.9965-38.0725C36.8824-39.2198 35.0427-39.2354 33.9441-38.0725C32.8634-37.0072 32.8789-35.1675 33.9441-34.1022L76.7372 8.70635C79.1896 11.1743 82.1592 12.1975 85.4372 12.1975Z"/>
  </g>
  <g id="Medium-S" transform="matrix(1 0 0 1 1693.84 696)">
   <path d="M74.5518-66.2871C79.3623-66.2871 83.2764-70.2412 83.2764-75.0117C83.2764-79.8223 79.3623-83.7764 74.5518-83.7764C69.7812-83.7764 65.8271-79.8223 65.8271-75.0117C65.8271-70.2412 69.7812-66.2871 74.5518-66.2871ZM59.3506-11.1992C61.7109-11.1992 63.5654-13.0537 63.5654-15.3652L63.5654-34.2734C63.5654-35.3916 63.1484-36.5186 62.3809-37.2461L52.1133-47.4561L61.249-56.6406C61.7822-57.1738 62.6357-57.1826 63.1689-56.6406L69.6094-50.1426C70.3369-49.3662 71.4727-48.958 72.542-48.958L91.4502-48.958C93.8018-48.958 95.6562-50.7637 95.6562-53.124C95.6562-55.4355 93.8018-57.3301 91.4502-57.3301L74.29-57.3301L60.2637-71.3652C58.4619-73.207 55.8525-74.2676 53.292-74.2676L38.5205-74.2676C34.3232-74.2676 33.0811-69.6445 35.6943-67.0713L42.167-60.6074L37.0215-55.5596C33.6045-52.2002 33.6133-46.5244 37.0215-43.1562L43.915-36.3115L43.915-14.4287C43.915-12.166 45.7607-10.2627 48.1211-10.2627C50.3926-10.2627 52.2959-12.166 52.2959-14.4287L52.2959-35.4141L55.1846-32.5254L55.1846-15.3652C55.1846-13.0537 57.0879-11.1992 59.3506-11.1992ZM12.3906-55.5635L50.7686-55.5635L50.7686-60.8535L12.3906-60.8535C10.9629-60.8535 9.76562-59.6562 9.76562-58.1885C9.76562-56.7607 10.9629-55.5635 12.3906-55.5635ZM92.9912-12.5215C94.4189-12.5215 95.6162-13.7188 95.6162-15.1465L95.6162-53.124L90.3262-53.124L90.3262-15.1465C90.3262-13.7188 91.5234-12.5215 92.9912-12.5215ZM74.5967 13.7803C76.0645 13.7803 77.2217 12.623 77.2217 11.1152C77.2217 9.64746 76.0645 8.49023 74.5967 8.49023C72.0215 8.49023 71.2627 8.02441 69.1357 5.90625L27.3379-35.8828C26.3047-36.916 24.6064-36.9248 23.6221-35.8828C22.5889-34.8584 22.5977-33.1602 23.6221-32.1758L66.1123 10.3633C68.5176 12.7773 71.4062 13.7803 74.5967 13.7803ZM84.7432 11.6719C86.2109 11.6719 87.3682 10.5146 87.3682 9.04688C87.3682 7.5791 86.2109 6.38184 84.7432 6.38184C82.168 6.38184 81.4092 5.91602 79.2822 3.79785L37.4844-37.9512C36.4512-39.0244 34.7529-39.0332 33.7285-37.9512C32.7354-36.9668 32.7441-35.2686 33.7285-34.2842L76.2588 8.25488C78.6641 10.6689 81.5527 11.6719 84.7432 11.6719Z"/>
  </g>
  <g id="Regular-S" transform="matrix(1 0 0 1 1397.7 696)">
   <path d="M73.6816-65.918C78.3691-65.918 82.1777-69.7754 82.1777-74.4141C82.1777-79.1016 78.3691-82.959 73.6816-82.959C69.043-82.959 65.1855-79.1016 65.1855-74.4141C65.1855-69.7754 69.043-65.918 73.6816-65.918ZM58.6914-11.6211C60.9375-11.6211 62.6953-13.3789 62.6953-15.5762L62.6953-34.3262C62.6953-35.4004 62.3047-36.4746 61.5723-37.1582L51.2695-47.4121L60.4492-56.6406C61.0352-57.2266 62.0117-57.2266 62.5977-56.6406L68.9941-50.1953C69.6777-49.4629 70.752-49.0723 71.7773-49.0723L90.5273-49.0723C92.7734-49.0723 94.5312-50.7812 94.5312-53.0273C94.5312-55.2246 92.7734-57.0312 90.5273-57.0312L73.4375-57.0312L59.4727-70.9961C57.7148-72.8027 55.1758-73.8281 52.6855-73.8281L38.0371-73.8281C34.0332-73.8281 32.8613-69.4336 35.3516-66.9922L41.8945-60.4492L36.6699-55.3223C33.3496-52.0508 33.3496-46.5332 36.6699-43.2617L43.5547-36.4258L43.5547-14.6484C43.5547-12.5 45.3125-10.6934 47.5586-10.6934C49.707-10.6934 51.5137-12.5 51.5137-14.6484L51.5137-35.8887L54.7363-32.666L54.7363-15.5762C54.7363-13.3789 56.543-11.6211 58.6914-11.6211ZM12.1094-55.7129L49.9512-55.7129L49.9512-60.4492L12.1094-60.4492C10.8398-60.4492 9.76562-59.375 9.76562-58.0566C9.76562-56.7871 10.8398-55.7129 12.1094-55.7129ZM92.1387-13.3301C93.4082-13.3301 94.4824-14.4043 94.4824-15.6738L94.4824-53.0273L89.7461-53.0273L89.7461-15.6738C89.7461-14.4043 90.8203-13.3301 92.1387-13.3301ZM73.7793 13.0859C75.0977 13.0859 76.123 12.0605 76.123 10.6934C76.123 9.375 75.0977 8.34961 73.7793 8.34961C71.1426 8.34961 70.4102 7.91016 68.2129 5.71289L26.7578-35.7422C25.8301-36.6699 24.3164-36.6699 23.4375-35.7422C22.5098-34.8145 22.5098-33.3008 23.4375-32.4219L65.5762 9.76562C67.9199 12.1094 70.7031 13.0859 73.7793 13.0859ZM83.8379 10.9863C85.1562 10.9863 86.1816 9.96094 86.1816 8.64258C86.1816 7.32422 85.1562 6.25 83.8379 6.25C81.2012 6.25 80.4688 5.81055 78.2715 3.61328L36.8164-37.793C35.8887-38.7695 34.375-38.7695 33.4473-37.793C32.5684-36.9141 32.5684-35.4004 33.4473-34.5215L75.6348 7.66602C77.9785 10.0098 80.7617 10.9863 83.8379 10.9863Z"/>
  </g>
  <g id="Light-S" transform="matrix(1 0 0 1 1102.45 696)">
   <path d="M71.5474-65.1914C76.0835-65.1914 79.7862-68.9277 79.7862-73.4453C79.7862-77.9663 76.0835-81.7026 71.5474-81.7026C67.0298-81.7026 63.2935-77.9663 63.2935-73.4453C63.2935-68.9277 67.0298-65.1914 71.5474-65.1914ZM56.8447-12.0903C59.0303-12.0903 60.7276-13.8027 60.7276-15.9395L60.7276-34.1143C60.7276-35.1582 60.3521-36.2022 59.6499-36.8555L49.6651-46.7915L58.5571-55.7476C59.1279-56.3184 60.0591-56.3184 60.6299-55.7476L66.8447-49.499C67.5283-48.7817 68.5571-48.4063 69.5523-48.4063L87.7271-48.4063C89.8975-48.4063 91.6099-50.0698 91.6099-52.2554C91.6099-54.377 89.8975-56.1231 87.7271-56.1231L71.1519-56.1231L57.6109-69.6792C55.8985-71.4253 53.4502-72.4204 51.0357-72.4204L36.811-72.4204C32.9282-72.4204 31.8018-68.1621 34.2163-65.7813L40.5625-59.4502L35.4893-54.4746C32.2749-51.3091 32.2749-45.9429 35.4893-42.7773L42.1773-36.1533L42.1773-15.042C42.1773-12.939 43.8745-11.1929 46.0449-11.1929C48.148-11.1929 49.8941-12.939 49.8941-15.042L49.8941-35.6313L53.0259-32.5146L53.0259-15.9395C53.0259-13.8027 54.7569-12.0903 56.8447-12.0903ZM11.6704-55.4404L48.2256-55.4404L48.2256-59.2837L11.6704-59.2837C10.6431-59.2837 9.76562-58.4214 9.76562-57.3452C9.76562-56.3027 10.6431-55.4404 11.6704-55.4404ZM89.5049-14.1172C90.5474-14.1172 91.4248-14.9946 91.4248-16.0371L91.4248-52.104L87.5664-52.104L87.5664-16.0371C87.5664-14.9946 88.4439-14.1172 89.5049-14.1172ZM71.2515 11.648C72.3277 11.648 73.1714 10.8042 73.1714 9.70948C73.1714 8.63331 72.3277 7.78956 71.2515 7.78956C68.6148 7.78956 67.8521 7.3501 65.6397 5.1377L25.4409-35.061C24.6494-35.8525 23.4688-35.8525 22.7412-35.0762C21.9648-34.2998 21.9648-33.1191 22.7412-32.3765L63.3965 8.31251C65.8311 10.7471 68.4024 11.648 71.2515 11.648ZM81.0073 9.6089C82.0835 9.6089 82.9121 8.76515 82.9121 7.70411C82.9121 6.62794 82.0835 5.75049 81.0073 5.75049C78.3706 5.75049 77.6079 5.31104 75.3955 3.09864L35.1968-37.0664C34.4053-37.8916 33.2095-37.8916 32.4634-37.0815C31.7207-36.3389 31.7207-35.1582 32.4634-34.4155L73.1372 6.27345C75.5869 8.70802 78.1431 9.6089 81.0073 9.6089Z"/>
  </g>
  <g id="Thin-S" transform="matrix(1 0 0 1 807.666 696)">
   <path d="M68.7246-64.2305C73.0606-64.2305 76.6231-67.8067 76.6231-72.1641C76.6231-76.4649 73.0606-80.041 68.7246-80.041C64.3672-80.041 60.7911-76.4649 60.7911-72.1641C60.7911-67.8067 64.3672-64.2305 68.7246-64.2305ZM54.4024-12.7109C56.5078-12.7109 58.125-14.3633 58.125-16.4199L58.125-33.834C58.125-34.8379 57.7696-35.8418 57.1075-36.4551L47.543-45.9707L56.0547-54.5664C56.6055-55.1172 57.4766-55.1172 58.0274-54.5664L64.002-48.5781C64.6856-47.8809 65.6543-47.5254 66.6094-47.5254L84.0235-47.5254C86.0938-47.5254 87.7461-49.1289 87.7461-51.2344C87.7461-53.2559 86.0938-54.9219 84.0235-54.9219L68.1289-54.9219L55.1485-67.9375C53.4961-69.6035 51.168-70.5586 48.8535-70.5586L35.1895-70.5586C31.4668-70.5586 30.4004-66.4805 32.7149-64.1797L38.8008-58.1289L33.9278-53.3535C30.8535-50.3281 30.8535-45.1621 33.9278-42.1367L40.3555-35.793L40.3555-15.5625C40.3555-13.5195 41.9727-11.8535 44.043-11.8535C46.086-11.8535 47.752-13.5195 47.752-15.5625L47.752-35.291L50.7637-32.3145L50.7637-16.4199C50.7637-14.3633 52.3946-12.7109 54.4024-12.7109ZM11.0899-55.0801L45.9434-55.0801L45.9434-57.7422L11.0899-57.7422C10.3828-57.7422 9.76562-57.1602 9.76562-56.4043C9.76562-55.6621 10.3828-55.0801 11.0899-55.0801ZM86.0215-15.1582C86.7637-15.1582 87.3809-15.7754 87.3809-16.5176L87.3809-50.8828L84.6836-50.8828L84.6836-16.5176C84.6836-15.7754 85.3008-15.1582 86.0215-15.1582ZM67.9082 9.74612C68.6641 9.74612 69.2676 9.1426 69.2676 8.40822C69.2676 7.65236 68.6641 7.04884 67.9082 7.04884C65.2715 7.04884 64.4688 6.60939 62.2364 4.37696L23.6992-34.1602C23.0879-34.7715 22.3477-34.7715 21.8203-34.1953C21.2442-33.6192 21.2442-32.8789 21.8203-32.3164L60.5137 6.39065C63.0684 8.94534 65.3594 9.74612 67.9082 9.74612ZM77.2637 7.78713C78.0196 7.78713 78.588 7.18362 78.588 6.46291C78.588 5.70704 78.0196 5.08985 77.2637 5.08985C74.627 5.08985 73.8243 4.6504 71.5918 2.41798L33.0547-36.1055C32.4434-36.7305 31.668-36.7305 31.1621-36.1406C30.5996-35.5781 30.5996-34.8379 31.1621-34.2754L69.834 4.43167C72.4239 6.98635 74.6797 7.78713 77.2637 7.78713Z"/>
  </g>
  <g id="Ultralight-S" transform="matrix(1 0 0 1 511.945 696)">
   <path d="M67.2789-63.7383C71.5123-63.7383 75.003-67.2324 75.003-71.5078C75.003-75.6958 71.5123-79.19 67.2789-79.19C63.0035-79.19 59.5093-75.6958 59.5093-71.5078C59.5093-67.2324 63.0035-63.7383 67.2789-63.7383ZM53.1514-13.0288C55.2159-13.0288 56.792-14.6504 56.792-16.666L56.792-33.6904C56.792-34.6738 56.4468-35.6572 55.8052-36.25L46.4561-45.5503L54.773-53.9614C55.3135-54.502 56.1539-54.502 56.6944-53.9614L62.5459-48.1065C63.2295-47.4194 64.1675-47.0742 65.1021-47.0742L82.1265-47.0742C84.1456-47.0742 85.7672-48.647 85.7672-50.7114C85.7672-52.6817 84.1456-54.3067 82.1265-54.3067L66.5806-54.3067L53.8873-67.0454C52.2657-68.6704 49.9991-69.605 47.7359-69.605L34.3589-69.605C30.7183-69.605 29.6826-65.6192 31.9458-63.3594L37.8985-57.4522L33.128-52.7793C30.1255-49.8257 30.1255-44.7622 33.128-41.8086L39.4224-35.6084L39.4224-15.8291C39.4224-13.8169 40.9986-12.1919 43.0176-12.1919C45.0298-12.1919 46.6548-13.8169 46.6548-15.8291L46.6548-35.1167L49.605-32.2119L49.605-16.666C49.605-14.6504 51.1846-13.0288 53.1514-13.0288ZM10.7925-54.8955L44.7745-54.8955L44.7745-56.9527L10.7925-56.9527C10.2495-56.9527 9.76562-56.5142 9.76562-55.9224C9.76562-55.334 10.2495-54.8955 10.7925-54.8955ZM84.2374-15.6914C84.8258-15.6914 85.3096-16.1753 85.3096-16.7637L85.3096-50.2573L83.2071-50.2573L83.2071-16.7637C83.2071-16.1753 83.691-15.6914 84.2374-15.6914ZM66.1959 8.77201C66.7877 8.77201 67.2681 8.29153 67.2681 7.74172C67.2681 7.14992 66.7877 6.66945 66.1959 6.66945C63.5591 6.66945 62.7359 6.22999 60.4932 3.98732L22.8072-33.6987C22.2881-34.2178 21.7735-34.2178 21.3486-33.7442C20.875-33.2705 20.875-32.7559 21.3486-32.2856L59.0372 5.40628C61.6534 8.02249 63.8008 8.77201 66.1959 8.77201ZM75.3463 6.85404C75.9381 6.85404 76.3731 6.37356 76.3731 5.82717C76.3731 5.23537 75.9381 4.75148 75.3463 4.75148C72.7095 4.75148 71.8863 4.31202 69.6436 2.06935L31.9576-35.6133C31.4385-36.1358 30.8784-36.1358 30.4956-35.6587C30.0254-35.1885 30.0254-34.6738 30.4956-34.2036L68.1421 3.48831C70.8038 6.10452 72.9058 6.85404 75.3463 6.85404Z"/>
  </g>
 </g>
</svg>
