<?xml version="1.0" encoding="UTF-8"?>
<!--Generator: Apple Native CoreSVG 175.5-->
<!DOCTYPE svg
PUBLIC "-//W3C//DTD SVG 1.1//EN"
       "http://www.w3.org/Graphics/SVG/1.1/DTD/svg11.dtd">
<svg version="1.1" xmlns="http://www.w3.org/2000/svg" xmlns:xlink="http://www.w3.org/1999/xlink" width="3300" height="2200">
 <!--glyph: "uni101535.medium", point size: 100.0, font version: "18.0d12e2", template writer version: "101"-->
 <g id="Notes">
  <rect height="2200" id="artboard" style="fill:white;opacity:1" width="3300" x="0" y="0"/>
  <line style="fill:none;stroke:black;opacity:1;stroke-width:0.5;" x1="263" x2="3036" y1="292" y2="292"/>
  <text style="stroke:none;fill:black;font-family:sans-serif;font-size:13;font-weight:bold;" transform="matrix(1 0 0 1 263 322)">Weight/Scale Variations</text>
  <text style="stroke:none;fill:black;font-family:sans-serif;font-size:13;text-anchor:middle;" transform="matrix(1 0 0 1 559.711 322)">Ultralight</text>
  <text style="stroke:none;fill:black;font-family:sans-serif;font-size:13;text-anchor:middle;" transform="matrix(1 0 0 1 856.422 322)">Thin</text>
  <text style="stroke:none;fill:black;font-family:sans-serif;font-size:13;text-anchor:middle;" transform="matrix(1 0 0 1 1153.13 322)">Light</text>
  <text style="stroke:none;fill:black;font-family:sans-serif;font-size:13;text-anchor:middle;" transform="matrix(1 0 0 1 1449.84 322)">Regular</text>
  <text style="stroke:none;fill:black;font-family:sans-serif;font-size:13;text-anchor:middle;" transform="matrix(1 0 0 1 1746.56 322)">Medium</text>
  <text style="stroke:none;fill:black;font-family:sans-serif;font-size:13;text-anchor:middle;" transform="matrix(1 0 0 1 2043.27 322)">Semibold</text>
  <text style="stroke:none;fill:black;font-family:sans-serif;font-size:13;text-anchor:middle;" transform="matrix(1 0 0 1 2339.98 322)">Bold</text>
  <text style="stroke:none;fill:black;font-family:sans-serif;font-size:13;text-anchor:middle;" transform="matrix(1 0 0 1 2636.69 322)">Heavy</text>
  <text style="stroke:none;fill:black;font-family:sans-serif;font-size:13;text-anchor:middle;" transform="matrix(1 0 0 1 2933.4 322)">Black</text>
  <line style="fill:none;stroke:black;opacity:1;stroke-width:0.5;" x1="263" x2="3036" y1="1903" y2="1903"/>
  <g transform="matrix(1 0 0 1 263 1933)">
   <path d="M9.24805 0.830078C13.5547 0.830078 17.1387-2.74414 17.1387-7.05078C17.1387-11.3574 13.5449-14.9316 9.23828-14.9316C4.94141-14.9316 1.36719-11.3574 1.36719-7.05078C1.36719-2.74414 4.95117 0.830078 9.24805 0.830078ZM9.24805-0.654297C5.70312-0.654297 2.87109-3.49609 2.87109-7.05078C2.87109-10.6055 5.69336-13.4473 9.23828-13.4473C12.793-13.4473 15.6445-10.6055 15.6445-7.05078C15.6445-3.49609 12.8027-0.654297 9.24805-0.654297ZM5.6543-7.05078C5.6543-6.62109 5.95703-6.32812 6.40625-6.32812L8.50586-6.32812L8.50586-4.20898C8.50586-3.76953 8.79883-3.4668 9.22852-3.4668C9.67773-3.4668 9.9707-3.76953 9.9707-4.20898L9.9707-6.32812L12.0898-6.32812C12.5293-6.32812 12.832-6.62109 12.832-7.05078C12.832-7.49023 12.5293-7.79297 12.0898-7.79297L9.9707-7.79297L9.9707-9.90234C9.9707-10.3516 9.67773-10.6543 9.22852-10.6543C8.79883-10.6543 8.50586-10.3516 8.50586-9.90234L8.50586-7.79297L6.40625-7.79297C5.95703-7.79297 5.6543-7.49023 5.6543-7.05078Z"/>
  </g>
  <g transform="matrix(1 0 0 1 281.867 1933)">
   <path d="M11.709 2.91016C17.1582 2.91016 21.6699-1.61133 21.6699-7.05078C21.6699-12.5 17.1484-17.0117 11.6992-17.0117C6.25977-17.0117 1.74805-12.5 1.74805-7.05078C1.74805-1.61133 6.26953 2.91016 11.709 2.91016ZM11.709 1.25C7.09961 1.25 3.41797-2.44141 3.41797-7.05078C3.41797-11.6602 7.08984-15.3516 11.6992-15.3516C16.3086-15.3516 20.0098-11.6602 20.0098-7.05078C20.0098-2.44141 16.3184 1.25 11.709 1.25ZM7.17773-7.05078C7.17773-6.57227 7.50977-6.25 8.00781-6.25L10.8789-6.25L10.8789-3.36914C10.8789-2.88086 11.2109-2.53906 11.6895-2.53906C12.1777-2.53906 12.5195-2.87109 12.5195-3.36914L12.5195-6.25L15.4004-6.25C15.8887-6.25 16.2305-6.57227 16.2305-7.05078C16.2305-7.53906 15.8887-7.88086 15.4004-7.88086L12.5195-7.88086L12.5195-10.752C12.5195-11.25 12.1777-11.5918 11.6895-11.5918C11.2109-11.5918 10.8789-11.25 10.8789-10.752L10.8789-7.88086L8.00781-7.88086C7.50977-7.88086 7.17773-7.53906 7.17773-7.05078Z"/>
  </g>
  <g transform="matrix(1 0 0 1 305.646 1933)">
   <path d="M14.9707 5.66406C21.9336 5.66406 27.6953-0.0976562 27.6953-7.05078C27.6953-14.0137 21.9238-19.7754 14.9609-19.7754C8.00781-19.7754 2.25586-14.0137 2.25586-7.05078C2.25586-0.0976562 8.01758 5.66406 14.9707 5.66406ZM14.9707 3.84766C8.93555 3.84766 4.08203-1.01562 4.08203-7.05078C4.08203-13.0957 8.92578-17.9492 14.9609-17.9492C21.0059-17.9492 25.8691-13.0957 25.8691-7.05078C25.8691-1.01562 21.0156 3.84766 14.9707 3.84766ZM9.19922-7.05078C9.19922-6.5332 9.57031-6.17188 10.1172-6.17188L14.0625-6.17188L14.0625-2.2168C14.0625-1.67969 14.4336-1.29883 14.9512-1.29883C15.4883-1.29883 15.8594-1.66992 15.8594-2.2168L15.8594-6.17188L19.8145-6.17188C20.3516-6.17188 20.7324-6.5332 20.7324-7.05078C20.7324-7.59766 20.3613-7.96875 19.8145-7.96875L15.8594-7.96875L15.8594-11.9141C15.8594-12.4609 15.4883-12.8418 14.9512-12.8418C14.4336-12.8418 14.0625-12.4609 14.0625-11.9141L14.0625-7.96875L10.1172-7.96875C9.57031-7.96875 9.19922-7.59766 9.19922-7.05078Z"/>
  </g>
  <text style="stroke:none;fill:black;font-family:sans-serif;font-size:13;font-weight:bold;" transform="matrix(1 0 0 1 263 1953)">Design Variations</text>
  <text style="stroke:none;fill:black;font-family:sans-serif;font-size:13;" transform="matrix(1 0 0 1 263 1971)">Symbols are supported in up to nine weights and three scales.</text>
  <text style="stroke:none;fill:black;font-family:sans-serif;font-size:13;" transform="matrix(1 0 0 1 263 1989)">For optimal layout with text and other symbols, vertically align</text>
  <text style="stroke:none;fill:black;font-family:sans-serif;font-size:13;" transform="matrix(1 0 0 1 263 2007)">symbols with the adjacent text.</text>
  <line style="fill:none;stroke:#00AEEF;stroke-width:0.5;opacity:1.0;" x1="776" x2="776" y1="1919" y2="1933"/>
  <g transform="matrix(1 0 0 1 776 1933)">
   <path d="M3.31055 0.15625C3.82812 0.15625 4.08203-0.0390625 4.26758-0.585938L5.52734-4.0332L11.2891-4.0332L12.5488-0.585938C12.7344-0.0390625 12.9883 0.15625 13.4961 0.15625C14.0137 0.15625 14.3457-0.15625 14.3457-0.644531C14.3457-0.810547 14.3164-0.966797 14.2383-1.17188L9.6582-13.3691C9.43359-13.9648 9.0332-14.2676 8.4082-14.2676C7.80273-14.2676 7.39258-13.9746 7.17773-13.3789L2.59766-1.16211C2.51953-0.957031 2.49023-0.800781 2.49023-0.634766C2.49023-0.146484 2.80273 0.15625 3.31055 0.15625ZM6.00586-5.51758L8.37891-12.0898L8.42773-12.0898L10.8008-5.51758Z"/>
  </g>
  <line style="fill:none;stroke:#00AEEF;stroke-width:0.5;opacity:1.0;" x1="793.197" x2="793.197" y1="1919" y2="1933"/>
  <text style="stroke:none;fill:black;font-family:sans-serif;font-size:13;font-weight:bold;" transform="matrix(1 0 0 1 776 1953)">Margins</text>
  <text style="stroke:none;fill:black;font-family:sans-serif;font-size:13;" transform="matrix(1 0 0 1 776 1971)">Leading and trailing margins on the left and right side of each symbol</text>
  <text style="stroke:none;fill:black;font-family:sans-serif;font-size:13;" transform="matrix(1 0 0 1 776 1989)">can be adjusted by modifying the x-location of the margin guidelines.</text>
  <text style="stroke:none;fill:black;font-family:sans-serif;font-size:13;" transform="matrix(1 0 0 1 776 2007)">Modifications are automatically applied proportionally to all</text>
  <text style="stroke:none;fill:black;font-family:sans-serif;font-size:13;" transform="matrix(1 0 0 1 776 2025)">scales and weights.</text>
  <g transform="matrix(1 0 0 1 1289 1933)">
   <path d="M2.8418 1.86523L4.54102 3.57422C5.40039 4.44336 6.38672 4.38477 7.31445 3.35938L18.0078-8.42773L17.041-9.4043L6.42578 2.27539C6.07422 2.67578 5.74219 2.77344 5.27344 2.30469L4.10156 1.14258C3.63281 0.683594 3.74023 0.341797 4.14062-0.0195312L15.6152-10.8203L14.6387-11.7871L3.04688-0.898438C2.06055 0.0195312 1.98242 0.996094 2.8418 1.86523ZM9.25781-16.3281C8.83789-15.918 8.80859-15.3418 9.04297-14.9512C9.27734-14.5898 9.73633-14.3555 10.3809-14.5215C11.8457-14.8633 13.3691-14.9219 14.7949-13.9844L14.209-12.5293C13.8672-11.6992 14.043-11.1133 14.5801-10.5664L16.875-8.25195C17.3633-7.76367 17.7734-7.74414 18.3398-7.8418L19.4043-8.03711L20.0684-7.36328L20.0293-6.80664C19.9902-6.30859 20.1172-5.92773 20.6055-5.44922L21.3672-4.70703C21.8457-4.22852 22.4609-4.19922 22.9297-4.66797L25.8398-7.58789C26.3086-8.05664 26.2891-8.65234 25.8105-9.13086L25.0391-9.89258C24.5605-10.3711 24.1895-10.5273 23.7109-10.4883L23.1348-10.4395L22.4902-11.0742L22.7344-12.1973C22.8613-12.7637 22.7051-13.2031 22.1191-13.7891L19.9219-15.9766C16.582-19.2969 12.1484-19.2188 9.25781-16.3281ZM10.752-15.957C13.1836-17.7344 16.4746-17.4316 18.7012-15.2051L21.1328-12.793C21.3672-12.5586 21.4062-12.373 21.3379-12.0312L21.0156-10.5469L22.5195-9.0625L23.5059-9.12109C23.7598-9.13086 23.8379-9.11133 24.0332-8.91602L24.6094-8.33984L22.168-5.89844L21.5918-6.47461C21.3965-6.66992 21.3672-6.74805 21.377-7.01172L21.4453-7.98828L19.9512-9.47266L18.4277-9.21875C18.1055-9.15039 17.959-9.17969 17.7148-9.41406L15.7129-11.416C15.459-11.6504 15.4297-11.8164 15.5859-12.1875L16.4648-14.2773C14.9023-15.7324 12.8711-16.3574 10.8398-15.7617C10.6836-15.7227 10.625-15.8496 10.752-15.957Z"/>
  </g>
  <text style="stroke:none;fill:black;font-family:sans-serif;font-size:13;font-weight:bold;" transform="matrix(1 0 0 1 1289 1953)">Exporting</text>
  <text style="stroke:none;fill:black;font-family:sans-serif;font-size:13;" transform="matrix(1 0 0 1 1289 1971)">Symbols should be outlined when exporting to ensure the</text>
  <text style="stroke:none;fill:black;font-family:sans-serif;font-size:13;" transform="matrix(1 0 0 1 1289 1989)">design is preserved when submitting to Xcode.</text>
  <text id="template-version" style="stroke:none;fill:black;font-family:sans-serif;font-size:13;text-anchor:end;" transform="matrix(1 0 0 1 3036 1933)">Template v.4.0</text>
  <text style="stroke:none;fill:black;font-family:sans-serif;font-size:13;text-anchor:end;" transform="matrix(1 0 0 1 3036 1951)">Requires Xcode 14 or greater</text>
  <text id="descriptive-name" style="stroke:none;fill:black;font-family:sans-serif;font-size:13;text-anchor:end;" transform="matrix(1 0 0 1 3036 1969)">Generated from figure.mixed.cardio</text>
  <text style="stroke:none;fill:black;font-family:sans-serif;font-size:13;text-anchor:end;" transform="matrix(1 0 0 1 3036 1987)">Typeset at 100 points</text>
  <text style="stroke:none;fill:black;font-family:sans-serif;font-size:13;" transform="matrix(1 0 0 1 263 726)">Small</text>
  <text style="stroke:none;fill:black;font-family:sans-serif;font-size:13;" transform="matrix(1 0 0 1 263 1156)">Medium</text>
  <text style="stroke:none;fill:black;font-family:sans-serif;font-size:13;" transform="matrix(1 0 0 1 263 1586)">Large</text>
 </g>
 <g id="Guides">
  <g id="H-reference" style="fill:#27AAE1;stroke:none;" transform="matrix(1 0 0 1 339 696)">
   <path d="M0.993654 0L3.63775 0L29.3281-67.1323L30.0303-67.1323L30.0303-70.459L28.1226-70.459ZM11.6885-24.4799L46.9815-24.4799L46.2315-26.7285L12.4385-26.7285ZM55.1196 0L57.7637 0L30.6382-70.459L29.4326-70.459L29.4326-67.1323Z"/>
  </g>
  <line id="Baseline-S" style="fill:none;stroke:#27AAE1;opacity:1;stroke-width:0.5;" x1="263" x2="3036" y1="696" y2="696"/>
  <line id="Capline-S" style="fill:none;stroke:#27AAE1;opacity:1;stroke-width:0.5;" x1="263" x2="3036" y1="625.541" y2="625.541"/>
  <g id="H-reference" style="fill:#27AAE1;stroke:none;" transform="matrix(1 0 0 1 339 1126)">
   <path d="M0.993654 0L3.63775 0L29.3281-67.1323L30.0303-67.1323L30.0303-70.459L28.1226-70.459ZM11.6885-24.4799L46.9815-24.4799L46.2315-26.7285L12.4385-26.7285ZM55.1196 0L57.7637 0L30.6382-70.459L29.4326-70.459L29.4326-67.1323Z"/>
  </g>
  <line id="Baseline-M" style="fill:none;stroke:#27AAE1;opacity:1;stroke-width:0.5;" x1="263" x2="3036" y1="1126" y2="1126"/>
  <line id="Capline-M" style="fill:none;stroke:#27AAE1;opacity:1;stroke-width:0.5;" x1="263" x2="3036" y1="1055.54" y2="1055.54"/>
  <g id="H-reference" style="fill:#27AAE1;stroke:none;" transform="matrix(1 0 0 1 339 1556)">
   <path d="M0.993654 0L3.63775 0L29.3281-67.1323L30.0303-67.1323L30.0303-70.459L28.1226-70.459ZM11.6885-24.4799L46.9815-24.4799L46.2315-26.7285L12.4385-26.7285ZM55.1196 0L57.7637 0L30.6382-70.459L29.4326-70.459L29.4326-67.1323Z"/>
  </g>
  <line id="Baseline-L" style="fill:none;stroke:#27AAE1;opacity:1;stroke-width:0.5;" x1="263" x2="3036" y1="1556" y2="1556"/>
  <line id="Capline-L" style="fill:none;stroke:#27AAE1;opacity:1;stroke-width:0.5;" x1="263" x2="3036" y1="1485.54" y2="1485.54"/>
  <line id="left-margin-Regular-M" style="fill:none;stroke:#00AEEF;stroke-width:0.5;opacity:1.0;" x1="1392.32" x2="1392.32" y1="1030.79" y2="1150.12"/>
  <line id="right-margin-Regular-M" style="fill:none;stroke:#00AEEF;stroke-width:0.5;opacity:1.0;" x1="1507.37" x2="1507.37" y1="1030.79" y2="1150.12"/>
 </g>
 <g id="Symbols">
  <g id="Black-L" transform="matrix(1 0 0 1 2855.16 1556)">
   <path d="M78.2616-19.0738L93.1539 4.33864L104.929 36.934C106.507 41.2269 110.835 42.6424 114.311 41.3646C118.063 40.0879 120.018 35.7365 118.661 31.9856L106.608-1.10777L94.6728-33.7835L94.6728-63.3133C94.6728-64.386 95.0449-65.103 96.0736-65.6284L136.568-87.1709C140.08-89.0469 141.497-93.4567 139.54-97.0115C137.685-100.582 133.334-101.86 129.801-99.9838L90.6712-79.2871C86.4369-77.0389 82.4363-76.0531 78.2616-76.0531C74.1066-76.0531 70.106-77.0389 65.8509-79.2871L26.742-99.9838C23.2092-101.86 18.8578-100.582 16.9818-97.0115C15.0253-93.4567 16.4421-89.0469 19.9749-87.1709L60.4485-65.6284C61.4772-65.103 61.8505-64.386 61.8505-63.3133L61.8505-33.7835L49.9352-1.10777L37.8834 31.9856C36.5263 35.7365 38.4815 40.0879 42.2336 41.3646C45.6871 42.6424 50.0153 41.2269 51.5929 36.934L63.3682 4.33864ZM78.2616-82.4986C86.724-82.4986 93.6477-89.4222 93.6477-97.9287C93.6477-106.371 86.724-113.294 78.2616-113.294C69.776-113.294 62.8524-106.371 62.8524-97.9287C62.8524-89.4222 69.776-82.4986 78.2616-82.4986Z"/>
  </g>
  <g id="Heavy-L" transform="matrix(1 0 0 1 2559.5 1556)">
   <path d="M77.2037-19.9824L92.1361 3.48108L103.781 35.6974C105.285 39.7935 109.384 41.1313 112.709 39.9129C116.278 38.7002 118.137 34.5595 116.844 30.9961L104.949-1.68136L93.1494-33.9781L93.1494-63.1879C93.1494-64.3207 93.5998-65.1342 94.661-65.6827L134.654-86.9726C137.987-88.7571 139.331-92.9424 137.466-96.3417C135.712-99.7197 131.571-100.938 128.207-99.1535L89.5702-78.7282C85.3718-76.4933 81.3519-75.4981 77.2037-75.4981C73.0801-75.4981 69.0602-76.4933 64.8317-78.7282L26.2248-99.1535C22.8612-100.938 18.7205-99.7197 16.936-96.3417C15.0711-92.9424 16.4145-88.7571 19.778-86.9726L59.7408-65.6827C60.802-65.1342 61.2581-64.3207 61.2581-63.1879L61.2581-33.9781L49.4828-1.68136L37.5938 30.9961C36.3006 34.5595 38.1599 38.7002 41.7289 39.9129C45.0176 41.1313 49.1169 39.7935 50.6212 35.6974L62.2657 3.48108ZM77.2037-81.9878C85.3965-81.9878 92.105-88.6964 92.105-96.9607C92.105-105.129 85.3965-111.832 77.2037-111.832C68.9696-111.832 62.261-105.129 62.261-96.9607C62.261-88.6964 68.9696-81.9878 77.2037-81.9878Z"/>
  </g>
  <g id="Bold-L" transform="matrix(1 0 0 1 2264.15 1556)">
   <path d="M75.8303-21.015L90.7567 2.42809L102.218 34.116C103.637 37.9812 107.467 39.2267 110.614 38.0776C113.968 36.9418 115.712 33.0474 114.496 29.7072L102.816-2.40329L91.2071-34.1717L91.2071-62.9298C91.2071-64.1245 91.7424-65.0459 92.8346-65.6176L132.138-86.5553C135.264-88.232 136.522-92.1556 134.765-95.3703C133.126-98.5249 129.232-99.674 126.069-97.9972L88.1057-77.9398C83.9608-75.7277 79.9327-74.7247 75.8303-74.7247C71.7526-74.7247 67.7245-75.7277 63.5416-77.9398L25.6167-97.9972C22.4533-99.674 18.5589-98.5249 16.8821-95.3703C15.125-92.1556 16.3837-88.232 19.5471-86.5553L58.8127-65.6176C59.9049-65.0459 60.4534-64.1245 60.4534-62.9298L60.4534-34.1717L48.8698-2.40329L37.2029 29.7072C35.9867 33.0474 37.7306 36.9418 41.0841 38.0776C44.1803 39.2267 48.0103 37.9812 49.4298 34.116L60.8906 2.42809ZM75.8303-81.2906C83.6999-81.2906 90.1545-87.7452 90.1545-95.7173C90.1545-103.562 83.6999-110.004 75.8303-110.004C67.8961-110.004 61.4415-103.562 61.4415-95.7173C61.4415-87.7452 67.8961-81.2906 75.8303-81.2906Z"/>
  </g>
  <g id="Semibold-L" transform="matrix(1 0 0 1 1968.38 1556)">
   <path d="M74.8834-21.7268L89.8057 1.70217L101.14 33.0259C102.501 36.7319 106.145 37.9137 109.171 36.8124C112.376 35.7296 114.04 32.005 112.877 28.8186L101.345-2.90099L89.8681-34.3051L89.8681-62.7519C89.8681-63.9892 90.4619-64.9851 91.5755-65.5728L130.404-86.2676C133.386-87.8701 134.586-91.6132 132.903-94.7006C131.344-97.7013 127.62-98.8025 124.594-97.2001L87.0961-77.3962C82.9881-75.1999 78.9544-74.1915 74.8834-74.1915C70.8373-74.1915 66.8036-75.1999 62.6523-77.3962L25.1975-97.2001C22.172-98.8025 18.4475-97.7013 16.845-94.7006C15.1621-91.6132 16.3624-87.8701 19.3879-86.2676L58.1728-65.5728C59.2864-64.9851 59.8988-63.9892 59.8988-62.7519L59.8988-34.3051L48.4471-2.90099L36.9334 28.8186C35.7702 32.005 37.4346 35.7296 40.6395 36.8124C43.6031 37.9137 47.2473 36.7319 48.6084 33.0259L59.9426 1.70217ZM74.8834-80.8099C82.5304-80.8099 88.8099-87.0894 88.8099-94.8601C88.8099-102.482 82.5304-108.743 74.8834-108.743C67.1561-108.743 60.8766-102.482 60.8766-94.8601C60.8766-87.0894 67.1561-80.8099 74.8834-80.8099Z"/>
  </g>
  <g id="Medium-L" transform="matrix(1 0 0 1 1672.38 1556)">
   <path d="M74.1655-22.2665L89.0847 1.15175L100.323 32.1993C101.64 35.7845 105.143 36.9181 108.076 35.853C111.168 34.8104 112.772 31.2146 111.649 28.1448L100.229-3.27837L88.8528-34.4063L88.8528-62.617C88.8528-63.8866 89.491-64.9389 90.6208-65.5388L129.089-86.0495C131.962-87.5956 133.118-91.2019 131.492-94.1928C129.993-97.0767 126.397-98.1418 123.476-96.5957L86.3305-76.984C82.2505-74.7997 78.2125-73.7872 74.1655-73.7872C70.1434-73.7872 66.1054-74.7997 61.9779-76.984L24.8797-96.5957C21.9588-98.1418 18.363-97.0767 16.8168-94.1928C15.1903-91.2019 16.3463-87.5956 19.2672-86.0495L57.6876-65.5388C58.8175-64.9389 59.4782-63.8866 59.4782-62.617L59.4782-34.4063L48.1266-3.27837L36.7291 28.1448C35.6061 31.2146 37.2102 34.8104 40.3024 35.853C43.1654 36.9181 46.6688 35.7845 47.9857 32.1993L59.2238 1.15175ZM74.1655-80.4454C81.6435-80.4454 87.7903-86.5922 87.7903-94.2101C87.7903-101.663 81.6435-107.788 74.1655-107.788C66.595-107.788 60.4482-101.663 60.4482-94.2101C60.4482-86.5922 66.595-80.4454 74.1655-80.4454Z"/>
  </g>
  <g id="Regular-L" transform="matrix(1 0 0 1 1376.6 1556)">
   <path d="M73.229-22.9706L88.1442 0.433799L99.257 31.1211C100.516 34.5489 103.836 35.6195 106.648 34.6017C109.593 33.6115 111.119 30.1837 110.048 27.266L98.7745-3.77059L87.5284-34.5383L87.5284-62.441C87.5284-63.7529 88.2246-64.8787 89.3756-65.4944L127.373-85.765C130.105-87.2376 131.203-90.6655 129.65-93.5304C128.23-96.2621 124.802-97.2799 122.018-95.8073L85.332-76.4465C81.2885-74.2777 77.2449-73.2599 73.229-73.2599C69.2382-73.2599 65.1947-74.2777 61.0983-76.4465L24.4651-95.8073C21.6806-97.2799 18.2528-96.2621 16.7801-93.5304C15.227-90.6655 16.3252-87.2376 19.1097-85.765L57.0548-65.4944C58.2058-64.8787 58.9296-63.7529 58.9296-62.441L58.9296-34.5383L47.7086-3.77059L36.4626 27.266C35.392 30.1837 36.9175 33.6115 39.8628 34.6017C42.5945 35.6195 45.9143 34.5489 47.1733 31.1211L58.2862 0.433799ZM73.229-79.97C80.4868-79.97 86.4604-85.9437 86.4604-93.3623C86.4604-100.595 80.4868-106.541 73.229-106.541C65.8631-106.541 59.8895-100.595 59.8895-93.3623C59.8895-85.9437 65.8631-79.97 73.229-79.97Z"/>
  </g>
  <g id="Light-L" transform="matrix(1 0 0 1 1081.27 1556)">
   <path d="M71.8739-23.0851L86.4265-0.234186L97.2721 29.7087C98.5121 33.0603 101.736 34.0927 104.491 33.0939C107.36 32.142 108.829 28.7905 107.796 25.9682L96.7896-4.34315L85.8299-34.3665L85.8299-61.6013C85.8299-62.8749 86.5069-64.0008 87.6197-64.5974L124.701-84.3717C127.376-85.8062 128.455-89.1578 126.94-91.9463C125.539-94.6208 122.188-95.6195 119.48-94.185L83.6716-75.2823C79.7235-73.1707 75.7753-72.172 71.8739-72.172C67.9595-72.172 64.0114-73.1707 60.0296-75.2823L24.2552-94.185C21.547-95.6195 18.1955-94.6208 16.761-91.9463C15.2461-89.1578 16.3252-85.8062 19.0334-84.3717L56.0814-64.5974C57.1943-64.0008 57.918-62.8749 57.918-61.6013L57.918-34.3665L46.9452-4.34315L35.9855 25.9682C34.9531 28.7905 36.4212 32.142 39.2902 33.0939C41.9647 34.0927 45.189 33.0603 46.429 29.7087L57.2747-0.234186ZM71.8739-79.073C78.9791-79.073 84.8573-84.9512 84.8573-92.2172C84.8573-99.3354 78.9791-105.167 71.8739-105.167C64.6417-105.167 58.7635-99.3354 58.7635-92.2172C58.7635-84.9512 64.6417-79.073 71.8739-79.073Z"/>
  </g>
  <g id="Thin-L" transform="matrix(1 0 0 1 786.372 1556)">
   <path d="M70.0818-23.2365L84.1547-1.11765L94.647 27.8409C95.8617 31.0914 98.9599 32.0733 101.639 31.0998C104.407 30.1983 105.799 26.9478 104.818 24.2518L94.1645-5.10041L83.5833-34.1393L83.5833-60.4906C83.5833-61.7138 84.2351-62.8397 85.2975-63.4111L121.168-82.5291C123.766-83.9131 124.82-87.1636 123.356-89.8513C121.98-92.45 118.73-93.4235 116.122-92.0395L81.4755-73.7425C77.6536-71.7067 73.8317-70.7332 70.0818-70.7332C66.2683-70.7332 62.4464-71.7067 58.616-73.7425L23.9775-92.0395C21.3703-93.4235 18.1198-92.45 16.7358-89.8513C15.2713-87.1636 16.3252-83.9131 18.9324-82.5291L54.7941-63.4111C55.8564-62.8397 56.5802-61.7138 56.5802-60.4906L56.5802-34.1393L45.9355-5.10041L35.3544 24.2518C34.3725 26.9478 35.7649 30.1983 38.533 31.0998C41.1317 32.0733 44.2299 31.0914 45.4446 27.8409L55.9369-1.11765ZM70.0818-77.8867C76.985-77.8867 82.737-83.6387 82.737-90.7027C82.737-97.6694 76.985-103.349 70.0818-103.349C63.0262-103.349 57.2742-97.6694 57.2742-90.7027C57.2742-83.6387 63.0262-77.8867 70.0818-77.8867Z"/>
  </g>
  <g id="Ultralight-L" transform="matrix(1 0 0 1 490.592 1556)">
   <path d="M69.1638-23.3141L82.9911-1.57016L93.3024 26.8841C94.5042 30.083 97.5377 31.039 100.178 30.0785C102.894 29.2028 104.248 26.004 103.292 23.3726L92.8199-5.48827L82.4327-34.023L82.4327-59.9218C82.4327-61.1191 83.0715-62.245 84.108-62.8034L119.358-81.5853C121.918-82.9435 122.958-86.1423 121.52-88.7782C120.157-91.3381 116.958-92.2987 114.403-90.9405L80.3507-72.9539C76.5935-70.9568 72.8362-69.9963 69.1638-69.9963C65.4021-69.9963 61.6448-70.9568 57.892-72.9539L23.8353-90.9405C21.2798-92.2987 18.081-91.3381 16.7229-88.7782C15.2843-86.1423 16.3252-82.9435 18.8807-81.5853L54.1347-62.8034C55.1712-62.245 55.895-61.1191 55.895-59.9218L55.895-34.023L45.4184-5.48827L35.0312 23.3726C34.0751 26.004 35.4288 29.2028 38.1451 30.0785C40.7051 31.039 43.7386 30.083 44.9404 26.8841L55.2516-1.57016ZM69.1638-77.279C75.9636-77.279 81.6509-82.9664 81.6509-89.927C81.6509-96.8161 75.9636-102.419 69.1638-102.419C62.1988-102.419 56.5114-96.8161 56.5114-89.927C56.5114-82.9664 62.1988-77.279 69.1638-77.279Z"/>
  </g>
  <g id="Black-M" transform="matrix(1 0 0 1 2872.07 1126)">
   <path d="M61.3582-21.9476L72.8122-3.92789L82.0112 21.55C83.2938 25.0347 86.8308 26.1931 89.6456 25.1544C92.6995 24.1155 94.289 20.5736 93.1878 17.5195L83.7499-8.37859L74.426-33.9187L74.426-56.9812C74.426-57.7554 74.6445-58.228 75.4083-58.6126L107.088-75.4524C109.955-76.9793 111.113-80.5783 109.523-83.4557C108.002-86.3795 104.46-87.4181 101.588-85.8911L70.9681-69.6853C67.6697-67.94 64.5997-67.1868 61.3582-67.1868C58.1224-67.1868 55.0524-67.94 51.7486-69.6853L21.1342-85.8911C18.2621-87.4181 14.7202-86.3795 13.1933-83.4557C11.604-80.5783 12.762-76.9793 15.6342-75.4524L47.3083-58.6126C48.0722-58.228 48.2903-57.7554 48.2903-56.9812L48.2903-33.9187L38.9722-8.37859L29.5341 17.5195C28.4329 20.5736 30.0224 24.1155 33.0763 25.1544C35.8858 26.1931 39.4228 25.0347 40.7054 21.55L49.9045-3.92789ZM61.3582-72.1683C68.1254-72.1683 73.6613-77.7043 73.6613-84.4819C73.6613-91.2434 68.1254-96.7796 61.3582-96.7796C54.586-96.7796 49.0501-91.2434 49.0501-84.4819C49.0501-77.7043 54.586-72.1683 61.3582-72.1683Z"/>
  </g>
  <g id="Heavy-M" transform="matrix(1 0 0 1 2576.25 1126)">
   <path d="M60.449-22.8253L71.9757-4.70459L81.0716 20.4714C82.2843 23.7708 85.6063 24.8566 88.2787 23.8745C91.1606 22.8946 92.6616 19.5515 91.6194 16.6719L82.3117-8.88648L73.0936-34.1248L73.0936-56.936C73.0936-57.7726 73.3903-58.3395 74.1894-58.7484L105.463-75.387C108.161-76.828 109.249-80.2146 107.745-82.947C106.321-85.6879 102.978-86.6701 100.264-85.2292L70.0449-69.2464C66.7728-67.5087 63.6752-66.7446 60.449-66.7446C57.2369-66.7446 54.1393-67.5087 50.8508-69.2464L20.648-85.2292C17.9343-86.6701 14.5912-85.6879 13.1503-82.947C11.647-80.2146 12.7351-76.828 15.4488-75.387L46.7063-58.7484C47.5055-58.3395 47.8045-57.7726 47.8045-56.936L47.8045-34.1248L38.6004-8.88648L29.295 16.6719C28.2528 19.5515 29.7538 22.8946 32.6357 23.8745C35.2894 24.8566 38.6115 23.7708 39.8242 20.4714L48.92-4.70459ZM60.449-71.7517C66.9667-71.7517 72.3012-77.0862 72.3012-83.6413C72.3012-90.1449 66.9667-95.4771 60.449-95.4771C53.9103-95.4771 48.5759-90.1449 48.5759-83.6413C48.5759-77.0862 53.9103-71.7517 60.449-71.7517Z"/>
  </g>
  <g id="Bold-M" transform="matrix(1 0 0 1 2280.55 1126)">
   <path d="M59.432-23.8071L71.04-5.57344L80.0204 19.2649C81.1549 22.3569 84.2366 23.3616 86.7496 22.4426C89.4392 21.5287 90.8412 18.4082 89.865 15.7237L80.7029-9.45464L71.603-34.3553L71.603-56.8856C71.603-57.7917 71.9873-58.4642 72.8259-58.9004L103.646-75.3139C106.154-76.6587 107.164-79.8078 105.757-82.378C104.44-84.9144 101.32-85.8334 98.7834-84.4886L69.0123-68.7554C65.7695-67.0263 62.641-66.25 59.432-66.25C56.2464-66.25 53.1179-67.0263 49.8465-68.7554L20.104-84.4886C17.5675-85.8334 14.447-84.9144 13.1022-82.378C11.6951-79.8078 12.7049-76.6587 15.2414-75.3139L46.0329-58.9004C46.8715-58.4642 47.261-57.7917 47.261-56.8856L47.261-34.3553L38.1845-9.45464L29.0275 15.7237C28.0514 18.4082 29.4533 21.5287 32.143 22.4426C34.6222 23.3616 37.7039 22.3569 38.8384 19.2649L47.8188-5.57344ZM59.432-71.2857C65.6706-71.2857 70.7797-76.3948 70.7797-82.7009C70.7797-88.916 65.6706-94.0201 59.432-94.0201C53.1545-94.0201 48.0453-88.916 48.0453-82.7009C48.0453-76.3948 53.1545-71.2857 59.432-71.2857Z"/>
  </g>
  <g id="Semibold-M" transform="matrix(1 0 0 1 1984.53 1126)">
   <path d="M58.7308-24.484L70.3949-6.17242L79.2958 18.4332C80.3763 21.3822 83.2923 22.331 85.6955 21.4555C88.2525 20.5872 89.5862 17.62 88.6555 15.07L79.5938-9.84632L70.5754-34.5142L70.5754-56.8508C70.5754-57.8049 71.0201-58.5501 71.886-59.0051L102.393-75.2635C104.77-76.542 105.726-79.5273 104.386-81.9857C103.144-84.3811 100.177-85.2566 97.7626-83.9781L68.3004-68.4169C65.0779-66.6937 61.928-65.909 58.7308-65.909C55.5636-65.909 52.4137-66.6937 49.1542-68.4169L19.729-83.9781C17.3147-85.2566 14.3476-84.3811 13.069-81.9857C11.7282-79.5273 12.6842-76.542 15.0984-75.2635L45.5686-59.0051C46.4345-58.5501 46.8863-57.8049 46.8863-56.8508L46.8863-34.5142L37.8978-9.84632L28.8432 15.07C27.9125 17.62 29.2462 20.5872 31.8032 21.4555C34.1623 22.331 37.0782 21.3822 38.1588 18.4332L47.0596-6.17242ZM58.7308-70.9644C64.777-70.9644 69.7308-75.9182 69.7308-82.0527C69.7308-88.0689 64.777-93.0156 58.7308-93.0156C52.6334-93.0156 47.6796-88.0689 47.6796-82.0527C47.6796-75.9182 52.6334-70.9644 58.7308-70.9644Z"/>
  </g>
  <g id="Medium-M" transform="matrix(1 0 0 1 1688.34 1126)">
   <path d="M58.1992-24.9973L69.9058-6.62659L78.7463 17.8025C79.786 20.6431 82.5762 21.5495 84.8962 20.7071C87.3527 19.8732 88.6346 17.0223 87.7385 14.5744L78.7528-10.1433L69.7962-34.6347L69.7962-56.8244C69.7962-57.815 70.2867-58.6153 71.1732-59.0846L101.443-75.2252C103.721-76.4535 104.636-79.3147 103.346-81.6883C102.161-83.9768 99.3102-84.8192 96.9886-83.591L67.7606-68.1602C64.5534-66.4415 61.3874-65.6504 58.1992-65.6504C55.0458-65.6504 51.8798-66.4415 48.6292-68.1602L19.4447-83.591C17.123-84.8192 14.2722-83.9768 13.0439-81.6883C11.7534-79.3147 12.6684-76.4535 14.99-75.2252L45.2166-59.0846C46.1031-58.6153 46.6022-57.815 46.6022-56.8244L46.6022-34.6347L37.6805-10.1433L28.7033 14.5744C27.8072 17.0223 29.0891 19.8732 31.5456 20.7071C33.8135 21.5495 36.6038 20.6431 37.6435 17.8025L46.484-6.62659ZM58.1992-70.7208C64.0994-70.7208 68.9355-75.5568 68.9355-81.5611C68.9355-87.4265 64.0994-92.254 58.1992-92.254C52.2383-92.254 47.4023-87.4265 47.4023-81.5611C47.4023-75.5568 52.2383-70.7208 58.1992-70.7208Z"/>
  </g>
  <g id="Regular-M" transform="matrix(1 0 0 1 1392.32 1126)">
   <path d="M57.5058-25.6667L69.2678-7.21899L78.0296 16.9799C79.016 19.6791 81.6423 20.5302 83.8536 19.7308C86.179 18.942 87.3934 16.2428 86.5423 13.9279L77.6558-10.5307L68.7799-34.7919L68.7799-56.79C68.7799-57.828 69.3301-58.7003 70.2436-59.1882L100.204-75.1754C102.353-76.3381 103.215-79.0373 101.99-81.3003C100.879-83.4493 98.1797-84.2488 95.9789-83.0861L67.0565-67.8254C63.8694-66.1126 60.6823-65.3131 57.5058-65.3131C54.3704-65.3131 51.1833-66.1126 47.9445-67.8254L19.0738-83.0861C16.873-84.2488 14.1738-83.4493 13.0111-81.3003C11.7861-79.0373 12.6479-76.3381 14.8486-75.1754L44.7574-59.1882C45.6709-58.7003 46.2316-57.828 46.2316-56.79L46.2316-34.7919L37.3969-10.5307L28.521 13.9279C27.6698 16.2428 28.8843 18.942 31.2096 19.7308C33.3587 20.5302 35.985 19.6791 36.9713 16.9799L45.7332-7.21899ZM57.5058-70.403C63.2157-70.403 67.8981-75.0854 67.8981-80.92C67.8981-86.5887 63.2157-91.2605 57.5058-91.2605C51.723-91.2605 47.0406-86.5887 47.0406-80.92C47.0406-75.0854 51.723-70.403 57.5058-70.403Z"/>
  </g>
  <g id="Light-M" transform="matrix(1 0 0 1 1096.84 1126)">
   <path d="M56.2909-25.7694L67.7278-7.81788L76.2501 15.7137C77.2193 18.3444 79.7601 19.1614 81.9201 18.3791C84.177 17.6244 85.3401 14.9937 84.5232 12.7644L75.8763-11.044L67.257-34.6379L67.257-56.0371C67.257-57.0409 67.7901-57.9132 68.6694-58.384L97.8086-73.9263C99.9063-75.0547 100.751-77.6855 99.5601-79.8801C98.4663-81.9778 95.8355-82.7601 93.7032-81.6316L65.5678-66.7817C62.4663-65.1201 59.3648-64.3378 56.2909-64.3378C53.224-64.3378 50.1225-65.1201 46.9863-66.7817L18.8856-81.6316C16.7532-82.7601 14.1225-81.9778 12.994-79.8801C11.8032-77.6855 12.6479-75.0547 14.7802-73.9263L43.8847-58.384C44.764-57.9132 45.3247-57.0409 45.3247-56.0371L45.3247-34.6379L36.7125-11.044L28.0932 12.7644C27.2763 14.9937 28.4394 17.6244 30.6963 18.3791C32.794 19.1614 35.3348 18.3444 36.304 15.7137L44.8263-7.81788ZM56.2909-69.5988C61.8639-69.5988 66.4608-74.1957 66.4608-79.8933C66.4608-85.4594 61.8639-90.0286 56.2909-90.0286C50.6279-90.0286 46.031-85.4594 46.031-79.8933C46.031-74.1957 50.6279-69.5988 56.2909-69.5988Z"/>
  </g>
  <g id="Thin-M" transform="matrix(1 0 0 1 801.757 1126)">
   <path d="M54.6841-25.9052L65.6911-8.60995L73.8965 14.039C74.8431 16.5792 77.2707 17.3509 79.3628 16.5912C81.5292 15.8819 82.6245 13.3416 81.8528 11.2255L73.5227-11.7229L65.2429-34.4342L65.2429-55.0413C65.2429-55.9999 65.7534-56.8722 66.5873-57.3203L94.6403-72.2742C96.6701-73.3575 97.492-75.8977 96.3465-78.0018C95.2753-80.0316 92.7351-80.7912 90.6933-79.708L63.599-65.4012C60.6106-63.8075 57.6222-63.0479 54.6841-63.0479C51.7077-63.0479 48.7194-63.8075 45.719-65.4012L18.6366-79.708C16.5948-80.7912 14.0546-80.0316 12.9714-78.0018C11.8259-75.8977 12.6479-73.3575 14.6897-72.2742L42.7306-57.3203C43.5646-56.8722 44.1253-55.9999 44.1253-55.0413L44.1253-34.4342L35.8072-11.7229L27.5275 11.2255C26.7558 13.3416 27.851 15.8819 30.0174 16.5912C32.0472 17.3509 34.4748 16.5792 35.4214 14.039L43.6269-8.60995ZM54.6841-68.5352C60.0761-68.5352 64.5598-73.0189 64.5598-78.5355C64.5598-83.9657 60.0761-88.3991 54.6841-88.3991C49.1795-88.3991 44.6958-83.9657 44.6958-78.5355C44.6958-73.0189 49.1795-68.5352 54.6841-68.5352Z"/>
  </g>
  <g id="Ultralight-M" transform="matrix(1 0 0 1 505.881 1126)">
   <path d="M53.8611-25.9747L64.6478-9.01564L72.691 13.1812C73.626 15.6751 75.9957 16.4236 78.053 15.6755C80.1731 14.9893 81.2335 12.4955 80.485 10.4373L72.3172-12.0707L64.2113-34.3299L64.2113-54.5313C64.2113-55.4667 64.7101-56.339 65.5209-56.7755L93.0175-71.4281C95.0125-72.4881 95.8229-74.982 94.7006-77.0397C93.641-79.0347 91.1471-79.7828 89.1517-78.7228L62.5905-64.6941C59.6601-63.1352 56.7297-62.3872 53.8611-62.3872C50.9311-62.3872 48.0007-63.1352 45.0699-64.6941L18.5091-78.7228C16.5137-79.7828 14.0198-79.0347 12.9598-77.0397C11.8375-74.982 12.6479-72.4881 14.6433-71.4281L42.1394-56.7755C42.9502-56.339 43.511-55.4667 43.511-54.5313L43.511-34.3299L35.3436-12.0707L27.2377 10.4373C26.4892 12.4955 27.5496 14.9893 29.6697 15.6755C31.6647 16.4236 34.0344 15.6751 34.9693 13.1812L43.0125-9.01564ZM53.8611-67.9904C59.1604-67.9904 63.5861-72.4161 63.5861-77.84C63.5861-83.2007 59.1604-87.5646 53.8611-87.5646C48.4377-87.5646 44.0119-83.2007 44.0119-77.84C44.0119-72.4161 48.4377-67.9904 53.8611-67.9904Z"/>
  </g>
  <g id="Black-S" transform="matrix(1 0 0 1 2885.13 696)">
   <path d="M48.291-24.5605L57.2266-10.498L64.4531 9.52148C65.4785 12.3047 68.3105 13.2324 70.5566 12.4023C72.998 11.5723 74.2676 8.74023 73.3887 6.29883L65.9668-14.0625L58.6426-34.1309L58.6426-52.2461C58.6426-52.832 58.7891-53.1738 59.375-53.4668L84.2773-66.6992C86.5723-67.9199 87.5-70.8008 86.2305-73.0957C85.0098-75.4395 82.1777-76.2695 79.8828-75.0488L55.8105-62.3047C53.2227-60.9375 50.8301-60.3516 48.291-60.3516C45.752-60.3516 43.3594-60.9375 40.7715-62.3047L16.6992-75.0488C14.4043-76.2695 11.5723-75.4395 10.3516-73.0957C9.08203-70.8008 10.0098-67.9199 12.3047-66.6992L37.207-53.4668C37.793-53.1738 37.9395-52.832 37.9395-52.2461L37.9395-34.1309L30.6152-14.0625L23.1934 6.29883C22.3145 8.74023 23.584 11.5723 26.0254 12.4023C28.2715 13.2324 31.1035 12.3047 32.1289 9.52148L39.3555-10.498ZM48.291-64.2578C53.6621-64.2578 58.0566-68.6523 58.0566-74.0234C58.0566-79.3945 53.6621-83.7891 48.291-83.7891C42.9199-83.7891 38.5254-79.3945 38.5254-74.0234C38.5254-68.6523 42.9199-64.2578 48.291-64.2578Z"/>
  </g>
  <g id="Heavy-S" transform="matrix(1 0 0 1 2589.03 696)">
   <path d="M47.6687-25.2981L56.708-11.0858L63.8769 8.76087C64.8447 11.3943 67.5038 12.2644 69.6347 11.4804C71.9378 10.6964 73.1382 8.02572 72.3054 5.7226L64.9642-14.4313L57.6976-34.3268L57.6976-52.3037C57.6976-52.9473 57.9132-53.3697 58.5337-53.6858L83.194-66.8029C85.3507-67.9545 86.2208-70.6625 85.0204-72.8422C83.8804-75.0361 81.2097-75.8201 79.0415-74.6685L55.2113-62.0627C52.6349-60.6955 50.2078-60.098 47.6687-60.098C45.1412-60.098 42.714-60.6955 40.1261-62.0627L16.3074-74.6685C14.1392-75.8201 11.4685-75.0361 10.317-72.8422C9.1166-70.6625 9.98672-67.9545 12.1549-66.8029L36.8037-53.6858C37.4242-53.3697 37.6398-52.9473 37.6398-52.3037L37.6398-34.3268L30.3847-14.4313L23.0435 5.7226C22.2107 8.02572 23.4111 10.6964 25.7142 11.4804C27.8336 12.2644 30.4927 11.3943 31.4605 8.76087L38.6294-11.0858ZM47.6687-64.0043C52.8439-64.0043 57.0771-68.2375 57.0771-73.4357C57.0771-78.5993 52.8439-82.8325 47.6687-82.8325C42.482-82.8325 38.2488-78.5993 38.2488-73.4357C38.2488-68.2375 42.482-64.0043 47.6687-64.0043Z"/>
  </g>
  <g id="Bold-S" transform="matrix(1 0 0 1 2293.01 696)">
   <path d="M46.9727-26.123L56.1279-11.7432L63.2324 7.91016C64.1357 10.376 66.6016 11.1816 68.6035 10.4492C70.752 9.7168 71.875 7.22656 71.0938 5.07812L63.8428-14.8438L56.6406-34.5459L56.6406-52.3682C56.6406-53.0762 56.9336-53.5889 57.5928-53.9307L81.9824-66.9189C83.9844-67.9932 84.79-70.5078 83.667-72.5586C82.6172-74.585 80.127-75.3174 78.1006-74.2432L54.541-61.792C51.9775-60.4248 49.5117-59.8145 46.9727-59.8145C44.458-59.8145 41.9922-60.4248 39.4043-61.792L15.8691-74.2432C13.8428-75.3174 11.3525-74.585 10.2783-72.5586C9.15527-70.5078 9.96094-67.9932 11.9873-66.9189L36.3525-53.9307C37.0117-53.5889 37.3047-53.0762 37.3047-52.3682L37.3047-34.5459L30.127-14.8438L22.876 5.07812C22.0947 7.22656 23.2178 9.7168 25.3662 10.4492C27.3438 11.1816 29.8096 10.376 30.7129 7.91016L37.8174-11.7432ZM46.9727-63.7207C51.9287-63.7207 55.9814-67.7734 55.9814-72.7783C55.9814-77.71 51.9287-81.7627 46.9727-81.7627C41.9922-81.7627 37.9395-77.71 37.9395-72.7783C37.9395-67.7734 41.9922-63.7207 46.9727-63.7207Z"/>
  </g>
  <g id="Semibold-S" transform="matrix(1 0 0 1 1996.77 696)">
   <path d="M46.4928-26.6918L55.728-12.1964L62.7881 7.32363C63.647 9.67393 65.9795 10.4352 67.8926 9.73828C69.9344 9.04141 71.0041 6.67559 70.2584 4.63379L63.0696-15.1281L55.9119-34.697L55.9119-52.4126C55.9119-53.165 56.2582-53.7399 56.944-54.0995L81.1471-66.9989C83.0424-68.0198 83.8036-70.4012 82.7339-72.3631C81.7463-74.2739 79.3805-74.9708 77.4519-73.9499L54.0789-61.6054C51.5243-60.2382 49.0318-59.6189 46.4928-59.6189C43.987-59.6189 41.4945-60.2382 38.9066-61.6054L15.567-73.9499C13.6384-74.9708 11.2726-74.2739 10.2517-72.3631C9.18193-70.4012 9.94316-68.0198 11.8718-66.9989L36.0415-54.0995C36.7273-53.7399 37.0736-53.165 37.0736-52.4126L37.0736-34.697L29.9492-15.1281L22.7604 4.63379C22.0147 6.67559 23.0845 9.04141 25.1263 9.73828C27.0061 10.4352 29.3386 9.67393 30.1975 7.32363L37.2575-12.1964ZM46.4928-63.5252C51.2978-63.5252 55.2261-67.4535 55.2261-72.3251C55.2261-77.0968 51.2978-81.0251 46.4928-81.0251C41.6545-81.0251 37.7262-77.0968 37.7262-72.3251C37.7262-67.4535 41.6545-63.5252 46.4928-63.5252Z"/>
  </g>
  <g id="Medium-S" transform="matrix(1 0 0 1 1700.41 696)">
   <path d="M46.1289-27.123L55.4248-12.54L62.4512 6.87891C63.2764 9.1416 65.5078 9.86914 67.3535 9.19922C69.3145 8.5293 70.3438 6.25781 69.625 4.29688L62.4834-15.3438L55.3594-34.8115L55.3594-52.4463C55.3594-53.2324 55.7461-53.8545 56.4521-54.2275L80.5137-67.0596C82.3281-68.04 83.0557-70.3203 82.0264-72.2148C81.0859-74.0381 78.8145-74.708 76.96-73.7275L53.7285-61.4639C51.1807-60.0967 48.668-59.4707 46.1289-59.4707C43.6299-59.4707 41.1172-60.0967 38.5293-61.4639L15.3379-73.7275C13.4834-74.708 11.2119-74.0381 10.2314-72.2148C9.20215-70.3203 9.92969-68.04 11.7842-67.0596L35.8057-54.2275C36.5117-53.8545 36.8984-53.2324 36.8984-52.4463L36.8984-34.8115L29.8145-15.3438L22.6729 4.29688C21.9541 6.25781 22.9834 8.5293 24.9443 9.19922C26.75 9.86914 28.9814 9.1416 29.8066 6.87891L36.833-12.54ZM46.1289-63.377C50.8193-63.377 54.6533-67.2109 54.6533-71.9814C54.6533-76.6318 50.8193-80.4658 46.1289-80.4658C41.3984-80.4658 37.5645-76.6318 37.5645-71.9814C37.5645-67.2109 41.3984-63.377 46.1289-63.377Z"/>
  </g>
  <g id="Regular-S" transform="matrix(1 0 0 1 1404.17 696)">
   <path d="M45.6543-27.6855L55.0293-12.9883L62.0117 6.29883C62.793 8.44727 64.8926 9.13086 66.6504 8.49609C68.5059 7.86133 69.4824 5.71289 68.7988 3.85742L61.7188-15.625L54.6387-34.9609L54.6387-52.4902C54.6387-53.3203 55.0781-54.0039 55.8105-54.3945L79.6875-67.1387C81.3965-68.0664 82.0801-70.2148 81.1035-72.0215C80.2246-73.7305 78.0762-74.3652 76.3184-73.4375L53.2715-61.2793C50.7324-59.9121 48.1934-59.2773 45.6543-59.2773C43.1641-59.2773 40.625-59.9121 38.0371-61.2793L15.0391-73.4375C13.2812-74.3652 11.1328-73.7305 10.2051-72.0215C9.22852-70.2148 9.91211-68.0664 11.6699-67.1387L35.498-54.3945C36.2305-54.0039 36.6699-53.3203 36.6699-52.4902L36.6699-34.9609L29.6387-15.625L22.5586 3.85742C21.875 5.71289 22.8516 7.86133 24.707 8.49609C26.416 9.13086 28.5156 8.44727 29.2969 6.29883L36.2793-12.9883ZM45.6543-63.1836C50.1953-63.1836 53.9062-66.8945 53.9062-71.5332C53.9062-76.0254 50.1953-79.7363 45.6543-79.7363C41.0645-79.7363 37.3535-76.0254 37.3535-71.5332C37.3535-66.8945 41.0645-63.1836 45.6543-63.1836Z"/>
  </g>
  <g id="Light-S" transform="matrix(1 0 0 1 1108.54 696)">
   <path d="M44.5796-27.7764L53.667-13.5181L60.4375 5.17872C61.2036 7.26661 63.2276 7.91993 64.94 7.3003C66.7349 6.69581 67.666 4.60792 67.0127 2.82813L60.1445-16.0791L53.2915-34.8247L53.2915-51.8242C53.2915-52.624 53.7158-53.3076 54.418-53.6831L77.5684-66.0337C79.232-66.9312 79.9004-69.0191 78.9541-70.7651C78.0903-72.4287 76.0025-73.0484 74.3052-72.1509L51.9546-60.356C49.4912-59.0342 47.0278-58.4146 44.5796-58.4146C42.1499-58.4146 39.6865-59.0342 37.1895-60.356L14.8726-72.1509C13.1753-73.0484 11.0874-72.4287 10.1899-70.7651C9.24365-69.0191 9.91211-66.9312 11.6094-66.0337L34.7261-53.6831C35.4282-53.3076 35.8677-52.624 35.8677-51.8242L35.8677-34.8247L29.0332-16.0791L22.1802 2.82813C21.5269 4.60792 22.458 6.69581 24.2529 7.3003C25.9165 7.91993 27.9404 7.26661 28.7065 5.17872L35.4771-13.5181ZM44.5796-62.4722C48.9995-62.4722 52.6348-66.1074 52.6348-70.625C52.6348-75.0264 48.9995-78.6465 44.5796-78.6465C40.0957-78.6465 36.4605-75.0264 36.4605-70.625C36.4605-66.1074 40.0957-62.4722 44.5796-62.4722Z"/>
  </g>
  <g id="Thin-S" transform="matrix(1 0 0 1 813.275 696)">
   <path d="M43.1582-27.8965L51.8653-14.2187L58.3555 3.69729C59.1016 5.7051 61.0254 6.31838 62.6778 5.71877C64.3926 5.15432 65.2637 3.1465 64.6504 1.46682L58.0625-16.6797L51.5098-34.6445L51.5098-50.9434C51.5098-51.7031 51.9141-52.3867 52.5762-52.7422L74.7657-64.5723C76.3692-65.4297 77.0176-67.4375 76.1114-69.1035C75.2676-70.7071 73.2598-71.3067 71.6426-70.4492L50.2129-59.1348C47.8496-57.8731 45.4863-57.2735 43.1582-57.2735C40.8086-57.2735 38.4453-57.8731 36.0684-59.1348L14.6523-70.4492C13.0352-71.3067 11.0273-70.7071 10.1699-69.1035C9.26367-67.4375 9.91211-65.4297 11.5293-64.5723L33.7051-52.7422C34.3672-52.3867 34.8067-51.7031 34.8067-50.9434L34.8067-34.6445L28.2324-16.6797L21.6797 1.46682C21.0664 3.1465 21.9375 5.15432 23.6524 5.71877C25.2559 6.31838 27.1797 5.7051 27.9258 3.69729L34.416-14.2187ZM43.1582-61.5313C47.418-61.5313 50.9531-65.0664 50.9531-69.4238C50.9531-73.7051 47.418-77.2051 43.1582-77.2051C38.8145-77.2051 35.2793-73.7051 35.2793-69.4238C35.2793-65.0664 38.8145-61.5313 43.1582-61.5313Z"/>
  </g>
  <g id="Ultralight-S" transform="matrix(1 0 0 1 517.302 696)">
   <path d="M42.4302-27.958L50.9424-14.5776L57.2891 2.9385C58.0249 4.9053 59.8975 5.49808 61.5191 4.90872C63.1929 4.36477 64.0332 2.39798 63.4405 0.769556L56.9961-16.9873L50.5972-34.5522L50.5972-50.4922C50.5972-51.2315 50.9912-51.9151 51.6328-52.2603L73.3301-63.8238C74.9029-64.6607 75.5411-66.6275 74.6553-68.2525C73.8218-69.8252 71.855-70.4146 70.2789-69.5777L49.3208-58.5093C47.0088-57.2783 44.6968-56.689 42.4302-56.689C40.1216-56.689 37.8096-57.2783 35.4942-58.5093L14.5396-69.5777C12.9634-70.4146 10.9966-69.8252 10.1597-68.2525C9.27393-66.6275 9.91211-64.6607 11.4883-63.8238L33.1821-52.2603C33.8237-51.9151 34.2632-51.2315 34.2632-50.4922L34.2632-34.5522L27.8223-16.9873L21.4233 0.769556C20.8306 2.39798 21.6709 4.36477 23.3447 4.90872C24.9175 5.49808 26.7901 4.9053 27.5259 2.9385L33.8726-14.5776ZM42.4302-61.0493C46.6079-61.0493 50.0918-64.5332 50.0918-68.8086C50.0918-73.0283 46.6079-76.4668 42.4302-76.4668C38.1582-76.4668 34.6743-73.0283 34.6743-68.8086C34.6743-64.5332 38.1582-61.0493 42.4302-61.0493Z"/>
  </g>
 </g>
</svg>
