<?xml version="1.0" encoding="UTF-8"?>
<!--Generator: Apple Native CoreSVG 175.5-->
<!DOCTYPE svg
PUBLIC "-//W3C//DTD SVG 1.1//EN"
       "http://www.w3.org/Graphics/SVG/1.1/DTD/svg11.dtd">
<svg version="1.1" xmlns="http://www.w3.org/2000/svg" xmlns:xlink="http://www.w3.org/1999/xlink" width="3300" height="2200">
 <!--glyph: "uni101310.medium", point size: 100.0, font version: "18.0d12e2", template writer version: "101"-->
 <g id="Notes">
  <rect height="2200" id="artboard" style="fill:white;opacity:1" width="3300" x="0" y="0"/>
  <line style="fill:none;stroke:black;opacity:1;stroke-width:0.5;" x1="263" x2="3036" y1="292" y2="292"/>
  <text style="stroke:none;fill:black;font-family:sans-serif;font-size:13;font-weight:bold;" transform="matrix(1 0 0 1 263 322)">Weight/Scale Variations</text>
  <text style="stroke:none;fill:black;font-family:sans-serif;font-size:13;text-anchor:middle;" transform="matrix(1 0 0 1 559.711 322)">Ultralight</text>
  <text style="stroke:none;fill:black;font-family:sans-serif;font-size:13;text-anchor:middle;" transform="matrix(1 0 0 1 856.422 322)">Thin</text>
  <text style="stroke:none;fill:black;font-family:sans-serif;font-size:13;text-anchor:middle;" transform="matrix(1 0 0 1 1153.13 322)">Light</text>
  <text style="stroke:none;fill:black;font-family:sans-serif;font-size:13;text-anchor:middle;" transform="matrix(1 0 0 1 1449.84 322)">Regular</text>
  <text style="stroke:none;fill:black;font-family:sans-serif;font-size:13;text-anchor:middle;" transform="matrix(1 0 0 1 1746.56 322)">Medium</text>
  <text style="stroke:none;fill:black;font-family:sans-serif;font-size:13;text-anchor:middle;" transform="matrix(1 0 0 1 2043.27 322)">Semibold</text>
  <text style="stroke:none;fill:black;font-family:sans-serif;font-size:13;text-anchor:middle;" transform="matrix(1 0 0 1 2339.98 322)">Bold</text>
  <text style="stroke:none;fill:black;font-family:sans-serif;font-size:13;text-anchor:middle;" transform="matrix(1 0 0 1 2636.69 322)">Heavy</text>
  <text style="stroke:none;fill:black;font-family:sans-serif;font-size:13;text-anchor:middle;" transform="matrix(1 0 0 1 2933.4 322)">Black</text>
  <line style="fill:none;stroke:black;opacity:1;stroke-width:0.5;" x1="263" x2="3036" y1="1903" y2="1903"/>
  <g transform="matrix(1 0 0 1 263 1933)">
   <path d="M9.24805 0.830078C13.5547 0.830078 17.1387-2.74414 17.1387-7.05078C17.1387-11.3574 13.5449-14.9316 9.23828-14.9316C4.94141-14.9316 1.36719-11.3574 1.36719-7.05078C1.36719-2.74414 4.95117 0.830078 9.24805 0.830078ZM9.24805-0.654297C5.70312-0.654297 2.87109-3.49609 2.87109-7.05078C2.87109-10.6055 5.69336-13.4473 9.23828-13.4473C12.793-13.4473 15.6445-10.6055 15.6445-7.05078C15.6445-3.49609 12.8027-0.654297 9.24805-0.654297ZM5.6543-7.05078C5.6543-6.62109 5.95703-6.32812 6.40625-6.32812L8.50586-6.32812L8.50586-4.20898C8.50586-3.76953 8.79883-3.4668 9.22852-3.4668C9.67773-3.4668 9.9707-3.76953 9.9707-4.20898L9.9707-6.32812L12.0898-6.32812C12.5293-6.32812 12.832-6.62109 12.832-7.05078C12.832-7.49023 12.5293-7.79297 12.0898-7.79297L9.9707-7.79297L9.9707-9.90234C9.9707-10.3516 9.67773-10.6543 9.22852-10.6543C8.79883-10.6543 8.50586-10.3516 8.50586-9.90234L8.50586-7.79297L6.40625-7.79297C5.95703-7.79297 5.6543-7.49023 5.6543-7.05078Z"/>
  </g>
  <g transform="matrix(1 0 0 1 281.867 1933)">
   <path d="M11.709 2.91016C17.1582 2.91016 21.6699-1.61133 21.6699-7.05078C21.6699-12.5 17.1484-17.0117 11.6992-17.0117C6.25977-17.0117 1.74805-12.5 1.74805-7.05078C1.74805-1.61133 6.26953 2.91016 11.709 2.91016ZM11.709 1.25C7.09961 1.25 3.41797-2.44141 3.41797-7.05078C3.41797-11.6602 7.08984-15.3516 11.6992-15.3516C16.3086-15.3516 20.0098-11.6602 20.0098-7.05078C20.0098-2.44141 16.3184 1.25 11.709 1.25ZM7.17773-7.05078C7.17773-6.57227 7.50977-6.25 8.00781-6.25L10.8789-6.25L10.8789-3.36914C10.8789-2.88086 11.2109-2.53906 11.6895-2.53906C12.1777-2.53906 12.5195-2.87109 12.5195-3.36914L12.5195-6.25L15.4004-6.25C15.8887-6.25 16.2305-6.57227 16.2305-7.05078C16.2305-7.53906 15.8887-7.88086 15.4004-7.88086L12.5195-7.88086L12.5195-10.752C12.5195-11.25 12.1777-11.5918 11.6895-11.5918C11.2109-11.5918 10.8789-11.25 10.8789-10.752L10.8789-7.88086L8.00781-7.88086C7.50977-7.88086 7.17773-7.53906 7.17773-7.05078Z"/>
  </g>
  <g transform="matrix(1 0 0 1 305.646 1933)">
   <path d="M14.9707 5.66406C21.9336 5.66406 27.6953-0.0976562 27.6953-7.05078C27.6953-14.0137 21.9238-19.7754 14.9609-19.7754C8.00781-19.7754 2.25586-14.0137 2.25586-7.05078C2.25586-0.0976562 8.01758 5.66406 14.9707 5.66406ZM14.9707 3.84766C8.93555 3.84766 4.08203-1.01562 4.08203-7.05078C4.08203-13.0957 8.92578-17.9492 14.9609-17.9492C21.0059-17.9492 25.8691-13.0957 25.8691-7.05078C25.8691-1.01562 21.0156 3.84766 14.9707 3.84766ZM9.19922-7.05078C9.19922-6.5332 9.57031-6.17188 10.1172-6.17188L14.0625-6.17188L14.0625-2.2168C14.0625-1.67969 14.4336-1.29883 14.9512-1.29883C15.4883-1.29883 15.8594-1.66992 15.8594-2.2168L15.8594-6.17188L19.8145-6.17188C20.3516-6.17188 20.7324-6.5332 20.7324-7.05078C20.7324-7.59766 20.3613-7.96875 19.8145-7.96875L15.8594-7.96875L15.8594-11.9141C15.8594-12.4609 15.4883-12.8418 14.9512-12.8418C14.4336-12.8418 14.0625-12.4609 14.0625-11.9141L14.0625-7.96875L10.1172-7.96875C9.57031-7.96875 9.19922-7.59766 9.19922-7.05078Z"/>
  </g>
  <text style="stroke:none;fill:black;font-family:sans-serif;font-size:13;font-weight:bold;" transform="matrix(1 0 0 1 263 1953)">Design Variations</text>
  <text style="stroke:none;fill:black;font-family:sans-serif;font-size:13;" transform="matrix(1 0 0 1 263 1971)">Symbols are supported in up to nine weights and three scales.</text>
  <text style="stroke:none;fill:black;font-family:sans-serif;font-size:13;" transform="matrix(1 0 0 1 263 1989)">For optimal layout with text and other symbols, vertically align</text>
  <text style="stroke:none;fill:black;font-family:sans-serif;font-size:13;" transform="matrix(1 0 0 1 263 2007)">symbols with the adjacent text.</text>
  <line style="fill:none;stroke:#00AEEF;stroke-width:0.5;opacity:1.0;" x1="776" x2="776" y1="1919" y2="1933"/>
  <g transform="matrix(1 0 0 1 776 1933)">
   <path d="M3.31055 0.15625C3.82812 0.15625 4.08203-0.0390625 4.26758-0.585938L5.52734-4.0332L11.2891-4.0332L12.5488-0.585938C12.7344-0.0390625 12.9883 0.15625 13.4961 0.15625C14.0137 0.15625 14.3457-0.15625 14.3457-0.644531C14.3457-0.810547 14.3164-0.966797 14.2383-1.17188L9.6582-13.3691C9.43359-13.9648 9.0332-14.2676 8.4082-14.2676C7.80273-14.2676 7.39258-13.9746 7.17773-13.3789L2.59766-1.16211C2.51953-0.957031 2.49023-0.800781 2.49023-0.634766C2.49023-0.146484 2.80273 0.15625 3.31055 0.15625ZM6.00586-5.51758L8.37891-12.0898L8.42773-12.0898L10.8008-5.51758Z"/>
  </g>
  <line style="fill:none;stroke:#00AEEF;stroke-width:0.5;opacity:1.0;" x1="793.197" x2="793.197" y1="1919" y2="1933"/>
  <text style="stroke:none;fill:black;font-family:sans-serif;font-size:13;font-weight:bold;" transform="matrix(1 0 0 1 776 1953)">Margins</text>
  <text style="stroke:none;fill:black;font-family:sans-serif;font-size:13;" transform="matrix(1 0 0 1 776 1971)">Leading and trailing margins on the left and right side of each symbol</text>
  <text style="stroke:none;fill:black;font-family:sans-serif;font-size:13;" transform="matrix(1 0 0 1 776 1989)">can be adjusted by modifying the x-location of the margin guidelines.</text>
  <text style="stroke:none;fill:black;font-family:sans-serif;font-size:13;" transform="matrix(1 0 0 1 776 2007)">Modifications are automatically applied proportionally to all</text>
  <text style="stroke:none;fill:black;font-family:sans-serif;font-size:13;" transform="matrix(1 0 0 1 776 2025)">scales and weights.</text>
  <g transform="matrix(1 0 0 1 1289 1933)">
   <path d="M2.8418 1.86523L4.54102 3.57422C5.40039 4.44336 6.38672 4.38477 7.31445 3.35938L18.0078-8.42773L17.041-9.4043L6.42578 2.27539C6.07422 2.67578 5.74219 2.77344 5.27344 2.30469L4.10156 1.14258C3.63281 0.683594 3.74023 0.341797 4.14062-0.0195312L15.6152-10.8203L14.6387-11.7871L3.04688-0.898438C2.06055 0.0195312 1.98242 0.996094 2.8418 1.86523ZM9.25781-16.3281C8.83789-15.918 8.80859-15.3418 9.04297-14.9512C9.27734-14.5898 9.73633-14.3555 10.3809-14.5215C11.8457-14.8633 13.3691-14.9219 14.7949-13.9844L14.209-12.5293C13.8672-11.6992 14.043-11.1133 14.5801-10.5664L16.875-8.25195C17.3633-7.76367 17.7734-7.74414 18.3398-7.8418L19.4043-8.03711L20.0684-7.36328L20.0293-6.80664C19.9902-6.30859 20.1172-5.92773 20.6055-5.44922L21.3672-4.70703C21.8457-4.22852 22.4609-4.19922 22.9297-4.66797L25.8398-7.58789C26.3086-8.05664 26.2891-8.65234 25.8105-9.13086L25.0391-9.89258C24.5605-10.3711 24.1895-10.5273 23.7109-10.4883L23.1348-10.4395L22.4902-11.0742L22.7344-12.1973C22.8613-12.7637 22.7051-13.2031 22.1191-13.7891L19.9219-15.9766C16.582-19.2969 12.1484-19.2188 9.25781-16.3281ZM10.752-15.957C13.1836-17.7344 16.4746-17.4316 18.7012-15.2051L21.1328-12.793C21.3672-12.5586 21.4062-12.373 21.3379-12.0312L21.0156-10.5469L22.5195-9.0625L23.5059-9.12109C23.7598-9.13086 23.8379-9.11133 24.0332-8.91602L24.6094-8.33984L22.168-5.89844L21.5918-6.47461C21.3965-6.66992 21.3672-6.74805 21.377-7.01172L21.4453-7.98828L19.9512-9.47266L18.4277-9.21875C18.1055-9.15039 17.959-9.17969 17.7148-9.41406L15.7129-11.416C15.459-11.6504 15.4297-11.8164 15.5859-12.1875L16.4648-14.2773C14.9023-15.7324 12.8711-16.3574 10.8398-15.7617C10.6836-15.7227 10.625-15.8496 10.752-15.957Z"/>
  </g>
  <text style="stroke:none;fill:black;font-family:sans-serif;font-size:13;font-weight:bold;" transform="matrix(1 0 0 1 1289 1953)">Exporting</text>
  <text style="stroke:none;fill:black;font-family:sans-serif;font-size:13;" transform="matrix(1 0 0 1 1289 1971)">Symbols should be outlined when exporting to ensure the</text>
  <text style="stroke:none;fill:black;font-family:sans-serif;font-size:13;" transform="matrix(1 0 0 1 1289 1989)">design is preserved when submitting to Xcode.</text>
  <text id="template-version" style="stroke:none;fill:black;font-family:sans-serif;font-size:13;text-anchor:end;" transform="matrix(1 0 0 1 3036 1933)">Template v.4.0</text>
  <text style="stroke:none;fill:black;font-family:sans-serif;font-size:13;text-anchor:end;" transform="matrix(1 0 0 1 3036 1951)">Requires Xcode 14 or greater</text>
  <text id="descriptive-name" style="stroke:none;fill:black;font-family:sans-serif;font-size:13;text-anchor:end;" transform="matrix(1 0 0 1 3036 1969)">Generated from figure.core.training</text>
  <text style="stroke:none;fill:black;font-family:sans-serif;font-size:13;text-anchor:end;" transform="matrix(1 0 0 1 3036 1987)">Typeset at 100 points</text>
  <text style="stroke:none;fill:black;font-family:sans-serif;font-size:13;" transform="matrix(1 0 0 1 263 726)">Small</text>
  <text style="stroke:none;fill:black;font-family:sans-serif;font-size:13;" transform="matrix(1 0 0 1 263 1156)">Medium</text>
  <text style="stroke:none;fill:black;font-family:sans-serif;font-size:13;" transform="matrix(1 0 0 1 263 1586)">Large</text>
 </g>
 <g id="Guides">
  <g id="H-reference" style="fill:#27AAE1;stroke:none;" transform="matrix(1 0 0 1 339 696)">
   <path d="M0.993654 0L3.63775 0L29.3281-67.1323L30.0303-67.1323L30.0303-70.459L28.1226-70.459ZM11.6885-24.4799L46.9815-24.4799L46.2315-26.7285L12.4385-26.7285ZM55.1196 0L57.7637 0L30.6382-70.459L29.4326-70.459L29.4326-67.1323Z"/>
  </g>
  <line id="Baseline-S" style="fill:none;stroke:#27AAE1;opacity:1;stroke-width:0.5;" x1="263" x2="3036" y1="696" y2="696"/>
  <line id="Capline-S" style="fill:none;stroke:#27AAE1;opacity:1;stroke-width:0.5;" x1="263" x2="3036" y1="625.541" y2="625.541"/>
  <g id="H-reference" style="fill:#27AAE1;stroke:none;" transform="matrix(1 0 0 1 339 1126)">
   <path d="M0.993654 0L3.63775 0L29.3281-67.1323L30.0303-67.1323L30.0303-70.459L28.1226-70.459ZM11.6885-24.4799L46.9815-24.4799L46.2315-26.7285L12.4385-26.7285ZM55.1196 0L57.7637 0L30.6382-70.459L29.4326-70.459L29.4326-67.1323Z"/>
  </g>
  <line id="Baseline-M" style="fill:none;stroke:#27AAE1;opacity:1;stroke-width:0.5;" x1="263" x2="3036" y1="1126" y2="1126"/>
  <line id="Capline-M" style="fill:none;stroke:#27AAE1;opacity:1;stroke-width:0.5;" x1="263" x2="3036" y1="1055.54" y2="1055.54"/>
  <g id="H-reference" style="fill:#27AAE1;stroke:none;" transform="matrix(1 0 0 1 339 1556)">
   <path d="M0.993654 0L3.63775 0L29.3281-67.1323L30.0303-67.1323L30.0303-70.459L28.1226-70.459ZM11.6885-24.4799L46.9815-24.4799L46.2315-26.7285L12.4385-26.7285ZM55.1196 0L57.7637 0L30.6382-70.459L29.4326-70.459L29.4326-67.1323Z"/>
  </g>
  <line id="Baseline-L" style="fill:none;stroke:#27AAE1;opacity:1;stroke-width:0.5;" x1="263" x2="3036" y1="1556" y2="1556"/>
  <line id="Capline-L" style="fill:none;stroke:#27AAE1;opacity:1;stroke-width:0.5;" x1="263" x2="3036" y1="1485.54" y2="1485.54"/>
  <line id="left-margin-Regular-M" style="fill:none;stroke:#00AEEF;stroke-width:0.5;opacity:1.0;" x1="1364.03" x2="1364.03" y1="1030.79" y2="1150.12"/>
  <line id="right-margin-Regular-M" style="fill:none;stroke:#00AEEF;stroke-width:0.5;opacity:1.0;" x1="1535.65" x2="1535.65" y1="1030.79" y2="1150.12"/>
 </g>
 <g id="Symbols">
  <g id="Black-L" transform="matrix(1 0 0 1 2816.84 1556)">
   <path d="M42.7842-41.2052C51.3311-41.2052 58.2731-48.1472 58.2731-56.6941C58.2731-65.219 51.3311-72.1818 42.7842-72.1818C34.2594-72.1818 27.3173-65.219 27.3173-56.6941C27.3173-48.1472 34.2594-41.2052 42.7842-41.2052ZM86.9858-0.276443L105.878-0.276443C122.399-0.276443 127.202-10.0375 125.859-20.891L121.661-54.2238L154.213-54.2238C158.666-54.2238 162.141-57.759 162.141-62.2116C162.141-66.6643 158.666-70.1399 154.213-70.1399L111.856-70.1399C107.44-70.1399 103.849-66.9639 103.849-61.6499L103.849-27.8202L93.7447-27.8202C87.942-27.8202 83.4512-29.7323 80.6997-34.0546C80.2316-34.8068 80.1732-35.6315 81.1446-36.7846L98.1897-56.9184C102.724-62.2921 99.1095-70.1399 92.3203-70.1399L69.2525-70.1399C64.8207-70.1399 61.2075-66.6643 61.2075-62.2116C61.2075-57.6786 64.7403-54.2238 69.2525-54.2238L75.6113-54.2238L67.3771-44.3991C60.3757-36.0759 54.2138-30.4328 43.8408-25.7977L35.8093-22.1982L37.9271-29.7178C39.205-34.0912 36.2912-38.4634 32.159-39.3833C27.8452-40.4211 23.5303-37.8069 22.4716-33.7111L16.4629-10.2779C14.4844-2.54574 21.3552 1.62279 28.1079-1.33389L49.4688-10.7014C51.3798-11.5264 51.9216-11.446 53.294-10.3953C60.4473-4.36424 71.6324-0.276443 86.9858-0.276443ZM160.046-15.6571L209.024-15.6571C213.477-15.6571 217.033-19.2119 217.033-23.6657C217.033-28.0975 213.477-31.6523 209.024-31.6523L159.287-31.6523C158.747-31.6523 158.047-31.6523 157.266-31.5719L132.297-29.4614L133.355-21.9472C133.955-17.7658 133.756-13.7857 132.798-10.2065Z"/>
  </g>
  <g id="Heavy-L" transform="matrix(1 0 0 1 2521.67 1556)">
   <path d="M42.3826-41.2421C50.7017-41.2421 57.4292-47.9697 57.4292-56.2887C57.4292-64.572 50.7017-71.3297 42.3826-71.3297C34.0993-71.3297 27.3718-64.572 27.3718-56.2887C27.3718-47.9697 34.0993-41.2421 42.3826-41.2421ZM85.8148-1.06013L104.468-1.06013C120.592-1.06013 125.258-10.5014 123.938-21.1L119.749-54.3069L152.193-54.3069C156.444-54.3069 159.769-57.6817 159.769-61.933C159.769-66.1844 156.444-69.5089 152.193-69.5089L110.383-69.5089C106.14-69.5089 102.732-66.4702 102.732-61.3757L102.732-27.7132L92.4926-27.7132C86.7115-27.7132 82.1463-29.6534 79.3986-33.995C78.8892-34.8118 78.8445-35.793 79.8667-37.0063L96.6812-56.8686C101.019-62.0134 97.569-69.5089 91.0864-69.5089L68.1329-69.5089C63.9117-69.5089 60.4678-66.1844 60.4678-61.933C60.4678-57.6012 63.8313-54.3069 68.1329-54.3069L75.1599-54.3069L66.6478-44.1763C59.7232-35.9617 53.6059-30.3358 43.3317-25.7409L34.8939-21.9706L37.2191-30.2736C38.4374-34.4502 35.6702-38.6211 31.7349-39.5089C27.6086-40.4916 23.4767-38.0103 22.4638-34.0838L16.4447-10.5901C14.544-3.17834 21.1126 0.765764 27.5863-2.0674L48.6852-11.3218C50.6198-12.1562 51.2994-12.0758 52.7181-10.9788C59.7352-5.07072 70.7295-1.06013 85.8148-1.06013ZM157.926-16.2328L206.294-16.2328C210.545-16.2328 213.95-19.6321 213.95-23.889C213.95-28.1102 210.545-31.5095 206.294-31.5095L157.199-31.5095C156.677-31.5095 155.995-31.5095 155.232-31.4291L130.053-29.3136L131.066-22.1017C131.638-18.0432 131.462-14.2004 130.555-10.7541Z"/>
  </g>
  <g id="Bold-L" transform="matrix(1 0 0 1 2227 1556)">
   <path d="M41.8236-41.2808C49.8584-41.2808 56.3246-47.7469 56.3246-55.7818C56.3246-63.7654 49.8584-70.2695 41.8236-70.2695C33.84-70.2695 27.3738-63.7654 27.3738-55.7818C27.3738-47.7469 33.84-41.2808 41.8236-41.2808ZM84.2881-2.03584L102.612-2.03584C118.244-2.03584 122.741-11.0925 121.452-21.3687L117.285-54.3249L149.502-54.3249C153.514-54.3249 156.662-57.5148 156.662-61.5276C156.662-65.5404 153.514-68.6879 149.502-68.6879L108.435-68.6879C104.4-68.6879 101.207-65.8109 101.207-60.9779L101.207-27.6124L90.851-27.6124C85.1154-27.6124 80.4804-29.576 77.7478-33.9257C77.1921-34.8119 77.1629-35.963 78.2391-37.2381L94.7394-56.7326C98.8459-61.6081 95.5888-68.6879 89.4679-68.6879L66.7199-68.6879C62.745-68.6879 59.5012-65.5404 59.5012-61.5276C59.5012-57.4344 62.6646-54.3249 66.7199-54.3249L74.4649-54.3249L65.6741-43.8922C58.8567-35.8233 52.8082-30.2353 42.6792-25.7015L33.8164-21.7534L36.3654-30.898C37.5145-34.8436 34.9167-38.776 31.2123-39.6254C27.3092-40.5464 23.3927-38.2191 22.4338-34.4927L16.4216-11.0117C14.6133-3.977 20.8278-0.294657 26.9706-2.98161L47.7094-12.0828C49.6598-12.925 50.4937-12.8445 51.9588-11.7011C58.7994-5.94666 69.5481-2.03584 84.2881-2.03584ZM155.104-16.925L202.637-16.925C206.65-16.925 209.878-20.1396 209.878-24.1657C209.878-28.1405 206.65-31.3551 202.637-31.3551L154.415-31.3551C153.917-31.3551 153.258-31.3551 152.518-31.2747L127.152-29.159L128.111-22.3012C128.652-18.3964 128.5-14.7152 127.646-11.4229Z"/>
  </g>
  <g id="Semibold-L" transform="matrix(1 0 0 1 1931.69 1556)">
   <path d="M41.4382-41.3074C49.2771-41.3074 55.563-47.5934 55.563-55.4322C55.563-63.2093 49.2771-69.5386 41.4382-69.5386C33.6612-69.5386 27.3752-63.2093 27.3752-55.4322C27.3752-47.5934 33.6612-41.3074 41.4382-41.3074ZM83.2355-2.70849L101.332-2.70849C116.626-2.70849 121.006-11.5001 119.738-21.5538L115.587-54.3373L147.646-54.3373C151.495-54.3373 154.52-57.3998 154.52-61.2482C154.52-65.0965 151.495-68.1219 147.646-68.1219L107.092-68.1219C103.2-68.1219 100.156-65.3564 100.156-60.7037L100.156-27.5428L89.7194-27.5428C84.0151-27.5428 79.3319-29.5226 76.6097-33.878C76.0221-34.8121 76.0035-36.0802 77.1171-37.3979L93.4008-56.6389C97.348-61.3286 94.2236-68.1219 88.3521-68.1219L65.7457-68.1219C61.9407-68.1219 58.8348-65.0965 58.8348-61.2482C58.8348-57.3194 61.8603-54.3373 65.7457-54.3373L73.9858-54.3373L65.0029-43.6964C58.2593-35.7279 52.2582-30.166 42.2294-25.6744L33.0736-21.6037L35.7769-31.3285C36.8782-35.1149 34.3972-38.8828 30.8521-39.7057C27.1027-40.5842 23.3349-38.3631 22.413-34.7746L16.4058-11.3023C14.661-4.52759 20.6314-1.0257 26.5462-3.61186L47.0368-12.6074C48.9981-13.4549 49.9382-13.3745 51.4354-12.199C58.1543-6.55053 68.7337-2.70849 83.2355-2.70849ZM153.159-17.4022L200.116-17.4022C203.965-17.4022 207.071-20.4895 207.071-24.3564C207.071-28.1614 203.965-31.2487 200.116-31.2487L152.497-31.2487C152.014-31.2487 151.371-31.2487 150.647-31.1683L125.153-29.0525L126.074-22.4387C126.594-18.6399 126.458-15.0701 125.641-11.884Z"/>
  </g>
  <g id="Medium-L" transform="matrix(1 0 0 1 1636.04 1556)">
   <path d="M41.146-41.3276C48.8363-41.3276 54.9856-47.4769 54.9856-55.1672C54.9856-62.7876 48.8363-68.9844 41.146-68.9844C33.5256-68.9844 27.3763-62.7876 27.3763-55.1672C27.3763-47.4769 33.5256-41.3276 41.146-41.3276ZM82.4375-3.21852L100.362-3.21852C115.399-3.21852 119.691-11.8091 118.438-21.6943L114.299-54.3468L146.239-54.3468C149.963-54.3468 152.896-57.3126 152.896-61.0363C152.896-64.7599 149.963-67.6928 146.239-67.6928L106.074-67.6928C102.291-67.6928 99.3592-65.0117 99.3592-60.4958L99.3592-27.4901L88.8613-27.4901C83.1809-27.4901 78.4611-29.4821 75.7468-33.8417C75.135-34.8122 75.1245-36.1691 76.2663-37.5191L92.3858-56.5678C96.2123-61.1167 93.1885-67.6928 87.5061-67.6928L65.0071-67.6928C61.3309-67.6928 58.3295-64.7599 58.3295-61.0363C58.3295-57.2322 61.2505-54.3468 65.0071-54.3468L73.6225-54.3468L64.4939-43.5479C57.8064-35.6555 51.8412-30.1135 41.8884-25.6538L32.5103-21.4902L35.3307-31.6548C36.3957-35.3206 34.0034-38.9638 30.5789-39.7666C26.9462-40.6128 23.291-38.4722 22.3973-34.9884L16.3937-11.5226C14.6973-4.94508 20.4826-1.58001 26.2244-4.08975L46.5268-13.0051C48.4963-13.8568 49.517-13.7764 51.0385-12.5766C57.6652-7.00841 68.1162-3.21852 82.4375-3.21852ZM151.684-17.764L198.205-17.764C201.929-17.764 204.942-20.7548 204.942-24.501C204.942-28.1772 201.929-31.168 198.205-31.168L151.042-31.168C150.571-31.168 149.94-31.168 149.228-31.0876L123.636-28.9717L124.53-22.543C125.033-18.8245 124.91-15.3392 124.121-12.2336Z"/>
  </g>
  <g id="Regular-L" transform="matrix(1 0 0 1 1340.72 1556)">
   <path d="M40.7649-41.354C48.2614-41.354 54.2324-47.325 54.2324-54.8215C54.2324-62.2376 48.2614-68.2615 40.7649-68.2615C33.3488-68.2615 27.3777-62.2376 27.3777-54.8215C27.3777-47.325 33.3488-41.354 40.7649-41.354ZM81.3965-3.88377L99.0962-3.88377C113.798-3.88377 117.974-12.2121 116.743-21.8774L112.619-54.359L144.405-54.359C147.966-54.359 150.778-57.1988 150.778-60.7599C150.778-64.3209 147.966-67.1331 144.405-67.1331L104.746-67.1331C101.104-67.1331 98.3196-64.5622 98.3196-60.2246L98.3196-27.4213L87.7421-27.4213C82.0927-27.4213 77.3253-29.4293 74.6212-33.7945C73.9779-34.8123 73.9779-36.285 75.1565-37.6772L91.0618-56.4751C94.7309-60.8403 91.8384-67.1331 86.4026-67.1331L64.0437-67.1331C60.5354-67.1331 57.6705-64.3209 57.6705-60.7599C57.6705-57.1184 60.455-54.359 64.0437-54.359L73.1486-54.359L63.8301-43.3543C57.2156-35.5612 51.2973-30.045 41.4435-25.627L31.7757-21.3421L34.7487-32.0806C35.7665-35.5888 33.4896-39.0694 30.2226-39.846C26.742-40.6502 23.2337-38.6146 22.3767-35.2672L16.378-11.81C14.7445-5.48962 20.2884-2.30303 25.8046-4.71308L45.8615-13.524C47.8418-14.3809 48.9677-14.3005 50.5208-13.0691C57.0271-7.60564 67.3107-3.88377 81.3965-3.88377ZM149.76-18.236L195.712-18.236C199.273-18.236 202.165-21.1009 202.165-24.6896C202.165-28.1978 199.273-31.0628 195.712-31.0628L149.144-31.0628C148.689-31.0628 148.074-31.0628 147.378-30.9823L121.658-28.8663L122.515-22.6791C122.998-19.0653 122.89-15.6902 122.138-12.6896Z"/>
  </g>
  <g id="Light-L" transform="matrix(1 0 0 1 1046.23 1556)">
   <path d="M39.9824-41.3349C47.2689-41.3349 53.0873-47.1533 53.0873-54.4398C53.0873-61.646 47.2689-67.4981 39.9824-67.4981C32.7762-67.4981 26.9578-61.646 26.9578-54.4398C26.9578-47.1533 32.7762-41.3349 39.9824-41.3349ZM79.8506-4.58993L97.1113-4.58993C111.469-4.58993 115.532-12.7274 114.338-22.1255L110.31-53.8246L141.332-53.8246C144.797-53.8246 147.552-56.6263 147.552-60.0919C147.552-63.5575 144.797-66.3124 141.332-66.3124L102.608-66.3124C99.062-66.3124 96.3538-63.7988 96.3538-59.5757L96.3538-27.5549L86.0244-27.5549C80.5277-27.5549 75.8558-29.5056 73.228-33.7754C72.5847-34.7741 72.5847-36.2086 73.7442-37.5627L89.2487-55.9025C92.8415-60.1723 90.0062-66.3124 84.704-66.3124L62.8986-66.3124C59.4666-66.3124 56.6781-63.5575 56.6781-60.0919C56.6781-56.5459 59.3862-53.8246 62.8986-53.8246L71.7935-53.8246L62.704-43.1061C56.2423-35.4848 50.4576-30.1022 40.8519-25.7987L31.394-21.6093L34.3097-32.0996C35.3084-35.5316 33.0697-38.9168 29.8791-39.6742C26.4939-40.4784 23.0619-38.481 22.2241-35.2099L16.3589-12.3253C14.7636-6.13852 20.193-3.02827 25.5756-5.38106L45.1554-14.0011C47.0593-14.839 48.1852-14.7585 49.7001-13.5653C56.0347-8.21637 66.0892-4.58993 79.8506-4.58993ZM146.554-18.5795L191.417-18.5795C194.883-18.5795 197.718-21.3681 197.718-24.8804C197.718-28.3124 194.883-31.1009 191.417-31.1009L145.957-31.1009C145.521-31.1009 144.925-31.1009 144.248-31.0205L118.872-28.9427L119.71-22.8699C120.192-19.3706 120.065-16.0528 119.295-13.0903Z"/>
  </g>
  <g id="Thin-L" transform="matrix(1 0 0 1 752.462 1556)">
   <path d="M38.9474-41.3096C45.9564-41.3096 51.5728-46.9261 51.5728-53.935C51.5728-60.8635 45.9564-66.4884 38.9474-66.4884C32.019-66.4884 26.4025-60.8635 26.4025-53.935C26.4025-46.9261 32.019-41.3096 38.9474-41.3096ZM77.806-5.52387L94.4861-5.52387C108.39-5.52387 112.301-13.409 111.158-22.4537L107.255-53.1179L137.268-53.1179C140.607-53.1179 143.286-55.869 143.286-59.2084C143.286-62.5478 140.607-65.227 137.268-65.227L99.7809-65.227C96.3611-65.227 93.7539-62.7891 93.7539-58.7175L93.7539-27.7316L83.7526-27.7316C78.4578-27.7316 73.9121-29.6066 71.3854-33.7502C70.742-34.7236 70.742-36.1076 71.8763-37.4112L86.8508-55.1452C90.3426-59.2888 87.583-65.227 82.4575-65.227L61.3841-65.227C58.0531-65.227 55.3655-62.5478 55.3655-59.2084C55.3655-55.7886 57.9727-53.1179 61.3841-53.1179L70.0014-53.1179L61.2148-42.778C54.955-35.3839 49.3469-30.1779 40.0694-26.0259L30.8891-21.9627L33.7291-32.1249C34.7026-35.4559 32.5144-38.7148 29.4247-39.447C26.1657-40.2512 22.8348-38.3043 22.0221-35.1342L16.3337-13.0069C14.7888-6.99674 20.0667-3.98746 25.2727-6.26452L44.2214-14.6321C46.0244-15.4448 47.1503-15.3644 48.6147-14.2216C54.7221-9.02411 64.4738-5.52387 77.806-5.52387ZM142.313-19.0339L185.738-19.0339C189.077-19.0339 191.837-21.7215 191.837-25.1329C191.837-28.4638 189.077-31.1514 185.738-31.1514L141.742-31.1514C141.331-31.1514 140.76-31.1514 140.108-31.071L115.187-29.0436L115.999-23.1224C116.482-19.7745 116.329-16.5324 115.534-13.6204Z"/>
  </g>
  <g id="Ultralight-L" transform="matrix(1 0 0 1 457.257 1556)">
   <path d="M38.4174-41.2967C45.2841-41.2967 50.7971-46.8097 50.7971-53.6764C50.7971-60.4627 45.2841-65.9712 38.4174-65.9712C31.6311-65.9712 26.1181-60.4627 26.1181-53.6764C26.1181-46.8097 31.6311-41.2967 38.4174-41.2967ZM76.7588-6.00224L93.1416-6.00224C106.813-6.00224 110.646-13.758 109.529-22.6218L105.691-52.7559L135.186-52.7559C138.461-52.7559 141.101-55.4812 141.101-58.7559C141.101-62.0307 138.461-64.6711 135.186-64.6711L98.3329-64.6711C94.9777-64.6711 92.4223-62.2719 92.4223-58.2779L92.4223-27.8221L82.589-27.8221C77.3977-27.8221 72.9166-29.6583 70.4416-33.7372C69.7982-34.6978 69.7982-36.0559 70.9196-37.3337L85.6225-54.7574C89.0626-58.8363 86.3418-64.6711 81.3068-64.6711L60.6083-64.6711C57.3291-64.6711 54.6932-62.0307 54.6932-58.7559C54.6932-55.4007 57.2487-52.7559 60.6083-52.7559L69.0834-52.7559L60.452-42.6099C54.2956-35.3322 48.7781-30.2167 39.6686-26.1423L30.6306-22.1437L33.4318-32.1378C34.3923-35.4171 32.23-38.6114 29.192-39.3307C25.9977-40.1349 22.7184-38.2138 21.9187-35.0954L16.3208-13.3559C14.8018-7.43632 20.0021-4.47875 25.1175-6.71703L43.7431-14.9554C45.4943-15.7551 46.6202-15.6746 48.0588-14.5577C54.0498-9.43783 63.6463-6.00224 76.7588-6.00224ZM140.141-19.2666L182.829-19.2666C186.104-19.2666 188.825-21.9025 188.825-25.2621C188.825-28.5414 186.104-31.1773 182.829-31.1773L139.583-31.1773C139.185-31.1773 138.626-31.1773 137.988-31.0969L113.299-29.0953L114.099-23.2516C114.581-19.9814 114.416-16.7781 113.607-13.8919Z"/>
  </g>
  <g id="Black-M" transform="matrix(1 0 0 1 2842.07 1126)">
   <path d="M33.3859-39.8248C40.1748-39.8248 45.7168-45.3668 45.7168-52.1557C45.7168-58.9394 40.1748-64.4869 33.3859-64.4869C26.6022-64.4869 21.0602-58.9394 21.0602-52.1557C21.0602-45.3668 26.6022-39.8248 33.3859-39.8248ZM68.1885-7.57205L82.9714-7.57205C96.0653-7.57205 99.8882-15.3834 98.8337-23.9748L95.5872-49.8014L120.796-49.8014C124.405-49.8014 127.22-52.673 127.22-56.2827C127.22-59.8923 124.405-62.7071 120.796-62.7071L87.6361-62.7071C84.0783-62.7071 81.1491-60.1364 81.1491-55.8462L81.1491-29.5992L73.4713-29.5992C68.9779-29.5992 65.5756-31.0486 63.4509-34.3678C63.1237-34.8926 63.0666-35.3918 63.7731-36.2284L77.1225-51.998C80.7942-56.345 77.86-62.7071 72.3547-62.7071L54.4599-62.7071C50.8557-62.7071 47.9212-59.8923 47.9212-56.2827C47.9212-52.6107 50.7934-49.8014 54.4599-49.8014L58.7836-49.8014L52.674-42.4915C47.2045-35.973 42.4103-31.6045 34.3226-27.9943L28.4779-25.3655L29.9328-30.4843C30.9714-34.0314 28.5931-37.5788 25.2329-38.3163C21.7426-39.1677 18.2526-37.0334 17.3957-33.7251L12.7675-15.6999C11.1731-9.45226 16.7403-6.04019 22.1937-8.42925L38.9034-15.758C40.3532-16.3865 40.6545-16.3242 41.6728-15.5552C47.3086-10.7925 56.1072-7.57205 68.1885-7.57205ZM125.382-19.6177L163.705-19.6177C167.315-19.6177 170.192-22.495 170.192-26.1044C170.192-29.7086 167.315-32.586 163.705-32.586L124.769-32.586C124.338-32.586 123.782-32.586 123.164-32.5237L104.047-30.898L104.904-24.8323C105.392-21.5026 105.215-18.3088 104.427-15.4268Z"/>
  </g>
  <g id="Heavy-M" transform="matrix(1 0 0 1 2546.66 1126)">
   <path d="M33.0655-39.8627C39.6511-39.8627 44.9974-45.209 44.9974-51.7946C44.9974-58.3616 39.6511-63.7243 33.0655-63.7243C26.4985-63.7243 21.1522-58.3616 21.1522-51.7946C21.1522-45.209 26.4985-39.8627 33.0655-39.8627ZM67.1864-8.27301L81.7758-8.27301C94.5137-8.27301 98.2135-15.7893 97.1776-24.1563L93.9304-49.9319L119.104-49.9319C122.526-49.9319 125.198-52.6502 125.198-56.0719C125.198-59.4936 122.526-62.166 119.104-62.166L86.3931-62.166C82.9963-62.166 80.2389-59.7242 80.2389-55.638L80.2389-29.4823L72.4058-29.4823C67.9193-29.4823 64.4355-30.9645 62.3075-34.3114C61.9399-34.901 61.8963-35.5567 62.6541-36.4556L75.8151-52.0022C79.3014-56.1342 76.5231-62.166 71.3052-62.166L53.471-62.166C50.0657-62.166 47.2897-59.4936 47.2897-56.0719C47.2897-52.5879 50.0034-49.9319 53.471-49.9319L58.4674-49.9319L52.065-42.2965C46.6564-35.8684 41.8936-31.5043 33.8796-27.923L27.6183-25.1183L29.2811-31.0259C30.2633-34.3876 28.0248-37.747 24.85-38.455C21.5342-39.2525 18.2161-37.2446 17.4022-34.0947L12.7515-15.9576C11.2295-10.0108 16.512-6.81108 21.7049-9.08468L38.2025-16.3205C39.6824-16.9599 40.1185-16.8976 41.1855-16.0798C46.704-11.4268 55.3372-8.27301 67.1864-8.27301ZM123.605-20.1488L161.432-20.1488C164.854-20.1488 167.588-22.8812 167.588-26.3052C167.588-29.7105 164.854-32.4429 161.432-32.4429L123.022-32.4429C122.607-32.4429 122.067-32.4429 121.465-32.3806L102.11-30.7465L102.924-24.9657C103.385-21.7456 103.234-18.6808 102.496-15.9251Z"/>
  </g>
  <g id="Bold-M" transform="matrix(1 0 0 1 2251.41 1126)">
   <path d="M32.707-39.905C39.0652-39.905 44.1927-45.0325 44.1927-51.3907C44.1927-57.7152 39.0652-62.8713 32.707-62.8713C26.3826-62.8713 21.2551-57.7152 21.2551-51.3907C21.2551-45.0325 26.3826-39.905 32.707-39.905ZM66.0654-9.05715L80.4382-9.05715C92.778-9.05715 96.34-16.2434 95.3249-24.3593L92.077-50.0779L117.211-50.0779C120.423-50.0779 122.936-52.6247 122.936-55.8361C122.936-59.0476 120.423-61.5607 117.211-61.5607L85.0025-61.5607C81.7858-61.5607 79.2208-59.2631 79.2208-55.4051L79.2208-29.3516L71.2138-29.3516C66.7352-29.3516 63.1601-30.8705 61.0285-34.2482C60.6157-34.9103 60.5872-35.7412 61.4024-36.7097L74.3525-52.0068C77.6314-55.8984 75.0275-61.5607 70.1312-61.5607L52.3649-61.5607C49.182-61.5607 46.5833-59.0476 46.5833-55.8361C46.5833-52.5624 49.1197-50.0779 52.3649-50.0779L58.1135-50.0779L51.3837-42.0785C46.0433-35.7515 41.3155-31.3923 33.3839-27.8432L26.6567-24.8418L28.5521-31.6317C29.4711-34.786 27.3891-37.9351 24.4217-38.6101C21.3011-39.3474 18.1753-37.4808 17.4094-34.5082L12.7336-16.2459C11.2927-10.6356 16.2565-7.67344 21.1581-9.81787L37.4183-16.9497C38.9321-17.6014 39.5189-17.5391 40.6405-16.6667C46.0277-12.1363 54.4758-9.05715 66.0654-9.05715ZM121.617-20.7429L158.889-20.7429C162.1-20.7429 164.676-23.3131 164.676-26.5297C164.676-29.7126 162.1-32.2828 158.889-32.2828L121.067-32.2828C120.67-32.2828 120.148-32.2828 119.564-32.2205L99.9443-30.5771L100.71-25.1148C101.141-22.0175 101.017-19.0969 100.336-16.4826Z"/>
  </g>
  <g id="Semibold-M" transform="matrix(1 0 0 1 1955.7 1126)">
   <path d="M32.4599-39.9342C38.6613-39.9342 43.638-44.9109 43.638-51.1123C43.638-57.2696 38.6613-62.2833 32.4599-62.2833C26.3026-62.2833 21.326-57.2696 21.326-51.1123C21.326-44.9109 26.3026-39.9342 32.4599-39.9342ZM65.2925-9.59772L79.5161-9.59772C91.5814-9.59772 95.0485-16.5564 94.0477-24.4992L90.7992-50.1786L115.907-50.1786C118.973-50.1786 121.377-52.6071 121.377-55.6736C121.377-58.7401 118.973-61.1433 115.907-61.1433L84.0439-61.1433C80.9513-61.1433 78.5189-58.9452 78.5189-55.2446L78.5189-29.2615L70.392-29.2615C65.9188-29.2615 62.2808-30.8056 60.1468-34.2047C59.7028-34.9168 59.6846-35.8685 60.5395-36.8849L73.3443-52.01C76.4802-55.7359 73.9965-61.1433 69.3218-61.1433L51.6023-61.1433C48.5728-61.1433 46.0962-58.7401 46.0962-55.6736C46.0962-52.5448 48.5105-50.1786 51.6023-50.1786L57.8696-50.1786L50.9141-41.9281C45.6206-35.6708 40.917-31.3151 33.0422-27.7882L25.9938-24.6512L28.0495-32.0493C28.925-35.0606 26.9508-38.0648 24.1264-38.7171C21.1403-39.4128 18.1472-37.6436 17.4145-34.7932L12.7212-16.4446C11.3362-11.0664 16.0804-8.26795 20.7811-10.3233L36.8778-17.3835C38.4148-18.0436 39.1055-17.9813 40.2648-17.0712C45.5615-12.6254 53.882-9.59772 65.2925-9.59772ZM120.247-21.1525L157.136-21.1525C160.203-21.1525 162.668-23.6109 162.668-26.6845C162.668-29.714 160.203-32.1724 157.136-32.1724L119.719-32.1724C119.334-32.1724 118.825-32.1724 118.253-32.1101L98.451-30.4603L99.1837-25.2177C99.5938-22.2049 99.4881-19.3837 98.8476-16.8669Z"/>
  </g>
  <g id="Medium-M" transform="matrix(1 0 0 1 1659.75 1126)">
   <path d="M32.2725-39.9564C38.3551-39.9564 43.2174-44.8186 43.2174-50.9012C43.2174-56.9317 38.3551-61.8374 32.2725-61.8374C26.242-61.8374 21.3798-56.9317 21.3798-50.9012C21.3798-44.8186 26.242-39.9564 32.2725-39.9564ZM64.7066-10.0076L78.817-10.0076C90.6741-10.0076 94.0692-16.7937 93.0793-24.6053L89.8304-50.2549L114.918-50.2549C117.874-50.2549 120.194-52.5937 120.194-55.5504C120.194-58.507 117.874-60.8269 114.918-60.8269L83.317-60.8269C80.3186-60.8269 77.9867-58.7042 77.9867-55.1228L77.9867-29.1932L69.769-29.1932C65.2998-29.1932 61.6142-30.7564 59.4782-34.1717C59.0106-34.9216 59.0003-35.9649 59.8852-37.0178L72.5798-52.0124C75.6073-55.6127 73.2148-60.8269 68.7081-60.8269L51.0241-60.8269C48.1109-60.8269 45.727-58.507 45.727-55.5504C45.727-52.5314 48.0486-50.2549 51.0241-50.2549L57.6847-50.2549L50.558-41.8142C45.3001-35.6097 40.6148-31.2566 32.7831-27.7465L25.4911-24.5066L27.6684-32.366C28.5109-35.2689 26.6185-38.1632 23.9025-38.7982C21.0185-39.4623 18.1258-37.7671 17.4183-35.0094L12.7118-16.5953C11.3692-11.393 15.9468-8.71873 20.4952-10.7066L36.4679-17.7124C38.0226-18.3789 38.7921-18.3166 39.9798-17.378C45.208-12.9963 53.4317-10.0076 64.7066-10.0076ZM119.208-21.4631L155.807-21.4631C158.763-21.4631 161.146-23.8367 161.146-26.8019C161.146-29.7151 158.763-32.0887 155.807-32.0887L118.697-32.0887C118.322-32.0887 117.822-32.0887 117.259-32.0264L97.3187-30.3717L98.0262-25.2957C98.4206-22.347 98.3292-19.6012 97.7187-17.1584Z"/>
  </g>
  <g id="Regular-M" transform="matrix(1 0 0 1 1364.03 1126)">
   <path d="M32.0281-39.9852C37.9556-39.9852 42.6687-44.6983 42.6687-50.6258C42.6687-56.491 37.9556-61.2558 32.0281-61.2558C26.163-61.2558 21.4499-56.491 21.4499-50.6258C21.4499-44.6983 26.163-39.9852 32.0281-39.9852ZM63.9422-10.5422L77.905-10.5422C89.4907-10.5422 92.7918-17.1033 91.8161-24.7437L88.5667-50.3545L113.627-50.3545C116.441-50.3545 118.652-52.5763 118.652-55.3896C118.652-58.2029 116.441-60.4142 113.627-60.4142L82.3689-60.4142C79.4933-60.4142 77.2925-58.3898 77.2925-54.964L77.2925-29.104L68.9563-29.104C64.4924-29.104 60.7446-30.6923 58.6061-34.1286C58.1077-34.928 58.1077-36.0907 59.0317-37.1911L71.5826-52.0156C74.4687-55.4519 72.1951-60.4142 67.9076-60.4142L50.2699-60.4142C47.5084-60.4142 45.2453-58.2029 45.2453-55.3896C45.2453-52.514 47.4461-50.3545 50.2699-50.3545L57.4435-50.3545L50.0935-41.6655C44.882-35.53 40.2207-31.1802 32.4452-27.6921L24.8355-24.3181L27.1714-32.779C27.9708-35.5405 26.1851-38.2915 23.6105-38.904C20.8595-39.527 18.098-37.9282 17.4232-35.2913L12.6996-16.7918C11.4123-11.819 15.7726-9.3067 20.1224-11.2065L35.9332-18.1414C37.511-18.8162 38.3832-18.7539 39.6082-17.7781C44.7469-13.4801 52.8445-10.5422 63.9422-10.5422ZM117.852-21.8681L154.073-21.8681C156.886-21.8681 159.16-24.1312 159.16-26.955C159.16-29.7165 156.886-31.9796 154.073-31.9796L117.365-31.9796C117.001-31.9796 116.513-31.9796 115.963-31.9173L95.8418-30.2562L96.5166-25.3974C96.8904-22.5324 96.8175-19.8849 96.2463-17.5385Z"/>
  </g>
  <g id="Light-M" transform="matrix(1 0 0 1 1069.32 1126)">
   <path d="M31.3266-39.9681C37.0659-39.9681 41.642-44.5443 41.642-50.2836C41.642-55.9605 37.0659-60.5714 31.3266-60.5714C25.6496-60.5714 21.0735-55.9605 21.0735-50.2836C21.0735-44.5443 25.6496-39.9681 31.3266-39.9681ZM62.5563-11.1753L76.1255-11.1753C87.4032-11.1753 90.6016-17.5653 89.6601-24.9661L86.4963-49.8754L110.872-49.8754C113.6-49.8754 115.76-52.063 115.76-54.7907C115.76-57.5184 113.6-59.6784 110.872-59.6784L80.4524-59.6784C77.6624-59.6784 75.5301-57.7053 75.5301-54.3822L75.5301-29.2238L67.4163-29.2238C63.0893-29.2238 59.4271-30.7607 57.357-34.1115C56.8586-34.8938 56.8586-36.0223 57.7655-37.0884L69.9571-51.5023C72.7747-54.853 70.5525-59.6784 66.3848-59.6784L49.2432-59.6784C46.5501-59.6784 44.3555-57.5184 44.3555-54.7907C44.3555-52.0007 46.4878-49.8754 49.2432-49.8754L56.2286-49.8754L49.084-41.443C44.0094-35.4615 39.4678-31.2315 31.9147-27.8461L24.4932-24.5577L26.7778-32.7961C27.5601-35.4892 25.8086-38.1546 23.3025-38.75C20.6371-39.373 17.944-37.8084 17.2863-35.24L12.6825-17.2538C11.4294-12.4008 15.6871-9.95692 19.9171-11.8054L35.3001-18.5692C36.8094-19.2269 37.6817-19.1646 38.8724-18.223C43.8571-14.0277 51.7494-11.1753 62.5563-11.1753ZM114.978-22.1761L150.223-22.1761C152.951-22.1761 155.173-24.3708 155.173-27.1261C155.173-29.8192 152.951-32.0138 150.223-32.0138L114.507-32.0138C114.161-32.0138 113.69-32.0138 113.157-31.9515L93.3436-30.3246L94.0013-25.5685C94.3751-22.8062 94.2851-20.2101 93.6967-17.8978Z"/>
  </g>
  <g id="Thin-M" transform="matrix(1 0 0 1 775.242 1126)">
   <path d="M30.3987-39.9455C35.8891-39.9455 40.2842-44.3406 40.2842-49.831C40.2842-55.259 35.8891-59.6661 30.3987-59.6661C24.9707-59.6661 20.5756-55.259 20.5756-49.831C20.5756-44.3406 24.9707-39.9455 30.3987-39.9455ZM60.7232-12.0127L73.7719-12.0127C84.6422-12.0127 87.7049-18.1764 86.8086-25.2603L83.758-49.2417L107.229-49.2417C109.843-49.2417 111.936-51.3841 111.936-53.9986C111.936-56.6132 109.843-58.7053 107.229-58.7053L77.9178-58.7053C75.241-58.7053 73.1992-56.8001 73.1992-53.6128L73.1992-29.3822L65.3795-29.3822C61.2336-29.3822 57.6845-30.8513 55.705-34.0889C55.2066-34.8485 55.2066-35.9317 56.0908-36.9526L67.8072-50.8234C70.5343-54.061 68.3799-58.7053 64.3706-58.7053L47.8854-58.7053C45.2828-58.7053 43.1787-56.6132 43.1787-53.9986C43.1787-51.3218 45.2205-49.2417 47.8854-49.2417L54.6218-49.2417L47.7488-41.1488C42.8552-35.371 38.4721-31.2994 31.2132-28.0498L24.0406-24.8745L26.2573-32.8187C27.017-35.4213 25.3108-37.9735 22.8951-38.5463C20.3429-39.1693 17.7403-37.65 17.1053-35.1721L12.6599-17.8648C11.4521-13.1702 15.5739-10.8169 19.6455-12.5974L34.4628-19.135C35.8816-19.77 36.7538-19.7077 37.8993-18.8114C42.6803-14.7518 50.301-12.0127 60.7232-12.0127ZM111.176-22.5835L145.131-22.5835C147.746-22.5835 149.9-24.6876 149.9-27.3524C149.9-29.955 147.746-32.0591 145.131-32.0591L110.728-32.0591C110.404-32.0591 109.956-32.0591 109.446-31.9968L90.0395-30.4151L90.6746-25.7948C91.0484-23.1683 90.9358-20.64 90.3248-18.373Z"/>
  </g>
  <g id="Ultralight-M" transform="matrix(1 0 0 1 479.881 1126)">
   <path d="M29.9235-39.9339C35.2863-39.9339 39.5887-44.2363 39.5887-49.5991C39.5887-54.8997 35.2863-59.2025 29.9235-59.2025C24.623-59.2025 20.3206-54.8997 20.3206-49.5991C20.3206-44.2363 24.623-39.9339 29.9235-39.9339ZM59.7843-12.4416L72.5664-12.4416C83.2281-12.4416 86.2212-18.4893 85.3481-25.411L82.3554-48.9172L105.363-48.9172C107.919-48.9172 109.977-51.0364 109.977-53.593C109.977-56.1495 107.919-58.2069 105.363-58.2069L76.6196-58.2069C74.0007-58.2069 72.0053-56.3365 72.0053-53.2187L72.0053-29.4634L64.3363-29.4634C60.2831-29.4634 56.792-30.8976 54.8588-34.0773C54.3604-34.8254 54.3604-35.8854 55.2331-36.8831L66.706-50.4756C69.3868-53.6553 67.2672-58.2069 63.339-58.2069L47.1899-58.2069C44.6337-58.2069 42.576-56.1495 42.576-53.593C42.576-50.9741 44.5714-48.9172 47.1899-48.9172L53.7988-48.9172L47.0649-40.9981C42.264-35.3246 37.9621-31.3342 30.8539-28.1541L23.8088-25.0368L25.9907-32.8303C26.7388-35.3865 25.0557-37.8808 22.6865-38.442C20.1922-39.065 17.636-37.5689 17.0125-35.1373L12.6483-18.1778C11.4636-13.5643 15.516-11.2573 19.5064-13.0031L34.0339-19.4247C35.4063-20.0482 36.2786-19.9859 37.4009-19.1128C42.0775-15.1228 49.5592-12.4416 59.7843-12.4416ZM109.229-22.7921L142.523-22.7921C145.08-22.7921 147.199-24.8499 147.199-27.4684C147.199-30.0245 145.08-32.0823 142.523-32.0823L108.792-32.0823C108.48-32.0823 108.043-32.0823 107.545-32.02L88.3472-30.4615L88.9707-25.9107C89.3445-23.3537 89.2203-20.8603 88.5977-18.6165Z"/>
  </g>
  <g id="Black-S" transform="matrix(1 0 0 1 2861.55 696)">
   <path d="M26.2207-38.8184C31.5918-38.8184 35.9863-43.2129 35.9863-48.584C35.9863-53.9551 31.5918-58.3496 26.2207-58.3496C20.8496-58.3496 16.4551-53.9551 16.4551-48.584C16.4551-43.2129 20.8496-38.8184 26.2207-38.8184ZM53.6621-13.3789L65.2832-13.3789C75.6348-13.3789 78.6621-19.5801 77.832-26.3672L75.293-46.582L95.0195-46.582C97.9004-46.582 100.146-48.877 100.146-51.7578C100.146-54.6387 97.9004-56.8848 95.0195-56.8848L68.9453-56.8848C66.1133-56.8848 63.7695-54.834 63.7695-51.416L63.7695-30.8594L57.8125-30.8594C54.2969-30.8594 51.6602-31.9824 50-34.5703C49.7559-34.9609 49.707-35.3027 50.2441-35.9375L60.7422-48.3398C63.6719-51.8066 61.3281-56.8848 56.9336-56.8848L42.9199-56.8848C40.0391-56.8848 37.6953-54.6387 37.6953-51.7578C37.6953-48.8281 39.9902-46.582 42.9199-46.582L46.0938-46.582L41.4062-40.9668C37.1094-35.8398 33.3496-32.4219 27.002-29.5898L22.5586-27.5879L23.6328-31.3477C24.4629-34.1797 22.5586-37.0117 19.873-37.5977C17.0898-38.2812 14.3066-36.5723 13.623-33.9355L10.0098-19.873C8.74023-14.8926 13.1836-12.1582 17.5293-14.0625L30.6641-19.8242C31.7871-20.3125 31.9824-20.2637 32.7637-19.6777C37.207-15.918 44.1406-13.3789 53.6621-13.3789ZM98.6328-22.8516L128.76-22.8516C131.641-22.8516 133.936-25.1465 133.936-28.0273C133.936-30.9082 131.641-33.2031 128.76-33.2031L98.1445-33.2031C97.8027-33.2031 97.3633-33.2031 96.875-33.1543L81.9824-31.8848L82.666-27.0508C83.0566-24.4141 82.9102-21.875 82.2754-19.5801Z"/>
  </g>
  <g id="Heavy-S" transform="matrix(1 0 0 1 2565.7 696)">
   <path d="M26.0363-38.8529C31.2576-38.8529 35.5023-43.0976 35.5023-48.3189C35.5023-53.5287 31.2576-57.7849 26.0363-57.7849C20.8266-57.7849 16.5818-53.5287 16.5818-48.3189C16.5818-43.0976 20.8266-38.8529 26.0363-38.8529ZM52.9822-13.8975L64.488-13.8975C74.5745-13.8975 77.5097-19.8682 76.6911-26.494L74.1405-46.7549L93.9247-46.7549C96.6557-46.7549 98.7866-48.9231 98.7866-51.6541C98.7866-54.3851 96.6557-56.516 93.9247-56.516L68.1271-56.516C65.4218-56.516 63.2164-54.5689 63.2164-51.3123L63.2164-30.7441L57.098-30.7441C53.5708-30.7441 50.8534-31.9018 49.1818-34.5242C48.903-34.9725 48.8657-35.4526 49.449-36.1449L59.8318-48.409C62.6116-51.7029 60.3946-56.516 56.2306-56.516L42.2054-56.516C39.4859-56.516 37.2689-54.3851 37.2689-51.6541C37.2689-48.8742 39.4371-46.7549 42.2054-46.7549L45.9785-46.7549L41.0144-40.8285C36.7521-35.7592 33.0039-32.3297 26.6908-29.5092L21.8671-27.3459L23.1257-31.8086C23.9097-34.4908 22.1207-37.1731 19.5849-37.7359C16.94-38.3734 14.2951-36.7682 13.6461-34.2582L9.99824-20.0344C8.78633-15.2959 12.9992-12.7344 17.1375-14.5465L30.1455-20.2506C31.3031-20.7504 31.6136-20.7016 32.441-20.0696C36.8037-16.3905 43.622-13.8975 52.9822-13.8975ZM97.4804-23.2664L127.308-23.2664C130.039-23.2664 132.218-25.4461 132.218-28.1772C132.218-30.8967 130.039-33.0764 127.308-33.0764L97.0151-33.0764C96.6849-33.0764 96.2569-33.0764 95.7802-33.0275L80.6456-31.7465L81.2946-27.143C81.6622-24.5869 81.5387-22.1516 80.9501-19.9604Z"/>
  </g>
  <g id="Bold-S" transform="matrix(1 0 0 1 2269.95 696)">
   <path d="M25.8301-38.8916C30.8838-38.8916 34.9609-42.9688 34.9609-48.0225C34.9609-53.0518 30.8838-57.1533 25.8301-57.1533C20.8008-57.1533 16.7236-53.0518 16.7236-48.0225C16.7236-42.9688 20.8008-38.8916 25.8301-38.8916ZM52.2217-14.4775L63.5986-14.4775C73.3887-14.4775 76.2207-20.1904 75.415-26.6357L72.8516-46.9482L92.7002-46.9482C95.2637-46.9482 97.2656-48.9746 97.2656-51.5381C97.2656-54.1016 95.2637-56.1035 92.7002-56.1035L67.2119-56.1035C64.6484-56.1035 62.5977-54.2725 62.5977-51.1963L62.5977-30.6152L56.2988-30.6152C52.7588-30.6152 49.9512-31.8115 48.2666-34.4727C47.9492-34.9854 47.9248-35.6201 48.5596-36.377L58.8135-48.4863C61.4258-51.5869 59.3506-56.1035 55.4443-56.1035L41.4062-56.1035C38.8672-56.1035 36.792-54.1016 36.792-51.5381C36.792-48.9258 38.8184-46.9482 41.4062-46.9482L45.8496-46.9482L40.5762-40.6738C36.3525-35.6689 32.6172-32.2266 26.3428-29.4189L21.0938-27.0752L22.5586-32.3242C23.291-34.8389 21.6309-37.3535 19.2627-37.8906C16.7725-38.4766 14.2822-36.9873 13.6719-34.6191L9.98535-20.2148C8.83789-15.7471 12.793-13.3789 16.6992-15.0879L29.5654-20.7275C30.7617-21.2402 31.2012-21.1914 32.0801-20.5078C36.3525-16.9189 43.042-14.4775 52.2217-14.4775ZM96.1914-23.7305L125.684-23.7305C128.247-23.7305 130.298-25.7812 130.298-28.3447C130.298-30.8838 128.247-32.9346 125.684-32.9346L95.752-32.9346C95.4346-32.9346 95.0195-32.9346 94.5557-32.8857L79.1504-31.5918L79.7607-27.2461C80.1025-24.7803 80.0049-22.4609 79.4678-20.3857Z"/>
  </g>
  <g id="Semibold-S" transform="matrix(1 0 0 1 1973.9 696)">
   <path d="M25.6879-38.9183C30.6261-38.9183 34.5877-42.8799 34.5877-47.8181C34.5877-52.7229 30.6261-56.7179 25.6879-56.7179C20.783-56.7179 16.8214-52.7229 16.8214-47.8181C16.8214-42.8799 20.783-38.9183 25.6879-38.9183ZM51.6974-14.8774L62.9854-14.8774C72.5711-14.8774 75.332-20.4126 74.5353-26.7335L71.9629-47.0815L91.856-47.0815C94.3039-47.0815 96.217-49.0102 96.217-51.4581C96.217-53.9061 94.3039-55.8191 91.856-55.8191L66.581-55.8191C64.1152-55.8191 62.1711-54.0681 62.1711-51.1163L62.1711-30.5264L55.7479-30.5264C52.1989-30.5264 49.3291-31.7493 47.6356-34.4371C47.2916-34.9942 47.2761-35.7356 47.9464-36.5369L58.1114-48.5396C60.6082-51.5069 58.6308-55.8191 54.9022-55.8191L40.8553-55.8191C38.4406-55.8191 36.4632-53.9061 36.4632-51.4581C36.4632-48.9613 38.3918-47.0815 40.8553-47.0815L45.7607-47.0815L40.274-40.5672C36.0771-35.6067 32.3506-32.1555 26.1028-29.3567L20.5605-26.8886L22.1676-32.6797C22.8645-35.0788 21.2932-37.4779 19.0405-37.9973C16.6569-38.5477 14.2733-37.1384 13.6896-34.868L9.97646-20.3393C8.87344-16.0581 12.6508-13.8232 16.3971-15.4611L29.1655-21.0563C30.3885-21.5779 30.9168-21.5291 31.8313-20.81C36.0415-17.2833 42.6421-14.8774 51.6974-14.8774ZM95.3027-24.0504L124.564-24.0504C127.012-24.0504 128.974-26.0123 128.974-28.4603C128.974-30.8749 127.012-32.8368 124.564-32.8368L94.8811-32.8368C94.5726-32.8368 94.1664-32.8368 93.7114-32.788L78.1195-31.4852L78.7032-27.3172C79.0272-24.9136 78.9474-22.6742 78.4458-20.679Z"/>
  </g>
  <g id="Medium-S" transform="matrix(1 0 0 1 1677.69 696)">
   <path d="M25.5801-38.9385C30.4307-38.9385 34.3047-42.8125 34.3047-47.6631C34.3047-52.4736 30.4307-56.3877 25.5801-56.3877C20.7695-56.3877 16.8955-52.4736 16.8955-47.6631C16.8955-42.8125 20.7695-38.9385 25.5801-38.9385ZM51.2998-15.1807L62.5205-15.1807C71.9512-15.1807 74.6582-20.5811 73.8682-26.8076L71.2891-47.1826L91.2158-47.1826C93.5762-47.1826 95.4219-49.0371 95.4219-51.3975C95.4219-53.7578 93.5762-55.6035 91.2158-55.6035L66.1025-55.6035C63.7109-55.6035 61.8477-53.9131 61.8477-51.0557L61.8477-30.459L55.3301-30.459C51.7744-30.459 48.8574-31.7021 47.1572-34.4102C46.793-35.001 46.7842-35.8232 47.4814-36.6582L57.5791-48.5801C59.9883-51.4463 58.085-55.6035 54.4912-55.6035L40.4375-55.6035C38.1172-55.6035 36.2139-53.7578 36.2139-51.3975C36.2139-48.9883 38.0684-47.1826 40.4375-47.1826L45.6934-47.1826L40.0449-40.4863C35.8682-35.5596 32.1484-32.1016 25.9209-29.3096L20.1562-26.7471L21.8711-32.9492C22.541-35.2607 21.0371-37.5723 18.8721-38.0781C16.5693-38.6016 14.2666-37.2529 13.7031-35.0566L9.96973-20.4336C8.90039-16.2939 12.543-14.1602 16.168-15.7441L28.8623-21.3057C30.1055-21.834 30.7012-21.7852 31.6426-21.0391C35.8057-17.5596 42.3389-15.1807 51.2998-15.1807ZM94.6289-24.293L123.715-24.293C126.075-24.293 127.97-26.1875 127.97-28.5479C127.97-30.8682 126.075-32.7627 123.715-32.7627L94.2207-32.7627C93.9189-32.7627 93.5195-32.7627 93.0713-32.7139L77.3379-31.4043L77.9014-27.3711C78.2119-25.0146 78.1455-22.8359 77.6709-20.9014Z"/>
  </g>
  <g id="Regular-S" transform="matrix(1 0 0 1 1381.63 696)">
   <path d="M25.4395-38.9648C30.1758-38.9648 33.9355-42.7246 33.9355-47.4609C33.9355-52.1484 30.1758-55.957 25.4395-55.957C20.752-55.957 16.9922-52.1484 16.9922-47.4609C16.9922-42.7246 20.752-38.9648 25.4395-38.9648ZM50.7812-15.5762L61.9141-15.5762C71.1426-15.5762 73.7793-20.8008 72.998-26.9043L70.4102-47.3145L90.3809-47.3145C92.627-47.3145 94.3848-49.0723 94.3848-51.3184C94.3848-53.5645 92.627-55.3223 90.3809-55.3223L65.4785-55.3223C63.1836-55.3223 61.4258-53.7109 61.4258-50.9766L61.4258-30.3711L54.7852-30.3711C51.2207-30.3711 48.2422-31.6406 46.5332-34.375C46.1426-35.0098 46.1426-35.9375 46.875-36.8164L56.8848-48.6328C59.1797-51.3672 57.373-55.3223 53.9551-55.3223L39.8926-55.3223C37.6953-55.3223 35.8887-53.5645 35.8887-51.3184C35.8887-49.0234 37.6465-47.3145 39.8926-47.3145L45.6055-47.3145L39.7461-40.3809C35.5957-35.498 31.8848-32.0312 25.6836-29.248L19.6289-26.5625L21.4844-33.3008C22.1191-35.498 20.7031-37.6953 18.6523-38.1836C16.4551-38.6719 14.2578-37.4023 13.7207-35.3027L9.96094-20.5566C8.93555-16.6016 12.4023-14.5996 15.8691-16.1133L28.4668-21.6309C29.7363-22.168 30.4199-22.1191 31.3965-21.3379C35.498-17.9199 41.9434-15.5762 50.7812-15.5762ZM93.75-24.6094L122.607-24.6094C124.854-24.6094 126.66-26.416 126.66-28.6621C126.66-30.8594 124.854-32.666 122.607-32.666L93.3594-32.666C93.0664-32.666 92.6758-32.666 92.2363-32.6172L76.3184-31.2988L76.8555-27.4414C77.1484-25.1465 77.0996-23.0469 76.6602-21.1914Z"/>
  </g>
  <g id="Light-S" transform="matrix(1 0 0 1 1086.68 696)">
   <path d="M24.8189-38.9497C29.3887-38.9497 33.0274-42.5884 33.0274-47.1582C33.0274-51.6792 29.3887-55.3516 24.8189-55.3516C20.2979-55.3516 16.6592-51.6792 16.6592-47.1582C16.6592-42.5884 20.2979-38.9497 24.8189-38.9497ZM49.5552-16.1362L60.3399-16.1362C69.2959-16.1362 71.8418-21.2095 71.0908-27.1011L68.5786-46.8906L87.9439-46.8906C90.1143-46.8906 91.8267-48.6182 91.8267-50.7886C91.8267-52.959 90.1143-54.6714 87.9439-54.6714L63.7832-54.6714C61.564-54.6714 59.8667-53.1055 59.8667-50.4619L59.8667-30.477L53.4229-30.477C49.9795-30.477 47.0767-31.7012 45.4282-34.3599C45.0376-34.9795 45.0376-35.877 45.7549-36.7256L55.4468-48.1787C57.6812-50.8374 55.9199-54.6714 52.6079-54.6714L38.9844-54.6714C36.8477-54.6714 35.1016-52.959 35.1016-50.7886C35.1016-48.5693 36.7988-46.8906 38.9844-46.8906L44.5308-46.8906L38.853-40.1841C34.8237-35.4375 31.2188-32.0767 25.2144-29.3843L19.3262-26.7744L21.1362-33.3159C21.7559-35.4526 20.3701-37.5742 18.3799-38.0474C16.2583-38.5356 14.1216-37.2964 13.5996-35.2573L9.9458-20.9653C8.95068-17.1162 12.3267-15.1748 15.6875-16.6431L27.9067-22.0093C29.1157-22.5312 29.7993-22.4824 30.7456-21.7314C34.7109-18.4043 40.9746-16.1362 49.5552-16.1362ZM91.2071-24.8818L119.202-24.8818C121.372-24.8818 123.133-26.6279 123.133-28.8135C123.133-30.9502 121.372-32.6963 119.202-32.6963L90.8316-32.6963C90.5537-32.6963 90.1782-32.6963 89.7539-32.6475L74.1084-31.3594L74.6304-27.5928C74.9234-25.3887 74.8594-23.3345 74.4048-21.5093Z"/>
  </g>
  <g id="Thin-S" transform="matrix(1 0 0 1 792.305 696)">
   <path d="M23.9981-38.9297C28.3477-38.9297 31.8262-42.4082 31.8262-46.7578C31.8262-51.0586 28.3477-54.5508 23.9981-54.5508C19.6973-54.5508 16.2188-51.0586 16.2188-46.7578C16.2188-42.4082 19.6973-38.9297 23.9981-38.9297ZM47.9336-16.8769L58.2578-16.8769C66.8535-16.8769 69.2793-21.75 68.5684-27.3613L66.1563-46.3301L84.7207-46.3301C86.7911-46.3301 88.4434-48.0176 88.4434-50.0879C88.4434-52.1582 86.7911-53.8106 84.7207-53.8106L61.541-53.8106C59.4219-53.8106 57.8047-52.3047 57.8047-49.7813L57.8047-30.6172L51.6211-30.6172C48.3379-30.6172 45.5352-31.7812 43.9668-34.3398C43.5762-34.9395 43.5762-35.7969 44.2735-36.6055L53.5449-47.5781C55.6992-50.1367 53.9981-53.8106 50.8262-53.8106L37.7832-53.8106C35.7266-53.8106 34.0606-52.1582 34.0606-50.0879C34.0606-47.9688 35.6777-46.3301 37.7832-46.3301L43.1094-46.3301L37.6719-39.9238C33.8027-35.3574 30.3379-32.1367 24.5938-29.5645L18.9258-27.0547L20.6758-33.3359C21.2754-35.3926 19.9297-37.4141 18.0195-37.8672C15.9981-38.3555 13.9414-37.1563 13.4395-35.1973L9.92578-21.5059C8.9707-17.7969 12.2266-15.9355 15.4473-17.3437L27.166-22.5098C28.2949-23.0117 28.9785-22.9629 29.8848-22.2519C33.6699-19.0449 39.6934-16.8769 47.9336-16.8769ZM87.8438-25.2422L114.697-25.2422C116.768-25.2422 118.469-26.9082 118.469-29.0137C118.469-31.0703 116.768-32.7363 114.697-32.7363L87.4883-32.7363C87.2305-32.7363 86.875-32.7363 86.4707-32.6875L71.1856-31.4395L71.6875-27.793C71.9805-25.709 71.8965-23.7148 71.4219-21.9297Z"/>
  </g>
  <g id="Ultralight-S" transform="matrix(1 0 0 1 496.788 696)">
   <path d="M23.5777-38.9194C27.8145-38.9194 31.211-42.3159 31.211-46.5527C31.211-50.7407 27.8145-54.1406 23.5777-54.1406C19.3897-54.1406 15.9932-50.7407 15.9932-46.5527C15.9932-42.3159 19.3897-38.9194 23.5777-38.9194ZM47.1031-17.2563L57.1914-17.2563C65.6026-17.2563 67.9668-22.0268 67.2764-27.4946L64.9156-46.043L83.0699-46.043C85.0889-46.043 86.7105-47.71 86.7105-49.729C86.7105-51.7481 85.0889-53.3696 83.0699-53.3696L60.3926-53.3696C58.3247-53.3696 56.7486-51.8945 56.7486-49.4326L56.7486-30.689L50.6983-30.689C47.4971-30.689 44.7456-31.8223 43.2183-34.3296C42.8277-34.9189 42.8277-35.7559 43.5147-36.5439L52.5708-47.2705C54.6841-49.7778 53.0137-53.3696 49.9136-53.3696L37.168-53.3696C35.1524-53.3696 33.5274-51.7481 33.5274-49.729C33.5274-47.6611 35.1035-46.043 37.168-46.043L42.3814-46.043L37.0669-39.7905C33.2798-35.3164 29.8867-32.1675 24.2759-29.6567L18.7207-27.1982L20.4399-33.3462C21.0293-35.3618 19.7041-37.332 17.835-37.7749C15.8648-38.2632 13.8491-37.0845 13.3574-35.1665L9.91553-21.7827C8.98096-18.1455 12.1753-16.3252 15.3242-17.7026L26.7866-22.7661C27.8745-23.2578 28.5581-23.209 29.4439-22.5185C33.1367-19.373 39.0371-17.2563 47.1031-17.2563ZM86.1212-25.4268L112.39-25.4268C114.409-25.4268 116.08-27.0518 116.08-29.1162C116.08-31.1318 114.409-32.7568 112.39-32.7568L85.7759-32.7568C85.5284-32.7568 85.1832-32.7568 84.7891-32.708L69.6885-31.4805L70.1802-27.8955C70.4732-25.873 70.379-23.9097 69.8941-22.145Z"/>
  </g>
 </g>
</svg>
