<?xml version="1.0" encoding="UTF-8"?>
<!--Generator: Apple Native CoreSVG 175.5-->
<!DOCTYPE svg
PUBLIC "-//W3C//DTD SVG 1.1//EN"
       "http://www.w3.org/Graphics/SVG/1.1/DTD/svg11.dtd">
<svg version="1.1" xmlns="http://www.w3.org/2000/svg" xmlns:xlink="http://www.w3.org/1999/xlink" width="3300" height="2200">
 <!--glyph: "uni101309.medium", point size: 100.0, font version: "18.0d12e2", template writer version: "101"-->
 <g id="Notes">
  <rect height="2200" id="artboard" style="fill:white;opacity:1" width="3300" x="0" y="0"/>
  <line style="fill:none;stroke:black;opacity:1;stroke-width:0.5;" x1="263" x2="3036" y1="292" y2="292"/>
  <text style="stroke:none;fill:black;font-family:sans-serif;font-size:13;font-weight:bold;" transform="matrix(1 0 0 1 263 322)">Weight/Scale Variations</text>
  <text style="stroke:none;fill:black;font-family:sans-serif;font-size:13;text-anchor:middle;" transform="matrix(1 0 0 1 559.711 322)">Ultralight</text>
  <text style="stroke:none;fill:black;font-family:sans-serif;font-size:13;text-anchor:middle;" transform="matrix(1 0 0 1 856.422 322)">Thin</text>
  <text style="stroke:none;fill:black;font-family:sans-serif;font-size:13;text-anchor:middle;" transform="matrix(1 0 0 1 1153.13 322)">Light</text>
  <text style="stroke:none;fill:black;font-family:sans-serif;font-size:13;text-anchor:middle;" transform="matrix(1 0 0 1 1449.84 322)">Regular</text>
  <text style="stroke:none;fill:black;font-family:sans-serif;font-size:13;text-anchor:middle;" transform="matrix(1 0 0 1 1746.56 322)">Medium</text>
  <text style="stroke:none;fill:black;font-family:sans-serif;font-size:13;text-anchor:middle;" transform="matrix(1 0 0 1 2043.27 322)">Semibold</text>
  <text style="stroke:none;fill:black;font-family:sans-serif;font-size:13;text-anchor:middle;" transform="matrix(1 0 0 1 2339.98 322)">Bold</text>
  <text style="stroke:none;fill:black;font-family:sans-serif;font-size:13;text-anchor:middle;" transform="matrix(1 0 0 1 2636.69 322)">Heavy</text>
  <text style="stroke:none;fill:black;font-family:sans-serif;font-size:13;text-anchor:middle;" transform="matrix(1 0 0 1 2933.4 322)">Black</text>
  <line style="fill:none;stroke:black;opacity:1;stroke-width:0.5;" x1="263" x2="3036" y1="1903" y2="1903"/>
  <g transform="matrix(1 0 0 1 263 1933)">
   <path d="M9.24805 0.830078C13.5547 0.830078 17.1387-2.74414 17.1387-7.05078C17.1387-11.3574 13.5449-14.9316 9.23828-14.9316C4.94141-14.9316 1.36719-11.3574 1.36719-7.05078C1.36719-2.74414 4.95117 0.830078 9.24805 0.830078ZM9.24805-0.654297C5.70312-0.654297 2.87109-3.49609 2.87109-7.05078C2.87109-10.6055 5.69336-13.4473 9.23828-13.4473C12.793-13.4473 15.6445-10.6055 15.6445-7.05078C15.6445-3.49609 12.8027-0.654297 9.24805-0.654297ZM5.6543-7.05078C5.6543-6.62109 5.95703-6.32812 6.40625-6.32812L8.50586-6.32812L8.50586-4.20898C8.50586-3.76953 8.79883-3.4668 9.22852-3.4668C9.67773-3.4668 9.9707-3.76953 9.9707-4.20898L9.9707-6.32812L12.0898-6.32812C12.5293-6.32812 12.832-6.62109 12.832-7.05078C12.832-7.49023 12.5293-7.79297 12.0898-7.79297L9.9707-7.79297L9.9707-9.90234C9.9707-10.3516 9.67773-10.6543 9.22852-10.6543C8.79883-10.6543 8.50586-10.3516 8.50586-9.90234L8.50586-7.79297L6.40625-7.79297C5.95703-7.79297 5.6543-7.49023 5.6543-7.05078Z"/>
  </g>
  <g transform="matrix(1 0 0 1 281.867 1933)">
   <path d="M11.709 2.91016C17.1582 2.91016 21.6699-1.61133 21.6699-7.05078C21.6699-12.5 17.1484-17.0117 11.6992-17.0117C6.25977-17.0117 1.74805-12.5 1.74805-7.05078C1.74805-1.61133 6.26953 2.91016 11.709 2.91016ZM11.709 1.25C7.09961 1.25 3.41797-2.44141 3.41797-7.05078C3.41797-11.6602 7.08984-15.3516 11.6992-15.3516C16.3086-15.3516 20.0098-11.6602 20.0098-7.05078C20.0098-2.44141 16.3184 1.25 11.709 1.25ZM7.17773-7.05078C7.17773-6.57227 7.50977-6.25 8.00781-6.25L10.8789-6.25L10.8789-3.36914C10.8789-2.88086 11.2109-2.53906 11.6895-2.53906C12.1777-2.53906 12.5195-2.87109 12.5195-3.36914L12.5195-6.25L15.4004-6.25C15.8887-6.25 16.2305-6.57227 16.2305-7.05078C16.2305-7.53906 15.8887-7.88086 15.4004-7.88086L12.5195-7.88086L12.5195-10.752C12.5195-11.25 12.1777-11.5918 11.6895-11.5918C11.2109-11.5918 10.8789-11.25 10.8789-10.752L10.8789-7.88086L8.00781-7.88086C7.50977-7.88086 7.17773-7.53906 7.17773-7.05078Z"/>
  </g>
  <g transform="matrix(1 0 0 1 305.646 1933)">
   <path d="M14.9707 5.66406C21.9336 5.66406 27.6953-0.0976562 27.6953-7.05078C27.6953-14.0137 21.9238-19.7754 14.9609-19.7754C8.00781-19.7754 2.25586-14.0137 2.25586-7.05078C2.25586-0.0976562 8.01758 5.66406 14.9707 5.66406ZM14.9707 3.84766C8.93555 3.84766 4.08203-1.01562 4.08203-7.05078C4.08203-13.0957 8.92578-17.9492 14.9609-17.9492C21.0059-17.9492 25.8691-13.0957 25.8691-7.05078C25.8691-1.01562 21.0156 3.84766 14.9707 3.84766ZM9.19922-7.05078C9.19922-6.5332 9.57031-6.17188 10.1172-6.17188L14.0625-6.17188L14.0625-2.2168C14.0625-1.67969 14.4336-1.29883 14.9512-1.29883C15.4883-1.29883 15.8594-1.66992 15.8594-2.2168L15.8594-6.17188L19.8145-6.17188C20.3516-6.17188 20.7324-6.5332 20.7324-7.05078C20.7324-7.59766 20.3613-7.96875 19.8145-7.96875L15.8594-7.96875L15.8594-11.9141C15.8594-12.4609 15.4883-12.8418 14.9512-12.8418C14.4336-12.8418 14.0625-12.4609 14.0625-11.9141L14.0625-7.96875L10.1172-7.96875C9.57031-7.96875 9.19922-7.59766 9.19922-7.05078Z"/>
  </g>
  <text style="stroke:none;fill:black;font-family:sans-serif;font-size:13;font-weight:bold;" transform="matrix(1 0 0 1 263 1953)">Design Variations</text>
  <text style="stroke:none;fill:black;font-family:sans-serif;font-size:13;" transform="matrix(1 0 0 1 263 1971)">Symbols are supported in up to nine weights and three scales.</text>
  <text style="stroke:none;fill:black;font-family:sans-serif;font-size:13;" transform="matrix(1 0 0 1 263 1989)">For optimal layout with text and other symbols, vertically align</text>
  <text style="stroke:none;fill:black;font-family:sans-serif;font-size:13;" transform="matrix(1 0 0 1 263 2007)">symbols with the adjacent text.</text>
  <line style="fill:none;stroke:#00AEEF;stroke-width:0.5;opacity:1.0;" x1="776" x2="776" y1="1919" y2="1933"/>
  <g transform="matrix(1 0 0 1 776 1933)">
   <path d="M3.31055 0.15625C3.82812 0.15625 4.08203-0.0390625 4.26758-0.585938L5.52734-4.0332L11.2891-4.0332L12.5488-0.585938C12.7344-0.0390625 12.9883 0.15625 13.4961 0.15625C14.0137 0.15625 14.3457-0.15625 14.3457-0.644531C14.3457-0.810547 14.3164-0.966797 14.2383-1.17188L9.6582-13.3691C9.43359-13.9648 9.0332-14.2676 8.4082-14.2676C7.80273-14.2676 7.39258-13.9746 7.17773-13.3789L2.59766-1.16211C2.51953-0.957031 2.49023-0.800781 2.49023-0.634766C2.49023-0.146484 2.80273 0.15625 3.31055 0.15625ZM6.00586-5.51758L8.37891-12.0898L8.42773-12.0898L10.8008-5.51758Z"/>
  </g>
  <line style="fill:none;stroke:#00AEEF;stroke-width:0.5;opacity:1.0;" x1="793.197" x2="793.197" y1="1919" y2="1933"/>
  <text style="stroke:none;fill:black;font-family:sans-serif;font-size:13;font-weight:bold;" transform="matrix(1 0 0 1 776 1953)">Margins</text>
  <text style="stroke:none;fill:black;font-family:sans-serif;font-size:13;" transform="matrix(1 0 0 1 776 1971)">Leading and trailing margins on the left and right side of each symbol</text>
  <text style="stroke:none;fill:black;font-family:sans-serif;font-size:13;" transform="matrix(1 0 0 1 776 1989)">can be adjusted by modifying the x-location of the margin guidelines.</text>
  <text style="stroke:none;fill:black;font-family:sans-serif;font-size:13;" transform="matrix(1 0 0 1 776 2007)">Modifications are automatically applied proportionally to all</text>
  <text style="stroke:none;fill:black;font-family:sans-serif;font-size:13;" transform="matrix(1 0 0 1 776 2025)">scales and weights.</text>
  <g transform="matrix(1 0 0 1 1289 1933)">
   <path d="M2.8418 1.86523L4.54102 3.57422C5.40039 4.44336 6.38672 4.38477 7.31445 3.35938L18.0078-8.42773L17.041-9.4043L6.42578 2.27539C6.07422 2.67578 5.74219 2.77344 5.27344 2.30469L4.10156 1.14258C3.63281 0.683594 3.74023 0.341797 4.14062-0.0195312L15.6152-10.8203L14.6387-11.7871L3.04688-0.898438C2.06055 0.0195312 1.98242 0.996094 2.8418 1.86523ZM9.25781-16.3281C8.83789-15.918 8.80859-15.3418 9.04297-14.9512C9.27734-14.5898 9.73633-14.3555 10.3809-14.5215C11.8457-14.8633 13.3691-14.9219 14.7949-13.9844L14.209-12.5293C13.8672-11.6992 14.043-11.1133 14.5801-10.5664L16.875-8.25195C17.3633-7.76367 17.7734-7.74414 18.3398-7.8418L19.4043-8.03711L20.0684-7.36328L20.0293-6.80664C19.9902-6.30859 20.1172-5.92773 20.6055-5.44922L21.3672-4.70703C21.8457-4.22852 22.4609-4.19922 22.9297-4.66797L25.8398-7.58789C26.3086-8.05664 26.2891-8.65234 25.8105-9.13086L25.0391-9.89258C24.5605-10.3711 24.1895-10.5273 23.7109-10.4883L23.1348-10.4395L22.4902-11.0742L22.7344-12.1973C22.8613-12.7637 22.7051-13.2031 22.1191-13.7891L19.9219-15.9766C16.582-19.2969 12.1484-19.2188 9.25781-16.3281ZM10.752-15.957C13.1836-17.7344 16.4746-17.4316 18.7012-15.2051L21.1328-12.793C21.3672-12.5586 21.4062-12.373 21.3379-12.0312L21.0156-10.5469L22.5195-9.0625L23.5059-9.12109C23.7598-9.13086 23.8379-9.11133 24.0332-8.91602L24.6094-8.33984L22.168-5.89844L21.5918-6.47461C21.3965-6.66992 21.3672-6.74805 21.377-7.01172L21.4453-7.98828L19.9512-9.47266L18.4277-9.21875C18.1055-9.15039 17.959-9.17969 17.7148-9.41406L15.7129-11.416C15.459-11.6504 15.4297-11.8164 15.5859-12.1875L16.4648-14.2773C14.9023-15.7324 12.8711-16.3574 10.8398-15.7617C10.6836-15.7227 10.625-15.8496 10.752-15.957Z"/>
  </g>
  <text style="stroke:none;fill:black;font-family:sans-serif;font-size:13;font-weight:bold;" transform="matrix(1 0 0 1 1289 1953)">Exporting</text>
  <text style="stroke:none;fill:black;font-family:sans-serif;font-size:13;" transform="matrix(1 0 0 1 1289 1971)">Symbols should be outlined when exporting to ensure the</text>
  <text style="stroke:none;fill:black;font-family:sans-serif;font-size:13;" transform="matrix(1 0 0 1 1289 1989)">design is preserved when submitting to Xcode.</text>
  <text id="template-version" style="stroke:none;fill:black;font-family:sans-serif;font-size:13;text-anchor:end;" transform="matrix(1 0 0 1 3036 1933)">Template v.4.0</text>
  <text style="stroke:none;fill:black;font-family:sans-serif;font-size:13;text-anchor:end;" transform="matrix(1 0 0 1 3036 1951)">Requires Xcode 14 or greater</text>
  <text id="descriptive-name" style="stroke:none;fill:black;font-family:sans-serif;font-size:13;text-anchor:end;" transform="matrix(1 0 0 1 3036 1969)">Generated from figure.outdoor.cycle</text>
  <text style="stroke:none;fill:black;font-family:sans-serif;font-size:13;text-anchor:end;" transform="matrix(1 0 0 1 3036 1987)">Typeset at 100 points</text>
  <text style="stroke:none;fill:black;font-family:sans-serif;font-size:13;" transform="matrix(1 0 0 1 263 726)">Small</text>
  <text style="stroke:none;fill:black;font-family:sans-serif;font-size:13;" transform="matrix(1 0 0 1 263 1156)">Medium</text>
  <text style="stroke:none;fill:black;font-family:sans-serif;font-size:13;" transform="matrix(1 0 0 1 263 1586)">Large</text>
 </g>
 <g id="Guides">
  <g id="H-reference" style="fill:#27AAE1;stroke:none;" transform="matrix(1 0 0 1 339 696)">
   <path d="M0.993654 0L3.63775 0L29.3281-67.1323L30.0303-67.1323L30.0303-70.459L28.1226-70.459ZM11.6885-24.4799L46.9815-24.4799L46.2315-26.7285L12.4385-26.7285ZM55.1196 0L57.7637 0L30.6382-70.459L29.4326-70.459L29.4326-67.1323Z"/>
  </g>
  <line id="Baseline-S" style="fill:none;stroke:#27AAE1;opacity:1;stroke-width:0.5;" x1="263" x2="3036" y1="696" y2="696"/>
  <line id="Capline-S" style="fill:none;stroke:#27AAE1;opacity:1;stroke-width:0.5;" x1="263" x2="3036" y1="625.541" y2="625.541"/>
  <g id="H-reference" style="fill:#27AAE1;stroke:none;" transform="matrix(1 0 0 1 339 1126)">
   <path d="M0.993654 0L3.63775 0L29.3281-67.1323L30.0303-67.1323L30.0303-70.459L28.1226-70.459ZM11.6885-24.4799L46.9815-24.4799L46.2315-26.7285L12.4385-26.7285ZM55.1196 0L57.7637 0L30.6382-70.459L29.4326-70.459L29.4326-67.1323Z"/>
  </g>
  <line id="Baseline-M" style="fill:none;stroke:#27AAE1;opacity:1;stroke-width:0.5;" x1="263" x2="3036" y1="1126" y2="1126"/>
  <line id="Capline-M" style="fill:none;stroke:#27AAE1;opacity:1;stroke-width:0.5;" x1="263" x2="3036" y1="1055.54" y2="1055.54"/>
  <g id="H-reference" style="fill:#27AAE1;stroke:none;" transform="matrix(1 0 0 1 339 1556)">
   <path d="M0.993654 0L3.63775 0L29.3281-67.1323L30.0303-67.1323L30.0303-70.459L28.1226-70.459ZM11.6885-24.4799L46.9815-24.4799L46.2315-26.7285L12.4385-26.7285ZM55.1196 0L57.7637 0L30.6382-70.459L29.4326-70.459L29.4326-67.1323Z"/>
  </g>
  <line id="Baseline-L" style="fill:none;stroke:#27AAE1;opacity:1;stroke-width:0.5;" x1="263" x2="3036" y1="1556" y2="1556"/>
  <line id="Capline-L" style="fill:none;stroke:#27AAE1;opacity:1;stroke-width:0.5;" x1="263" x2="3036" y1="1485.54" y2="1485.54"/>
  <line id="left-margin-Regular-M" style="fill:none;stroke:#00AEEF;stroke-width:0.5;opacity:1.0;" x1="1375.54" x2="1375.54" y1="1030.79" y2="1150.12"/>
  <line id="right-margin-Regular-M" style="fill:none;stroke:#00AEEF;stroke-width:0.5;opacity:1.0;" x1="1524.15" x2="1524.15" y1="1030.79" y2="1150.12"/>
 </g>
 <g id="Symbols">
  <g id="Black-L" transform="matrix(1 0 0 1 2828.54 1556)">
   <path d="M104.852 1.98381C109.143 1.98381 112.618-1.48939 112.618-5.78237L112.618-39.0366C112.618-40.853 111.939-42.707 110.501-44.2846L93.6595-63.1129C93.1421-63.7328 93.5726-64.6015 94.3025-64.6015L114.859-64.6015C116.647-64.6015 117.042-63.7108 117.042-62.1787L117.042-45.7527C117.042-41.4805 120.554-37.9489 124.847-37.9489L151.5-37.9489C155.734-37.9489 159.187-41.4805 159.187-45.7527C159.187-49.986 155.734-53.52 151.5-53.52L132.614-53.52L132.614-75.6769C132.614-83.7788 126.212-90.1811 118.129-90.1811L85.7377-90.1811C78.452-90.1811 72.1457-85.8377 69.3046-79.2329C66.5231-72.5077 68.1423-64.9807 73.1667-59.8563L97.1051-35.7803L97.1051-5.78237C97.1051-1.48939 100.579 1.98381 104.852 1.98381ZM53.8237 30.966C74.5832 30.966 91.4878 14.0638 91.4878-6.77493C91.4878-27.6125 74.5832-44.4974 53.8237-44.4974C32.9862-44.4974 16.084-27.6125 16.084-6.77493C16.084 14.0638 32.9862 30.966 53.8237 30.966ZM53.8237 18.0973C39.9451 18.0973 28.9515 7.10491 28.9515-6.77493C28.9515-20.634 39.9451-31.5691 53.8237-31.5691C67.6827-31.5691 78.6179-20.634 78.6179-6.77493C78.6179 7.10491 67.6827 18.0973 53.8237 18.0973ZM172.478-25.1683C177.565-20.6416 180.749-14.198 180.749-6.77493C180.749 7.10491 169.756 18.0973 155.898 18.0973C142.039 18.0973 131.105 7.10491 131.105-6.77493C131.105-10.3134 131.77-13.5194 133.058-16.5754C135.117-21.2561 132.731-24.777 129.695-25.8892C126.879-26.9211 123.222-25.9709 121.516-22.1259C119.396-17.3983 118.215-12.1226 118.215-6.77493C118.215 14.0638 135.118 30.966 155.898 30.966C176.736 30.966 193.639 14.0638 193.639-6.77493C193.639-18.0661 188.618-28.2034 180.711-35.1119C177.439-37.9262 173.505-37.138 171.362-34.8367C169.2-32.4561 168.789-28.5003 172.478-25.1683ZM153.154-70.6613C161.66-70.6613 168.625-77.6058 168.625-86.1526C168.625-94.6579 161.66-101.644 153.154-101.644C144.587-101.644 137.642-94.6579 137.642-86.1526C137.642-77.6058 144.587-70.6613 153.154-70.6613Z"/>
  </g>
  <g id="Heavy-L" transform="matrix(1 0 0 1 2534.18 1556)">
   <path d="M102.5 1.50123C106.59 1.50123 109.909-1.81205 109.909-5.90817L109.909-38.7465C109.909-40.4807 109.263-42.2294 107.883-43.7336L91.1489-62.4372C90.5163-63.1861 91.0113-64.239 91.9391-64.239L112.381-64.239C114.321-64.239 114.808-63.1503 114.808-61.5764L114.808-45.3583C114.808-41.2923 118.141-37.9344 122.237-37.9344L148.547-37.9344C152.593-37.9344 155.882-41.2923 155.882-45.3583C155.882-49.4042 152.593-52.7733 148.547-52.7733L129.652-52.7733L129.652-74.9074C129.652-82.7584 123.446-88.9644 115.62-88.9644L83.6302-88.9644C76.5452-88.9644 70.3983-84.7395 67.6487-78.3123C64.9494-71.779 66.514-64.4528 71.3967-59.4651L95.1149-35.6274L95.1149-5.90817C95.1149-1.81205 98.4338 1.50123 102.5 1.50123ZM52.8826 29.3974C73.1573 29.3974 89.6233 12.9426 89.6233-7.40685C89.6233-27.7507 73.1573-44.1922 52.8826-44.1922C32.5388-44.1922 16.084-27.7507 16.084-7.40685C16.084 12.9426 32.5388 29.3974 52.8826 29.3974ZM52.8826 17.6021C38.9676 17.6021 27.8737 6.51381 27.8737-7.40685C27.8737-21.2973 38.9676-32.3466 52.8826-32.3466C66.7731-32.3466 77.8224-21.2973 77.8224-7.40685C77.8224 6.51381 66.7731 17.6021 52.8826 17.6021ZM168.793-25.905C173.89-21.3601 177.115-14.8525 177.115-7.40685C177.115 6.51381 166.021 17.6021 152.136 17.6021C138.245 17.6021 127.202 6.51381 127.202-7.40685C127.202-10.9453 127.881-14.2059 129.173-17.2619C131.06-21.5984 128.918-24.8115 126.104-25.8465C123.502-26.8012 120.175-25.9326 118.596-22.3866C116.53-17.7495 115.376-12.6459 115.376-7.40685C115.376 12.9426 131.831 29.3974 152.136 29.3974C172.48 29.3974 188.94 12.9426 188.94-7.40685C188.94-18.4399 184.045-28.2832 176.329-35.0422C173.297-37.6391 169.725-36.937 167.741-34.8033C165.733-32.5948 165.386-28.9877 168.793-25.905ZM150.086-70.0931C158.345-70.0931 165.114-76.8318 165.114-85.1509C165.114-93.4096 158.345-100.209 150.086-100.209C141.737-100.209 134.998-93.4096 134.998-85.1509C134.998-76.8318 141.737-70.0931 150.086-70.0931Z"/>
  </g>
  <g id="Bold-L" transform="matrix(1 0 0 1 2240.52 1556)">
   <path d="M99.4459 0.894478C103.298 0.894478 106.432-2.22652 106.432-6.09172L106.432-38.363C106.432-39.9973 105.824-41.6228 104.514-43.0424L87.955-61.5475C87.1988-62.4353 87.7633-63.6889 88.9072-63.6889L109.151-63.6889C111.254-63.6889 111.84-62.3841 111.84-60.7714L111.84-44.8368C111.84-41.0096 114.966-37.8594 118.831-37.8594L144.674-37.8594C148.496-37.8594 151.593-41.0096 151.593-44.8368C151.593-48.6596 148.496-51.8362 144.674-51.8362L125.83-51.8362L125.83-73.8726C125.83-81.4161 119.863-87.3838 112.344-87.3838L80.9059-87.3838C74.0669-87.3838 68.1197-83.3049 65.4779-77.1005C62.8786-70.7979 64.374-63.7176 69.0875-58.899L92.4845-35.4056L92.4845-6.09172C92.4845-2.22652 95.6187 0.894478 99.4459 0.894478ZM51.6104 27.3938C71.241 27.3938 87.1093 11.5519 87.1093-8.14587C87.1093-27.8304 71.241-43.674 51.6104-43.674C31.9259-43.674 16.084-27.8304 16.084-8.14587C16.084 11.5519 31.9259 27.3938 51.6104 27.3938ZM51.6104 17.0322C37.6493 17.0322 26.4324 5.82848 26.4324-8.14587C26.4324-22.0822 37.6493-33.2699 51.6104-33.2699C65.5468-33.2699 76.7345-22.0822 76.7345-8.14587C76.7345 5.82848 65.5468 17.0322 51.6104 17.0322ZM164.05-26.7746C169.154-22.2067 172.433-15.6222 172.433-8.14587C172.433 5.82848 161.216 17.0322 147.293 17.0322C133.357 17.0322 122.182 5.82848 122.182-8.14587C122.182-11.6843 122.877-15.0141 124.177-18.07C125.833-21.9466 124.021-24.7457 121.499-25.681C119.18-26.5358 116.297-25.7746 114.887-22.6274C112.898-18.1129 111.782-13.2393 111.782-8.14587C111.782 11.5519 127.624 27.3938 147.293 27.3938C166.977 27.3938 182.833 11.5519 182.833-8.14587C182.833-18.8339 178.114-28.2787 170.651-34.8384C167.94-37.144 164.852-36.5569 163.075-34.6456C161.273-32.6671 161.011-29.5276 164.05-26.7746ZM146.089-69.2968C154.048-69.2968 160.578-75.7894 160.578-83.8243C160.578-91.7831 154.048-98.3517 146.089-98.3517C138.016-98.3517 131.523-91.7831 131.523-83.8243C131.523-75.7894 138.016-69.2968 146.089-69.2968Z"/>
  </g>
  <g id="Semibold-L" transform="matrix(1 0 0 1 1945.91 1556)">
   <path d="M97.3406 0.476187C101.028 0.476187 104.035-2.51226 104.035-6.21826L104.035-38.0987C104.035-39.6641 103.453-41.2047 102.191-42.5658L85.7531-60.9342C84.9118-61.9178 85.5242-63.3096 86.8171-63.3096L106.924-63.3096C109.139-63.3096 109.794-61.8559 109.794-60.2164L109.794-44.4773C109.794-40.8146 112.777-37.8076 116.483-37.8076L142.003-37.8076C145.672-37.8076 148.636-40.8146 148.636-44.4773C148.636-48.1462 145.672-51.1902 142.003-51.1902L123.195-51.1902L123.195-73.1592C123.195-80.4908 117.392-86.2941 110.085-86.2941L79.0278-86.2941C72.3584-86.2941 66.5488-82.3159 63.9813-76.265C61.4509-70.1215 62.8987-63.2108 67.4955-58.5088L90.6711-35.2527L90.6711-6.21826C90.6711-2.51226 93.678 0.476187 97.3406 0.476187ZM50.7334 26.0125C69.9199 26.0125 85.3762 10.5931 85.3762-8.65535C85.3762-27.8853 69.9199-43.3168 50.7334-43.3168C31.5034-43.3168 16.084-27.8853 16.084-8.65535C16.084 10.5931 31.5034 26.0125 50.7334 26.0125ZM50.7334 16.6392C36.7405 16.6392 25.4388 5.35602 25.4388-8.65535C25.4388-22.6233 36.7405-33.9065 50.7334-33.9065C64.7014-33.9065 75.9845-22.6233 75.9845-8.65535C75.9845 5.35602 64.7014 16.6392 50.7334 16.6392ZM160.78-27.3742C165.89-22.7903 169.205-16.1528 169.205-8.65535C169.205 5.35602 157.904 16.6392 143.954 16.6392C129.986 16.6392 118.722 5.35602 118.722-8.65535C118.722-12.1938 119.427-15.5712 120.732-18.6271C122.23-22.1866 120.645-24.7004 118.324-25.5669C116.2-26.3529 113.625-25.6658 112.331-22.7933C110.394-18.3634 109.305-13.6483 109.305-8.65535C109.305 10.5931 124.724 26.0125 143.954 26.0125C163.184 26.0125 178.622 10.5931 178.622-8.65535C178.622-19.1055 174.025-28.2756 166.736-34.6979C164.248-36.8027 161.492-36.2948 159.858-34.5368C158.199-32.7169 157.995-29.8997 160.78-27.3742ZM143.333-68.7479C151.085-68.7479 157.451-75.0708 157.451-82.9097C157.451-90.6618 151.085-97.0715 143.333-97.0715C135.451-97.0715 129.128-90.6618 129.128-82.9097C129.128-75.0708 135.451-68.7479 143.333-68.7479Z"/>
  </g>
  <g id="Medium-L" transform="matrix(1 0 0 1 1650.8 1556)">
   <path d="M95.7443 0.159021C99.3071 0.159021 102.218-2.72891 102.218-6.31421L102.218-37.8982C102.218-39.4114 101.656-40.8876 100.43-42.2044L84.0836-60.4691C83.1777-61.5254 83.8264-63.0221 85.2322-63.0221L105.236-63.0221C107.535-63.0221 108.243-61.4554 108.243-59.7957L108.243-44.2047C108.243-40.6668 111.117-37.7684 114.702-37.7684L139.978-37.7684C143.53-37.7684 146.393-40.6668 146.393-44.2047C146.393-47.757 143.53-50.7004 139.978-50.7004L121.198-50.7004L121.198-72.6183C121.198-79.7891 115.519-85.4679 108.373-85.4679L77.6038-85.4679C71.0629-85.4679 65.3578-81.566 62.8466-75.6316C60.3684-69.6087 61.7801-62.8265 66.2884-58.2129L89.296-35.1367L89.296-6.31421C89.296-2.72891 92.2064 0.159021 95.7443 0.159021ZM50.0683 24.9652C68.9182 24.9652 84.0621 9.86613 84.0621-9.04165C84.0621-27.927 68.9182-43.0459 50.0683-43.0459C31.183-43.0459 16.084-27.927 16.084-9.04165C16.084 9.86613 31.183 24.9652 50.0683 24.9652ZM50.0683 16.3413C36.0514 16.3413 24.6854 4.99778 24.6854-9.04165C24.6854-23.0336 36.0514-34.3891 50.0683-34.3891C64.0603-34.3891 75.4158-23.0336 75.4158-9.04165C75.4158 4.99778 64.0603 16.3413 50.0683 16.3413ZM158.301-27.8287C163.415-23.2328 166.758-16.5551 166.758-9.04165C166.758 4.99778 155.392 16.3413 141.423 16.3413C127.431 16.3413 116.098 4.99778 116.098-9.04165C116.098-12.5801 116.811-15.9936 118.12-19.0496C119.498-22.3686 118.085-24.666 115.916-25.4803C113.941-26.2143 111.598-25.5832 110.392-22.9192C108.495-18.5533 107.426-13.9585 107.426-9.04165C107.426 9.86613 122.526 24.9652 141.423 24.9652C160.308 24.9652 175.43 9.86613 175.43-9.04165C175.43-19.3115 170.924-28.2733 163.768-34.5913C161.448-36.5439 158.945-36.0961 157.419-34.4544C155.868-32.7547 155.708-30.1819 158.301-27.8287ZM141.244-68.3317C148.839-68.3317 155.081-74.5259 155.081-82.2162C155.081-89.8116 148.839-96.1007 141.244-96.1007C133.506-96.1007 127.312-89.8116 127.312-82.2162C127.312-74.5259 133.506-68.3317 141.244-68.3317Z"/>
  </g>
  <g id="Regular-L" transform="matrix(1 0 0 1 1356.17 1556)">
   <path d="M93.6621-0.254674C97.0623-0.254674 99.8468-3.01151 99.8468-6.43936L99.8468-37.6368C99.8468-39.0818 99.3115-40.474 98.1329-41.7331L81.9059-59.8625C80.9158-61.0135 81.6119-62.647 83.165-62.647L103.033-62.647C105.443-62.647 106.22-60.9331 106.22-59.2468L106.22-43.8491C106.22-40.474 108.952-37.7172 112.38-37.7172L137.337-37.7172C140.737-37.7172 143.469-40.474 143.469-43.8491C143.469-47.2493 140.737-50.0615 137.337-50.0615L118.592-50.0615L118.592-71.9127C118.592-78.874 113.076-84.3902 106.14-84.3902L75.7463-84.3902C69.3732-84.3902 63.8042-80.5879 61.3665-74.8053C58.9564-68.9398 60.321-62.3253 64.7139-57.8269L87.5026-34.9855L87.5026-6.43936C87.5026-3.01151 90.287-0.254674 93.6621-0.254674ZM49.2009 23.599C67.6116 23.599 82.348 8.9179 82.348-9.54553C82.348-27.9813 67.6116-42.6927 49.2009-42.6927C30.7651-42.6927 16.084-27.9813 16.084-9.54553C16.084 8.9179 30.7651 23.599 49.2009 23.599ZM49.2009 15.9527C35.1525 15.9527 23.7027 4.53051 23.7027-9.54553C23.7027-23.5688 35.1525-35.0186 49.2009-35.0186C63.2242-35.0186 74.674-23.5688 74.674-9.54553C74.674 4.53051 63.2242 15.9527 49.2009 15.9527ZM155.067-28.4217C160.186-23.8101 163.566-17.0799 163.566-9.54553C163.566 4.53051 152.116 15.9527 138.121 15.9527C124.098 15.9527 112.675 4.53051 112.675-9.54553C112.675-13.084 113.399-16.5446 114.714-19.6006C115.935-22.6059 114.746-24.6211 112.776-25.3675C110.995-26.0334 108.954-25.4755 107.864-23.0833C106.019-18.8011 104.976-14.3631 104.976-9.54553C104.976 8.9179 119.657 23.599 138.121 23.599C156.557 23.599 171.265 8.9179 171.265-9.54553C171.265-19.5802 166.88-28.2702 159.896-34.4524C157.796-36.2063 155.622-35.837 154.238-34.3468C152.828-32.8039 152.725-30.55 155.067-28.4217ZM138.518-67.7888C145.909-67.7888 151.988-73.8152 151.988-81.3117C151.988-88.7027 145.909-94.8346 138.518-94.8346C130.969-94.8346 124.943-88.7027 124.943-81.3117C124.943-73.8152 130.969-67.7888 138.518-67.7888Z"/>
  </g>
  <g id="Light-L" transform="matrix(1 0 0 1 1062.49 1556)">
   <path d="M90.6467-0.731806C93.9514-0.731806 96.6596-3.39321 96.6596-6.74472L96.6596-37.2169C96.6596-38.6047 96.1434-39.9587 94.9838-41.1987L79.1576-58.9082C78.2057-60.0211 78.8827-61.6164 80.3976-61.6164L99.7698-61.6164C102.123-61.6164 102.88-59.9406 102.88-58.3116L102.88-43.2766C102.88-39.9587 105.555-37.2973 108.906-37.2973L133.272-37.2973C136.577-37.2973 139.251-39.9587 139.251-43.2766C139.251-46.5813 136.577-49.3362 133.272-49.3362L114.966-49.3362L114.966-70.6722C114.966-77.4426 109.583-82.8252 102.8-82.8252L73.1317-82.8252C66.9112-82.8252 61.4949-79.1183 59.0953-73.5075C56.7425-67.7565 58.0499-61.2947 62.3664-56.9108L84.6207-34.6229L84.6207-6.74472C84.6207-3.39321 87.3288-0.731806 90.6467-0.731806ZM47.6359 21.8241C65.3213 21.8241 79.2944 7.94455 79.2944-9.77455C79.2944-27.4469 65.3213-41.433 47.6359-41.433C29.9635-41.433 16.084-27.4469 16.084-9.77455C16.084 7.94455 29.9635 21.8241 47.6359 21.8241ZM47.6359 15.8382C33.5494 15.8382 22.0232 4.35874 22.0232-9.77455C22.0232-23.8742 33.5494-35.4003 47.6359-35.4003C61.7355-35.4003 73.2617-23.8742 73.2617-9.77455C73.2617 4.35874 61.7355 15.8382 47.6359 15.8382ZM150.639-28.7461C155.739-24.1154 159.177-17.3471 159.177-9.77455C159.177 4.35874 147.65 15.8382 133.598 15.8382C119.498 15.8382 108.019 4.35874 108.019-9.77455C108.019-13.313 108.742-16.8309 110.076-19.8868C111.03-22.3578 110.242-23.8768 108.577-24.5277C107.12-25.0982 105.614-24.6549 104.715-22.7207C102.985-18.5911 101.999-14.4203 101.999-9.77455C101.999 7.94455 115.878 21.8241 133.598 21.8241C151.27 21.8241 165.196 7.94455 165.196-9.77455C165.196-19.4084 161.059-27.6022 154.362-33.5554C152.643-34.9658 151.023-34.73 149.848-33.488C148.686-32.2123 148.679-30.5119 150.639-28.7461ZM134.491-66.6437C141.71-66.6437 147.656-72.5555 147.656-79.8421C147.656-87.0613 141.71-93.0406 134.491-93.0406C127.171-93.0406 121.259-87.0613 121.259-79.8421C121.259-72.5555 127.171-66.6437 134.491-66.6437Z"/>
  </g>
  <g id="Thin-L" transform="matrix(1 0 0 1 769.796 1556)">
   <path d="M86.6584-1.36285C89.837-1.36285 92.4442-3.89805 92.4442-7.14859L92.4442-36.6616C92.4442-37.9736 91.9532-39.2772 90.8189-40.4919L75.5228-57.6461C74.6213-58.7085 75.2731-60.2533 76.7375-60.2533L95.4535-60.2533C97.7305-60.2533 98.4628-58.6281 98.4628-57.0748L98.4628-42.5193C98.4628-39.2772 101.061-36.742 104.312-36.742L127.895-36.742C131.074-36.742 133.673-39.2772 133.673-42.5193C133.673-45.6979 131.074-48.377 127.895-48.377L110.17-48.377L110.17-69.0315C110.17-75.5494 104.964-80.7554 98.3823-80.7554L69.6735-80.7554C63.655-80.7554 58.4406-77.1747 56.0915-71.7911C53.8145-66.1915 55.0461-59.9317 59.2617-55.6992L80.8092-34.1433L80.8092-7.14859C80.8092-3.89805 83.4163-1.36285 86.6584-1.36285ZM45.5661 19.4766C62.2923 19.4766 75.2557 6.65722 75.2557-10.0775C75.2557-26.7401 62.2923-39.7671 45.5661-39.7671C28.9034-39.7671 16.084-26.7401 16.084-10.0775C16.084 6.65722 28.9034 19.4766 45.5661 19.4766ZM45.5661 15.6867C31.429 15.6867 19.8019 4.13157 19.8019-10.0775C19.8019-24.278 31.429-35.9052 45.5661-35.9052C59.7667-35.9052 71.3938-24.278 71.3938-10.0775C71.3938 4.13157 59.7667 15.6867 45.5661 15.6867ZM144.783-29.1752C149.858-24.5193 153.371-17.7005 153.371-10.0775C153.371 4.13157 141.744 15.6867 127.615 15.6867C113.415 15.6867 101.86 4.13157 101.86-10.0775C101.86-13.6159 102.583-17.2095 103.942-20.2655C104.543-22.0297 104.285-22.8924 103.024-23.4171C101.996-23.8613 101.197-23.5695 100.55-22.2411C98.9711-18.3135 98.0612-14.4961 98.0612-10.0775C98.0612 6.65722 110.881 19.4766 127.615 19.4766C144.278 19.4766 157.169 6.65722 157.169-10.0775C157.169-19.1812 153.36-26.7188 147.042-32.369C145.827-33.325 144.939-33.266 144.042-32.3521C143.209-31.4298 143.328-30.4614 144.783-29.1752ZM129.165-65.1291C136.157-65.1291 141.926-70.8896 141.926-77.8985C141.926-84.8905 136.157-90.6678 129.165-90.6678C122.148-90.6678 116.387-84.8905 116.387-77.8985C116.387-70.8896 122.148-65.1291 129.165-65.1291Z"/>
  </g>
  <g id="Ultralight-L" transform="matrix(1 0 0 1 475.14 1556)">
   <path d="M84.6157-1.68607C87.7296-1.68607 90.2851-4.15662 90.2851-7.35545L90.2851-36.3772C90.2851-37.6504 89.8071-38.9281 88.6857-40.1299L73.6611-56.9997C72.7854-58.0362 73.4243-59.5552 74.8629-59.5552L93.2427-59.5552C95.4809-59.5552 96.2002-57.9558 96.2002-56.4413L96.2002-42.1315C96.2002-38.9281 98.7602-36.4576 101.959-36.4576L125.142-36.4576C128.255-36.4576 130.815-38.9281 130.815-42.1315C130.815-45.2454 128.255-47.8858 125.142-47.8858L107.713-47.8858L107.713-68.1911C107.713-74.5798 102.598-79.6952 96.1198-79.6952L67.9023-79.6952C61.9872-79.6952 56.8762-76.1792 54.553-70.9119C52.3147-65.3899 53.5076-59.2335 57.6714-55.0786L78.8569-33.8976L78.8569-7.35545C78.8569-4.15662 81.4124-1.68607 84.6157-1.68607ZM44.5059 18.2743C60.7409 18.2743 73.1871 5.99786 73.1871-10.2326C73.1871-26.3781 60.7409-38.9138 44.5059-38.9138C28.3604-38.9138 16.084-26.3781 16.084-10.2326C16.084 5.99786 28.3604 18.2743 44.5059 18.2743ZM44.5059 15.6092C30.343 15.6092 18.6642 4.01521 18.6642-10.2326C18.6642-24.4849 30.343-36.1638 44.5059-36.1638C58.7582-36.1638 70.4371-24.4849 70.4371-10.2326C70.4371 4.01521 58.7582 15.6092 44.5059 15.6092ZM141.784-29.395C146.845-24.7262 150.397-17.8815 150.397-10.2326C150.397 4.01521 138.719 15.6092 124.551 15.6092C110.299 15.6092 98.7049 4.01521 98.7049-10.2326C98.7049-13.7711 99.4287-17.4034 100.8-20.4594C101.22-21.8616 101.234-22.3881 100.18-22.8482C99.3716-23.2278 98.9345-23.0135 98.4165-21.9955C96.9155-18.1713 96.0443-14.5348 96.0443-10.2326C96.0443 5.99786 108.321 18.2743 124.551 18.2743C140.697 18.2743 153.058 5.99786 153.058-10.2326C153.058-19.0649 149.417-26.2663 143.292-31.7613C142.337-32.4847 141.823-32.5161 141.069-31.7703C140.403-31.029 140.587-30.4355 141.784-29.395ZM126.437-64.3534C133.313-64.3534 138.991-70.0363 138.991-76.903C138.991-83.7787 133.313-89.4525 126.437-89.4525C119.575-89.4525 113.892-83.7787 113.892-76.903C113.892-70.0363 119.575-64.3534 126.437-64.3534Z"/>
  </g>
  <g id="Black-M" transform="matrix(1 0 0 1 2850.55 1126)">
   <path d="M82.8457-6.04869C86.3308-6.04869 89.1458-8.86403 89.1458-12.3488L89.1458-38.3715C89.1458-39.8416 88.5952-41.3633 87.432-42.646L74.3473-57.2834C74.0506-57.6476 74.3262-58.1572 74.7164-58.1572L90.6737-58.1572C91.9209-58.1572 92.1445-57.6424 92.1445-56.4992L92.1445-43.6436C92.1445-40.1643 95.0112-37.2919 98.496-37.2919L119.361-37.2919C122.789-37.2919 125.599-40.1643 125.599-43.6436C125.599-47.0716 122.789-49.9435 119.361-49.9435L104.796-49.9435L104.796-67.0591C104.796-73.5258 99.6851-78.6365 93.2241-78.6365L67.8816-78.6365C62.0852-78.6365 57.0831-75.1825 54.8086-69.9361C52.5908-64.5764 53.8844-58.5931 57.8885-54.521L76.5513-35.7384L76.5513-12.3488C76.5513-8.86403 79.3664-6.04869 82.8457-6.04869ZM42.2963 17.1626C58.698 17.1626 72.0681 3.79181 72.0681-12.6725C72.0681-29.1371 58.698-42.5015 42.2963-42.5015C25.8317-42.5015 12.4609-29.1371 12.4609-12.6725C12.4609 3.79181 25.8317 17.1626 42.2963 17.1626ZM42.2963 6.49503C31.57 6.49503 23.1288-1.94651 23.1288-12.6725C23.1288-23.393 31.57-31.7771 42.2963-31.7771C53.0167-31.7771 61.4009-23.393 61.4009-12.6725C61.4009-1.94651 53.0167 6.49503 42.2963 6.49503ZM136.193-26.8455C140.124-23.3515 142.563-18.4092 142.563-12.6725C142.563-1.94651 134.122 6.49503 123.401 6.49503C112.681 6.49503 104.296-1.94651 104.296-12.6725C104.296-15.4139 104.8-17.8585 105.797-20.2261C107.503-24.0759 105.499-27.001 102.997-27.9161C100.677-28.769 97.6316-27.9782 96.227-24.8044C94.5535-21.0847 93.6233-16.8857 93.6233-12.6725C93.6233 3.79181 106.994 17.1626 123.401 17.1626C139.866 17.1626 153.236 3.79181 153.236-12.6725C153.236-21.5878 149.271-29.6271 143.021-35.0768C140.331-37.3974 137.047-36.7309 135.279-34.8374C133.505-32.8814 133.145-29.5921 136.193-26.8455ZM120.747-63.0132C127.525-63.0132 133.071-68.5547 133.071-75.3436C133.071-82.1215 127.525-87.6739 120.747-87.6739C113.952-87.6739 108.411-82.1215 108.411-75.3436C108.411-68.5547 113.952-63.0132 120.747-63.0132Z"/>
  </g>
  <g id="Heavy-M" transform="matrix(1 0 0 1 2555.86 1126)">
   <path d="M80.8247-6.47642C84.1219-6.47642 86.792-9.14424 86.792-12.4436L86.792-38.1266C86.792-39.5217 86.2709-40.944 85.1641-42.1567L72.1465-56.7109C71.7337-57.2047 72.0741-57.8978 72.6613-57.8978L88.5522-57.8978C89.9533-57.8978 90.2688-57.186 90.2688-55.9966L90.2688-43.3109C90.2688-40.0279 92.9661-37.3165 96.2654-37.3165L116.849-37.3165C120.103-37.3165 122.756-40.0279 122.756-43.3109C122.756-46.5644 120.103-49.2804 116.849-49.2804L102.235-49.2804L102.235-66.4212C102.235-72.6603 97.3038-77.5914 91.0789-77.5914L66.0626-77.5914C60.4483-77.5914 55.588-74.2445 53.3994-69.1559C51.2566-63.9732 52.5022-58.1721 56.3747-54.2231L74.8717-35.6225L74.8717-12.4436C74.8717-9.14424 77.5418-6.47642 80.8247-6.47642ZM41.5207 15.7929C57.5153 15.7929 70.5272 2.78556 70.5272-13.2691C70.5272-29.3215 57.5153-42.3192 41.5207-42.3192C25.4683-42.3192 12.4609-29.3215 12.4609-13.2691C12.4609 2.78556 25.4683 15.7929 41.5207 15.7929ZM41.5207 6.02154C30.7623 6.02154 22.23-2.50851 22.23-13.2691C22.23-24.0133 30.7623-32.502 41.5207-32.502C52.2648-32.502 60.7535-24.0133 60.7535-13.2691C60.7535-2.50851 52.2648 6.02154 41.5207 6.02154ZM132.999-27.5357C136.941-24.0257 139.415-19.0244 139.415-13.2691C139.415-2.50851 130.883 6.02154 120.141 6.02154C109.397 6.02154 100.91-2.50851 100.91-13.2691C100.91-16.0105 101.427-18.5033 102.426-20.8708C103.99-24.4334 102.187-27.1034 99.8742-27.9519C97.7321-28.738 94.9608-28.0164 93.6626-25.0927C92.0314-21.4474 91.1223-17.3919 91.1223-13.2691C91.1223 2.78556 104.13 15.7929 120.141 15.7929C136.193 15.7929 149.203 2.78556 149.203-13.2691C149.203-21.969 145.338-29.7666 139.248-35.0914C136.757-37.2312 133.776-36.6365 132.144-34.8841C130.497-33.0716 130.191-30.072 132.999-27.5357ZM118.118-62.5634C124.671-62.5634 130.039-67.9143 130.039-74.4999C130.039-81.0527 124.671-86.4364 118.118-86.4364C111.516-86.4364 106.166-81.0527 106.166-74.4999C106.166-67.9143 111.516-62.5634 118.118-62.5634Z"/>
  </g>
  <g id="Bold-M" transform="matrix(1 0 0 1 2261.4 1126)">
   <path d="M78.564-6.95491C81.6509-6.95491 84.1588-9.45769 84.1588-12.5497L84.1588-37.8526C84.1588-39.1638 83.6707-40.4748 82.6271-41.6093L69.6847-56.0704C69.1419-56.7093 69.5548-57.6077 70.3624-57.6077L86.1789-57.6077C87.7524-57.6077 88.1704-56.6755 88.1704-55.4344L88.1704-42.9387C88.1704-39.8753 90.6783-37.344 93.7703-37.344L114.039-37.344C117.097-37.344 119.577-39.8753 119.577-42.9387C119.577-45.997 117.097-48.5386 114.039-48.5386L99.3702-48.5386L99.3702-65.7078C99.3702-71.6921 94.6399-76.4223 88.6791-76.4223L64.0277-76.4223C58.6172-76.4223 53.9154-73.1952 51.823-68.2831C49.7642-63.2985 50.9559-57.7011 54.6814-53.8898L72.9927-35.4928L72.9927-12.5497C72.9927-9.45769 75.5007-6.95491 78.564-6.95491ZM40.653 14.2607C56.1923 14.2607 68.8034 1.65991 68.8034-13.9365C68.8034-29.5278 56.1923-42.1154 40.653-42.1154C25.0617-42.1154 12.4609-29.5278 12.4609-13.9365C12.4609 1.65991 25.0617 14.2607 40.653 14.2607ZM40.653 5.49188C29.8588 5.49188 21.2246-3.13719 21.2246-13.9365C21.2246-24.7072 29.8588-33.3129 40.653-33.3129C51.4237-33.3129 60.0294-24.7072 60.0294-13.9365C60.0294-3.13719 51.4237 5.49188 40.653 5.49188ZM129.427-28.3079C133.38-24.7799 135.893-19.7126 135.893-13.9365C135.893-3.13719 127.259 5.49188 116.493 5.49188C105.723 5.49188 97.1221-3.13719 97.1221-13.9365C97.1221-16.6779 97.6543-19.2245 98.6563-21.592C100.059-24.8334 98.482-27.2179 96.381-27.9918C94.4383-28.7034 91.9731-28.0593 90.794-25.4152C89.2101-21.853 88.3247-17.9582 88.3247-13.9365C88.3247 1.65991 100.925 14.2607 116.493 14.2607C132.085 14.2607 144.691 1.65991 144.691-13.9365C144.691-22.3955 140.939-29.9228 135.027-35.1077C132.759-37.0453 130.118-36.5309 128.637-34.9363C127.133-33.2844 126.887-30.609 129.427-28.3079ZM115.179-62.0602C121.48-62.0602 126.646-67.1979 126.646-73.5561C126.646-79.8571 121.48-85.0521 115.179-85.0521C108.792-85.0521 103.654-79.8571 103.654-73.5561C103.654-67.1979 108.792-62.0602 115.179-62.0602Z"/>
  </g>
  <g id="Semibold-M" transform="matrix(1 0 0 1 1966.25 1126)">
   <path d="M77.0055-7.28478C79.9474-7.28478 82.3435-9.67379 82.3435-12.6228L82.3435-37.6638C82.3435-38.917 81.8782-40.1514 80.8781-41.232L67.9875-55.6289C67.3551-56.3677 67.818-57.4077 68.7775-57.4077L84.5428-57.4077C86.235-57.4077 86.7239-56.3236 86.7239-55.0468L86.7239-42.6821C86.7239-39.7701 89.1011-37.363 92.0501-37.363L112.102-37.363C115.026-37.363 117.385-39.7701 117.385-42.6821C117.385-45.6059 115.026-48.0272 112.102-48.0272L97.3952-48.0272L97.3952-65.2159C97.3952-71.0246 92.8035-75.6164 87.0247-75.6164L62.6249-75.6164C57.3549-75.6164 52.7624-72.4719 50.7362-67.6814C48.7353-62.8333 49.8899-57.3764 53.514-53.6601L71.6974-35.4033L71.6974-12.6228C71.6974-9.67379 74.0935-7.28478 77.0055-7.28478ZM40.0549 13.2045C55.2802 13.2045 67.615 0.883899 67.615-14.3966C67.615-29.67 55.2802-41.9749 40.0549-41.9749C24.7815-41.9749 12.4609-29.67 12.4609-14.3966C12.4609 0.883899 24.7815 13.2045 40.0549 13.2045ZM40.0549 5.12674C29.236 5.12674 20.5315-3.5706 20.5315-14.3966C20.5315-25.1856 29.236-33.8719 40.0549-33.8719C50.8439-33.8719 59.5302-25.1856 59.5302-14.3966C59.5302-3.5706 50.8439 5.12674 40.0549 5.12674ZM126.963-28.8402C130.926-25.2999 133.465-20.187 133.465-14.3966C133.465-3.5706 124.761 5.12674 113.979 5.12674C103.19 5.12674 94.5108-3.5706 94.5108-14.3966C94.5108-17.138 95.0533-19.7217 96.0573-22.0892C97.3492-25.1091 95.928-27.2969 93.9728-28.0194C92.1675-28.6795 89.9135-28.0888 88.8164-25.6375C87.2651-22.1327 86.396-18.3486 86.396-14.3966C86.396 0.883899 98.7166 13.2045 113.979 13.2045C129.252 13.2045 141.58 0.883899 141.58-14.3966C141.58-22.6895 137.906-30.0304 132.117-35.1189C130.003-36.9171 127.595-36.4581 126.22-34.9722C124.814-33.4311 124.608-30.9791 126.963-28.8402ZM113.152-61.7132C119.279-61.7132 124.307-66.7041 124.307-72.9055C124.307-79.0329 119.279-84.0978 113.152-84.0978C106.913-84.0978 101.923-79.0329 101.923-72.9055C101.923-66.7041 106.913-61.7132 113.152-61.7132Z"/>
  </g>
  <g id="Medium-M" transform="matrix(1 0 0 1 1670.71 1126)">
   <path d="M75.8238-7.5349C78.6558-7.5349 80.9671-9.83764 80.9671-12.6782L80.9671-37.5206C80.9671-38.73 80.519-39.9062 79.5519-40.9458L66.7006-55.2942C66.0003-56.1088 66.5011-57.2561 67.5758-57.2561L83.3022-57.2561C85.0845-57.2561 85.627-56.0567 85.627-54.7529L85.627-42.4875C85.627-39.6904 87.9052-37.3773 90.7458-37.3773L110.633-37.3773C113.455-37.3773 115.723-39.6904 115.723-42.4875C115.723-45.3093 113.455-47.6395 110.633-47.6395L95.8978-47.6395L95.8978-64.8429C95.8978-70.5185 91.411-75.0053 85.7703-75.0053L61.5612-75.0053C56.3977-75.0053 51.8881-71.9234 49.9122-67.2252C47.9552-62.4806 49.0817-57.1302 52.6288-53.4859L70.7152-35.3355L70.7152-12.6782C70.7152-9.83764 73.0266-7.5349 75.8238-7.5349ZM39.6014 12.4035C54.5887 12.4035 66.7139 0.295495 66.7139-14.7455C66.7139-29.7779 54.5887-41.8683 39.6014-41.8683C24.569-41.8683 12.4609-29.7779 12.4609-14.7455C12.4609 0.295495 24.569 12.4035 39.6014 12.4035ZM39.6014 4.84988C28.7637 4.84988 20.006-3.89922 20.006-14.7455C20.006-25.5483 28.7637-34.2957 39.6014-34.2957C50.4042-34.2957 59.1516-25.5483 59.1516-14.7455C59.1516-3.89922 50.4042 4.84988 39.6014 4.84988ZM125.096-29.2438C129.065-25.6941 131.624-20.5467 131.624-14.7455C131.624-3.89922 122.867 4.84988 112.072 4.84988C101.27 4.84988 92.5307-3.89922 92.5307-14.7455C92.5307-17.4869 93.0812-20.0987 94.0866-22.4662C95.2945-25.3182 93.9914-27.3568 92.1468-28.0402C90.4457-28.6614 88.3517-28.1112 87.3169-25.8061C85.7903-22.3447 84.9336-18.6447 84.9336-14.7455C84.9336 0.295495 97.0417 12.4035 112.072 12.4035C127.105 12.4035 139.221 0.295495 139.221-14.7455C139.221-22.9124 135.606-30.112 129.91-35.1275C127.913-36.8199 125.683-36.4029 124.387-34.9995C123.056-33.5424 122.881-31.2598 125.096-29.2438ZM111.615-61.4502C117.611-61.4502 122.534-66.3296 122.534-72.4122C122.534-78.4079 117.611-83.3742 111.615-83.3742C105.489-83.3742 100.61-78.4079 100.61-72.4122C100.61-66.3296 105.489-61.4502 111.615-61.4502Z"/>
  </g>
  <g id="Regular-M" transform="matrix(1 0 0 1 1375.54 1126)">
   <path d="M74.2824-7.86114C76.971-7.86114 79.1718-10.0514 79.1718-12.7506L79.1718-37.3338C79.1718-38.4859 78.7462-39.5863 77.8222-40.5726L65.0221-54.8575C64.2332-55.771 64.7834-57.0583 66.0084-57.0583L81.6841-57.0583C83.5838-57.0583 84.1963-55.7087 84.1963-54.3696L84.1963-42.2338C84.1963-39.5863 86.3454-37.3961 89.0446-37.3961L108.717-37.3961C111.406-37.3961 113.555-39.5863 113.555-42.2338C113.555-44.9224 111.406-47.1337 108.717-47.1337L93.9445-47.1337L93.9445-64.3565C93.9445-69.8584 89.5947-74.2082 84.134-74.2082L60.1738-74.2082C55.1493-74.2082 50.7477-71.208 48.8374-66.6301C46.9376-62.0205 48.0274-56.8091 51.4743-53.2587L69.4341-35.2471L69.4341-12.7506C69.4341-10.0514 71.6349-7.86114 74.2824-7.86114ZM39.0098 11.3589C53.6866 11.3589 65.5386-0.47199 65.5386-15.2005C65.5386-29.9185 53.6866-41.7293 39.0098-41.7293C24.2918-41.7293 12.4609-29.9185 12.4609-15.2005C12.4609-0.47199 24.2918 11.3589 39.0098 11.3589ZM39.0098 4.48874C28.1477 4.48874 19.3205-4.32787 19.3205-15.2005C19.3205-26.0215 28.1477-34.8486 39.0098-34.8486C49.8307-34.8486 58.6579-26.0215 58.6579-15.2005C58.6579-4.32787 49.8307 4.48874 39.0098 4.48874ZM122.66-29.7703C126.637-26.2084 129.223-21.016 129.223-15.2005C129.223-4.32787 120.396 4.48874 109.586 4.48874C98.7646 4.48874 89.948-4.32787 89.948-15.2005C89.948-17.9419 90.5087-20.5904 91.5162-22.958C92.6146-25.5909 91.4654-27.4349 89.7651-28.0675C88.1999-28.6378 86.3147-28.1403 85.361-26.026C83.8667-22.6213 83.0261-19.0308 83.0261-15.2005C83.0261-0.47199 94.857 11.3589 109.586 11.3589C124.304 11.3589 136.145-0.47199 136.145-15.2005C136.145-23.2032 132.606-30.2185 127.032-35.1386C125.187-36.6932 123.188-36.3309 121.996-35.0351C120.762-33.6875 120.628-31.6259 122.66-29.7703ZM109.611-61.1071C115.435-61.1071 120.221-65.8412 120.221-71.7687C120.221-77.5927 115.435-82.4304 109.611-82.4304C103.631-82.4304 98.8972-77.5927 98.8972-71.7687C98.8972-65.8412 103.631-61.1071 109.611-61.1071Z"/>
  </g>
  <g id="Light-M" transform="matrix(1 0 0 1 1081.55 1126)">
   <path d="M71.5788-8.28891C74.1819-8.28891 76.3142-10.3936 76.3142-13.0243L76.3142-36.9574C76.3142-38.0582 75.9058-39.1243 74.9989-40.0935L62.5581-54.002C61.8034-54.8812 62.3365-56.1343 63.5273-56.1343L78.7581-56.1343C80.6065-56.1343 81.2019-54.8189 81.2019-53.5312L81.2019-41.7204C81.2019-39.1243 83.2996-37.0197 85.9304-37.0197L105.073-37.0197C107.676-37.0197 109.773-39.1243 109.773-41.7204C109.773-44.3235 107.676-46.4835 105.073-46.4835L90.6934-46.4835L90.6934-63.2443C90.6934-68.5751 86.4634-72.8051 81.1396-72.8051L57.8296-72.8051C52.942-72.8051 48.6773-69.8904 46.8012-65.4665C44.9527-60.9597 45.9912-55.8851 49.3696-52.4374L66.8504-34.922L66.8504-13.0243C66.8504-10.3936 68.9827-8.28891 71.5788-8.28891ZM37.6067 9.76757C51.6333 9.76757 62.8008-1.34465 62.8008-15.4059C62.8008-29.4394 51.6333-40.6 37.6067-40.6C23.5732-40.6 12.4609-29.4394 12.4609-15.4059C12.4609-1.34465 23.5732 9.76757 37.6067 9.76757ZM37.6067 4.38608C26.7104 4.38608 17.8148-4.48187 17.8148-15.4059C17.8148-26.2952 26.7104-35.1908 37.6067-35.1908C48.4961-35.1908 57.3917-26.2952 57.3917-15.4059C57.3917-4.48187 48.4961 4.38608 37.6067 4.38608ZM118.69-30.0612C122.65-26.4821 125.288-21.2555 125.288-15.4059C125.288-4.48187 116.392 4.38608 105.53 4.38608C94.6409 4.38608 85.7729-4.48187 85.7729-15.4059C85.7729-18.1473 86.3337-20.8471 87.3582-23.2146C88.217-25.3684 87.4272-26.7676 86.0007-27.3146C84.7264-27.7993 83.3203-27.4046 82.5377-25.7009C81.1461-22.4331 80.3568-19.0821 80.3568-15.4059C80.3568-1.34465 91.469 9.76757 105.53 9.76757C119.564 9.76757 130.704-1.34465 130.704-15.4059C130.704-23.0492 127.387-29.6196 122.07-34.3344C120.567-35.581 119.064-35.3385 118.06-34.2651C117.049-33.157 117.001-31.5916 118.69-30.0612ZM106-60.0804C111.67-60.0804 116.336-64.7119 116.336-70.4512C116.336-76.1212 111.67-80.8219 106-80.8219C100.226-80.8219 95.5948-76.1212 95.5948-70.4512C95.5948-64.7119 100.226-60.0804 106-60.0804Z"/>
  </g>
  <g id="Thin-M" transform="matrix(1 0 0 1 788.438 1126)">
   <path d="M68.0032-8.85468C70.4931-8.85468 72.5349-10.8462 72.5349-13.3864L72.5349-36.4595C72.5349-37.4924 72.1491-38.5133 71.2648-39.4599L59.2993-52.8704C58.5899-53.7044 59.1003-54.9122 60.2459-54.9122L74.8883-54.9122C76.6688-54.9122 77.2416-53.6421 77.2416-52.4223L77.2416-41.0415C77.2416-38.5133 79.2714-36.5218 81.8116-36.5218L100.252-36.5218C102.742-36.5218 104.772-38.5133 104.772-41.0415C104.772-43.5315 102.742-45.6236 100.252-45.6236L86.3936-45.6236L86.3936-61.7733C86.3936-66.8778 82.322-70.9493 77.1793-70.9493L54.7293-70.9493C50.0226-70.9493 45.939-68.1479 44.1082-63.9277C42.3276-59.5566 43.2982-54.663 46.5861-51.3511L63.4332-34.492L63.4332-13.3864C63.4332-10.8462 65.475-8.85468 68.0032-8.85468ZM35.751 7.66293C48.9176 7.66293 59.1799-2.49881 59.1799-15.6774C59.1799-28.8058 48.9176-39.1064 35.751-39.1064C22.6227-39.1064 12.4609-28.8058 12.4609-15.6774C12.4609-2.49881 22.6227 7.66293 35.751 7.66293ZM35.751 4.2503C24.8094 4.2503 15.8233-4.68554 15.8233-15.6774C15.8233-26.6573 24.8094-35.6434 35.751-35.6434C46.7309-35.6434 55.717-26.6573 55.717-15.6774C55.717-4.68554 46.7309 4.2503 35.751 4.2503ZM113.44-30.4459C117.377-26.8442 120.083-21.5724 120.083-15.6774C120.083-4.68554 111.096 4.2503 100.167 4.2503C89.1869 4.2503 80.2511-4.68554 80.2511-15.6774C80.2511-18.4188 80.8118-21.1865 81.859-23.5541C82.401-25.0742 82.0864-25.885 81.022-26.3189C80.1324-26.6904 79.3599-26.4315 78.8037-25.2709C77.5478-22.1842 76.8264-19.15 76.8264-15.6774C76.8264-2.49881 86.9882 7.66293 100.167 7.66293C113.295 7.66293 123.507-2.49881 123.507-15.6774C123.507-22.8455 120.485-28.8276 115.507-33.2707C114.457-34.11 113.61-34.0259 112.855-33.2467C112.138-32.4555 112.203-31.5464 113.44-30.4459ZM101.225-58.7226C106.691-58.7226 111.199-63.2183 111.199-68.7086C111.199-74.1749 106.691-78.6947 101.225-78.6947C95.7228-78.6947 91.2271-74.1749 91.2271-68.7086C91.2271-63.2183 95.7228-58.7226 101.225-58.7226Z"/>
  </g>
  <g id="Ultralight-M" transform="matrix(1 0 0 1 493.57 1126)">
   <path d="M66.1718-9.14446C68.6038-9.14446 70.5992-11.078 70.5992-13.5719L70.5992-36.2045C70.5992-37.2026 70.2249-38.2003 69.3523-39.1353L57.6301-52.2909C56.9439-53.1017 57.4428-54.2863 58.5651-54.2863L72.9061-54.2863C74.6519-54.2863 75.2131-53.0394 75.2131-51.8543L75.2131-40.6938C75.2131-38.2003 77.2081-36.2668 79.702-36.2668L97.7834-36.2668C100.215-36.2668 102.21-38.2003 102.21-40.6938C102.21-43.1258 100.215-45.1831 97.7834-45.1831L84.1913-45.1831L84.1913-61.0198C84.1913-66.0084 80.2008-69.9989 75.1508-69.9989L53.1412-69.9989C48.5273-69.9989 44.5365-67.2554 42.7288-63.1395C40.983-58.8379 41.9188-54.0371 45.1604-50.7947L61.6829-34.2718L61.6829-13.5719C61.6829-11.078 63.6783-9.14446 66.1718-9.14446ZM34.8005 6.58494C47.5267 6.58494 57.3253-3.08996 57.3253-15.8165C57.3253-28.4812 47.5267-38.3413 34.8005-38.3413C22.1358-38.3413 12.4609-28.4812 12.4609-15.8165C12.4609-3.08996 22.1358 6.58494 34.8005 6.58494ZM34.8005 4.18075C23.8357 4.18075 14.8032-4.78986 14.8032-15.8165C14.8032-26.8428 23.8357-35.8753 34.8005-35.8753C45.8268-35.8753 54.8593-26.8428 54.8593-15.8165C54.8593-4.78986 45.8268 4.18075 34.8005 4.18075ZM110.751-30.6429C114.676-27.0297 117.417-21.7346 117.417-15.8165C117.417-4.78986 108.384 4.18075 97.4197 4.18075C86.3934 4.18075 77.4228-4.78986 77.4228-15.8165C77.4228-18.5579 77.9835-21.3604 79.0423-23.728C79.422-24.9235 79.3509-25.4329 78.4719-25.8088C77.7794-26.1225 77.3315-25.933 76.8911-25.0507C75.7048-22.0567 75.0182-19.1848 75.0182-15.8165C75.0182-3.08996 84.6931 6.58494 97.4197 6.58494C110.084 6.58494 119.821-3.08996 119.821-15.8165C119.821-22.7412 116.95-28.4219 112.146-32.7259C111.327-33.3566 110.817-33.3536 110.189-32.7251C109.623-32.0962 109.745-31.5232 110.751-30.6429ZM98.7794-58.0271C104.141-58.0271 108.568-62.4533 108.568-67.8161C108.568-73.1781 104.141-77.6051 98.7794-77.6051C93.4162-77.6051 88.99-73.1781 88.99-67.8161C88.99-62.4533 93.4162-58.0271 98.7794-58.0271Z"/>
  </g>
  <g id="Black-S" transform="matrix(1 0 0 1 2868.02 696)">
   <path d="M65.3809-12.2559C68.1641-12.2559 70.4102-14.502 70.4102-17.2852L70.4102-37.7441C70.4102-38.916 69.9707-40.1367 69.043-41.1621L58.7891-52.6367C58.5938-52.8809 58.7891-53.2227 59.0332-53.2227L71.5332-53.2227C72.4609-53.2227 72.6074-52.8809 72.6074-52.002L72.6074-41.8945C72.6074-39.1113 74.9023-36.8164 77.6855-36.8164L94.0918-36.8164C96.8262-36.8164 99.0723-39.1113 99.0723-41.8945C99.0723-44.6289 96.8262-46.9238 94.0918-46.9238L82.7148-46.9238L82.7148-60.3027C82.7148-65.4297 78.6621-69.4824 73.5352-69.4824L53.6133-69.4824C49.0234-69.4824 45.0684-66.748 43.2617-62.5977C41.5039-58.3496 42.5293-53.6133 45.7031-50.3906L60.3516-35.6445L60.3516-17.2852C60.3516-14.502 62.5977-12.2559 65.3809-12.2559ZM33.3008 6.15234C46.2402 6.15234 56.7871-4.39453 56.7871-17.3828C56.7871-30.3711 46.2402-40.918 33.3008-40.918C20.3125-40.918 9.76562-30.3711 9.76562-17.3828C9.76562-4.39453 20.3125 6.15234 33.3008 6.15234ZM33.3008-2.39258C24.9023-2.39258 18.3105-8.98438 18.3105-17.3828C18.3105-25.7812 24.9023-32.3242 33.3008-32.3242C41.6992-32.3242 48.2422-25.7812 48.2422-17.3828C48.2422-8.98438 41.6992-2.39258 33.3008-2.39258ZM107.471-28.4668C110.547-25.7324 112.451-21.875 112.451-17.3828C112.451-8.98438 105.859-2.39258 97.4609-2.39258C89.0625-2.39258 82.5195-8.98438 82.5195-17.3828C82.5195-19.5312 82.9102-21.4355 83.6914-23.291C85.0586-26.3672 83.4473-28.7109 81.4453-29.4434C79.5898-30.127 77.1484-29.4922 76.0254-26.9531C74.707-24.0234 73.9746-20.7031 73.9746-17.3828C73.9746-4.39453 84.5215 6.15234 97.4609 6.15234C110.449 6.15234 120.996-4.39453 120.996-17.3828C120.996-24.4141 117.871-30.7617 112.939-35.0586C110.791-36.9141 108.154-36.377 106.738-34.8633C105.322-33.3008 105.029-30.6641 107.471-28.4668ZM95.2148-57.0801C100.586-57.0801 104.98-61.4746 104.98-66.8457C104.98-72.2168 100.586-76.6113 95.2148-76.6113C89.8438-76.6113 85.4492-72.2168 85.4492-66.8457C85.4492-61.4746 89.8438-57.0801 95.2148-57.0801Z"/>
  </g>
  <g id="Heavy-S" transform="matrix(1 0 0 1 2572.69 696)">
   <path d="M63.9979-12.567C66.6313-12.567 68.7622-14.6979 68.7622-17.3313L68.7622-37.5828C68.7622-38.6971 68.3458-39.8371 67.4641-40.8049L57.2217-52.2564C56.9227-52.6158 57.1756-53.1189 57.5926-53.1189L70.0926-53.1189C71.1587-53.1189 71.3858-52.6043 71.3858-51.6793L71.3858-41.6756C71.3858-39.0537 73.5425-36.8856 76.1758-36.8856L92.4092-36.8856C95.0053-36.8856 97.1246-39.0537 97.1246-41.6756C97.1246-44.2716 95.0053-46.4398 92.4092-46.4398L80.9401-46.4398L80.9401-59.8994C80.9401-64.8535 77.0256-68.7679 72.0831-68.7679L52.3571-68.7679C47.9056-68.7679 44.0542-66.1142 42.3167-62.0791C40.6165-57.9693 41.6073-53.3713 44.6774-50.2408L59.2452-35.5869L59.2452-17.3313C59.2452-14.6979 61.3761-12.567 63.9979-12.567ZM32.8168 5.18429C45.4911 5.18429 55.8191-5.14362 55.8191-17.8668C55.8191-30.5901 45.4911-40.9064 32.8168-40.9064C20.0935-40.9064 9.76562-30.5901 9.76562-17.8668C9.76562-5.14362 20.0935 5.18429 32.8168 5.18429ZM32.8168-2.78441C24.3953-2.78441 17.7343-9.44535 17.7343-17.8668C17.7343-26.2768 24.3953-32.9004 32.8168-32.9004C41.2267-32.9004 47.8504-26.2768 47.8504-17.8668C47.8504-9.44535 41.2267-2.78441 32.8168-2.78441ZM105.246-29.02C108.334-26.2741 110.262-22.3706 110.262-17.8668C110.262-9.44535 103.601-2.78441 95.1906-2.78441C86.7807-2.78441 80.157-9.44535 80.157-17.8668C80.157-20.0153 80.5592-21.9541 81.3404-23.8096C82.6154-26.7014 81.1308-28.8838 79.2557-29.5701C77.5154-30.2076 75.2469-29.619 74.193-27.2412C72.8977-24.3576 72.1768-21.1295 72.1768-17.8668C72.1768-5.14362 82.5047 5.18429 95.1906 5.18429C107.914 5.18429 118.242-5.14362 118.242-17.8668C118.242-24.7598 115.174-30.9576 110.346-35.1738C108.325-36.9141 105.884-36.4231 104.56-35.0016C103.225-33.5313 102.966-31.0789 105.246-29.02ZM93.4286-56.8265C98.6268-56.8265 102.883-61.0713 102.883-66.2925C102.883-71.4908 98.6268-75.7585 93.4286-75.7585C88.1958-75.7585 83.951-71.4908 83.951-66.2925C83.951-61.0713 88.1958-56.8265 93.4286-56.8265Z"/>
  </g>
  <g id="Bold-S" transform="matrix(1 0 0 1 2277.51 696)">
   <path d="M62.4512-12.915C64.917-12.915 66.9189-14.917 66.9189-17.3828L66.9189-37.4023C66.9189-38.4521 66.5283-39.502 65.6982-40.4053L55.4688-51.8311C55.0537-52.3193 55.3711-53.0029 55.9814-53.0029L68.4814-53.0029C69.7021-53.0029 70.0195-52.2949 70.0195-51.3184L70.0195-41.4307C70.0195-38.9893 72.0215-36.9629 74.4873-36.9629L90.5273-36.9629C92.9688-36.9629 94.9463-38.9893 94.9463-41.4307C94.9463-43.8721 92.9688-45.8984 90.5273-45.8984L78.9551-45.8984L78.9551-59.4482C78.9551-64.209 75.1953-67.9688 70.459-67.9688L50.9521-67.9688C46.6553-67.9688 42.9199-65.4053 41.2598-61.499C39.624-57.5439 40.5762-53.1006 43.5303-50.0732L58.0078-35.5225L58.0078-17.3828C58.0078-14.917 60.0098-12.915 62.4512-12.915ZM32.2754 4.10156C44.6533 4.10156 54.7363-5.98145 54.7363-18.4082C54.7363-30.835 44.6533-40.8936 32.2754-40.8936C19.8486-40.8936 9.76562-30.835 9.76562-18.4082C9.76562-5.98145 19.8486 4.10156 32.2754 4.10156ZM32.2754-3.22266C23.8281-3.22266 17.0898-9.96094 17.0898-18.4082C17.0898-26.8311 23.8281-33.5449 32.2754-33.5449C40.6982-33.5449 47.4121-26.8311 47.4121-18.4082C47.4121-9.96094 40.6982-3.22266 32.2754-3.22266ZM102.759-29.6387C105.859-26.8799 107.812-22.9248 107.812-18.4082C107.812-9.96094 101.074-3.22266 92.6514-3.22266C84.2285-3.22266 77.5146-9.96094 77.5146-18.4082C77.5146-20.5566 77.9297-22.5342 78.7109-24.3896C79.8828-27.0752 78.54-29.0771 76.8066-29.7119C75.1953-30.2979 73.1201-29.7607 72.1436-27.5635C70.874-24.7314 70.166-21.6064 70.166-18.4082C70.166-5.98145 80.249 4.10156 92.6514 4.10156C105.078 4.10156 115.161-5.98145 115.161-18.4082C115.161-25.1465 112.158-31.1768 107.446-35.3027C105.566-36.9141 103.345-36.4746 102.124-35.1562C100.879-33.7891 100.659-31.543 102.759-29.6387ZM91.4307-56.543C96.4355-56.543 100.537-60.6201 100.537-65.6738C100.537-70.6787 96.4355-74.8047 91.4307-74.8047C86.3525-74.8047 82.2754-70.6787 82.2754-65.6738C82.2754-60.6201 86.3525-56.543 91.4307-56.543Z"/>
  </g>
  <g id="Semibold-S" transform="matrix(1 0 0 1 1981.87 696)">
   <path d="M61.3848-13.155C63.7351-13.155 65.6481-15.0681 65.6481-17.4184L65.6481-37.2779C65.6481-38.2833 65.2753-39.2709 64.4808-40.1298L54.2602-51.5378C53.7651-52.1149 54.127-52.9229 54.8706-52.9229L67.3706-52.9229C68.6979-52.9229 69.0775-52.0816 69.0775-51.0695L69.0775-41.2618C69.0775-38.9448 70.9729-37.0162 73.3231-37.0162L89.2299-37.0162C91.5646-37.0162 93.4444-38.9448 93.4444-41.2618C93.4444-43.5966 91.5646-45.5252 89.2299-45.5252L77.5865-45.5252L77.5865-59.1372C77.5865-63.7646 73.9334-67.4178 69.3393-67.4178L49.9835-67.4178C45.7933-67.4178 42.1379-64.9165 40.5311-61.0991C38.9397-57.2507 39.8652-52.914 42.7394-49.9577L57.1547-35.478L57.1547-17.4184C57.1547-15.0681 59.0678-13.155 61.3848-13.155ZM31.9021 3.35508C44.0757 3.35508 53.9898-6.55908 53.9898-18.7814C53.9898-31.0038 44.0757-40.8847 31.9021-40.8847C19.6798-40.8847 9.76562-31.0038 9.76562-18.7814C9.76562-6.55908 19.6798 3.35508 31.9021 3.35508ZM31.9021-3.5248C23.4371-3.5248 16.6455-10.3164 16.6455-18.7814C16.6455-27.2132 23.4371-33.9893 31.9021-33.9893C40.3339-33.9893 47.11-27.2132 47.11-18.7814C47.11-10.3164 40.3339-3.5248 31.9021-3.5248ZM101.044-30.0652C104.153-27.2976 106.124-23.3069 106.124-18.7814C106.124-10.3164 99.3324-3.5248 90.9007-3.5248C82.4689-3.5248 75.6929-10.3164 75.6929-18.7814C75.6929-20.9299 76.1168-22.9341 76.898-24.7896C77.9988-27.3329 76.7538-29.2104 75.1182-29.8097C73.5957-30.3601 71.6538-29.8585 70.7306-27.7856C69.4788-24.9892 68.7797-21.9353 68.7797-18.7814C68.7797-6.55908 78.6938 3.35508 90.9007 3.35508C103.123 3.35508 113.037-6.55908 113.037-18.7814C113.037-25.4131 110.079-31.3278 105.447-35.3916C103.665-36.9141 101.594-36.5102 100.444-35.2629C99.2615-33.9668 99.0685-31.8629 101.044-30.0652ZM90.0532-56.3475C94.9248-56.3475 98.9197-60.3091 98.9197-65.2473C98.9197-70.1188 94.9248-74.1471 90.0532-74.1471C85.0817-74.1471 81.1201-70.1188 81.1201-65.2473C81.1201-60.3091 85.0817-56.3475 90.0532-56.3475Z"/>
  </g>
  <g id="Medium-S" transform="matrix(1 0 0 1 1685.96 696)">
   <path d="M60.5762-13.3369C62.8389-13.3369 64.6846-15.1826 64.6846-17.4453L64.6846-37.1836C64.6846-38.1553 64.3252-39.0957 63.5576-39.9209L53.3438-51.3154C52.7881-51.96 53.1836-52.8623 54.0283-52.8623L66.5283-52.8623C67.9365-52.8623 68.3633-51.9199 68.3633-50.8809L68.3633-41.1338C68.3633-38.9111 70.1777-37.0566 72.4404-37.0566L88.2461-37.0566C90.5-37.0566 92.3057-38.9111 92.3057-41.1338C92.3057-43.3877 90.5-45.2422 88.2461-45.2422L76.5488-45.2422L76.5488-58.9014C76.5488-63.4277 72.9766-67 68.4902-67L49.249-67C45.1396-67 41.5449-64.5459 39.9785-60.7959C38.4209-57.0283 39.3262-52.7725 42.1396-49.8701L56.5078-35.4443L56.5078-17.4453C56.5078-15.1826 58.3535-13.3369 60.5762-13.3369ZM31.6191 2.78906C43.6377 2.78906 53.4238-6.99707 53.4238-19.0645C53.4238-31.1318 43.6377-40.8779 31.6191-40.8779C19.5518-40.8779 9.76562-31.1318 9.76562-19.0645C9.76562-6.99707 19.5518 2.78906 31.6191 2.78906ZM31.6191-3.75391C23.1406-3.75391 16.3086-10.5859 16.3086-19.0645C16.3086-27.5029 23.1406-34.3262 31.6191-34.3262C40.0576-34.3262 46.8809-27.5029 46.8809-19.0645C46.8809-10.5859 40.0576-3.75391 31.6191-3.75391ZM99.7432-30.3887C102.859-27.6143 104.844-23.5967 104.844-19.0645C104.844-10.5859 98.0117-3.75391 89.5732-3.75391C81.1348-3.75391 74.3115-10.5859 74.3115-19.0645C74.3115-21.2129 74.7422-23.2373 75.5234-25.0928C76.5703-27.5283 75.3994-29.3115 73.8379-29.8838C72.3828-30.4072 70.542-29.9326 69.6592-27.9541C68.4209-25.1846 67.7285-22.1846 67.7285-19.0645C67.7285-6.99707 77.5146 2.78906 89.5732 2.78906C101.641 2.78906 111.427-6.99707 111.427-19.0645C111.427-25.6152 108.502-31.4424 103.931-35.459C102.223-36.9141 100.267-36.5371 99.1709-35.3438C98.0352-34.1016 97.8623-32.1055 99.7432-30.3887ZM89.0088-56.1992C93.7793-56.1992 97.6934-60.0732 97.6934-64.9238C97.6934-69.6943 93.7793-73.6484 89.0088-73.6484C84.1182-73.6484 80.2441-69.6943 80.2441-64.9238C80.2441-60.0732 84.1182-56.1992 89.0088-56.1992Z"/>
  </g>
  <g id="Regular-S" transform="matrix(1 0 0 1 1390.3 696)">
   <path d="M59.5215-13.5742C61.6699-13.5742 63.4277-15.332 63.4277-17.4805L63.4277-37.0605C63.4277-37.9883 63.0859-38.8672 62.3535-39.6484L52.1484-51.0254C51.5137-51.7578 51.9531-52.7832 52.9297-52.7832L65.4297-52.7832C66.9434-52.7832 67.4316-51.709 67.4316-50.6348L67.4316-40.9668C67.4316-38.8672 69.1406-37.1094 71.2891-37.1094L86.9629-37.1094C89.1113-37.1094 90.8203-38.8672 90.8203-40.9668C90.8203-43.1152 89.1113-44.873 86.9629-44.873L75.1953-44.873L75.1953-58.5938C75.1953-62.9883 71.7285-66.4551 67.3828-66.4551L48.291-66.4551C44.2871-66.4551 40.7715-64.0625 39.2578-60.4004C37.7441-56.7383 38.623-52.5879 41.3574-49.7559L55.6641-35.4004L55.6641-17.4805C55.6641-15.332 57.4219-13.5742 59.5215-13.5742ZM31.25 2.05078C43.0664 2.05078 52.6855-7.56836 52.6855-19.4336C52.6855-31.2988 43.0664-40.8691 31.25-40.8691C19.3848-40.8691 9.76562-31.2988 9.76562-19.4336C9.76562-7.56836 19.3848 2.05078 31.25 2.05078ZM31.25-4.05273C22.7539-4.05273 15.8691-10.9375 15.8691-19.4336C15.8691-27.8809 22.7539-34.7656 31.25-34.7656C39.6973-34.7656 46.582-27.8809 46.582-19.4336C46.582-10.9375 39.6973-4.05273 31.25-4.05273ZM98.0469-30.8105C101.172-28.0273 103.174-23.9746 103.174-19.4336C103.174-10.9375 96.2891-4.05273 87.8418-4.05273C79.3945-4.05273 72.5098-10.9375 72.5098-19.4336C72.5098-21.582 72.9492-23.6328 73.7305-25.4883C74.707-27.7832 73.6328-29.4434 72.168-29.9805C70.8008-30.4688 69.0918-30.0293 68.2617-28.1738C67.041-25.4395 66.3574-22.5098 66.3574-19.4336C66.3574-7.56836 75.9766 2.05078 87.8418 2.05078C99.707 2.05078 109.326-7.56836 109.326-19.4336C109.326-25.8789 106.445-31.5918 101.953-35.5469C100.342-36.9141 98.5352-36.5723 97.5098-35.4492C96.4355-34.2773 96.2891-32.4219 98.0469-30.8105ZM87.6465-56.0059C92.2852-56.0059 96.0938-59.7656 96.0938-64.502C96.0938-69.1406 92.2852-72.998 87.6465-72.998C82.8613-72.998 79.1016-69.1406 79.1016-64.502C79.1016-59.7656 82.8613-56.0059 87.6465-56.0059Z"/>
  </g>
  <g id="Light-S" transform="matrix(1 0 0 1 1095.99 696)">
   <path d="M57.1299-13.9526C59.2027-13.9526 60.8999-15.6348 60.8999-17.7227L60.8999-36.7275C60.8999-37.6099 60.5733-38.4585 59.856-39.2246L49.9688-50.2686C49.3643-50.9707 49.7886-51.9658 50.7349-51.9658L62.8413-51.9658C64.3096-51.9658 64.7827-50.9219 64.7827-49.8931L64.7827-40.5127C64.7827-38.4585 66.4463-36.7764 68.5342-36.7764L83.7388-36.7764C85.8115-36.7764 87.4751-38.4585 87.4751-40.5127C87.4751-42.5855 85.8115-44.2979 83.7388-44.2979L72.3194-44.2979L72.3194-57.6099C72.3194-61.853 68.9585-65.2139 64.7339-65.2139L46.2173-65.2139C42.3345-65.2139 38.94-62.897 37.4566-59.3711C35.9883-55.7998 36.8218-51.7705 39.4956-49.0293L53.3784-35.1128L53.3784-17.7227C53.3784-15.6348 55.0757-13.9526 57.1299-13.9526ZM30.0088 0.643077C41.25 0.643077 50.2637-8.34033 50.2637-19.6152C50.2637-30.875 41.25-39.8701 30.0088-39.8701C18.749-39.8701 9.76562-30.875 9.76562-19.6152C9.76562-8.34033 18.749 0.643077 30.0088 0.643077ZM30.0088-4.14355C21.4824-4.14355 14.5371-11.0737 14.5371-19.6152C14.5371-28.123 21.4824-35.0684 30.0088-35.0684C38.5166-35.0684 45.4619-28.123 45.4619-19.6152C45.4619-11.0737 38.5166-4.14355 30.0088-4.14355ZM94.5352-31.0679C97.645-28.2695 99.6924-24.1865 99.6924-19.6152C99.6924-11.0737 92.7471-4.14355 84.2544-4.14355C75.7466-4.14355 68.8164-11.0737 68.8164-19.6152C68.8164-21.7637 69.2559-23.8599 70.0523-25.7153C70.8169-27.5864 70.0606-28.853 68.8379-29.3145C67.7281-29.7271 66.4429-29.3784 65.7642-27.8862C64.6343-25.273 63.9961-22.5552 63.9961-19.6152C63.9961-8.34033 72.9795 0.643077 84.2544 0.643077C95.5142 0.643077 104.513-8.34033 104.513-19.6152C104.513-25.7427 101.829-31.062 97.5635-34.8355C96.2549-35.9302 94.8872-35.6943 94.0283-34.7681C93.1509-33.8081 93.0801-32.3916 94.5352-31.0679ZM84.4527-55.0977C88.9551-55.0977 92.6577-58.7666 92.6577-63.3364C92.6577-67.8389 88.9551-71.5752 84.4527-71.5752C79.8491-71.5752 76.1802-67.8389 76.1802-63.3364C76.1802-58.7666 79.8491-55.0977 84.4527-55.0977Z"/>
  </g>
  <g id="Thin-S" transform="matrix(1 0 0 1 802.466 696)">
   <path d="M53.9668-14.4531C55.9395-14.4531 57.5567-16.0352 57.5567-18.043L57.5567-36.2871C57.5567-37.1094 57.25-37.918 56.5528-38.6641L47.086-49.2676C46.5215-49.9297 46.9258-50.8848 47.8321-50.8848L59.418-50.8848C60.8262-50.8848 61.2793-49.8809 61.2793-48.9121L61.2793-39.9121C61.2793-37.918 62.8829-36.3359 64.8907-36.3359L79.4747-36.3359C81.4473-36.3359 83.0508-37.918 83.0508-39.9121C83.0508-41.8848 81.4473-43.5371 79.4747-43.5371L68.5157-43.5371L68.5157-56.3086C68.5157-60.3516 65.295-63.5723 61.2305-63.5723L43.4746-63.5723C39.752-63.5723 36.5176-61.3555 35.0743-58.0098C33.666-54.5586 34.4395-50.6895 37.0332-48.0684L50.3555-34.7324L50.3555-18.043C50.3555-16.0352 51.9727-14.4531 53.9668-14.4531ZM28.3672-1.21872C38.8477-1.21872 47.0606-9.36131 47.0606-19.8555C47.0606-30.3145 38.8477-38.5488 28.3672-38.5488C17.9082-38.5488 9.76562-30.3145 9.76562-19.8555C9.76562-9.36131 17.9082-1.21872 28.3672-1.21872ZM28.3672-4.26367C19.8008-4.26367 12.7754-11.2539 12.7754-19.8555C12.7754-28.4434 19.8008-35.4687 28.3672-35.4687C36.9551-35.4687 43.9805-28.4434 43.9805-19.8555C43.9805-11.2539 36.9551-4.26367 28.3672-4.26367ZM89.8907-31.4082C92.9805-28.5898 95.088-24.4668 95.088-19.8555C95.088-11.2539 88.0626-4.26367 79.5098-4.26367C70.9219-4.26367 63.9317-11.2539 63.9317-19.8555C63.9317-22.0039 64.3712-24.1602 65.1876-26.0156C65.6719-27.3262 65.336-28.0723 64.4337-28.4336C63.6641-28.7461 62.9395-28.5176 62.461-27.5059C61.4512-25.0527 60.8731-22.6152 60.8731-19.8555C60.8731-9.36131 69.0157-1.21872 79.5098-1.21872C89.9688-1.21872 98.1466-9.36131 98.1466-19.8555C98.1466-25.5625 95.7227-30.3613 91.7579-33.8945C90.8497-34.6289 90.0626-34.5332 89.4239-33.8672C88.8067-33.1875 88.836-32.3516 89.8907-31.4082ZM80.2286-53.8965C84.5508-53.8965 88.1133-57.4453 88.1133-61.7949C88.1133-66.1172 84.5508-69.6934 80.2286-69.6934C75.8653-69.6934 72.3165-66.1172 72.3165-61.7949C72.3165-57.4453 75.8653-53.8965 80.2286-53.8965Z"/>
  </g>
  <g id="Ultralight-S" transform="matrix(1 0 0 1 507.385 696)">
   <path d="M52.3467-14.7095C54.2681-14.7095 55.8443-16.2402 55.8443-18.207L55.8443-36.0615C55.8443-36.853 55.5479-37.6411 54.8609-38.377L45.6094-48.7549C45.0655-49.3965 45.4595-50.3311 46.3453-50.3311L57.6646-50.3311C59.0421-50.3311 59.4849-49.3477 59.4849-48.4097L59.4849-39.6045C59.4849-37.6411 61.0577-36.1104 63.0245-36.1104L77.2906-36.1104C79.212-36.1104 80.7847-37.6411 80.7847-39.6045C80.7847-41.5259 79.212-43.1475 77.2906-43.1475L66.5675-43.1475L66.5675-55.6421C66.5675-59.5825 63.4185-62.7315 59.4361-62.7315L42.0699-62.7315C38.4292-62.7315 35.2769-60.5659 33.854-57.3125C32.4766-53.9229 33.2193-50.1358 35.772-47.5762L48.8072-34.5376L48.8072-18.207C48.8072-16.2402 50.3834-14.7095 52.3467-14.7095ZM27.5264-2.17233C37.6172-2.17233 45.42-9.88426 45.42-19.9785C45.42-30.0274 37.6172-37.8721 27.5264-37.8721C17.4776-37.8721 9.76562-30.0274 9.76562-19.9785C9.76562-9.88426 17.4776-2.17233 27.5264-2.17233ZM27.5264-4.32519C18.9395-4.32519 11.8731-11.3462 11.8731-19.9785C11.8731-28.6074 18.9395-35.6738 27.5264-35.6738C36.1553-35.6738 43.2217-28.6074 43.2217-19.9785C43.2217-11.3462 36.1553-4.32519 27.5264-4.32519ZM87.5118-31.5825C90.5914-28.7539 92.7296-24.6103 92.7296-19.9785C92.7296-11.3462 85.6632-4.32519 77.0797-4.32519C68.4508-4.32519 61.4298-11.3462 61.4298-19.9785C61.4298-22.1269 61.8692-24.314 62.6959-26.1694C63.0367-27.1929 62.9161-27.6724 62.1778-27.9824C61.5826-28.2437 61.1451-28.0767 60.7691-27.311C59.8209-24.9399 59.2735-22.646 59.2735-19.9785C59.2735-9.88426 66.9854-2.17233 77.0797-2.17233C87.1285-2.17233 94.8859-9.88426 94.8859-19.9785C94.8859-25.4702 92.5953-30.0025 88.7843-33.4126C88.0812-33.9624 87.5914-33.9385 87.0655-33.4058C86.5816-32.8696 86.6622-32.3311 87.5118-31.5825ZM78.065-53.2813C82.295-53.2813 85.7857-56.7686 85.7857-61.0054C85.7857-65.2354 82.295-68.7295 78.065-68.7295C73.8248-68.7295 70.3375-65.2354 70.3375-61.0054C70.3375-56.7686 73.8248-53.2813 78.065-53.2813Z"/>
  </g>
 </g>
</svg>
