<?xml version="1.0" encoding="UTF-8"?>
<!--Generator: Apple Native CoreSVG 175.5-->
<!DOCTYPE svg
PUBLIC "-//W3C//DTD SVG 1.1//EN"
       "http://www.w3.org/Graphics/SVG/1.1/DTD/svg11.dtd">
<svg version="1.1" xmlns="http://www.w3.org/2000/svg" xmlns:xlink="http://www.w3.org/1999/xlink" width="3300" height="2200">
 <!--glyph: "uni10151B.medium", point size: 100.0, font version: "18.0d12e2", template writer version: "101"-->
 <g id="Notes">
  <rect height="2200" id="artboard" style="fill:white;opacity:1" width="3300" x="0" y="0"/>
  <line style="fill:none;stroke:black;opacity:1;stroke-width:0.5;" x1="263" x2="3036" y1="292" y2="292"/>
  <text style="stroke:none;fill:black;font-family:sans-serif;font-size:13;font-weight:bold;" transform="matrix(1 0 0 1 263 322)">Weight/Scale Variations</text>
  <text style="stroke:none;fill:black;font-family:sans-serif;font-size:13;text-anchor:middle;" transform="matrix(1 0 0 1 559.711 322)">Ultralight</text>
  <text style="stroke:none;fill:black;font-family:sans-serif;font-size:13;text-anchor:middle;" transform="matrix(1 0 0 1 856.422 322)">Thin</text>
  <text style="stroke:none;fill:black;font-family:sans-serif;font-size:13;text-anchor:middle;" transform="matrix(1 0 0 1 1153.13 322)">Light</text>
  <text style="stroke:none;fill:black;font-family:sans-serif;font-size:13;text-anchor:middle;" transform="matrix(1 0 0 1 1449.84 322)">Regular</text>
  <text style="stroke:none;fill:black;font-family:sans-serif;font-size:13;text-anchor:middle;" transform="matrix(1 0 0 1 1746.56 322)">Medium</text>
  <text style="stroke:none;fill:black;font-family:sans-serif;font-size:13;text-anchor:middle;" transform="matrix(1 0 0 1 2043.27 322)">Semibold</text>
  <text style="stroke:none;fill:black;font-family:sans-serif;font-size:13;text-anchor:middle;" transform="matrix(1 0 0 1 2339.98 322)">Bold</text>
  <text style="stroke:none;fill:black;font-family:sans-serif;font-size:13;text-anchor:middle;" transform="matrix(1 0 0 1 2636.69 322)">Heavy</text>
  <text style="stroke:none;fill:black;font-family:sans-serif;font-size:13;text-anchor:middle;" transform="matrix(1 0 0 1 2933.4 322)">Black</text>
  <line style="fill:none;stroke:black;opacity:1;stroke-width:0.5;" x1="263" x2="3036" y1="1903" y2="1903"/>
  <g transform="matrix(1 0 0 1 263 1933)">
   <path d="M9.24805 0.830078C13.5547 0.830078 17.1387-2.74414 17.1387-7.05078C17.1387-11.3574 13.5449-14.9316 9.23828-14.9316C4.94141-14.9316 1.36719-11.3574 1.36719-7.05078C1.36719-2.74414 4.95117 0.830078 9.24805 0.830078ZM9.24805-0.654297C5.70312-0.654297 2.87109-3.49609 2.87109-7.05078C2.87109-10.6055 5.69336-13.4473 9.23828-13.4473C12.793-13.4473 15.6445-10.6055 15.6445-7.05078C15.6445-3.49609 12.8027-0.654297 9.24805-0.654297ZM5.6543-7.05078C5.6543-6.62109 5.95703-6.32812 6.40625-6.32812L8.50586-6.32812L8.50586-4.20898C8.50586-3.76953 8.79883-3.4668 9.22852-3.4668C9.67773-3.4668 9.9707-3.76953 9.9707-4.20898L9.9707-6.32812L12.0898-6.32812C12.5293-6.32812 12.832-6.62109 12.832-7.05078C12.832-7.49023 12.5293-7.79297 12.0898-7.79297L9.9707-7.79297L9.9707-9.90234C9.9707-10.3516 9.67773-10.6543 9.22852-10.6543C8.79883-10.6543 8.50586-10.3516 8.50586-9.90234L8.50586-7.79297L6.40625-7.79297C5.95703-7.79297 5.6543-7.49023 5.6543-7.05078Z"/>
  </g>
  <g transform="matrix(1 0 0 1 281.867 1933)">
   <path d="M11.709 2.91016C17.1582 2.91016 21.6699-1.61133 21.6699-7.05078C21.6699-12.5 17.1484-17.0117 11.6992-17.0117C6.25977-17.0117 1.74805-12.5 1.74805-7.05078C1.74805-1.61133 6.26953 2.91016 11.709 2.91016ZM11.709 1.25C7.09961 1.25 3.41797-2.44141 3.41797-7.05078C3.41797-11.6602 7.08984-15.3516 11.6992-15.3516C16.3086-15.3516 20.0098-11.6602 20.0098-7.05078C20.0098-2.44141 16.3184 1.25 11.709 1.25ZM7.17773-7.05078C7.17773-6.57227 7.50977-6.25 8.00781-6.25L10.8789-6.25L10.8789-3.36914C10.8789-2.88086 11.2109-2.53906 11.6895-2.53906C12.1777-2.53906 12.5195-2.87109 12.5195-3.36914L12.5195-6.25L15.4004-6.25C15.8887-6.25 16.2305-6.57227 16.2305-7.05078C16.2305-7.53906 15.8887-7.88086 15.4004-7.88086L12.5195-7.88086L12.5195-10.752C12.5195-11.25 12.1777-11.5918 11.6895-11.5918C11.2109-11.5918 10.8789-11.25 10.8789-10.752L10.8789-7.88086L8.00781-7.88086C7.50977-7.88086 7.17773-7.53906 7.17773-7.05078Z"/>
  </g>
  <g transform="matrix(1 0 0 1 305.646 1933)">
   <path d="M14.9707 5.66406C21.9336 5.66406 27.6953-0.0976562 27.6953-7.05078C27.6953-14.0137 21.9238-19.7754 14.9609-19.7754C8.00781-19.7754 2.25586-14.0137 2.25586-7.05078C2.25586-0.0976562 8.01758 5.66406 14.9707 5.66406ZM14.9707 3.84766C8.93555 3.84766 4.08203-1.01562 4.08203-7.05078C4.08203-13.0957 8.92578-17.9492 14.9609-17.9492C21.0059-17.9492 25.8691-13.0957 25.8691-7.05078C25.8691-1.01562 21.0156 3.84766 14.9707 3.84766ZM9.19922-7.05078C9.19922-6.5332 9.57031-6.17188 10.1172-6.17188L14.0625-6.17188L14.0625-2.2168C14.0625-1.67969 14.4336-1.29883 14.9512-1.29883C15.4883-1.29883 15.8594-1.66992 15.8594-2.2168L15.8594-6.17188L19.8145-6.17188C20.3516-6.17188 20.7324-6.5332 20.7324-7.05078C20.7324-7.59766 20.3613-7.96875 19.8145-7.96875L15.8594-7.96875L15.8594-11.9141C15.8594-12.4609 15.4883-12.8418 14.9512-12.8418C14.4336-12.8418 14.0625-12.4609 14.0625-11.9141L14.0625-7.96875L10.1172-7.96875C9.57031-7.96875 9.19922-7.59766 9.19922-7.05078Z"/>
  </g>
  <text style="stroke:none;fill:black;font-family:sans-serif;font-size:13;font-weight:bold;" transform="matrix(1 0 0 1 263 1953)">Design Variations</text>
  <text style="stroke:none;fill:black;font-family:sans-serif;font-size:13;" transform="matrix(1 0 0 1 263 1971)">Symbols are supported in up to nine weights and three scales.</text>
  <text style="stroke:none;fill:black;font-family:sans-serif;font-size:13;" transform="matrix(1 0 0 1 263 1989)">For optimal layout with text and other symbols, vertically align</text>
  <text style="stroke:none;fill:black;font-family:sans-serif;font-size:13;" transform="matrix(1 0 0 1 263 2007)">symbols with the adjacent text.</text>
  <line style="fill:none;stroke:#00AEEF;stroke-width:0.5;opacity:1.0;" x1="776" x2="776" y1="1919" y2="1933"/>
  <g transform="matrix(1 0 0 1 776 1933)">
   <path d="M3.31055 0.15625C3.82812 0.15625 4.08203-0.0390625 4.26758-0.585938L5.52734-4.0332L11.2891-4.0332L12.5488-0.585938C12.7344-0.0390625 12.9883 0.15625 13.4961 0.15625C14.0137 0.15625 14.3457-0.15625 14.3457-0.644531C14.3457-0.810547 14.3164-0.966797 14.2383-1.17188L9.6582-13.3691C9.43359-13.9648 9.0332-14.2676 8.4082-14.2676C7.80273-14.2676 7.39258-13.9746 7.17773-13.3789L2.59766-1.16211C2.51953-0.957031 2.49023-0.800781 2.49023-0.634766C2.49023-0.146484 2.80273 0.15625 3.31055 0.15625ZM6.00586-5.51758L8.37891-12.0898L8.42773-12.0898L10.8008-5.51758Z"/>
  </g>
  <line style="fill:none;stroke:#00AEEF;stroke-width:0.5;opacity:1.0;" x1="793.197" x2="793.197" y1="1919" y2="1933"/>
  <text style="stroke:none;fill:black;font-family:sans-serif;font-size:13;font-weight:bold;" transform="matrix(1 0 0 1 776 1953)">Margins</text>
  <text style="stroke:none;fill:black;font-family:sans-serif;font-size:13;" transform="matrix(1 0 0 1 776 1971)">Leading and trailing margins on the left and right side of each symbol</text>
  <text style="stroke:none;fill:black;font-family:sans-serif;font-size:13;" transform="matrix(1 0 0 1 776 1989)">can be adjusted by modifying the x-location of the margin guidelines.</text>
  <text style="stroke:none;fill:black;font-family:sans-serif;font-size:13;" transform="matrix(1 0 0 1 776 2007)">Modifications are automatically applied proportionally to all</text>
  <text style="stroke:none;fill:black;font-family:sans-serif;font-size:13;" transform="matrix(1 0 0 1 776 2025)">scales and weights.</text>
  <g transform="matrix(1 0 0 1 1289 1933)">
   <path d="M2.8418 1.86523L4.54102 3.57422C5.40039 4.44336 6.38672 4.38477 7.31445 3.35938L18.0078-8.42773L17.041-9.4043L6.42578 2.27539C6.07422 2.67578 5.74219 2.77344 5.27344 2.30469L4.10156 1.14258C3.63281 0.683594 3.74023 0.341797 4.14062-0.0195312L15.6152-10.8203L14.6387-11.7871L3.04688-0.898438C2.06055 0.0195312 1.98242 0.996094 2.8418 1.86523ZM9.25781-16.3281C8.83789-15.918 8.80859-15.3418 9.04297-14.9512C9.27734-14.5898 9.73633-14.3555 10.3809-14.5215C11.8457-14.8633 13.3691-14.9219 14.7949-13.9844L14.209-12.5293C13.8672-11.6992 14.043-11.1133 14.5801-10.5664L16.875-8.25195C17.3633-7.76367 17.7734-7.74414 18.3398-7.8418L19.4043-8.03711L20.0684-7.36328L20.0293-6.80664C19.9902-6.30859 20.1172-5.92773 20.6055-5.44922L21.3672-4.70703C21.8457-4.22852 22.4609-4.19922 22.9297-4.66797L25.8398-7.58789C26.3086-8.05664 26.2891-8.65234 25.8105-9.13086L25.0391-9.89258C24.5605-10.3711 24.1895-10.5273 23.7109-10.4883L23.1348-10.4395L22.4902-11.0742L22.7344-12.1973C22.8613-12.7637 22.7051-13.2031 22.1191-13.7891L19.9219-15.9766C16.582-19.2969 12.1484-19.2188 9.25781-16.3281ZM10.752-15.957C13.1836-17.7344 16.4746-17.4316 18.7012-15.2051L21.1328-12.793C21.3672-12.5586 21.4062-12.373 21.3379-12.0312L21.0156-10.5469L22.5195-9.0625L23.5059-9.12109C23.7598-9.13086 23.8379-9.11133 24.0332-8.91602L24.6094-8.33984L22.168-5.89844L21.5918-6.47461C21.3965-6.66992 21.3672-6.74805 21.377-7.01172L21.4453-7.98828L19.9512-9.47266L18.4277-9.21875C18.1055-9.15039 17.959-9.17969 17.7148-9.41406L15.7129-11.416C15.459-11.6504 15.4297-11.8164 15.5859-12.1875L16.4648-14.2773C14.9023-15.7324 12.8711-16.3574 10.8398-15.7617C10.6836-15.7227 10.625-15.8496 10.752-15.957Z"/>
  </g>
  <text style="stroke:none;fill:black;font-family:sans-serif;font-size:13;font-weight:bold;" transform="matrix(1 0 0 1 1289 1953)">Exporting</text>
  <text style="stroke:none;fill:black;font-family:sans-serif;font-size:13;" transform="matrix(1 0 0 1 1289 1971)">Symbols should be outlined when exporting to ensure the</text>
  <text style="stroke:none;fill:black;font-family:sans-serif;font-size:13;" transform="matrix(1 0 0 1 1289 1989)">design is preserved when submitting to Xcode.</text>
  <text id="template-version" style="stroke:none;fill:black;font-family:sans-serif;font-size:13;text-anchor:end;" transform="matrix(1 0 0 1 3036 1933)">Template v.4.0</text>
  <text style="stroke:none;fill:black;font-family:sans-serif;font-size:13;text-anchor:end;" transform="matrix(1 0 0 1 3036 1951)">Requires Xcode 14 or greater</text>
  <text id="descriptive-name" style="stroke:none;fill:black;font-family:sans-serif;font-size:13;text-anchor:end;" transform="matrix(1 0 0 1 3036 1969)">Generated from figure.basketball</text>
  <text style="stroke:none;fill:black;font-family:sans-serif;font-size:13;text-anchor:end;" transform="matrix(1 0 0 1 3036 1987)">Typeset at 100 points</text>
  <text style="stroke:none;fill:black;font-family:sans-serif;font-size:13;" transform="matrix(1 0 0 1 263 726)">Small</text>
  <text style="stroke:none;fill:black;font-family:sans-serif;font-size:13;" transform="matrix(1 0 0 1 263 1156)">Medium</text>
  <text style="stroke:none;fill:black;font-family:sans-serif;font-size:13;" transform="matrix(1 0 0 1 263 1586)">Large</text>
 </g>
 <g id="Guides">
  <g id="H-reference" style="fill:#27AAE1;stroke:none;" transform="matrix(1 0 0 1 339 696)">
   <path d="M0.993654 0L3.63775 0L29.3281-67.1323L30.0303-67.1323L30.0303-70.459L28.1226-70.459ZM11.6885-24.4799L46.9815-24.4799L46.2315-26.7285L12.4385-26.7285ZM55.1196 0L57.7637 0L30.6382-70.459L29.4326-70.459L29.4326-67.1323Z"/>
  </g>
  <line id="Baseline-S" style="fill:none;stroke:#27AAE1;opacity:1;stroke-width:0.5;" x1="263" x2="3036" y1="696" y2="696"/>
  <line id="Capline-S" style="fill:none;stroke:#27AAE1;opacity:1;stroke-width:0.5;" x1="263" x2="3036" y1="625.541" y2="625.541"/>
  <g id="H-reference" style="fill:#27AAE1;stroke:none;" transform="matrix(1 0 0 1 339 1126)">
   <path d="M0.993654 0L3.63775 0L29.3281-67.1323L30.0303-67.1323L30.0303-70.459L28.1226-70.459ZM11.6885-24.4799L46.9815-24.4799L46.2315-26.7285L12.4385-26.7285ZM55.1196 0L57.7637 0L30.6382-70.459L29.4326-70.459L29.4326-67.1323Z"/>
  </g>
  <line id="Baseline-M" style="fill:none;stroke:#27AAE1;opacity:1;stroke-width:0.5;" x1="263" x2="3036" y1="1126" y2="1126"/>
  <line id="Capline-M" style="fill:none;stroke:#27AAE1;opacity:1;stroke-width:0.5;" x1="263" x2="3036" y1="1055.54" y2="1055.54"/>
  <g id="H-reference" style="fill:#27AAE1;stroke:none;" transform="matrix(1 0 0 1 339 1556)">
   <path d="M0.993654 0L3.63775 0L29.3281-67.1323L30.0303-67.1323L30.0303-70.459L28.1226-70.459ZM11.6885-24.4799L46.9815-24.4799L46.2315-26.7285L12.4385-26.7285ZM55.1196 0L57.7637 0L30.6382-70.459L29.4326-70.459L29.4326-67.1323Z"/>
  </g>
  <line id="Baseline-L" style="fill:none;stroke:#27AAE1;opacity:1;stroke-width:0.5;" x1="263" x2="3036" y1="1556" y2="1556"/>
  <line id="Capline-L" style="fill:none;stroke:#27AAE1;opacity:1;stroke-width:0.5;" x1="263" x2="3036" y1="1485.54" y2="1485.54"/>
  <line id="left-margin-Regular-M" style="fill:none;stroke:#00AEEF;stroke-width:0.5;opacity:1.0;" x1="1385.21" x2="1385.21" y1="1030.79" y2="1150.12"/>
  <line id="right-margin-Regular-M" style="fill:none;stroke:#00AEEF;stroke-width:0.5;opacity:1.0;" x1="1514.48" x2="1514.48" y1="1030.79" y2="1150.12"/>
 </g>
 <g id="Symbols">
  <g id="Black-L" transform="matrix(1 0 0 1 2845.52 1556)">
   <path d="M83.4353-82.9319C91.9406-82.9319 98.9034-89.8739 98.9034-98.4208C98.9034-106.946 91.9406-113.888 83.4353-113.888C74.8689-113.888 67.9268-106.946 67.9268-98.4208C67.9268-89.8739 74.8689-82.9319 83.4353-82.9319ZM21.6897 39.9375C24.684 42.7345 29.5167 43.2535 32.9119 39.9375L61.8723 11.0367C63.9884 9.02188 64.3672 7.18868 64.1272 4.40722L62.7548-10.7133C62.616-12.1825 64.0851-12.7602 65.1754-11.788L82.8445 3.40086L93.5184 36.5435C95.0155 41.2154 99.6874 42.9318 103.542 41.8147C107.996 40.4564 110.171 35.9454 108.813 31.7108L97.5631-3.60754C97.183-4.68819 96.5629-6.02449 95.4678-6.90148L73.8672-28.3997L87.6415-56.0455C87.9708-56.7249 88.5762-56.8494 89.1312-56.2944L105.06-40.2848C105.9-39.4454 107.236-38.6488 108.317-38.3283L140.526-28.7208C143.679-27.8009 148.833-28.962 150.491-34.1736C151.688-38.3654 149.293-42.8984 145.117-44.1179L114.945-53.0445L97.672-70.3992C93.4673-74.6038 88.6414-76.4655 82.9552-76.4655L36.9486-76.4655C33.8531-76.4655 31.1377-74.6699 29.7794-72.0129L16.9234-46.3229C15.0253-42.5268 16.3825-37.6357 20.5366-35.7001C24.5311-33.7436 29.2614-35.2396 31.2398-39.2341L41.7605-60.4118L54.4826-60.4118C55.2865-60.4118 55.6442-59.7248 55.2721-59.0025L45.4012-39.1607C41.7167-31.8089 40.8101-23.1948 42.795-15.2581L47.3145 2.83086L21.6093 28.4557C18.5138 31.5488 18.515 36.7628 21.6897 39.9375ZM142.861 11.8979C152.148 11.8979 159.674 4.37087 159.674-4.91534C159.674-14.2808 152.148-21.7858 142.861-21.7858C133.495-21.7858 125.989-14.2808 125.989-4.91534C125.989 4.37087 133.495 11.8979 142.861 11.8979Z"/>
  </g>
  <g id="Heavy-L" transform="matrix(1 0 0 1 2549.98 1556)">
   <path d="M82.3145-82.3472C90.5732-82.3472 97.331-89.0747 97.331-97.3938C97.331-105.677 90.5732-112.405 82.3145-112.405C73.9709-112.405 67.2433-105.677 67.2433-97.3938C67.2433-89.0747 73.9709-82.3472 82.3145-82.3472ZM21.5485 38.6425C24.3961 41.3204 29.0138 41.8117 32.2579 38.6425L60.8476 10.103C62.8677 8.19349 63.2284 6.47498 62.9927 3.77569L61.5741-11.9712C61.449-13.3311 62.8089-13.8962 63.8082-12.9918L81.958 2.60338L92.5238 35.404C93.9476 39.8608 98.4044 41.4901 102.09 40.4326C106.347 39.1338 108.417 34.8378 107.118 30.7863L96.0221-4.08463C95.6558-5.13331 95.0538-6.39626 94.0321-7.21811L72.5507-28.5833L86.2731-56.0927C86.6575-56.8918 87.4333-57.0438 88.0804-56.3967L103.843-40.5538C104.65-39.7464 105.913-39.0049 106.962-38.6889L138.755-29.1988C141.758-28.311 146.691-29.44 148.276-34.4184C149.414-38.4039 147.138-42.7357 143.131-43.9094L113.284-52.7417L96.1954-69.916C92.0956-74.0158 87.3882-75.8273 81.8432-75.8273L36.4335-75.8273C33.4753-75.8273 30.8834-74.1232 29.5846-71.5759L16.8914-46.2252C15.0711-42.5846 16.3643-37.9224 20.3353-36.0876C24.1512-34.2227 28.6526-35.6409 30.5533-39.4568L41.021-60.5059L53.7876-60.5059C54.7387-60.5059 55.2161-59.644 54.7657-58.779L44.9986-39.1397C41.3957-31.9473 40.4753-23.5152 42.4331-15.7241L46.9444 2.27708L21.4681 27.6729C18.5099 30.6199 18.5155 35.6094 21.5485 38.6425ZM140.98 10.4999C150.008 10.4999 157.328 3.17366 157.328-5.84784C157.328-14.9442 150.008-22.2346 140.98-22.2346C131.884-22.2346 124.588-14.9442 124.588-5.84784C124.588 3.17366 131.884 10.4999 140.98 10.4999Z"/>
  </g>
  <g id="Bold-L" transform="matrix(1 0 0 1 2254.81 1556)">
   <path d="M80.8493-81.5727C88.8082-81.5727 95.3123-88.0388 95.3123-96.0736C95.3123-104.057 88.8082-110.523 80.8493-110.523C72.7897-110.523 66.3235-104.057 66.3235-96.0736C66.3235-88.0388 72.7897-81.5727 80.8493-81.5727ZM21.3719 36.9769C24.05 39.5163 28.4137 39.9768 31.4808 36.9769L59.5648 8.9354C61.4695 7.14904 61.8072 5.56151 61.5791 2.96216L60.114-13.4639C60.0044-14.6856 61.2261-15.2204 62.1102-14.4079L80.7549 1.61226L91.1676 33.9231C92.5067 38.126 96.7095 39.6551 100.195 38.6669C104.221 37.4375 106.168 33.3954 104.938 29.5594L94.0493-4.69863C93.6984-5.70885 93.1195-6.88709 92.1825-7.64727L70.9067-28.7914L84.5228-56.0572C84.969-56.9875 85.93-57.1703 86.6774-56.4229L102.203-40.8172C102.972-40.0482 104.15-39.3685 105.16-39.06L136.386-29.7308C139.212-28.8815 143.884-29.9721 145.384-34.6734C146.452-38.4202 144.315-42.5135 140.508-43.6333L111.12-52.3279L94.2921-69.2496C90.3229-73.2188 85.7615-74.9688 80.3932-74.9688L35.7957-74.9688C32.9992-74.9688 30.5535-73.3725 29.324-70.956L16.8529-46.0651C15.125-42.6092 16.3412-38.2163 20.0968-36.4971C23.7048-34.7399 27.9368-36.0658 29.7452-39.6737L40.1214-60.5094L52.8898-60.5094C54.0028-60.5094 54.6114-59.4547 54.0761-58.4353L44.4544-39.0868C40.9589-32.0941 40.0231-23.8924 41.9427-16.2855L46.4312 1.55589L21.2915 26.6153C18.4949 29.3854 18.5081 34.1132 21.3719 36.9769ZM138.481 8.81567C147.193 8.81567 154.26 1.73537 154.26-6.96325C154.26-15.7291 147.193-22.7581 138.481-22.7581C129.715-22.7581 122.673-15.7291 122.673-6.96325C122.673 1.73537 129.715 8.81567 138.481 8.81567Z"/>
  </g>
  <g id="Semibold-L" transform="matrix(1 0 0 1 1959.15 1556)">
   <path d="M79.8392-81.0387C87.5913-81.0387 93.9206-87.3246 93.9206-95.1635C93.9206-102.941 87.5913-109.227 79.8392-109.227C71.9754-109.227 65.6894-102.941 65.6894-95.1635C65.6894-87.3246 71.9754-81.0387 79.8392-81.0387ZM21.2501 35.8288C23.8114 38.2726 28.0001 38.7118 30.945 35.8288L58.6804 8.13046C60.5056 6.42901 60.8274 4.93176 60.6046 2.40132L59.1075-14.4929C59.0085-15.6194 60.1349-16.1333 60.9396-15.3842L79.9255 0.928982L90.2326 32.9023C91.5133 36.93 95.5411 38.3901 98.8883 37.4497C102.755 36.268 104.617 32.4011 103.436 28.7136L92.6892-5.12192C92.349-6.10563 91.786-7.22547 90.9074-7.94312L69.7734-28.9348L83.3163-56.0327C83.8049-57.0534 84.8936-57.2575 85.7102-56.441L101.072-40.9988C101.814-40.2564 102.934-39.6191 103.918-39.3159L134.753-30.0976C137.457-29.2748 141.948-30.3389 143.39-34.8493C144.411-38.4315 142.369-42.3603 138.7-43.443L109.629-52.0427L92.98-68.7902C89.1008-72.6694 84.6401-74.3769 79.3936-74.3769L35.3561-74.3769C32.6709-74.3769 30.326-72.8549 29.1443-70.5286L16.8264-45.9547C15.1621-42.6261 16.3253-38.4189 19.9323-36.7794C23.397-35.0965 27.4433-36.3587 29.1881-39.8233L39.5013-60.5118L52.2708-60.5118C53.4955-60.5118 54.1945-59.3242 53.6007-58.1983L44.0793-39.0503C40.6578-32.1953 39.7113-24.1523 41.6045-16.6726L46.0775 1.0587L21.1697 25.8861C18.4845 28.5343 18.503 33.0817 21.2501 35.8288ZM136.758 7.65455C145.252 7.65455 152.144 0.743828 152.144-7.7322C152.144-16.2702 145.252-23.119 136.758-23.119C128.22-23.119 121.352-16.2702 121.352-7.7322C121.352 0.743828 128.22 7.65455 136.758 7.65455Z"/>
  </g>
  <g id="Medium-L" transform="matrix(1 0 0 1 1663.24 1556)">
   <path d="M79.0732-80.6338C86.6687-80.6338 92.8654-86.7831 92.8654-94.4735C92.8654-102.094 86.6687-108.243 79.0732-108.243C71.3579-108.243 65.2086-102.094 65.2086-94.4735C65.2086-86.7831 71.3579-80.6338 79.0732-80.6338ZM21.1577 34.9582C23.6305 37.3295 27.6864 37.7526 30.5388 34.9582L58.0098 7.52011C59.7748 5.88305 60.0845 4.45427 59.8657 1.97607L58.3443-15.2732C58.2534-16.3274 59.3075-16.8255 60.052-16.1245L79.2966 0.410894L89.5237 32.1282C90.7601 36.0232 94.6551 37.431 97.8977 36.5267C101.644 35.3813 103.442 31.6471 102.296 28.0723L91.658-5.44288C91.3258-6.40648 90.7748-7.48204 89.9405-8.16745L68.9141-29.0436L82.4014-56.0142C82.9223-57.1034 84.1078-57.3236 84.9768-56.4547L100.215-41.1365C100.937-40.4142 102.012-39.8092 102.976-39.5099L133.515-30.3758C136.126-29.573 140.481-30.617 141.878-34.9826C142.863-38.44 140.893-42.2441 137.329-43.2987L108.498-51.8264L91.9851-68.4418C88.1742-72.2527 83.7898-73.9282 78.6356-73.9282L35.0227-73.9282C32.422-73.9282 30.1535-72.4625 29.0081-70.2045L16.8063-45.8709C15.1903-42.6389 16.3133-38.5725 19.8077-36.9934C23.1636-35.3668 27.0692-36.5808 28.7656-39.9368L39.0311-60.5137L51.8014-60.5137C53.1109-60.5137 53.8784-59.2252 53.2402-58.0187L43.7948-39.0226C40.4295-32.272 39.475-24.3495 41.3482-16.966L45.8093 0.681713L21.0773 25.3333C18.4766 27.889 18.4991 32.2995 21.1577 34.9582ZM135.451 6.77414C143.781 6.77414 150.54-0.00800319 150.54-8.31525C150.54-16.6805 143.781-23.3927 135.451-23.3927C127.086-23.3927 120.351-16.6805 120.351-8.31525C120.351-0.00800319 127.086 6.77414 135.451 6.77414Z"/>
  </g>
  <g id="Regular-L" transform="matrix(1 0 0 1 1367.58 1556)">
   <path d="M78.0742-80.1058C85.4652-80.1058 91.489-86.0768 91.489-93.5734C91.489-100.989 85.4652-106.961 78.0742-106.961C70.5526-106.961 64.5815-100.989 64.5815-93.5734C64.5815-86.0768 70.5526-80.1058 78.0742-80.1058ZM21.0373 33.8226C23.3945 36.0994 27.2773 36.5015 30.009 33.8226L57.1352 6.72401C58.8215 5.17092 59.1155 3.83144 58.9019 1.42139L57.3488-16.291C57.2684-17.2509 58.2283-17.7284 58.8943-17.0901L78.4763-0.264874L88.599 31.1185C89.7777 34.8404 93.4995 36.1799 96.6057 35.3229C100.194 34.2247 101.908 30.6636 100.81 27.2358L90.3129-5.86151C89.9913-6.79889 89.456-7.8167 88.6794-8.46006L67.7932-29.1854L81.208-55.99C81.771-57.1686 83.0828-57.4099 84.0202-56.4725L99.0962-41.3161C99.7923-40.62 100.81-40.057 101.747-39.763L131.899-30.7385C134.39-29.962 138.567-30.9798 139.906-35.1565C140.844-38.4512 138.969-42.0926 135.541-43.1104L107.022-51.5443L90.6874-67.9875C86.9655-71.7093 82.6807-73.3428 77.647-73.3428L34.5878-73.3428C32.0974-73.3428 29.9286-71.9506 28.8303-69.7818L16.7801-45.7618C15.227-42.6556 16.2976-38.7729 19.645-37.2725C22.8593-35.7195 26.5811-36.8705 28.2146-40.0847L38.4178-60.5161L51.1892-60.5161C52.6091-60.5161 53.4661-59.0962 52.77-57.7843L43.4238-38.9865C40.1317-32.372 39.1667-24.6066 41.0138-17.3488L45.4594 0.189989L20.9568 24.6121C18.4664 27.0473 18.494 31.2793 21.0373 33.8226ZM133.747 5.62579C141.861 5.62579 148.448-0.988653 148.448-9.07576C148.448-17.2156 141.861-23.7496 133.747-23.7496C125.607-23.7496 119.045-17.2156 119.045-9.07576C119.045-0.988653 125.607 5.62579 133.747 5.62579Z"/>
  </g>
  <g id="Light-L" transform="matrix(1 0 0 1 1072.45 1556)">
   <path d="M76.5665-79.2469C83.7857-79.2469 89.6378-85.0653 89.6378-92.3519C89.6378-99.5581 83.7857-105.376 76.5665-105.376C69.293-105.376 63.4746-99.5581 63.4746-92.3519C63.4746-85.0653 69.293-79.2469 76.5665-79.2469ZM20.9037 32.2767C23.2228 34.5154 27.0101 34.9175 29.6845 32.2767L56.1619 5.84609C57.7909 4.33117 58.0658 3.01078 57.8713 0.657983L56.3564-16.9017C56.276-17.7472 57.1214-18.1101 57.6919-17.5863L76.9686-0.971029L86.8623 29.6489C88.0218 33.2754 91.6483 34.5958 94.6781 33.7579C98.1904 32.6788 99.8662 29.2132 98.7871 25.8617L88.538-6.43407C88.2163-7.35237 87.7001-8.35108 86.9427-8.99444L66.5717-29.2045L79.643-55.3602C80.206-56.5197 81.4796-56.761 82.3979-55.8427L97.1113-41.0489C97.7883-40.3719 98.7871-39.8089 99.7053-39.534L129.132-30.7194C131.565-29.962 135.628-30.9607 136.948-35.0229C137.866-38.2603 136.03-41.8064 132.678-42.8051L104.847-51.01L88.8934-67.0905C85.2669-70.7169 81.0775-72.3122 76.1774-72.3122L34.1489-72.3122C31.7156-72.3122 29.6041-70.9582 28.525-68.8466L16.761-45.3991C15.2461-42.3693 16.2785-38.582 19.5496-37.1008C22.7066-35.5859 26.333-36.6987 27.9284-39.8557L37.9025-59.7908L50.3304-59.7908C51.7312-59.7908 52.5691-58.39 51.8921-57.1164L42.7558-38.7765C39.5782-32.3148 38.6132-24.7402 40.403-17.6351L44.7533-0.535252L20.8232 23.3143C18.39 25.6541 18.4368 29.8098 20.9037 32.2767ZM130.922 4.76695C138.865 4.76695 145.28-1.69481 145.28-9.59106C145.28-17.521 138.865-23.9023 130.922-23.9023C122.992-23.9023 116.564-17.521 116.564-9.59106C116.564-1.69481 122.992 4.76695 130.922 4.76695Z"/>
  </g>
  <g id="Thin-L" transform="matrix(1 0 0 1 777.835 1556)">
   <path d="M74.5724-78.111C81.5644-78.111 87.1893-83.7275 87.1893-90.7364C87.1893-97.6649 81.5644-103.281 74.5724-103.281C67.627-103.281 62.0105-97.6649 62.0105-90.7364C62.0105-83.7275 67.627-78.111 74.5724-78.111ZM20.727 30.2321C22.9956 32.4203 26.6567 32.8224 29.2554 30.2321L54.8745 4.68496C56.4278 3.22053 56.6775 1.92538 56.5082-0.351689L55.0438-17.7095C54.9634-18.4034 55.6574-18.6149 56.1016-18.2426L74.9745-1.90498L84.5652 27.7053C85.6996 31.2056 89.1998 32.5007 92.1287 31.6881C95.54 30.6342 97.1653 27.2948 96.1114 24.0442L86.1905-7.19132C85.8688-8.08438 85.3779-9.05786 84.6457-9.70121L64.9563-29.2298L77.5732-54.5272C78.1361-55.6615 79.3593-55.9028 80.2524-55.0097L94.4861-40.6955C95.1379-40.0437 96.1114-39.4808 97.0045-39.2311L125.472-30.6942C127.83-29.962 131.74-30.9355 133.035-34.8462C133.928-38.0079 132.142-41.4277 128.892-42.4012L101.969-50.3032L86.5206-65.9041C83.0204-69.4043 78.9572-70.9492 74.2338-70.9492L33.5683-70.9492C31.2108-70.9492 29.175-69.6456 28.1211-67.6098L16.7358-44.9195C15.2713-41.9907 16.2533-38.3296 19.4234-36.8736C22.5046-35.4092 26.0049-36.4715 27.5497-39.5528L37.2209-58.8316L49.1945-58.8316C50.5701-58.8316 51.3827-57.4561 50.7309-56.2329L41.8724-38.4989C38.8462-32.2391 37.8812-24.9169 39.5953-18.0137L43.8193-1.49444L20.6466 21.5979C18.2891 23.8114 18.3611 27.8662 20.727 30.2321ZM127.186 3.63107C134.902 3.63107 141.09-2.62876 141.09-10.2726C141.09-17.9249 134.902-24.1043 127.186-24.1043C119.534-24.1043 113.282-17.9249 113.282-10.2726C113.282-2.62876 119.534 3.63107 127.186 3.63107Z"/>
  </g>
  <g id="Ultralight-L" transform="matrix(1 0 0 1 482.197 1556)">
   <path d="M73.551-77.5293C80.4267-77.5293 85.9352-83.0423 85.9352-89.909C85.9352-96.6953 80.4267-102.208 73.551-102.208C66.7737-102.208 61.2607-96.6953 61.2607-89.909C61.2607-83.0423 66.7737-77.5293 73.551-77.5293ZM20.6365 29.1849C22.8792 31.3472 26.4757 31.7493 29.0356 29.1849L54.2152 4.09024C55.7297 2.65167 55.9664 1.36944 55.8101-0.868839L54.3715-18.1232C54.2911-18.7396 54.9075-18.8735 55.2871-18.5787L73.9531-2.38334L83.3887 26.7098C84.5101 30.1454 87.9457 31.4276 90.8229 30.6279C94.1825 29.587 95.7819 26.3122 94.741 23.1134L84.9881-7.57919C84.6665-8.45931 84.1884-9.41986 83.4692-10.0632L64.1288-29.2427L76.5131-54.1005C77.076-55.2219 78.2733-55.4632 79.1534-54.5831L93.1416-40.5145C93.7804-39.8757 94.741-39.3127 95.6211-39.0759L123.597-30.6813C125.916-29.962 129.749-30.9225 131.031-34.7557C131.912-37.8786 130.151-41.2338 126.953-42.1944L100.495-49.9412L85.3053-65.2964C81.8697-68.732 77.8712-70.251 73.2383-70.251L33.2709-70.251C30.9522-70.251 28.9552-68.9733 27.9143-66.9763L16.7229-44.6739C15.2843-41.7967 16.2403-38.2003 19.3587-36.7572C22.4012-35.3187 25.8368-36.3551 27.3558-39.3976L36.8719-58.3403L48.6127-58.3403C49.9754-58.3403 50.7751-56.9777 50.1362-55.7804L41.4199-38.3567C38.4713-32.2003 37.5062-25.0074 39.1816-18.2076L43.341-1.98573L20.5561 20.7187C18.2374 22.8676 18.3223 26.8706 20.6365 29.1849ZM125.273 3.04927C132.872 3.04927 138.944-3.10712 138.944-10.6217C138.944-18.1317 132.872-24.2077 125.273-24.2077C117.763-24.2077 111.602-18.1317 111.602-10.6217C111.602-3.10712 117.763 3.04927 125.273 3.04927Z"/>
  </g>
  <g id="Black-M" transform="matrix(1 0 0 1 2864.52 1126)">
   <path d="M65.3998-72.5727C72.1778-72.5727 77.7252-78.1146 77.7252-84.9036C77.7252-91.6873 72.1778-97.2293 65.3998-97.2293C58.6051-97.2293 53.0632-91.6873 53.0632-84.9036C53.0632-78.1146 58.6051-72.5727 65.3998-72.5727ZM16.9072 23.9091C19.3479 26.1733 23.2639 26.599 26.0163 23.9091L48.6838 1.2984C50.398-0.34793 50.7046-1.86416 50.5174-4.08194L49.4991-15.2375C49.3797-16.4541 50.5962-16.8971 51.5062-16.1011L64.7407-4.71124L73.0721 21.1563C74.2924 24.9477 78.0838 26.3498 81.2052 25.4357C84.8146 24.3348 86.5856 20.668 85.4846 17.2403L76.6701-10.3982C76.3638-11.2603 75.8703-12.356 74.9615-13.0829L58.1939-29.783L68.8635-51.2306C69.0713-51.6516 69.3888-51.7243 69.737-51.376L82.1721-38.8787C82.8473-38.2035 83.943-37.5389 84.8052-37.2894L110.018-29.7735C112.583-29.036 116.749-29.9604 118.094-34.183C119.07-37.6 117.118-41.272 113.747-42.2535L90.1858-49.2194L76.6965-62.7708C73.3618-66.1054 69.534-67.5856 65.0254-67.5856L29.0089-67.5856C26.5004-67.5856 24.2982-66.121 23.1973-63.9759L13.1362-43.8589C11.604-40.7946 12.7052-36.8215 16.0706-35.2377C19.3111-33.6485 23.1596-34.8691 24.7541-38.1096L32.9194-54.5602L42.6909-54.5602C43.1846-54.5602 43.3563-54.1807 43.1379-53.749L35.4298-38.2648C32.5206-32.4528 31.8301-25.6485 33.3833-19.3951L36.879-5.36486L16.8449 14.607C14.3364 17.116 14.3361 21.338 16.9072 23.9091ZM111.914 2.36713C119.309 2.36713 125.293-3.61619 125.293-11.0122C125.293-18.4709 119.309-24.449 111.914-24.449C104.455-24.449 98.4772-18.4709 98.4772-11.0122C98.4772-3.61619 104.455 2.36713 111.914 2.36713Z"/>
  </g>
  <g id="Heavy-M" transform="matrix(1 0 0 1 2568.81 1126)">
   <path d="M64.4433-72.0803C70.9961-72.0803 76.3588-77.4267 76.3588-84.0123C76.3588-90.5792 70.9961-95.9256 64.4433-95.9256C57.8435-95.9256 52.4971-90.5792 52.4971-84.0123C52.4971-77.4267 57.8435-72.0803 64.4433-72.0803ZM16.7815 22.7857C19.0823 24.937 22.7969 25.3357 25.4069 22.7857L47.7719 0.466629C49.3975-1.08027 49.6881-2.48615 49.5034-4.62888L48.4364-16.4108C48.3305-17.5311 49.4508-17.9723 50.2806-17.2321L64.0132-5.42568L72.26 20.1779C73.4104 23.7679 77.0004 25.0865 79.9633 24.229C83.3873 23.1845 85.0588 19.7191 84.0143 16.4634L75.3274-10.8118C75.0346-11.6444 74.5571-12.6702 73.7182-13.3431L57.0197-29.9607L67.6702-51.3349C67.9318-51.8746 68.4194-51.9742 68.8594-51.5342L81.1651-39.1663C81.8108-38.5206 82.8366-37.9099 83.6692-37.663L108.542-30.2426C110.965-29.5345 114.927-30.4295 116.202-34.4346C117.122-37.6553 115.282-41.1393 112.07-42.0779L88.7624-48.9727L75.4186-62.3811C72.1776-65.6221 68.4568-67.0568 64.074-67.0568L28.5458-67.0568C26.1663-67.0568 24.0796-65.6781 23.0351-63.6351L13.1066-43.7968C11.647-40.8775 12.6892-37.1193 15.8827-35.6324C18.9538-34.1292 22.5874-35.2773 24.1093-38.3484L32.244-54.7191L42.0907-54.7191C42.7301-54.7191 43.0206-54.1669 42.7238-53.5921L35.0978-38.2636C32.2578-32.5933 31.5538-25.9494 33.0859-19.8243L36.5823-5.83932L16.7192 13.9615C14.3397 16.3365 14.3419 20.3462 16.7815 22.7857ZM110.336 1.07977C117.493 1.07977 123.292-4.7214 123.292-11.8763C123.292-19.0912 117.493-24.8737 110.336-24.8737C103.121-24.8737 97.3364-19.0912 97.3364-11.8763C97.3364-4.7214 103.121 1.07977 110.336 1.07977Z"/>
  </g>
  <g id="Bold-M" transform="matrix(1 0 0 1 2273.22 1126)">
   <path d="M63.3732-71.5295C69.6742-71.5295 74.8303-76.6571 74.8303-83.0153C74.8303-89.3397 69.6742-94.4672 63.3732-94.4672C56.9915-94.4672 51.864-89.3397 51.864-83.0153C51.864-76.6571 56.9915-71.5295 63.3732-71.5295ZM16.6409 21.529C18.7852 23.554 22.2745 23.9226 24.7252 21.529L46.7518-0.463833C48.2784-1.8995 48.551-3.18193 48.3692-5.24071L47.2476-17.7233C47.1567-18.736 48.1695-19.1751 48.9096-18.4972L63.1994-6.22489L71.3516 19.0834C72.4238 22.4481 75.7884 23.6734 78.5741 22.879C81.7907 21.8977 83.351 18.6576 82.3696 15.5942L73.8254-11.2744C73.5476-12.074 73.0881-13.0216 72.3274-13.6342L55.7061-30.1595L66.3353-51.4515C66.6572-52.124 67.335-52.2538 67.8777-51.7111L80.0386-39.488C80.6513-38.8753 81.5988-38.325 82.3984-38.0809L106.891-30.7673C109.155-30.0923 112.889-30.9542 114.085-34.716C114.942-37.7171 113.229-40.9909 110.194-41.8814L87.1702-48.6966L73.9891-61.9452C70.8528-65.0814 67.2519-66.4652 63.0096-66.4652L28.0278-66.4652C25.7925-66.4652 23.835-65.1827 22.8537-63.2537L13.0736-43.7274C11.6951-40.9703 12.6713-37.4525 15.6724-36.074C18.5541-34.6669 21.9473-35.7339 23.3881-38.6156L31.4884-54.8968L41.4194-54.8968C42.2217-54.8968 42.645-54.1515 42.2606-53.4167L34.7264-38.2623C31.9639-32.7505 31.2448-26.2859 32.7532-20.3043L36.2504-6.37006L16.5786 13.2394C14.3433 15.4644 14.3484 19.2366 16.6409 21.529ZM108.571-0.360326C115.461-0.360326 121.054-5.95773 121.054-12.8428C121.054-19.7851 115.461-25.3488 108.571-25.3488C101.629-25.3488 96.0601-19.7851 96.0601-12.8428C96.0601-5.95773 101.629-0.360326 108.571-0.360326Z"/>
  </g>
  <g id="Semibold-M" transform="matrix(1 0 0 1 1977.28 1126)">
   <path d="M62.6355-71.1499C68.7628-71.1499 73.7765-76.1265 73.7765-82.3279C73.7765-88.4852 68.7628-93.4619 62.6355-93.4619C56.4041-93.4619 51.4275-88.4852 51.4275-82.3279C51.4275-76.1265 56.4041-71.1499 62.6355-71.1499ZM16.544 20.6627C18.5804 22.6006 21.9143 22.9484 24.2553 20.6627L46.0485-1.10529C47.5068-2.46427 47.7671-3.66159 47.5873-5.6625L46.428-18.6281C46.3476-19.5667 47.2861-20.0043 47.9644-19.3694L62.6384-6.77585L70.7253 18.3289C71.7436 21.5382 74.9529 22.6992 77.6163 21.9483C80.69 21.0105 82.1736 17.9259 81.2358 14.995L72.7899-11.5933C72.5225-12.3702 72.0754-13.2638 71.3686-13.8349L54.8005-30.2966L65.415-51.5319C65.7785-52.296 66.5875-52.4466 67.2009-51.8331L79.262-39.7098C79.8519-39.1198 80.7455-38.6111 81.5224-38.369L105.753-31.129C107.907-30.4767 111.483-31.3159 112.626-34.9101C113.439-37.7597 111.813-40.8886 108.9-41.7459L86.0725-48.5063L73.0036-61.6447C69.9395-64.7087 66.4212-66.0574 62.2759-66.0574L27.6707-66.0574C25.5349-66.0574 23.6664-64.8412 22.7286-62.9909L13.0509-43.6795C11.7282-41.0342 12.6589-37.6821 15.5275-36.3784C18.2785-35.0375 21.506-36.0487 22.8909-38.7997L30.9676-55.0193L40.9565-55.0193C41.8712-55.0193 42.386-54.1409 41.9413-53.2957L34.4703-38.2614C31.7612-32.8589 31.0317-26.518 32.5239-20.6352L36.0215-6.73595L16.4816 12.7416C14.3458 14.8633 14.3529 18.4717 16.544 20.6627ZM107.355-1.35312C114.061-1.35312 119.511-6.81005 119.511-13.5092C119.511-20.2635 114.061-25.6763 107.355-25.6763C100.6-25.6763 95.1803-20.2635 95.1803-13.5092C95.1803-6.81005 100.6-1.35312 107.355-1.35312Z"/>
  </g>
  <g id="Medium-M" transform="matrix(1 0 0 1 1681.15 1126)">
   <path d="M62.0761-70.862C68.0718-70.862 72.9775-75.7242 72.9775-81.8068C72.9775-87.8373 68.0718-92.6995 62.0761-92.6995C55.9588-92.6995 51.0965-87.8373 51.0965-81.8068C51.0965-75.7242 55.9588-70.862 62.0761-70.862ZM16.4704 20.0058C18.4252 21.8777 21.6413 22.2097 23.8989 20.0058L45.5153-1.59166C46.9218-2.8925 47.1727-4.0253 46.9944-5.98233L45.8066-19.3142C45.734-20.1965 46.6164-20.633 47.2478-20.0308L62.2129-7.19362L70.2505 17.7568C71.2278 20.8483 74.3193 21.9605 76.8901 21.2427C79.8554 20.3379 81.2808 17.371 80.376 14.5407L72.0048-11.8352C71.7453-12.5948 71.3075-13.4475 70.6416-13.9871L54.1139-30.4005L64.7172-51.5929C65.1123-52.4264 66.0206-52.5927 66.6877-51.9256L78.6731-39.878C79.2458-39.3053 80.0985-38.828 80.8582-38.5874L104.891-31.4033C106.961-30.7683 110.418-31.5902 111.52-35.0572C112.3-37.7921 110.74-40.811 107.92-41.6432L85.2402-48.362L72.2563-61.4168C69.247-64.4261 65.7913-65.7481 61.7195-65.7481L27.4-65.7481C25.3395-65.7481 23.5386-64.5822 22.6338-62.7915L13.0336-43.6432C11.7534-41.0827 12.6495-37.8563 15.4176-36.6092C18.0696-35.3186 21.1714-36.2874 22.5139-38.9394L30.5726-55.1122L40.6056-55.1122C41.6054-55.1122 42.1897-54.1329 41.6992-53.204L34.2761-38.2607C31.6075-32.9411 30.8702-26.6939 32.35-20.8861L35.848-7.01338L16.4081 12.3642C14.3477 14.4074 14.3563 17.8917 16.4704 20.0058ZM106.432-2.1059C112.999-2.1059 118.341-7.45632 118.341-14.0144C118.341-20.6263 112.999-25.9246 106.432-25.9246C99.8202-25.9246 94.5132-20.6263 94.5132-14.0144C94.5132-7.45632 99.8202-2.1059 106.432-2.1059Z"/>
  </g>
  <g id="Regular-M" transform="matrix(1 0 0 1 1385.21 1126)">
   <path d="M61.3465-70.4864C67.1705-70.4864 71.9353-75.1995 71.9353-81.127C71.9353-86.9922 67.1705-91.7052 61.3465-91.7052C55.3779-91.7052 50.6648-86.9922 50.6648-81.127C50.6648-75.1995 55.3779-70.4864 61.3465-70.4864ZM16.3746 19.149C18.2226 20.9347 21.2851 21.2462 23.4341 19.149L44.8197-2.22607C46.1588-3.45106 46.3974-4.49969 46.2211-6.39948L44.9961-20.209C44.9338-21.018 45.7427-21.4531 46.313-20.8934L61.6581-7.73853L69.6311 17.0105C70.5551 19.9484 73.493 20.997 75.9429 20.3222C78.7668 19.4605 80.1164 16.6472 79.2546 13.948L70.9807-12.1506C70.7314-12.8877 70.3059-13.6871 69.6934-14.1856L53.2183-30.536L63.8071-51.6724C64.2432-52.5964 65.2813-52.7834 66.0184-52.0462L77.905-40.0973C78.4552-39.5471 79.2546-39.111 79.9917-38.8723L103.765-31.761C105.727-31.1485 109.028-31.9479 110.077-35.2491C110.814-37.8342 109.34-40.7098 106.641-41.5092L84.1546-48.1738L71.2816-61.1196C68.3438-64.0575 64.9698-65.3448 60.9938-65.3448L27.0468-65.3448C25.0847-65.3448 23.3718-64.2444 22.5101-62.5315L13.0111-43.5959C11.7861-41.1459 12.6373-38.0835 15.2742-36.9102C17.797-35.6852 20.7349-36.5987 22.0222-39.1215L30.0575-55.2333L40.1479-55.2333C41.2588-55.2333 41.9336-54.1224 41.3834-53.0843L34.0229-38.2598C31.4071-33.0483 30.6594-26.9234 32.1231-21.2134L35.6217-7.37526L16.3123 11.8719C14.3502 13.8129 14.3607 17.1351 16.3746 19.149ZM105.229-3.08778C111.613-3.08778 116.814-8.29928 116.814-14.6735C116.814-21.0994 111.613-26.2486 105.229-26.2486C98.8028-26.2486 93.643-21.0994 93.643-14.6735C93.643-8.29928 98.8028-3.08778 105.229-3.08778Z"/>
  </g>
  <g id="Light-M" transform="matrix(1 0 0 1 1089.92 1126)">
   <path d="M59.9948-69.7164C65.6648-69.7164 70.2756-74.2926 70.2756-80.0319C70.2756-85.7088 65.6648-90.285 59.9948-90.285C54.2485-90.285 49.6724-85.7088 49.6724-80.0319C49.6724-74.2926 54.2485-69.7164 59.9948-69.7164ZM16.2548 17.763C18.0686 19.5145 21.0455 19.826 23.1432 17.763L43.9471-3.01317C45.2348-4.20394 45.4563-5.23546 45.2971-7.08392L44.1063-20.7566C44.044-21.4629 44.7503-21.7953 45.235-21.3383L60.3063-8.37164L68.074 15.693C68.9809 18.5453 71.8332 19.5768 74.2147 18.9191C76.9701 18.0745 78.2855 15.3468 77.4409 12.7161L69.3894-12.6639C69.1401-13.3839 68.7317-14.1662 68.1363-14.6647L52.1232-30.5532L62.404-51.1078C62.8401-52.0147 63.844-52.2016 64.564-51.4816L76.1255-39.8578C76.6586-39.3247 77.4409-38.8885 78.1609-38.667L101.284-31.7439C103.195-31.1485 106.393-31.9308 107.425-35.1293C108.145-37.6631 106.705-40.4531 104.074-41.2354L82.204-47.6947L69.6732-60.3154C66.8209-63.1677 63.5324-64.4208 59.6763-64.4208L26.6532-64.4208C24.7425-64.4208 23.0809-63.3546 22.2363-61.6931L12.994-43.2708C11.8032-40.8893 12.6202-37.9123 15.1886-36.7562C17.6601-35.5654 20.5125-36.4447 21.7655-38.9162L29.5955-54.5831L39.3779-54.5831C40.4717-54.5831 41.1294-53.4893 40.5963-52.4854L33.424-38.0716C30.9109-32.997 30.1632-27.0431 31.5756-21.4701L34.9886-8.02547L16.1925 10.7083C14.2817 12.5638 14.3094 15.8176 16.2548 17.763ZM102.696-3.85778C108.927-3.85778 113.974-8.93238 113.974-15.1354C113.974-21.3732 108.927-26.3855 102.696-26.3855C96.4586-26.3855 91.4186-21.3732 91.4186-15.1354C91.4186-8.93238 96.4586-3.85778 102.696-3.85778Z"/>
  </g>
  <g id="Thin-M" transform="matrix(1 0 0 1 795.083 1126)">
   <path d="M58.207-68.6981C63.6733-68.6981 68.0804-73.0932 68.0804-78.5835C68.0804-84.0116 63.6733-88.4067 58.207-88.4067C52.7549-88.4067 48.3598-84.0116 48.3598-78.5835C48.3598-73.0932 52.7549-68.6981 58.207-68.6981ZM16.0964 15.9299C17.8649 17.6362 20.7287 17.9477 22.7585 15.9299L42.7929-4.05418C44.0127-5.19969 44.2116-6.20858 44.075-7.98914L42.9295-21.4807C42.8672-22.0513 43.4377-22.2479 43.8093-21.9266L58.5185-9.20897L66.0146 13.9504C66.8989 16.6896 69.638 17.6985 71.929 17.0634C74.5939 16.2414 75.864 13.6269 75.042 11.0866L67.2847-13.3429C67.0355-14.0402 66.6496-14.7999 66.0769-15.2983L50.6748-30.5758L60.5483-50.361C60.9844-51.2452 61.943-51.4321 62.6404-50.7348L73.7719-39.5409C74.2824-39.0305 75.042-38.5943 75.7394-38.3954L98.0025-31.7213C99.8454-31.1485 102.908-31.9082 103.917-34.9709C104.614-37.4368 103.22-40.1137 100.679-40.8733L79.6241-47.061L67.5459-59.2518C64.8068-61.9909 61.6315-63.1988 57.9337-63.1988L26.1327-63.1988C24.2899-63.1988 22.6962-62.1779 21.8742-60.5842L12.9714-42.8408C11.8259-40.5498 12.5976-37.686 15.0755-36.5525C17.4791-35.407 20.2183-36.241 21.4261-38.6446L28.9845-53.7232L38.3595-53.7232C39.4307-53.7232 40.0657-52.652 39.5553-51.6934L32.6319-37.8227C30.2546-32.9291 29.5069-27.2016 30.8514-21.8096L34.1513-8.88543L16.0341 9.16946C14.1912 10.9117 14.2415 14.075 16.0964 15.9299ZM99.3469-4.87615C105.374-4.87615 110.217-9.76971 110.217-15.7465C110.217-21.7352 105.374-26.5665 99.3469-26.5665C93.3582-26.5665 88.4766-21.7352 88.4766-15.7465C88.4766-9.76971 93.3582-4.87615 99.3469-4.87615Z"/>
  </g>
  <g id="Ultralight-M" transform="matrix(1 0 0 1 499.334 1126)">
   <path d="M57.2913-68.1765C62.6532-68.1765 66.9561-72.4788 66.9561-77.8417C66.9561-83.1422 62.6532-87.4446 57.2913-87.4446C51.9899-87.4446 47.6875-83.1422 47.6875-77.8417C47.6875-72.4788 51.9899-68.1765 57.2913-68.1765ZM16.0153 14.991C17.7606 16.6741 20.5664 16.9856 22.5615 14.991L42.2017-4.58738C43.3868-5.70971 43.5741-6.707 43.4491-8.4528L42.3268-21.8517C42.2645-22.3526 42.7654-22.4798 43.0791-22.228L57.6028-9.63785L64.9598 13.0579C65.8325 15.7391 68.5137 16.7364 70.7583 16.1129C73.3768 15.3025 74.6237 12.7459 73.8134 10.2521L66.2067-13.6906C65.9575-14.3764 65.5832-15.1244 65.0221-15.6229L49.933-30.5874L59.5978-49.9784C60.0339-50.8511 60.9693-51.038 61.6551-50.3523L72.5664-39.3786C73.0653-38.8798 73.8134-38.4437 74.4991-38.2563L96.3218-31.7097C98.1299-31.1485 101.123-31.8966 102.12-34.8898C102.806-37.3209 101.435-39.9398 98.9407-40.6879L78.3027-46.7365L66.4564-58.707C63.7751-61.3882 60.6578-62.5728 57.0412-62.5728L25.8661-62.5728C24.058-62.5728 22.4991-61.5751 21.6888-60.0162L12.9598-42.6206C11.8375-40.3759 12.586-37.5701 15.0175-36.4482C17.3864-35.3259 20.0676-36.1367 21.2522-38.5055L28.6715-53.2827L37.8379-53.2827C38.8975-53.2827 39.521-52.2231 39.0221-51.2877L32.2263-37.6952C29.9185-32.8943 29.1708-27.2827 30.4805-21.9834L33.7224-9.3259L15.9529 8.38125C14.1448 10.0656 14.2067 13.1825 16.0153 14.991ZM97.6314-5.39776C103.554-5.39776 108.293-10.1986 108.293-16.0594C108.293-21.9207 103.554-26.6592 97.6314-26.6592C91.7702-26.6592 86.9697-21.9207 86.9697-16.0594C86.9697-10.1986 91.7702-5.39776 97.6314-5.39776Z"/>
  </g>
  <g id="Black-S" transform="matrix(1 0 0 1 2879.2 696)">
   <path d="M51.4648-64.5996C56.8359-64.5996 61.2305-68.9941 61.2305-74.3652C61.2305-79.7363 56.8359-84.1309 51.4648-84.1309C46.0938-84.1309 41.6992-79.7363 41.6992-74.3652C41.6992-68.9941 46.0938-64.5996 51.4648-64.5996ZM13.2812 11.377C15.2344 13.1836 18.3594 13.5254 20.5566 11.377L38.3789-6.39648C39.7461-7.71484 39.9902-8.93555 39.8438-10.6934L39.0625-19.2383C38.9648-20.2148 39.9414-20.5566 40.6738-19.9219L50.8789-11.1328L57.4219 9.17969C58.3984 12.207 61.4258 13.3301 63.916 12.5977C66.7969 11.7188 68.2129 8.78906 67.334 6.05469L60.4004-15.6738C60.1562-16.3574 59.7656-17.2363 59.0332-17.8223L45.8984-30.9082L54.248-47.7051C54.3945-47.998 54.5898-48.0469 54.834-47.8027L64.5996-37.9883C65.1367-37.4512 66.0156-36.9141 66.6992-36.7188L86.5234-30.8105C88.5742-30.2246 91.8945-30.957 92.9688-34.3262C93.75-37.0605 92.1875-39.9902 89.502-40.7715L70.9961-46.2402L60.4004-56.8848C57.7637-59.5215 54.7363-60.6934 51.1719-60.6934L22.8516-60.6934C20.8496-60.6934 19.0918-59.5215 18.2129-57.8125L10.3027-41.9922C9.08203-39.5508 9.96094-36.377 12.6465-35.1074C15.2344-33.8379 18.3105-34.8145 19.5801-37.4023L25.9766-50.293L33.5938-50.293C33.9355-50.293 34.0332-50.0488 33.8867-49.7559L27.832-37.5977C25.5371-33.0078 25-27.6367 26.2207-22.7051L28.9551-11.7188L13.2324 3.95508C11.2305 5.95703 11.2305 9.32617 13.2812 11.377ZM88.0371-5.41992C93.8965-5.41992 98.6328-10.1562 98.6328-16.0156C98.6328-21.9238 93.8965-26.6602 88.0371-26.6602C82.1289-26.6602 77.3926-21.9238 77.3926-16.0156C77.3926-10.1562 82.1289-5.41992 88.0371-5.41992Z"/>
  </g>
  <g id="Heavy-S" transform="matrix(1 0 0 1 2583.16 696)">
   <path d="M50.8195-64.2769C56.0177-64.2769 60.2739-68.5216 60.2739-73.7429C60.2739-78.9527 56.0177-83.1974 50.8195-83.1974C45.5867-83.1974 41.342-78.9527 41.342-73.7429C41.342-68.5216 45.5867-64.2769 50.8195-64.2769ZM13.1891 10.5933C15.0269 12.3077 17.9906 12.6265 20.0726 10.5933L37.7105-7.00728C39.0085-8.24497 39.2411-9.37348 39.0947-11.0737L38.2673-20.1718C38.1812-21.0792 39.0886-21.4325 39.7634-20.8323L50.4295-11.6629L56.9263 8.51127C57.8453 11.3773 60.7113 12.4312 63.0747 11.7448C65.8058 10.912 67.1411 8.14369 66.3083 5.54761L59.4554-15.9619C59.2228-16.6225 58.8437-17.4438 58.1689-17.9836L45.0341-31.058L53.4068-47.8664C53.5993-48.2631 53.9445-48.335 54.2693-48.0102L63.9658-38.2649C64.4798-37.7508 65.3011-37.2598 65.9617-37.0645L85.5784-31.2139C87.514-30.651 90.6729-31.3604 91.6895-34.5567C92.4247-37.1297 90.9544-39.9096 88.3956-40.6562L70.028-46.0904L59.513-56.6543C56.9454-59.2218 53.9988-60.3591 50.5265-60.3591L22.5058-60.3591C20.6076-60.3591 18.942-59.2564 18.1092-57.6281L10.2797-41.9807C9.1166-39.6545 9.94941-36.6535 12.4967-35.4647C14.9463-34.2643 17.8496-35.1832 19.0615-37.6328L25.458-50.5119L33.1789-50.5119C33.6474-50.5119 33.8488-50.118 33.6332-49.6982L27.6246-37.6207C25.3758-33.1346 24.8271-27.8787 26.0363-23.0393L28.7822-12.0414L13.1402 3.55172C11.242 5.44995 11.242 8.64623 13.1891 10.5933ZM87.0114-6.42255C92.6864-6.42255 97.2845-11.0206 97.2845-16.6956C97.2845-22.4194 92.6864-27.0059 87.0114-27.0059C81.2876-27.0059 76.7011-22.4194 76.7011-16.6956C76.7011-11.0206 81.2876-6.42255 87.0114-6.42255Z"/>
  </g>
  <g id="Bold-S" transform="matrix(1 0 0 1 2287.21 696)">
   <path d="M50.0977-63.916C55.1025-63.916 59.2041-67.9932 59.2041-73.0469C59.2041-78.0762 55.1025-82.1533 50.0977-82.1533C45.0195-82.1533 40.9424-78.0762 40.9424-73.0469C40.9424-67.9932 45.0195-63.916 50.0977-63.916ZM13.0859 9.7168C14.7949 11.3281 17.5781 11.6211 19.5312 9.7168L36.9629-7.69043C38.1836-8.83789 38.4033-9.86328 38.2568-11.499L37.3779-21.2158C37.3047-22.0459 38.1348-22.4121 38.7451-21.8506L49.9268-12.2559L56.3721 7.76367C57.2266 10.4492 59.9121 11.4258 62.1338 10.791C64.6973 10.0098 65.9424 7.42188 65.1611 4.98047L58.3984-16.2842C58.1787-16.9189 57.8125-17.6758 57.2021-18.1641L44.0674-31.2256L52.4658-48.0469C52.71-48.5596 53.2227-48.6572 53.6377-48.2422L63.2568-38.5742C63.7451-38.0859 64.502-37.6465 65.1367-37.4512L84.5215-31.665C86.3281-31.1279 89.3066-31.8115 90.2588-34.8145C90.9424-37.207 89.5752-39.8193 87.1582-40.5273L68.9453-45.9229L58.5205-56.3965C56.0303-58.8867 53.1738-59.9854 49.8047-59.9854L22.1191-59.9854C20.3369-59.9854 18.7744-58.96 17.9932-57.4219L10.2539-41.9678C9.15527-39.7705 9.93652-36.9629 12.3291-35.8643C14.624-34.7412 17.334-35.5957 18.4814-37.8906L24.8779-50.7568L32.7148-50.7568C33.3252-50.7568 33.6426-50.1953 33.3496-49.6338L27.3926-37.6465C25.1953-33.2764 24.6338-28.1494 25.8301-23.4131L28.5889-12.4023L13.0371 3.10059C11.2549 4.88281 11.2549 7.88574 13.0859 9.7168ZM85.8643-7.54395C91.333-7.54395 95.7764-11.9873 95.7764-17.4561C95.7764-22.9736 91.333-27.3926 85.8643-27.3926C80.3467-27.3926 75.9277-22.9736 75.9277-17.4561C75.9277-11.9873 80.3467-7.54395 85.8643-7.54395Z"/>
  </g>
  <g id="Semibold-S" transform="matrix(1 0 0 1 1991.02 696)">
   <path d="M49.6-63.6672C54.4716-63.6672 58.4665-67.6288 58.4665-72.567C58.4665-77.4719 54.4716-81.4335 49.6-81.4335C44.6285-81.4335 40.6669-77.4719 40.6669-72.567C40.6669-67.6288 44.6285-63.6672 49.6-63.6672ZM13.0148 9.1125C14.635 10.6527 17.2937 10.9279 19.158 9.1125L36.4475-8.16143C37.6148-9.24668 37.8257-10.201 37.6792-11.7923L36.7647-21.9356C36.7004-22.7124 37.4771-23.0875 38.0431-22.5526L49.5802-12.6646L55.9899 7.24824C56.8 9.80937 59.3611 10.7326 61.4851 10.1334C63.933 9.3877 65.1159 6.92422 64.3702 4.58945L57.6697-16.5063C57.4589-17.1233 57.1016-17.8357 56.5356-18.2885L43.4009-31.3411L51.8171-48.1713C52.0968-48.764 52.725-48.8794 53.2022-48.4021L62.7681-38.7875C63.2386-38.317 63.951-37.9131 64.568-37.7178L83.7928-31.9761C85.5105-31.4567 88.3646-32.1226 89.2724-34.9922C89.9204-37.2604 88.6243-39.7571 86.3051-40.4385L68.1988-45.8073L57.8362-56.2188C55.3993-58.6557 52.6051-59.7276 49.307-59.7276L21.8525-59.7276C20.1503-59.7276 18.6589-58.7556 17.9132-57.2797L10.2361-41.9589C9.18193-39.8505 9.92764-37.1762 12.2136-36.1397C14.4019-35.07 16.9785-35.8801 18.0815-38.0684L24.478-50.9257L32.3949-50.9257C33.103-50.9257 33.5004-50.2486 33.1541-49.5894L27.2326-37.6643C25.0709-33.3741 24.5005-28.336 25.6879-23.6708L28.4556-12.6512L12.966 2.78955C11.2638 4.4918 11.2638 7.36143 13.0148 9.1125ZM85.0733-8.31709C90.3999-8.31709 94.7366-12.6538 94.7366-17.9804C94.7366-23.3558 90.3999-27.6592 85.0733-27.6592C79.6979-27.6592 75.3945-23.3558 75.3945-17.9804C75.3945-12.6538 79.6979-8.31709 85.0733-8.31709Z"/>
  </g>
  <g id="Medium-S" transform="matrix(1 0 0 1 1694.7 696)">
   <path d="M49.2227-63.4785C53.9932-63.4785 57.9072-67.3525 57.9072-72.2031C57.9072-77.0137 53.9932-80.8877 49.2227-80.8877C44.332-80.8877 40.458-77.0137 40.458-72.2031C40.458-67.3525 44.332-63.4785 49.2227-63.4785ZM12.9609 8.6543C14.5137 10.1406 17.0781 10.4023 18.875 8.6543L36.0566-8.51855C37.1836-9.55664 37.3877-10.457 37.2412-12.0146L36.2998-22.4814C36.2422-23.2178 36.9785-23.5996 37.5107-23.085L49.3174-12.9746L55.7002 6.85742C56.4766 9.32422 58.9434 10.207 60.9932 9.63477C63.3535 8.91602 64.4893 6.54688 63.7705 4.29297L57.1172-16.6748C56.9131-17.2783 56.5625-17.957 56.0303-18.3828L42.8955-31.4287L51.3252-48.2656C51.6318-48.9189 52.3477-49.0479 52.8721-48.5234L62.3975-38.9492C62.8545-38.4922 63.5332-38.1152 64.1367-37.9199L83.2402-32.2119C84.8906-31.7061 87.6504-32.3584 88.5244-35.127C89.1455-37.3008 87.9033-39.71 85.6582-40.3711L67.6328-45.7197L57.3174-56.084C54.9209-58.4805 52.1738-59.5322 48.9297-59.5322L21.6504-59.5322C20.0088-59.5322 18.5713-58.6006 17.8525-57.1719L10.2227-41.9521C9.20215-39.9111 9.9209-37.3379 12.126-36.3486C14.2334-35.3193 16.709-36.0957 17.7783-38.2031L24.1748-51.0537L32.1523-51.0537C32.9346-51.0537 33.3926-50.2891 33.0059-49.5557L27.1113-37.6777C24.9766-33.4482 24.3994-28.4775 25.5801-23.8662L28.3545-12.8398L12.9121 2.55371C11.2705 4.19531 11.2705 6.96387 12.9609 8.6543ZM84.4736-8.90332C89.6924-8.90332 93.9482-13.1592 93.9482-18.3779C93.9482-23.6455 89.6924-27.8613 84.4736-27.8613C79.2061-27.8613 74.9902-23.6455 74.9902-18.3779C74.9902-13.1592 79.2061-8.90332 84.4736-8.90332Z"/>
  </g>
  <g id="Regular-S" transform="matrix(1 0 0 1 1398.5 696)">
   <path d="M48.7305-63.2324C53.3691-63.2324 57.1777-66.9922 57.1777-71.7285C57.1777-76.416 53.3691-80.1758 48.7305-80.1758C43.9453-80.1758 40.1855-76.416 40.1855-71.7285C40.1855-66.9922 43.9453-63.2324 48.7305-63.2324ZM12.8906 8.05664C14.3555 9.47266 16.7969 9.7168 18.5059 8.05664L35.5469-8.98438C36.6211-9.96094 36.8164-10.791 36.6699-12.3047L35.6934-23.1934C35.6445-23.877 36.3281-24.2676 36.8164-23.7793L48.9746-13.3789L55.3223 6.34766C56.0547 8.69141 58.3984 9.52148 60.3516 8.98438C62.5977 8.30078 63.6719 6.05469 62.9883 3.90625L56.3965-16.8945C56.2012-17.4805 55.8594-18.1152 55.3711-18.5059L42.2363-31.543L50.6836-48.3887C51.0254-49.1211 51.8555-49.2676 52.4414-48.6816L61.9141-39.1602C62.3535-38.7207 62.9883-38.3789 63.5742-38.1836L82.5195-32.5195C84.082-32.0312 86.7188-32.666 87.5488-35.3027C88.1348-37.3535 86.9629-39.6484 84.8145-40.2832L66.8945-45.6055L56.6406-55.9082C54.2969-58.252 51.6113-59.2773 48.4375-59.2773L21.3867-59.2773C19.8242-59.2773 18.457-58.3984 17.7734-57.0312L10.2051-41.9434C9.22852-39.9902 9.91211-37.5488 12.0117-36.6211C14.0137-35.6445 16.3574-36.377 17.3828-38.3789L23.7793-51.2207L31.8359-51.2207C32.7148-51.2207 33.252-50.3418 32.8125-49.5117L26.9531-37.6953C24.8535-33.5449 24.2676-28.6621 25.4395-24.1211L28.2227-13.0859L12.8418 2.24609C11.2793 3.80859 11.2793 6.44531 12.8906 8.05664ZM83.6914-9.66797C88.7695-9.66797 92.9199-13.8184 92.9199-18.8965C92.9199-24.0234 88.7695-28.125 83.6914-28.125C78.5645-28.125 74.4629-24.0234 74.4629-18.8965C74.4629-13.8184 78.5645-9.66797 83.6914-9.66797Z"/>
  </g>
  <g id="Light-S" transform="matrix(1 0 0 1 1103.05 696)">
   <path d="M47.5347-62.5513C52.0371-62.5513 55.7095-66.1899 55.7095-70.7598C55.7095-75.2808 52.0371-78.9194 47.5347-78.9194C42.9463-78.9194 39.3076-75.2808 39.3076-70.7598C39.3076-66.1899 42.9463-62.5513 47.5347-62.5513ZM12.7847 6.83058C14.2192 8.21632 16.585 8.46046 18.2485 6.83058L34.7749-9.68066C35.8037-10.6269 35.9839-11.4419 35.8525-12.9102L34.9063-23.6777C34.8574-24.2705 35.4502-24.5703 35.8628-24.1728L47.7788-13.939L53.9448 5.18214C54.6621 7.45021 56.9302 8.26515 58.8228 7.74317C61.0083 7.07472 62.0523 4.90431 61.3838 2.81641L54.9888-17.3486C54.7935-17.9194 54.4668-18.5391 53.9937-18.9297L41.2676-31.5581L49.4424-47.8892C49.7842-48.6064 50.584-48.7529 51.1548-48.1821L60.3399-38.9482C60.7642-38.5239 61.3838-38.1821 61.9546-38.002L80.3247-32.5044C81.8418-32.0312 84.3877-32.6509 85.2027-35.1968C85.7735-37.2021 84.6319-39.4214 82.544-40.041L65.169-45.1816L55.2178-55.1968C52.9497-57.4648 50.3399-58.46 47.272-58.46L21.0386-58.46C19.5215-58.46 18.1997-57.6113 17.5313-56.2896L10.1899-41.6558C9.24365-39.7632 9.89697-37.3975 11.936-36.4849C13.8926-35.5386 16.1606-36.2407 17.1558-38.1973L23.3706-50.6455L31.1548-50.6455C32.0186-50.6455 32.5405-49.7817 32.1162-48.9819L26.4233-37.5288C24.4146-33.4995 23.8286-28.7681 24.9551-24.3481L27.6626-13.6611L12.7358 1.2168C11.2188 2.70362 11.2339 5.27979 12.7847 6.83058ZM81.4512-10.3491C86.3931-10.3491 90.4072-14.3784 90.4072-19.3052C90.4072-24.2656 86.3931-28.2461 81.4512-28.2461C76.4907-28.2461 72.4951-24.2656 72.4951-19.3052C72.4951-14.3784 76.4907-10.3491 81.4512-10.3491Z"/>
  </g>
  <g id="Thin-S" transform="matrix(1 0 0 1 807.997 696)">
   <path d="M45.9531-61.6504C50.2754-61.6504 53.7676-65.1289 53.7676-69.4785C53.7676-73.7793 50.2754-77.2578 45.9531-77.2578C41.625-77.2578 38.1465-73.7793 38.1465-69.4785C38.1465-65.1289 41.625-61.6504 45.9531-61.6504ZM12.6445 5.20901C14.0391 6.55471 16.3047 6.79885 17.9082 5.20901L33.7539-10.6015C34.7227-11.5078 34.8828-12.3027 34.7715-13.7109L33.8652-24.3184C33.8164-24.791 34.2891-24.9707 34.6016-24.6934L46.1973-14.6797L52.1231 3.64065C52.8203 5.80862 54.9883 6.60354 56.8008 6.10159C58.9063 5.45315 59.9102 3.38283 59.2617 1.37502L53.127-17.9492C52.9317-18.5 52.625-19.0996 52.1719-19.4902L39.9863-31.5781L47.8008-47.2285C48.1426-47.9258 48.9024-48.0723 49.4531-47.5215L58.2578-38.668C58.6621-38.2637 59.2617-37.9219 59.8125-37.7617L77.4219-32.4844C78.8789-32.0312 81.3047-32.6309 82.0997-35.0566C82.6504-37.002 81.5489-39.1211 79.5411-39.7207L62.8868-44.6211L53.336-54.2559C51.168-56.4238 48.6582-57.3789 45.7305-57.3789L20.5781-57.3789C19.1211-57.3789 17.8594-56.5703 17.2109-55.3086L10.1699-41.2754C9.26367-39.4629 9.87695-37.1973 11.8359-36.3047C13.7324-35.3984 15.9004-36.0605 16.8555-37.957L22.8301-49.8848L30.2539-49.8848C31.0977-49.8848 31.5996-49.041 31.1953-48.2813L25.7227-37.3086C23.834-33.4395 23.2481-28.9082 24.3145-24.6484L26.9219-14.4219L12.5957-0.144512C11.1387 1.24221 11.1738 3.7383 12.6445 5.20901ZM78.4883-11.25C83.25-11.25 87.084-15.1191 87.084-19.8457C87.084-24.5859 83.25-28.4062 78.4883-28.4062C73.7481-28.4062 69.8926-24.5859 69.8926-19.8457C69.8926-15.1191 73.7481-11.25 78.4883-11.25Z"/>
  </g>
  <g id="Ultralight-S" transform="matrix(1 0 0 1 512.137 696)">
   <path d="M45.1431-61.189C49.3731-61.189 52.773-64.5855 52.773-68.8223C52.773-73.0103 49.3731-76.4068 45.1431-76.4068C40.9483-76.4068 37.5518-73.0103 37.5518-68.8223C37.5518-64.5855 40.9483-61.189 45.1431-61.189ZM12.5728 4.37845C13.9468 5.70364 16.1611 5.94778 17.7339 4.37845L33.231-11.0732C34.169-11.959 34.3189-12.7436 34.2178-14.1211L33.332-24.6465C33.2832-25.0576 33.6944-25.1758 33.9556-24.96L45.3872-15.0591L51.19 2.8511C51.877 4.9678 53.9937 5.75247 55.7652 5.26077C57.8296 4.62259 58.813 2.60354 58.1748 0.636744L52.1734-18.2568C51.9781-18.7974 51.6817-19.3867 51.2388-19.7773L39.3301-31.5884L46.96-46.8901C47.3018-47.5772 48.041-47.7236 48.5816-47.1831L57.1914-38.5244C57.5855-38.1304 58.1748-37.7886 58.7154-37.6387L75.9351-32.4741C77.3614-32.0312 79.7256-32.6206 80.5103-34.9849C81.0508-36.8994 79.9698-38.9673 78.003-39.5566L61.7178-44.334L52.3721-53.7739C50.2554-55.8906 47.7969-56.8252 44.9409-56.8252L20.3423-56.8252C18.916-56.8252 17.6851-56.0371 17.0469-54.8062L10.1597-41.0806C9.27393-39.3091 9.8667-37.0947 11.7847-36.2124C13.6504-35.3267 15.7671-35.9683 16.7017-37.834L22.5532-49.4951L29.7925-49.4951C30.626-49.4951 31.1177-48.6616 30.7236-47.9224L25.3638-37.1958C23.5366-33.4087 22.9507-28.98 23.9863-24.8022L26.5425-14.8115L12.5239-0.841773C11.0977 0.493678 11.1431 2.94876 12.5728 4.37845ZM76.9708-11.7114C81.6402-11.7114 85.3819-15.4985 85.3819-20.1225C85.3819-24.75 81.6402-28.4883 76.9708-28.4883C72.3433-28.4883 68.5596-24.75 68.5596-20.1225C68.5596-15.4985 72.3433-11.7114 76.9708-11.7114Z"/>
  </g>
 </g>
</svg>
