<?xml version="1.0" encoding="UTF-8"?>
<!--Generator: Apple Native CoreSVG 175.5-->
<!DOCTYPE svg
PUBLIC "-//W3C//DTD SVG 1.1//EN"
       "http://www.w3.org/Graphics/SVG/1.1/DTD/svg11.dtd">
<svg version="1.1" xmlns="http://www.w3.org/2000/svg" xmlns:xlink="http://www.w3.org/1999/xlink" width="3300" height="2200">
 <!--glyph: "uni10130C.medium", point size: 100.0, font version: "18.0d12e2", template writer version: "101"-->
 <g id="Notes">
  <rect height="2200" id="artboard" style="fill:white;opacity:1" width="3300" x="0" y="0"/>
  <line style="fill:none;stroke:black;opacity:1;stroke-width:0.5;" x1="263" x2="3036" y1="292" y2="292"/>
  <text style="stroke:none;fill:black;font-family:sans-serif;font-size:13;font-weight:bold;" transform="matrix(1 0 0 1 263 322)">Weight/Scale Variations</text>
  <text style="stroke:none;fill:black;font-family:sans-serif;font-size:13;text-anchor:middle;" transform="matrix(1 0 0 1 559.711 322)">Ultralight</text>
  <text style="stroke:none;fill:black;font-family:sans-serif;font-size:13;text-anchor:middle;" transform="matrix(1 0 0 1 856.422 322)">Thin</text>
  <text style="stroke:none;fill:black;font-family:sans-serif;font-size:13;text-anchor:middle;" transform="matrix(1 0 0 1 1153.13 322)">Light</text>
  <text style="stroke:none;fill:black;font-family:sans-serif;font-size:13;text-anchor:middle;" transform="matrix(1 0 0 1 1449.84 322)">Regular</text>
  <text style="stroke:none;fill:black;font-family:sans-serif;font-size:13;text-anchor:middle;" transform="matrix(1 0 0 1 1746.56 322)">Medium</text>
  <text style="stroke:none;fill:black;font-family:sans-serif;font-size:13;text-anchor:middle;" transform="matrix(1 0 0 1 2043.27 322)">Semibold</text>
  <text style="stroke:none;fill:black;font-family:sans-serif;font-size:13;text-anchor:middle;" transform="matrix(1 0 0 1 2339.98 322)">Bold</text>
  <text style="stroke:none;fill:black;font-family:sans-serif;font-size:13;text-anchor:middle;" transform="matrix(1 0 0 1 2636.69 322)">Heavy</text>
  <text style="stroke:none;fill:black;font-family:sans-serif;font-size:13;text-anchor:middle;" transform="matrix(1 0 0 1 2933.4 322)">Black</text>
  <line style="fill:none;stroke:black;opacity:1;stroke-width:0.5;" x1="263" x2="3036" y1="1903" y2="1903"/>
  <g transform="matrix(1 0 0 1 263 1933)">
   <path d="M9.24805 0.830078C13.5547 0.830078 17.1387-2.74414 17.1387-7.05078C17.1387-11.3574 13.5449-14.9316 9.23828-14.9316C4.94141-14.9316 1.36719-11.3574 1.36719-7.05078C1.36719-2.74414 4.95117 0.830078 9.24805 0.830078ZM9.24805-0.654297C5.70312-0.654297 2.87109-3.49609 2.87109-7.05078C2.87109-10.6055 5.69336-13.4473 9.23828-13.4473C12.793-13.4473 15.6445-10.6055 15.6445-7.05078C15.6445-3.49609 12.8027-0.654297 9.24805-0.654297ZM5.6543-7.05078C5.6543-6.62109 5.95703-6.32812 6.40625-6.32812L8.50586-6.32812L8.50586-4.20898C8.50586-3.76953 8.79883-3.4668 9.22852-3.4668C9.67773-3.4668 9.9707-3.76953 9.9707-4.20898L9.9707-6.32812L12.0898-6.32812C12.5293-6.32812 12.832-6.62109 12.832-7.05078C12.832-7.49023 12.5293-7.79297 12.0898-7.79297L9.9707-7.79297L9.9707-9.90234C9.9707-10.3516 9.67773-10.6543 9.22852-10.6543C8.79883-10.6543 8.50586-10.3516 8.50586-9.90234L8.50586-7.79297L6.40625-7.79297C5.95703-7.79297 5.6543-7.49023 5.6543-7.05078Z"/>
  </g>
  <g transform="matrix(1 0 0 1 281.867 1933)">
   <path d="M11.709 2.91016C17.1582 2.91016 21.6699-1.61133 21.6699-7.05078C21.6699-12.5 17.1484-17.0117 11.6992-17.0117C6.25977-17.0117 1.74805-12.5 1.74805-7.05078C1.74805-1.61133 6.26953 2.91016 11.709 2.91016ZM11.709 1.25C7.09961 1.25 3.41797-2.44141 3.41797-7.05078C3.41797-11.6602 7.08984-15.3516 11.6992-15.3516C16.3086-15.3516 20.0098-11.6602 20.0098-7.05078C20.0098-2.44141 16.3184 1.25 11.709 1.25ZM7.17773-7.05078C7.17773-6.57227 7.50977-6.25 8.00781-6.25L10.8789-6.25L10.8789-3.36914C10.8789-2.88086 11.2109-2.53906 11.6895-2.53906C12.1777-2.53906 12.5195-2.87109 12.5195-3.36914L12.5195-6.25L15.4004-6.25C15.8887-6.25 16.2305-6.57227 16.2305-7.05078C16.2305-7.53906 15.8887-7.88086 15.4004-7.88086L12.5195-7.88086L12.5195-10.752C12.5195-11.25 12.1777-11.5918 11.6895-11.5918C11.2109-11.5918 10.8789-11.25 10.8789-10.752L10.8789-7.88086L8.00781-7.88086C7.50977-7.88086 7.17773-7.53906 7.17773-7.05078Z"/>
  </g>
  <g transform="matrix(1 0 0 1 305.646 1933)">
   <path d="M14.9707 5.66406C21.9336 5.66406 27.6953-0.0976562 27.6953-7.05078C27.6953-14.0137 21.9238-19.7754 14.9609-19.7754C8.00781-19.7754 2.25586-14.0137 2.25586-7.05078C2.25586-0.0976562 8.01758 5.66406 14.9707 5.66406ZM14.9707 3.84766C8.93555 3.84766 4.08203-1.01562 4.08203-7.05078C4.08203-13.0957 8.92578-17.9492 14.9609-17.9492C21.0059-17.9492 25.8691-13.0957 25.8691-7.05078C25.8691-1.01562 21.0156 3.84766 14.9707 3.84766ZM9.19922-7.05078C9.19922-6.5332 9.57031-6.17188 10.1172-6.17188L14.0625-6.17188L14.0625-2.2168C14.0625-1.67969 14.4336-1.29883 14.9512-1.29883C15.4883-1.29883 15.8594-1.66992 15.8594-2.2168L15.8594-6.17188L19.8145-6.17188C20.3516-6.17188 20.7324-6.5332 20.7324-7.05078C20.7324-7.59766 20.3613-7.96875 19.8145-7.96875L15.8594-7.96875L15.8594-11.9141C15.8594-12.4609 15.4883-12.8418 14.9512-12.8418C14.4336-12.8418 14.0625-12.4609 14.0625-11.9141L14.0625-7.96875L10.1172-7.96875C9.57031-7.96875 9.19922-7.59766 9.19922-7.05078Z"/>
  </g>
  <text style="stroke:none;fill:black;font-family:sans-serif;font-size:13;font-weight:bold;" transform="matrix(1 0 0 1 263 1953)">Design Variations</text>
  <text style="stroke:none;fill:black;font-family:sans-serif;font-size:13;" transform="matrix(1 0 0 1 263 1971)">Symbols are supported in up to nine weights and three scales.</text>
  <text style="stroke:none;fill:black;font-family:sans-serif;font-size:13;" transform="matrix(1 0 0 1 263 1989)">For optimal layout with text and other symbols, vertically align</text>
  <text style="stroke:none;fill:black;font-family:sans-serif;font-size:13;" transform="matrix(1 0 0 1 263 2007)">symbols with the adjacent text.</text>
  <line style="fill:none;stroke:#00AEEF;stroke-width:0.5;opacity:1.0;" x1="776" x2="776" y1="1919" y2="1933"/>
  <g transform="matrix(1 0 0 1 776 1933)">
   <path d="M3.31055 0.15625C3.82812 0.15625 4.08203-0.0390625 4.26758-0.585938L5.52734-4.0332L11.2891-4.0332L12.5488-0.585938C12.7344-0.0390625 12.9883 0.15625 13.4961 0.15625C14.0137 0.15625 14.3457-0.15625 14.3457-0.644531C14.3457-0.810547 14.3164-0.966797 14.2383-1.17188L9.6582-13.3691C9.43359-13.9648 9.0332-14.2676 8.4082-14.2676C7.80273-14.2676 7.39258-13.9746 7.17773-13.3789L2.59766-1.16211C2.51953-0.957031 2.49023-0.800781 2.49023-0.634766C2.49023-0.146484 2.80273 0.15625 3.31055 0.15625ZM6.00586-5.51758L8.37891-12.0898L8.42773-12.0898L10.8008-5.51758Z"/>
  </g>
  <line style="fill:none;stroke:#00AEEF;stroke-width:0.5;opacity:1.0;" x1="793.197" x2="793.197" y1="1919" y2="1933"/>
  <text style="stroke:none;fill:black;font-family:sans-serif;font-size:13;font-weight:bold;" transform="matrix(1 0 0 1 776 1953)">Margins</text>
  <text style="stroke:none;fill:black;font-family:sans-serif;font-size:13;" transform="matrix(1 0 0 1 776 1971)">Leading and trailing margins on the left and right side of each symbol</text>
  <text style="stroke:none;fill:black;font-family:sans-serif;font-size:13;" transform="matrix(1 0 0 1 776 1989)">can be adjusted by modifying the x-location of the margin guidelines.</text>
  <text style="stroke:none;fill:black;font-family:sans-serif;font-size:13;" transform="matrix(1 0 0 1 776 2007)">Modifications are automatically applied proportionally to all</text>
  <text style="stroke:none;fill:black;font-family:sans-serif;font-size:13;" transform="matrix(1 0 0 1 776 2025)">scales and weights.</text>
  <g transform="matrix(1 0 0 1 1289 1933)">
   <path d="M2.8418 1.86523L4.54102 3.57422C5.40039 4.44336 6.38672 4.38477 7.31445 3.35938L18.0078-8.42773L17.041-9.4043L6.42578 2.27539C6.07422 2.67578 5.74219 2.77344 5.27344 2.30469L4.10156 1.14258C3.63281 0.683594 3.74023 0.341797 4.14062-0.0195312L15.6152-10.8203L14.6387-11.7871L3.04688-0.898438C2.06055 0.0195312 1.98242 0.996094 2.8418 1.86523ZM9.25781-16.3281C8.83789-15.918 8.80859-15.3418 9.04297-14.9512C9.27734-14.5898 9.73633-14.3555 10.3809-14.5215C11.8457-14.8633 13.3691-14.9219 14.7949-13.9844L14.209-12.5293C13.8672-11.6992 14.043-11.1133 14.5801-10.5664L16.875-8.25195C17.3633-7.76367 17.7734-7.74414 18.3398-7.8418L19.4043-8.03711L20.0684-7.36328L20.0293-6.80664C19.9902-6.30859 20.1172-5.92773 20.6055-5.44922L21.3672-4.70703C21.8457-4.22852 22.4609-4.19922 22.9297-4.66797L25.8398-7.58789C26.3086-8.05664 26.2891-8.65234 25.8105-9.13086L25.0391-9.89258C24.5605-10.3711 24.1895-10.5273 23.7109-10.4883L23.1348-10.4395L22.4902-11.0742L22.7344-12.1973C22.8613-12.7637 22.7051-13.2031 22.1191-13.7891L19.9219-15.9766C16.582-19.2969 12.1484-19.2188 9.25781-16.3281ZM10.752-15.957C13.1836-17.7344 16.4746-17.4316 18.7012-15.2051L21.1328-12.793C21.3672-12.5586 21.4062-12.373 21.3379-12.0312L21.0156-10.5469L22.5195-9.0625L23.5059-9.12109C23.7598-9.13086 23.8379-9.11133 24.0332-8.91602L24.6094-8.33984L22.168-5.89844L21.5918-6.47461C21.3965-6.66992 21.3672-6.74805 21.377-7.01172L21.4453-7.98828L19.9512-9.47266L18.4277-9.21875C18.1055-9.15039 17.959-9.17969 17.7148-9.41406L15.7129-11.416C15.459-11.6504 15.4297-11.8164 15.5859-12.1875L16.4648-14.2773C14.9023-15.7324 12.8711-16.3574 10.8398-15.7617C10.6836-15.7227 10.625-15.8496 10.752-15.957Z"/>
  </g>
  <text style="stroke:none;fill:black;font-family:sans-serif;font-size:13;font-weight:bold;" transform="matrix(1 0 0 1 1289 1953)">Exporting</text>
  <text style="stroke:none;fill:black;font-family:sans-serif;font-size:13;" transform="matrix(1 0 0 1 1289 1971)">Symbols should be outlined when exporting to ensure the</text>
  <text style="stroke:none;fill:black;font-family:sans-serif;font-size:13;" transform="matrix(1 0 0 1 1289 1989)">design is preserved when submitting to Xcode.</text>
  <text id="template-version" style="stroke:none;fill:black;font-family:sans-serif;font-size:13;text-anchor:end;" transform="matrix(1 0 0 1 3036 1933)">Template v.4.0</text>
  <text style="stroke:none;fill:black;font-family:sans-serif;font-size:13;text-anchor:end;" transform="matrix(1 0 0 1 3036 1951)">Requires Xcode 14 or greater</text>
  <text id="descriptive-name" style="stroke:none;fill:black;font-family:sans-serif;font-size:13;text-anchor:end;" transform="matrix(1 0 0 1 3036 1969)">Generated from figure.elliptical</text>
  <text style="stroke:none;fill:black;font-family:sans-serif;font-size:13;text-anchor:end;" transform="matrix(1 0 0 1 3036 1987)">Typeset at 100 points</text>
  <text style="stroke:none;fill:black;font-family:sans-serif;font-size:13;" transform="matrix(1 0 0 1 263 726)">Small</text>
  <text style="stroke:none;fill:black;font-family:sans-serif;font-size:13;" transform="matrix(1 0 0 1 263 1156)">Medium</text>
  <text style="stroke:none;fill:black;font-family:sans-serif;font-size:13;" transform="matrix(1 0 0 1 263 1586)">Large</text>
 </g>
 <g id="Guides">
  <g id="H-reference" style="fill:#27AAE1;stroke:none;" transform="matrix(1 0 0 1 339 696)">
   <path d="M0.993654 0L3.63775 0L29.3281-67.1323L30.0303-67.1323L30.0303-70.459L28.1226-70.459ZM11.6885-24.4799L46.9815-24.4799L46.2315-26.7285L12.4385-26.7285ZM55.1196 0L57.7637 0L30.6382-70.459L29.4326-70.459L29.4326-67.1323Z"/>
  </g>
  <line id="Baseline-S" style="fill:none;stroke:#27AAE1;opacity:1;stroke-width:0.5;" x1="263" x2="3036" y1="696" y2="696"/>
  <line id="Capline-S" style="fill:none;stroke:#27AAE1;opacity:1;stroke-width:0.5;" x1="263" x2="3036" y1="625.541" y2="625.541"/>
  <g id="H-reference" style="fill:#27AAE1;stroke:none;" transform="matrix(1 0 0 1 339 1126)">
   <path d="M0.993654 0L3.63775 0L29.3281-67.1323L30.0303-67.1323L30.0303-70.459L28.1226-70.459ZM11.6885-24.4799L46.9815-24.4799L46.2315-26.7285L12.4385-26.7285ZM55.1196 0L57.7637 0L30.6382-70.459L29.4326-70.459L29.4326-67.1323Z"/>
  </g>
  <line id="Baseline-M" style="fill:none;stroke:#27AAE1;opacity:1;stroke-width:0.5;" x1="263" x2="3036" y1="1126" y2="1126"/>
  <line id="Capline-M" style="fill:none;stroke:#27AAE1;opacity:1;stroke-width:0.5;" x1="263" x2="3036" y1="1055.54" y2="1055.54"/>
  <g id="H-reference" style="fill:#27AAE1;stroke:none;" transform="matrix(1 0 0 1 339 1556)">
   <path d="M0.993654 0L3.63775 0L29.3281-67.1323L30.0303-67.1323L30.0303-70.459L28.1226-70.459ZM11.6885-24.4799L46.9815-24.4799L46.2315-26.7285L12.4385-26.7285ZM55.1196 0L57.7637 0L30.6382-70.459L29.4326-70.459L29.4326-67.1323Z"/>
  </g>
  <line id="Baseline-L" style="fill:none;stroke:#27AAE1;opacity:1;stroke-width:0.5;" x1="263" x2="3036" y1="1556" y2="1556"/>
  <line id="Capline-L" style="fill:none;stroke:#27AAE1;opacity:1;stroke-width:0.5;" x1="263" x2="3036" y1="1485.54" y2="1485.54"/>
  <line id="left-margin-Regular-M" style="fill:none;stroke:#00AEEF;stroke-width:0.5;opacity:1.0;" x1="1404.59" x2="1404.59" y1="1030.79" y2="1150.12"/>
  <line id="right-margin-Regular-M" style="fill:none;stroke:#00AEEF;stroke-width:0.5;opacity:1.0;" x1="1495.1" x2="1495.1" y1="1030.79" y2="1150.12"/>
 </g>
 <g id="Symbols">
  <g id="Black-L" transform="matrix(1 0 0 1 2871.04 1556)">
   <path d="M51.026-87.1207C59.5313-87.1207 66.5173-94.1067 66.5173-102.613C66.5173-111.139 59.5313-118.103 51.026-118.103C42.4988-118.103 35.5335-111.139 35.5335-102.613C35.5335-94.1067 42.4988-87.1207 51.026-87.1207ZM85.9967 19.0878C89.2162 17.4346 91.2978 13.657 89.2586 8.57703L77.5481-20.6622C77.1096-21.7805 76.1754-22.7343 74.7302-23.7773L54.0182-39.2108L55.4062-60.2811C55.4866-61.5059 56.5673-62.2 57.7724-61.7979L70.0516-57.5728C71.5696-57.0539 73.408-56.893 75.0296-57.0539L100.72-59.9818C111.363-61.1793 109.407-76.7724 98.9227-75.5749L74.3058-72.8067L49.2295-81.1519C39.2428-84.4743 30.5415-78.7726 29.7021-68.7482L27.7964-45.6437C27.1763-38.2763 31.002-31.1074 37.3447-27.3853L64.0722-11.8582L74.584 14.388C76.7793 19.8932 82.2238 20.9763 85.9967 19.0878ZM22.4135 30.6616C25.5687 32.5527 30.0936 32.3086 32.9878 27.9589L50.5142 1.86683C51.1343 0.809383 51.6532-0.607333 51.7337-2.22772L52.281-10.227L35.2923-20.1765L36.0589-4.70308L20.0505 19.1537C16.8341 23.9308 18.8351 28.6276 22.4135 30.6616ZM77.6847 42.6491L103.599 34.0845C106.427 33.1343 107.873 30.9394 107.873 27.677L107.873-54.6159C106.139-53.501 104.032-52.7365 101.515-52.4808L96.4623-51.9239L96.4623 24.3739L74.2071 31.7534C70.269 33.0593 69.3176 36.6197 70.4651 39.3883C71.4321 41.9389 74.1631 43.8173 77.6847 42.6491ZM21.6992 47.6014L48.2245 47.6014C51.3684 47.6014 53.9982 44.9729 53.9982 41.907C53.9982 38.7619 51.3684 36.2125 48.2245 36.2125L21.6992 36.2125C18.6345 36.2125 16.084 38.7619 16.084 41.907C16.084 44.9729 18.6345 47.6014 21.6992 47.6014Z"/>
  </g>
  <g id="Heavy-L" transform="matrix(1 0 0 1 2575.34 1556)">
   <path d="M50.1883-86.3323C58.447-86.3323 65.2461-93.1314 65.2461-101.396C65.2461-109.685 58.447-116.448 50.1883-116.448C41.8938-116.448 35.1248-109.685 35.1248-101.396C35.1248-93.1314 41.8938-86.3323 50.1883-86.3323ZM84.5615 18.2552C87.6426 16.693 89.6361 13.0714 87.6795 8.18438L76.1367-20.661C75.7258-21.7241 74.8649-22.6095 73.4286-23.6438L52.8778-38.9564L54.2751-60.2841C54.3555-61.5093 55.4042-62.1345 56.6049-61.7324L69.0615-57.4555C70.5155-56.9642 72.2856-56.8033 73.8614-56.9642L99.2121-59.8513C109.38-60.9892 107.515-75.8638 97.5024-74.7259L73.1376-71.994L48.3317-80.2444C38.6278-83.4709 30.2051-77.9472 29.3976-68.2289L27.5146-45.4135C26.9126-38.2424 30.6518-31.2467 36.8075-27.6294L63.2878-12.2689L73.6871 13.7345C75.782 18.9706 80.9624 20.0305 84.5615 18.2552ZM22.178 29.7367C25.1864 31.4707 29.4263 31.1892 32.169 27.0831L49.4603 1.33032C50.0622 0.323062 50.5536-1.02032 50.634-2.59052L51.2183-11.3357L34.8836-20.8783L35.6733-4.94677L19.836 18.6854C16.7426 23.2988 18.7082 27.8317 22.178 29.7367ZM75.8333 40.8655L101.412 32.4097C103.982 31.5411 105.3 29.5696 105.3 26.6111L105.3-54.4464C103.805-53.547 102-52.9154 99.8827-52.7011L95.0141-52.1662L95.0141 23.6505L72.7153 31.0536C69.1506 32.2415 68.2764 35.4511 69.3147 37.9418C70.1675 40.2326 72.6438 41.934 75.8333 40.8655ZM21.1345 45.923L47.5297 45.923C50.3642 45.923 52.7298 43.563 52.7298 40.7977C52.7298 37.9576 50.3642 35.6724 47.5297 35.6724L21.1345 35.6724C18.3748 35.6724 16.084 37.9576 16.084 40.7977C16.084 43.563 18.3748 45.923 21.1345 45.923Z"/>
  </g>
  <g id="Bold-L" transform="matrix(1 0 0 1 2279.91 1556)">
   <path d="M49.136-85.2148C57.0949-85.2148 63.6635-91.7834 63.6635-99.7555C63.6635-107.752 57.0949-114.27 49.136-114.27C41.1259-114.27 34.5954-107.752 34.5954-99.7555C34.5954-91.7834 41.1259-85.2148 49.136-85.2148ZM82.7045 17.2702C85.6388 15.8232 87.547 12.3788 85.683 7.70767L74.3625-20.6088C73.9825-21.6102 73.2063-22.4111 71.7852-23.4301L51.4788-38.5594L52.884-60.1053C52.9644-61.3231 53.9746-61.8713 55.1677-61.4692L67.78-57.1531C69.1571-56.6925 70.8426-56.5317 72.3646-56.6925L97.2555-59.526C106.861-60.5946 105.104-74.6226 95.6459-73.554L71.6408-70.8682L47.2176-78.9884C37.8596-82.0994 29.7752-76.7911 29.0062-67.442L27.1538-45.0248C26.5749-38.0921 30.2065-31.3115 36.1317-27.8248L62.2525-12.7016L72.4911 12.9499C74.463 17.8556 79.313 18.8923 82.7045 17.2702ZM21.8637 28.5843C24.7027 30.156 28.6264 29.8432 31.1994 26.0071L48.169 0.714105C48.7479-0.231664 49.2084-1.49033 49.2888-2.99904L49.9117-12.5546L34.3541-21.6124L35.1671-5.2167L19.5746 18.0867C16.6348 22.4927 18.5395 26.8183 21.8637 28.5843ZM73.5509 38.675L98.6847 30.3648C100.917 29.6036 102.074 27.9087 102.074 25.3491L102.074-54.1121C100.856-53.4593 99.3977-52.9817 97.7351-52.8136L93.2012-52.3168L93.2012 22.8037L70.886 30.2227C67.7898 31.2571 67.0154 34.0288 67.9154 36.1737C68.6299 38.1419 70.7836 39.6131 73.5509 38.675ZM20.4278 43.7215L46.6989 43.7215C49.1417 43.7215 51.177 41.6994 51.177 39.3105C51.177 36.8544 49.1417 34.8995 46.6989 34.8995L20.4278 34.8995C18.0521 34.8995 16.084 36.8544 16.084 39.3105C16.084 41.6994 18.0521 43.7215 20.4278 43.7215Z"/>
  </g>
  <g id="Semibold-L" transform="matrix(1 0 0 1 1984.08 1556)">
   <path d="M48.4106-84.4444C56.1628-84.4444 62.5724-90.854 62.5724-98.6247C62.5724-106.42 56.1628-112.768 48.4106-112.768C40.5966-112.768 34.2303-106.42 34.2303-98.6247C34.2303-90.854 40.5966-84.4444 48.4106-84.4444ZM81.4242 16.5911C84.2574 15.2235 86.1068 11.9013 84.3066 7.37904L73.1394-20.5728C72.7806-21.5317 72.0629-22.2743 70.6523-23.2828L50.5145-38.2857L51.925-59.9821C52.0054-61.1948 52.9891-61.6898 54.1769-61.2877L66.8966-56.9445C68.2206-56.5053 69.8479-56.3444 71.3327-56.5053L95.9066-59.3017C105.125-60.3225 103.442-73.767 94.3661-72.7461L70.6089-70.0921L46.4495-78.1224C37.33-81.154 29.4788-75.9941 28.7364-66.8994L26.9051-44.7569C26.3421-37.9885 29.8995-31.3562 35.6657-27.9595L61.5387-12.9999L71.6665 12.4091C73.5537 17.0869 78.176 18.1076 81.4242 16.5911ZM21.647 27.7899C24.3692 29.2496 28.0749 28.9153 30.531 25.2653L47.2787 0.289287C47.8417-0.614089 48.281-1.81435 48.3614-3.28067L49.011-13.3949L33.9891-22.1186L34.8181-5.40279L19.3944 17.6739C16.5606 21.937 18.4232 26.1196 21.647 27.7899ZM71.9773 37.1649L96.8046 28.9551C98.8043 28.2679 99.8504 26.7637 99.8504 24.4791L99.8504-53.8817C98.823-53.3988 97.6037-53.0274 96.2545-52.8912L91.9515-52.4207L91.9515 22.22L69.6249 29.6498C66.8517 30.5784 66.146 33.0483 66.9508 34.9549C67.5698 36.7005 69.5012 38.013 71.9773 37.1649ZM19.9406 42.2038L46.1261 42.2038C48.299 42.2038 50.1066 40.4147 50.1066 38.2853C50.1066 36.0939 48.299 34.3667 46.1261 34.3667L19.9406 34.3667C17.8296 34.3667 16.084 36.0939 16.084 38.2853C16.084 40.4147 17.8296 42.2038 19.9406 42.2038Z"/>
  </g>
  <g id="Medium-L" transform="matrix(1 0 0 1 1688.03 1556)">
   <path d="M47.8606-83.8603C55.456-83.8603 61.7451-90.1494 61.7451-97.7673C61.7451-105.41 55.456-111.629 47.8606-111.629C40.1952-111.629 33.9536-105.41 33.9536-97.7673C33.9536-90.1494 40.1952-83.8603 47.8606-83.8603ZM80.4535 16.0762C83.21 14.7688 85.0148 11.5393 83.2629 7.12985L72.212-20.5455C71.8693-21.4722 71.1959-22.1706 69.7932-23.1711L49.7832-38.0781L51.1978-59.8887C51.2782-61.0975 52.2418-61.5521 53.4256-61.15L66.2267-56.7864C67.5105-56.3633 69.0936-56.2025 70.5502-56.3633L94.8838-59.1316C103.809-60.1163 102.182-73.1182 93.3956-72.1335L69.8265-69.5036L45.8672-77.4659C36.9285-80.4371 29.2541-75.3898 28.5317-66.488L26.7165-44.5537C26.1655-37.9099 29.6667-31.3901 35.3125-28.0617L60.9975-13.226L71.0413 11.999C72.8642 16.504 77.3138 17.5126 80.4535 16.0762ZM21.4826 27.1875C24.1163 28.5624 27.6567 28.2117 30.0241 24.7028L46.6037-0.0328271C47.1547-0.90406 47.5778-2.06004 47.6582-3.49421L48.328-14.032L33.7123-22.5023L34.5534-5.54389L19.2577 17.3609C16.5042 21.5156 18.335 25.5899 21.4826 27.1875ZM70.7842 36.0199L95.379 27.8862C97.2023 27.2552 98.1641 25.8956 98.1641 23.8195L98.1641-53.707C97.2815-53.353 96.2435-53.062 95.1319-52.9501L91.0039-52.4994L91.0039 21.7773L68.6686 29.2154C66.1403 30.0638 65.4868 32.3048 66.2193 34.0307C66.766 35.6076 68.5288 36.7998 70.7842 36.0199ZM19.5712 41.053L45.6918 41.053C47.66 41.053 49.2949 39.4406 49.2949 37.5079C49.2949 35.5172 47.66 33.9627 45.6918 33.9627L19.5712 33.9627C17.6609 33.9627 16.084 35.5172 16.084 37.5079C16.084 39.4406 17.6609 41.053 19.5712 41.053Z"/>
  </g>
  <g id="Regular-L" transform="matrix(1 0 0 1 1392.19 1556)">
   <path d="M47.1431-83.0984C54.5341-83.0984 60.666-89.2303 60.666-96.6489C60.666-104.093 54.5341-110.144 47.1431-110.144C39.6717-110.144 33.5926-104.093 33.5926-96.6489C33.5926-89.2303 39.6717-83.0984 47.1431-83.0984ZM79.1873 15.4047C81.8437 14.1758 83.5904 11.0671 81.9016 6.80482L71.0024-20.5099C70.6807-21.3945 70.065-22.0353 68.6727-23.0255L48.8294-37.8074L50.2493-59.7668C50.3297-60.9705 51.2671-61.3726 52.4458-60.9705L65.353-56.5802C66.5844-56.1781 68.1098-56.0173 69.5297-56.1781L93.5497-58.9098C102.092-59.8472 100.539-72.2719 92.1298-71.3345L68.8059-68.736L45.1075-76.6095C36.4047-79.502 28.961-74.6015 28.2649-65.9515L26.4705-44.2887C25.9352-37.8074 29.3631-31.4343 34.8516-28.1949L60.2916-13.521L70.2258 11.4641C71.9648 15.7438 76.1892 16.7365 79.1873 15.4047ZM21.2683 26.4018C23.7864 27.6659 27.1113 27.2941 29.3631 23.9692L45.7232-0.452976C46.2585-1.28228 46.6606-2.3805 46.741-3.77275L47.4372-14.863L33.3513-23.0029L34.2083-5.72793L19.0795 16.9526C16.4308 20.966 18.22 24.8989 21.2683 26.4018ZM69.228 34.5264L93.5195 26.492C95.1126 25.9342 95.9645 24.7632 95.9645 22.959L95.9645-53.4791C95.2709-53.2932 94.4693-53.1072 93.6676-53.0268L89.7679-52.6022L89.7679 21.2L67.4213 28.6488C65.2125 29.3926 64.627 31.3351 65.2653 32.8252C65.7176 34.1821 67.2605 35.2174 69.228 34.5264ZM19.0893 39.552L45.1254 39.552C46.8266 39.552 48.2363 38.17 48.2363 36.4939C48.2363 34.7651 46.8266 33.4358 45.1254 33.4358L19.0893 33.4358C17.4409 33.4358 16.084 34.7651 16.084 36.4939C16.084 38.17 17.4409 39.552 19.0893 39.552Z"/>
  </g>
  <g id="Light-L" transform="matrix(1 0 0 1 1096.51 1556)">
   <path d="M46.3225-81.4189C53.5417-81.4189 59.5209-87.3981 59.5209-94.6641C59.5209-101.917 53.5417-107.816 46.3225-107.816C39.0228-107.816 33.0773-101.917 33.0773-94.6641C33.0773-87.3981 39.0228-81.4189 46.3225-81.4189ZM77.3933 15.0229C80.107 13.8895 81.9491 10.7999 80.2603 6.53763L69.6091-20.1473C69.2874-21.0319 68.6908-21.6155 67.3368-22.5674L47.9515-37.0059L49.3523-58.469C49.4327-59.6155 50.351-60.0176 51.5106-59.6155L64.1124-55.3587C65.3056-54.9566 66.7738-54.7958 68.1746-54.9566L91.6221-57.6311C99.9542-58.5494 98.4392-70.6687 90.2213-69.7504L67.4509-67.19L44.325-74.8918C35.8322-77.7271 28.5793-72.9411 27.9022-64.4819L26.1461-43.3535C25.6299-37.0059 28.9814-30.7854 34.3173-27.6414L59.1656-13.3302L68.8517 11.0824C70.5144 15.1521 74.4907 16.1639 77.3933 15.0229ZM20.9057 25.562C23.3857 26.9216 26.7296 26.6261 28.9814 23.2821L44.9217-0.567488C45.4379-1.35862 45.8399-2.43776 45.9204-3.79183L46.5974-14.7104L32.836-22.6403L33.6739-5.70885L18.9268 16.4183C16.3926 20.2598 18.0292 24.021 20.9057 25.562ZM67.7203 33.1331L91.5156 25.2706C92.7651 24.8272 93.4834 23.8471 93.4834 22.4628L93.4834-52.4485C92.8662-52.3007 92.1218-52.153 91.3774-52.0725L88.3937-51.7433L88.3937 20.9328L66.2762 28.3053C64.43 28.8964 63.9399 30.5144 64.4637 31.7564C64.8397 32.8843 66.1154 33.6906 67.7203 33.1331ZM18.5549 37.2427L44.7437 37.2427C46.1204 37.2427 47.282 36.1278 47.282 34.738C47.282 33.3146 46.1204 32.2334 44.7437 32.2334L18.5549 32.2334C17.2119 32.2334 16.084 33.3146 16.084 34.738C16.084 36.1278 17.2119 37.2427 18.5549 37.2427Z"/>
  </g>
  <g id="Thin-L" transform="matrix(1 0 0 1 801.16 1556)">
   <path d="M45.2371-79.1976C52.2291-79.1976 58.0064-84.9749 58.0064-92.0389C58.0064-99.0394 52.2291-104.736 45.2371-104.736C38.1646-104.736 32.3957-99.0394 32.3957-92.0389C32.3957-84.9749 38.1646-79.1976 45.2371-79.1976ZM75.0206 14.5181C77.81 13.5109 79.7783 10.4465 78.0895 6.18424L67.7665-19.6677C67.4448-20.5523 66.8734-21.0601 65.5698-21.9616L46.7904-35.9457L48.1659-56.7525C48.2464-57.8233 49.1394-58.2254 50.2737-57.8233L62.4717-53.7433C63.6144-53.3412 65.0069-53.1803 66.3825-53.3412L89.0727-55.9399C97.1271-56.833 95.6626-68.5484 87.6971-67.6554L65.6587-65.1455L43.2901-72.62C35.0749-75.3796 28.0744-70.7451 27.4226-62.5383L25.7169-42.1167C25.226-35.9457 28.4765-29.9271 33.6105-26.9094L57.6763-13.0777L67.0343 10.5775C68.596 14.3697 72.2441 15.4067 75.0206 14.5181ZM20.4261 24.4514C22.8556 25.9372 26.2248 25.7426 28.4765 22.3734L43.8615-0.718939C44.3525-1.45959 44.7546-2.51349 44.835-3.81708L45.4868-14.5084L32.1545-22.1607L32.9671-5.68361L18.7249 15.7115C16.3421 19.3259 17.7767 22.8599 20.4261 24.4514ZM65.7262 31.2905L88.8652 23.6551C89.6604 23.3632 90.202 22.6355 90.202 21.8065L90.202-51.0855C89.6857-50.9882 89.017-50.8909 88.3484-50.8105L86.5763-50.6074L86.5763 20.5794L64.7617 27.8509C63.3951 28.2401 63.0312 29.429 63.4035 30.3429C63.6785 31.1679 64.6008 31.6712 65.7262 31.2905ZM17.8482 34.1884L44.2388 34.1884C45.1865 34.1884 46.0199 33.427 46.0199 32.4158C46.0199 31.3962 45.1865 30.6432 44.2388 30.6432L17.8482 30.6432C16.909 30.6432 16.084 31.3962 16.084 32.4158C16.084 33.427 16.909 34.1884 17.8482 34.1884Z"/>
  </g>
  <g id="Ultralight-L" transform="matrix(1 0 0 1 505.148 1556)">
   <path d="M44.6811-78.0599C51.5568-78.0599 57.2307-83.7337 57.2307-90.6943C57.2307-97.5655 51.5568-103.159 44.6811-103.159C37.725-103.159 32.0467-97.5655 32.0467-90.6943C32.0467-83.7337 37.725-78.0599 44.6811-78.0599ZM73.8053 14.2595C76.6335 13.317 78.6664 10.2655 76.9776 6.00324L66.8227-19.422C66.501-20.3067 65.9425-20.7757 64.6648-21.6513L46.1956-35.4027L47.5583-55.8734C47.6387-56.9054 48.5188-57.3075 49.6402-56.9054L61.6313-52.9158C62.7482-52.5137 64.1019-52.3529 65.4645-52.5137L87.7669-55.0737C95.6791-55.9538 94.2405-67.4624 86.4043-66.5823L64.7407-64.0982L42.76-71.4564C34.687-74.1772 27.8159-69.6203 27.177-61.5428L25.4972-41.4832C25.0191-35.4027 28.218-29.4876 33.2485-26.5345L56.9135-12.9485L66.1034 10.319C67.6134 13.9689 71.0935 15.0188 73.8053 14.2595ZM20.1805 23.8825C22.5841 25.433 25.9662 25.2901 28.218 21.908L43.3185-0.796511C43.7965-1.51131 44.1986-2.55227 44.279-3.83001L44.9179-14.405L31.8054-21.9151L32.6051-5.67068L18.6215 15.3495C16.3163 18.8475 17.6475 22.2651 20.1805 23.8825ZM64.7048 30.3467L87.5077 22.8276C88.0702 22.6133 88.5212 22.0149 88.5212 21.4704L88.5212-50.3873C88.0567-50.3159 87.4268-50.2444 86.7969-50.164L85.6454-50.0256L85.6454 20.3984L63.986 27.6182C62.865 27.904 62.5658 28.8731 62.8605 29.6189C63.0838 30.2887 63.8251 30.6369 64.7048 30.3467ZM17.4862 32.624L43.9803 32.624C44.7081 32.624 45.3735 32.0436 45.3735 31.2264C45.3735 30.4136 44.7081 29.8287 43.9803 29.8287L17.4862 29.8287C16.7539 29.8287 16.084 30.4136 16.084 31.2264C16.084 32.0436 16.7539 32.624 17.4862 32.624Z"/>
  </g>
  <g id="Black-M" transform="matrix(1 0 0 1 2884.36 1126)">
   <path d="M40.1408-75.8818C46.9188-75.8818 52.4712-81.4342 52.4712-88.2118C52.4712-94.9953 46.9188-100.542 40.1408-100.542C33.3577-100.542 27.8108-94.9953 27.8108-88.2118C27.8108-81.4342 33.3577-75.8818 40.1408-75.8818ZM67.6156 7.51631C70.2366 6.17023 71.938 3.112 70.287-0.989494L61.1039-23.8955C60.7405-24.8093 59.9563-25.5992 58.8343-26.4098L42.7114-38.424L43.7761-54.4597C43.8384-55.4003 44.7005-55.9973 45.6354-55.6858L54.9547-52.475C56.1806-52.0493 57.6559-51.9247 58.9489-52.0493L79.066-54.345C87.6926-55.3214 86.1034-67.9782 77.6017-67.0018L58.3882-64.831L38.8058-71.3547C30.8539-74.0034 23.8992-69.4485 23.224-61.445L21.7333-43.3689C21.2398-37.5105 24.2678-31.8283 29.3218-28.8675L50.161-16.7439L58.368 3.72112C60.1448 8.18915 64.5562 9.05071 67.6156 7.51631ZM17.518 16.5002C20.0833 18.1133 23.8365 17.9667 26.2091 14.3848L39.9326-6.04384C40.4261-6.90105 40.8518-8.05908 40.9141-9.35242L41.3039-14.8854L27.6239-22.915L28.1953-11.3674L15.6976 7.23348C13.1156 11.052 14.6755 14.8083 17.518 16.5002ZM61.5724 26.4503L81.8701 19.7449C84.2374 18.9541 85.449 17.0875 85.449 14.3557L85.449-50.2551C83.9113-49.2112 82.026-48.5098 79.7411-48.2762L75.7919-47.8387L75.7919 11.5334L58.6183 17.2198C55.2955 18.3123 54.505 21.3282 55.4723 23.6784C56.3092 25.8467 58.6079 27.4231 61.5724 26.4503ZM17.2243 30.0728L37.907 30.0728C40.5646 30.0728 42.7955 27.8416 42.7955 25.2468C42.7955 22.5894 40.5646 20.4209 37.907 20.4209L17.2243 20.4209C14.6292 20.4209 12.4609 22.5894 12.4609 25.2468C12.4609 27.8416 14.6292 30.0728 17.2243 30.0728Z"/>
  </g>
  <g id="Heavy-M" transform="matrix(1 0 0 1 2588.54 1126)">
   <path d="M39.3976-75.266C45.9504-75.266 51.3341-80.6497 51.3341-87.2048C51.3341-93.774 45.9504-99.1391 39.3976-99.1391C32.8261-99.1391 27.4588-93.774 27.4588-87.2048C27.4588-80.6497 32.8261-75.266 39.3976-75.266ZM66.3781 6.73753C68.8585 5.47161 70.465 2.56417 68.8948-1.34868L59.8528-23.9278C59.5163-24.7876 58.802-25.516 57.6851-26.3214L41.6775-38.2493L42.7531-54.5823C42.8154-55.5287 43.648-56.0584 44.5803-55.7468L54.1013-52.4731C55.2681-52.0743 56.6819-51.9497 57.932-52.0743L77.7702-54.3354C85.951-55.2553 84.4477-67.2379 76.3893-66.318L57.3712-64.1793L38.0003-70.6261C30.3056-73.1862 23.6055-68.7948 22.9598-61.073L21.4877-43.2302C21.0103-37.5513 23.9607-32.0243 28.846-29.1572L49.4981-17.163L57.618 3.11752C59.3036 7.34182 63.4798 8.179 66.3781 6.73753ZM17.3212 15.6735C19.7466 17.1242 23.2194 16.934 25.4438 13.592L38.9763-6.55775C39.4538-7.36942 39.8525-8.45752 39.9148-9.70532L40.3425-15.9834L27.2718-23.6345L27.8677-11.6074L15.502 6.82502C13.0296 10.4993 14.5691 14.1113 17.3212 15.6735ZM59.9017 24.8353L79.9173 18.2203C82.0633 17.4987 83.1627 15.8329 83.1627 13.3595L83.1627-50.1844C81.8508-49.3477 80.2563-48.7727 78.3563-48.5796L74.5029-48.1548L74.5029 10.8508L57.2656 16.5675C54.2744 17.5587 53.5506 20.2616 54.4217 22.363C55.1541 24.2984 57.2283 25.7229 59.9017 24.8353ZM16.7215 28.645L37.2629 28.645C39.6481 28.645 41.6435 26.6518 41.6435 24.3244C41.6435 21.937 39.6481 20.0038 37.2629 20.0038L16.7215 20.0038C14.3964 20.0038 12.4609 21.937 12.4609 24.3244C12.4609 26.6518 14.3964 28.645 16.7215 28.645Z"/>
  </g>
  <g id="Bold-M" transform="matrix(1 0 0 1 2292.83 1126)">
   <path d="M38.5661-74.5772C44.8671-74.5772 50.0621-79.7722 50.0621-86.0783C50.0621-92.4079 44.8671-97.5692 38.5661-97.5692C32.2314-97.5692 27.065-92.4079 27.065-86.0783C27.065-79.7722 32.2314-74.5772 38.5661-74.5772ZM64.9938 5.86636C67.317 4.69011 68.8172 1.95133 67.3375-1.75049L58.4532-23.9639C58.1469-24.7634 57.5108-25.423 56.3996-26.2227L40.5209-38.0538L41.6087-54.7194C41.671-55.6723 42.4707-56.1266 43.4001-55.8151L53.1467-52.4709C54.2475-52.1023 55.5923-51.9777 56.7943-52.1023L76.3207-54.3247C84.0027-55.1814 82.5956-66.4098 75.0331-65.553L56.2336-63.4502L37.0992-69.8109C29.6922-72.2721 23.277-68.0637 22.6643-60.6568L21.213-43.0749C20.7535-37.597 23.6171-32.2436 28.3137-29.4812L48.7565-17.6319L56.779 2.44231C58.3627 6.39397 62.2756 7.20386 64.9938 5.86636ZM17.1011 14.7488C19.37 16.0178 22.5292 15.7787 24.5877 12.7052L37.9065-7.13263C38.3661-7.89335 38.7347-8.90323 38.797-10.1001L39.267-17.2116L26.8781-24.4394L27.5012-11.8758L15.2832 6.3681C12.9335 9.88097 14.45 13.3315 17.1011 14.7488ZM58.0327 23.0288L77.7328 16.5148C79.6314 15.8707 80.6053 14.4294 80.6053 12.245L80.6053-50.1053C79.546-49.5004 78.2765-49.0669 76.8072-48.9189L73.061-48.5085L73.061 10.0872L55.7525 15.8377C53.1321 16.7155 52.4829 19.0684 53.2464 20.8914C53.8619 22.5664 55.685 23.8209 58.0327 23.0288ZM16.159 27.0478L36.5425 27.0478C38.6228 27.0478 40.355 25.3207 40.355 23.2925C40.355 21.2071 38.6228 19.5372 36.5425 19.5372L16.159 19.5372C14.136 19.5372 12.4609 21.2071 12.4609 23.2925C12.4609 25.3207 14.136 27.0478 16.159 27.0478Z"/>
  </g>
  <g id="Semibold-M" transform="matrix(1 0 0 1 1996.81 1126)">
   <path d="M37.9929-74.1023C44.1203-74.1023 49.1852-79.1673 49.1852-85.3017C49.1852-91.4661 44.1203-96.4869 37.9929-96.4869C31.8214-96.4869 26.7935-91.4661 26.7935-85.3017C26.7935-79.1673 31.8214-74.1023 37.9929-74.1023ZM64.0395 5.26578C66.2543 4.15135 67.6812 1.52885 66.2638-2.02749L57.4883-23.9888C57.2028-24.7467 56.6207-25.3588 55.5134-26.1545L39.7236-37.919L40.8198-54.8139C40.8821-55.7713 41.659-56.1736 42.5865-55.8621L52.4885-52.4694C53.5438-52.1216 54.8412-51.997 56.0101-52.1216L75.3214-54.3173C82.6596-55.1304 81.3188-65.8389 74.0981-65.0257L55.4493-62.9475L36.478-69.249C29.2694-71.6419 23.0505-67.5596 22.4606-60.3698L21.0236-42.9679C20.5764-37.6285 23.3802-32.3948 27.9467-29.7046L48.2453-17.9551L56.2006 1.97682C57.7141 5.74053 61.4454 6.5316 64.0395 5.26578ZM16.9493 14.1113C19.1104 15.2551 22.0533 14.9823 23.9975 12.0939L37.1691-7.52894C37.6162-8.25455 37.9641-9.2105 38.0264-10.3722L38.5255-18.0583L26.6066-24.9942L27.2486-12.0609L15.1323 6.0531C12.8672 9.4547 14.368 12.794 16.9493 14.1113ZM56.7443 21.7833L76.2268 15.3391C77.9548 14.7484 78.8422 13.4619 78.8422 11.4767L78.8422-50.0508C77.957-49.6057 76.9117-49.2696 75.7393-49.1529L72.0669-48.7523L72.0669 9.56081L54.7093 15.3346C52.3447 16.1343 51.7468 18.2458 52.4362 19.8769C52.971 21.3724 54.621 22.5097 56.7443 21.7833ZM15.7713 25.9467L36.0458 25.9467C37.9159 25.9467 39.4666 24.4031 39.4666 22.5811C39.4666 20.7039 37.9159 19.2156 36.0458 19.2156L15.7713 19.2156C13.9564 19.2156 12.4609 20.7039 12.4609 22.5811C12.4609 24.4031 13.9564 25.9467 15.7713 25.9467Z"/>
  </g>
  <g id="Medium-M" transform="matrix(1 0 0 1 1700.62 1126)">
   <path d="M37.5583-73.7422C43.554-73.7422 48.5203-78.7086 48.5203-84.7129C48.5203-90.752 43.554-95.6663 37.5583-95.6663C31.5106-95.6663 26.5877-90.752 26.5877-84.7129C26.5877-78.7086 31.5106-73.7422 37.5583-73.7422ZM63.3159 4.8104C65.4485 3.74284 66.8198 1.20851 65.4498-2.23753L56.7567-24.0076C56.4869-24.7341 55.9457-25.3101 54.8414-26.1029L39.119-37.8168L40.2216-54.8856C40.2839-55.8464 41.0436-56.2093 41.9695-55.8978L51.9895-52.4683C53.0103-52.1362 54.2717-52.0116 55.4154-52.1362L74.5637-54.3116C81.6412-55.0918 80.3506-65.406 73.3891-64.6258L54.8547-62.5664L36.007-68.8229C28.9488-71.164 22.8788-67.1774 22.3061-60.1523L20.88-42.8868C20.4422-37.6524 23.2006-32.5094 27.6685-29.874L47.8577-18.2001L55.762 1.62386C57.2223 5.24506 60.816 6.02187 63.3159 4.8104ZM16.8342 13.6279C18.9135 14.6768 21.6924 14.3784 23.55 11.6304L36.6099-7.82945C37.0477-8.52843 37.3798-9.44348 37.4421-10.5786L37.9634-18.7003L26.4008-25.4149L27.057-12.2012L15.0179 5.81425C12.8169 9.13149 14.3057 12.3864 16.8342 13.6279ZM55.7673 20.839L75.0849 14.4476C76.6836 13.8974 77.5053 12.7283 77.5053 10.8942L77.5053-50.0095C76.7522-49.6856 75.8768-49.4234 74.9295-49.3302L71.3131-48.9371L71.3131 9.16167L53.9184 14.9531C51.7476 15.6936 51.1887 17.6221 51.8218 19.1077C52.2955 20.467 53.8143 21.5155 55.7673 20.839ZM15.4773 25.1118L35.6692 25.1118C37.38 25.1118 38.793 23.7074 38.793 22.0417C38.793 20.3224 37.38 18.9717 35.6692 18.9717L15.4773 18.9717C13.8203 18.9717 12.4609 20.3224 12.4609 22.0417C12.4609 23.7074 13.8203 25.1118 15.4773 25.1118Z"/>
  </g>
  <g id="Regular-M" transform="matrix(1 0 0 1 1404.59 1126)">
   <path d="M36.9914-73.2726C42.8154-73.2726 47.6531-78.1102 47.6531-83.9448C47.6531-89.8205 42.8154-94.5959 36.9914-94.5959C31.1051-94.5959 26.3192-89.8205 26.3192-83.9448C26.3192-78.1102 31.1051-73.2726 36.9914-73.2726ZM62.3721 4.21642C64.3975 3.21 65.6963 0.790664 64.3879-2.51148L55.8024-24.0322C55.5532-24.7176 55.0653-25.2467 53.9649-26.0355L38.3305-37.6835L39.4414-54.9791C39.5037-55.9443 40.2408-56.2559 41.1648-55.9443L51.3386-52.4668C52.3144-52.1553 53.5288-52.0307 54.6397-52.1553L73.5754-54.3043C80.3128-55.0414 79.0878-64.8413 72.4644-64.1042L54.079-62.0693L35.3926-68.2671C28.5305-70.5407 22.6548-66.6788 22.1046-59.8685L20.6927-42.7809C20.2671-37.6835 22.9663-32.6589 27.3055-30.0949L47.3521-18.5198L55.1899 1.16349C56.5807 4.5988 59.9949 5.357 62.3721 4.21642ZM16.6841 12.9974C18.6567 13.9224 21.2218 13.5908 22.9663 11.0257L35.8805-8.22141C36.3061-8.88566 36.6176-9.74738 36.6799-10.8478L37.2301-19.5378L26.1323-25.9637L26.8071-12.3843L14.8687 5.50272C12.7514 8.7099 14.2246 11.8548 16.6841 12.9974ZM54.493 19.6072L73.5955 13.2848C75.0255 12.7874 75.7616 11.7714 75.7616 10.1344L75.7616-49.9555C75.1807-49.7897 74.527-49.6239 73.8733-49.5616L70.33-49.1782L70.33 8.64106L52.8867 14.4555C50.9688 15.1187 50.4608 16.8085 51.0205 18.1044C51.4145 19.2861 52.7621 20.2187 54.493 19.6072ZM15.0938 24.0228L35.178 24.0228C36.6809 24.0228 37.9144 22.7998 37.9144 21.3382C37.9144 19.8248 36.6809 18.6535 35.178 18.6535L15.0938 18.6535C13.6427 18.6535 12.4609 19.8248 12.4609 21.3382C12.4609 22.7998 13.6427 24.0228 15.0938 24.0228Z"/>
  </g>
  <g id="Light-M" transform="matrix(1 0 0 1 1108.8 1126)">
   <path d="M36.2557-71.7668C41.9256-71.7668 46.6264-76.4676 46.6264-82.1652C46.6264-87.8699 41.9256-92.5083 36.2557-92.5083C30.5234-92.5083 25.8572-87.8699 25.8572-82.1652C25.8572-76.4676 30.5234-71.7668 36.2557-71.7668ZM60.7636 3.8742C62.8404 2.95333 64.2248 0.551111 62.9164-2.75104L54.5533-23.7071C54.3041-24.3925 53.8333-24.8702 52.7672-25.6249L37.5434-36.9649L38.6372-53.8156C38.6995-54.7295 39.4195-55.041 40.3264-54.7295L50.2264-51.3717C51.1679-51.0602 52.331-50.9356 53.4249-51.0602L71.8472-53.1579C78.3964-53.8779 77.2056-63.404 70.7533-62.684L52.8641-60.6833L34.6911-66.7271C28.0172-68.9494 22.3126-65.1902 21.7795-58.551L20.4018-41.9425C19.9933-36.9649 22.6241-32.0772 26.8264-29.5987L46.3426-18.3487L53.9579 0.821272C55.2803 4.06836 58.4721 4.84368 60.7636 3.8742ZM16.359 12.2445C18.2974 13.2551 20.8796 12.9919 22.6241 10.4097L35.1618-8.32408C35.5703-8.9541 35.8818-9.79871 35.9441-10.8649L36.4772-19.4009L25.6703-25.6386L26.328-12.3672L14.7318 5.02361C12.7171 8.0768 14.0535 11.0677 16.359 12.2445ZM53.1413 18.3581L71.7988 12.1897C72.9208 11.7949 73.5371 10.9501 73.5371 9.68948L73.5371-49.0315C73.0247-48.9 72.4224-48.7684 71.82-48.7061L69.098-48.4082L69.098 8.4015L51.86 14.1475C50.2672 14.6739 49.8448 16.0727 50.3019 17.1461C50.6274 18.1226 51.7354 18.8498 53.1413 18.3581ZM14.6147 21.9524L34.8358 21.9524C36.0478 21.9524 37.0589 20.969 37.0589 19.764C37.0589 18.5243 36.0478 17.5756 34.8358 17.5756L14.6147 17.5756C13.4374 17.5756 12.4609 18.5243 12.4609 19.764C12.4609 20.969 13.4374 21.9524 14.6147 21.9524Z"/>
  </g>
  <g id="Thin-M" transform="matrix(1 0 0 1 813.313 1126)">
   <path d="M35.2825-69.7753C40.7488-69.7753 45.2686-74.2951 45.2686-79.8117C45.2686-85.29 40.7488-89.7474 35.2825-89.7474C29.7539-89.7474 25.2462-85.29 25.2462-79.8117C25.2462-74.2951 29.7539-69.7753 35.2825-69.7753ZM58.6364 3.42159C60.781 2.61387 62.2785 0.234283 60.9702-3.06787L52.9013-23.2772C52.6521-23.9625 52.2039-24.3724 51.183-25.0817L36.5024-36.0144L37.5736-52.2767C37.6359-53.1227 38.3332-53.4342 39.2175-53.1227L48.7554-49.9234C49.6517-49.6118 50.7469-49.4872 51.8181-49.6118L69.5615-51.6416C75.8618-52.339 74.7163-61.5031 68.4903-60.8057L51.2574-58.8502L33.7632-64.6904C27.3383-66.8448 21.86-63.2213 21.3495-56.8084L20.0171-40.8336C19.6313-36.0144 22.1715-31.3077 26.1928-28.9424L45.0073-18.1224L52.3285 0.36866C53.5604 3.36681 56.4579 4.16476 58.6364 3.42159ZM15.929 11.2487C17.8222 12.3725 20.427 12.1998 22.1715 9.59503L34.2113-8.45986C34.5972-9.04463 34.9087-9.8666 34.971-10.8875L35.4815-19.2198L25.0593-25.2086L25.6943-12.3445L14.5508 4.38995C12.6719 7.23947 13.8272 10.0267 15.929 11.2487ZM51.3534 16.7061L69.4226 10.7413C70.1373 10.4823 70.5952 9.86379 70.5952 9.10108L70.5952-47.8095C70.1733-47.7232 69.6388-47.6368 69.1043-47.5745L67.4686-47.3899L67.4686 8.08467L50.5022 13.7401C49.3394 14.0855 49.0301 15.0996 49.3514 15.8788C49.5863 16.5837 50.3776 17.0394 51.3534 16.7061ZM13.9811 19.2141L34.3832 19.2141C35.2105 19.2141 35.9274 18.5475 35.9274 17.682C35.9274 16.8044 35.2105 16.1498 34.3832 16.1498L13.9811 16.1498C13.1658 16.1498 12.4609 16.8044 12.4609 17.682C12.4609 18.5475 13.1658 19.2141 13.9811 19.2141Z"/>
  </g>
  <g id="Ultralight-M" transform="matrix(1 0 0 1 517.228 1126)">
   <path d="M34.7841-68.7553C40.1461-68.7553 44.5731-73.1823 44.5731-78.6062C44.5731-83.9686 40.1461-88.3333 34.7841-88.3333C29.3598-88.3333 24.9332-83.9686 24.9332-78.6062C24.9332-73.1823 29.3598-68.7553 34.7841-68.7553ZM57.5468 3.18976C59.7262 2.44 61.2817 0.072005 59.9733-3.23014L52.0551-23.0569C51.8059-23.7423 51.3694-24.1174 50.3716-24.8036L35.9692-35.5275L37.0288-51.4885C37.0911-52.2997 37.7768-52.6112 38.6495-52.2997L48.002-49.1815C48.8751-48.87 49.9355-48.7454 50.9951-48.87L68.3907-50.865C74.5635-51.5508 73.4412-60.5294 67.3311-59.8436L50.4344-57.9113L33.288-63.6472C26.9906-65.7668 21.6281-62.2129 21.1293-55.9159L19.82-40.2656C19.4458-35.5275 21.9397-30.9136 25.8682-28.6062L44.3235-18.0065L51.494 0.136835C52.6794 3.00748 55.4263 3.81702 57.5468 3.18976ZM15.7088 10.7387C17.5788 11.9204 20.1951 11.7941 21.9397 9.17775L33.7245-8.52941C34.0988-9.09099 34.4103-9.90137 34.4726-10.8991L34.9714-19.1271L24.7463-24.9884L25.3698-12.3329L14.4581 4.0654C12.6487 6.81059 13.7112 9.49348 15.7088 10.7387ZM50.4377 15.8599L68.2055 9.99949C68.7115 9.81005 69.0883 9.30741 69.0883 8.79971L69.0883-47.1836C68.7128-47.1204 68.2131-47.0573 67.7134-46.995L66.634-46.8683L66.634 7.9224L49.8067 13.5315C48.8641 13.7841 48.6128 14.6012 48.8646 15.2297C49.0531 15.7955 49.6821 16.1121 50.4377 15.8599ZM13.6565 17.8116L34.1514 17.8116C34.7816 17.8116 35.3478 17.3072 35.3478 16.6156C35.3478 15.9235 34.7816 15.4196 34.1514 15.4196L13.6565 15.4196C13.0267 15.4196 12.4609 15.9235 12.4609 16.6156C12.4609 17.3072 13.0267 17.8116 13.6565 17.8116Z"/>
  </g>
  <g id="Black-S" transform="matrix(1 0 0 1 2894.75 696)">
   <path d="M31.6406-67.1875C37.0117-67.1875 41.4062-71.582 41.4062-76.9531C41.4062-82.3242 37.0117-86.7188 31.6406-86.7188C26.2695-86.7188 21.875-82.3242 21.875-76.9531C21.875-71.582 26.2695-67.1875 31.6406-67.1875ZM53.2715-1.51367C55.3711-2.58789 56.7383-5.0293 55.4199-8.30078L48.1934-26.3184C47.9004-27.0508 47.2656-27.6855 46.3867-28.3203L33.7402-37.7441L34.5703-50.1953C34.6191-50.9277 35.3027-51.416 36.0352-51.1719L43.2617-48.6816C44.2383-48.3398 45.4102-48.2422 46.4355-48.3398L62.2559-50.1465C69.1406-50.9277 67.8711-61.0352 61.084-60.2539L45.9961-58.5449L30.6152-63.6719C24.3164-65.7715 18.7988-62.1582 18.2617-55.8105L17.0898-41.6016C16.6992-36.9629 19.0918-32.4707 23.0957-30.127L39.4531-20.6055L45.8984-4.54102C47.3145-0.976562 50.8301-0.292969 53.2715-1.51367ZM13.7695 5.51758C15.8203 6.83594 18.8477 6.73828 20.752 3.85742L31.543-12.207C31.9336-12.8906 32.2754-13.8184 32.3242-14.8438L32.6172-18.9453L21.7285-25.3418L22.168-16.4551L12.3535-1.85547C10.3027 1.17188 11.5234 4.15039 13.7695 5.51758ZM48.6816 13.5254L64.6484 8.25195C66.5527 7.61719 67.5293 6.10352 67.5293 3.90625L67.5293-46.9727C66.2598-46.0938 64.6973-45.5078 62.793-45.3125L59.7168-44.9707L59.7168 1.61133L46.2891 6.05469C43.6035 6.93359 42.9688 9.375 43.75 11.2793C44.4336 13.0371 46.2891 14.3066 48.6816 13.5254ZM13.623 16.2598L29.8828 16.2598C32.0312 16.2598 33.8379 14.4531 33.8379 12.3535C33.8379 10.2051 32.0312 8.44727 29.8828 8.44727L13.623 8.44727C11.5234 8.44727 9.76562 10.2051 9.76562 12.3535C9.76562 14.4531 11.5234 16.2598 13.623 16.2598Z"/>
  </g>
  <g id="Heavy-S" transform="matrix(1 0 0 1 2598.69 696)">
   <path d="M31.099-66.8533C36.2972-66.8533 40.565-71.1211 40.565-76.3193C40.565-81.529 36.2972-85.7853 31.099-85.7853C25.8892-85.7853 21.633-81.529 21.633-76.3193C21.633-71.1211 25.8892-66.8533 31.099-66.8533ZM52.4187-2.13599C54.3915-3.15259 55.6665-5.46723 54.4173-8.57737L47.2829-26.3875C47.013-27.0738 46.4359-27.6625 45.557-28.2973L32.9566-37.6865L33.7982-50.4489C33.847-51.1928 34.5075-51.6235 35.24-51.3793L42.674-48.8199C43.6044-48.5012 44.7302-48.4035 45.721-48.5012L61.3685-50.2848C67.896-51.0199 66.6956-60.5857 60.2657-59.8505L45.2816-58.1646L30.016-63.2455C23.913-65.2759 18.5914-61.7894 18.0773-55.6607L16.917-41.59C16.5379-37.0897 18.8728-32.7127 22.75-30.4381L39.0152-20.9858L45.4144-5.01352C46.7613-1.63346 50.104-0.972912 52.4187-2.13599ZM13.6428 4.90678C15.5783 6.07532 18.3636 5.93157 20.1412 3.25815L30.8169-12.6334C31.196-13.2825 31.5148-14.1526 31.5636-15.1434L31.8911-19.9018L21.4865-25.9987L21.949-16.6625L12.2037-2.14358C10.2336 0.780043 11.4543 3.65484 13.6428 4.90678ZM47.4255 12.3038L63.2079 7.08798C64.9624 6.49931 65.8582 5.13546 65.8582 3.11106L65.8582-47.0303C64.7731-46.3242 63.4526-45.842 61.871-45.6813L58.7718-45.3395L58.7718 1.05815L45.2634 5.53609C42.8199 6.34585 42.2312 8.55676 42.9433 10.2767C43.5462 11.8616 45.2403 13.0274 47.4255 12.3038ZM13.2543 15.3032L29.3757 15.3032C31.3283 15.3032 32.962 13.6695 32.962 11.7658C32.962 9.81325 31.3283 8.2283 29.3757 8.2283L13.2543 8.2283C11.3506 8.2283 9.76562 9.81325 9.76562 11.7658C9.76562 13.6695 11.3506 15.3032 13.2543 15.3032Z"/>
  </g>
  <g id="Bold-S" transform="matrix(1 0 0 1 2302.7 696)">
   <path d="M30.4932-66.4795C35.498-66.4795 39.624-70.6055 39.624-75.6104C39.624-80.6396 35.498-84.7412 30.4932-84.7412C25.4639-84.7412 21.3623-80.6396 21.3623-75.6104C21.3623-70.6055 25.4639-66.4795 30.4932-66.4795ZM51.4648-2.83203C53.2959-3.78418 54.4678-5.95703 53.2959-8.88672L46.2646-26.4648C46.0205-27.0996 45.5078-27.6367 44.6289-28.2715L32.0801-37.6221L32.9346-50.7324C32.9834-51.4893 33.6182-51.8555 34.3506-51.6113L42.0166-48.9746C42.8955-48.6816 43.9697-48.584 44.9219-48.6816L60.376-50.4395C66.5039-51.123 65.3809-60.083 59.3506-59.3994L44.4824-57.7393L29.3457-62.7686C23.4619-64.7217 18.3594-61.377 17.8711-55.4932L16.7236-41.5771C16.3574-37.2314 18.6279-32.9834 22.3633-30.7861L38.5254-21.4111L44.873-5.54199C46.1426-2.36816 49.292-1.7334 51.4648-2.83203ZM13.501 4.22363C15.3076 5.22461 17.8223 5.0293 19.458 2.58789L30.0049-13.1104C30.3711-13.7207 30.6641-14.5264 30.7129-15.4785L31.0791-20.9717L21.2158-26.7334L21.7041-16.8945L12.0361-2.46582C10.1562 0.341797 11.377 3.10059 13.501 4.22363ZM46.0205 10.9375L61.5967 5.78613C63.1836 5.24902 63.9893 4.05273 63.9893 2.22168L63.9893-47.0947C63.1104-46.582 62.0605-46.2158 60.8398-46.0938L57.7148-45.752L57.7148 0.439453L44.1162 4.95605C41.9434 5.68848 41.4062 7.6416 42.041 9.15527C42.5537 10.5469 44.0674 11.5967 46.0205 10.9375ZM12.8418 14.2334L28.8086 14.2334C30.542 14.2334 31.9824 12.793 31.9824 11.1084C31.9824 9.375 30.542 7.9834 28.8086 7.9834L12.8418 7.9834C11.1572 7.9834 9.76562 9.375 9.76562 11.1084C9.76562 12.793 11.1572 14.2334 12.8418 14.2334Z"/>
  </g>
  <g id="Semibold-S" transform="matrix(1 0 0 1 2006.48 696)">
   <path d="M30.0755-66.2218C34.9471-66.2218 38.9753-70.25 38.9753-75.1216C38.9753-80.0265 34.9471-84.0214 30.0755-84.0214C25.1706-84.0214 21.1757-80.0265 21.1757-75.1216C21.1757-70.25 25.1706-66.2218 30.0755-66.2218ZM50.8072-3.31191C52.5405-4.21963 53.6413-6.29473 52.5228-9.1L45.5626-26.5182C45.3362-27.1174 44.868-27.6189 43.9891-28.2537L31.4758-37.5776L32.3392-50.9279C32.388-51.6937 33.005-52.0154 33.7374-51.7713L41.5634-49.0812C42.4067-48.8061 43.4454-48.7084 44.3709-48.8061L59.6917-50.5461C65.5441-51.1941 64.4744-59.7364 58.7196-59.0884L43.9314-57.446L28.8836-62.4397C23.1509-64.3396 18.1994-61.0926 17.7289-55.3776L16.5903-41.5683C16.233-37.3292 18.4591-33.17 22.0967-31.0261L38.1877-21.7044L44.4998-5.90635C45.716-2.87471 48.7321-2.25771 50.8072-3.31191ZM13.4032 3.75264C15.121 4.63809 17.449 4.40723 18.987 2.12578L29.445-13.4392C29.8023-14.0229 30.0775-14.7841 30.1264-15.7096L30.5192-21.7093L21.0292-27.2399L21.5353-17.0545L11.9206-2.68799C10.1029 0.0396484 11.3236 2.71846 13.4032 3.75264ZM45.0519 9.99551L60.4858 4.88857C61.9572 4.38701 62.7007 3.30625 62.7007 1.6085L62.7007-47.1392C61.964-46.7598 61.1008-46.4735 60.1289-46.3781L56.9861-46.0363L56.9861 0.0128906L43.3253 4.55615C41.3391 5.23525 40.8375 7.01064 41.4189 8.38213C41.8694 9.64043 43.2587 10.6103 45.0519 9.99551ZM12.5574 13.4958L28.4176 13.4958C29.9999 13.4958 31.307 12.1887 31.307 10.6552C31.307 9.07285 29.9999 7.81455 28.4176 7.81455L12.5574 7.81455C11.0239 7.81455 9.76562 9.07285 9.76562 10.6552C9.76562 12.1887 11.0239 13.4958 12.5574 13.4958Z"/>
  </g>
  <g id="Medium-S" transform="matrix(1 0 0 1 1710.15 696)">
   <path d="M29.7588-66.0264C34.5293-66.0264 38.4834-69.9805 38.4834-74.751C38.4834-79.5615 34.5293-83.4756 29.7588-83.4756C24.9482-83.4756 21.0342-79.5615 21.0342-74.751C21.0342-69.9805 24.9482-66.0264 29.7588-66.0264ZM50.3086-3.67578C51.9678-4.5498 53.0146-6.55078 51.9365-9.26172L45.0303-26.5586C44.8174-27.1309 44.3828-27.6055 43.5039-28.2402L31.0176-37.5439L31.8877-51.0762C31.9365-51.8486 32.54-52.1367 33.2725-51.8926L41.2197-49.1621C42.0361-48.9004 43.0479-48.8027 43.9531-48.9004L59.1729-50.627C64.8164-51.248 63.7871-59.4736 58.2412-58.8525L43.5137-57.2236L28.5332-62.1904C22.915-64.0498 18.0781-60.877 17.6211-55.29L16.4893-41.5615C16.1387-37.4033 18.3311-33.3115 21.8945-31.208L37.9316-21.9268L44.2168-6.18262C45.3926-3.25879 48.3076-2.65527 50.3086-3.67578ZM13.3291 3.39551C14.9795 4.19336 17.166 3.93555 18.6299 1.77539L29.0205-13.6885C29.3711-14.252 29.6328-14.9795 29.6816-15.8848L30.0947-22.2686L20.8877-27.624L21.4072-17.1758L11.833-2.85645C10.0625-0.189453 11.2832 2.42871 13.3291 3.39551ZM44.3174 9.28125L59.6436 4.20801C61.0273 3.7334 61.7236 2.74023 61.7236 1.14355L61.7236-47.1729C61.0947-46.8945 60.373-46.6689 59.5898-46.5938L56.4336-46.252L56.4336-0.310547L42.7256 4.25293C40.8809 4.8916 40.4062 6.53223 40.9473 7.7959C41.3506 8.95312 42.6455 9.8623 44.3174 9.28125ZM12.3418 12.9365L28.1211 12.9365C29.5889 12.9365 30.7949 11.7305 30.7949 10.3115C30.7949 8.84375 29.5889 7.68652 28.1211 7.68652L12.3418 7.68652C10.9229 7.68652 9.76562 8.84375 9.76562 10.3115C9.76562 11.7305 10.9229 12.9365 12.3418 12.9365Z"/>
  </g>
  <g id="Regular-S" transform="matrix(1 0 0 1 1413.93 696)">
   <path d="M29.3457-65.7715C33.9844-65.7715 37.8418-69.6289 37.8418-74.2676C37.8418-78.9551 33.9844-82.7637 29.3457-82.7637C24.6582-82.7637 20.8496-78.9551 20.8496-74.2676C20.8496-69.6289 24.6582-65.7715 29.3457-65.7715ZM49.6582-4.15039C51.2207-4.98047 52.1973-6.88477 51.1719-9.47266L44.3359-26.6113C44.1406-27.1484 43.75-27.5879 42.8711-28.2227L30.4199-37.5L31.2988-51.2695C31.3477-52.0508 31.9336-52.2949 32.666-52.0508L40.7715-49.2676C41.5527-49.0234 42.5293-48.9258 43.4082-49.0234L58.4961-50.7324C63.8672-51.3184 62.8906-59.1309 57.6172-58.5449L42.9688-56.9336L28.0762-61.8652C22.6074-63.6719 17.9199-60.5957 17.4805-55.1758L16.3574-41.5527C16.0156-37.5 18.1641-33.4961 21.6309-31.4453L37.5977-22.2168L43.8477-6.54297C44.9707-3.75977 47.7539-3.17383 49.6582-4.15039ZM13.2324 2.92969C14.7949 3.61328 16.7969 3.32031 18.1641 1.31836L28.4668-14.0137C28.8086-14.5508 29.0527-15.2344 29.1016-16.1133L29.541-22.998L20.7031-28.125L21.2402-17.334L11.7188-3.07617C10.0098-0.488281 11.2305 2.05078 13.2324 2.92969ZM43.3594 8.34961L58.5449 3.32031C59.8145 2.88086 60.4492 2.00195 60.4492 0.537109L60.4492-47.2168C59.9609-47.0703 59.4238-46.9238 58.8867-46.875L55.7129-46.5332L55.7129-0.732422L41.9434 3.85742C40.2832 4.44336 39.8438 5.9082 40.332 7.03125C40.6738 8.05664 41.8457 8.88672 43.3594 8.34961ZM12.0605 12.207L27.7344 12.207C29.0527 12.207 30.127 11.1328 30.127 9.86328C30.127 8.54492 29.0527 7.51953 27.7344 7.51953L12.0605 7.51953C10.791 7.51953 9.76562 8.54492 9.76562 9.86328C9.76562 11.1328 10.791 12.207 12.0605 12.207Z"/>
  </g>
  <g id="Light-S" transform="matrix(1 0 0 1 1118.04 696)">
   <path d="M28.6948-64.4395C33.1973-64.4395 36.9336-68.1758 36.9336-72.6934C36.9336-77.2295 33.1973-80.917 28.6948-80.917C24.1436-80.917 20.4409-77.2295 20.4409-72.6934C20.4409-68.1758 24.1436-64.4395 28.6948-64.4395ZM48.2354-4.45312C49.8433-5.20752 50.8955-7.09668 49.8701-9.68457L43.231-26.3237C43.0357-26.8608 42.6602-27.2549 41.8115-27.8594L29.7236-36.8643L30.5874-50.2402C30.6362-50.9761 31.207-51.2202 31.9243-50.9761L39.7876-48.2988C40.5386-48.0547 41.4697-47.957 42.3335-48.0547L56.9673-49.7183C62.1719-50.2891 61.2256-57.8594 56.1035-57.2886L41.8941-55.7075L27.4556-60.5029C22.1533-62.2642 17.6172-59.2788 17.1929-54.0103L16.1001-40.811C15.7734-36.8643 17.8613-32.9814 21.207-31.0064L36.7046-22.0654L42.7578-6.8457C43.8203-4.229 46.4067-3.62793 48.2354-4.45312ZM12.9448 2.26368C14.4771 3.02295 16.4941 2.79053 17.8613 0.773442L27.8311-14.1045C28.1577-14.6113 28.4019-15.2798 28.4507-16.1284L28.875-22.877L20.2944-27.8374L20.8164-17.3188L11.5977-3.5C9.97949-1.04834 11.0791 1.3545 12.9448 2.26368ZM42.1636 7.24464L56.9556 2.35157C57.9527 2.00294 58.4815 1.2754 58.4815 0.143558L58.4815-46.3994C58.0537-46.2832 57.562-46.167 57.0703-46.1182L54.6231-45.8521L54.6231-0.944334L41.0352 3.58496C39.6626 4.04981 39.2988 5.25733 39.6963 6.1836C39.9775 7.02735 40.9375 7.67579 42.1636 7.24464ZM11.6367 10.3755L27.4316 10.3755C28.4927 10.3755 29.3701 9.5132 29.3701 8.47071C29.3701 7.39454 28.4927 6.56593 27.4316 6.56593L11.6367 6.56593C10.6094 6.56593 9.76562 7.39454 9.76562 8.47071C9.76562 9.5132 10.6094 10.3755 11.6367 10.3755Z"/>
  </g>
  <g id="Thin-S" transform="matrix(1 0 0 1 822.408 696)">
   <path d="M27.834-62.6778C32.1563-62.6778 35.7324-66.2539 35.7324-70.6114C35.7324-74.9473 32.1563-78.4746 27.834-78.4746C23.4629-78.4746 19.9004-74.9473 19.9004-70.6114C19.9004-66.2539 23.4629-62.6778 27.834-62.6778ZM46.3535-4.85351C48.0215-5.50781 49.1739-7.37695 48.1485-9.96484L41.7696-25.9434C41.5742-26.4805 41.2188-26.8145 40.4102-27.3789L28.8027-36.0234L29.6465-48.8789C29.6953-49.5547 30.2461-49.7988 30.9434-49.5547L38.4863-47.0176C39.1973-46.7735 40.0684-46.6758 40.9121-46.7735L54.9453-48.377C59.9297-48.9278 59.0235-56.1778 54.1016-55.627L40.4727-54.086L26.6348-58.7012C21.5527-60.4024 17.2168-57.5371 16.8125-52.4688L15.7598-39.8301C15.4531-36.0234 17.4609-32.3008 20.6465-30.4258L35.5235-21.8652L41.3164-7.24609C42.2988-4.8496 44.625-4.22851 46.3535-4.85351ZM12.5645 1.38282C14.0566 2.2422 16.0938 2.08985 17.4609 0.0527443L26.9902-14.2246C27.2969-14.6914 27.541-15.3398 27.5899-16.1484L27.9942-22.7168L19.7539-27.457L20.2559-17.2988L11.4375-4.06054C9.93945-1.78905 10.8789 0.433606 12.5645 1.38282ZM40.5821 5.78322L54.8535 1.07033C55.4903 0.841813 55.8789 0.314466 55.8789-0.376946L55.8789-45.3184C55.5313-45.2422 55.0996-45.166 54.668-45.1172L53.1817-44.9512L53.1817-1.22461L39.834 3.22461C38.8418 3.5293 38.5781 4.3965 38.8555 5.06252C39.0567 5.66603 39.7363 6.07424 40.5821 5.78322ZM11.0762 7.95316L27.0313 7.95316C27.752 7.95316 28.3692 7.37112 28.3692 6.62893C28.3692 5.87307 27.752 5.3047 27.0313 5.3047L11.0762 5.3047C10.3691 5.3047 9.76562 5.87307 9.76562 6.62893C9.76562 7.37112 10.3691 7.95316 11.0762 7.95316Z"/>
  </g>
  <g id="Ultralight-S" transform="matrix(1 0 0 1 526.25 696)">
   <path d="M27.3931-61.7754C31.6231-61.7754 35.1172-65.2696 35.1172-69.545C35.1172-73.7784 31.6231-77.2237 27.3931-77.2237C23.1143-77.2237 19.6235-73.7784 19.6235-69.545C19.6235-65.2696 23.1143-61.7754 27.3931-61.7754ZM45.3897-5.05859C47.0884-5.66162 48.292-7.5205 47.2666-10.1084L41.021-25.7485C40.8257-26.2857 40.4805-26.5889 39.6924-27.1328L28.3311-35.5928L29.1646-48.1817C29.2134-48.8267 29.7539-49.0708 30.4409-48.8267L37.8198-46.3614C38.5103-46.1172 39.3506-46.0196 40.1841-46.1172L53.9097-47.69C58.7813-48.2305 57.8955-55.3164 53.0762-54.7759L39.7447-53.2554L26.2144-57.7784C21.2451-59.4488 17.0117-56.6451 16.6177-51.6792L15.5855-39.3277C15.2891-35.5928 17.2559-31.9522 20.3594-30.1284L34.9185-21.7627L40.5782-7.45116C41.5196-5.16747 43.7124-4.53612 45.3897-5.05859ZM12.3696 0.931656C13.8413 1.8423 15.8887 1.73097 17.2559-0.316393L26.5596-14.2861C26.856-14.7324 27.1001-15.3706 27.1489-16.1587L27.543-22.6348L19.4771-27.2622L19.9688-17.2886L11.3555-4.34765C9.91895-2.16844 10.7764-0.0380695 12.3696 0.931656ZM39.772 5.03469L53.7769 0.414085C54.229 0.247091 54.5459-0.177717 54.5459-0.643545L54.5459-44.7647C54.2393-44.709 53.8384-44.6533 53.4375-44.6045L52.4434-44.4898L52.4434-1.36816L39.2188 3.04005C38.4214 3.2627 38.209 3.95558 38.4248 4.4883C38.585 4.96877 39.1211 5.25393 39.772 5.03469ZM10.7891 6.71245L26.8262 6.71245C27.3726 6.71245 27.8565 6.27396 27.8565 5.68558C27.8565 5.09378 27.3726 4.65871 26.8262 4.65871L10.7891 4.65871C10.2461 4.65871 9.76562 5.09378 9.76562 5.68558C9.76562 6.27396 10.2461 6.71245 10.7891 6.71245Z"/>
  </g>
 </g>
</svg>
