<?xml version="1.0" encoding="UTF-8"?>
<!--Generator: Apple Native CoreSVG 175.5-->
<!DOCTYPE svg
PUBLIC "-//W3C//DTD SVG 1.1//EN"
       "http://www.w3.org/Graphics/SVG/1.1/DTD/svg11.dtd">
<svg version="1.1" xmlns="http://www.w3.org/2000/svg" xmlns:xlink="http://www.w3.org/1999/xlink" width="3300" height="2200">
 <!--glyph: "uni10130F.medium", point size: 100.0, font version: "18.0d12e2", template writer version: "101"-->
 <g id="Notes">
  <rect height="2200" id="artboard" style="fill:white;opacity:1" width="3300" x="0" y="0"/>
  <line style="fill:none;stroke:black;opacity:1;stroke-width:0.5;" x1="263" x2="3036" y1="292" y2="292"/>
  <text style="stroke:none;fill:black;font-family:sans-serif;font-size:13;font-weight:bold;" transform="matrix(1 0 0 1 263 322)">Weight/Scale Variations</text>
  <text style="stroke:none;fill:black;font-family:sans-serif;font-size:13;text-anchor:middle;" transform="matrix(1 0 0 1 559.711 322)">Ultralight</text>
  <text style="stroke:none;fill:black;font-family:sans-serif;font-size:13;text-anchor:middle;" transform="matrix(1 0 0 1 856.422 322)">Thin</text>
  <text style="stroke:none;fill:black;font-family:sans-serif;font-size:13;text-anchor:middle;" transform="matrix(1 0 0 1 1153.13 322)">Light</text>
  <text style="stroke:none;fill:black;font-family:sans-serif;font-size:13;text-anchor:middle;" transform="matrix(1 0 0 1 1449.84 322)">Regular</text>
  <text style="stroke:none;fill:black;font-family:sans-serif;font-size:13;text-anchor:middle;" transform="matrix(1 0 0 1 1746.56 322)">Medium</text>
  <text style="stroke:none;fill:black;font-family:sans-serif;font-size:13;text-anchor:middle;" transform="matrix(1 0 0 1 2043.27 322)">Semibold</text>
  <text style="stroke:none;fill:black;font-family:sans-serif;font-size:13;text-anchor:middle;" transform="matrix(1 0 0 1 2339.98 322)">Bold</text>
  <text style="stroke:none;fill:black;font-family:sans-serif;font-size:13;text-anchor:middle;" transform="matrix(1 0 0 1 2636.69 322)">Heavy</text>
  <text style="stroke:none;fill:black;font-family:sans-serif;font-size:13;text-anchor:middle;" transform="matrix(1 0 0 1 2933.4 322)">Black</text>
  <line style="fill:none;stroke:black;opacity:1;stroke-width:0.5;" x1="263" x2="3036" y1="1903" y2="1903"/>
  <g transform="matrix(1 0 0 1 263 1933)">
   <path d="M9.24805 0.830078C13.5547 0.830078 17.1387-2.74414 17.1387-7.05078C17.1387-11.3574 13.5449-14.9316 9.23828-14.9316C4.94141-14.9316 1.36719-11.3574 1.36719-7.05078C1.36719-2.74414 4.95117 0.830078 9.24805 0.830078ZM9.24805-0.654297C5.70312-0.654297 2.87109-3.49609 2.87109-7.05078C2.87109-10.6055 5.69336-13.4473 9.23828-13.4473C12.793-13.4473 15.6445-10.6055 15.6445-7.05078C15.6445-3.49609 12.8027-0.654297 9.24805-0.654297ZM5.6543-7.05078C5.6543-6.62109 5.95703-6.32812 6.40625-6.32812L8.50586-6.32812L8.50586-4.20898C8.50586-3.76953 8.79883-3.4668 9.22852-3.4668C9.67773-3.4668 9.9707-3.76953 9.9707-4.20898L9.9707-6.32812L12.0898-6.32812C12.5293-6.32812 12.832-6.62109 12.832-7.05078C12.832-7.49023 12.5293-7.79297 12.0898-7.79297L9.9707-7.79297L9.9707-9.90234C9.9707-10.3516 9.67773-10.6543 9.22852-10.6543C8.79883-10.6543 8.50586-10.3516 8.50586-9.90234L8.50586-7.79297L6.40625-7.79297C5.95703-7.79297 5.6543-7.49023 5.6543-7.05078Z"/>
  </g>
  <g transform="matrix(1 0 0 1 281.867 1933)">
   <path d="M11.709 2.91016C17.1582 2.91016 21.6699-1.61133 21.6699-7.05078C21.6699-12.5 17.1484-17.0117 11.6992-17.0117C6.25977-17.0117 1.74805-12.5 1.74805-7.05078C1.74805-1.61133 6.26953 2.91016 11.709 2.91016ZM11.709 1.25C7.09961 1.25 3.41797-2.44141 3.41797-7.05078C3.41797-11.6602 7.08984-15.3516 11.6992-15.3516C16.3086-15.3516 20.0098-11.6602 20.0098-7.05078C20.0098-2.44141 16.3184 1.25 11.709 1.25ZM7.17773-7.05078C7.17773-6.57227 7.50977-6.25 8.00781-6.25L10.8789-6.25L10.8789-3.36914C10.8789-2.88086 11.2109-2.53906 11.6895-2.53906C12.1777-2.53906 12.5195-2.87109 12.5195-3.36914L12.5195-6.25L15.4004-6.25C15.8887-6.25 16.2305-6.57227 16.2305-7.05078C16.2305-7.53906 15.8887-7.88086 15.4004-7.88086L12.5195-7.88086L12.5195-10.752C12.5195-11.25 12.1777-11.5918 11.6895-11.5918C11.2109-11.5918 10.8789-11.25 10.8789-10.752L10.8789-7.88086L8.00781-7.88086C7.50977-7.88086 7.17773-7.53906 7.17773-7.05078Z"/>
  </g>
  <g transform="matrix(1 0 0 1 305.646 1933)">
   <path d="M14.9707 5.66406C21.9336 5.66406 27.6953-0.0976562 27.6953-7.05078C27.6953-14.0137 21.9238-19.7754 14.9609-19.7754C8.00781-19.7754 2.25586-14.0137 2.25586-7.05078C2.25586-0.0976562 8.01758 5.66406 14.9707 5.66406ZM14.9707 3.84766C8.93555 3.84766 4.08203-1.01562 4.08203-7.05078C4.08203-13.0957 8.92578-17.9492 14.9609-17.9492C21.0059-17.9492 25.8691-13.0957 25.8691-7.05078C25.8691-1.01562 21.0156 3.84766 14.9707 3.84766ZM9.19922-7.05078C9.19922-6.5332 9.57031-6.17188 10.1172-6.17188L14.0625-6.17188L14.0625-2.2168C14.0625-1.67969 14.4336-1.29883 14.9512-1.29883C15.4883-1.29883 15.8594-1.66992 15.8594-2.2168L15.8594-6.17188L19.8145-6.17188C20.3516-6.17188 20.7324-6.5332 20.7324-7.05078C20.7324-7.59766 20.3613-7.96875 19.8145-7.96875L15.8594-7.96875L15.8594-11.9141C15.8594-12.4609 15.4883-12.8418 14.9512-12.8418C14.4336-12.8418 14.0625-12.4609 14.0625-11.9141L14.0625-7.96875L10.1172-7.96875C9.57031-7.96875 9.19922-7.59766 9.19922-7.05078Z"/>
  </g>
  <text style="stroke:none;fill:black;font-family:sans-serif;font-size:13;font-weight:bold;" transform="matrix(1 0 0 1 263 1953)">Design Variations</text>
  <text style="stroke:none;fill:black;font-family:sans-serif;font-size:13;" transform="matrix(1 0 0 1 263 1971)">Symbols are supported in up to nine weights and three scales.</text>
  <text style="stroke:none;fill:black;font-family:sans-serif;font-size:13;" transform="matrix(1 0 0 1 263 1989)">For optimal layout with text and other symbols, vertically align</text>
  <text style="stroke:none;fill:black;font-family:sans-serif;font-size:13;" transform="matrix(1 0 0 1 263 2007)">symbols with the adjacent text.</text>
  <line style="fill:none;stroke:#00AEEF;stroke-width:0.5;opacity:1.0;" x1="776" x2="776" y1="1919" y2="1933"/>
  <g transform="matrix(1 0 0 1 776 1933)">
   <path d="M3.31055 0.15625C3.82812 0.15625 4.08203-0.0390625 4.26758-0.585938L5.52734-4.0332L11.2891-4.0332L12.5488-0.585938C12.7344-0.0390625 12.9883 0.15625 13.4961 0.15625C14.0137 0.15625 14.3457-0.15625 14.3457-0.644531C14.3457-0.810547 14.3164-0.966797 14.2383-1.17188L9.6582-13.3691C9.43359-13.9648 9.0332-14.2676 8.4082-14.2676C7.80273-14.2676 7.39258-13.9746 7.17773-13.3789L2.59766-1.16211C2.51953-0.957031 2.49023-0.800781 2.49023-0.634766C2.49023-0.146484 2.80273 0.15625 3.31055 0.15625ZM6.00586-5.51758L8.37891-12.0898L8.42773-12.0898L10.8008-5.51758Z"/>
  </g>
  <line style="fill:none;stroke:#00AEEF;stroke-width:0.5;opacity:1.0;" x1="793.197" x2="793.197" y1="1919" y2="1933"/>
  <text style="stroke:none;fill:black;font-family:sans-serif;font-size:13;font-weight:bold;" transform="matrix(1 0 0 1 776 1953)">Margins</text>
  <text style="stroke:none;fill:black;font-family:sans-serif;font-size:13;" transform="matrix(1 0 0 1 776 1971)">Leading and trailing margins on the left and right side of each symbol</text>
  <text style="stroke:none;fill:black;font-family:sans-serif;font-size:13;" transform="matrix(1 0 0 1 776 1989)">can be adjusted by modifying the x-location of the margin guidelines.</text>
  <text style="stroke:none;fill:black;font-family:sans-serif;font-size:13;" transform="matrix(1 0 0 1 776 2007)">Modifications are automatically applied proportionally to all</text>
  <text style="stroke:none;fill:black;font-family:sans-serif;font-size:13;" transform="matrix(1 0 0 1 776 2025)">scales and weights.</text>
  <g transform="matrix(1 0 0 1 1289 1933)">
   <path d="M2.8418 1.86523L4.54102 3.57422C5.40039 4.44336 6.38672 4.38477 7.31445 3.35938L18.0078-8.42773L17.041-9.4043L6.42578 2.27539C6.07422 2.67578 5.74219 2.77344 5.27344 2.30469L4.10156 1.14258C3.63281 0.683594 3.74023 0.341797 4.14062-0.0195312L15.6152-10.8203L14.6387-11.7871L3.04688-0.898438C2.06055 0.0195312 1.98242 0.996094 2.8418 1.86523ZM9.25781-16.3281C8.83789-15.918 8.80859-15.3418 9.04297-14.9512C9.27734-14.5898 9.73633-14.3555 10.3809-14.5215C11.8457-14.8633 13.3691-14.9219 14.7949-13.9844L14.209-12.5293C13.8672-11.6992 14.043-11.1133 14.5801-10.5664L16.875-8.25195C17.3633-7.76367 17.7734-7.74414 18.3398-7.8418L19.4043-8.03711L20.0684-7.36328L20.0293-6.80664C19.9902-6.30859 20.1172-5.92773 20.6055-5.44922L21.3672-4.70703C21.8457-4.22852 22.4609-4.19922 22.9297-4.66797L25.8398-7.58789C26.3086-8.05664 26.2891-8.65234 25.8105-9.13086L25.0391-9.89258C24.5605-10.3711 24.1895-10.5273 23.7109-10.4883L23.1348-10.4395L22.4902-11.0742L22.7344-12.1973C22.8613-12.7637 22.7051-13.2031 22.1191-13.7891L19.9219-15.9766C16.582-19.2969 12.1484-19.2188 9.25781-16.3281ZM10.752-15.957C13.1836-17.7344 16.4746-17.4316 18.7012-15.2051L21.1328-12.793C21.3672-12.5586 21.4062-12.373 21.3379-12.0312L21.0156-10.5469L22.5195-9.0625L23.5059-9.12109C23.7598-9.13086 23.8379-9.11133 24.0332-8.91602L24.6094-8.33984L22.168-5.89844L21.5918-6.47461C21.3965-6.66992 21.3672-6.74805 21.377-7.01172L21.4453-7.98828L19.9512-9.47266L18.4277-9.21875C18.1055-9.15039 17.959-9.17969 17.7148-9.41406L15.7129-11.416C15.459-11.6504 15.4297-11.8164 15.5859-12.1875L16.4648-14.2773C14.9023-15.7324 12.8711-16.3574 10.8398-15.7617C10.6836-15.7227 10.625-15.8496 10.752-15.957Z"/>
  </g>
  <text style="stroke:none;fill:black;font-family:sans-serif;font-size:13;font-weight:bold;" transform="matrix(1 0 0 1 1289 1953)">Exporting</text>
  <text style="stroke:none;fill:black;font-family:sans-serif;font-size:13;" transform="matrix(1 0 0 1 1289 1971)">Symbols should be outlined when exporting to ensure the</text>
  <text style="stroke:none;fill:black;font-family:sans-serif;font-size:13;" transform="matrix(1 0 0 1 1289 1989)">design is preserved when submitting to Xcode.</text>
  <text id="template-version" style="stroke:none;fill:black;font-family:sans-serif;font-size:13;text-anchor:end;" transform="matrix(1 0 0 1 3036 1933)">Template v.4.0</text>
  <text style="stroke:none;fill:black;font-family:sans-serif;font-size:13;text-anchor:end;" transform="matrix(1 0 0 1 3036 1951)">Requires Xcode 14 or greater</text>
  <text id="descriptive-name" style="stroke:none;fill:black;font-family:sans-serif;font-size:13;text-anchor:end;" transform="matrix(1 0 0 1 3036 1969)">Generated from figure.barre</text>
  <text style="stroke:none;fill:black;font-family:sans-serif;font-size:13;text-anchor:end;" transform="matrix(1 0 0 1 3036 1987)">Typeset at 100 points</text>
  <text style="stroke:none;fill:black;font-family:sans-serif;font-size:13;" transform="matrix(1 0 0 1 263 726)">Small</text>
  <text style="stroke:none;fill:black;font-family:sans-serif;font-size:13;" transform="matrix(1 0 0 1 263 1156)">Medium</text>
  <text style="stroke:none;fill:black;font-family:sans-serif;font-size:13;" transform="matrix(1 0 0 1 263 1586)">Large</text>
 </g>
 <g id="Guides">
  <g id="H-reference" style="fill:#27AAE1;stroke:none;" transform="matrix(1 0 0 1 339 696)">
   <path d="M0.993654 0L3.63775 0L29.3281-67.1323L30.0303-67.1323L30.0303-70.459L28.1226-70.459ZM11.6885-24.4799L46.9815-24.4799L46.2315-26.7285L12.4385-26.7285ZM55.1196 0L57.7637 0L30.6382-70.459L29.4326-70.459L29.4326-67.1323Z"/>
  </g>
  <line id="Baseline-S" style="fill:none;stroke:#27AAE1;opacity:1;stroke-width:0.5;" x1="263" x2="3036" y1="696" y2="696"/>
  <line id="Capline-S" style="fill:none;stroke:#27AAE1;opacity:1;stroke-width:0.5;" x1="263" x2="3036" y1="625.541" y2="625.541"/>
  <g id="H-reference" style="fill:#27AAE1;stroke:none;" transform="matrix(1 0 0 1 339 1126)">
   <path d="M0.993654 0L3.63775 0L29.3281-67.1323L30.0303-67.1323L30.0303-70.459L28.1226-70.459ZM11.6885-24.4799L46.9815-24.4799L46.2315-26.7285L12.4385-26.7285ZM55.1196 0L57.7637 0L30.6382-70.459L29.4326-70.459L29.4326-67.1323Z"/>
  </g>
  <line id="Baseline-M" style="fill:none;stroke:#27AAE1;opacity:1;stroke-width:0.5;" x1="263" x2="3036" y1="1126" y2="1126"/>
  <line id="Capline-M" style="fill:none;stroke:#27AAE1;opacity:1;stroke-width:0.5;" x1="263" x2="3036" y1="1055.54" y2="1055.54"/>
  <g id="H-reference" style="fill:#27AAE1;stroke:none;" transform="matrix(1 0 0 1 339 1556)">
   <path d="M0.993654 0L3.63775 0L29.3281-67.1323L30.0303-67.1323L30.0303-70.459L28.1226-70.459ZM11.6885-24.4799L46.9815-24.4799L46.2315-26.7285L12.4385-26.7285ZM55.1196 0L57.7637 0L30.6382-70.459L29.4326-70.459L29.4326-67.1323Z"/>
  </g>
  <line id="Baseline-L" style="fill:none;stroke:#27AAE1;opacity:1;stroke-width:0.5;" x1="263" x2="3036" y1="1556" y2="1556"/>
  <line id="Capline-L" style="fill:none;stroke:#27AAE1;opacity:1;stroke-width:0.5;" x1="263" x2="3036" y1="1485.54" y2="1485.54"/>
  <line id="left-margin-Regular-M" style="fill:none;stroke:#00AEEF;stroke-width:0.5;opacity:1.0;" x1="1379.05" x2="1379.05" y1="1030.79" y2="1150.12"/>
  <line id="right-margin-Regular-M" style="fill:none;stroke:#00AEEF;stroke-width:0.5;opacity:1.0;" x1="1520.63" x2="1520.63" y1="1030.79" y2="1150.12"/>
 </g>
 <g id="Symbols">
  <g id="Black-L" transform="matrix(1 0 0 1 2836.31 1556)">
   <path d="M84.1606-84.4218C92.6658-84.4218 99.6286-91.3847 99.6286-99.9303C99.6286-108.456 92.6658-115.398 84.1606-115.398C75.5929-115.398 68.652-108.456 68.652-99.9303C68.652-91.3847 75.5929-84.4218 84.1606-84.4218ZM88.4971-20.8083L124.86-9.5583L159.558 6.10879C169.925 10.8027 176.114-3.97429 166.209-8.44893L107.083-35.2116L107.083-66.5223C107.083-68.0408 107.608-68.5961 108.93-69.1435L126.962-76.5029C129.014-77.3279 129.524-77.8092 130.999-79.562L149.951-101.622C152.827-104.959 152.367-109.989 149.031-112.785C145.737-115.778 140.606-115.202 137.81-111.945L119.895-91.0814L36.8539-57.163C35.1998-56.5084 33.2862-55.4826 31.9719-54.3023L72.4752-54.3023L76.4948-55.9514C77.5672-56.404 78.173-55.915 78.173-55.0604L78.173-35.0153C78.173-27.5687 81.6926-22.91 88.4971-20.8083ZM81.7211 35.3902C79.9839 41.5008 84.8542 45.2749 89.6065 45.2749C92.8616 45.2749 96.0584 43.5365 97.1754 39.5432L106.784 4.38567C107.003 3.5891 107.083 2.83012 107.083 2.2892L107.083-7.23312L89.3117-12.7104L91.0082 1.77148ZM21.7785-35.3236L70.5833-35.3236L70.5833-46.7334L21.7785-46.7334C18.6345-46.7334 16.084-44.1632 16.084-41.0181C16.084-37.873 18.6345-35.3236 21.7785-35.3236ZM172.4-35.3236C175.544-35.3236 178.094-37.873 178.094-41.0181C178.094-44.1632 175.544-46.7334 172.4-46.7334L115.842-46.7334L115.842-40.2654L125.362-35.3236Z"/>
  </g>
  <g id="Heavy-L" transform="matrix(1 0 0 1 2541.12 1556)">
   <path d="M82.8426-83.7373C91.1013-83.7373 97.859-90.495 97.859-98.8085C97.859-107.097 91.1013-113.825 82.8426-113.825C74.4933-113.825 67.7714-107.097 67.7714-98.8085C67.7714-90.495 74.4933-83.7373 82.8426-83.7373ZM87.1699-21.2787L123.081-10.1826L157.35 5.3085C167.273 9.80111 173.178-4.30753 163.713-8.59468L105.18-35.0782L105.18-66.1659C105.18-67.9193 105.729-68.4195 107.166-69.0038L124.981-76.2589C127.052-77.0933 127.475-77.5702 128.863-79.2083L147.566-100.984C150.319-104.183 149.872-108.971 146.678-111.643C143.545-114.485 138.647-113.955 135.974-110.836L118.248-90.1923L36.1914-56.6804C34.3824-55.9575 32.5835-54.9366 31.3563-53.812L69.8666-53.812L75.2571-56.0158C76.5368-56.5466 77.1657-56.007 77.1657-55.074L77.1657-35.061C77.1657-27.8152 80.5618-23.3258 87.1699-21.2787ZM80.6547 34.5137C78.9953 40.3496 83.6274 43.9544 88.1646 43.9544C91.278 43.9544 94.3468 42.2894 95.4043 38.4791L104.9 3.76898C105.105 3.02755 105.18 2.30056 105.18 1.77342L105.18-8.30132L88.0772-13.5679L89.8287 1.28769ZM21.2093-36.2915L69.8958-36.2915L69.8958-46.5723L21.2093-46.5723C18.3748-46.5723 16.084-44.2569 16.084-41.4168C16.084-38.5767 18.3748-36.2915 21.2093-36.2915ZM169.923-36.2915C172.758-36.2915 175.048-38.5767 175.048-41.4168C175.048-44.2569 172.758-46.5723 169.923-46.5723L113.348-46.5723L113.348-40.571L120.622-36.2915Z"/>
  </g>
  <g id="Bold-L" transform="matrix(1 0 0 1 2246.43 1556)">
   <path d="M81.0123-82.8324C88.9712-82.8324 95.4753-89.3365 95.4753-97.3581C95.4753-105.355 88.9712-111.821 81.0123-111.821C72.9395-111.821 66.4865-105.355 66.4865-97.3581C66.4865-89.3365 72.9395-82.8324 81.0123-82.8324ZM85.3988-21.8477L120.689-10.9586L154.368 4.28746C163.768 8.54153 169.335-4.78202 160.393-8.84604L102.71-34.9316L102.71-65.6682C102.71-67.6763 103.281-68.1148 104.842-68.7377L122.358-75.8548C124.445-76.697 124.768-77.1663 126.055-78.6734L144.421-100.058C147.028-103.096 146.597-107.599 143.572-110.125C140.623-112.79 136.002-112.313 133.476-109.356L116.018-89.0263L35.3246-56.0737C33.3234-55.2662 31.6555-54.2455 30.5285-53.1752L66.6541-53.1752L73.6235-56.0182C75.1271-56.6339 75.7792-56.0402 75.7792-55.0224L75.7792-35.1149C75.7792-28.115 79.0291-23.8257 85.3988-21.8477ZM79.1915 33.3109C77.6244 38.8236 81.9793 42.2283 86.2626 42.2283C89.2068 42.2283 92.1218 40.648 93.11 37.0533L102.452 2.95601C102.642 2.27626 102.71 1.58772 102.71 1.076L102.71-9.60065L86.399-14.6209L88.2123 0.628725ZM20.495-37.4678L68.8938-37.4678L68.8938-46.3278L20.495-46.3278C18.0521-46.3278 16.084-44.3349 16.084-41.8788C16.084-39.4227 18.0521-37.4678 20.495-37.4678ZM166.604-37.4678C169.047-37.4678 171.015-39.4227 171.015-41.8788C171.015-44.3349 169.047-46.3278 166.604-46.3278L110.192-46.3278L110.192-40.9475L114.952-37.4678Z"/>
  </g>
  <g id="Semibold-L" transform="matrix(1 0 0 1 1951.11 1556)">
   <path d="M79.7505-82.2085C87.5026-82.2085 93.8319-88.5378 93.8319-96.3582C93.8319-104.154 87.5026-110.44 79.7505-110.44C71.8682-110.44 65.6008-104.154 65.6008-96.3582C65.6008-88.5378 71.8682-82.2085 79.7505-82.2085ZM84.1779-22.24L119.04-11.4936L152.313 3.58357C161.352 7.67319 166.685-5.10913 158.104-9.01933L101.006-34.8306L101.006-65.3251C101.006-67.5087 101.594-67.9047 103.24-68.5543L120.55-75.5763C122.647-76.4238 122.901-76.8879 124.12-78.3047L142.254-99.4203C144.759-102.347 144.339-106.653 141.431-109.078C138.609-111.621 134.18-111.182 131.754-108.336L114.481-88.2225L34.727-55.6554C32.5934-54.7896 31.0157-53.769 29.9577-52.7361L64.4395-52.7361L72.4973-56.0199C74.1552-56.6941 74.8234-56.0631 74.8234-54.9867L74.8234-35.152C74.8234-28.3217 77.9725-24.1704 84.1779-22.24ZM78.1828 32.4817C76.6793 37.7716 80.8432 41.0384 84.9514 41.0384C87.7789 41.0384 90.5878 39.5164 91.5282 36.0703L100.765 2.39556C100.944 1.75832 101.006 1.0963 101.006 0.595205L101.006-10.4964L85.2421-15.3469L87.0979 0.17444ZM20.0025-38.2788L68.2031-38.2788L68.2031-46.1592L20.0025-46.1592C17.8296-46.1592 16.084-44.3887 16.084-42.1973C16.084-40.0059 17.8296-38.2788 20.0025-38.2788ZM164.315-38.2788C166.488-38.2788 168.234-40.0059 168.234-42.1973C168.234-44.3887 166.488-46.1592 164.315-46.1592L108.017-46.1592L108.017-41.2071L111.044-38.2788Z"/>
  </g>
  <g id="Medium-L" transform="matrix(1 0 0 1 1655.45 1556)">
   <path d="M78.7937-81.7355C86.3891-81.7355 92.5859-87.9322 92.5859-95.6001C92.5859-103.243 86.3891-109.392 78.7937-109.392C71.056-109.392 64.9291-103.243 64.9291-95.6001C64.9291-87.9322 71.056-81.7355 78.7937-81.7355ZM83.2521-22.5375L117.79-11.8992L150.754 3.04984C159.52 7.01477 164.677-5.35715 156.368-9.15073L99.7149-34.7539L99.7149-65.0649C99.7149-67.3817 100.315-67.7454 102.025-68.4152L119.179-75.365C121.285-76.2167 121.486-76.6767 122.653-78.0251L140.61-98.9364C143.039-101.778 142.627-105.936 139.807-108.285C137.082-110.735 132.797-110.324 130.448-107.562L113.315-87.6131L34.2738-55.3382C32.0399-54.4283 30.5307-53.4078 29.525-52.4032L62.7602-52.4032L71.6434-56.0211C73.4183-56.7398 74.0986-56.0805 74.0986-54.9597L74.0986-35.1802C74.0986-28.4785 77.1713-24.4317 83.2521-22.5375ZM77.4179 31.853C75.9627 36.974 79.9817 40.1361 83.9571 40.1361C86.6962 40.1361 89.4247 38.6585 90.3289 35.3249L99.4856 1.97059C99.6569 1.3656 99.7149 0.723678 99.7149 0.230645L99.7149-11.1756L84.3649-15.8973L86.2529-0.170018ZM19.6291-38.8937L67.6794-38.8937L67.6794-46.0314L19.6291-46.0314C17.6609-46.0314 16.084-44.4295 16.084-42.4388C16.084-40.4482 17.6609-38.8937 19.6291-38.8937ZM162.58-38.8937C164.548-38.8937 166.125-40.4482 166.125-42.4388C166.125-44.4295 164.548-46.0314 162.58-46.0314L106.367-46.0314L106.367-41.404L108.08-38.8937Z"/>
  </g>
  <g id="Regular-L" transform="matrix(1 0 0 1 1360.11 1556)">
   <path d="M77.5458-81.1185C84.9368-81.1185 90.9606-87.1423 90.9606-94.6112C90.9606-102.055 84.9368-108.026 77.5458-108.026C69.9965-108.026 64.0531-102.055 64.0531-94.6112C64.0531-87.1423 69.9965-81.1185 77.5458-81.1185ZM82.0446-22.9254L116.16-12.4283L148.722 2.35368C157.131 6.15597 162.056-5.68067 154.105-9.32212L98.0303-34.654L98.0303-64.7256C98.0303-67.216 98.646-67.5377 100.44-68.2338L117.391-75.0895C119.507-75.9465 119.64-76.4014 120.739-77.6604L138.466-98.3054C140.795-101.037 140.393-105 137.689-107.249C135.091-109.579 130.994-109.205 128.745-106.553L111.794-86.8181L33.6828-54.9245C31.3179-53.9569 29.898-52.9366 28.9606-51.969L60.5699-51.969L70.5296-56.0227C72.4572-56.7993 73.1533-56.1032 73.1533-54.9245L73.1533-35.2169C73.1533-28.6829 76.1263-24.7725 82.0446-22.9254ZM76.4203 31.033C75.0281 35.9335 78.858 38.9593 82.6603 38.9593C85.2839 38.9593 87.9076 37.5394 88.7646 34.3528L97.8167 1.41629C97.9775 0.853355 98.0303 0.237652 98.0303-0.244867L98.0303-12.0615L83.2207-16.6152L85.1508-0.61931ZM19.1421-39.6957L66.9963-39.6957L66.9963-45.8647L19.1421-45.8647C17.4409-45.8647 16.084-44.4827 16.084-42.7539C16.084-41.025 17.4409-39.6957 19.1421-39.6957ZM160.317-39.6957C162.018-39.6957 163.375-41.025 163.375-42.7539C163.375-44.4827 162.018-45.8647 160.317-45.8647L104.215-45.8647L104.215-41.6607L104.215-39.6957Z"/>
  </g>
  <g id="Light-L" transform="matrix(1 0 0 1 1065.64 1556)">
   <path d="M75.0074-80.126C82.2267-80.126 88.0787-85.9781 88.0787-93.2179C88.0787-100.471 82.2267-106.289 75.0074-106.289C67.6872-106.289 61.9155-100.471 61.9155-93.2179C61.9155-85.9781 67.6872-80.126 75.0074-80.126ZM80.0025-23.2308L113.297-12.9818L145.076 1.45667C153.294 5.16353 158.067-6.40591 150.345-9.95193L95.5874-34.6731L95.5874-64.0194C95.5874-66.4526 96.184-66.7743 97.9402-67.4513L114.49-74.1543C116.568-74.9922 116.682-75.428 117.761-76.668L135.069-96.7976C137.341-99.4721 136.939-103.34 134.311-105.532C131.751-107.804 127.769-107.449 125.577-104.855L109.027-85.5966L32.7858-54.4474C30.2873-53.4225 28.8864-52.364 27.9681-51.3392L58.4705-51.3392L68.7547-55.5265C70.625-56.284 71.302-55.607 71.302-54.4474L71.302-35.236C71.302-28.8547 74.2177-25.0207 80.0025-23.2308ZM74.4927 29.4489C73.1386 34.2349 76.8922 37.1843 80.5991 37.1843C83.1464 37.1843 85.6937 35.7835 86.5316 32.6733L95.3929 0.538371C95.5537-0.024568 95.5874-0.621185 95.5874-1.1037L95.5874-12.8058L81.1022-17.2832L83.0323-1.45906ZM18.5886-40.3637L65.3358-40.3637L65.3358-45.4067L18.5886-45.4067C17.2119-45.4067 16.084-44.2918 16.084-42.8684C16.084-41.4449 17.2119-40.3637 18.5886-40.3637ZM156.405-40.3637C157.781-40.3637 158.909-41.4449 158.909-42.8684C158.909-44.2918 157.781-45.4067 156.405-45.4067L101.6-45.4067L101.6-41.9088L101.6-40.3637Z"/>
  </g>
  <g id="Thin-L" transform="matrix(1 0 0 1 771.879 1556)">
   <path d="M71.6503-78.8135C78.6423-78.8135 84.2672-84.4384 84.2672-91.3753C84.2672-98.3758 78.6423-103.992 71.6503-103.992C64.6329-103.992 59.0885-98.3758 59.0885-91.3753C59.0885-84.4384 64.6329-78.8135 71.6503-78.8135ZM77.3016-23.6347L109.511-13.7138L140.255 0.270303C148.221 3.85096 152.792-7.3651 145.372-10.7849L92.3564-34.6983L92.3564-63.0855C92.3564-65.4429 92.9278-65.7646 94.6335-66.4164L110.653-72.9175C112.681-73.7301 112.77-74.1407 113.824-75.3554L130.576-94.8035C132.772-97.4023 132.37-101.144 129.843-103.26C127.334-105.457 123.503-105.127 121.387-102.608L105.367-83.9811L31.5994-53.8163C28.9242-52.7158 27.5486-51.6068 26.6556-50.5062L55.6939-50.5062L66.4072-54.8702C68.2018-55.6025 68.8536-54.9507 68.8536-53.8163L68.8536-35.2613C68.8536-29.0819 71.6936-25.3488 77.3016-23.6347ZM71.9433 27.3538C70.6397 31.9884 74.2923 34.8368 77.873 34.8368C80.3193 34.8368 82.7657 33.4613 83.5783 30.452L92.1872-0.622752C92.348-1.18569 92.3564-1.75707 92.3564-2.23959L92.3564-13.7903L78.3004-18.1667L80.2305-2.5697ZM17.8566-41.2472L63.1398-41.2472L63.1398-44.8009L17.8566-44.8009C16.909-44.8009 16.084-44.0394 16.084-43.0198C16.084-42.0002 16.909-41.2472 17.8566-41.2472ZM151.23-41.2472C152.178-41.2472 153.003-42.0002 153.003-43.0198C153.003-44.0394 152.178-44.8009 151.23-44.8009L98.1422-44.8009L98.1422-42.237L98.1422-41.2472Z"/>
  </g>
  <g id="Ultralight-L" transform="matrix(1 0 0 1 476.68 1556)">
   <path d="M69.9308-78.1412C76.8064-78.1412 82.315-83.6497 82.315-90.4315C82.315-97.3027 76.8064-102.816 69.9308-102.816C63.0686-102.816 57.6404-97.3027 57.6404-90.4315C57.6404-83.6497 63.0686-78.1412 69.9308-78.1412ZM75.9182-23.8415L107.571-14.0887L137.786-0.337348C145.622 3.17867 150.09-7.85639 142.825-11.2116L90.7016-34.7113L90.7016-62.6071C90.7016-64.9258 91.26-65.2475 92.9398-65.8863L108.688-72.284C110.69-73.0837 110.766-73.4813 111.807-74.6831L128.274-93.7822C130.432-96.3421 130.03-100.019 127.555-102.096C125.071-104.254 121.318-103.937 119.241-101.458L103.492-83.1537L30.9918-53.4931C28.2261-52.3538 26.8634-51.2189 25.9833-50.0796L54.2718-50.0796L65.2048-54.5341C66.9606-55.2534 67.5995-54.6145 67.5995-53.4931L67.5995-35.2742C67.5995-29.1982 70.4007-25.5169 75.9182-23.8415ZM70.6375 26.2808C69.3597 30.8377 72.9607 33.6345 76.4767 33.6345C78.8713 33.6345 81.2659 32.2718 82.0656 29.3142L90.5452-1.21747C90.7061-1.78041 90.7016-2.33886 90.7016-2.82138L90.7016-14.2945L76.8653-18.6192L78.7954-3.13857ZM17.4817-41.6997L62.015-41.6997L62.015-44.4906L17.4817-44.4906C16.7539-44.4906 16.084-43.9101 16.084-43.0974C16.084-42.2847 16.7539-41.6997 17.4817-41.6997ZM148.58-41.6997C149.307-41.6997 149.977-42.2847 149.977-43.0974C149.977-43.9101 149.307-44.4906 148.58-44.4906L96.3709-44.4906L96.3709-42.4051L96.3709-41.6997Z"/>
  </g>
  <g id="Black-M" transform="matrix(1 0 0 1 2857.17 1126)">
   <path d="M65.9915-73.7947C72.7694-73.7947 78.3169-79.3422 78.3169-86.1314C78.3169-92.9148 72.7694-98.4568 65.9915-98.4568C59.1971-98.4568 53.6548-92.9148 53.6548-86.1314C53.6548-79.3422 59.1971-73.7947 65.9915-73.7947ZM69.4263-23.6939L97.8751-14.8794L125.02-2.63673C133.408 1.15987 138.425-10.8266 130.406-14.4415L84.2654-35.3329L84.2654-59.6839C84.2654-60.6508 84.6499-61.1284 85.5696-61.5181L99.6719-67.2887C101.24-67.9172 101.708-68.2914 102.923-69.7453L117.763-87.0111C120.09-89.7065 119.721-93.799 117.025-96.0635C114.341-98.5044 110.18-98.0213 107.916-95.3882L93.9278-79.099L29-52.5724C27.8336-52.1163 26.2551-51.3121 25.1646-50.3421L58.107-50.3421L60.0871-51.1611C60.732-51.4419 61.1788-51.1092 61.1788-50.5169L61.1788-35.0268C61.1788-29.1058 64.004-25.3613 69.4263-23.6939ZM63.968 20.0213C62.5605 24.9759 66.5281 28.035 70.3818 28.035C73.0152 28.035 75.5914 26.6278 76.5054 23.387L84.0211-4.12692C84.2028-4.79144 84.2654-5.40435 84.2654-5.83528L84.2654-12.7223L69.9676-17.1365L71.2345-6.26128ZM17.2869-34.5612L55.0497-34.5612L55.0497-44.2185L17.2869-44.2185C14.6292-44.2185 12.4609-42.0445 12.4609-39.3871C12.4609-36.7297 14.6292-34.5612 17.2869-34.5612ZM135.164-34.5612C137.822-34.5612 139.99-36.7297 139.99-39.3871C139.99-42.0445 137.822-44.2185 135.164-44.2185L91.5362-44.2185L91.5362-38.9021L100.843-34.5612Z"/>
  </g>
  <g id="Heavy-M" transform="matrix(1 0 0 1 2561.75 1126)">
   <path d="M64.9373-73.2171C71.4901-73.2171 76.8528-78.5798 76.8528-85.1632C76.8528-91.7324 71.4901-97.0788 64.9373-97.0788C58.3352-97.0788 52.9912-91.7324 52.9912-85.1632C52.9912-78.5798 58.3352-73.2171 64.9373-73.2171ZM68.3173-24.1256L96.4001-15.4386L123.198-3.33631C131.169 0.272327 135.923-11.0855 128.312-14.5259L82.6311-35.2007L82.6311-59.4007C82.6311-60.6024 83.04-61.0261 84.0759-61.4537L98.0031-67.1365C99.5936-67.7759 99.9776-68.1475 101.109-69.4911L115.745-86.5262C117.956-89.0926 117.601-92.9567 115.037-95.1057C112.505-97.4042 108.562-96.9641 106.413-94.46L92.5734-78.3425L28.4352-52.1447C27.1296-51.627 25.6615-50.8312 24.6543-49.9209L55.7506-49.9209L59.0408-51.2698C59.8936-51.6288 60.3649-51.2449 60.3649-50.5743L60.3649-35.0697C60.3649-29.3309 63.0746-25.7449 68.3173-24.1256ZM63.1034 19.3105C61.7684 24.0073 65.5102 26.9079 69.1624 26.9079C71.6643 26.9079 74.1225 25.5706 74.9801 22.5017L82.4028-4.64878C82.571-5.2594 82.6311-5.8428 82.6311-6.26025L82.6311-13.6979L68.9561-17.9132L70.2769-6.65675ZM16.7815-35.4457L54.5308-35.4457L54.5308-44.1032L16.7815-44.1032C14.3964-44.1032 12.4609-42.1536 12.4609-39.7662C12.4609-37.3788 14.3964-35.4457 16.7815-35.4457ZM133.104-35.4457C135.489-35.4457 137.424-37.3788 137.424-39.7662C137.424-42.1536 135.489-44.1032 133.104-44.1032L89.3398-44.1032L89.3398-39.1779L96.4502-35.4457Z"/>
  </g>
  <g id="Bold-M" transform="matrix(1 0 0 1 2266.47 1126)">
   <path d="M63.758-72.5709C70.0589-72.5709 75.2151-77.7271 75.2151-84.0801C75.2151-90.4097 70.0589-95.5372 63.758-95.5372C57.3711-95.5372 52.2488-90.4097 52.2488-84.0801C52.2488-77.7271 57.3711-72.5709 63.758-72.5709ZM67.0767-24.6084L94.7501-16.0642L121.159-4.1189C128.665-0.720516 133.125-11.3751 125.97-14.6203L80.8028-35.0528L80.8028-59.0838C80.8028-60.5483 81.2391-60.9117 82.4049-61.3817L96.1364-66.9662C97.7513-67.6178 98.042-67.9865 99.0804-69.2067L113.487-85.9837C115.569-88.4059 115.229-92.0145 112.812-94.0343C110.452-96.1735 106.753-95.7815 104.733-93.4216L91.0583-77.4962L27.8033-51.6662C26.3421-51.0796 24.9974-50.2931 24.0836-49.4497L53.1147-49.4497L57.8704-51.3914C58.9558-51.838 59.4543-51.3966 59.4543-50.6384L59.4543-35.1178C59.4543-29.5827 62.0349-26.174 67.0767-24.6084ZM62.1363 18.5154C60.8823 22.9237 64.3715 25.6471 67.7984 25.6471C70.1532 25.6471 72.4794 24.388 73.2738 21.5114L80.5925-5.23255C80.7457-5.78288 80.8028-6.33328 80.8028-6.73565L80.8028-14.7892L67.8247-18.782L69.2058-7.09914ZM16.2162-36.4351L53.9503-36.4351L53.9503-43.9743L16.2162-43.9743C14.136-43.9743 12.4609-42.2758 12.4609-40.1904C12.4609-38.105 14.136-36.4351 16.2162-36.4351ZM130.799-36.4351C132.879-36.4351 134.554-38.105 134.554-40.1904C134.554-42.2758 132.879-43.9743 130.799-43.9743L86.8829-43.9743L86.8829-39.4864L91.5363-36.4351Z"/>
  </g>
  <g id="Semibold-M" transform="matrix(1 0 0 1 1970.75 1126)">
   <path d="M62.945-72.1255C69.0723-72.1255 74.086-77.1392 74.086-83.3335C74.086-89.4979 69.0723-94.4745 62.945-94.4745C56.7065-94.4745 51.737-89.4979 51.737-83.3335C51.737-77.1392 56.7065-72.1255 62.945-72.1255ZM66.2214-24.9413L93.6126-16.4955L119.754-4.65841C126.938-1.40498 131.196-11.5747 124.355-14.6854L79.5425-34.9509L79.5425-58.8654C79.5425-60.511 79.9975-60.8329 81.2529-61.332L94.8495-66.8488C96.4812-67.5089 96.7076-67.8756 97.6817-69.0106L111.931-85.6097C113.924-87.9324 113.594-91.365 111.278-93.2957C109.037-95.3251 105.505-94.9662 103.574-92.7058L90.0138-76.9128L27.3677-51.3363C25.7992-50.7023 24.5395-49.9222 23.6901-49.1248L51.2975-49.1248L57.0635-51.4752C58.3093-51.9822 58.8266-51.5012 58.8266-50.6827L58.8266-35.151C58.8266-29.7563 61.3182-26.4698 66.2214-24.9413ZM61.4695 17.9673C60.2714 22.1766 63.5864 24.7778 66.858 24.7778C69.1114 24.7778 71.3466 23.5727 72.0974 20.8287L79.3445-5.635C79.4873-6.14376 79.5425-6.6714 79.5425-7.06339L79.5425-15.5416L67.0446-19.381L68.4673-7.40412ZM15.8265-37.1172L53.5502-37.1172L53.5502-43.8854L15.8265-43.8854C13.9564-43.8854 12.4609-42.36 12.4609-40.4828C12.4609-38.6056 13.9564-37.1172 15.8265-37.1172ZM129.21-37.1172C131.08-37.1172 132.576-38.6056 132.576-40.4828C132.576-42.36 131.08-43.8854 129.21-43.8854L85.1892-43.8854L85.1892-39.6991L88.1487-37.1172Z"/>
  </g>
  <g id="Medium-M" transform="matrix(1 0 0 1 1674.79 1126)">
   <path d="M62.3285-71.7877C68.3242-71.7877 73.2299-76.6934 73.2299-82.7673C73.2299-88.8065 68.3242-93.6687 62.3285-93.6687C56.2025-93.6687 51.3489-88.8065 51.3489-82.7673C51.3489-76.6934 56.2025-71.7877 62.3285-71.7877ZM65.573-25.1938L92.7501-16.8225L118.688-5.06749C125.629-1.92396 129.733-11.7261 123.131-14.7347L78.5868-34.8736L78.5868-58.6998C78.5868-60.4827 79.0561-60.7731 80.3794-61.2944L93.8737-66.7598C95.5182-67.4262 95.6958-67.7915 96.6212-68.8619L110.75-85.3261C112.676-87.5735 112.354-90.8724 110.115-92.7357C107.964-94.6818 104.559-94.348 102.696-92.163L89.2219-76.4704L27.0374-51.0862C25.3875-50.4162 24.1924-49.641 23.3917-48.8785L49.9196-48.8785L56.4517-51.5388C57.8191-52.0915 58.3507-51.5805 58.3507-50.7162L58.3507-35.1761C58.3507-29.888 60.7747-26.6941 65.573-25.1938ZM60.9639 17.5516C59.8082 21.6102 62.9912 24.1188 66.145 24.1188C68.3215 24.1188 70.4876 22.9545 71.2055 20.3111L78.3982-5.94015C78.5331-6.4174 78.5868-6.92779 78.5868-7.31189L78.5868-16.112L66.4532-19.8352L67.9074-7.63537ZM15.531-37.6344L53.2468-37.6344L53.2468-43.818L15.531-43.818C13.8203-43.818 12.4609-42.4238 12.4609-40.7045C12.4609-38.9852 13.8203-37.6344 15.531-37.6344ZM128.005-37.6344C129.716-37.6344 131.075-38.9852 131.075-40.7045C131.075-42.4238 129.716-43.818 128.005-43.818L83.9049-43.818L83.9049-39.8603L85.5801-37.6344Z"/>
  </g>
  <g id="Regular-M" transform="matrix(1 0 0 1 1379.05 1126)">
   <path d="M61.5244-71.3471C67.3484-71.3471 72.1132-76.112 72.1132-82.0289C72.1132-87.9046 67.3484-92.6177 61.5244-92.6177C55.5452-92.6177 50.8427-87.9046 50.8427-82.0289C50.8427-76.112 55.5452-71.3471 61.5244-71.3471ZM64.7271-25.523L91.6252-17.249L117.298-5.60107C123.922-2.6009 127.825-11.9235 121.534-14.7991L77.3403-34.7728L77.3403-58.4837C77.3403-60.4458 77.8282-60.695 79.2401-61.2452L92.6009-66.6436C94.2621-67.3184 94.3761-67.6817 95.2378-68.668L109.211-84.9562C111.049-87.1052 110.737-90.23 108.599-92.0052C106.564-93.8427 103.325-93.5417 101.55-91.455L88.1888-75.8934L26.6066-50.76C24.8506-50.0429 23.7396-49.2742 23.0025-48.5572L48.1224-48.5572L55.6537-51.6217C57.1797-52.2342 57.7299-51.684 57.7299-50.76L57.7299-35.2089C57.7299-30.0597 60.0658-26.9867 64.7271-25.523ZM60.3045 17.0095C59.2041 20.8714 62.2148 23.2591 65.215 23.2591C67.2911 23.2591 69.3673 22.1482 70.0421 19.6359L77.1639-6.33818C77.2885-6.77431 77.3403-7.2622 77.3403-7.63603L77.3403-16.8561L65.6818-20.4276L67.1771-7.937ZM15.1456-38.309L52.851-38.309L52.851-43.7301L15.1456-43.7301C13.6427-43.7301 12.4609-42.5071 12.4609-40.9937C12.4609-39.4803 13.6427-38.309 15.1456-38.309ZM126.434-38.309C127.937-38.309 129.119-39.4803 129.119-40.9937C129.119-42.5071 127.937-43.7301 126.434-43.7301L82.2297-43.7301L82.2297-40.0707L82.2297-38.309Z"/>
  </g>
  <g id="Light-M" transform="matrix(1 0 0 1 1084.35 1126)">
   <path d="M59.2487-70.4574C64.9187-70.4574 69.5295-75.0682 69.5295-80.7798C69.5295-86.4844 64.9187-91.0606 59.2487-91.0606C53.4748-91.0606 48.9263-86.4844 48.9263-80.7798C48.9263-75.0682 53.4748-70.4574 59.2487-70.4574ZM62.8962-25.7968L89.0585-17.7453L114.03-6.40529C120.482-3.49067 124.249-12.5737 118.163-15.3637L75.1501-34.7899L75.1501-57.8506C75.1501-59.7614 75.6209-60.0106 76.9985-60.5437L90.0001-65.8052C91.627-66.4629 91.7239-66.8091 92.5685-67.7783L106.165-83.6044C107.952-85.7021 107.64-88.7414 105.57-90.4652C103.569-92.2514 100.433-91.9675 98.7093-89.9321L85.7078-74.7983L25.8024-50.3322C23.9266-49.5638 22.8327-48.7609 22.1127-47.9925L46.2402-47.9925L54.0624-51.1768C55.537-51.7722 56.0701-51.2391 56.0701-50.3322L56.0701-35.226C56.0701-30.2137 58.3547-27.2091 62.8962-25.7968ZM58.5763 15.5893C57.5101 19.3485 60.4524 21.6678 63.367 21.6678C65.3747 21.6678 67.3824 20.5739 68.0401 18.1301L74.9908-7.12528C75.1154-7.56142 75.1501-8.03219 75.1501-8.40602L75.1501-17.5234L63.7825-21.0265L65.2778-8.68988ZM14.6494-38.9079L51.3624-38.9079L51.3624-43.3194L14.6494-43.3194C13.4374-43.3194 12.4609-42.336 12.4609-41.0963C12.4609-39.8567 13.4374-38.9079 14.6494-38.9079ZM122.926-38.9079C124.138-38.9079 125.115-39.8567 125.115-41.0963C125.115-42.336 124.138-43.3194 122.926-43.3194L79.8855-43.3194L79.8855-40.2931L79.8855-38.9079Z"/>
  </g>
  <g id="Thin-M" transform="matrix(1 0 0 1 790.282 1126)">
   <path d="M56.2388-69.2806C61.7051-69.2806 66.1123-73.6877 66.1123-79.1278C66.1123-84.6061 61.7051-89.0012 56.2388-89.0012C50.7365-89.0012 46.3916-84.6061 46.3916-79.1278C46.3916-73.6877 50.7365-69.2806 56.2388-69.2806ZM60.4747-26.1589L85.6639-18.4016L109.708-7.46893C115.934-4.66746 119.519-13.4337 113.705-16.1105L72.2534-34.8125L72.2534-57.0133C72.2534-58.8562 72.7015-59.1054 74.0339-59.6158L86.5602-64.6963C88.1419-65.3314 88.2162-65.6549 89.0381-66.6015L102.137-81.8166C103.855-83.8464 103.544-86.7725 101.564-88.4285C99.609-90.1467 96.6086-89.8855 94.9526-87.918L82.4263-73.3499L24.7388-49.7664C22.7045-48.9302 21.6333-48.0819 20.936-47.2457L43.7508-47.2457L51.9578-50.5884C53.3645-51.1611 53.8749-50.6507 53.8749-49.7664L53.8749-35.2486C53.8749-30.4174 56.0916-27.5033 60.4747-26.1589ZM56.2906 13.711C55.2697 17.3344 58.1214 19.5631 60.9229 19.5631C62.8401 19.5631 64.7573 18.4919 65.3923 16.1386L72.1167-8.16629C72.2414-8.60242 72.2534-9.05057 72.2534-9.4244L72.2534-18.406L61.2705-21.8185L62.7658-9.68563ZM13.9931-39.7L49.3935-39.7L49.3935-42.7763L13.9931-42.7763C13.1658-42.7763 12.4609-42.1097 12.4609-41.2321C12.4609-40.3546 13.1658-39.7 13.9931-39.7ZM118.287-39.7C119.114-39.7 119.819-40.3546 119.819-41.2321C119.819-42.1097 119.114-42.7763 118.287-42.7763L76.7851-42.7763L76.7851-40.5873L76.7851-39.7Z"/>
  </g>
  <g id="Ultralight-M" transform="matrix(1 0 0 1 494.927 1126)">
   <path d="M54.6972-68.6778C60.0592-68.6778 64.362-72.9807 64.362-78.2816C64.362-83.644 60.0592-87.9464 54.6972-87.9464C49.3339-87.9464 45.0934-83.644 45.0934-78.2816C45.0934-72.9807 49.3339-68.6778 54.6972-68.6778ZM59.2345-26.3443L83.9252-18.7377L107.494-8.01372C113.604-5.27021 117.096-13.8741 111.421-16.493L70.7697-34.8241L70.7697-56.5844C70.7697-58.3925 71.2062-58.6417 72.5155-59.1406L84.7983-64.1283C86.3568-64.7518 86.4195-65.0637 87.2299-65.9987L100.074-80.9009C101.757-82.8959 101.446-85.7641 99.5128-87.3852C97.5805-89.0687 94.6496-88.8191 93.0285-86.8864L80.7456-72.6081L24.194-49.4766C22.0786-48.6056 21.019-47.7342 20.3332-46.8632L42.4758-46.8632L50.8798-50.287C52.2517-50.8482 52.7506-50.3493 52.7506-49.4766L52.7506-35.2602C52.7506-30.5217 54.9325-27.654 59.2345-26.3443ZM55.1198 12.7489C54.1221 16.3028 56.9275 18.4851 59.671 18.4851C61.5419 18.4851 63.4127 17.4255 64.0362 15.1186L70.6447-8.69949C70.7693-9.13562 70.7697-9.57218 70.7697-9.946L70.7697-18.8581L59.9838-22.2242L61.4791-10.1956ZM13.6569-40.1057L48.3851-40.1057L48.3851-42.4981L13.6569-42.4981C13.0267-42.4981 12.4609-41.9938 12.4609-41.3017C12.4609-40.6096 13.0267-40.1057 13.6569-40.1057ZM115.911-40.1057C116.541-40.1057 117.107-40.6096 117.107-41.3017C117.107-41.9938 116.541-42.4981 115.911-42.4981L75.1971-42.4981L75.1971-40.738L75.1971-40.1057Z"/>
  </g>
  <g id="Black-S" transform="matrix(1 0 0 1 2873.39 696)">
   <path d="M51.9043-65.5762C57.2754-65.5762 61.6699-69.9707 61.6699-75.3418C61.6699-80.7129 57.2754-85.1074 51.9043-85.1074C46.5332-85.1074 42.1387-80.7129 42.1387-75.3418C42.1387-69.9707 46.5332-65.5762 51.9043-65.5762ZM54.6387-26.0742L77.002-19.1406L98.3398-9.52148C105.029-6.49414 109.033-16.0645 102.637-18.9453L66.4062-35.3516L66.4062-54.4434C66.4062-55.127 66.6992-55.5176 67.3828-55.8105L78.4668-60.3516C79.6875-60.8398 80.0781-61.1328 81.0547-62.3047L92.7246-75.8789C94.5801-78.0273 94.2871-81.2988 92.1387-83.1055C89.9902-85.0586 86.6699-84.668 84.8633-82.5684L73.877-69.7754L22.8516-48.9258C21.9727-48.584 20.7031-47.9492 19.8242-47.168L46.1426-47.168L47.3145-47.6562C47.7539-47.8516 48.0957-47.6074 48.0957-47.168L48.0957-35.0586C48.0957-30.3711 50.3418-27.3926 54.6387-26.0742ZM50.293 8.20312C49.1699 12.1582 52.3438 14.5996 55.4199 14.5996C57.5195 14.5996 59.5703 13.4766 60.3027 10.8887L66.2109-10.7422C66.3574-11.2793 66.4062-11.7676 66.4062-12.1094L66.4062-17.334L55.0293-20.8496L56.0059-12.4512ZM13.6719-34.4727L43.2129-34.4727L43.2129-42.2852L13.6719-42.2852C11.5234-42.2852 9.76562-40.5273 9.76562-38.3789C9.76562-36.2305 11.5234-34.4727 13.6719-34.4727ZM106.348-34.4727C108.496-34.4727 110.254-36.2305 110.254-38.3789C110.254-40.5273 108.496-42.2852 106.348-42.2852L72.2656-42.2852L72.2656-38.0371L80.2246-34.4727Z"/>
  </g>
  <g id="Heavy-S" transform="matrix(1 0 0 1 2577.52 696)">
   <path d="M51.2935-65.1959C56.4917-65.1959 60.748-69.4521 60.748-74.6734C60.748-79.8831 56.4917-84.1278 51.2935-84.1278C46.0607-84.1278 41.816-79.8831 41.816-74.6734C41.816-69.4521 46.0607-65.1959 51.2935-65.1959ZM53.9242-26.4084L76.0685-19.5555L97.1989-10.017C103.554-7.13951 107.351-16.2027 101.277-18.9453L65.2884-35.2363L65.2884-54.282C65.2884-55.1731 65.6044-55.5176 66.3917-55.8451L77.372-60.3285C78.6157-60.8283 78.9372-61.1213 79.8446-62.201L91.3878-75.6369C93.151-77.6816 92.8696-80.7687 90.8249-82.4831C88.8032-84.321 85.6558-83.965 83.9413-81.9691L73.0357-69.2683L22.4713-48.6146C21.4886-48.2267 20.3113-47.6035 19.5015-46.8799L44.3678-46.8799L46.623-47.8061C47.2468-48.0705 47.6117-47.7803 47.6117-47.2717L47.6117-35.0932C47.6117-30.544 49.7656-27.6922 53.9242-26.4084ZM49.7744 7.77672C48.7089 11.5244 51.6984 13.839 54.6132 13.839C56.6091 13.839 58.5677 12.7736 59.254 10.324L65.1046-11.0879C65.2395-11.5789 65.2884-12.0442 65.2884-12.3744L65.2884-18.0831L54.407-21.4374L55.4296-12.6932ZM13.3031-35.1526L42.9594-35.1526L42.9594-42.2391L13.3031-42.2391C11.3506-42.2391 9.76562-40.6426 9.76562-38.6901C9.76562-36.7375 11.3506-35.1526 13.3031-35.1526ZM105.034-35.1526C106.986-35.1526 108.571-36.7375 108.571-38.6901C108.571-40.6426 106.986-42.2391 105.034-42.2391L70.6868-42.2391L70.6868-38.2445L76.7673-35.1526Z"/>
  </g>
  <g id="Bold-S" transform="matrix(1 0 0 1 2281.75 696)">
   <path d="M50.6104-64.7705C55.6152-64.7705 59.7168-68.8721 59.7168-73.9258C59.7168-78.9551 55.6152-83.0322 50.6104-83.0322C45.5322-83.0322 41.4551-78.9551 41.4551-73.9258C41.4551-68.8721 45.5322-64.7705 50.6104-64.7705ZM53.125-26.7822L75.0244-20.0195L95.9229-10.5713C101.904-7.86133 105.469-16.3574 99.7559-18.9453L64.0381-35.1074L64.0381-54.1016C64.0381-55.2246 64.3799-55.5176 65.2832-55.8838L76.1475-60.3027C77.417-60.8154 77.6611-61.1084 78.4912-62.085L89.8926-75.3662C91.5527-77.2949 91.2842-80.1758 89.3555-81.7871C87.4756-83.4961 84.5215-83.1787 82.9102-81.2988L72.0947-68.7012L22.0459-48.2666C20.9473-47.8271 19.873-47.2168 19.1406-46.5576L42.3828-46.5576L45.8496-47.9736C46.6797-48.3154 47.0703-47.9736 47.0703-47.3877L47.0703-35.1318C47.0703-30.7373 49.1211-28.0273 53.125-26.7822ZM49.1943 7.2998C48.1934 10.8154 50.9766 12.9883 53.7109 12.9883C55.5908 12.9883 57.4463 11.9873 58.0811 9.69238L63.8672-11.4746C63.9893-11.9141 64.0381-12.3535 64.0381-12.6709L64.0381-18.9209L53.7109-22.0947L54.7852-12.9639ZM12.8906-35.9131L42.6758-35.9131L42.6758-42.1875L12.8906-42.1875C11.1572-42.1875 9.76562-40.7715 9.76562-39.0381C9.76562-37.3047 11.1572-35.9131 12.8906-35.9131ZM103.564-35.9131C105.298-35.9131 106.689-37.3047 106.689-39.0381C106.689-40.7715 105.298-42.1875 103.564-42.1875L68.9209-42.1875L68.9209-38.4766L72.9004-35.9131Z"/>
  </g>
  <g id="Semibold-S" transform="matrix(1 0 0 1 1985.69 696)">
   <path d="M50.1394-64.4772C55.0109-64.4772 59.0059-68.4722 59.0059-73.4104C59.0059-78.3152 55.0109-82.2769 50.1394-82.2769C45.1679-82.2769 41.2062-78.3152 41.2062-73.4104C41.2062-68.4722 45.1679-64.4772 50.1394-64.4772ZM52.574-27.0399L74.3046-20.3395L95.0431-10.9534C100.767-8.35898 104.171-16.4641 98.7072-18.9453L63.1761-35.0186L63.1761-53.9771C63.1761-55.2602 63.5356-55.5176 64.5189-55.9104L75.3032-60.285C76.5905-60.8065 76.7813-61.0995 77.5581-62.005L88.8617-75.1796C90.4508-77.0283 90.1911-79.767 88.3424-81.3072C86.5603-82.9273 83.7395-82.6366 82.1992-80.8367L71.446-68.3102L21.7526-48.0267C20.574-47.5517 19.5709-46.9502 18.8918-46.3354L41.0143-46.3354L45.3164-48.0892C46.2887-48.4843 46.6971-48.1069 46.6971-47.4677L46.6971-35.1585C46.6971-30.8706 48.6768-28.2584 52.574-27.0399ZM48.7944 6.971C47.8379 10.3267 50.4789 12.4018 53.0889 12.4018C54.8888 12.4018 56.6731 11.4452 57.2724 9.25693L63.0141-11.7412C63.1272-12.1451 63.1761-12.5668 63.1761-12.8753L63.1761-19.4985L53.2311-22.5479L54.3408-13.1505ZM12.6062-36.4374L42.4803-36.4374L42.4803-42.152L12.6062-42.152C11.0239-42.152 9.76562-40.8604 9.76562-39.278C9.76562-37.6957 11.0239-36.4374 12.6062-36.4374ZM102.551-36.4374C104.134-36.4374 105.392-37.6957 105.392-39.278C105.392-40.8604 104.134-42.152 102.551-42.152L67.7034-42.152L67.7034-38.6365L70.2344-36.4374Z"/>
  </g>
  <g id="Medium-S" transform="matrix(1 0 0 1 1689.47 696)">
   <path d="M49.7822-64.2549C54.5527-64.2549 58.4668-68.1689 58.4668-73.0195C58.4668-77.8301 54.5527-81.7041 49.7822-81.7041C44.8916-81.7041 41.0176-77.8301 41.0176-73.0195C41.0176-68.1689 44.8916-64.2549 49.7822-64.2549ZM52.1562-27.2354L73.7588-20.582L94.376-11.2432C99.9043-8.73633 103.188-16.5449 97.9121-18.9453L62.5225-34.9512L62.5225-53.8828C62.5225-55.2871 62.8955-55.5176 63.9395-55.9307L74.6631-60.2715C75.9639-60.7998 76.1143-61.0928 76.8506-61.9443L88.0801-75.0381C89.6152-76.8262 89.3623-79.457 87.5742-80.9434C85.8662-82.4961 83.1465-82.2256 81.6602-80.4863L70.9541-68.0137L21.5303-47.8447C20.291-47.3428 19.3418-46.748 18.7031-46.167L39.9766-46.167L44.9121-48.1768C45.9922-48.6123 46.4141-48.208 46.4141-47.5283L46.4141-35.1787C46.4141-30.9717 48.3398-28.4336 52.1562-27.2354ZM48.4912 6.72168C47.5684 9.95605 50.1016 11.957 52.6172 11.957C54.3564 11.957 56.0869 11.0342 56.6592 8.92676L62.3672-11.9434C62.4736-12.3203 62.5225-12.7285 62.5225-13.0303L62.5225-19.9365L52.8672-22.8916L54.0039-13.292ZM12.3906-36.835L42.332-36.835L42.332-42.125L12.3906-42.125C10.9229-42.125 9.76562-40.9277 9.76562-39.46C9.76562-37.9922 10.9229-36.835 12.3906-36.835ZM101.783-36.835C103.251-36.835 104.408-37.9922 104.408-39.46C104.408-40.9277 103.251-42.125 101.783-42.125L66.7803-42.125L66.7803-38.7578L68.2129-36.835Z"/>
  </g>
  <g id="Regular-S" transform="matrix(1 0 0 1 1393.4 696)">
   <path d="M49.3164-63.9648C53.9551-63.9648 57.7637-67.7734 57.7637-72.5098C57.7637-77.1973 53.9551-80.957 49.3164-80.957C44.5312-80.957 40.7715-77.1973 40.7715-72.5098C40.7715-67.7734 44.5312-63.9648 49.3164-63.9648ZM51.6113-27.4902L73.0469-20.8984L93.5059-11.6211C98.7793-9.22852 101.904-16.6504 96.875-18.9453L61.6699-34.8633L61.6699-53.7598C61.6699-55.3223 62.0605-55.5176 63.1836-55.957L73.8281-60.2539C75.1465-60.791 75.2441-61.084 75.9277-61.8652L87.0605-74.8535C88.5254-76.5625 88.2812-79.0527 86.5723-80.4688C84.9609-81.9336 82.373-81.6895 80.957-80.0293L70.3125-67.627L21.2402-47.6074C19.9219-47.0703 19.043-46.4844 18.457-45.9473L38.623-45.9473L44.3848-48.291C45.6055-48.7793 46.0449-48.3398 46.0449-47.6074L46.0449-35.2051C46.0449-31.1035 47.9004-28.6621 51.6113-27.4902ZM48.0957 6.39648C47.2168 9.47266 49.6094 11.377 52.002 11.377C53.6621 11.377 55.3223 10.498 55.8594 8.49609L61.5234-12.207C61.6211-12.5488 61.6699-12.9395 61.6699-13.2324L61.6699-20.5078L52.3926-23.3398L53.5645-13.4766ZM12.1094-37.3535L42.1387-37.3535L42.1387-42.0898L12.1094-42.0898C10.791-42.0898 9.76562-41.0156 9.76562-39.6973C9.76562-38.3789 10.791-37.3535 12.1094-37.3535ZM100.781-37.3535C102.1-37.3535 103.125-38.3789 103.125-39.6973C103.125-41.0156 102.1-42.0898 100.781-42.0898L65.5762-42.0898L65.5762-38.916L65.5762-37.3535Z"/>
  </g>
  <g id="Light-S" transform="matrix(1 0 0 1 1098.46 696)">
   <path d="M47.3032-63.1777C51.8057-63.1777 55.478-66.8501 55.478-71.4048C55.478-75.9409 51.8057-79.5796 47.3032-79.5796C42.6997-79.5796 39.0762-75.9409 39.0762-71.4048C39.0762-66.8501 42.6997-63.1777 47.3032-63.1777ZM49.9917-27.7324L70.7764-21.3374L90.6148-12.3325C95.7368-10.0156 98.7407-17.2256 93.8931-19.4448L59.7324-34.8784L59.7324-53.1997C59.7324-54.7168 60.1079-54.9121 61.2007-55.3364L71.5274-59.5122C72.8154-60.0342 72.898-60.312 73.5664-61.0781L84.3662-73.6577C85.7857-75.3213 85.5415-77.7359 83.8931-79.1065C82.312-80.5259 79.815-80.2969 78.4444-78.6821L68.1177-66.6582L20.5288-47.229C19.1045-46.6465 18.2407-46.0303 17.6699-45.4478L36.958-45.4478L42.9771-47.8975C44.1524-48.3706 44.5767-47.9463 44.5767-47.229L44.5767-35.2202C44.5767-31.2397 46.3867-28.8589 49.9917-27.7324ZM46.5669 5.14015C45.7183 8.1255 48.0503 9.96925 50.3672 9.96925C51.9668 9.96925 53.5664 9.10548 54.0884 7.16407L59.6011-12.9033C59.6987-13.2451 59.7324-13.6206 59.7324-13.9136L59.7324-21.0981L50.7124-23.8696L51.8843-14.1426ZM11.6704-37.8833L40.8218-37.8833L40.8218-41.7266L11.6704-41.7266C10.6094-41.7266 9.76562-40.8643 9.76562-39.7881C9.76562-38.7119 10.6094-37.8833 11.6704-37.8833ZM97.6782-37.8833C98.7393-37.8833 99.583-38.7119 99.583-39.7881C99.583-40.8643 98.7393-41.7266 97.6782-41.7266L63.5025-41.7266L63.5025-39.1128L63.5025-37.8833Z"/>
  </g>
  <g id="Thin-S" transform="matrix(1 0 0 1 804.09 696)">
   <path d="M44.6407-62.1367C48.9629-62.1367 52.4551-65.6289 52.4551-69.9434C52.4551-74.2793 48.9629-77.7578 44.6407-77.7578C40.2774-77.7578 36.834-74.2793 36.834-69.9434C36.834-65.6289 40.2774-62.1367 44.6407-62.1367ZM47.8496-28.0527L67.7735-21.918L86.7911-13.2734C91.7129-11.0566 94.5567-17.9863 89.9493-20.1055L57.17-34.8984L57.17-52.459C57.17-53.916 57.5254-54.1113 58.5782-54.5156L68.4844-58.5313C69.7325-59.0332 69.795-59.291 70.4434-60.0371L80.8028-72.0762C82.1622-73.6797 81.918-75.9942 80.3497-77.3047C78.8086-78.6641 76.4317-78.4551 75.1211-76.9004L65.2149-65.377L19.5879-46.7285C18.0235-46.0859 17.1797-45.4297 16.6289-44.7871L34.7559-44.7871L41.1153-47.377C42.2305-47.8301 42.6348-47.4258 42.6348-46.7285L42.6348-35.2402C42.6348-31.4199 44.3848-29.1191 47.8496-28.0527ZM44.5449 3.47854C43.7364 6.34377 45.9883 8.10745 48.2051 8.10745C49.7246 8.10745 51.2442 7.2637 51.7461 5.40237L57.0586-13.8242C57.1563-14.166 57.17-14.5215 57.17-14.8144L57.17-21.8789L48.4903-24.5703L49.6621-15.0234ZM11.0899-38.584L39.0801-38.584L39.0801-41.2461L11.0899-41.2461C10.3691-41.2461 9.76562-40.6641 9.76562-39.9082C9.76562-39.1523 10.3691-38.584 11.0899-38.584ZM93.5743-38.584C94.295-38.584 94.8985-39.1523 94.8985-39.9082C94.8985-40.6641 94.295-41.2461 93.5743-41.2461L60.7598-41.2461L60.7598-39.373L60.7598-38.584Z"/>
  </g>
  <g id="Ultralight-S" transform="matrix(1 0 0 1 508.579 696)">
   <path d="M43.2769-61.6035C47.5069-61.6035 50.9068-65.0034 50.9068-69.1949C50.9068-73.4283 47.5069-76.8247 43.2769-76.8247C39.0367-76.8247 35.6856-73.4283 35.6856-69.1949C35.6856-65.0034 39.0367-61.6035 43.2769-61.6035ZM46.7525-28.2168L66.2354-22.2153L84.8326-13.7554C89.6519-11.5898 92.4136-18.376 87.9293-20.4438L55.8575-34.9087L55.8575-52.0796C55.8575-53.5059 56.2027-53.7012 57.2349-54.0952L66.9258-58.0288C68.1534-58.5205 68.2056-58.7681 68.8438-59.5039L78.9776-71.2661C80.3062-72.8389 80.0621-75.1021 78.5347-76.3819C77.0142-77.7105 74.6988-77.5118 73.419-75.9878L63.7281-64.7207L19.106-46.4722C17.4697-45.7988 16.6362-45.1221 16.0957-44.4487L33.628-44.4487L40.1617-47.1104C41.2461-47.5532 41.6402-47.1592 41.6402-46.4722L41.6402-35.2505C41.6402-31.5122 43.3594-29.2524 46.7525-28.2168ZM43.5093 2.62747C42.7212 5.43118 44.9322 7.15384 47.0977 7.15384C48.5762 7.15384 50.0547 6.32035 50.5464 4.50003L55.7564-14.2959C55.854-14.6377 55.8575-14.9829 55.8575-15.2759L55.8575-22.2788L47.3521-24.9292L48.524-15.4746ZM10.7925-38.9429L38.188-38.9429L38.188-41L10.7925-41C10.2461-41 9.76562-40.5615 9.76562-39.9697C9.76562-39.3779 10.2461-38.9429 10.7925-38.9429ZM91.4722-38.9429C92.0186-38.9429 92.4991-39.3779 92.4991-39.9697C92.4991-40.5615 92.0186-41 91.4722-41L59.355-41L59.355-39.5063L59.355-38.9429Z"/>
  </g>
 </g>
</svg>
