<?xml version="1.0" encoding="UTF-8"?>
<!--Generator: Apple Native CoreSVG 175.5-->
<!DOCTYPE svg
PUBLIC "-//W3C//DTD SVG 1.1//EN"
       "http://www.w3.org/Graphics/SVG/1.1/DTD/svg11.dtd">
<svg version="1.1" xmlns="http://www.w3.org/2000/svg" xmlns:xlink="http://www.w3.org/1999/xlink" width="3300" height="2200">
 <!--glyph: "uni10151E.medium", point size: 100.0, font version: "18.0d12e2", template writer version: "101"-->
 <g id="Notes">
  <rect height="2200" id="artboard" style="fill:white;opacity:1" width="3300" x="0" y="0"/>
  <line style="fill:none;stroke:black;opacity:1;stroke-width:0.5;" x1="263" x2="3036" y1="292" y2="292"/>
  <text style="stroke:none;fill:black;font-family:sans-serif;font-size:13;font-weight:bold;" transform="matrix(1 0 0 1 263 322)">Weight/Scale Variations</text>
  <text style="stroke:none;fill:black;font-family:sans-serif;font-size:13;text-anchor:middle;" transform="matrix(1 0 0 1 559.711 322)">Ultralight</text>
  <text style="stroke:none;fill:black;font-family:sans-serif;font-size:13;text-anchor:middle;" transform="matrix(1 0 0 1 856.422 322)">Thin</text>
  <text style="stroke:none;fill:black;font-family:sans-serif;font-size:13;text-anchor:middle;" transform="matrix(1 0 0 1 1153.13 322)">Light</text>
  <text style="stroke:none;fill:black;font-family:sans-serif;font-size:13;text-anchor:middle;" transform="matrix(1 0 0 1 1449.84 322)">Regular</text>
  <text style="stroke:none;fill:black;font-family:sans-serif;font-size:13;text-anchor:middle;" transform="matrix(1 0 0 1 1746.56 322)">Medium</text>
  <text style="stroke:none;fill:black;font-family:sans-serif;font-size:13;text-anchor:middle;" transform="matrix(1 0 0 1 2043.27 322)">Semibold</text>
  <text style="stroke:none;fill:black;font-family:sans-serif;font-size:13;text-anchor:middle;" transform="matrix(1 0 0 1 2339.98 322)">Bold</text>
  <text style="stroke:none;fill:black;font-family:sans-serif;font-size:13;text-anchor:middle;" transform="matrix(1 0 0 1 2636.69 322)">Heavy</text>
  <text style="stroke:none;fill:black;font-family:sans-serif;font-size:13;text-anchor:middle;" transform="matrix(1 0 0 1 2933.4 322)">Black</text>
  <line style="fill:none;stroke:black;opacity:1;stroke-width:0.5;" x1="263" x2="3036" y1="1903" y2="1903"/>
  <g transform="matrix(1 0 0 1 263 1933)">
   <path d="M9.24805 0.830078C13.5547 0.830078 17.1387-2.74414 17.1387-7.05078C17.1387-11.3574 13.5449-14.9316 9.23828-14.9316C4.94141-14.9316 1.36719-11.3574 1.36719-7.05078C1.36719-2.74414 4.95117 0.830078 9.24805 0.830078ZM9.24805-0.654297C5.70312-0.654297 2.87109-3.49609 2.87109-7.05078C2.87109-10.6055 5.69336-13.4473 9.23828-13.4473C12.793-13.4473 15.6445-10.6055 15.6445-7.05078C15.6445-3.49609 12.8027-0.654297 9.24805-0.654297ZM5.6543-7.05078C5.6543-6.62109 5.95703-6.32812 6.40625-6.32812L8.50586-6.32812L8.50586-4.20898C8.50586-3.76953 8.79883-3.4668 9.22852-3.4668C9.67773-3.4668 9.9707-3.76953 9.9707-4.20898L9.9707-6.32812L12.0898-6.32812C12.5293-6.32812 12.832-6.62109 12.832-7.05078C12.832-7.49023 12.5293-7.79297 12.0898-7.79297L9.9707-7.79297L9.9707-9.90234C9.9707-10.3516 9.67773-10.6543 9.22852-10.6543C8.79883-10.6543 8.50586-10.3516 8.50586-9.90234L8.50586-7.79297L6.40625-7.79297C5.95703-7.79297 5.6543-7.49023 5.6543-7.05078Z"/>
  </g>
  <g transform="matrix(1 0 0 1 281.867 1933)">
   <path d="M11.709 2.91016C17.1582 2.91016 21.6699-1.61133 21.6699-7.05078C21.6699-12.5 17.1484-17.0117 11.6992-17.0117C6.25977-17.0117 1.74805-12.5 1.74805-7.05078C1.74805-1.61133 6.26953 2.91016 11.709 2.91016ZM11.709 1.25C7.09961 1.25 3.41797-2.44141 3.41797-7.05078C3.41797-11.6602 7.08984-15.3516 11.6992-15.3516C16.3086-15.3516 20.0098-11.6602 20.0098-7.05078C20.0098-2.44141 16.3184 1.25 11.709 1.25ZM7.17773-7.05078C7.17773-6.57227 7.50977-6.25 8.00781-6.25L10.8789-6.25L10.8789-3.36914C10.8789-2.88086 11.2109-2.53906 11.6895-2.53906C12.1777-2.53906 12.5195-2.87109 12.5195-3.36914L12.5195-6.25L15.4004-6.25C15.8887-6.25 16.2305-6.57227 16.2305-7.05078C16.2305-7.53906 15.8887-7.88086 15.4004-7.88086L12.5195-7.88086L12.5195-10.752C12.5195-11.25 12.1777-11.5918 11.6895-11.5918C11.2109-11.5918 10.8789-11.25 10.8789-10.752L10.8789-7.88086L8.00781-7.88086C7.50977-7.88086 7.17773-7.53906 7.17773-7.05078Z"/>
  </g>
  <g transform="matrix(1 0 0 1 305.646 1933)">
   <path d="M14.9707 5.66406C21.9336 5.66406 27.6953-0.0976562 27.6953-7.05078C27.6953-14.0137 21.9238-19.7754 14.9609-19.7754C8.00781-19.7754 2.25586-14.0137 2.25586-7.05078C2.25586-0.0976562 8.01758 5.66406 14.9707 5.66406ZM14.9707 3.84766C8.93555 3.84766 4.08203-1.01562 4.08203-7.05078C4.08203-13.0957 8.92578-17.9492 14.9609-17.9492C21.0059-17.9492 25.8691-13.0957 25.8691-7.05078C25.8691-1.01562 21.0156 3.84766 14.9707 3.84766ZM9.19922-7.05078C9.19922-6.5332 9.57031-6.17188 10.1172-6.17188L14.0625-6.17188L14.0625-2.2168C14.0625-1.67969 14.4336-1.29883 14.9512-1.29883C15.4883-1.29883 15.8594-1.66992 15.8594-2.2168L15.8594-6.17188L19.8145-6.17188C20.3516-6.17188 20.7324-6.5332 20.7324-7.05078C20.7324-7.59766 20.3613-7.96875 19.8145-7.96875L15.8594-7.96875L15.8594-11.9141C15.8594-12.4609 15.4883-12.8418 14.9512-12.8418C14.4336-12.8418 14.0625-12.4609 14.0625-11.9141L14.0625-7.96875L10.1172-7.96875C9.57031-7.96875 9.19922-7.59766 9.19922-7.05078Z"/>
  </g>
  <text style="stroke:none;fill:black;font-family:sans-serif;font-size:13;font-weight:bold;" transform="matrix(1 0 0 1 263 1953)">Design Variations</text>
  <text style="stroke:none;fill:black;font-family:sans-serif;font-size:13;" transform="matrix(1 0 0 1 263 1971)">Symbols are supported in up to nine weights and three scales.</text>
  <text style="stroke:none;fill:black;font-family:sans-serif;font-size:13;" transform="matrix(1 0 0 1 263 1989)">For optimal layout with text and other symbols, vertically align</text>
  <text style="stroke:none;fill:black;font-family:sans-serif;font-size:13;" transform="matrix(1 0 0 1 263 2007)">symbols with the adjacent text.</text>
  <line style="fill:none;stroke:#00AEEF;stroke-width:0.5;opacity:1.0;" x1="776" x2="776" y1="1919" y2="1933"/>
  <g transform="matrix(1 0 0 1 776 1933)">
   <path d="M3.31055 0.15625C3.82812 0.15625 4.08203-0.0390625 4.26758-0.585938L5.52734-4.0332L11.2891-4.0332L12.5488-0.585938C12.7344-0.0390625 12.9883 0.15625 13.4961 0.15625C14.0137 0.15625 14.3457-0.15625 14.3457-0.644531C14.3457-0.810547 14.3164-0.966797 14.2383-1.17188L9.6582-13.3691C9.43359-13.9648 9.0332-14.2676 8.4082-14.2676C7.80273-14.2676 7.39258-13.9746 7.17773-13.3789L2.59766-1.16211C2.51953-0.957031 2.49023-0.800781 2.49023-0.634766C2.49023-0.146484 2.80273 0.15625 3.31055 0.15625ZM6.00586-5.51758L8.37891-12.0898L8.42773-12.0898L10.8008-5.51758Z"/>
  </g>
  <line style="fill:none;stroke:#00AEEF;stroke-width:0.5;opacity:1.0;" x1="793.197" x2="793.197" y1="1919" y2="1933"/>
  <text style="stroke:none;fill:black;font-family:sans-serif;font-size:13;font-weight:bold;" transform="matrix(1 0 0 1 776 1953)">Margins</text>
  <text style="stroke:none;fill:black;font-family:sans-serif;font-size:13;" transform="matrix(1 0 0 1 776 1971)">Leading and trailing margins on the left and right side of each symbol</text>
  <text style="stroke:none;fill:black;font-family:sans-serif;font-size:13;" transform="matrix(1 0 0 1 776 1989)">can be adjusted by modifying the x-location of the margin guidelines.</text>
  <text style="stroke:none;fill:black;font-family:sans-serif;font-size:13;" transform="matrix(1 0 0 1 776 2007)">Modifications are automatically applied proportionally to all</text>
  <text style="stroke:none;fill:black;font-family:sans-serif;font-size:13;" transform="matrix(1 0 0 1 776 2025)">scales and weights.</text>
  <g transform="matrix(1 0 0 1 1289 1933)">
   <path d="M2.8418 1.86523L4.54102 3.57422C5.40039 4.44336 6.38672 4.38477 7.31445 3.35938L18.0078-8.42773L17.041-9.4043L6.42578 2.27539C6.07422 2.67578 5.74219 2.77344 5.27344 2.30469L4.10156 1.14258C3.63281 0.683594 3.74023 0.341797 4.14062-0.0195312L15.6152-10.8203L14.6387-11.7871L3.04688-0.898438C2.06055 0.0195312 1.98242 0.996094 2.8418 1.86523ZM9.25781-16.3281C8.83789-15.918 8.80859-15.3418 9.04297-14.9512C9.27734-14.5898 9.73633-14.3555 10.3809-14.5215C11.8457-14.8633 13.3691-14.9219 14.7949-13.9844L14.209-12.5293C13.8672-11.6992 14.043-11.1133 14.5801-10.5664L16.875-8.25195C17.3633-7.76367 17.7734-7.74414 18.3398-7.8418L19.4043-8.03711L20.0684-7.36328L20.0293-6.80664C19.9902-6.30859 20.1172-5.92773 20.6055-5.44922L21.3672-4.70703C21.8457-4.22852 22.4609-4.19922 22.9297-4.66797L25.8398-7.58789C26.3086-8.05664 26.2891-8.65234 25.8105-9.13086L25.0391-9.89258C24.5605-10.3711 24.1895-10.5273 23.7109-10.4883L23.1348-10.4395L22.4902-11.0742L22.7344-12.1973C22.8613-12.7637 22.7051-13.2031 22.1191-13.7891L19.9219-15.9766C16.582-19.2969 12.1484-19.2188 9.25781-16.3281ZM10.752-15.957C13.1836-17.7344 16.4746-17.4316 18.7012-15.2051L21.1328-12.793C21.3672-12.5586 21.4062-12.373 21.3379-12.0312L21.0156-10.5469L22.5195-9.0625L23.5059-9.12109C23.7598-9.13086 23.8379-9.11133 24.0332-8.91602L24.6094-8.33984L22.168-5.89844L21.5918-6.47461C21.3965-6.66992 21.3672-6.74805 21.377-7.01172L21.4453-7.98828L19.9512-9.47266L18.4277-9.21875C18.1055-9.15039 17.959-9.17969 17.7148-9.41406L15.7129-11.416C15.459-11.6504 15.4297-11.8164 15.5859-12.1875L16.4648-14.2773C14.9023-15.7324 12.8711-16.3574 10.8398-15.7617C10.6836-15.7227 10.625-15.8496 10.752-15.957Z"/>
  </g>
  <text style="stroke:none;fill:black;font-family:sans-serif;font-size:13;font-weight:bold;" transform="matrix(1 0 0 1 1289 1953)">Exporting</text>
  <text style="stroke:none;fill:black;font-family:sans-serif;font-size:13;" transform="matrix(1 0 0 1 1289 1971)">Symbols should be outlined when exporting to ensure the</text>
  <text style="stroke:none;fill:black;font-family:sans-serif;font-size:13;" transform="matrix(1 0 0 1 1289 1989)">design is preserved when submitting to Xcode.</text>
  <text id="template-version" style="stroke:none;fill:black;font-family:sans-serif;font-size:13;text-anchor:end;" transform="matrix(1 0 0 1 3036 1933)">Template v.4.0</text>
  <text style="stroke:none;fill:black;font-family:sans-serif;font-size:13;text-anchor:end;" transform="matrix(1 0 0 1 3036 1951)">Requires Xcode 14 or greater</text>
  <text id="descriptive-name" style="stroke:none;fill:black;font-family:sans-serif;font-size:13;text-anchor:end;" transform="matrix(1 0 0 1 3036 1969)">Generated from figure.climbing</text>
  <text style="stroke:none;fill:black;font-family:sans-serif;font-size:13;text-anchor:end;" transform="matrix(1 0 0 1 3036 1987)">Typeset at 100 points</text>
  <text style="stroke:none;fill:black;font-family:sans-serif;font-size:13;" transform="matrix(1 0 0 1 263 726)">Small</text>
  <text style="stroke:none;fill:black;font-family:sans-serif;font-size:13;" transform="matrix(1 0 0 1 263 1156)">Medium</text>
  <text style="stroke:none;fill:black;font-family:sans-serif;font-size:13;" transform="matrix(1 0 0 1 263 1586)">Large</text>
 </g>
 <g id="Guides">
  <g id="H-reference" style="fill:#27AAE1;stroke:none;" transform="matrix(1 0 0 1 339 696)">
   <path d="M0.993654 0L3.63775 0L29.3281-67.1323L30.0303-67.1323L30.0303-70.459L28.1226-70.459ZM11.6885-24.4799L46.9815-24.4799L46.2315-26.7285L12.4385-26.7285ZM55.1196 0L57.7637 0L30.6382-70.459L29.4326-70.459L29.4326-67.1323Z"/>
  </g>
  <line id="Baseline-S" style="fill:none;stroke:#27AAE1;opacity:1;stroke-width:0.5;" x1="263" x2="3036" y1="696" y2="696"/>
  <line id="Capline-S" style="fill:none;stroke:#27AAE1;opacity:1;stroke-width:0.5;" x1="263" x2="3036" y1="625.541" y2="625.541"/>
  <g id="H-reference" style="fill:#27AAE1;stroke:none;" transform="matrix(1 0 0 1 339 1126)">
   <path d="M0.993654 0L3.63775 0L29.3281-67.1323L30.0303-67.1323L30.0303-70.459L28.1226-70.459ZM11.6885-24.4799L46.9815-24.4799L46.2315-26.7285L12.4385-26.7285ZM55.1196 0L57.7637 0L30.6382-70.459L29.4326-70.459L29.4326-67.1323Z"/>
  </g>
  <line id="Baseline-M" style="fill:none;stroke:#27AAE1;opacity:1;stroke-width:0.5;" x1="263" x2="3036" y1="1126" y2="1126"/>
  <line id="Capline-M" style="fill:none;stroke:#27AAE1;opacity:1;stroke-width:0.5;" x1="263" x2="3036" y1="1055.54" y2="1055.54"/>
  <g id="H-reference" style="fill:#27AAE1;stroke:none;" transform="matrix(1 0 0 1 339 1556)">
   <path d="M0.993654 0L3.63775 0L29.3281-67.1323L30.0303-67.1323L30.0303-70.459L28.1226-70.459ZM11.6885-24.4799L46.9815-24.4799L46.2315-26.7285L12.4385-26.7285ZM55.1196 0L57.7637 0L30.6382-70.459L29.4326-70.459L29.4326-67.1323Z"/>
  </g>
  <line id="Baseline-L" style="fill:none;stroke:#27AAE1;opacity:1;stroke-width:0.5;" x1="263" x2="3036" y1="1556" y2="1556"/>
  <line id="Capline-L" style="fill:none;stroke:#27AAE1;opacity:1;stroke-width:0.5;" x1="263" x2="3036" y1="1485.54" y2="1485.54"/>
  <line id="left-margin-Regular-M" style="fill:none;stroke:#00AEEF;stroke-width:0.5;opacity:1.0;" x1="1386.27" x2="1386.27" y1="1030.79" y2="1150.12"/>
  <line id="right-margin-Regular-M" style="fill:none;stroke:#00AEEF;stroke-width:0.5;opacity:1.0;" x1="1513.41" x2="1513.41" y1="1030.79" y2="1150.12"/>
 </g>
 <g id="Symbols">
  <g id="Black-L" transform="matrix(1 0 0 1 2845.96 1556)">
   <path d="M143.337-65.8891C151.863-65.8891 158.805-72.8508 158.805-81.3976C158.805-89.9237 151.863-96.8657 143.337-96.8657C134.792-96.8657 127.829-89.9237 127.829-81.3976C127.829-72.8508 134.792-65.8891 143.337-65.8891ZM24.0914-45.3304L56.4555-45.3304L74.0546-29.4242C74.9112-28.626 74.4531-27.3697 73.2564-27.3697L53.3735-27.3697C51.2122-27.3697 48.8172-26.8311 47.1605-25.1148L22.712-0.505448C19.6165 2.66928 19.4777 7.48117 22.712 10.7155C25.7867 13.811 30.779 13.8098 33.8745 10.7155L55.5272-10.9163L81.837-6.54322C90.7519-5.06166 99.8485-7.94316 106.397-14.4919L121.033-29.13C121.771-29.8679 122.66-29.4373 122.66-28.5686L122.66-19.2886L104.682-1.30845C101.608 1.78706 101.687 6.75859 104.682 9.8541C106.258 11.4305 108.295 12.1906 110.412 12.1906C112.449 12.1906 114.427 11.4305 116.003 9.8541L136.298-10.4417C137.737-11.8805 138.635-13.9977 138.635-16.0334L138.635-46.2573C138.635-50.9224 137.153-54.7821 134.334-57.5636L96.5271-95.1891L96.5271-72.6471L109.601-59.6527C110.397-58.8565 110.374-57.8642 109.659-57.1483L92.5252-40.0144L64.084-59.9454C62.7621-60.8664 61.4478-61.2441 59.3097-61.2441L24.0914-61.2441C19.6388-61.2441 16.084-57.7101 16.084-53.3379C16.084-48.9657 19.6388-45.3304 24.0914-45.3304ZM96.7738 23.4759C107.637 23.4759 116.099 14.8421 116.025 4.25504L104.635 4.25504C104.688 8.94156 101.539 12.0649 96.7738 12.0649C92.0078 12.0649 88.9714 9.60021 88.9714 4.28323L88.9714-122.118C88.9714-125.322 86.4584-127.835 83.2757-127.835C80.0942-127.835 77.5604-125.322 77.5604-122.118L77.5604 4.28323C77.5604 16.0304 86.0609 23.4759 96.7738 23.4759ZM110.332 57.2956C113.476 57.2956 116.026 54.745 116.026 51.5791L116.026-28.488L104.636-28.488L104.636 51.5791C104.636 54.745 107.186 57.2956 110.332 57.2956Z"/>
  </g>
  <g id="Heavy-L" transform="matrix(1 0 0 1 2550.62 1556)">
   <path d="M141.03-65.368C149.319-65.368 156.047-72.1201 156.047-80.4391C156.047-88.728 149.319-95.4556 141.03-95.4556C132.717-95.4556 125.959-88.728 125.959-80.4391C125.959-72.1201 132.717-65.368 141.03-65.368ZM23.7346-45.59L55.7837-45.59L73.7802-29.3283C74.601-28.5521 74.1655-27.3405 73.0041-27.3405L52.646-27.3405C50.5487-27.3405 48.2728-26.8246 46.6938-25.1953L22.5526-0.893287C19.5944 2.13972 19.4694 6.72719 22.5526 9.81043C25.4806 12.7686 30.2535 12.763 33.2117 9.81043L54.6806-11.6283L80.7801-7.30482C89.5037-5.85967 98.4183-8.66395 104.812-15.0578L119.378-29.6346C120.221-30.4783 121.304-29.9832 121.304-28.9303L121.304-19.5197L103.482-1.69187C100.56 1.26633 100.635 6.00902 103.482 8.96722C104.981 10.4658 106.926 11.1984 108.952 11.1984C110.897 11.1984 112.798 10.4658 114.291 8.96722L134.32-11.0616C135.699-12.4408 136.551-14.4665 136.551-16.4063L136.551-46.2412C136.551-50.7878 135.106-54.5245 132.392-57.2238L94.4682-94.9567L94.4682-73.4443L108.384-59.6029C109.273-58.7146 109.231-57.6622 108.429-56.8543L91.3189-39.7442L63.0736-59.5322C61.7837-60.4257 60.5566-60.7808 58.5006-60.7808L23.7346-60.7808C19.4833-60.7808 16.084-57.4116 16.084-53.2407C16.084-49.0698 19.4833-45.59 23.7346-45.59ZM95.4903 22.1091C105.945 22.1091 114.067 13.8411 113.991 3.60157L103.735 3.60157C103.781 8.47771 100.412 11.8227 95.4903 11.8227C90.5919 11.8227 87.2902 9.15228 87.2902 3.65277L87.2902-121.575C87.2902-124.459 85.0139-126.736 82.1593-126.736C79.3104-126.736 77.0038-124.459 77.0038-121.575L77.0038 3.65277C77.0038 14.9632 85.1457 22.1091 95.4903 22.1091ZM108.872 56.1964C111.706 56.1964 113.997 53.9056 113.997 51.0353L113.997-28.215L103.741-28.215L103.741 51.0353C103.741 53.9056 106.031 56.1964 108.872 56.1964Z"/>
  </g>
  <g id="Bold-L" transform="matrix(1 0 0 1 2255.65 1556)">
   <path d="M138.112-64.7449C146.109-64.7449 152.575-71.2358 152.575-79.2706C152.575-87.2675 146.109-93.7336 138.112-93.7336C130.091-93.7336 123.587-87.2675 123.587-79.2706C123.587-71.2358 130.091-64.7449 138.112-64.7449ZM23.3114-45.8457L54.909-45.8457L73.3154-29.2129C74.0826-28.4748 73.6778-27.332 72.5773-27.332L51.7171-27.332C49.6967-27.332 47.5594-26.8467 46.0727-25.3176L22.3529-1.43688C19.5563 1.42688 19.4467 5.75259 22.3529 8.65879C25.1115 11.4554 29.6228 11.4421 32.4194 8.65879L53.6131-12.497L79.3918-8.24244C87.8772-6.84336 96.5615-9.54788 102.763-15.7496L117.199-30.2123C118.159-31.1718 119.45-30.6072 119.45-29.3537L119.45-19.8264L101.865-2.22785C99.1197 0.568726 99.1869 5.04204 101.865 7.83862C103.271 9.24489 105.109 9.94666 107.027 9.94666C108.864 9.94666 110.673 9.24489 112.066 7.83862L131.735-11.83C133.044-13.1399 133.843-15.0579 133.843-16.8822L133.843-46.1885C133.843-50.589 132.443-54.1721 129.853-56.7714L91.8277-94.5978L91.8277-74.3013L106.729-59.4669C107.718-58.4783 107.653-57.364 106.758-56.4558L89.7312-39.4285L61.7988-58.9951C60.5474-59.8577 59.4203-60.1822 57.4643-60.1822L23.3114-60.1822C19.2986-60.1822 16.084-57.0055 16.084-53.0731C16.084-49.1407 19.2986-45.8457 23.3114-45.8457ZM93.8029 20.3366C103.721 20.3366 111.39 12.5741 111.344 2.81703L102.509 2.81703C102.517 7.88656 98.8945 11.4634 93.8029 11.4634C88.743 11.4634 85.1259 8.54683 85.1259 2.82438L85.1259-120.645C85.1259-123.131 83.149-125.107 80.7017-125.107C78.2676-125.107 76.2527-123.131 76.2527-120.645L76.2527 2.82438C76.2527 13.5819 83.9267 20.3366 93.8029 20.3366ZM106.946 54.568C109.389 54.568 111.357 52.5999 111.357 50.1058L111.357-27.8694L102.522-27.8694L102.522 50.1058C102.522 52.5999 104.49 54.568 106.946 54.568Z"/>
  </g>
  <g id="Semibold-L" transform="matrix(1 0 0 1 1960.13 1556)">
   <path d="M136.101-64.3153C143.896-64.3153 150.182-70.6261 150.182-78.465C150.182-86.2605 143.896-92.5465 136.101-92.5465C128.28-92.5465 121.951-86.2605 121.951-78.465C121.951-70.6261 128.28-64.3153 136.101-64.3153ZM23.0197-46.0219L54.3061-46.0219L72.9949-29.1334C73.7253-28.4216 73.3416-27.3261 72.2831-27.3261L51.0767-27.3261C49.1093-27.3261 47.0676-26.8619 45.6446-25.4018L22.2152-1.81163C19.5301 0.935458 19.4311 5.08071 22.2152 7.86485C24.857 10.55 29.188 10.5315 31.8731 7.86485L52.8772-13.0958L78.4347-8.88883C86.7559-7.52151 95.2813-10.1573 101.351-16.2265L115.698-30.6106C116.737-31.6499 118.172-31.0374 118.172-29.6456L118.172-20.0379L100.75-2.59735C98.1268 0.0878018 98.1888 4.37541 100.75 7.06056C102.093 8.40319 103.856 9.08369 105.7 9.08369C107.463 9.08369 109.208 8.40319 110.532 7.06056L129.952-12.3597C131.214-13.6218 131.975-15.4655 131.975-17.2103L131.975-46.1521C131.975-50.452 130.608-53.9291 128.102-56.4596L90.0074-94.3503L90.0074-74.8921L105.588-59.3732C106.646-58.3154 106.566-57.1585 105.607-56.1811L88.6367-39.2109L60.92-58.6249C59.695-59.4662 58.637-59.7695 56.7499-59.7695L23.0197-59.7695C19.1713-59.7695 16.084-56.7255 16.084-52.9576C16.084-49.1897 19.1713-46.0219 23.0197-46.0219ZM92.6396 19.1146C102.187 19.1146 109.545 11.7006 109.519 2.27618L101.664 2.27618C101.646 7.47903 97.8483 11.2157 92.6396 11.2157C87.4684 11.2157 83.6338 8.12943 83.6338 2.25329L83.6338-120.004C83.6338-122.214 81.8634-123.985 79.6968-123.985C77.5487-123.985 75.7349-122.214 75.7349-120.004L75.7349 2.25329C75.7349 12.6297 83.0862 19.1146 92.6396 19.1146ZM105.619 53.4454C107.792 53.4454 109.538 51.6998 109.538 49.465L109.538-27.6312L101.682-27.6312L101.682 49.465C101.682 51.6998 103.428 53.4454 105.619 53.4454Z"/>
  </g>
  <g id="Medium-L" transform="matrix(1 0 0 1 1664.33 1556)">
   <path d="M134.575-63.9896C142.218-63.9896 148.367-70.1639 148.367-77.8542C148.367-85.4971 142.218-91.6464 134.575-91.6464C126.907-91.6464 120.711-85.4971 120.711-77.8542C120.711-70.1639 126.907-63.9896 134.575-63.9896ZM22.7985-46.1555L53.8489-46.1555L72.7519-29.0731C73.4543-28.3812 73.0866-27.3216 72.0601-27.3216L50.5912-27.3216C48.664-27.3216 46.6947-26.8735 45.3199-25.4657L22.1108-2.09579C19.5101 0.562838 19.4192 4.57126 22.1108 7.26286C24.664 9.86353 28.8583 9.84106 31.4589 7.26286L52.3192-13.5499L77.709-9.37895C85.9057-8.03572 94.3107-10.6193 100.28-16.5882L114.559-30.9126C115.659-32.0124 117.203-31.3636 117.203-29.8669L117.203-20.1982L99.9048-2.87752C97.374-0.276855 97.432 3.86994 99.9048 6.47061C101.199 7.76497 102.906 8.42935 104.694 8.42935C106.4 8.42935 108.097 7.76497 109.369 6.47061L128.601-12.7614C129.827-13.9872 130.56-15.7746 130.56-17.4591L130.56-46.1245C130.56-50.348 129.216-53.7449 126.775-56.2231L88.6272-94.1627L88.6272-75.34L104.723-59.3021C105.833-58.1918 105.741-57.0026 104.734-55.9728L87.8068-39.0459L60.2536-58.3441C59.0487-59.1694 58.0431-59.4566 56.2083-59.4566L22.7985-59.4566C19.0748-59.4566 16.084-56.5132 16.084-52.87C16.084-49.2267 19.0748-46.1555 22.7985-46.1555ZM91.7575 18.188C101.025 18.188 108.146 11.0383 108.136 1.86608L101.023 1.86608C100.986 7.17002 97.055 11.0278 91.7575 11.0278C86.502 11.0278 82.5025 7.81294 82.5025 1.82027L82.5025-119.519C82.5025-121.52 80.8886-123.134 78.9349-123.134C77.0036-123.134 75.3423-121.52 75.3423-119.519L75.3423 1.82027C75.3423 11.9076 82.449 18.188 91.7575 18.188ZM104.613 52.5942C106.581 52.5942 108.158 51.0173 108.158 48.9792L108.158-27.4506L101.045-27.4506L101.045 48.9792C101.045 51.0173 102.622 52.5942 104.613 52.5942Z"/>
  </g>
  <g id="Regular-L" transform="matrix(1 0 0 1 1368.8 1556)">
   <path d="M132.586-63.5648C140.03-63.5648 146.001-69.561 146.001-77.0575C146.001-84.5012 140.03-90.4723 132.586-90.4723C125.117-90.4723 119.093-84.5012 119.093-77.0575C119.093-69.561 125.117-63.5648 132.586-63.5648ZM22.5099-46.3298L53.2525-46.3298L72.435-28.9944C73.1009-28.3285 72.7541-27.3158 71.7691-27.3158L49.9578-27.3158C48.0831-27.3158 46.2083-26.8886 44.8965-25.5491L21.9746-2.46642C19.4842 0.0768122 19.4038 3.90676 21.9746 6.47765C24.4123 8.96812 28.4282 8.94046 30.9187 6.47765L51.5913-14.1422L76.7624-10.0182C84.7967-8.70642 93.0447-11.222 98.8826-17.0599L113.074-31.3066C114.253-32.4852 115.939-31.7891 115.939-30.1556L115.939-20.4073L98.8021-3.24296C96.3921-0.752494 96.4449 3.21064 98.8021 5.70111C100.034 6.93251 101.667 7.57587 103.381 7.57587C105.014 7.57587 106.648 6.93251 107.852 5.70111L126.838-13.2853C128.017-14.4639 128.713-16.1778 128.713-17.7837L128.713-46.0885C128.713-50.2125 127.401-53.5046 125.044-55.9147L86.8268-93.918L86.8268-75.9243L103.595-59.2093C104.773-58.0307 104.665-56.7993 103.595-55.7011L86.7242-38.8307L59.3844-57.9779C58.2058-58.7821 57.2684-59.0485 55.5017-59.0485L22.5099-59.0485C18.9489-59.0485 16.084-56.2364 16.084-52.7557C16.084-49.2751 18.9489-46.3298 22.5099-46.3298ZM90.607 16.9795C99.5081 16.9795 106.321 10.1744 106.331 1.33117L100.187 1.33117C100.124 6.76697 96.0202 10.7829 90.607 10.7829C85.2414 10.7829 81.0268 7.40013 81.0268 1.25545L81.0268-118.885C81.0268-120.614 79.6171-122.023 77.941-122.023C76.2926-122.023 74.8301-120.614 74.8301-118.885L74.8301 1.25545C74.8301 10.9659 81.6178 16.9795 90.607 16.9795ZM103.301 51.484C105.002 51.484 106.359 50.127 106.359 48.3454L106.359-27.215L100.215-27.215L100.215 48.3454C100.215 50.127 101.572 51.484 103.301 51.484Z"/>
  </g>
  <g id="Light-L" transform="matrix(1 0 0 1 1073.47 1556)">
   <path d="M130.181-63.2785C137.434-63.2785 143.252-69.0838 143.252-76.3704C143.252-83.6233 137.434-89.4417 130.181-89.4417C122.941-89.4417 117.089-83.6233 117.089-76.3704C117.089-69.0838 122.941-63.2785 130.181-63.2785ZM22.3382-46.0817L52.3746-46.0817L71.309-28.9371C71.8795-28.3667 71.5708-27.4875 70.7385-27.4875L49.1372-27.4875C47.3006-27.4875 45.464-27.0985 44.1903-25.7781L21.822-3.24891C19.3888-0.782025 19.3083 2.97158 21.822 5.48521C24.2215 7.91843 28.1229 7.87168 30.5561 5.48521L50.7325-14.6575L75.2928-10.629C83.1554-9.35532 91.2125-11.7755 96.9168-17.4798L110.746-31.402C111.905-32.5616 113.534-31.8845 113.534-30.2892L113.534-20.7509L96.8364-4.00637C94.4836-1.57316 94.5172 2.29455 96.8364 4.72776C98.0296 5.92099 99.6249 6.56435 101.301 6.56435C102.896 6.56435 104.491 5.92099 105.638 4.72776L124.185-13.8196C125.345-14.9792 126.022-16.655 126.022-18.2035L126.022-45.8404C126.022-49.869 124.748-53.0466 122.429-55.3994L84.4221-93.2118L84.4221-75.6762L101.495-58.6368C102.655-57.4772 102.528-56.284 101.495-55.2049L85.0257-38.7353L58.3538-57.4435C57.1943-58.2477 56.276-58.4759 54.5665-58.4759L22.3382-58.4759C18.8726-58.4759 16.084-55.721 16.084-52.3359C16.084-48.9507 18.8726-46.0817 22.3382-46.0817ZM88.8129 15.2427C97.1415 15.2427 103.439 9.12473 103.678 0.949463L98.6221 0.949463C98.3492 6.25166 94.188 10.153 88.8129 10.153C83.3519 10.153 79.0038 6.6558 79.0038 0.377532L79.0038-116.595C79.0038-118.018 77.8422-119.18 76.4524-119.18C75.1093-119.18 73.9141-118.018 73.9141-116.595L73.9141 0.377532C73.9141 9.62989 80.2246 15.2427 88.8129 15.2427ZM101.22 48.6403C102.597 48.6403 103.725 47.5123 103.725 46.0552L103.725-26.9287L98.6689-26.9287L98.6689 46.0552C98.6689 47.5123 99.7968 48.6403 101.22 48.6403Z"/>
  </g>
  <g id="Thin-L" transform="matrix(1 0 0 1 778.571 1556)">
   <path d="M127.001-62.8999C134.001-62.8999 139.617-68.4528 139.617-75.4617C139.617-82.4622 134.001-88.0786 127.001-88.0786C120.064-88.0786 114.439-82.4622 114.439-75.4617C114.439-68.4528 120.064-62.8999 127.001-62.8999ZM22.111-45.7535L51.2135-45.7535L69.8197-28.8614C70.264-28.4171 70.0059-27.7147 69.3754-27.7147L48.0518-27.7147C46.2657-27.7147 44.4795-27.3762 43.2564-26.081L21.62-4.28383C19.2625-1.91791 19.1821 1.73473 21.62 4.17264C23.9691 6.53013 27.719 6.45814 30.0765 4.17264L49.5966-15.339L73.3492-11.4367C80.9846-10.2135 88.7893-12.5075 94.3169-18.0351L107.666-31.5282C108.8-32.6625 110.354-32.0107 110.354-30.4659L110.354-21.2052L94.2365-5.01604C91.9594-2.65856 91.9678 1.08294 94.2365 3.44042C95.3792 4.58318 96.9241 5.22654 98.5493 5.22654C100.094 5.22654 101.639 4.58318 102.71 3.44042L120.677-14.5264C121.811-15.6607 122.463-17.286 122.463-18.7589L122.463-45.5123C122.463-49.4146 121.24-52.4408 118.971-54.7178L81.2416-92.2779L81.2416-75.3481L98.7186-57.8795C99.8529-56.7452 99.7005-55.6025 98.7186-54.5486L82.7791-38.6091L56.9908-56.7368C55.8564-57.541 54.9634-57.7187 53.3297-57.7187L22.111-57.7187C18.7716-57.7187 16.084-55.0395 16.084-51.7805C16.084-48.5216 18.7716-45.7535 22.111-45.7535ZM86.4402 12.9457C94.0115 12.9457 99.6274 7.73643 100.17 0.444626L96.5523 0.444626C96.0018 5.57013 91.7648 9.32007 86.4402 9.32007C80.853 9.32007 76.3281 5.67137 76.3281-0.783592L76.3281-113.566C76.3281-114.585 75.4947-115.419 74.4835-115.419C73.5443-115.419 72.7024-114.585 72.7024-113.566L72.7024-0.783592C72.7024 7.86297 78.3819 12.9457 86.4402 12.9457ZM98.4689 44.8792C99.4165 44.8792 100.242 44.0542 100.242 43.0262L100.242-26.5501L96.6243-26.5501L96.6243 43.0262C96.6243 44.0542 97.4493 44.8792 98.4689 44.8792Z"/>
  </g>
  <g id="Ultralight-L" transform="matrix(1 0 0 1 482.791 1556)">
   <path d="M125.372-62.7059C132.243-62.7059 137.756-68.1296 137.756-74.9963C137.756-81.8674 132.243-87.3805 125.372-87.3805C118.59-87.3805 113.081-81.8674 113.081-74.9963C113.081-68.1296 118.59-62.7059 125.372-62.7059ZM21.9946-45.5855L50.6187-45.5855L69.0569-28.8226C69.4365-28.443 69.2043-27.8311 68.6773-27.8311L47.4958-27.8311C45.7356-27.8311 43.9753-27.5184 42.778-26.2362L21.5166-4.81391C19.1979-2.4997 19.1175 1.10123 21.5166 3.50035C23.8398 5.81905 27.5122 5.73413 29.8309 3.50035L49.0148-15.6881L72.3537-11.8504C79.8727-10.6531 87.5481-12.8824 92.9852-18.3195L106.089-31.5928C107.21-32.7142 108.725-32.0754 108.725-30.5564L108.725-21.4379L92.9048-5.53319C90.6665-3.21449 90.662 0.462359 92.9048 2.78106C94.0217 3.89795 95.5407 4.54131 97.1401 4.54131C98.6591 4.54131 100.178 3.89795 101.21 2.78106L118.88-14.8884C120.001-16.0098 120.64-17.6092 120.64-19.0433L120.64-45.3442C120.64-49.1819 119.442-52.1305 117.2-54.3688L79.6126-91.7995L79.6126-75.18L97.2964-57.4917C98.4178-56.3703 98.2525-55.2534 97.2964-54.2124L81.6285-38.5445L56.2926-56.3748C55.1712-57.179 54.2911-57.3308 52.6962-57.3308L21.9946-57.3308C18.7199-57.3308 16.084-54.6904 16.084-51.4961C16.084-48.3018 18.7199-45.5855 21.9946-45.5855ZM85.2249 11.7692C92.4083 11.7692 97.6752 7.02534 98.3725 0.186052L95.4922 0.186052C94.7994 5.22106 90.5236 8.89342 85.2249 8.89342C79.5731 8.89342 74.9577 5.16715 74.9577-1.37831L74.9577-112.014C74.9577-112.827 74.2923-113.492 73.4751-113.492C72.7427-113.492 72.0819-112.827 72.0819-112.014L72.0819-1.37831C72.0819 6.95796 77.4381 11.7692 85.2249 11.7692ZM97.0597 42.9528C97.7875 42.9528 98.4574 42.283 98.4574 41.4747L98.4574-26.3561L95.5771-26.3561L95.5771 41.4747C95.5771 42.283 96.2469 42.9528 97.0597 42.9528Z"/>
  </g>
  <g id="Black-M" transform="matrix(1 0 0 1 2864.65 1126)">
   <path d="M112.706-59.3918C119.49-59.3918 125.032-64.9396 125.032-71.7285C125.032-78.5119 119.49-84.0539 112.706-84.0539C105.917-84.0539 100.37-78.5119 100.37-71.7285C100.37-64.9396 105.917-59.3918 112.706-59.3918ZM18.948-42.7984L44.1969-42.7984L57.4564-30.8066C58.138-30.1821 57.7688-29.1885 56.832-29.1885L41.8647-29.1885C40.1404-29.1885 38.1878-28.757 36.8426-27.355L17.7122-8.10002C15.2038-5.52896 15.0844-1.61845 17.7122 1.00941C20.2152 3.51788 24.2561 3.51816 26.7646 1.00941L43.6304-15.851L64.1117-12.4332C71.1597-11.2593 78.3378-13.5451 83.5265-18.7338L94.8765-30.0833C95.3546-30.5614 95.8697-30.2859 95.8697-29.7762L95.8697-22.7273L81.8655-8.72335C79.3622-6.21488 79.4248-2.17948 81.8655 0.328987C83.1484 1.61191 84.7999 2.22454 86.5138 2.22454C88.1653 2.22454 89.7598 1.61191 91.043 0.328987L106.937-15.565C108.1-16.7283 108.833-18.4421 108.833-20.0939L108.833-43.7534C108.833-47.4566 107.659-50.5371 105.389-52.7549L76.2273-81.7867L76.2273-63.4997L85.6733-54.1164C86.2084-53.5812 86.2035-52.8693 85.7304-52.3964L72.4898-39.1558L50.3773-54.6606C49.3283-55.3978 48.2378-55.7047 46.5184-55.7047L18.948-55.7047C15.3383-55.7047 12.4609-52.8328 12.4609-49.2854C12.4609-45.738 15.3383-42.7984 18.948-42.7984ZM75.8348 11.1914C84.5241 11.1914 91.3019 4.28116 91.2777-4.12927L81.6261-4.12927C81.6449-0.679499 79.3869 1.53431 75.8348 1.53431C72.2432 1.53431 70.1006-0.213928 70.1006-4.19443L70.1006-102.703C70.1006-105.418 67.9839-107.534 65.2749-107.534C62.5657-107.534 60.4435-105.418 60.4435-102.703L60.4435-4.19443C60.4435 5.21998 67.2727 11.1914 75.8348 11.1914ZM86.4515 37.0129C89.1092 37.0129 91.2774 34.8447 91.2774 32.1818L91.2774-30.2024L81.6259-30.2024L81.6259 32.1818C81.6259 34.8447 83.7941 37.0129 86.4515 37.0129Z"/>
  </g>
  <g id="Heavy-M" transform="matrix(1 0 0 1 2569.16 1126)">
   <path d="M110.673-58.9088C117.242-58.9088 122.589-64.2693 122.589-70.8549C122.589-77.4242 117.242-82.7705 110.673-82.7705C104.09-82.7705 98.7269-77.4242 98.7269-70.8549C98.7269-64.2693 104.09-58.9088 110.673-58.9088ZM18.6151-43.0751L43.6211-43.0751L57.2921-30.7181C57.9474-30.1064 57.5968-29.1441 56.6804-29.1441L41.2293-29.1441C39.564-29.1441 37.7243-28.7312 36.4515-27.4126L17.5705-8.40697C15.191-5.96741 15.085-2.26925 17.5705 0.216195C19.9336 2.59572 23.7705 2.59344 26.15 0.216195L42.8821-16.4994L63.2141-13.1214C70.0909-11.9795 77.1087-14.1987 82.1582-19.2482L93.4731-30.5677C94.0565-31.151 94.766-30.8107 94.766-30.1175L94.766-22.9215L80.8745-9.02774C78.5137-6.64822 78.5737-2.82772 80.8745-0.4482C82.0849 0.762236 83.6505 1.34792 85.2784 1.34792C86.844 1.34792 88.3659 0.762236 89.5741-0.4482L105.248-16.1217C106.354-17.2285 107.044-18.8564 107.044-20.4197L107.044-43.7606C107.044-47.3567 105.902-50.3275 103.732-52.4702L74.4364-81.6247L74.4364-64.3019L84.6778-54.1205C85.3048-53.4936 85.2838-52.7194 84.7215-52.1547L71.4672-38.9005L49.4847-54.306C48.4651-55.0163 47.458-55.3046 45.8137-55.3046L18.6151-55.3046C15.1933-55.3046 12.4609-52.5886 12.4609-49.2292C12.4609-45.8698 15.1933-43.0751 18.6151-43.0751ZM74.7456 10.0154C83.0886 10.0154 89.5818 3.39942 89.5344-4.73287L80.891-4.73287C80.922-1.0854 78.4543 1.35561 74.7456 1.35561C71.0334 1.35561 68.6438-0.58314 68.6438-4.72977L68.6438-102.383C68.6438-104.814 66.7355-106.722 64.3209-106.722C61.9086-106.722 59.9839-104.814 59.9839-102.383L59.9839-4.72977C59.9839 4.29989 66.5066 10.0154 74.7456 10.0154ZM85.2161 36.2007C87.6012 36.2007 89.5367 34.2653 89.5367 31.8615L89.5367-29.9619L80.8932-29.9619L80.8932 31.8615C80.8932 34.2653 82.8287 36.2007 85.2161 36.2007Z"/>
  </g>
  <g id="Bold-M" transform="matrix(1 0 0 1 2273.82 1126)">
   <path d="M108.398-58.3685C114.728-58.3685 119.855-63.5195 119.855-69.8777C119.855-76.2073 114.728-81.3348 108.398-81.3348C102.045-81.3348 96.8891-76.2073 96.8891-69.8777C96.8891-63.5195 102.045-58.3685 108.398-58.3685ZM18.2426-43.3846L42.9771-43.3846L57.1083-30.6191C57.7342-30.0217 57.4044-29.0945 56.5109-29.0945L40.5184-29.0945C38.9192-29.0945 37.2057-28.7024 36.0141-27.4771L17.412-8.75034C15.1767-6.45788 15.0858-2.99727 17.412-0.671134C19.6186 1.56415 23.2273 1.55901 25.4626-0.671134L42.0449-17.2248L62.2101-13.8912C68.8953-12.7852 75.7337-14.9298 80.6276-19.8237L91.9032-31.1096C92.6043-31.8106 93.5314-31.3978 93.5314-30.4993L93.5314-23.1388L79.7659-9.36825C77.5644-7.13297 77.6216-3.55288 79.7659-1.3176C80.8953-0.188247 82.3647 0.367287 83.8964 0.367287C85.3658 0.367287 86.8067-0.188247 87.9309-1.3176L103.358-16.7444C104.401-17.7881 105.043-19.3198 105.043-20.7841L105.043-43.7686C105.043-47.2449 103.937-50.0931 101.878-52.1518L72.433-81.4435L72.433-65.1993L83.5643-54.1252C84.2939-53.3956 84.255-52.5517 83.5929-51.8844L70.3233-38.6149L48.4861-53.9094C47.4996-54.5895 46.5858-54.857 45.0254-54.857L18.2426-54.857C15.0312-54.857 12.4609-52.3154 12.4609-49.1663C12.4609-46.0171 15.0312-43.3846 18.2426-43.3846ZM73.5271 8.70003C81.4829 8.70003 87.6577 2.41307 87.5843-5.40808L80.0686-5.40808C80.1134-1.53946 77.4109 1.15571 73.5271 1.15571C69.68 1.15571 67.0141-0.996157 67.0141-5.32861L67.0141-102.024C67.0141-104.138 65.339-105.814 63.2537-105.814C61.1735-105.814 59.4698-104.138 59.4698-102.024L59.4698-5.32861C59.4698 3.27063 65.6497 8.70003 73.5271 8.70003ZM83.8341 35.2922C85.9144 35.2922 87.5894 33.6172 87.5894 31.5032L87.5894-29.6929L80.0737-29.6929L80.0737 31.5032C80.0737 33.6172 81.7487 35.2922 83.8341 35.2922Z"/>
  </g>
  <g id="Semibold-M" transform="matrix(1 0 0 1 1978.05 1126)">
   <path d="M106.83-57.996C112.994-57.996 117.971-63.0026 117.971-69.204C117.971-75.3684 112.994-80.3451 106.83-80.3451C100.636-80.3451 95.6221-75.3684 95.6221-69.204C95.6221-63.0026 100.636-57.996 106.83-57.996ZM17.9859-43.5979L42.533-43.5979L56.9815-30.5508C57.5872-29.9633 57.2717-29.0603 56.394-29.0603L40.0283-29.0603C38.4746-29.0603 36.8483-28.6825 35.7125-27.5215L17.3027-8.98705C15.1668-6.79601 15.0864-3.49916 17.3027-1.28285C19.4015 0.852989 22.8529 0.845883 24.9887-1.28285L41.4678-17.7249L61.5179-14.422C68.0711-13.3407 74.7859-15.4338 79.5724-20.2203L90.821-31.4832C91.6032-32.2654 92.6802-31.8025 92.6802-30.7625L92.6802-23.2886L79.0017-9.603C76.91-7.46715 76.9652-4.05279 79.0017-1.91695C80.0751-0.843504 81.4783-0.308754 82.9437-0.308754C84.3468-0.308754 85.7318-0.843504 86.7981-1.91695L102.055-17.1737C103.055-18.1738 103.663-19.6393 103.663-21.0353L103.663-43.7742C103.663-47.1679 102.582-49.9314 100.6-51.9323L71.0519-81.3186L71.0519-65.8179L82.7967-54.1284C83.597-53.328 83.5458-52.4361 82.8148-51.6981L69.5347-38.418L47.7977-53.6359C46.8339-54.2953 45.9844-54.5485 44.482-54.5485L17.9859-54.5485C14.9194-54.5485 12.4609-52.1271 12.4609-49.1229C12.4609-46.1187 14.9194-43.5979 17.9859-43.5979ZM72.6871 7.79319C80.3759 7.79319 86.3312 1.73309 86.2399-5.87357L79.5016-5.87357C79.5559-1.85249 76.6917 1.0179 72.6871 1.0179C68.747 1.0179 65.8907-1.28089 65.8907-5.74145L65.8907-101.777C65.8907-103.673 64.3763-105.187 62.518-105.187C60.6668-105.187 59.1154-103.673 59.1154-101.777L59.1154-5.74145C59.1154 2.56107 65.0589 7.79319 72.6871 7.79319ZM82.8814 34.6659C84.7515 34.6659 86.247 33.1704 86.247 31.2562L86.247-29.5075L79.5087-29.5075L79.5087 31.2562C79.5087 33.1704 81.0042 34.6659 82.8814 34.6659Z"/>
  </g>
  <g id="Medium-M" transform="matrix(1 0 0 1 1682.05 1126)">
   <path d="M105.641-57.7136C111.68-57.7136 116.542-62.6106 116.542-68.6932C116.542-74.7323 111.68-79.5946 105.641-79.5946C99.5671-79.5946 94.6614-74.7323 94.6614-68.6932C94.6614-62.6106 99.5671-57.7136 105.641-57.7136ZM17.7912-43.7597L42.1964-43.7597L56.8854-30.499C57.4758-29.919 57.1712-29.0344 56.3054-29.0344L39.6568-29.0344C38.1375-29.0344 36.5772-28.6675 35.4838-27.5552L17.2198-9.16654C15.1593-7.0524 15.0868-3.87971 17.2198-1.74668C19.2368 0.313759 22.5689 0.305158 24.6294-1.74668L41.0302-18.1041L60.9931-14.8244C67.4461-13.7618 74.0671-15.816 78.7723-20.5211L90.0003-31.7664C90.8441-32.6102 92.0348-32.1094 92.0348-30.9621L92.0348-23.4022L78.4222-9.78099C76.4138-7.72055 76.4675-4.43185 78.4222-2.37141C79.4533-1.34035 80.8061-0.821356 82.2213-0.821356C83.5742-0.821356 84.9167-1.34035 85.9392-2.37141L101.067-17.4993C102.034-18.4663 102.617-19.8815 102.617-21.2258L102.617-43.7784C102.617-47.1094 101.555-49.8089 99.6307-51.7659L70.0047-81.2239L70.0047-66.287L82.2146-54.1308C83.0686-53.2768 83.008-52.3485 82.2249-51.5568L68.9368-38.2686L47.2757-53.4286C46.3292-54.0722 45.5285-54.3145 44.0699-54.3145L17.7912-54.3145C14.8346-54.3145 12.4609-51.9843 12.4609-49.09C12.4609-46.1957 14.8346-43.7597 17.7912-43.7597ZM72.0501 7.10558C79.5365 7.10558 85.3254 1.2175 85.2205-6.22653L79.0717-6.22653C79.1332-2.08984 76.1463 0.913405 72.0501 0.913405C68.0395 0.913405 65.0388-1.49678 65.0388-6.05449L65.0388-101.59C65.0388-103.32 63.6463-104.712 61.9601-104.712C60.2826-104.712 58.8466-103.32 58.8466-101.59L58.8466-6.05449C58.8466 2.02305 64.6109 7.10558 72.0501 7.10558ZM82.159 34.191C83.8697 34.191 85.2291 32.8316 85.2291 31.0689L85.2291-29.3668L79.0803-29.3668L79.0803 31.0689C79.0803 32.8316 80.4397 34.191 82.159 34.191Z"/>
  </g>
  <g id="Regular-M" transform="matrix(1 0 0 1 1386.27 1126)">
   <path d="M104.09-57.3452C109.966-57.3452 114.679-62.0994 114.679-68.0269C114.679-73.9026 109.966-78.6157 104.09-78.6157C98.1732-78.6157 93.4084-73.9026 93.4084-68.0269C93.4084-62.0994 98.1732-57.3452 104.09-57.3452ZM17.5373-43.9707L41.7572-43.9707L56.7601-30.4315C57.3304-29.8612 57.04-29.0005 56.1898-29.0005L39.1721-29.0005C37.6979-29.0005 36.2237-28.6478 35.1856-27.5992L17.1117-9.40066C15.1496-7.38681 15.0873-4.37608 17.1117-2.35168C19.022-0.389584 22.1986-0.400135 24.1607-2.35168L40.4594-18.5986L60.3085-15.3493C66.6309-14.3112 73.1297-16.3145 77.7287-20.9135L88.93-32.1359C89.854-33.0599 91.193-32.5097 91.193-31.2224L91.193-23.5504L77.6664-10.0132C75.7666-8.05106 75.8183-4.92627 77.6664-2.96418C78.6421-1.9884 79.9294-1.48997 81.279-1.48997C82.5663-1.48997 83.8536-1.9884 84.8189-2.96418L99.7785-17.9238C100.703-18.8479 101.253-20.1975 101.253-21.4742L101.253-43.7838C101.253-47.0332 100.215-49.649 98.3666-51.5488L68.6387-81.1003L68.6387-66.8989L81.4554-54.134C82.3794-53.2099 82.3066-52.2342 81.4554-51.3725L68.1569-38.0739L46.5949-53.1582C45.6709-53.7812 44.9338-54.0093 43.5324-54.0093L17.5373-54.0093C14.724-54.0093 12.4609-51.798 12.4609-49.0471C12.4609-46.2961 14.724-43.9707 17.5373-43.9707ZM71.2193 6.2087C78.4417 6.2087 84.0134 0.544986 83.8908-6.6869L78.511-6.6869C78.5818-2.39943 75.435 0.777109 71.2193 0.777109C67.1168 0.777109 63.9277-1.77838 63.9277-6.46279L63.9277-101.346C63.9277-102.859 62.6941-104.093 61.2325-104.093C59.7814-104.093 58.4961-102.859 58.4961-101.346L58.4961-6.46279C58.4961 1.32129 64.0266 6.2087 71.2193 6.2087ZM81.2167 33.5715C82.7196 33.5715 83.9014 32.3898 83.9014 30.8246L83.9014-29.1834L78.5215-29.1834L78.5215 30.8246C78.5215 32.3898 79.7033 33.5715 81.2167 33.5715Z"/>
  </g>
  <g id="Light-M" transform="matrix(1 0 0 1 1090.8 1126)">
   <path d="M101.934-57.0885C107.639-57.0885 112.215-61.6716 112.215-67.4109C112.215-73.1155 107.639-77.6917 101.934-77.6917C96.2225-77.6917 91.6117-73.1155 91.6117-67.4109C91.6117-61.6716 96.2225-57.0885 101.934-57.0885ZM17.3833-43.7483L40.9701-43.7483L55.7506-30.3802C56.2353-29.8955 55.9791-29.1545 55.2658-29.1545L38.4363-29.1545C36.9963-29.1545 35.5563-28.836 34.5525-27.8045L16.9748-10.1022C15.064-8.1568 15.0017-5.21452 16.9748-3.24145C18.8509-1.33069 21.9248-1.35835 23.8356-3.24145L39.6894-19.0606L58.9909-15.8968C65.1594-14.8929 71.487-16.8107 75.9662-21.2899L86.8424-32.2214C87.7493-33.1283 89.0371-32.5952 89.0371-31.3422L89.0371-23.8584L75.9039-10.6976C74.0555-8.78683 74.0901-5.7476 75.9039-3.83684C76.8455-2.89528 78.0986-2.39685 79.4139-2.39685C80.667-2.39685 81.9201-2.89528 82.834-3.83684L97.4001-18.403C98.307-19.3099 98.8401-20.6252 98.8401-21.8507L98.8401-43.5614C98.8401-46.7252 97.8362-49.2384 96.0224-51.0868L66.4828-80.4672L66.4828-66.6764L79.5732-53.6206C80.4801-52.7137 80.3901-51.7722 79.5732-50.9276L66.634-37.9884L45.6709-52.6791C44.764-53.3021 44.044-53.496 42.694-53.496L17.3833-53.496C14.6556-53.496 12.4609-51.336 12.4609-48.6706C12.4609-46.0052 14.6556-43.7483 17.3833-43.7483ZM69.6109 4.65161C76.3199 4.65161 81.4297-0.396116 81.5124-7.02912L77.1079-7.02912C76.9905-2.86142 73.7923 0.212448 69.6109 0.212448C65.4228 0.212448 62.1139-2.44571 62.1139-7.24989L62.1139-99.2926C62.1139-100.532 61.1028-101.543 59.8978-101.543C58.7205-101.543 57.6748-100.532 57.6748-99.2926L57.6748-7.24989C57.6748 0.123525 62.7776 4.65161 69.6109 4.65161ZM79.3516 31.022C80.5636 31.022 81.5401 30.0456 81.5401 28.7713L81.5401-28.9268L77.1356-28.9268L77.1356 28.7713C77.1356 30.0456 78.112 31.022 79.3516 31.022Z"/>
  </g>
  <g id="Thin-M" transform="matrix(1 0 0 1 795.714 1126)">
   <path d="M99.0827-56.749C104.561-56.749 108.956-61.1059 108.956-66.5962C108.956-72.0745 104.561-76.4697 99.0827-76.4697C93.6426-76.4697 89.2355-72.0745 89.2355-66.5962C89.2355-61.1059 93.6426-56.749 99.0827-56.749ZM17.1796-43.4541L39.9291-43.4541L54.4154-30.3123C54.7869-29.9407 54.576-29.3582 54.0438-29.3582L37.4632-29.3582C36.0685-29.3582 34.6737-29.085 33.7152-28.0761L16.7938-11.0301C14.9509-9.17518 14.8886-6.32342 16.7938-4.41824C18.6246-2.57537 21.5627-2.62566 23.4056-4.41824L38.671-19.6717L57.2484-16.621C63.2131-15.6624 69.3145-17.467 73.6353-21.7878L84.0815-32.3346C84.9658-33.2188 86.1856-32.7084 86.1856-31.5006L86.1856-24.2657L73.573-11.6028C71.7924-9.75994 71.8044-6.83387 73.573-4.991C74.4693-4.09471 75.6771-3.59627 76.9472-3.59627C78.155-3.59627 79.3628-4.09471 80.2088-4.991L94.2544-19.0366C95.1387-19.9209 95.6492-21.191 95.6492-22.3485L95.6492-43.2672C95.6492-46.3179 94.6906-48.6952 92.922-50.4758L63.6313-79.6299L63.6313-66.3822L77.0838-52.9417C77.9681-52.0574 77.8555-51.1611 77.0838-50.3392L64.6199-37.8752L44.4488-52.0454C43.5646-52.6685 42.8672-52.8171 41.5851-52.8171L17.1796-52.8171C14.565-52.8171 12.4609-50.725 12.4609-48.1728C12.4609-45.6205 14.565-43.4541 17.1796-43.4541ZM67.4836 2.59222C73.5137 2.59222 78.0125-1.6408 78.3668-7.48173L75.2522-7.48173C74.8859-3.47245 71.6198-0.534362 67.4836-0.534362C63.1824-0.534362 59.7151-3.3283 59.7151-8.2909L59.7151-96.5769C59.7151-97.4544 58.9982-98.1713 58.1326-98.1713C57.3174-98.1713 56.5885-97.4544 56.5885-96.5769L56.5885-8.2909C56.5885-1.46062 61.1255 2.59222 67.4836 2.59222ZM76.8849 27.6501C77.7122 27.6501 78.417 26.9452 78.417 26.0556L78.417-28.5873L75.3025-28.5873L75.3025 26.0556C75.3025 26.9452 76.0074 27.6501 76.8849 27.6501Z"/>
  </g>
  <g id="Ultralight-M" transform="matrix(1 0 0 1 499.837 1126)">
   <path d="M97.6222-56.5752C102.985-56.5752 107.287-60.8161 107.287-66.1789C107.287-71.5413 102.985-75.8437 97.6222-75.8437C92.3212-75.8437 88.0184-71.5413 88.0184-66.1789C88.0184-60.8161 92.3212-56.5752 97.6222-56.5752ZM17.0753-43.3034L39.3959-43.3034L53.7315-30.2775C54.0451-29.9639 53.8573-29.4625 53.4178-29.4625L36.9648-29.4625C35.5932-29.4625 34.2217-29.2125 33.2863-28.2152L16.701-11.5053C14.8929-9.69679 14.8306-6.89139 16.701-5.02099C18.5087-3.21289 21.3772-3.27477 23.1853-5.02099L38.1494-19.9846L56.3558-16.9919C62.2163-16.0565 68.2017-17.8031 72.4414-22.0428L82.6674-32.3925C83.54-33.2652 84.7251-32.7664 84.7251-31.5817L84.7251-24.4744L72.3791-12.0665C70.6333-10.2584 70.6337-7.39025 72.3791-5.58215C73.2522-4.70904 74.4368-4.21061 75.6838-4.21061C76.8684-4.21061 78.053-4.70904 78.8642-5.58215L92.6433-19.3612C93.5159-20.2339 94.0148-21.4808 94.0148-22.6035L94.0148-43.1165C94.0148-46.1092 93.0794-48.417 91.334-50.1628L62.1708-79.201L62.1708-66.2315L75.8088-52.594C76.6815-51.7213 76.5573-50.8482 75.8088-50.0378L63.5882-37.8172L43.8229-51.7209C42.9502-52.3439 42.2645-52.4694 41.0171-52.4694L17.0753-52.4694C14.5187-52.4694 12.4609-50.412 12.4609-47.9178C12.4609-45.4235 14.5187-43.3034 17.0753-43.3034ZM66.3941 1.53742C72.0764 1.53742 76.2622-2.27832 76.7556-7.71356L74.3017-7.71356C73.8079-3.78541 70.507-0.916874 66.3941-0.916874C62.0348-0.916874 58.4864-3.78036 58.4864-8.8241L58.4864-95.1859C58.4864-95.878 57.9202-96.4442 57.2285-96.4442C56.5987-96.4442 56.0321-95.878 56.0321-95.1859L56.0321-8.8241C56.0321-2.27201 60.2794 1.53742 66.3941 1.53742ZM75.6215 25.923C76.2517 25.923 76.8175 25.3572 76.8175 24.6647L76.8175-28.4134L74.3636-28.4134L74.3636 24.6647C74.3636 25.3572 74.9294 25.923 75.6215 25.923Z"/>
  </g>
  <g id="Black-S" transform="matrix(1 0 0 1 2879.23 696)">
   <path d="M88.8184-54.2969C94.1895-54.2969 98.584-58.6914 98.584-64.0625C98.584-69.4336 94.1895-73.8281 88.8184-73.8281C83.4473-73.8281 79.0527-69.4336 79.0527-64.0625C79.0527-58.6914 83.4473-54.2969 88.8184-54.2969ZM14.9414-41.0645L34.7656-41.0645L45.0195-31.7871C45.5566-31.2988 45.2637-30.5176 44.5312-30.5176L32.959-30.5176C31.5918-30.5176 30.0293-30.1758 28.9551-29.0527L13.916-13.916C11.9141-11.8652 11.8164-8.74023 13.916-6.64062C15.918-4.63867 19.1406-4.63867 21.1426-6.64062L34.375-19.873L50.4395-17.1875C56.0059-16.2598 61.6699-18.0664 65.7715-22.168L74.6582-31.0547C75-31.3965 75.3418-31.2012 75.3418-30.8594L75.3418-25.3906L64.3555-14.4043C62.3535-12.4023 62.4023-9.17969 64.3555-7.17773C65.3809-6.15234 66.6992-5.66406 68.0664-5.66406C69.3848-5.66406 70.6543-6.15234 71.6797-7.17773L84.1797-19.6777C85.1074-20.6055 85.6934-21.9727 85.6934-23.291L85.6934-41.8945C85.6934-44.8242 84.7656-47.2656 82.959-49.0234L60.1562-71.7285L60.1562-57.1289L67.334-50C67.7246-49.6094 67.7246-49.0723 67.3828-48.7305L57.0312-38.3789L39.6973-50.5371C38.8672-51.123 37.9883-51.3672 36.6211-51.3672L14.9414-51.3672C12.0605-51.3672 9.76562-49.0723 9.76562-46.2402C9.76562-43.4082 12.0605-41.0645 14.9414-41.0645ZM59.668 1.41602C66.5527 1.41602 71.9238-4.05273 71.9238-10.6934L64.1113-10.6934C64.1113-8.05664 62.4023-6.39648 59.668-6.39648C56.8848-6.39648 55.2734-7.71484 55.2734-10.791L55.2734-88.0859C55.2734-90.2832 53.5645-91.9922 51.3672-91.9922C49.1699-91.9922 47.4609-90.2832 47.4609-88.0859L47.4609-10.791C47.4609-3.32031 52.8809 1.41602 59.668 1.41602ZM68.0176 21.4844C70.166 21.4844 71.9238 19.7266 71.9238 17.5781L71.9238-31.3477L64.1113-31.3477L64.1113 17.5781C64.1113 19.7266 65.8691 21.4844 68.0176 21.4844Z"/>
  </g>
  <g id="Heavy-S" transform="matrix(1 0 0 1 2583.4 696)">
   <path d="M87.3548-53.9166C92.5645-53.9166 96.8092-58.1728 96.8092-63.3941C96.8092-68.6038 92.5645-72.8485 87.3548-72.8485C82.1335-72.8485 77.8772-68.6038 77.8772-63.3941C77.8772-58.1728 82.1335-53.9166 87.3548-53.9166ZM14.6763-41.3295L34.3738-41.3295L45.008-31.718C45.5336-31.2297 45.2521-30.46 44.5197-30.46L32.5095-30.46C31.1884-30.46 29.7181-30.1297 28.7015-29.0758L13.8123-14.0889C11.9141-12.1418 11.8279-9.18969 13.8123-7.20532C15.699-5.30709 18.7603-5.30709 20.6586-7.20532L33.8334-20.3686L49.8402-17.7061C55.2798-16.8014 60.8286-18.562 64.8265-22.5598L73.7247-31.458C74.1587-31.892 74.6734-31.6391 74.6734-31.136L74.6734-25.5174L63.7331-14.5772C61.8464-12.6789 61.8953-9.62914 63.7331-7.73091C64.7009-6.76314 65.9501-6.29791 67.2482-6.29791C68.4974-6.29791 69.7093-6.76314 70.6771-7.73091L83.0388-20.0926C83.9204-20.9743 84.4718-22.2723 84.4718-23.5215L84.4718-41.9291C84.4718-44.7781 83.5671-47.1389 81.8411-48.839L58.9001-71.6709L58.9001-57.8434L66.7232-50.0691C67.1945-49.5979 67.183-49.0031 66.7605-48.5807L56.3513-38.1715L39.0519-50.2951C38.2449-50.858 37.4351-51.0906 36.1255-51.0906L14.6763-51.0906C11.9453-51.0906 9.76562-48.9224 9.76562-46.2402C9.76562-43.558 11.9453-41.3295 14.6763-41.3295ZM58.9419 0.609303C65.5962 0.609303 70.7829-4.68658 70.7368-11.1659L63.6619-11.1659C63.6964-8.34475 61.8146-6.47716 58.9419-6.47716C56.0665-6.47716 54.2593-7.94533 54.2593-11.1483L54.2593-88.0744C54.2593-90.0642 52.7001-91.6234 50.7218-91.6234C48.7435-91.6234 47.1728-90.0642 47.1728-88.0744L47.1728-11.1483C47.1728-3.95416 52.3853 0.609303 58.9419 0.609303ZM67.1993 21.1156C69.1519 21.1156 70.7368 19.5306 70.7368 17.5666L70.7368-31.1748L63.6619-31.1748L63.6619 17.5666C63.6619 19.5306 65.2468 21.1156 67.1993 21.1156Z"/>
  </g>
  <g id="Bold-S" transform="matrix(1 0 0 1 2287.68 696)">
   <path d="M85.7178-53.4912C90.7471-53.4912 94.8242-57.5928 94.8242-62.6465C94.8242-67.6758 90.7471-71.7529 85.7178-71.7529C80.6641-71.7529 76.5625-67.6758 76.5625-62.6465C76.5625-57.5928 80.6641-53.4912 85.7178-53.4912ZM14.3799-41.626L33.9355-41.626L44.9951-31.6406C45.5078-31.1523 45.2393-30.3955 44.5068-30.3955L32.0068-30.3955C30.7373-30.3955 29.3701-30.0781 28.418-29.1016L13.6963-14.2822C11.9141-12.4512 11.8408-9.69238 13.6963-7.83691C15.4541-6.05469 18.335-6.05469 20.1172-7.83691L33.2275-20.9229L49.1699-18.2861C54.4678-17.4072 59.8877-19.1162 63.7695-22.998L72.6807-31.9092C73.2178-32.4463 73.9258-32.1289 73.9258-31.4453L73.9258-25.6592L63.0371-14.7705C61.2793-12.9883 61.3281-10.1318 63.0371-8.34961C63.9404-7.44629 65.1123-7.00684 66.333-7.00684C67.5049-7.00684 68.6523-7.44629 69.5557-8.34961L81.7627-20.5566C82.5928-21.3867 83.1055-22.6074 83.1055-23.7793L83.1055-41.9678C83.1055-44.7266 82.2266-46.9971 80.5908-48.6328L57.4951-71.6064L57.4951-58.6426L66.04-50.1465C66.6016-49.585 66.5771-48.9258 66.0645-48.4131L55.5908-37.9395L38.3301-50.0244C37.5488-50.5615 36.8164-50.7812 35.5713-50.7812L14.3799-50.7812C11.8164-50.7812 9.76562-48.7549 9.76562-46.2402C9.76562-43.7256 11.8164-41.626 14.3799-41.626ZM58.1299-0.292969C64.5264-0.292969 69.5068-5.39551 69.4092-11.6943L63.1592-11.6943C63.2324-8.66699 61.1572-6.56738 58.1299-6.56738C55.1514-6.56738 53.125-8.20312 53.125-11.5479L53.125-88.0615C53.125-89.8193 51.7334-91.2109 50-91.2109C48.2666-91.2109 46.8506-89.8193 46.8506-88.0615L46.8506-11.5479C46.8506-4.66309 51.8311-0.292969 58.1299-0.292969ZM66.2842 20.7031C68.0176 20.7031 69.4092 19.3115 69.4092 17.5537L69.4092-30.9814L63.1592-30.9814L63.1592 17.5537C63.1592 19.3115 64.5508 20.7031 66.2842 20.7031Z"/>
  </g>
  <g id="Semibold-S" transform="matrix(1 0 0 1 1991.66 696)">
   <path d="M84.5892-53.1979C89.494-53.1979 93.4557-57.1929 93.4557-62.1311C93.4557-67.0359 89.494-70.9976 84.5892-70.9976C79.651-70.9976 75.6561-67.0359 75.6561-62.1311C75.6561-57.1929 79.651-53.1979 84.5892-53.1979ZM14.1755-41.8304L33.6334-41.8304L44.9862-31.5873C45.49-31.099 45.2304-30.3511 44.4979-30.3511L31.6603-30.3511C30.4263-30.3511 29.1302-30.0426 28.2225-29.1193L13.6163-14.4155C11.9141-12.6645 11.8497-10.039 13.6163-8.27236C15.2853-6.57012 18.0417-6.57012 19.7439-8.27236L32.8099-21.305L48.7078-18.686C53.9079-17.8249 59.239-19.4983 63.0408-23.3002L71.9608-32.2202C72.569-32.8284 73.4104-32.4666 73.4104-31.6586L73.4104-25.7569L62.5572-14.9038C60.8883-13.2016 60.9371-10.4784 62.5572-8.77617C63.4161-7.91729 64.5347-7.49561 65.7021-7.49561C66.8206-7.49561 67.9236-7.91729 68.7825-8.77617L80.8829-20.8766C81.6774-21.6711 82.1635-22.8385 82.1635-23.957L82.1635-41.9944C82.1635-44.691 81.3023-46.8993 79.7288-48.4906L56.5265-71.562L56.5265-59.1936L65.569-50.1998C66.1928-49.5761 66.1595-48.8725 65.5846-48.2976L55.0665-37.7795L37.8324-49.8378C37.0689-50.3571 36.3898-50.568 35.1892-50.568L14.1755-50.568C11.7275-50.568 9.76562-48.6394 9.76562-46.2402C9.76562-43.8411 11.7275-41.8304 14.1755-41.8304ZM57.57-0.915039C63.7888-0.915039 68.6271-5.88428 68.4938-12.0587L62.8126-12.0587C62.9125-8.88916 60.704-6.62959 57.57-6.62959C54.5204-6.62959 52.343-8.38086 52.343-11.8233L52.343-88.0526C52.343-89.6505 51.0669-90.9266 49.5023-90.9266C47.9378-90.9266 46.6284-89.6505 46.6284-88.0526L46.6284-11.8233C46.6284-5.15186 51.4489-0.915039 57.57-0.915039ZM65.6532 20.4187C67.2355 20.4187 68.4938 19.1604 68.4938 17.5448L68.4938-30.8481L62.8126-30.8481L62.8126 17.5448C62.8126 19.1604 64.0709 20.4187 65.6532 20.4187Z"/>
  </g>
  <g id="Medium-S" transform="matrix(1 0 0 1 1695.46 696)">
   <path d="M83.7334-52.9756C88.5439-52.9756 92.418-56.8896 92.418-61.7402C92.418-66.5508 88.5439-70.4248 83.7334-70.4248C78.8828-70.4248 74.9688-66.5508 74.9688-61.7402C74.9688-56.8896 78.8828-52.9756 83.7334-52.9756ZM14.0205-41.9854L33.4043-41.9854L44.9795-31.5469C45.4766-31.0586 45.2236-30.3174 44.4912-30.3174L31.3975-30.3174C30.1904-30.3174 28.9482-30.0156 28.0742-29.1328L13.5557-14.5166C11.9141-12.8262 11.8564-10.3018 13.5557-8.60254C15.1572-6.96094 17.8193-6.96094 19.4609-8.60254L32.4932-21.5947L48.3574-18.9893C53.4834-18.1416 58.7471-19.7881 62.4883-23.5293L71.415-32.4561C72.0771-33.1182 73.0195-32.7227 73.0195-31.8203L73.0195-25.8311L62.1934-15.0049C60.5918-13.3633 60.6406-10.7412 62.1934-9.09961C63.0186-8.27441 64.0967-7.86621 65.2236-7.86621C66.3018-7.86621 67.3711-8.27441 68.1963-9.09961L80.2158-21.1191C80.9834-21.8867 81.4492-23.0137 81.4492-24.0918L81.4492-42.0146C81.4492-44.6641 80.6016-46.8252 79.0752-48.3828L55.792-71.5283L55.792-59.6113L65.2119-50.2402C65.8828-49.5693 65.8428-48.832 65.2207-48.21L54.6689-37.6582L37.4551-49.6963C36.7051-50.2021 36.0664-50.4062 34.8994-50.4062L14.0205-50.4062C11.6602-50.4062 9.76562-48.5518 9.76562-46.2402C9.76562-43.9287 11.6602-41.9854 14.0205-41.9854ZM57.1455-1.38672C63.2295-1.38672 67.96-6.25488 67.7998-12.335L62.5498-12.335C62.6699-9.05762 60.3604-6.67676 57.1455-6.67676C54.042-6.67676 51.75-8.51562 51.75-12.0322L51.75-88.0459C51.75-89.5225 50.5615-90.7109 49.125-90.7109C47.6885-90.7109 46.46-89.5225 46.46-88.0459L46.46-12.0322C46.46-5.52246 51.1592-1.38672 57.1455-1.38672ZM65.1748 20.2031C66.6426 20.2031 67.7998 19.0459 67.7998 17.5381L67.7998-30.7471L62.5498-30.7471L62.5498 17.5381C62.5498 19.0459 63.707 20.2031 65.1748 20.2031Z"/>
  </g>
  <g id="Regular-S" transform="matrix(1 0 0 1 1399.43 696)">
   <path d="M82.6172-52.6855C87.3047-52.6855 91.0645-56.4941 91.0645-61.2305C91.0645-65.918 87.3047-69.6777 82.6172-69.6777C77.8809-69.6777 74.0723-65.918 74.0723-61.2305C74.0723-56.4941 77.8809-52.6855 82.6172-52.6855ZM13.8184-42.1875L33.1055-42.1875L44.9707-31.4941C45.459-31.0059 45.2148-30.2734 44.4824-30.2734L31.0547-30.2734C29.8828-30.2734 28.7109-29.9805 27.8809-29.1504L13.4766-14.6484C11.9141-13.0371 11.8652-10.6445 13.4766-9.0332C14.9902-7.4707 17.5293-7.4707 19.0918-9.0332L32.0801-21.9727L47.9004-19.3848C52.9297-18.5547 58.1055-20.166 61.7676-23.8281L70.7031-32.7637C71.4355-33.4961 72.5098-33.0566 72.5098-32.0312L72.5098-25.9277L61.7188-15.1367C60.2051-13.5742 60.2539-11.084 61.7188-9.52148C62.5-8.74023 63.5254-8.34961 64.5996-8.34961C65.625-8.34961 66.6504-8.74023 67.4316-9.52148L79.3457-21.4355C80.0781-22.168 80.5176-23.2422 80.5176-24.2676L80.5176-42.041C80.5176-44.6289 79.6875-46.7285 78.2227-48.2422L54.834-71.4844L54.834-60.1562L64.7461-50.293C65.4785-49.5605 65.4297-48.7793 64.7461-48.0957L54.1504-37.5L36.9629-49.5117C36.2305-50 35.6445-50.1953 34.5215-50.1953L13.8184-50.1953C11.5723-50.1953 9.76562-48.4375 9.76562-46.2402C9.76562-44.043 11.5723-42.1875 13.8184-42.1875ZM56.5918-2.00195C62.5-2.00195 67.0898-6.73828 66.8945-12.6953L62.207-12.6953C62.3535-9.27734 59.9121-6.73828 56.5918-6.73828C53.418-6.73828 50.9766-8.69141 50.9766-12.3047L50.9766-88.0371C50.9766-89.3555 49.9023-90.4297 48.6328-90.4297C47.3633-90.4297 46.2402-89.3555 46.2402-88.0371L46.2402-12.3047C46.2402-6.00586 50.7812-2.00195 56.5918-2.00195ZM64.5508 19.9219C65.8691 19.9219 66.8945 18.8965 66.8945 17.5293L66.8945-30.6152L62.207-30.6152L62.207 17.5293C62.207 18.8965 63.2324 19.9219 64.5508 19.9219Z"/>
  </g>
  <g id="Light-S" transform="matrix(1 0 0 1 1103.81 696)">
   <path d="M80.71-52.4585C85.2461-52.4585 88.8848-56.1157 88.8848-60.6856C88.8848-65.2217 85.2461-68.8604 80.71-68.8604C76.1553-68.8604 72.4829-65.2217 72.4829-60.6856C72.4829-56.1157 76.1553-52.4585 80.71-52.4585ZM13.6821-41.9907L32.4092-41.9907L44.0776-31.4487C44.4902-31.0361 44.2764-30.4097 43.665-30.4097L30.4038-30.4097C29.2622-30.4097 28.1206-30.147 27.3208-29.332L13.3555-15.269C11.8384-13.7183 11.7896-11.3862 13.3555-9.82031C14.8389-8.30322 17.2871-8.31835 18.8042-9.82031L31.3989-22.3813L46.7349-19.8691C51.6279-19.0693 56.6524-20.605 60.2085-24.1611L68.8565-32.8394C69.5737-33.5566 70.6026-33.1323 70.6026-32.1372L70.6026-26.2002L60.1597-15.7422C58.6914-14.2251 58.7251-11.8105 60.1597-10.2935C60.9107-9.54247 61.9058-9.15185 62.9497-9.15185C63.9448-9.15185 64.94-9.54247 65.6758-10.2935L77.2417-21.8594C77.959-22.5767 78.3833-23.6206 78.3833-24.6006L78.3833-41.8442C78.3833-44.3564 77.5835-46.3652 76.1489-47.8335L52.9268-70.9243L52.9268-59.9595L63.0811-49.8389C63.7984-49.1216 63.7344-48.3706 63.0811-47.7022L52.8032-37.4243L36.1455-49.0879C35.4282-49.5762 34.8574-49.7412 33.7798-49.7412L13.6821-49.7412C11.5117-49.7412 9.76562-48.0288 9.76562-45.9072C9.76562-43.7856 11.5117-41.9907 13.6821-41.9907ZM55.169-3.37938C60.6231-3.37938 64.8042-7.57079 64.7905-12.998L60.9658-12.998C60.9458-9.68603 58.459-7.23779 55.169-7.23779C51.9194-7.23779 49.3721-9.28173 49.3721-13.001L49.3721-86.2207C49.3721-87.2969 48.4946-88.1743 47.4522-88.1743C46.4248-88.1743 45.5137-87.2969 45.5137-86.2207L45.5137-13.001C45.5137-7.06542 49.6763-3.37938 55.169-3.37938ZM62.9009 17.6665C63.9619 17.6665 64.8057 16.8228 64.8057 15.7129L64.8057-30.3882L60.981-30.3882L60.981 15.7129C60.981 16.8228 61.8247 17.6665 62.9009 17.6665Z"/>
  </g>
  <g id="Thin-S" transform="matrix(1 0 0 1 808.538 696)">
   <path d="M78.1875-52.1582C82.5235-52.1582 86.002-55.6152 86.002-59.9649C86.002-64.3008 82.5235-67.7793 78.1875-67.7793C73.8731-67.7793 70.3809-64.3008 70.3809-59.9649C70.3809-55.6152 73.8731-52.1582 78.1875-52.1582ZM13.502-41.7305L31.4883-41.7305L42.8965-31.3887C43.209-31.0762 43.0352-30.5898 42.584-30.5898L29.543-30.5898C28.4414-30.5898 27.3399-30.3672 26.5801-29.5723L13.1953-16.0898C11.7383-14.6191 11.6895-12.3672 13.1953-10.8613C14.6387-9.40428 16.9668-9.43944 18.4238-10.8613L30.4981-22.9219L45.1934-20.5098C49.9063-19.75 54.7305-21.1855 58.1465-24.6016L66.4141-32.9395C67.1114-33.6367 68.0801-33.2324 68.0801-32.2773L68.0801-26.5605L58.0977-16.543C56.6895-15.0859 56.7032-12.7715 58.0977-11.3144C58.8086-10.6035 59.7637-10.2129 60.7676-10.2129C61.7227-10.2129 62.6778-10.6035 63.3535-11.3144L74.459-22.4199C75.1563-23.1172 75.5606-24.1211 75.5606-25.041L75.5606-41.584C75.5606-43.9961 74.8008-45.8848 73.4063-47.293L50.4043-70.1836L50.4043-59.6992L60.8789-49.2383C61.5762-48.541 61.4922-47.8301 60.8789-47.1816L51.0215-37.3242L35.0645-48.5274C34.3672-49.0156 33.8164-49.1406 32.7988-49.1406L13.502-49.1406C11.4316-49.1406 9.76562-47.4883 9.76562-45.4668C9.76562-43.4453 11.4316-41.7305 13.502-41.7305ZM53.2871-5.20115C58.1407-5.20115 61.7813-8.67186 62.0079-13.3984L59.3242-13.3984C59.084-10.2266 56.5371-7.89843 53.2871-7.89843C49.9375-7.89843 47.25-10.0625 47.25-13.9219L47.25-83.8184C47.25-84.5743 46.6328-85.1914 45.8906-85.1914C45.1836-85.1914 44.5527-84.5743 44.5527-83.8184L44.5527-13.9219C44.5527-8.46678 48.2149-5.20115 53.2871-5.20115ZM60.7188 14.6836C61.4395 14.6836 62.043 14.0801 62.043 13.3106L62.043-30.0879L59.3594-30.0879L59.3594 13.3106C59.3594 14.0801 59.9629 14.6836 60.7188 14.6836Z"/>
  </g>
  <g id="Ultralight-S" transform="matrix(1 0 0 1 512.566 696)">
   <path d="M76.8956-52.0044C81.129-52.0044 84.5254-55.3589 84.5254-59.5957C84.5254-63.8291 81.129-67.2256 76.8956-67.2256C72.7041-67.2256 69.3042-63.8291 69.3042-59.5957C69.3042-55.3589 72.7041-52.0044 76.8956-52.0044ZM13.4097-41.5972L31.0166-41.5972L42.2915-31.3579C42.5528-31.0967 42.3994-30.6821 42.0303-30.6821L29.1021-30.6821C28.021-30.6821 26.94-30.48 26.2007-29.6953L13.1133-16.5102C11.687-15.0806 11.6382-12.8696 13.1133-11.3945C14.5361-9.96824 16.8027-10.0137 18.229-11.3945L30.0366-23.1987L44.4038-20.8379C49.0244-20.0986 53.7461-21.4829 57.0904-24.8271L65.1631-32.9907C65.8501-33.6777 66.7881-33.2837 66.7881-32.3491L66.7881-26.7451L57.0415-16.9531C55.6641-15.5268 55.6675-13.2637 57.0415-11.8374C57.732-11.147 58.6665-10.7563 59.6499-10.7563C60.5845-10.7563 61.5191-11.147 62.1641-11.8374L73.0337-22.707C73.7208-23.394 74.1148-24.3774 74.1148-25.2666L74.1148-41.4507C74.1148-43.8115 73.3755-45.6387 72.0015-47.0161L49.1123-69.8042L49.1123-59.5659L59.751-48.9307C60.438-48.2437 60.3438-47.5532 59.751-46.915L50.1089-37.273L34.5108-48.2402C33.8237-48.7285 33.2832-48.833 32.2964-48.833L13.4097-48.833C11.3906-48.833 9.76562-47.2114 9.76562-45.2412C9.76562-43.271 11.3906-41.5972 13.4097-41.5972ZM52.3233-6.13424C56.8692-6.13424 60.233-9.23582 60.5826-13.6035L58.4834-13.6035C58.1304-10.5034 55.5528-8.2368 52.3233-8.2368C48.9224-8.2368 46.1631-10.4624 46.1631-14.3935L46.1631-82.5879C46.1631-83.1797 45.6792-83.6636 45.0908-83.6636C44.5479-83.6636 44.0606-83.1797 44.0606-82.5879L44.0606-14.3935C44.0606-9.18455 47.4663-6.13424 52.3233-6.13424ZM59.6011 13.1558C60.1475 13.1558 60.628 12.6753 60.628 12.0801L60.628-29.9341L58.5288-29.9341L58.5288 12.0801C58.5288 12.6753 59.0093 13.1558 59.6011 13.1558Z"/>
  </g>
 </g>
</svg>
