<?xml version="1.0" encoding="UTF-8"?>
<!--Generator: Apple Native CoreSVG 175.5-->
<!DOCTYPE svg
PUBLIC "-//W3C//DTD SVG 1.1//EN"
       "http://www.w3.org/Graphics/SVG/1.1/DTD/svg11.dtd">
<svg version="1.1" xmlns="http://www.w3.org/2000/svg" xmlns:xlink="http://www.w3.org/1999/xlink" width="3300" height="2200">
 <!--glyph: "uni10148C.medium", point size: 100.0, font version: "18.0d12e2", template writer version: "101"-->
 <g id="Notes">
  <rect height="2200" id="artboard" style="fill:white;opacity:1" width="3300" x="0" y="0"/>
  <line style="fill:none;stroke:black;opacity:1;stroke-width:0.5;" x1="263" x2="3036" y1="292" y2="292"/>
  <text style="stroke:none;fill:black;font-family:sans-serif;font-size:13;font-weight:bold;" transform="matrix(1 0 0 1 263 322)">Weight/Scale Variations</text>
  <text style="stroke:none;fill:black;font-family:sans-serif;font-size:13;text-anchor:middle;" transform="matrix(1 0 0 1 559.711 322)">Ultralight</text>
  <text style="stroke:none;fill:black;font-family:sans-serif;font-size:13;text-anchor:middle;" transform="matrix(1 0 0 1 856.422 322)">Thin</text>
  <text style="stroke:none;fill:black;font-family:sans-serif;font-size:13;text-anchor:middle;" transform="matrix(1 0 0 1 1153.13 322)">Light</text>
  <text style="stroke:none;fill:black;font-family:sans-serif;font-size:13;text-anchor:middle;" transform="matrix(1 0 0 1 1449.84 322)">Regular</text>
  <text style="stroke:none;fill:black;font-family:sans-serif;font-size:13;text-anchor:middle;" transform="matrix(1 0 0 1 1746.56 322)">Medium</text>
  <text style="stroke:none;fill:black;font-family:sans-serif;font-size:13;text-anchor:middle;" transform="matrix(1 0 0 1 2043.27 322)">Semibold</text>
  <text style="stroke:none;fill:black;font-family:sans-serif;font-size:13;text-anchor:middle;" transform="matrix(1 0 0 1 2339.98 322)">Bold</text>
  <text style="stroke:none;fill:black;font-family:sans-serif;font-size:13;text-anchor:middle;" transform="matrix(1 0 0 1 2636.69 322)">Heavy</text>
  <text style="stroke:none;fill:black;font-family:sans-serif;font-size:13;text-anchor:middle;" transform="matrix(1 0 0 1 2933.4 322)">Black</text>
  <line style="fill:none;stroke:black;opacity:1;stroke-width:0.5;" x1="263" x2="3036" y1="1903" y2="1903"/>
  <g transform="matrix(1 0 0 1 263 1933)">
   <path d="M9.24805 0.830078C13.5547 0.830078 17.1387-2.74414 17.1387-7.05078C17.1387-11.3574 13.5449-14.9316 9.23828-14.9316C4.94141-14.9316 1.36719-11.3574 1.36719-7.05078C1.36719-2.74414 4.95117 0.830078 9.24805 0.830078ZM9.24805-0.654297C5.70312-0.654297 2.87109-3.49609 2.87109-7.05078C2.87109-10.6055 5.69336-13.4473 9.23828-13.4473C12.793-13.4473 15.6445-10.6055 15.6445-7.05078C15.6445-3.49609 12.8027-0.654297 9.24805-0.654297ZM5.6543-7.05078C5.6543-6.62109 5.95703-6.32812 6.40625-6.32812L8.50586-6.32812L8.50586-4.20898C8.50586-3.76953 8.79883-3.4668 9.22852-3.4668C9.67773-3.4668 9.9707-3.76953 9.9707-4.20898L9.9707-6.32812L12.0898-6.32812C12.5293-6.32812 12.832-6.62109 12.832-7.05078C12.832-7.49023 12.5293-7.79297 12.0898-7.79297L9.9707-7.79297L9.9707-9.90234C9.9707-10.3516 9.67773-10.6543 9.22852-10.6543C8.79883-10.6543 8.50586-10.3516 8.50586-9.90234L8.50586-7.79297L6.40625-7.79297C5.95703-7.79297 5.6543-7.49023 5.6543-7.05078Z"/>
  </g>
  <g transform="matrix(1 0 0 1 281.867 1933)">
   <path d="M11.709 2.91016C17.1582 2.91016 21.6699-1.61133 21.6699-7.05078C21.6699-12.5 17.1484-17.0117 11.6992-17.0117C6.25977-17.0117 1.74805-12.5 1.74805-7.05078C1.74805-1.61133 6.26953 2.91016 11.709 2.91016ZM11.709 1.25C7.09961 1.25 3.41797-2.44141 3.41797-7.05078C3.41797-11.6602 7.08984-15.3516 11.6992-15.3516C16.3086-15.3516 20.0098-11.6602 20.0098-7.05078C20.0098-2.44141 16.3184 1.25 11.709 1.25ZM7.17773-7.05078C7.17773-6.57227 7.50977-6.25 8.00781-6.25L10.8789-6.25L10.8789-3.36914C10.8789-2.88086 11.2109-2.53906 11.6895-2.53906C12.1777-2.53906 12.5195-2.87109 12.5195-3.36914L12.5195-6.25L15.4004-6.25C15.8887-6.25 16.2305-6.57227 16.2305-7.05078C16.2305-7.53906 15.8887-7.88086 15.4004-7.88086L12.5195-7.88086L12.5195-10.752C12.5195-11.25 12.1777-11.5918 11.6895-11.5918C11.2109-11.5918 10.8789-11.25 10.8789-10.752L10.8789-7.88086L8.00781-7.88086C7.50977-7.88086 7.17773-7.53906 7.17773-7.05078Z"/>
  </g>
  <g transform="matrix(1 0 0 1 305.646 1933)">
   <path d="M14.9707 5.66406C21.9336 5.66406 27.6953-0.0976562 27.6953-7.05078C27.6953-14.0137 21.9238-19.7754 14.9609-19.7754C8.00781-19.7754 2.25586-14.0137 2.25586-7.05078C2.25586-0.0976562 8.01758 5.66406 14.9707 5.66406ZM14.9707 3.84766C8.93555 3.84766 4.08203-1.01562 4.08203-7.05078C4.08203-13.0957 8.92578-17.9492 14.9609-17.9492C21.0059-17.9492 25.8691-13.0957 25.8691-7.05078C25.8691-1.01562 21.0156 3.84766 14.9707 3.84766ZM9.19922-7.05078C9.19922-6.5332 9.57031-6.17188 10.1172-6.17188L14.0625-6.17188L14.0625-2.2168C14.0625-1.67969 14.4336-1.29883 14.9512-1.29883C15.4883-1.29883 15.8594-1.66992 15.8594-2.2168L15.8594-6.17188L19.8145-6.17188C20.3516-6.17188 20.7324-6.5332 20.7324-7.05078C20.7324-7.59766 20.3613-7.96875 19.8145-7.96875L15.8594-7.96875L15.8594-11.9141C15.8594-12.4609 15.4883-12.8418 14.9512-12.8418C14.4336-12.8418 14.0625-12.4609 14.0625-11.9141L14.0625-7.96875L10.1172-7.96875C9.57031-7.96875 9.19922-7.59766 9.19922-7.05078Z"/>
  </g>
  <text style="stroke:none;fill:black;font-family:sans-serif;font-size:13;font-weight:bold;" transform="matrix(1 0 0 1 263 1953)">Design Variations</text>
  <text style="stroke:none;fill:black;font-family:sans-serif;font-size:13;" transform="matrix(1 0 0 1 263 1971)">Symbols are supported in up to nine weights and three scales.</text>
  <text style="stroke:none;fill:black;font-family:sans-serif;font-size:13;" transform="matrix(1 0 0 1 263 1989)">For optimal layout with text and other symbols, vertically align</text>
  <text style="stroke:none;fill:black;font-family:sans-serif;font-size:13;" transform="matrix(1 0 0 1 263 2007)">symbols with the adjacent text.</text>
  <line style="fill:none;stroke:#00AEEF;stroke-width:0.5;opacity:1.0;" x1="776" x2="776" y1="1919" y2="1933"/>
  <g transform="matrix(1 0 0 1 776 1933)">
   <path d="M3.31055 0.15625C3.82812 0.15625 4.08203-0.0390625 4.26758-0.585938L5.52734-4.0332L11.2891-4.0332L12.5488-0.585938C12.7344-0.0390625 12.9883 0.15625 13.4961 0.15625C14.0137 0.15625 14.3457-0.15625 14.3457-0.644531C14.3457-0.810547 14.3164-0.966797 14.2383-1.17188L9.6582-13.3691C9.43359-13.9648 9.0332-14.2676 8.4082-14.2676C7.80273-14.2676 7.39258-13.9746 7.17773-13.3789L2.59766-1.16211C2.51953-0.957031 2.49023-0.800781 2.49023-0.634766C2.49023-0.146484 2.80273 0.15625 3.31055 0.15625ZM6.00586-5.51758L8.37891-12.0898L8.42773-12.0898L10.8008-5.51758Z"/>
  </g>
  <line style="fill:none;stroke:#00AEEF;stroke-width:0.5;opacity:1.0;" x1="793.197" x2="793.197" y1="1919" y2="1933"/>
  <text style="stroke:none;fill:black;font-family:sans-serif;font-size:13;font-weight:bold;" transform="matrix(1 0 0 1 776 1953)">Margins</text>
  <text style="stroke:none;fill:black;font-family:sans-serif;font-size:13;" transform="matrix(1 0 0 1 776 1971)">Leading and trailing margins on the left and right side of each symbol</text>
  <text style="stroke:none;fill:black;font-family:sans-serif;font-size:13;" transform="matrix(1 0 0 1 776 1989)">can be adjusted by modifying the x-location of the margin guidelines.</text>
  <text style="stroke:none;fill:black;font-family:sans-serif;font-size:13;" transform="matrix(1 0 0 1 776 2007)">Modifications are automatically applied proportionally to all</text>
  <text style="stroke:none;fill:black;font-family:sans-serif;font-size:13;" transform="matrix(1 0 0 1 776 2025)">scales and weights.</text>
  <g transform="matrix(1 0 0 1 1289 1933)">
   <path d="M2.8418 1.86523L4.54102 3.57422C5.40039 4.44336 6.38672 4.38477 7.31445 3.35938L18.0078-8.42773L17.041-9.4043L6.42578 2.27539C6.07422 2.67578 5.74219 2.77344 5.27344 2.30469L4.10156 1.14258C3.63281 0.683594 3.74023 0.341797 4.14062-0.0195312L15.6152-10.8203L14.6387-11.7871L3.04688-0.898438C2.06055 0.0195312 1.98242 0.996094 2.8418 1.86523ZM9.25781-16.3281C8.83789-15.918 8.80859-15.3418 9.04297-14.9512C9.27734-14.5898 9.73633-14.3555 10.3809-14.5215C11.8457-14.8633 13.3691-14.9219 14.7949-13.9844L14.209-12.5293C13.8672-11.6992 14.043-11.1133 14.5801-10.5664L16.875-8.25195C17.3633-7.76367 17.7734-7.74414 18.3398-7.8418L19.4043-8.03711L20.0684-7.36328L20.0293-6.80664C19.9902-6.30859 20.1172-5.92773 20.6055-5.44922L21.3672-4.70703C21.8457-4.22852 22.4609-4.19922 22.9297-4.66797L25.8398-7.58789C26.3086-8.05664 26.2891-8.65234 25.8105-9.13086L25.0391-9.89258C24.5605-10.3711 24.1895-10.5273 23.7109-10.4883L23.1348-10.4395L22.4902-11.0742L22.7344-12.1973C22.8613-12.7637 22.7051-13.2031 22.1191-13.7891L19.9219-15.9766C16.582-19.2969 12.1484-19.2188 9.25781-16.3281ZM10.752-15.957C13.1836-17.7344 16.4746-17.4316 18.7012-15.2051L21.1328-12.793C21.3672-12.5586 21.4062-12.373 21.3379-12.0312L21.0156-10.5469L22.5195-9.0625L23.5059-9.12109C23.7598-9.13086 23.8379-9.11133 24.0332-8.91602L24.6094-8.33984L22.168-5.89844L21.5918-6.47461C21.3965-6.66992 21.3672-6.74805 21.377-7.01172L21.4453-7.98828L19.9512-9.47266L18.4277-9.21875C18.1055-9.15039 17.959-9.17969 17.7148-9.41406L15.7129-11.416C15.459-11.6504 15.4297-11.8164 15.5859-12.1875L16.4648-14.2773C14.9023-15.7324 12.8711-16.3574 10.8398-15.7617C10.6836-15.7227 10.625-15.8496 10.752-15.957Z"/>
  </g>
  <text style="stroke:none;fill:black;font-family:sans-serif;font-size:13;font-weight:bold;" transform="matrix(1 0 0 1 1289 1953)">Exporting</text>
  <text style="stroke:none;fill:black;font-family:sans-serif;font-size:13;" transform="matrix(1 0 0 1 1289 1971)">Symbols should be outlined when exporting to ensure the</text>
  <text style="stroke:none;fill:black;font-family:sans-serif;font-size:13;" transform="matrix(1 0 0 1 1289 1989)">design is preserved when submitting to Xcode.</text>
  <text id="template-version" style="stroke:none;fill:black;font-family:sans-serif;font-size:13;text-anchor:end;" transform="matrix(1 0 0 1 3036 1933)">Template v.4.0</text>
  <text style="stroke:none;fill:black;font-family:sans-serif;font-size:13;text-anchor:end;" transform="matrix(1 0 0 1 3036 1951)">Requires Xcode 14 or greater</text>
  <text id="descriptive-name" style="stroke:none;fill:black;font-family:sans-serif;font-size:13;text-anchor:end;" transform="matrix(1 0 0 1 3036 1969)">Generated from figure.yoga</text>
  <text style="stroke:none;fill:black;font-family:sans-serif;font-size:13;text-anchor:end;" transform="matrix(1 0 0 1 3036 1987)">Typeset at 100 points</text>
  <text style="stroke:none;fill:black;font-family:sans-serif;font-size:13;" transform="matrix(1 0 0 1 263 726)">Small</text>
  <text style="stroke:none;fill:black;font-family:sans-serif;font-size:13;" transform="matrix(1 0 0 1 263 1156)">Medium</text>
  <text style="stroke:none;fill:black;font-family:sans-serif;font-size:13;" transform="matrix(1 0 0 1 263 1586)">Large</text>
 </g>
 <g id="Guides">
  <g id="H-reference" style="fill:#27AAE1;stroke:none;" transform="matrix(1 0 0 1 339 696)">
   <path d="M0.993654 0L3.63775 0L29.3281-67.1323L30.0303-67.1323L30.0303-70.459L28.1226-70.459ZM11.6885-24.4799L46.9815-24.4799L46.2315-26.7285L12.4385-26.7285ZM55.1196 0L57.7637 0L30.6382-70.459L29.4326-70.459L29.4326-67.1323Z"/>
  </g>
  <line id="Baseline-S" style="fill:none;stroke:#27AAE1;opacity:1;stroke-width:0.5;" x1="263" x2="3036" y1="696" y2="696"/>
  <line id="Capline-S" style="fill:none;stroke:#27AAE1;opacity:1;stroke-width:0.5;" x1="263" x2="3036" y1="625.541" y2="625.541"/>
  <g id="H-reference" style="fill:#27AAE1;stroke:none;" transform="matrix(1 0 0 1 339 1126)">
   <path d="M0.993654 0L3.63775 0L29.3281-67.1323L30.0303-67.1323L30.0303-70.459L28.1226-70.459ZM11.6885-24.4799L46.9815-24.4799L46.2315-26.7285L12.4385-26.7285ZM55.1196 0L57.7637 0L30.6382-70.459L29.4326-70.459L29.4326-67.1323Z"/>
  </g>
  <line id="Baseline-M" style="fill:none;stroke:#27AAE1;opacity:1;stroke-width:0.5;" x1="263" x2="3036" y1="1126" y2="1126"/>
  <line id="Capline-M" style="fill:none;stroke:#27AAE1;opacity:1;stroke-width:0.5;" x1="263" x2="3036" y1="1055.54" y2="1055.54"/>
  <g id="H-reference" style="fill:#27AAE1;stroke:none;" transform="matrix(1 0 0 1 339 1556)">
   <path d="M0.993654 0L3.63775 0L29.3281-67.1323L30.0303-67.1323L30.0303-70.459L28.1226-70.459ZM11.6885-24.4799L46.9815-24.4799L46.2315-26.7285L12.4385-26.7285ZM55.1196 0L57.7637 0L30.6382-70.459L29.4326-70.459L29.4326-67.1323Z"/>
  </g>
  <line id="Baseline-L" style="fill:none;stroke:#27AAE1;opacity:1;stroke-width:0.5;" x1="263" x2="3036" y1="1556" y2="1556"/>
  <line id="Capline-L" style="fill:none;stroke:#27AAE1;opacity:1;stroke-width:0.5;" x1="263" x2="3036" y1="1485.54" y2="1485.54"/>
  <line id="left-margin-Regular-M" style="fill:none;stroke:#00AEEF;stroke-width:0.5;opacity:1.0;" x1="1386.96" x2="1386.96" y1="1030.79" y2="1150.12"/>
  <line id="right-margin-Regular-M" style="fill:none;stroke:#00AEEF;stroke-width:0.5;opacity:1.0;" x1="1512.73" x2="1512.73" y1="1030.79" y2="1150.12"/>
 </g>
 <g id="Symbols">
  <g id="Black-L" transform="matrix(1 0 0 1 2847.9 1556)">
   <path d="M110.674-79.6928C119.221-79.6928 126.145-86.636 126.145-95.2037C126.145-103.731 119.221-110.675 110.674-110.675C102.126-110.675 95.1623-103.731 95.1623-95.2037C95.1623-86.636 102.126-79.6928 110.674-79.6928ZM65.106 40.2552C69.4782 40.2552 73.0926 36.6419 73.0926 32.2089L73.0926-28.8716C88.1956-31.5882 101.154-41.7135 107.412-55.3504C107.798-56.3636 108.506-56.6565 110.784-55.8911L144.255-44.6191C149.629-42.8223 153.324-45.9333 154.521-49.649C155.738-53.3867 154.36-58.1962 149.329-59.8541L49.1108-93.268C43.7955-95.0064 39.9047-91.9538 38.8448-88.2965C37.5681-84.5004 39.0641-79.7493 44.0368-78.0914L80.1362-66.0372C81.2165-65.6507 81.6107-64.7171 80.8584-63.4979C77.1651-57.6576 72.0345-54.3576 65.106-54.3576L32.1376-54.3576L32.1376-87.5452C32.1376-92.239 28.8449-95.4526 24.0914-95.4526C19.3171-95.4526 16.084-92.239 16.084-87.5452L16.084-46.9119C16.084-41.8367 18.7774-39.2821 22.7927-38.6036L52.2197-33.7051L57.0974-4.73744L57.0974 32.2089C57.0974 36.6419 60.6522 40.2552 65.106 40.2552Z"/>
  </g>
  <g id="Heavy-L" transform="matrix(1 0 0 1 2552.33 1556)">
   <path d="M109.076-79.1471C117.396-79.1471 124.104-85.8803 124.104-94.2296C124.104-102.524 117.396-109.263 109.076-109.263C100.752-109.263 93.9885-102.524 93.9885-94.2296C93.9885-85.8803 100.752-79.1471 109.076-79.1471ZM64.2246 38.8239C68.3955 38.8239 71.8451 35.3799 71.8451 31.1532L71.8451-29.38C86.7676-31.9775 99.5771-41.9533 105.753-55.4093C106.177-56.4919 107.069-56.8675 109.402-56.0834L142.435-44.9515C147.58-43.2418 151.11-46.1786 152.248-49.7388C153.41-53.3347 152.087-57.911 147.294-59.4956L48.3546-92.4892C43.2545-94.1542 39.5605-91.262 38.542-87.7465C37.3293-84.1059 38.7474-79.5743 43.4957-77.9896L79.1295-66.0894C80.3251-65.6659 80.8113-64.5112 79.9946-63.1906C76.3233-57.3951 71.1316-54.0575 64.2246-54.0575L31.4054-54.0575L31.4054-87.0822C31.4054-91.5748 28.2775-94.6279 23.7346-94.6279C19.1616-94.6279 16.084-91.5748 16.084-87.0822L16.084-46.9642C16.084-42.0997 18.6401-39.6686 22.4861-39.022L51.7266-34.1501L56.5683-5.35077L56.5683 31.1532C56.5683 35.3799 59.9676 38.8239 64.2246 38.8239Z"/>
  </g>
  <g id="Bold-L" transform="matrix(1 0 0 1 2257.11 1556)">
   <path d="M106.997-78.3815C115.032-78.3815 121.487-84.8609 121.487-92.9337C121.487-100.944 115.032-107.436 106.997-107.436C98.9492-107.436 92.4318-100.944 92.4318-92.9337C92.4318-84.8609 98.9492-78.3815 106.997-78.3815ZM63.0887 36.9819C67.0211 36.9819 70.2782 33.738 70.2782 29.75L70.2782-29.9728C84.9481-32.4317 97.5508-42.2082 103.62-55.419C104.082-56.5712 105.175-57.0393 107.562-56.2396L139.997-45.2993C144.873-43.6897 148.21-46.4263 149.279-49.8018C150.372-53.2285 149.118-57.5277 144.602-59.0276L47.4098-91.4466C42.5636-93.0269 39.1005-90.3195 38.1282-86.9732C36.9924-83.5173 38.3183-79.2473 42.8048-77.7474L77.8027-66.054C79.1218-65.5919 79.7083-64.198 78.8221-62.7693C75.1889-57.0425 69.9502-53.6737 63.0887-53.6737L30.5433-53.6737L30.5433-86.4092C30.5433-90.6632 27.6079-93.5314 23.3114-93.5314C18.977-93.5314 16.084-90.6632 16.084-86.4092L16.084-46.996C16.084-42.3778 18.4785-40.0929 22.1244-39.4848L51.0598-34.6586L55.8481-6.14126L55.8481 29.75C55.8481 33.738 59.0627 36.9819 63.0887 36.9819Z"/>
  </g>
  <g id="Semibold-L" transform="matrix(1 0 0 1 1961.43 1556)">
   <path d="M105.564-77.8537C113.403-77.8537 119.682-84.1582 119.682-92.0404C119.682-99.8544 113.403-106.177 105.564-106.177C97.7065-106.177 91.3587-99.8544 91.3587-92.0404C91.3587-84.1582 97.7065-77.8537 105.564-77.8537ZM62.3057 35.712C66.0736 35.712 69.198 32.6061 69.198 28.7826L69.198-30.3814C83.6937-32.7448 96.1539-42.3839 102.149-55.4256C102.638-56.6259 103.869-57.1578 106.294-56.3473L138.317-45.539C143.006-43.9985 146.211-46.597 147.232-49.8452C148.278-53.1552 147.071-57.2635 142.746-58.705L46.7584-90.7278C42.0873-92.2497 38.7834-89.6698 37.843-86.4402C36.7602-83.1116 38.0224-79.0219 42.3285-77.5803L76.888-66.0297C78.2922-65.541 78.9479-63.9821 78.0138-62.4788C74.4069-56.7994 69.1358-53.4091 62.3057-53.4091L29.9491-53.4091L29.9491-85.9451C29.9491-90.0348 27.1464-92.7755 23.0197-92.7755C18.8496-92.7755 16.084-90.0348 16.084-85.9451L16.084-47.0179C16.084-42.5695 18.367-40.3854 21.8751-39.8038L50.6001-35.0091L55.3515-6.68622L55.3515 28.7826C55.3515 32.6061 58.4388 35.712 62.3057 35.712Z"/>
  </g>
  <g id="Medium-L" transform="matrix(1 0 0 1 1665.5 1556)">
   <path d="M104.477-77.4535C112.167-77.4535 118.314-83.6253 118.314-91.3631C118.314-99.0284 112.167-105.223 104.477-105.223C96.7642-105.223 90.545-99.0284 90.545-91.3631C90.545-83.6253 96.7642-77.4535 104.477-77.4535ZM61.712 34.7492C65.3552 34.7492 68.379 31.7478 68.379 28.0491L68.379-30.6913C82.7426-32.9823 95.0947-42.5171 101.033-55.4307C101.542-56.6673 102.878-57.2476 105.332-56.429L137.042-45.7208C141.591-44.2326 144.695-46.7264 145.68-49.8781C146.69-53.0997 145.519-57.0632 141.339-58.4604L46.2645-90.1828C41.7261-91.6605 38.5429-89.1771 37.6267-86.036C36.5842-82.8039 37.7981-78.8509 41.9674-77.4537L76.1944-66.0112C77.6632-65.5023 78.3714-63.8183 77.4009-62.2586C73.8139-56.6151 68.5183-53.2085 61.712-53.2085L29.4985-53.2085L29.4985-85.5933C29.4985-89.5582 26.7964-92.2024 22.7985-92.2024C18.7531-92.2024 16.084-89.5582 16.084-85.5933L16.084-47.0345C16.084-42.7149 18.2826-40.6072 21.686-40.0457L50.2516-35.2749L54.975-7.09943L54.975 28.0491C54.975 31.7478 57.9658 34.7492 61.712 34.7492Z"/>
  </g>
  <g id="Regular-L" transform="matrix(1 0 0 1 1369.8 1556)">
   <path d="M103.059-76.9315C110.556-76.9315 116.529-82.9303 116.529-90.4795C116.529-97.9509 110.556-103.977 103.059-103.977C95.5351-103.977 89.4836-97.9509 89.4836-90.4795C89.4836-82.9303 95.5351-76.9315 103.059-76.9315ZM60.9375 33.4932C64.4181 33.4932 67.3107 30.6283 67.3107 27.0924L67.3107-31.0955C81.5021-33.292 93.7131-42.6909 99.5787-55.4373C100.114-56.7214 101.587-57.3648 104.077-56.5355L135.38-45.9579C139.745-44.538 142.718-46.8953 143.656-49.921C144.618-53.0272 143.495-56.8018 139.504-58.1413L45.6203-89.4719C41.255-90.8918 38.2293-88.5346 37.3447-85.5088C36.3545-82.4026 37.5055-78.628 41.4963-77.2885L75.2897-65.9872C76.8428-65.4519 77.6193-63.6048 76.6015-61.9713C73.0405-56.3746 67.7128-52.9468 60.9375-52.9468L28.9108-52.9468L28.9108-85.1344C28.9108-88.9367 26.3399-91.4548 22.5099-91.4548C18.6272-91.4548 16.084-88.9367 16.084-85.1344L16.084-47.0561C16.084-42.9045 18.1724-40.8965 21.4394-40.3613L49.797-35.6216L54.4839-7.6384L54.4839 27.0924C54.4839 30.6283 57.3488 33.4932 60.9375 33.4932Z"/>
  </g>
  <g id="Light-L" transform="matrix(1 0 0 1 1074.63 1556)">
   <path d="M100.979-75.8246C108.266-75.8246 114.144-81.6897 114.144-89.01C114.144-96.3096 108.266-102.221 100.979-102.221C93.6457-102.221 87.7469-96.3096 87.7469-89.01C87.7469-81.6897 93.6457-75.8246 100.979-75.8246ZM59.8687 31.7756C63.2539 31.7756 66.0892 28.987 66.0892 25.5083L66.0892-31.2673C79.918-33.4256 91.8428-42.5955 97.5938-55.0365C98.11-56.2634 99.5445-56.9067 101.978-56.1156L132.517-45.7861C136.787-44.3853 139.703-46.7044 140.621-49.6538C141.526-52.6837 140.46-56.3438 136.546-57.6642L44.9141-88.2505C40.6443-89.6513 37.6949-87.3322 36.8103-84.3828C35.8583-81.3529 36.9711-77.6928 40.8856-76.3724L73.8583-65.3192C75.3732-64.803 76.1307-63.0131 75.132-61.4178C71.6664-55.9548 66.4913-52.6032 59.8687-52.6032L28.6054-52.6032L28.6054-84.0274C28.6054-87.7343 26.0918-90.2142 22.3382-90.2142C18.5509-90.2142 16.084-87.7343 16.084-84.0274L16.084-46.8653C16.084-42.79 18.1151-40.8393 21.3058-40.3231L48.9763-35.6979L53.5678-8.38273L53.5678 25.5083C53.5678 28.987 56.3564 31.7756 59.8687 31.7756Z"/>
  </g>
  <g id="Thin-L" transform="matrix(1 0 0 1 779.947 1556)">
   <path d="M98.2276-74.3606C105.237-74.3606 110.989-80.049 110.989-87.0664C110.989-94.1388 105.237-99.8992 98.2276-99.8992C91.1468-99.8992 85.4499-94.1388 85.4499-87.0664C85.4499-80.049 91.1468-74.3606 98.2276-74.3606ZM58.4552 29.5038C61.7142 29.5038 64.4738 26.8162 64.4738 23.4133L64.4738-31.4945C77.8229-33.6023 89.3691-42.4693 94.9687-54.5064C95.4596-55.6576 96.8436-56.3009 99.2011-55.5603L128.731-45.559C132.875-44.1834 135.715-46.452 136.608-49.3005C137.437-52.2293 136.447-55.738 132.633-57.0331L43.9802-86.635C39.8366-88.0106 36.9881-85.742 36.1035-82.8935C35.202-79.9646 36.2643-76.456 40.0778-75.1608L71.9652-64.4357C73.4296-63.9448 74.1618-62.2306 73.1884-60.6858C69.849-55.3994 64.8759-52.1489 58.4552-52.1489L28.2015-52.1489L28.2015-82.5634C28.2015-86.1441 25.7636-88.5735 22.111-88.5735C18.4499-88.5735 16.084-86.1441 16.084-82.5634L16.084-46.6129C16.084-42.6385 18.0394-40.7636 21.1291-40.2726L47.8909-35.7989L52.3562-9.36716L52.3562 23.4133C52.3562 26.8162 55.0438 29.5038 58.4552 29.5038Z"/>
  </g>
  <g id="Ultralight-L" transform="matrix(1 0 0 1 484.277 1556)">
   <path d="M96.8184-73.6107C103.685-73.6107 109.372-79.2086 109.372-86.0708C109.372-93.0269 103.685-98.7098 96.8184-98.7098C89.8668-98.7098 84.2734-93.0269 84.2734-86.0708C84.2734-79.2086 89.8668-73.6107 96.8184-73.6107ZM57.7312 28.3402C60.9255 28.3402 63.6463 25.7043 63.6463 22.3402L63.6463-31.6108C76.7498-33.6928 88.1021-42.4046 93.6241-54.2349C94.1021-55.3473 95.4603-55.9906 97.779-55.2758L126.792-45.4426C130.871-44.08 133.672-46.3227 134.552-49.1195C135.343-51.9966 134.391-55.4277 130.629-56.7099L43.5018-85.8076C39.4228-87.1702 36.6261-84.9274 35.7415-82.1307C34.8659-79.2536 35.9023-75.8225 39.6641-74.5402L70.9955-63.9832C72.4341-63.5052 73.1534-61.8298 72.1928-60.3109C68.9181-55.115 64.0484-51.9162 57.7312-51.9162L27.9947-51.9162L27.9947-81.8135C27.9947-85.3295 25.5956-87.7332 21.9946-87.7332C18.3982-87.7332 16.084-85.3295 16.084-81.8135L16.084-46.4836C16.084-42.561 18.0006-40.7248 21.0386-40.2468L47.335-35.8506L51.7356-9.87138L51.7356 22.3402C51.7356 25.7043 54.3715 28.3402 57.7312 28.3402Z"/>
  </g>
  <g id="Black-M" transform="matrix(1 0 0 1 2866.39 1126)">
   <path d="M86.8355-69.996C93.6245-69.996 99.1604-75.5377 99.1604-82.3321C99.1604-89.1153 93.6245-94.6567 86.8355-94.6567C80.0469-94.6567 74.4997-89.1153 74.4997-82.3321C74.4997-75.5377 80.0469-69.996 86.8355-69.996ZM51.053 24.249C54.6004 24.249 57.5346 21.3145 57.5346 17.7106L57.5346-29.8901C69.3414-32.0919 79.4701-40.0339 84.373-50.7131C84.6381-51.4306 85.0231-51.5864 86.7322-51.0147L112.937-42.195C117.284-40.7307 120.281-43.2855 121.257-46.2875C122.239-49.2947 121.132-53.2058 117.04-54.5507L38.6023-80.6983C34.3125-82.1055 31.1392-79.6078 30.2826-76.6629C29.2437-73.5986 30.4643-69.7446 34.4994-68.3997L62.7561-58.9622C63.4889-58.697 63.7125-58.1715 63.1877-57.3193C60.3203-52.7743 56.4187-50.2601 51.053-50.2601L25.4864-50.2601L25.4864-76.0085C25.4864-79.8051 22.8014-82.4275 18.948-82.4275C15.0891-82.4275 12.4609-79.8051 12.4609-76.0085L12.4609-44.2095C12.4609-40.1069 14.6579-38.0293 17.9039-37.4787L40.7695-33.6764L44.5663-11.1797L44.5663 17.7106C44.5663 21.3145 47.4436 24.249 51.053 24.249Z"/>
  </g>
  <g id="Heavy-M" transform="matrix(1 0 0 1 2570.65 1126)">
   <path d="M85.4654-69.5647C92.051-69.5647 97.3855-74.9134 97.3855-81.5154C97.3855-88.0869 92.051-93.4378 85.4654-93.4378C78.8775-93.4378 73.5125-88.0869 73.5125-81.5154C73.5125-74.9134 78.8775-69.5647 85.4654-69.5647ZM50.29 23.0083C53.6494 23.0083 56.4277 20.2323 56.4277 16.8247L56.4277-30.3712C68.0916-32.4602 78.1011-40.2771 82.9348-50.8077C83.2378-51.5983 83.8063-51.835 85.5751-51.2414L111.422-42.5358C115.554-41.1549 118.394-43.5429 119.314-46.4C120.248-49.2756 119.19-52.9692 115.323-54.2443L37.9283-80.0496C33.8399-81.3869 30.8521-79.0425 30.0358-76.2291C29.0559-73.3098 30.2041-69.6598 34.0268-68.3848L61.904-59.0748C62.753-58.7718 63.0684-58.0249 62.4788-57.07C59.6242-52.5563 55.6487-49.9985 50.29-49.9985L24.7987-49.9985L24.7987-75.6581C24.7987-79.2667 22.2696-81.7358 18.6151-81.7358C14.9441-81.7358 12.4609-79.2667 12.4609-75.6581L12.4609-44.2783C12.4609-40.3745 14.5289-38.4124 17.6165-37.8913L40.3631-34.1044L44.1336-11.7107L44.1336 16.8247C44.1336 20.2323 46.866 23.0083 50.29 23.0083Z"/>
  </g>
  <g id="Bold-M" transform="matrix(1 0 0 1 2275.03 1126)">
   <path d="M83.9327-69.0823C90.2909-69.0823 95.4-74.215 95.4-80.6018C95.4-86.9365 90.2909-92.0743 83.9327-92.0743C77.5693-92.0743 72.4081-86.9365 72.4081-80.6018C72.4081-74.215 77.5693-69.0823 83.9327-69.0823ZM49.4365 21.6204C52.5856 21.6204 55.1895 19.0216 55.1895 15.8336L55.1895-30.9095C66.6936-32.8721 76.5697-40.5492 81.3259-50.9134C81.6713-51.7859 82.4451-52.113 84.2807-51.4951L109.727-42.9171C113.618-41.6294 116.284-43.8309 117.141-46.5257C118.021-49.2543 117.017-52.7046 113.403-53.9014L37.1743-79.3239C33.3113-80.583 30.5308-78.4101 29.7598-75.7438C28.8459-72.9866 29.913-69.5648 33.4982-68.3681L60.9509-59.2008C61.9298-58.8554 62.3479-57.8608 61.6858-56.7911C58.8455-52.3125 54.7873-49.7059 49.4365-49.7059L24.0294-49.7059L24.0294-75.2661C24.0294-78.6645 21.6747-80.962 18.2426-80.962C14.7819-80.962 12.4609-78.6645 12.4609-75.2661L12.4609-44.3552C12.4609-40.6739 14.3847-38.841 17.295-38.3529L39.9085-34.5831L43.6496-12.3046L43.6496 15.8336C43.6496 19.0216 46.2198 21.6204 49.4365 21.6204Z"/>
  </g>
  <g id="Semibold-M" transform="matrix(1 0 0 1 1979.07 1126)">
   <path d="M82.876-68.7497C89.0775-68.7497 94.0313-73.7335 94.0313-79.9719C94.0313-86.1434 89.0775-91.1343 82.876-91.1343C76.6675-91.1343 71.6467-86.1434 71.6467-79.9719C71.6467-73.7335 76.6675-68.7497 82.876-68.7497ZM48.848 20.6635C51.8522 20.6635 54.3359 18.187 54.3359 15.1504L54.3359-31.2805C65.7298-33.1561 75.514-40.7368 80.2168-50.9863C80.5914-51.9152 81.5067-52.3047 83.3884-51.6699L108.558-43.1799C112.284-41.9566 114.83-44.0294 115.643-46.6124C116.486-49.2396 115.518-52.5222 112.079-53.6651L36.6545-78.8236C32.9468-80.0287 30.3093-77.9741 29.5695-75.4092C28.7011-72.7639 29.7123-69.4994 33.1337-68.3565L60.2939-59.2876C61.3623-58.9131 61.8512-57.7477 61.1391-56.5988C58.3086-52.1445 54.1935-49.5041 48.848-49.5041L23.499-49.5041L23.499-74.9959C23.499-78.2493 21.2646-80.4286 17.9859-80.4286C14.6701-80.4286 12.4609-78.2493 12.4609-74.9959L12.4609-44.4082C12.4609-40.8803 14.2853-39.1364 17.0734-38.6711L39.5951-34.9131L43.316-12.714L43.316 15.1504C43.316 18.187 45.7744 20.6635 48.848 20.6635Z"/>
  </g>
  <g id="Medium-M" transform="matrix(1 0 0 1 1682.92 1126)">
   <path d="M82.0748-68.4975C88.1574-68.4975 92.9934-73.3684 92.9934-79.4944C92.9934-85.5421 88.1574-90.4216 82.0748-90.4216C75.9837-90.4216 71.0694-85.5421 71.0694-79.4944C71.0694-73.3684 75.9837-68.4975 82.0748-68.4975ZM48.4018 19.938C51.2962 19.938 53.6887 17.5541 53.6887 14.6323L53.6887-31.5619C64.999-33.3714 74.7135-40.879 79.3758-51.0416C79.7725-52.0133 80.7952-52.4501 82.7118-51.8025L107.672-43.3792C111.272-42.2046 113.727-44.1799 114.507-46.6782C115.322-49.2284 114.382-52.3839 111.075-53.4859L36.2604-78.4442C32.6705-79.6085 30.1414-77.6435 29.4252-75.1555C28.5913-72.595 29.5601-69.4498 32.8574-68.3478L59.7956-59.3535C60.932-58.9568 61.4745-57.662 60.7246-56.453C57.9015-52.017 53.7433-49.3511 48.4018-49.3511L23.0969-49.3511L23.0969-74.791C23.0969-77.9345 20.9536-80.0241 17.7912-80.0241C14.5854-80.0241 12.4609-77.9345 12.4609-74.791L12.4609-44.4484C12.4609-41.0368 14.2099-39.3604 16.9053-38.9123L39.3574-35.1634L43.063-13.0244L43.063 14.6323C43.063 17.5541 45.4366 19.938 48.4018 19.938Z"/>
  </g>
  <g id="Regular-M" transform="matrix(1 0 0 1 1386.96 1126)">
   <path d="M81.0298-68.1686C86.9573-68.1686 91.6397-72.8922 91.6397-78.8715C91.6397-84.7577 86.9573-89.4919 81.0298-89.4919C75.0918-89.4919 70.3164-84.7577 70.3164-78.8715C70.3164-72.8922 75.0918-68.1686 81.0298-68.1686ZM47.8199 18.9917C50.5708 18.9917 52.8445 16.7286 52.8445 13.9566L52.8445-31.9288C64.0457-33.6523 73.6693-41.0645 78.2789-51.1137C78.7044-52.1412 79.8671-52.6396 81.8292-51.9754L106.516-43.6391C109.952-42.5282 112.288-44.3762 113.025-46.7639C113.804-49.2139 112.901-52.2035 109.765-53.2521L35.7463-77.9494C32.31-79.0604 29.9223-77.2123 29.237-74.8247C28.4481-72.3747 29.3616-69.385 32.4969-68.3364L59.1458-59.4394C60.3708-59.0138 60.9833-57.5502 60.1839-56.2629C57.3706-51.8508 53.156-49.1516 47.8199-49.1516L22.5724-49.1516L22.5724-74.5237C22.5724-77.5239 20.548-79.4965 17.5373-79.4965C14.4748-79.4965 12.4609-77.5239 12.4609-74.5237L12.4609-44.5008C12.4609-41.2409 14.1115-39.6526 16.6861-39.227L39.0475-35.4898L42.733-13.4294L42.733 13.9566C42.733 16.7286 44.9961 18.9917 47.8199 18.9917Z"/>
  </g>
  <g id="Light-M" transform="matrix(1 0 0 1 1091.62 1126)">
   <path d="M79.1647-67.1762C84.904-67.1762 89.5008-71.78 89.5008-77.5539C89.5008-83.2862 84.904-87.9177 79.1647-87.9177C73.3978-87.9177 68.7593-83.2862 68.7593-77.5539C68.7593-71.78 73.3978-67.1762 79.1647-67.1762ZM46.8617 17.4517C49.5271 17.4517 51.7494 15.2571 51.7494 12.5364L51.7494-32.0828C62.6255-33.7721 71.9924-40.979 76.4993-50.7544C76.9078-51.7305 78.0363-52.229 79.947-51.599L103.949-43.4851C107.3-42.3913 109.585-44.2051 110.305-46.5244C111.032-48.9059 110.18-51.7929 107.113-52.8244L35.1132-76.8543C31.7625-77.9482 29.4432-76.1343 28.7579-73.8151C28.0032-71.4336 28.8825-68.5466 31.9494-67.5151L57.8625-58.8405C59.0532-58.4321 59.6486-57.0197 58.8663-55.7667C56.1386-51.4743 52.0609-48.8436 46.8617-48.8436L22.2986-48.8436L22.2986-73.5312C22.2986-76.4459 20.3256-78.3843 17.3833-78.3843C14.4063-78.3843 12.4609-76.4459 12.4609-73.5312L12.4609-44.3297C12.4609-41.1382 14.0602-39.6013 16.5663-39.1928L38.3117-35.5582L41.9117-14.0967L41.9117 12.5364C41.9117 15.2571 44.1063 17.4517 46.8617 17.4517Z"/>
  </g>
  <g id="Thin-M" transform="matrix(1 0 0 1 796.733 1126)">
   <path d="M76.698-65.8636C82.1883-65.8636 86.672-70.309 86.672-75.8114C86.672-81.34 82.1883-85.8357 76.698-85.8357C71.1574-85.8357 66.6999-81.34 66.6999-75.8114C66.6999-70.309 71.1574-65.8636 76.698-65.8636ZM45.5944 15.415C48.1466 15.415 50.301 13.3109 50.301 10.658L50.301-32.2865C60.7472-33.9305 69.7746-40.8658 74.1457-50.2791C74.5316-51.1874 75.6148-51.6858 77.4577-51.1011L100.555-43.2814C103.792-42.2103 106.009-43.9788 106.706-46.2075C107.365-48.4985 106.582-51.2497 103.605-52.2586L34.2759-75.406C31.0383-76.4772 28.8096-74.7086 28.1242-72.4799C27.4149-70.1889 28.2488-67.4377 31.2252-66.4288L56.1652-58.0485C57.3107-57.6626 57.8834-56.3182 57.1238-55.1104C54.5092-50.9765 50.6125-48.4362 45.5944-48.4362L21.9365-48.4362L21.9365-72.2187C21.9365-75.0201 20.0314-76.9133 17.1796-76.9133C14.3158-76.9133 12.4609-75.0201 12.4609-72.2187L12.4609-44.1034C12.4609-41.0024 13.9923-39.5334 16.4079-39.1476L37.3386-35.6487L40.8254-14.9793L40.8254 10.658C40.8254 13.3109 42.9295 15.415 45.5944 15.415Z"/>
  </g>
  <g id="Ultralight-M" transform="matrix(1 0 0 1 500.955 1126)">
   <path d="M75.4345-65.1913C80.7974-65.1913 85.2231-69.5556 85.2231-74.9188C85.2231-80.3431 80.7974-84.7693 75.4345-84.7693C70.0098-84.7693 65.6451-80.3431 65.6451-74.9188C65.6451-69.5556 70.0098-65.1913 75.4345-65.1913ZM44.9452 14.3718C47.4395 14.3718 49.5592 12.314 49.5592 9.69596L49.5592-32.3908C59.7851-34.0116 68.6387-40.8079 72.9403-50.0357C73.3145-50.9092 74.3745-51.4077 76.1826-50.8461L98.8161-43.1771C101.996-42.1175 104.178-43.8629 104.863-46.0452C105.488-48.2899 104.739-50.9715 101.809-51.9688L33.847-74.6641C30.6674-75.7237 28.485-73.9784 27.7997-71.796C27.1135-69.5514 27.9243-66.8697 30.8543-65.8724L55.2958-57.6428C56.4181-57.2685 56.9793-55.9588 56.2312-54.7742C53.6746-50.7215 49.8707-48.2276 44.9452-48.2276L21.7511-48.2276L21.7511-71.5464C21.7511-74.2899 19.8807-76.1599 17.0753-76.1599C14.2695-76.1599 12.4609-74.2899 12.4609-71.5464L12.4609-43.9875C12.4609-40.9329 13.9575-39.4986 16.3268-39.1244L36.8402-35.6951L40.269-15.4313L40.269 9.69596C40.269 12.314 42.3268 14.3718 44.9452 14.3718Z"/>
  </g>
  <g id="Black-S" transform="matrix(1 0 0 1 2880.67 696)">
   <path d="M68.3594-62.5488C73.7305-62.5488 78.125-66.9434 78.125-72.3145C78.125-77.6855 73.7305-82.0801 68.3594-82.0801C62.9883-82.0801 58.5938-77.6855 58.5938-72.3145C58.5938-66.9434 62.9883-62.5488 68.3594-62.5488ZM40.1855 11.6699C43.0176 11.6699 45.3613 9.32617 45.3613 6.44531L45.3613-30.9082C54.6387-32.666 62.5977-38.916 66.4551-47.3145C66.6504-47.8516 66.8945-47.9492 68.2129-47.5098L88.8184-40.5762C92.2852-39.4043 94.6777-41.4551 95.459-43.8477C96.2402-46.2402 95.3613-49.3652 92.0898-50.4395L30.4199-70.9961C27.002-72.1191 24.4629-70.1172 23.7793-67.7734C22.9492-65.332 23.9258-62.2559 27.1484-61.1816L49.3652-53.7598C49.9023-53.5645 50.0488-53.2227 49.6582-52.5879C47.4121-49.0234 44.3848-47.0703 40.1855-47.0703L20.166-47.0703L20.166-67.2363C20.166-70.2637 18.0176-72.3633 14.9414-72.3633C11.8652-72.3633 9.76562-70.2637 9.76562-67.2363L9.76562-42.2363C9.76562-38.9648 11.5234-37.3047 14.1113-36.8652L32.0312-33.8867L35.0098-16.2598L35.0098 6.44531C35.0098 9.32617 37.3047 11.6699 40.1855 11.6699Z"/>
  </g>
  <g id="Heavy-S" transform="matrix(1 0 0 1 2584.61 696)">
   <path d="M67.4259-62.3068C72.6472-62.3068 76.8804-66.5515 76.8804-71.7843C76.8804-76.9941 72.6472-81.2388 67.4259-81.2388C62.2046-81.2388 57.9484-76.9941 57.9484-71.7843C57.9484-66.5515 62.2046-62.3068 67.4259-62.3068ZM39.6554 10.8056C42.3376 10.8056 44.5546 8.58861 44.5546 5.86909L44.5546-31.3C53.7513-32.9657 61.6411-39.135 65.4524-47.4412C65.6823-48.0475 66.0878-48.2143 67.4638-47.7518L87.8503-40.8873C91.1442-39.7846 93.41-41.6971 94.1452-43.9744C94.8919-46.2633 94.0475-49.2154 90.9604-50.232L29.9244-70.5812C26.6677-71.6466 24.2785-69.7715 23.6295-67.5314C22.8455-65.2053 23.7644-62.2904 26.8142-61.2738L48.8005-53.9326C49.4414-53.7027 49.6685-53.165 49.2203-52.4381C46.9742-48.8851 43.8662-46.8859 39.6554-46.8859L19.6128-46.8859L19.6128-67.0635C19.6128-69.941 17.5912-71.9138 14.6763-71.9138C11.75-71.9138 9.76562-69.941 9.76562-67.0635L9.76562-42.317C9.76562-39.2069 11.4197-37.6389 13.8808-37.2225L31.7777-34.244L34.7447-16.6285L34.7447 5.86909C34.7447 8.58861 36.9244 10.8056 39.6554 10.8056Z"/>
  </g>
  <g id="Bold-S" transform="matrix(1 0 0 1 2288.64 696)">
   <path d="M66.3818-62.0361C71.4355-62.0361 75.4883-66.1133 75.4883-71.1914C75.4883-76.2207 71.4355-80.2979 66.3818-80.2979C61.3281-80.2979 57.2266-76.2207 57.2266-71.1914C57.2266-66.1133 61.3281-62.0361 66.3818-62.0361ZM39.0625 9.83887C41.5771 9.83887 43.6523 7.76367 43.6523 5.22461L43.6523-31.7383C52.7588-33.3008 60.5713-39.3799 64.3311-47.583C64.5996-48.2666 65.1855-48.5107 66.626-48.0225L86.7676-41.2354C89.8682-40.21 91.9922-41.9678 92.6758-44.1162C93.3838-46.2891 92.5781-49.0479 89.6973-50L29.3701-70.1172C26.2939-71.1182 24.0723-69.3848 23.4619-67.2607C22.7295-65.0635 23.584-62.3291 26.4404-61.377L48.1689-54.126C48.9258-53.8574 49.2432-53.1006 48.7305-52.2705C46.4844-48.7305 43.2861-46.6797 39.0625-46.6797L18.9941-46.6797L18.9941-66.8701C18.9941-69.5801 17.1143-71.4111 14.3799-71.4111C11.6211-71.4111 9.76562-69.5801 9.76562-66.8701L9.76562-42.4072C9.76562-39.4775 11.3037-38.0127 13.623-37.6221L31.4941-34.6436L34.4482-17.041L34.4482 5.22461C34.4482 7.76367 36.499 9.83887 39.0625 9.83887Z"/>
  </g>
  <g id="Semibold-S" transform="matrix(1 0 0 1 1992.43 696)">
   <path d="M65.662-61.8495C70.6002-61.8495 74.5285-65.8111 74.5285-70.7826C74.5285-75.6875 70.6002-79.6491 65.662-79.6491C60.7238-79.6491 56.7289-75.6875 56.7289-70.7826C56.7289-65.8111 60.7238-61.8495 65.662-61.8495ZM38.6537 9.17236C41.0528 9.17236 43.0303 7.19492 43.0303 4.78027L43.0303-32.0404C52.0745-33.5318 59.8337-39.5487 63.5579-47.6808C63.8531-48.4177 64.5635-48.7151 66.0483-48.2091L86.0211-41.4753C88.9884-40.5032 91.0146-42.1544 91.6627-44.214C92.344-46.3068 91.565-48.9323 88.8264-49.84L28.988-69.7973C26.0362-70.7538 23.9301-69.1182 23.3464-67.0741C22.6495-64.9657 23.4596-62.3558 26.1827-61.448L47.7335-54.2593C48.5703-53.9641 48.9499-53.0562 48.3928-52.155C46.1467-48.6238 42.8862-46.5375 38.6537-46.5375L18.5676-46.5375L18.5676-66.7368C18.5676-69.3312 16.7854-71.0646 14.1755-71.0646C11.5322-71.0646 9.76562-69.3312 9.76562-66.7368L9.76562-42.4694C9.76562-39.6642 11.2237-38.2704 13.4453-37.8976L31.2986-34.919L34.2438-17.3254L34.2438 4.78027C34.2438 7.19492 36.2058 9.17236 38.6537 9.17236Z"/>
  </g>
  <g id="Medium-S" transform="matrix(1 0 0 1 1696.1 696)">
   <path d="M65.1162-61.708C69.9668-61.708 73.8008-65.582 73.8008-70.4727C73.8008-75.2832 69.9668-79.1572 65.1162-79.1572C60.2656-79.1572 56.3516-75.2832 56.3516-70.4727C56.3516-65.582 60.2656-61.708 65.1162-61.708ZM38.3438 8.66699C40.6553 8.66699 42.5586 6.76367 42.5586 4.44336L42.5586-32.2695C51.5557-33.707 59.2744-39.6768 62.9717-47.7549C63.2871-48.5322 64.0918-48.8701 65.6104-48.3506L85.4551-41.6572C88.3213-40.7256 90.2734-42.2959 90.8945-44.2881C91.5557-46.3203 90.7969-48.8447 88.166-49.7188L28.6982-69.5547C25.8408-70.4775 23.8223-68.916 23.2588-66.9326C22.5889-64.8916 23.3652-62.376 25.9873-61.502L47.4033-54.3604C48.3008-54.0449 48.7275-53.0225 48.1367-52.0674C45.8906-48.543 42.583-46.4297 38.3438-46.4297L18.2441-46.4297L18.2441-66.6357C18.2441-69.1426 16.5361-70.8018 14.0205-70.8018C11.4648-70.8018 9.76562-69.1426 9.76562-66.6357L9.76562-42.5166C9.76562-39.8057 11.1631-38.4658 13.3105-38.1064L31.1504-35.1279L34.0889-17.541L34.0889 4.44336C34.0889 6.76367 35.9834 8.66699 38.3438 8.66699Z"/>
  </g>
  <g id="Regular-S" transform="matrix(1 0 0 1 1399.89 696)">
   <path d="M64.4043-61.5234C69.1406-61.5234 72.8516-65.2832 72.8516-70.0684C72.8516-74.7559 69.1406-78.5156 64.4043-78.5156C59.668-78.5156 55.8594-74.7559 55.8594-70.0684C55.8594-65.2832 59.668-61.5234 64.4043-61.5234ZM37.9395 8.00781C40.1367 8.00781 41.9434 6.20117 41.9434 4.00391L41.9434-32.5684C50.8789-33.9355 58.5449-39.8438 62.207-47.8516C62.5488-48.6816 63.4766-49.0723 65.0391-48.5352L84.7168-41.8945C87.4512-41.0156 89.3066-42.4805 89.8926-44.3848C90.5273-46.3379 89.7949-48.7305 87.3047-49.5605L28.3203-69.2383C25.5859-70.1172 23.6816-68.6523 23.1445-66.748C22.5098-64.7949 23.2422-62.4023 25.7324-61.5723L46.9727-54.4922C47.9492-54.1504 48.4375-52.9785 47.8027-51.9531C45.5566-48.4375 42.1875-46.2891 37.9395-46.2891L17.8223-46.2891L17.8223-66.5039C17.8223-68.8965 16.2109-70.459 13.8184-70.459C11.377-70.459 9.76562-68.8965 9.76562-66.5039L9.76562-42.5781C9.76562-39.9902 11.084-38.7207 13.1348-38.3789L30.957-35.4004L33.8867-17.8223L33.8867 4.00391C33.8867 6.20117 35.6934 8.00781 37.9395 8.00781Z"/>
  </g>
  <g id="Light-S" transform="matrix(1 0 0 1 1104.4 696)">
   <path d="M62.7544-60.6455C67.3242-60.6455 70.9595-64.2993 70.9595-68.9028C70.9595-73.4541 67.3242-77.1231 62.7544-77.1231C58.1694-77.1231 54.4819-73.4541 54.4819-68.9028C54.4819-64.2993 58.1694-60.6455 62.7544-60.6455ZM37.0918 6.64552C39.2134 6.64552 40.9746 4.89942 40.9746 2.74757L40.9746-32.7046C49.6226-34.0415 57.0615-39.7681 60.6328-47.5337C60.9595-48.3184 61.8569-48.709 63.374-48.2022L82.4463-41.7583C85.105-40.8945 86.9151-42.3291 87.4859-44.1729C88.0752-46.0654 87.3882-48.3672 84.9585-49.1821L27.7603-68.2695C25.1016-69.1333 23.2578-67.6987 22.7207-65.855C22.1162-63.9624 22.8184-61.6607 25.2481-60.8457L45.8374-53.9624C46.7837-53.6357 47.2568-52.5093 46.6372-51.5142C44.4668-48.1045 41.2188-46.0166 37.0918-46.0166L17.5801-46.0166L17.5801-65.626C17.5801-67.9429 16.0142-69.4751 13.6821-69.4751C11.3164-69.4751 9.76562-67.9429 9.76562-65.626L9.76562-42.4268C9.76562-39.8994 11.0386-38.6753 13.0288-38.3486L30.3062-35.4609L33.1602-18.4126L33.1602 2.74757C33.1602 4.89942 34.9063 6.64552 37.0918 6.64552Z"/>
  </g>
  <g id="Thin-S" transform="matrix(1 0 0 1 809.301 696)">
   <path d="M60.5723-59.4844C64.9219-59.4844 68.4571-62.9981 68.4571-67.3613C68.4571-71.7324 64.9219-75.2813 60.5723-75.2813C56.1875-75.2813 52.6602-71.7324 52.6602-67.3613C52.6602-62.9981 56.1875-59.4844 60.5723-59.4844ZM35.9707 4.84377C37.9922 4.84377 39.6934 3.17776 39.6934 1.08596L39.6934-32.8848C47.961-34.1816 55.0996-39.668 58.5508-47.1133C58.8575-47.8379 59.7149-48.2285 61.1719-47.7617L79.4434-41.5781C82.002-40.7344 83.752-42.1289 84.3028-43.8926C84.8321-45.7051 84.2051-47.8867 81.8555-48.6816L27.0195-66.9883C24.4609-67.832 22.6973-66.4375 22.1602-64.6738C21.5957-62.8613 22.2578-60.6797 24.6074-59.8848L44.336-53.2617C45.2422-52.9551 45.6953-51.8887 45.0957-50.9336C43.0254-47.6641 39.9375-45.6563 35.9707-45.6563L17.2598-45.6563L17.2598-64.4649C17.2598-66.6817 15.7539-68.1738 13.502-68.1738C11.2363-68.1738 9.76562-66.6817 9.76562-64.4649L9.76562-42.2266C9.76562-39.7793 10.9785-38.6152 12.8887-38.3086L29.4453-35.541L32.1992-19.1933L32.1992 1.08596C32.1992 3.17776 33.8652 4.84377 35.9707 4.84377Z"/>
  </g>
  <g id="Ultralight-S" transform="matrix(1 0 0 1 513.415 696)">
   <path d="M59.4546-58.8897C63.6914-58.8897 67.1753-62.3316 67.1753-66.5718C67.1753-70.8506 63.6914-74.3379 59.4546-74.3379C55.1724-74.3379 51.7271-70.8506 51.7271-66.5718C51.7271-62.3316 55.1724-58.8897 59.4546-58.8897ZM35.3965 3.92093C37.3667 3.92093 39.0371 2.29593 39.0371 0.234893L39.0371-32.977C47.1099-34.2534 54.0948-39.6167 57.4844-46.898C57.7808-47.5918 58.6177-47.9824 60.044-47.5361L77.9053-41.4858C80.4127-40.6523 82.1319-42.0264 82.6724-43.749C83.171-45.5205 82.5748-47.6406 80.2662-48.4253L26.6401-66.3321C24.1328-67.1656 22.4102-65.7915 21.8731-64.0689C21.3291-62.2974 21.9707-60.1773 24.2793-59.3926L43.5669-52.9028C44.4527-52.6065 44.8955-51.5708 44.3062-50.6362C42.2871-47.4385 39.2813-45.4717 35.3965-45.4717L17.0957-45.4717L17.0957-63.8701C17.0957-66.0357 15.6206-67.5073 13.4097-67.5073C11.1953-67.5073 9.76562-66.0357 9.76562-63.8701L9.76562-42.124C9.76562-39.7178 10.9478-38.5845 12.8169-38.2881L29.0044-35.582L31.707-19.5932L31.707 0.234893C31.707 2.29593 33.332 3.92093 35.3965 3.92093Z"/>
  </g>
 </g>
</svg>
