<?xml version="1.0" encoding="UTF-8"?>
<!--Generator: Apple Native CoreSVG 175.5-->
<!DOCTYPE svg
PUBLIC "-//W3C//DTD SVG 1.1//EN"
       "http://www.w3.org/Graphics/SVG/1.1/DTD/svg11.dtd">
<svg version="1.1" xmlns="http://www.w3.org/2000/svg" xmlns:xlink="http://www.w3.org/1999/xlink" width="3300" height="2200">
 <!--glyph: "uni101529.medium", point size: 100.0, font version: "18.0d12e2", template writer version: "101"-->
 <g id="Notes">
  <rect height="2200" id="artboard" style="fill:white;opacity:1" width="3300" x="0" y="0"/>
  <line style="fill:none;stroke:black;opacity:1;stroke-width:0.5;" x1="263" x2="3036" y1="292" y2="292"/>
  <text style="stroke:none;fill:black;font-family:sans-serif;font-size:13;font-weight:bold;" transform="matrix(1 0 0 1 263 322)">Weight/Scale Variations</text>
  <text style="stroke:none;fill:black;font-family:sans-serif;font-size:13;text-anchor:middle;" transform="matrix(1 0 0 1 559.711 322)">Ultralight</text>
  <text style="stroke:none;fill:black;font-family:sans-serif;font-size:13;text-anchor:middle;" transform="matrix(1 0 0 1 856.422 322)">Thin</text>
  <text style="stroke:none;fill:black;font-family:sans-serif;font-size:13;text-anchor:middle;" transform="matrix(1 0 0 1 1153.13 322)">Light</text>
  <text style="stroke:none;fill:black;font-family:sans-serif;font-size:13;text-anchor:middle;" transform="matrix(1 0 0 1 1449.84 322)">Regular</text>
  <text style="stroke:none;fill:black;font-family:sans-serif;font-size:13;text-anchor:middle;" transform="matrix(1 0 0 1 1746.56 322)">Medium</text>
  <text style="stroke:none;fill:black;font-family:sans-serif;font-size:13;text-anchor:middle;" transform="matrix(1 0 0 1 2043.27 322)">Semibold</text>
  <text style="stroke:none;fill:black;font-family:sans-serif;font-size:13;text-anchor:middle;" transform="matrix(1 0 0 1 2339.98 322)">Bold</text>
  <text style="stroke:none;fill:black;font-family:sans-serif;font-size:13;text-anchor:middle;" transform="matrix(1 0 0 1 2636.69 322)">Heavy</text>
  <text style="stroke:none;fill:black;font-family:sans-serif;font-size:13;text-anchor:middle;" transform="matrix(1 0 0 1 2933.4 322)">Black</text>
  <line style="fill:none;stroke:black;opacity:1;stroke-width:0.5;" x1="263" x2="3036" y1="1903" y2="1903"/>
  <g transform="matrix(1 0 0 1 263 1933)">
   <path d="M9.24805 0.830078C13.5547 0.830078 17.1387-2.74414 17.1387-7.05078C17.1387-11.3574 13.5449-14.9316 9.23828-14.9316C4.94141-14.9316 1.36719-11.3574 1.36719-7.05078C1.36719-2.74414 4.95117 0.830078 9.24805 0.830078ZM9.24805-0.654297C5.70312-0.654297 2.87109-3.49609 2.87109-7.05078C2.87109-10.6055 5.69336-13.4473 9.23828-13.4473C12.793-13.4473 15.6445-10.6055 15.6445-7.05078C15.6445-3.49609 12.8027-0.654297 9.24805-0.654297ZM5.6543-7.05078C5.6543-6.62109 5.95703-6.32812 6.40625-6.32812L8.50586-6.32812L8.50586-4.20898C8.50586-3.76953 8.79883-3.4668 9.22852-3.4668C9.67773-3.4668 9.9707-3.76953 9.9707-4.20898L9.9707-6.32812L12.0898-6.32812C12.5293-6.32812 12.832-6.62109 12.832-7.05078C12.832-7.49023 12.5293-7.79297 12.0898-7.79297L9.9707-7.79297L9.9707-9.90234C9.9707-10.3516 9.67773-10.6543 9.22852-10.6543C8.79883-10.6543 8.50586-10.3516 8.50586-9.90234L8.50586-7.79297L6.40625-7.79297C5.95703-7.79297 5.6543-7.49023 5.6543-7.05078Z"/>
  </g>
  <g transform="matrix(1 0 0 1 281.867 1933)">
   <path d="M11.709 2.91016C17.1582 2.91016 21.6699-1.61133 21.6699-7.05078C21.6699-12.5 17.1484-17.0117 11.6992-17.0117C6.25977-17.0117 1.74805-12.5 1.74805-7.05078C1.74805-1.61133 6.26953 2.91016 11.709 2.91016ZM11.709 1.25C7.09961 1.25 3.41797-2.44141 3.41797-7.05078C3.41797-11.6602 7.08984-15.3516 11.6992-15.3516C16.3086-15.3516 20.0098-11.6602 20.0098-7.05078C20.0098-2.44141 16.3184 1.25 11.709 1.25ZM7.17773-7.05078C7.17773-6.57227 7.50977-6.25 8.00781-6.25L10.8789-6.25L10.8789-3.36914C10.8789-2.88086 11.2109-2.53906 11.6895-2.53906C12.1777-2.53906 12.5195-2.87109 12.5195-3.36914L12.5195-6.25L15.4004-6.25C15.8887-6.25 16.2305-6.57227 16.2305-7.05078C16.2305-7.53906 15.8887-7.88086 15.4004-7.88086L12.5195-7.88086L12.5195-10.752C12.5195-11.25 12.1777-11.5918 11.6895-11.5918C11.2109-11.5918 10.8789-11.25 10.8789-10.752L10.8789-7.88086L8.00781-7.88086C7.50977-7.88086 7.17773-7.53906 7.17773-7.05078Z"/>
  </g>
  <g transform="matrix(1 0 0 1 305.646 1933)">
   <path d="M14.9707 5.66406C21.9336 5.66406 27.6953-0.0976562 27.6953-7.05078C27.6953-14.0137 21.9238-19.7754 14.9609-19.7754C8.00781-19.7754 2.25586-14.0137 2.25586-7.05078C2.25586-0.0976562 8.01758 5.66406 14.9707 5.66406ZM14.9707 3.84766C8.93555 3.84766 4.08203-1.01562 4.08203-7.05078C4.08203-13.0957 8.92578-17.9492 14.9609-17.9492C21.0059-17.9492 25.8691-13.0957 25.8691-7.05078C25.8691-1.01562 21.0156 3.84766 14.9707 3.84766ZM9.19922-7.05078C9.19922-6.5332 9.57031-6.17188 10.1172-6.17188L14.0625-6.17188L14.0625-2.2168C14.0625-1.67969 14.4336-1.29883 14.9512-1.29883C15.4883-1.29883 15.8594-1.66992 15.8594-2.2168L15.8594-6.17188L19.8145-6.17188C20.3516-6.17188 20.7324-6.5332 20.7324-7.05078C20.7324-7.59766 20.3613-7.96875 19.8145-7.96875L15.8594-7.96875L15.8594-11.9141C15.8594-12.4609 15.4883-12.8418 14.9512-12.8418C14.4336-12.8418 14.0625-12.4609 14.0625-11.9141L14.0625-7.96875L10.1172-7.96875C9.57031-7.96875 9.19922-7.59766 9.19922-7.05078Z"/>
  </g>
  <text style="stroke:none;fill:black;font-family:sans-serif;font-size:13;font-weight:bold;" transform="matrix(1 0 0 1 263 1953)">Design Variations</text>
  <text style="stroke:none;fill:black;font-family:sans-serif;font-size:13;" transform="matrix(1 0 0 1 263 1971)">Symbols are supported in up to nine weights and three scales.</text>
  <text style="stroke:none;fill:black;font-family:sans-serif;font-size:13;" transform="matrix(1 0 0 1 263 1989)">For optimal layout with text and other symbols, vertically align</text>
  <text style="stroke:none;fill:black;font-family:sans-serif;font-size:13;" transform="matrix(1 0 0 1 263 2007)">symbols with the adjacent text.</text>
  <line style="fill:none;stroke:#00AEEF;stroke-width:0.5;opacity:1.0;" x1="776" x2="776" y1="1919" y2="1933"/>
  <g transform="matrix(1 0 0 1 776 1933)">
   <path d="M3.31055 0.15625C3.82812 0.15625 4.08203-0.0390625 4.26758-0.585938L5.52734-4.0332L11.2891-4.0332L12.5488-0.585938C12.7344-0.0390625 12.9883 0.15625 13.4961 0.15625C14.0137 0.15625 14.3457-0.15625 14.3457-0.644531C14.3457-0.810547 14.3164-0.966797 14.2383-1.17188L9.6582-13.3691C9.43359-13.9648 9.0332-14.2676 8.4082-14.2676C7.80273-14.2676 7.39258-13.9746 7.17773-13.3789L2.59766-1.16211C2.51953-0.957031 2.49023-0.800781 2.49023-0.634766C2.49023-0.146484 2.80273 0.15625 3.31055 0.15625ZM6.00586-5.51758L8.37891-12.0898L8.42773-12.0898L10.8008-5.51758Z"/>
  </g>
  <line style="fill:none;stroke:#00AEEF;stroke-width:0.5;opacity:1.0;" x1="793.197" x2="793.197" y1="1919" y2="1933"/>
  <text style="stroke:none;fill:black;font-family:sans-serif;font-size:13;font-weight:bold;" transform="matrix(1 0 0 1 776 1953)">Margins</text>
  <text style="stroke:none;fill:black;font-family:sans-serif;font-size:13;" transform="matrix(1 0 0 1 776 1971)">Leading and trailing margins on the left and right side of each symbol</text>
  <text style="stroke:none;fill:black;font-family:sans-serif;font-size:13;" transform="matrix(1 0 0 1 776 1989)">can be adjusted by modifying the x-location of the margin guidelines.</text>
  <text style="stroke:none;fill:black;font-family:sans-serif;font-size:13;" transform="matrix(1 0 0 1 776 2007)">Modifications are automatically applied proportionally to all</text>
  <text style="stroke:none;fill:black;font-family:sans-serif;font-size:13;" transform="matrix(1 0 0 1 776 2025)">scales and weights.</text>
  <g transform="matrix(1 0 0 1 1289 1933)">
   <path d="M2.8418 1.86523L4.54102 3.57422C5.40039 4.44336 6.38672 4.38477 7.31445 3.35938L18.0078-8.42773L17.041-9.4043L6.42578 2.27539C6.07422 2.67578 5.74219 2.77344 5.27344 2.30469L4.10156 1.14258C3.63281 0.683594 3.74023 0.341797 4.14062-0.0195312L15.6152-10.8203L14.6387-11.7871L3.04688-0.898438C2.06055 0.0195312 1.98242 0.996094 2.8418 1.86523ZM9.25781-16.3281C8.83789-15.918 8.80859-15.3418 9.04297-14.9512C9.27734-14.5898 9.73633-14.3555 10.3809-14.5215C11.8457-14.8633 13.3691-14.9219 14.7949-13.9844L14.209-12.5293C13.8672-11.6992 14.043-11.1133 14.5801-10.5664L16.875-8.25195C17.3633-7.76367 17.7734-7.74414 18.3398-7.8418L19.4043-8.03711L20.0684-7.36328L20.0293-6.80664C19.9902-6.30859 20.1172-5.92773 20.6055-5.44922L21.3672-4.70703C21.8457-4.22852 22.4609-4.19922 22.9297-4.66797L25.8398-7.58789C26.3086-8.05664 26.2891-8.65234 25.8105-9.13086L25.0391-9.89258C24.5605-10.3711 24.1895-10.5273 23.7109-10.4883L23.1348-10.4395L22.4902-11.0742L22.7344-12.1973C22.8613-12.7637 22.7051-13.2031 22.1191-13.7891L19.9219-15.9766C16.582-19.2969 12.1484-19.2188 9.25781-16.3281ZM10.752-15.957C13.1836-17.7344 16.4746-17.4316 18.7012-15.2051L21.1328-12.793C21.3672-12.5586 21.4062-12.373 21.3379-12.0312L21.0156-10.5469L22.5195-9.0625L23.5059-9.12109C23.7598-9.13086 23.8379-9.11133 24.0332-8.91602L24.6094-8.33984L22.168-5.89844L21.5918-6.47461C21.3965-6.66992 21.3672-6.74805 21.377-7.01172L21.4453-7.98828L19.9512-9.47266L18.4277-9.21875C18.1055-9.15039 17.959-9.17969 17.7148-9.41406L15.7129-11.416C15.459-11.6504 15.4297-11.8164 15.5859-12.1875L16.4648-14.2773C14.9023-15.7324 12.8711-16.3574 10.8398-15.7617C10.6836-15.7227 10.625-15.8496 10.752-15.957Z"/>
  </g>
  <text style="stroke:none;fill:black;font-family:sans-serif;font-size:13;font-weight:bold;" transform="matrix(1 0 0 1 1289 1953)">Exporting</text>
  <text style="stroke:none;fill:black;font-family:sans-serif;font-size:13;" transform="matrix(1 0 0 1 1289 1971)">Symbols should be outlined when exporting to ensure the</text>
  <text style="stroke:none;fill:black;font-family:sans-serif;font-size:13;" transform="matrix(1 0 0 1 1289 1989)">design is preserved when submitting to Xcode.</text>
  <text id="template-version" style="stroke:none;fill:black;font-family:sans-serif;font-size:13;text-anchor:end;" transform="matrix(1 0 0 1 3036 1933)">Template v.4.0</text>
  <text style="stroke:none;fill:black;font-family:sans-serif;font-size:13;text-anchor:end;" transform="matrix(1 0 0 1 3036 1951)">Requires Xcode 14 or greater</text>
  <text id="descriptive-name" style="stroke:none;fill:black;font-family:sans-serif;font-size:13;text-anchor:end;" transform="matrix(1 0 0 1 3036 1969)">Generated from figure.golf</text>
  <text style="stroke:none;fill:black;font-family:sans-serif;font-size:13;text-anchor:end;" transform="matrix(1 0 0 1 3036 1987)">Typeset at 100 points</text>
  <text style="stroke:none;fill:black;font-family:sans-serif;font-size:13;" transform="matrix(1 0 0 1 263 726)">Small</text>
  <text style="stroke:none;fill:black;font-family:sans-serif;font-size:13;" transform="matrix(1 0 0 1 263 1156)">Medium</text>
  <text style="stroke:none;fill:black;font-family:sans-serif;font-size:13;" transform="matrix(1 0 0 1 263 1586)">Large</text>
 </g>
 <g id="Guides">
  <g id="H-reference" style="fill:#27AAE1;stroke:none;" transform="matrix(1 0 0 1 339 696)">
   <path d="M0.993654 0L3.63775 0L29.3281-67.1323L30.0303-67.1323L30.0303-70.459L28.1226-70.459ZM11.6885-24.4799L46.9815-24.4799L46.2315-26.7285L12.4385-26.7285ZM55.1196 0L57.7637 0L30.6382-70.459L29.4326-70.459L29.4326-67.1323Z"/>
  </g>
  <line id="Baseline-S" style="fill:none;stroke:#27AAE1;opacity:1;stroke-width:0.5;" x1="263" x2="3036" y1="696" y2="696"/>
  <line id="Capline-S" style="fill:none;stroke:#27AAE1;opacity:1;stroke-width:0.5;" x1="263" x2="3036" y1="625.541" y2="625.541"/>
  <g id="H-reference" style="fill:#27AAE1;stroke:none;" transform="matrix(1 0 0 1 339 1126)">
   <path d="M0.993654 0L3.63775 0L29.3281-67.1323L30.0303-67.1323L30.0303-70.459L28.1226-70.459ZM11.6885-24.4799L46.9815-24.4799L46.2315-26.7285L12.4385-26.7285ZM55.1196 0L57.7637 0L30.6382-70.459L29.4326-70.459L29.4326-67.1323Z"/>
  </g>
  <line id="Baseline-M" style="fill:none;stroke:#27AAE1;opacity:1;stroke-width:0.5;" x1="263" x2="3036" y1="1126" y2="1126"/>
  <line id="Capline-M" style="fill:none;stroke:#27AAE1;opacity:1;stroke-width:0.5;" x1="263" x2="3036" y1="1055.54" y2="1055.54"/>
  <g id="H-reference" style="fill:#27AAE1;stroke:none;" transform="matrix(1 0 0 1 339 1556)">
   <path d="M0.993654 0L3.63775 0L29.3281-67.1323L30.0303-67.1323L30.0303-70.459L28.1226-70.459ZM11.6885-24.4799L46.9815-24.4799L46.2315-26.7285L12.4385-26.7285ZM55.1196 0L57.7637 0L30.6382-70.459L29.4326-70.459L29.4326-67.1323Z"/>
  </g>
  <line id="Baseline-L" style="fill:none;stroke:#27AAE1;opacity:1;stroke-width:0.5;" x1="263" x2="3036" y1="1556" y2="1556"/>
  <line id="Capline-L" style="fill:none;stroke:#27AAE1;opacity:1;stroke-width:0.5;" x1="263" x2="3036" y1="1485.54" y2="1485.54"/>
  <line id="left-margin-Regular-M" style="fill:none;stroke:#00AEEF;stroke-width:0.5;opacity:1.0;" x1="1402.84" x2="1402.84" y1="1030.79" y2="1150.12"/>
  <line id="right-margin-Regular-M" style="fill:none;stroke:#00AEEF;stroke-width:0.5;opacity:1.0;" x1="1496.85" x2="1496.85" y1="1030.79" y2="1150.12"/>
 </g>
 <g id="Symbols">
  <g id="Black-L" transform="matrix(1 0 0 1 2869.32 1556)">
   <path d="M92.8744-77.576C101.378-77.576 108.344-84.5401 108.344-93.0881C108.344-101.614 101.378-108.559 92.8744-108.559C84.3264-108.559 77.3611-101.614 77.3611-93.0881C77.3611-84.5401 84.3264-77.576 92.8744-77.576ZM57.5609 55.0632C61.8538 55.0632 65.4087 51.5889 65.4087 47.2375L65.4087 14.5761L78.0937-4.1882C79.0243-5.5549 80.8468-5.08121 81.0648-3.47564L82.9661 12.4952C83.1258 13.6771 83.3462 14.4153 83.8275 15.6776L96.8444 50.0333C98.662 54.8452 103.37 55.9038 106.926 54.6039C110.503 53.2456 113.357 49.434 111.54 44.5209L98.7201 10.5828L98.7201-52.1208C98.7201-59.413 95.617-67.2396 88.2728-70.378L84.0606-72.1812C76.0898-75.5828 68.402-74.4658 61.634-69.5606L46.5146-58.6974L32.1005-64.771L65.9353-111.68L76.4523-111.68C80.482-111.68 83.8344-115.091 83.8344-119.039C83.8344-123.206 80.482-126.48 76.4523-126.48L65.4732-126.48C63.8081-126.48 61.892-125.684 60.803-124.202L18.0704-65.1637C14.6177-60.3991 15.8743-54.6511 20.7473-52.5539L44.3973-42.3673C45.6168-41.8484 46.6314-41.8264 48.1349-41.8264L64.0797-41.8264C65.9058-41.8264 66.3-41.0381 66.3-39.5048L66.3-21.4663L50.4721 8.46552C49.7935 9.76423 49.6327 10.8593 49.6327 12.2396L49.6327 47.2375C49.6327 51.5889 53.1082 55.0632 57.5609 55.0632Z"/>
  </g>
  <g id="Heavy-L" transform="matrix(1 0 0 1 2573.49 1556)">
   <path d="M91.1765-77.1106C99.4296-77.1106 106.198-83.8739 106.198-92.1986C106.198-100.488 99.4296-107.226 91.1765-107.226C82.8518-107.226 76.0828-100.488 76.0828-92.1986C76.0828-83.8739 82.8518-77.1106 91.1765-77.1106ZM56.7325 53.483C60.8286 53.483 64.2279 50.1641 64.2279 46.0234L64.2279 13.6997L77.3739-5.74219C78.2179-6.98591 79.8859-6.57177 80.0857-5.09801L82.0697 11.6828C82.225 12.842 82.436 13.5388 82.9129 14.7785L95.767 48.6957C97.5069 53.2832 101.973 54.296 105.377 53.0419C108.813 51.7431 111.53 48.1239 109.79 43.4259L97.1052 9.88944L97.1052-52.0782C97.1052-59.2204 94.0843-66.8325 86.9546-69.8567L82.792-71.6235C75.0033-74.9248 67.5162-73.8673 60.9169-69.0851L45.8632-58.2656L30.8667-64.5752L64.499-111.224L75.1385-111.224C78.8632-111.224 81.947-114.352 81.947-117.991C81.947-121.835 78.8632-124.844 75.1385-124.844L64.2879-124.844C62.7639-124.844 61.0481-124.108 60.0545-122.781L17.9006-64.5152C14.7644-60.163 15.8291-54.7326 20.4198-52.7605L43.8375-42.6997C45.0112-42.2084 45.9525-42.1726 47.4334-42.1726L63.1746-42.1726C65.1298-42.1726 65.616-41.2001 65.616-39.6206L65.616-21.7482L49.964 7.86369C49.3175 9.11222 49.1566 10.1339 49.1566 11.4685L49.1566 46.0234C49.1566 50.1641 52.4811 53.483 56.7325 53.483Z"/>
  </g>
  <g id="Bold-L" transform="matrix(1 0 0 1 2277.91 1556)">
   <path d="M89.1084-76.5417C97.054-76.5417 103.585-83.0591 103.585-91.1072C103.585-99.104 97.054-105.597 89.1084-105.597C81.0603-105.597 74.5297-99.104 74.5297-91.1072C74.5297-83.0591 81.0603-76.5417 89.1084-76.5417ZM55.688 51.4342C59.5532 51.4342 62.7679 48.3 62.7679 44.4056L62.7679 12.564L76.408-7.60367C77.1444-8.69375 78.6129-8.34891 78.7897-7.04403L80.8663 10.624C81.0139 11.7526 81.2171 12.4032 81.6864 13.6122L94.3183 46.9317C95.9659 51.2574 100.147 52.2164 103.375 51.0162C106.64 49.7867 109.196 46.3908 107.548 41.9467L95.0552 8.96928L95.0552-51.9797C95.0552-58.93 92.1341-66.2807 85.2659-69.1665L81.1722-70.8873C73.6139-74.0655 66.3727-73.0773 59.981-68.4488L45.049-57.7129L29.3153-64.3294L62.6569-110.596L73.4574-110.596C76.7981-110.596 79.544-113.371 79.544-116.618C79.544-120.055 76.7981-122.734 73.4574-122.734L62.7532-122.734C61.4059-122.734 59.9435-122.067 59.0726-120.932L17.7079-63.7308C14.9338-59.8561 15.7678-54.7729 20.0723-52.9247L43.131-43.0475C44.2508-42.587 45.1074-42.5358 46.5577-42.5358L62.023-42.5358C64.1171-42.5358 64.7036-41.3627 64.7036-39.7367L64.7036-22.109L49.2967 7.05128C48.6886 8.23831 48.5278 9.17529 48.5278 10.456L48.5278 44.4056C48.5278 48.3 51.6752 51.4342 55.688 51.4342Z"/>
  </g>
  <g id="Semibold-L" transform="matrix(1 0 0 1 1981.98 1556)">
   <path d="M87.6827-76.1496C95.4163-76.1496 101.783-82.4974 101.783-90.3547C101.783-98.1502 95.4163-104.473 87.6827-104.473C79.8253-104.473 73.459-98.1502 73.459-90.3547C73.459-82.4974 79.8253-76.1496 87.6827-76.1496ZM54.968 50.0218C58.674 50.0218 61.7613 47.0149 61.7613 43.2903L61.7613 11.7811L75.7421-8.88697C76.4044-9.87113 77.7353-9.57406 77.8963-8.3856L80.0366 9.8941C80.1789 11.0016 80.3768 11.6202 80.8409 12.8082L93.3196 45.7156C94.9035 49.8609 98.888 50.7827 101.994 49.6196C105.143 48.4379 107.587 45.196 106.003 40.9269L93.6419 8.33492L93.6419-51.9119C93.6419-58.7298 90.7897-65.9004 84.1017-68.6907L80.0555-70.3797C72.656-73.4732 65.5844-72.5328 59.3357-68.0101L44.4876-57.3318L28.2457-64.1599L61.3869-110.163L72.2984-110.163C75.3744-110.163 77.8873-112.694 77.8873-115.671C77.8873-118.828 75.3744-121.279 72.2984-121.279L61.6952-121.279C60.4697-121.279 59.1819-120.66 58.3958-119.657L17.5751-63.1901C15.0506-59.6445 15.7255-54.8007 19.8326-53.0379L42.6439-43.2872C43.7266-42.848 44.5248-42.7861 45.9539-42.7861L61.229-42.7861C63.4189-42.7861 64.0746-41.4747 64.0746-39.8168L64.0746-22.3577L48.8367 6.4912C48.2551 7.63584 48.0942 8.51442 48.0942 9.75796L48.0942 43.2903C48.0942 47.0149 51.1196 50.0218 54.968 50.0218Z"/>
  </g>
  <g id="Medium-L" transform="matrix(1 0 0 1 1685.86 1556)">
   <path d="M86.6016-75.8522C94.1746-75.8522 100.416-82.0714 100.416-89.7842C100.416-97.4271 94.1746-103.621 86.6016-103.621C78.8888-103.621 72.6472-97.4271 72.6472-89.7842C72.6472-82.0714 78.8888-75.8522 86.6016-75.8522ZM54.422 48.9509C58.0073 48.9509 60.9981 46.0405 60.9981 42.4447L60.9981 11.1874L75.2372-9.86002C75.8433-10.7639 77.0699-10.503 77.2188-9.40284L79.4075 9.34066C79.5459 10.4321 79.7397 11.0266 80.1997 12.1985L92.5623 44.7936C94.0979 48.802 97.9336 49.6957 100.947 48.5607C104.008 47.4153 106.367 44.29 104.831 40.1537L92.5702 7.85392L92.5702-51.8604C92.5702-58.578 89.7704-65.6119 83.219-68.33L79.2088-69.9949C71.9297-73.0241 64.9867-72.1198 58.8465-67.6775L44.062-57.0429L27.4347-64.0315L60.4239-109.835L71.4197-109.835C74.295-109.835 76.6312-112.181 76.6312-114.954C76.6312-117.897 74.295-120.176 71.4197-120.176L60.8929-120.176C59.7598-120.176 58.6045-119.593 57.8825-118.691L17.4744-62.7801C15.1392-59.4841 15.6935-54.8217 19.6509-53.1237L42.2746-43.469C43.3291-43.0459 44.083-42.976 45.4961-42.976L60.627-42.976C62.8896-42.976 63.5977-41.5597 63.5977-39.8775L63.5977-22.5463L48.4878 6.06653C47.9263 7.17902 47.7655 8.01332 47.7655 9.2287L47.7655 42.4447C47.7655 46.0405 50.6984 48.9509 54.422 48.9509Z"/>
  </g>
  <g id="Regular-L" transform="matrix(1 0 0 1 1389.92 1556)">
   <path d="M85.1916-75.4644C92.5549-75.4644 98.634-81.5159 98.634-89.04C98.634-96.4838 92.5549-102.51 85.1916-102.51C77.6674-102.51 71.5882-96.4838 71.5882-89.04C71.5882-81.5159 77.6674-75.4644 85.1916-75.4644ZM53.7099 47.554C57.1378 47.554 60.0027 44.7695 60.0027 41.3416L60.0027 10.4131L74.5787-11.1292C75.1114-11.9283 76.202-11.7147 76.3352-10.7297L78.5869 8.61878C78.7201 9.68935 78.9086 10.2523 79.3635 11.4033L91.5746 43.5909C93.0472 47.4208 96.6887 48.2778 99.5812 47.1795C102.527 46.0813 104.776 43.1083 103.303 39.1452L91.1725 7.22653L91.1725-51.7932C91.1725-58.38 88.4407-65.2357 82.0675-67.8594L78.1044-69.4929C70.9823-72.4382 64.2071-71.5813 58.2083-67.2437L43.5068-56.6661L26.3769-63.8639L59.1679-109.406L70.2735-109.406C72.8869-109.406 74.9927-111.512 74.9927-114.017C74.9927-116.684 72.8869-118.737 70.2735-118.737L59.8465-118.737C58.8338-118.737 57.8513-118.201 57.2131-117.43L17.343-62.2453C15.2547-59.2749 15.6517-54.8492 19.414-53.2357L41.7929-43.7061C42.8107-43.304 43.5068-43.2236 44.899-43.2236L59.8418-43.2236C62.1991-43.2236 62.9757-41.6705 62.9757-39.9566L62.9757-22.7923L48.0329 5.51261C47.4976 6.58318 47.3367 7.35972 47.3367 8.53836L47.3367 41.3416C47.3367 44.7695 50.1489 47.554 53.7099 47.554Z"/>
  </g>
  <g id="Light-L" transform="matrix(1 0 0 1 1094.23 1556)">
   <path d="M83.9892-75.1208C91.1617-75.1208 97.1072-81.0196 97.1072-88.353C97.1072-95.6059 91.1617-101.518 83.9892-101.518C76.6559-101.518 70.7103-95.6059 70.7103-88.353C70.7103-81.0196 76.6559-75.1208 83.9892-75.1208ZM52.8702 45.55C56.2217 45.55 59.0102 42.8419 59.0102 39.4904L59.0102 9.30618L73.4336-12.0071C73.89-12.6917 74.7897-12.4972 74.9038-11.6648L77.1555 7.55C77.2696 8.5824 77.4772 9.14534 77.913 10.2582L89.8378 41.6823C91.2723 45.4359 94.8183 46.2738 97.6536 45.1947C100.523 44.1155 102.715 41.1998 101.28 37.3321L89.4357 6.19593L89.4357-51.4306C89.4357-57.8456 86.7612-64.5487 80.5407-67.096L76.673-68.6913C69.7418-71.5603 63.1192-70.7224 57.2541-66.4994L42.8961-56.1699L25.1555-63.673L57.4884-108.567L68.7657-108.567C71.0738-108.567 72.9125-110.405 72.9125-112.586C72.9125-114.928 71.0738-116.733 68.7657-116.733L58.3579-116.733C57.4788-116.733 56.7062-116.217 56.1825-115.579L17.324-61.8254C15.2928-58.9695 15.5753-54.4866 19.5476-52.7586L41.2203-43.5344C42.219-43.1323 42.8961-43.0519 44.2501-43.0519L58.8494-43.0519C61.1685-43.0519 61.926-41.5369 61.926-39.8612L61.926-23.1167L47.3267 4.52018C46.8105 5.55257 46.6497 6.31003 46.6497 7.46958L46.6497 39.4904C46.6497 42.8419 49.4046 45.55 52.8702 45.55Z"/>
  </g>
  <g id="Thin-L" transform="matrix(1 0 0 1 798.873 1556)">
   <path d="M82.399-74.6665C89.319-74.6665 95.0879-80.3634 95.0879-87.4443C95.0879-94.4447 89.319-100.205 82.399-100.205C75.3181-100.205 69.5492-94.4447 69.5492-87.4443C69.5492-80.3634 75.3181-74.6665 82.399-74.6665ZM51.7595 42.8996C55.0101 42.8996 57.6977 40.2925 57.6977 37.0419L57.6977 7.84215L71.9191-13.1683C72.2745-13.7014 72.9218-13.5321 73.0106-12.9017L75.2624 6.13646C75.3513 7.11837 75.5841 7.68131 75.9946 8.74364L87.5408 39.1581C88.9248 42.8108 92.3446 43.6234 95.1042 42.5695C97.8722 41.5156 99.9884 38.6756 98.6044 34.9341L87.1387 4.83287L87.1387-50.951C87.1387-57.1389 84.5399-63.64 78.5214-66.0863L74.7799-67.6311C68.1011-70.3992 61.6804-69.5865 55.992-65.5149L42.0883-55.5136L23.54-63.4206L55.2671-107.456L66.7716-107.456C68.6758-107.456 70.1611-108.941 70.1611-110.693C70.1611-112.606 68.6758-114.082 66.7716-114.082L56.389-114.082C55.6866-114.082 55.1917-113.591 54.8194-113.13L17.2987-61.2701C15.3433-58.5656 15.4744-54.007 19.7242-52.1275L40.463-43.3072C41.4365-42.9051 42.0883-42.8247 43.3919-42.8247L57.5368-42.8247C59.8055-42.8247 60.5377-41.3602 60.5377-39.735L60.5377-23.5458L46.3928 3.2076C45.9018 4.18951 45.741 4.92173 45.741 6.05604L45.741 37.0419C45.741 40.2925 48.4201 42.8996 51.7595 42.8996Z"/>
  </g>
  <g id="Ultralight-L" transform="matrix(1 0 0 1 502.853 1556)">
   <path d="M81.5844-74.4338C88.3752-74.4338 94.0536-80.0272 94.0536-86.9788C94.0536-93.85 88.3752-99.5329 81.5844-99.5329C74.6328-99.5329 68.9545-93.85 68.9545-86.9788C68.9545-80.0272 74.6328-74.4338 81.5844-74.4338ZM51.1907 41.5421C54.3895 41.5421 57.0254 38.9867 57.0254 35.7878L57.0254 7.09229L71.1433-13.763C71.447-14.2185 71.9651-14.0622 72.041-13.5352L74.2927 5.41245C74.3687 6.36851 74.6144 6.93145 75.012 7.96792L86.3643 37.8653C87.7224 41.4662 91.0776 42.2659 93.7984 41.2249C96.5147 40.184 98.5921 37.3827 97.234 33.7059L85.9622 4.13472L85.9622-50.7054C85.9622-56.7769 83.4022-63.1745 77.4871-65.5691L73.8102-67.0881C67.2607-69.8044 60.9435-69.0047 55.3455-65.0107L41.6746-55.1775L22.7126-63.2913L54.1294-106.887L65.7503-106.887C67.4476-106.887 68.7519-108.191 68.7519-109.723C68.7519-111.416 67.4476-112.725 65.7503-112.725L55.3806-112.725C54.7687-112.725 54.416-112.247 54.1213-111.876L17.2858-60.9857C15.3692-58.3588 15.4227-53.7613 19.8147-51.8043L40.0752-43.1908C41.0357-42.7887 41.6746-42.7083 42.9523-42.7083L56.8645-42.7083C59.1073-42.7083 59.8266-41.2697 59.8266-39.6703L59.8266-23.7656L45.9144 2.53531C45.4364 3.49136 45.2755 4.21065 45.2755 5.33203L45.2755 35.7878C45.2755 38.9867 47.9159 41.5421 51.1907 41.5421Z"/>
  </g>
  <g id="Black-M" transform="matrix(1 0 0 1 2883.13 1126)">
   <path d="M73.2501-68.3906C80.0283-68.3906 85.5752-73.9378 85.5752-80.7264C85.5752-87.5099 80.0283-93.0513 73.2501-93.0513C66.4615-93.0513 60.9146-87.5099 60.9146-80.7264C60.9146-73.9378 66.4615-68.3906 73.2501-68.3906ZM45.193 35.8107C48.6778 35.8107 51.5551 32.9956 51.5551 29.4537L51.5551 3.96027L60.966-9.9639C61.7511-11.1129 63.2698-10.6973 63.4518-9.36084L64.8538 2.29831C64.9787 3.22823 65.1601 3.83566 65.5342 4.82789L75.72 31.7182C77.1898 35.6287 81.0331 36.4856 83.9102 35.4418C86.7927 34.3408 89.1143 31.2302 87.6445 27.2519L77.6352 0.719484L77.6352-48.3033C77.6352-54.0585 75.1682-60.2859 69.3147-62.805L66.0216-64.2282C59.7157-66.9395 53.6078-66.0255 48.2374-62.135L36.5138-53.715L25.7644-58.2589L52.0896-94.7374L60.1556-94.7374C63.4984-94.7374 66.2902-97.5864 66.2902-100.867C66.2902-104.33 63.4984-107.059 60.1556-107.059L51.5419-107.059C50.1485-107.059 48.5205-106.394 47.6103-105.13L14.1433-58.9212C11.2041-54.891 12.327-50.157 16.3733-48.4092L34.8-40.4505C35.7815-40.0248 36.628-40.0196 37.8072-40.0196L50.2886-40.0196C51.5874-40.0196 51.811-39.5723 51.811-38.4294L51.811-24.3683L39.4437-0.994363C38.8931 0.0497579 38.7685 0.95857 38.7685 2.06471L38.7685 29.4537C38.7685 32.9956 41.5833 35.8107 45.193 35.8107Z"/>
  </g>
  <g id="Heavy-M" transform="matrix(1 0 0 1 2587.19 1126)">
   <path d="M71.7011-67.9673C78.2517-67.9673 83.619-73.3323 83.619-79.9202C83.619-86.4894 78.2517-91.8403 71.7011-91.8403C65.1132-91.8403 59.7459-86.4894 59.7459-79.9202C59.7459-73.3323 65.1132-67.9673 71.7011-67.9673ZM44.4606 34.4508C47.76 34.4508 50.4924 31.7807 50.4924 28.4377L50.4924 3.2056L60.3679-11.402C61.0754-12.4414 62.4608-12.0823 62.6268-10.8605L64.1096 1.60266C64.2319 2.514 64.4024 3.081 64.7739 4.05464L74.827 30.5866C76.2244 34.2848 79.8393 35.0987 82.5739 34.0979C85.325 33.0534 87.5176 30.1256 86.1203 26.3487L76.2167 0.136748L76.2167-48.2952C76.2167-53.9196 73.8248-59.9513 68.1669-62.3659L64.9135-63.757C58.768-66.3772 52.8422-65.5196 47.6245-61.7389L35.9334-53.3386L24.671-58.0851L50.8405-94.3689L59.0104-94.3689C62.0832-94.3689 64.6371-96.9665 64.6371-99.9746C64.6371-103.151 62.0832-105.645 59.0104-105.645L50.5205-105.645C49.2529-105.645 47.8011-105.037 46.9736-103.912L13.979-58.326C11.3439-54.6883 12.2899-50.2702 16.0409-48.6552L34.3055-40.7913C35.2441-40.3925 36.0207-40.3739 37.1812-40.3739L49.4954-40.3739C50.9238-40.3739 51.2392-39.743 51.2392-38.5513L51.2392-24.6139L39.0123-1.49114C38.4912-0.492554 38.3666 0.346327 38.3666 1.40949L38.3666 28.4377C38.3666 31.7807 41.0389 34.4508 44.4606 34.4508Z"/>
  </g>
  <g id="Bold-M" transform="matrix(1 0 0 1 2291.34 1126)">
   <path d="M69.9684-67.4938C76.2642-67.4938 81.4306-72.655 81.4306-79.0184C81.4306-85.348 76.2642-90.4857 69.9684-90.4857C63.605-90.4857 58.4386-85.348 58.4386-79.0184C58.4386-72.655 63.605-67.4938 69.9684-67.4938ZM43.6414 32.9295C46.7334 32.9295 49.3036 30.4216 49.3036 27.301L49.3036 2.36141L59.6989-13.0108C60.3195-13.9275 61.5558-13.6315 61.7038-12.5382L63.277 0.824476C63.3965 1.71502 63.5548 2.2368 63.9235 3.18965L73.8282 29.3208C75.1444 32.7815 78.5038 33.5473 81.0792 32.5945C83.6832 31.6132 85.7315 28.8899 84.4153 25.3384L74.63-0.515126L74.63-48.286C74.63-53.7641 72.322-59.577 66.883-61.8747L63.674-63.2299C57.7078-65.7482 51.9858-64.9538 46.9388-61.2957L35.2842-52.9176L23.4479-57.8907L49.4433-93.9567L57.7293-93.9567C60.5001-93.9567 62.7879-96.273 62.7879-98.9763C62.7879-101.833 60.5001-104.063 57.7293-104.063L49.3779-104.063C48.2509-104.063 46.9965-103.518 46.2615-102.55L13.7953-57.6601C11.5004-54.4617 12.2483-50.3967 15.669-48.9304L33.7525-41.1725C34.6429-40.8039 35.3413-40.7702 36.481-40.7702L48.6081-40.7702C50.1815-40.7702 50.5995-39.934 50.5995-38.6878L50.5995-24.8886L38.5296-2.04685C38.0415-1.09921 37.9169-0.338554 37.9169 0.676527L37.9169 27.301C37.9169 30.4216 40.43 32.9295 43.6414 32.9295Z"/>
  </g>
  <g id="Semibold-M" transform="matrix(1 0 0 1 1995.22 1126)">
   <path d="M68.7738-67.1673C74.8941-67.1673 79.922-72.1881 79.922-78.3966C79.922-84.561 74.8941-89.5519 68.7738-89.5519C62.5653-89.5519 57.5374-84.561 57.5374-78.3966C57.5374-72.1881 62.5653-67.1673 68.7738-67.1673ZM43.0767 31.8807C46.0257 31.8807 48.4841 29.4846 48.4841 26.5174L48.4841 1.77942L59.2377-14.1199C59.7985-14.952 60.9318-14.6996 61.0675-13.6947L62.7031 0.288002C62.8206 1.16421 62.9705 1.65482 63.3372 2.59333L73.1395 28.4482C74.3999 31.7451 77.5832 32.4778 80.0487 31.5582C82.5513 30.6204 84.5002 28.0381 83.2398 24.6419L73.5361-0.964524L73.5361-48.2798C73.5361-53.657 71.286-59.319 65.9978-61.536L62.8195-62.8665C56.977-65.3146 51.3954-64.5637 46.4661-60.9902L34.8366-52.6273L22.6047-57.7567L48.48-93.6725L56.8461-93.6725C59.4087-93.6725 61.513-95.7949 61.513-98.2881C61.513-100.924 59.4087-102.973 56.8461-102.973L48.5902-102.973C47.5601-102.973 46.4417-102.471 45.7705-101.61L13.6686-57.2011C11.6082-54.3055 12.2196-50.4839 15.4126-49.1201L33.3712-41.4354C34.2285-41.0875 34.8729-41.0434 35.9983-41.0434L47.9963-41.0434C49.6697-41.0434 50.1586-40.0657 50.1586-38.7818L50.1586-25.078L38.1969-2.42996C37.7315-1.51743 37.6069-0.810707 37.6069 0.171227L37.6069 26.5174C37.6069 29.4846 40.0101 31.8807 43.0767 31.8807Z"/>
  </g>
  <g id="Medium-M" transform="matrix(1 0 0 1 1698.96 1126)">
   <path d="M67.8681-66.9198C73.8552-66.9198 78.7781-71.8341 78.7781-77.9252C78.7781-83.9643 73.8552-88.8438 67.8681-88.8438C61.7769-88.8438 56.854-83.9643 56.854-77.9252C56.854-71.8341 61.7769-66.9198 67.8681-66.9198ZM42.6484 31.0855C45.489 31.0855 47.8627 28.7742 47.8627 25.9233L47.8627 1.33814L58.8879-14.9608C59.4034-15.7288 60.4588-15.5094 60.585-14.5717L62.2679-0.118775C62.3839 0.746566 62.5274 1.21353 62.8926 2.14118L72.6174 27.7866C73.8354 30.9592 76.8851 31.6668 79.2674 30.7723C81.693 29.8675 83.5666 27.3922 82.3486 24.1138L72.7067-1.30528L72.7067-48.275C72.7067-53.5757 70.5004-59.1233 65.3267-61.2792L62.1716-62.591C56.4228-64.9858 50.9477-64.2679 46.1077-60.7585L34.4972-52.4072L21.9653-57.6551L47.7496-93.457L56.1765-93.457C58.5811-93.457 60.5463-95.4324 60.5463-97.7662C60.5463-100.235 58.5811-102.146 56.1765-102.146L47.993-102.146C47.0364-102.146 46.0211-101.678 45.3982-100.898L13.5725-56.853C11.69-54.187 12.1979-50.5501 15.2182-49.2639L33.0821-41.6347C33.9142-41.3026 34.5178-41.2505 35.6323-41.2505L47.5325-41.2505C49.2817-41.2505 49.8242-40.1655 49.8242-38.8531L49.8242-25.2216L37.9446-2.72044C37.4965-1.83455 37.3719-1.16871 37.3719-0.211912L37.3719 25.9233C37.3719 28.7742 39.6918 31.0855 42.6484 31.0855Z"/>
  </g>
  <g id="Regular-M" transform="matrix(1 0 0 1 1402.84 1126)">
   <path d="M66.6867-66.5969C72.5001-66.5969 77.286-71.3723 77.286-77.3103C77.286-83.186 72.5001-87.9202 66.6867-87.9202C60.7486-87.9202 55.9627-83.186 55.9627-77.3103C55.9627-71.3723 60.7486-66.5969 66.6867-66.5969ZM42.0899 30.0483C44.7891 30.0483 47.0521 27.8475 47.0521 25.1483L47.0521 0.762552L58.4318-16.0577C58.888-16.7421 59.8417-16.5657 59.9557-15.7155L61.7003-0.649354C61.8143 0.201809 61.9495 0.637942 62.3128 1.55141L71.9363 26.9235C73.099 29.9342 75.9746 30.609 78.2482 29.7473C80.5736 28.8856 82.3488 26.5497 81.1861 23.4249L71.6248-1.74974L71.6248-48.2688C71.6248-53.4697 69.4758-58.8681 64.4512-60.9443L61.3264-62.2316C55.6999-64.5569 50.3638-63.8821 45.6402-60.4564L34.0546-52.1201L21.1314-57.5225L46.7969-93.1759L55.303-93.1759C57.5018-93.1759 59.2855-94.9596 59.2855-97.0855C59.2855-99.336 57.5018-101.068 55.303-101.068L47.2139-101.068C46.3532-101.068 45.4724-100.642 44.9127-99.9686L13.4473-56.399C11.7967-54.0325 12.1695-50.6363 14.9647-49.4516L32.705-41.8946C33.5044-41.5831 34.0546-41.5208 35.1549-41.5208L46.9275-41.5208C48.7756-41.5208 49.3881-40.2958 49.3881-38.9462L49.3881-25.409L37.6155-3.09934C37.1899-2.24817 37.0653-1.63568 37.0653-0.711659L37.0653 25.1483C37.0653 27.8475 39.2766 30.0483 42.0899 30.0483Z"/>
  </g>
  <g id="Light-M" transform="matrix(1 0 0 1 1107.04 1126)">
   <path d="M65.6087-66.2889C71.251-66.2889 75.9171-70.9274 75.9171-76.6943C75.9171-82.3989 71.251-87.0304 65.6087-87.0304C59.8417-87.0304 55.1756-82.3989 55.1756-76.6943C55.1756-70.9274 59.8417-66.2889 65.6087-66.2889ZM41.337 28.2516C43.9677 28.2516 46.1624 26.1193 46.1624 23.4886L46.1624-0.229883L57.4051-16.8448C57.7929-17.4265 58.5755-17.2672 58.6724-16.554L60.417-1.60757C60.5139-0.790625 60.6662-0.354492 61.0123 0.524754L70.3792 25.2124C71.5077 28.1547 74.2977 28.8124 76.52 27.9678C78.7769 27.1232 80.5008 24.8386 79.3723 21.7994L70.0677-2.67373L70.0677-47.9437C70.0677-52.9906 67.97-58.2521 63.0824-60.2598L60.0431-61.5129C54.5877-63.7698 49.3885-63.1121 44.7847-59.7891L33.507-51.6752L20.0363-57.3514L45.2911-92.423L53.9512-92.423C55.8762-92.423 57.4204-93.9672 57.4204-95.8022C57.4204-97.7618 55.8762-99.2714 53.9512-99.2714L45.8793-99.2714C45.1383-99.2714 44.4458-98.8629 43.9887-98.3089L13.4302-56.0226C11.8309-53.7587 12.1011-50.3112 15.0845-49.0238L32.1916-41.7406C32.9739-41.4291 33.507-41.3668 34.5732-41.3668L46.0377-41.3668C47.8516-41.3668 48.447-40.176 48.447-38.8606L48.447-25.6998L36.9824-3.98911C36.5739-3.17216 36.4493-2.57678 36.4493-1.66987L36.4493 23.4886C36.4493 26.1193 38.6093 28.2516 41.337 28.2516Z"/>
  </g>
  <g id="Thin-M" transform="matrix(1 0 0 1 811.543 1126)">
   <path d="M64.1829-65.8816C69.599-65.8816 74.1067-70.339 74.1067-75.8796C74.1067-81.3579 69.599-85.8536 64.1829-85.8536C58.6423-85.8536 54.1346-81.3579 54.1346-75.8796C54.1346-70.339 58.6423-65.8816 64.1829-65.8816ZM40.3412 25.8754C42.8815 25.8754 44.9856 23.8336 44.9856 21.2934L44.9856-1.54246L56.0473-17.8858C56.3446-18.3317 56.9008-18.1951 56.9751-17.6629L58.7197-2.87488C58.794-2.1032 58.9689-1.66707 59.2924-0.833082L68.3199 22.9494C69.4031 25.8011 72.0799 26.4362 74.2343 25.6142C76.4007 24.7922 78.0567 22.5755 76.9735 19.6495L68.0083-3.89578L68.0083-47.5137C68.0083-52.3569 65.9786-57.4374 61.2719-59.3546L58.3458-60.5624C53.1167-62.7288 48.0986-62.0938 43.6531-58.9065L32.7828-51.0868L18.5879-57.1251L43.2996-91.4273L52.1634-91.4273C53.7263-91.4273 54.9537-92.6546 54.9537-94.1049C54.9537-95.6798 53.7263-96.8952 52.1634-96.8952L44.1141-96.8952C43.5316-96.8952 43.0879-96.5093 42.7666-96.1137L13.4075-55.5247C11.8762-53.3966 12.0105-49.8813 15.2429-48.458L31.5127-41.5369C32.2724-41.2254 32.7828-41.1631 33.8037-41.1631L44.861-41.1631C46.6295-41.1631 47.2023-40.0176 47.2023-38.7475L47.2023-26.0846L36.145-5.1659C35.7592-4.39422 35.6346-3.82146 35.6346-2.93718L35.6346 21.2934C35.6346 23.8336 37.7267 25.8754 40.3412 25.8754Z"/>
  </g>
  <g id="Ultralight-M" transform="matrix(1 0 0 1 515.452 1126)">
   <path d="M63.4527-65.6729C68.7528-65.6729 73.1794-70.0376 73.1794-75.4623C73.1794-80.8247 68.7528-85.2509 63.4527-85.2509C58.028-85.2509 53.6014-80.8247 53.6014-75.4623C53.6014-70.0376 58.028-65.6729 63.4527-65.6729ZM39.8312 24.6583C42.3251 24.6583 44.3828 22.6629 44.3828 20.169L44.3828-2.21475L55.3518-18.419C55.6027-18.7954 56.0431-18.6703 56.1058-18.2308L57.8503-3.52399C57.913-2.77549 58.0995-2.33936 58.4115-1.52856L67.2651 21.7902C68.3251 24.5956 70.944 25.2191 73.0636 24.4087C75.1836 23.5983 76.8048 21.4164 75.7448 18.5483L66.9535-4.52171L66.9535-47.2934C66.9535-52.0324 64.9585-57.0201 60.3446-58.891L57.4765-60.0756C52.3633-62.1956 47.4379-61.5722 43.0736-58.4544L32.4119-50.7855L17.8461-57.0092L42.2796-90.9172L51.2477-90.9172C52.6251-90.9172 53.6902-91.9823 53.6902-93.2356C53.6902-94.6134 52.6251-95.6781 51.2477-95.6781L43.21-95.6781C42.7086-95.6781 42.3924-95.3038 42.1407-94.9894L13.3959-55.2697C11.8994-53.2111 11.9642-49.661 15.324-48.1682L31.165-41.4326C31.913-41.1211 32.4119-41.0588 33.4096-41.0588L44.2582-41.0588C46.0036-41.0588 46.5647-39.9364 46.5647-38.6895L46.5647-26.2816L35.7162-5.76864C35.3419-5.02015 35.2173-4.45898 35.2173-3.5863L35.2173 20.169C35.2173 22.6629 37.2746 24.6583 39.8312 24.6583Z"/>
  </g>
  <g id="Black-S" transform="matrix(1 0 0 1 2893.82 696)">
   <path d="M57.8125-61.3281C63.1836-61.3281 67.5781-65.7227 67.5781-71.0938C67.5781-76.4648 63.1836-80.8594 57.8125-80.8594C52.4414-80.8594 48.0469-76.4648 48.0469-71.0938C48.0469-65.7227 52.4414-61.3281 57.8125-61.3281ZM35.5957 20.752C38.3789 20.752 40.6738 18.5059 40.6738 15.6738L40.6738-4.3457L47.9004-15.0391C48.5352-15.9668 49.7559-15.625 49.9023-14.5508L50.9766-5.66406C51.0742-4.93164 51.2207-4.44336 51.5137-3.66211L59.5215 17.4805C60.6934 20.6055 63.7695 21.2891 66.0645 20.459C68.3594 19.5801 70.2148 17.0898 69.043 13.916L61.1816-6.93359L61.1816-45.459C61.1816-50 59.2285-54.9316 54.5898-56.9336L52.002-58.0566C47.0215-60.2051 42.1875-59.4727 37.9395-56.3965L28.7598-49.8047L20.459-53.3203L41.1133-81.9336L47.4121-81.9336C50.0977-81.9336 52.3438-84.2285 52.3438-86.8652C52.3438-89.6484 50.0977-91.8457 47.4121-91.8457L40.625-91.8457C39.502-91.8457 38.1836-91.3086 37.4512-90.2832L11.1328-53.9551C8.74023-50.6836 9.66797-46.875 12.9395-45.459L27.3926-39.209C28.1738-38.8672 28.8574-38.8672 29.7852-38.8672L39.5996-38.8672C40.5762-38.8672 40.7227-38.5742 40.7227-37.6953L40.7227-26.6602L31.0059-8.30078C30.5664-7.4707 30.4688-6.73828 30.4688-5.85938L30.4688 15.6738C30.4688 18.5059 32.7148 20.752 35.5957 20.752Z"/>
  </g>
  <g id="Heavy-S" transform="matrix(1 0 0 1 2597.66 696)">
   <path d="M56.6255-61.0054C61.8237-61.0054 66.0799-65.2617 66.0799-70.483C66.0799-75.6927 61.8237-79.9374 56.6255-79.9374C51.4042-79.9374 47.148-75.6927 47.148-70.483C47.148-65.2617 51.4042-61.0054 56.6255-61.0054ZM35.0656 19.8185C37.699 19.8185 39.8786 17.6876 39.8786 15.0169L39.8786-4.8643L47.5201-16.1685C48.0972-17.0155 49.2257-16.7198 49.3607-15.7263L50.5041-6.13657C50.6017-5.41567 50.7367-4.96196 51.0296-4.19223L58.9568 16.7314C60.071 19.6835 62.9628 20.3325 65.1425 19.537C67.3337 18.7042 69.0854 16.3638 67.9712 13.3513L60.1675-7.3139L60.1675-45.4936C60.1675-49.9424 58.272-54.7242 53.7831-56.6455L51.2183-57.7455C46.3531-59.8248 41.6574-59.1384 37.5246-56.1429L28.3334-49.5396L19.6638-53.1935L40.2374-81.7146L46.6054-81.7146C49.095-81.7146 51.1683-83.8252 51.1683-86.266C51.1683-88.8417 49.095-90.8661 46.6054-90.8661L39.922-90.8661C38.8912-90.8661 37.6996-90.3751 37.0248-89.4534L10.9945-53.4941C8.85548-50.5453 9.64492-47.0133 12.6398-45.724L27.0353-39.5201C27.782-39.2014 28.408-39.1899 29.3242-39.1899L39.0349-39.1899C40.1267-39.1899 40.3539-38.7356 40.3539-37.8106L40.3539-26.833L30.7177-8.61194C30.3013-7.81644 30.2037-7.14164 30.2037-6.2973L30.2037 15.0169C30.2037 17.6876 32.3345 19.8185 35.0656 19.8185Z"/>
  </g>
  <g id="Bold-S" transform="matrix(1 0 0 1 2301.55 696)">
   <path d="M55.2979-60.6445C60.3027-60.6445 64.4043-64.7461 64.4043-69.7998C64.4043-74.8291 60.3027-78.9062 55.2979-78.9062C50.2441-78.9062 46.1426-74.8291 46.1426-69.7998C46.1426-64.7461 50.2441-60.6445 55.2979-60.6445ZM34.4727 18.7744C36.9385 18.7744 38.9893 16.7725 38.9893 14.2822L38.9893-5.44434L47.0947-17.4316C47.6074-18.1885 48.6328-17.9443 48.7549-17.041L49.9756-6.66504C50.0732-5.95703 50.1953-5.54199 50.4883-4.78516L58.3252 15.8936C59.375 18.6523 62.0605 19.2627 64.1113 18.5059C66.1865 17.7246 67.8223 15.5518 66.7725 12.7197L59.0332-7.73926L59.0332-45.5322C59.0332-49.8779 57.2021-54.4922 52.8809-56.3232L50.3418-57.3975C45.6055-59.3994 41.0645-58.7646 37.0605-55.8594L27.8564-49.2432L18.7744-53.0518L39.2578-81.4697L45.7031-81.4697C47.9736-81.4697 49.8535-83.374 49.8535-85.5957C49.8535-87.9395 47.9736-89.7705 45.7031-89.7705L39.1357-89.7705C38.208-89.7705 37.1582-89.3311 36.5479-88.5254L10.8398-52.9785C8.98438-50.3906 9.61914-47.168 12.3047-46.0205L26.6357-39.8682C27.3438-39.5752 27.9053-39.5508 28.8086-39.5508L38.4033-39.5508C39.624-39.5508 39.9414-38.916 39.9414-37.9395L39.9414-27.0264L30.3955-8.95996C30.0049-8.20312 29.9072-7.59277 29.9072-6.78711L29.9072 14.2822C29.9072 16.7725 31.9092 18.7744 34.4727 18.7744Z"/>
  </g>
  <g id="Semibold-S" transform="matrix(1 0 0 1 2005.26 696)">
   <path d="M54.3825-60.3957C59.2541-60.3957 63.249-64.3906 63.249-69.3288C63.249-74.2337 59.2541-78.1953 54.3825-78.1953C49.4443-78.1953 45.4494-74.2337 45.4494-69.3288C45.4494-64.3906 49.4443-60.3957 54.3825-60.3957ZM34.0639 18.0546C36.4142 18.0546 38.3761 16.1415 38.3761 13.7757L38.3761-5.84424L46.8015-18.3025C47.2697-18.9972 48.224-18.7886 48.3372-17.9475L49.6112-7.02939C49.7089-6.33027 49.8221-5.94189 50.115-5.19395L57.8897 15.3159C58.8951 17.9414 61.4385 18.5251 63.4004 17.7949C65.3956 17.0492 66.9514 14.9919 65.946 12.2843L58.2512-8.03252L58.2512-45.5589C58.2512-49.8335 56.4646-54.3322 52.2588-56.1011L49.7375-57.1575C45.09-59.1062 40.6557-58.5069 36.7406-55.6639L27.5276-49.0388L18.1612-52.954L38.5824-81.3009L45.0811-81.3009C47.2005-81.3009 48.9471-83.063 48.9471-85.1336C48.9471-87.3174 47.2005-89.0151 45.0811-89.0151L38.5937-89.0151C37.737-89.0151 36.785-88.6112 36.219-87.8855L10.7332-52.623C9.07324-50.284 9.60137-47.2746 12.0736-46.2249L26.3603-40.1081C27.0416-39.8329 27.5587-39.7996 28.4531-39.7996L37.9679-39.7996C39.2774-39.7996 39.657-39.0404 39.657-38.0283L39.657-27.1597L30.1733-9.1999C29.8005-8.46973 29.7028-7.90381 29.7028-7.1248L29.7028 13.7757C29.7028 16.1415 31.6159 18.0546 34.0639 18.0546Z"/>
  </g>
  <g id="Medium-S" transform="matrix(1 0 0 1 1708.86 696)">
   <path d="M53.6885-60.207C58.459-60.207 62.373-64.1211 62.373-68.9717C62.373-73.7822 58.459-77.6562 53.6885-77.6562C48.8379-77.6562 44.9238-73.7822 44.9238-68.9717C44.9238-64.1211 48.8379-60.207 53.6885-60.207ZM33.7539 17.5088C36.0166 17.5088 37.9111 15.6631 37.9111 13.3916L37.9111-6.14746L46.5791-18.9629C47.0137-19.6104 47.9141-19.4287 48.0205-18.6348L49.335-7.30566C49.4326-6.61328 49.5391-6.24512 49.832-5.50391L57.5596 14.8779C58.5312 17.4023 60.9668 17.9658 62.8613 17.2559C64.7959 16.5371 66.291 14.5674 65.3193 11.9541L57.6582-8.25488L57.6582-45.5791C57.6582-49.7998 55.9053-54.2109 51.7871-55.9326L49.2793-56.9756C44.6992-58.8838 40.3457-58.3115 36.498-55.5156L27.2783-48.8838L17.6963-52.8799L38.0703-81.1729L44.6094-81.1729C46.6143-81.1729 48.2598-82.8271 48.2598-84.7832C48.2598-86.8457 46.6143-88.4424 44.6094-88.4424L38.1826-88.4424C37.3799-88.4424 36.502-88.0654 35.9697-87.4004L10.6523-52.3535C9.14062-50.2031 9.58789-47.3555 11.8984-46.3799L26.1514-40.29C26.8125-40.0283 27.2959-39.9883 28.1836-39.9883L37.6377-39.9883C39.0146-39.9883 39.4414-39.1348 39.4414-38.0957L39.4414-27.2607L30.0049-9.38184C29.6455-8.67188 29.5479-8.13965 29.5479-7.38086L29.5479 13.3916C29.5479 15.6631 31.3936 17.5088 33.7539 17.5088Z"/>
  </g>
  <g id="Regular-S" transform="matrix(1 0 0 1 1412.56 696)">
   <path d="M52.7832-59.9609C57.4219-59.9609 61.2305-63.7695 61.2305-68.5059C61.2305-73.1934 57.4219-76.9531 52.7832-76.9531C48.0469-76.9531 44.2383-73.1934 44.2383-68.5059C44.2383-63.7695 48.0469-59.9609 52.7832-59.9609ZM33.3496 16.7969C35.498 16.7969 37.3047 15.0391 37.3047 12.8906L37.3047-6.54297L46.2891-19.8242C46.6797-20.4102 47.5098-20.2637 47.6074-19.5312L48.9746-7.66602C49.0723-6.98242 49.1699-6.64062 49.4629-5.9082L57.1289 14.3066C58.0566 16.6992 60.3516 17.2363 62.1582 16.5527C64.0137 15.8691 65.4297 14.0137 64.502 11.5234L56.8848-8.54492L56.8848-45.6055C56.8848-49.7559 55.1758-54.0527 51.1719-55.7129L48.6816-56.7383C44.1895-58.5938 39.9414-58.0566 36.1816-55.3223L26.9531-48.6816L17.0898-52.7832L37.4023-81.0059L43.9941-81.0059C45.8496-81.0059 47.3633-82.5195 47.3633-84.3262C47.3633-86.2305 45.8496-87.6953 43.9941-87.6953L37.6465-87.6953C36.9141-87.6953 36.1328-87.3535 35.6445-86.7676L10.5469-52.002C9.22852-50.0977 9.57031-47.4609 11.6699-46.582L25.8789-40.5273C26.5137-40.2832 26.9531-40.2344 27.832-40.2344L37.207-40.2344C38.6719-40.2344 39.1602-39.2578 39.1602-38.1836L39.1602-27.3926L29.7852-9.61914C29.4434-8.93555 29.3457-8.44727 29.3457-7.71484L29.3457 12.8906C29.3457 15.0391 31.1035 16.7969 33.3496 16.7969Z"/>
  </g>
  <g id="Light-S" transform="matrix(1 0 0 1 1116.66 696)">
   <path d="M51.8296-59.6885C56.3169-59.6885 60.0195-63.376 60.0195-67.9609C60.0195-72.4971 56.3169-76.166 51.8296-76.166C47.2446-76.166 43.542-72.4971 43.542-67.9609C43.542-63.376 47.2446-59.6885 51.8296-59.6885ZM32.6836 15.2075C34.7715 15.2075 36.5176 13.5103 36.5176 11.4224L36.5176-7.42089L45.3809-20.5205C45.7109-21.0156 46.3897-20.8843 46.4722-20.2729L47.8394-8.51367C47.9219-7.86034 48.0347-7.51855 48.3125-6.8164L55.7515 12.793C56.6489 15.125 58.8682 15.647 60.6294 14.9785C62.4243 14.3101 63.7949 12.5 62.8975 10.0855L55.5073-9.3623L55.5073-45.3179C55.5073-49.332 53.8438-53.5078 49.9609-55.1074L47.5464-56.1025C43.2056-57.8975 39.0786-57.3755 35.4248-54.7319L26.4688-48.2881L16.1211-52.6318L36.0703-80.3398L42.7983-80.3398C44.4116-80.3398 45.7134-81.6416 45.7134-83.1909C45.7134-84.8379 44.4116-86.106 42.7983-86.106L36.4658-86.106C35.8394-86.106 35.2246-85.7793 34.8272-85.2993L10.5317-51.6689C9.25879-49.8555 9.50977-47.1733 11.7759-46.2036L25.4248-40.3911C26.0444-40.147 26.4688-40.0981 27.3174-40.0981L36.4199-40.0981C37.8545-40.0981 38.3276-39.1519 38.3276-38.1079L38.3276-27.6499L29.2251-10.4062C28.8984-9.75292 28.8008-9.27978 28.8008-8.56249L28.8008 11.4224C28.8008 13.5103 30.5132 15.2075 32.6836 15.2075Z"/>
  </g>
  <g id="Thin-S" transform="matrix(1 0 0 1 821.023 696)">
   <path d="M50.5684-59.3281C54.8555-59.3281 58.418-62.8555 58.418-67.2402C58.418-71.5762 54.8555-75.125 50.5684-75.125C46.1836-75.125 42.6211-71.5762 42.6211-67.2402C42.6211-62.8555 46.1836-59.3281 50.5684-59.3281ZM31.8027 13.1055C33.8106 13.1055 35.4766 11.4883 35.4766 9.4805L35.4766-8.58202L44.1797-21.4414C44.4297-21.8164 44.9082-21.7051 44.9707-21.2539L46.3379-9.63475C46.4004-9.02147 46.5332-8.67967 46.791-8.01756L53.9297 10.791C54.7871 13.043 56.9063 13.545 58.6074 12.8965C60.3223 12.2481 61.6328 10.4981 60.7754 8.18362L53.6856-10.4433L53.6856-44.9375C53.6856-48.7715 52.0821-52.7871 48.3594-54.3067L46.0449-55.2617C41.9043-56.9766 37.9375-56.4746 34.4238-53.9512L25.8281-47.7676L14.8399-52.4316L34.3086-79.459L41.2168-79.459C42.5098-79.459 43.5313-80.4805 43.5313-81.6895C43.5313-82.9961 42.5098-84.0039 41.2168-84.0039L34.9043-84.0039C34.418-84.0039 34.0235-83.6973 33.7461-83.3574L10.5117-51.2285C9.29883-49.5352 9.42969-46.793 11.916-45.7031L24.8242-40.2109C25.4238-39.9668 25.8281-39.918 26.6367-39.918L35.3789-39.918C36.7735-39.918 37.2266-39.0117 37.2266-38.0078L37.2266-27.9902L28.4844-11.4473C28.1777-10.834 28.0801-10.3808 28.0801-9.68358L28.0801 9.4805C28.0801 11.4883 29.7324 13.1055 31.8027 13.1055Z"/>
  </g>
  <g id="Ultralight-S" transform="matrix(1 0 0 1 524.86 696)">
   <path d="M49.9224-59.1436C54.107-59.1436 57.5977-62.5889 57.5977-66.8711C57.5977-71.1045 54.107-74.5918 49.9224-74.5918C45.6402-74.5918 42.1494-71.1045 42.1494-66.8711C42.1494-62.5889 45.6402-59.1436 49.9224-59.1436ZM31.3516 12.0288C33.3184 12.0288 34.9434 10.4527 34.9434 8.48587L34.9434-9.17674L43.5645-21.9131C43.7735-22.2265 44.1494-22.1255 44.2017-21.7563L45.5689-10.209C45.6211-9.61619 45.7642-9.27439 46.0117-8.63279L52.9966 9.76566C53.8335 11.9766 55.9014 12.4683 57.5718 11.8301C59.2456 11.1919 60.5254 9.47269 59.6885 7.20951L52.7525-10.9971L52.7525-44.7427C52.7525-48.4844 51.1797-52.418 47.5391-53.8965L45.2759-54.8311C41.2378-56.5049 37.353-56.0132 33.9112-53.5513L25.5-47.501L14.1836-52.3291L33.4063-79.0078L40.4068-79.0078C41.5357-79.0078 42.4136-79.8858 42.4136-80.9204C42.4136-82.0528 41.5357-82.9273 40.4068-82.9273L34.1045-82.9273C33.69-82.9273 33.4082-82.6309 33.1924-82.3628L10.5015-51.0029C9.31934-49.3711 9.38867-46.5982 11.9878-45.4468L24.5166-40.1187C25.106-39.8745 25.5-39.8257 26.2881-39.8257L34.8457-39.8257C36.2197-39.8257 36.6626-38.9399 36.6626-37.9565L36.6626-28.1645L28.105-11.9805C27.8086-11.3877 27.711-10.9448 27.711-10.2578L27.711 8.48587C27.711 10.4527 29.3325 12.0288 31.3516 12.0288Z"/>
  </g>
 </g>
</svg>
