<?xml version="1.0" encoding="UTF-8"?>
<!--Generator: Apple Native CoreSVG 175.5-->
<!DOCTYPE svg
PUBLIC "-//W3C//DTD SVG 1.1//EN"
       "http://www.w3.org/Graphics/SVG/1.1/DTD/svg11.dtd">
<svg version="1.1" xmlns="http://www.w3.org/2000/svg" xmlns:xlink="http://www.w3.org/1999/xlink" width="3300" height="2200">
 <!--glyph: "uni10153B.medium", point size: 100.0, font version: "18.0d12e2", template writer version: "101"-->
 <g id="Notes">
  <rect height="2200" id="artboard" style="fill:white;opacity:1" width="3300" x="0" y="0"/>
  <line style="fill:none;stroke:black;opacity:1;stroke-width:0.5;" x1="263" x2="3036" y1="292" y2="292"/>
  <text style="stroke:none;fill:black;font-family:sans-serif;font-size:13;font-weight:bold;" transform="matrix(1 0 0 1 263 322)">Weight/Scale Variations</text>
  <text style="stroke:none;fill:black;font-family:sans-serif;font-size:13;text-anchor:middle;" transform="matrix(1 0 0 1 559.711 322)">Ultralight</text>
  <text style="stroke:none;fill:black;font-family:sans-serif;font-size:13;text-anchor:middle;" transform="matrix(1 0 0 1 856.422 322)">Thin</text>
  <text style="stroke:none;fill:black;font-family:sans-serif;font-size:13;text-anchor:middle;" transform="matrix(1 0 0 1 1153.13 322)">Light</text>
  <text style="stroke:none;fill:black;font-family:sans-serif;font-size:13;text-anchor:middle;" transform="matrix(1 0 0 1 1449.84 322)">Regular</text>
  <text style="stroke:none;fill:black;font-family:sans-serif;font-size:13;text-anchor:middle;" transform="matrix(1 0 0 1 1746.56 322)">Medium</text>
  <text style="stroke:none;fill:black;font-family:sans-serif;font-size:13;text-anchor:middle;" transform="matrix(1 0 0 1 2043.27 322)">Semibold</text>
  <text style="stroke:none;fill:black;font-family:sans-serif;font-size:13;text-anchor:middle;" transform="matrix(1 0 0 1 2339.98 322)">Bold</text>
  <text style="stroke:none;fill:black;font-family:sans-serif;font-size:13;text-anchor:middle;" transform="matrix(1 0 0 1 2636.69 322)">Heavy</text>
  <text style="stroke:none;fill:black;font-family:sans-serif;font-size:13;text-anchor:middle;" transform="matrix(1 0 0 1 2933.4 322)">Black</text>
  <line style="fill:none;stroke:black;opacity:1;stroke-width:0.5;" x1="263" x2="3036" y1="1903" y2="1903"/>
  <g transform="matrix(1 0 0 1 263 1933)">
   <path d="M9.24805 0.830078C13.5547 0.830078 17.1387-2.74414 17.1387-7.05078C17.1387-11.3574 13.5449-14.9316 9.23828-14.9316C4.94141-14.9316 1.36719-11.3574 1.36719-7.05078C1.36719-2.74414 4.95117 0.830078 9.24805 0.830078ZM9.24805-0.654297C5.70312-0.654297 2.87109-3.49609 2.87109-7.05078C2.87109-10.6055 5.69336-13.4473 9.23828-13.4473C12.793-13.4473 15.6445-10.6055 15.6445-7.05078C15.6445-3.49609 12.8027-0.654297 9.24805-0.654297ZM5.6543-7.05078C5.6543-6.62109 5.95703-6.32812 6.40625-6.32812L8.50586-6.32812L8.50586-4.20898C8.50586-3.76953 8.79883-3.4668 9.22852-3.4668C9.67773-3.4668 9.9707-3.76953 9.9707-4.20898L9.9707-6.32812L12.0898-6.32812C12.5293-6.32812 12.832-6.62109 12.832-7.05078C12.832-7.49023 12.5293-7.79297 12.0898-7.79297L9.9707-7.79297L9.9707-9.90234C9.9707-10.3516 9.67773-10.6543 9.22852-10.6543C8.79883-10.6543 8.50586-10.3516 8.50586-9.90234L8.50586-7.79297L6.40625-7.79297C5.95703-7.79297 5.6543-7.49023 5.6543-7.05078Z"/>
  </g>
  <g transform="matrix(1 0 0 1 281.867 1933)">
   <path d="M11.709 2.91016C17.1582 2.91016 21.6699-1.61133 21.6699-7.05078C21.6699-12.5 17.1484-17.0117 11.6992-17.0117C6.25977-17.0117 1.74805-12.5 1.74805-7.05078C1.74805-1.61133 6.26953 2.91016 11.709 2.91016ZM11.709 1.25C7.09961 1.25 3.41797-2.44141 3.41797-7.05078C3.41797-11.6602 7.08984-15.3516 11.6992-15.3516C16.3086-15.3516 20.0098-11.6602 20.0098-7.05078C20.0098-2.44141 16.3184 1.25 11.709 1.25ZM7.17773-7.05078C7.17773-6.57227 7.50977-6.25 8.00781-6.25L10.8789-6.25L10.8789-3.36914C10.8789-2.88086 11.2109-2.53906 11.6895-2.53906C12.1777-2.53906 12.5195-2.87109 12.5195-3.36914L12.5195-6.25L15.4004-6.25C15.8887-6.25 16.2305-6.57227 16.2305-7.05078C16.2305-7.53906 15.8887-7.88086 15.4004-7.88086L12.5195-7.88086L12.5195-10.752C12.5195-11.25 12.1777-11.5918 11.6895-11.5918C11.2109-11.5918 10.8789-11.25 10.8789-10.752L10.8789-7.88086L8.00781-7.88086C7.50977-7.88086 7.17773-7.53906 7.17773-7.05078Z"/>
  </g>
  <g transform="matrix(1 0 0 1 305.646 1933)">
   <path d="M14.9707 5.66406C21.9336 5.66406 27.6953-0.0976562 27.6953-7.05078C27.6953-14.0137 21.9238-19.7754 14.9609-19.7754C8.00781-19.7754 2.25586-14.0137 2.25586-7.05078C2.25586-0.0976562 8.01758 5.66406 14.9707 5.66406ZM14.9707 3.84766C8.93555 3.84766 4.08203-1.01562 4.08203-7.05078C4.08203-13.0957 8.92578-17.9492 14.9609-17.9492C21.0059-17.9492 25.8691-13.0957 25.8691-7.05078C25.8691-1.01562 21.0156 3.84766 14.9707 3.84766ZM9.19922-7.05078C9.19922-6.5332 9.57031-6.17188 10.1172-6.17188L14.0625-6.17188L14.0625-2.2168C14.0625-1.67969 14.4336-1.29883 14.9512-1.29883C15.4883-1.29883 15.8594-1.66992 15.8594-2.2168L15.8594-6.17188L19.8145-6.17188C20.3516-6.17188 20.7324-6.5332 20.7324-7.05078C20.7324-7.59766 20.3613-7.96875 19.8145-7.96875L15.8594-7.96875L15.8594-11.9141C15.8594-12.4609 15.4883-12.8418 14.9512-12.8418C14.4336-12.8418 14.0625-12.4609 14.0625-11.9141L14.0625-7.96875L10.1172-7.96875C9.57031-7.96875 9.19922-7.59766 9.19922-7.05078Z"/>
  </g>
  <text style="stroke:none;fill:black;font-family:sans-serif;font-size:13;font-weight:bold;" transform="matrix(1 0 0 1 263 1953)">Design Variations</text>
  <text style="stroke:none;fill:black;font-family:sans-serif;font-size:13;" transform="matrix(1 0 0 1 263 1971)">Symbols are supported in up to nine weights and three scales.</text>
  <text style="stroke:none;fill:black;font-family:sans-serif;font-size:13;" transform="matrix(1 0 0 1 263 1989)">For optimal layout with text and other symbols, vertically align</text>
  <text style="stroke:none;fill:black;font-family:sans-serif;font-size:13;" transform="matrix(1 0 0 1 263 2007)">symbols with the adjacent text.</text>
  <line style="fill:none;stroke:#00AEEF;stroke-width:0.5;opacity:1.0;" x1="776" x2="776" y1="1919" y2="1933"/>
  <g transform="matrix(1 0 0 1 776 1933)">
   <path d="M3.31055 0.15625C3.82812 0.15625 4.08203-0.0390625 4.26758-0.585938L5.52734-4.0332L11.2891-4.0332L12.5488-0.585938C12.7344-0.0390625 12.9883 0.15625 13.4961 0.15625C14.0137 0.15625 14.3457-0.15625 14.3457-0.644531C14.3457-0.810547 14.3164-0.966797 14.2383-1.17188L9.6582-13.3691C9.43359-13.9648 9.0332-14.2676 8.4082-14.2676C7.80273-14.2676 7.39258-13.9746 7.17773-13.3789L2.59766-1.16211C2.51953-0.957031 2.49023-0.800781 2.49023-0.634766C2.49023-0.146484 2.80273 0.15625 3.31055 0.15625ZM6.00586-5.51758L8.37891-12.0898L8.42773-12.0898L10.8008-5.51758Z"/>
  </g>
  <line style="fill:none;stroke:#00AEEF;stroke-width:0.5;opacity:1.0;" x1="793.197" x2="793.197" y1="1919" y2="1933"/>
  <text style="stroke:none;fill:black;font-family:sans-serif;font-size:13;font-weight:bold;" transform="matrix(1 0 0 1 776 1953)">Margins</text>
  <text style="stroke:none;fill:black;font-family:sans-serif;font-size:13;" transform="matrix(1 0 0 1 776 1971)">Leading and trailing margins on the left and right side of each symbol</text>
  <text style="stroke:none;fill:black;font-family:sans-serif;font-size:13;" transform="matrix(1 0 0 1 776 1989)">can be adjusted by modifying the x-location of the margin guidelines.</text>
  <text style="stroke:none;fill:black;font-family:sans-serif;font-size:13;" transform="matrix(1 0 0 1 776 2007)">Modifications are automatically applied proportionally to all</text>
  <text style="stroke:none;fill:black;font-family:sans-serif;font-size:13;" transform="matrix(1 0 0 1 776 2025)">scales and weights.</text>
  <g transform="matrix(1 0 0 1 1289 1933)">
   <path d="M2.8418 1.86523L4.54102 3.57422C5.40039 4.44336 6.38672 4.38477 7.31445 3.35938L18.0078-8.42773L17.041-9.4043L6.42578 2.27539C6.07422 2.67578 5.74219 2.77344 5.27344 2.30469L4.10156 1.14258C3.63281 0.683594 3.74023 0.341797 4.14062-0.0195312L15.6152-10.8203L14.6387-11.7871L3.04688-0.898438C2.06055 0.0195312 1.98242 0.996094 2.8418 1.86523ZM9.25781-16.3281C8.83789-15.918 8.80859-15.3418 9.04297-14.9512C9.27734-14.5898 9.73633-14.3555 10.3809-14.5215C11.8457-14.8633 13.3691-14.9219 14.7949-13.9844L14.209-12.5293C13.8672-11.6992 14.043-11.1133 14.5801-10.5664L16.875-8.25195C17.3633-7.76367 17.7734-7.74414 18.3398-7.8418L19.4043-8.03711L20.0684-7.36328L20.0293-6.80664C19.9902-6.30859 20.1172-5.92773 20.6055-5.44922L21.3672-4.70703C21.8457-4.22852 22.4609-4.19922 22.9297-4.66797L25.8398-7.58789C26.3086-8.05664 26.2891-8.65234 25.8105-9.13086L25.0391-9.89258C24.5605-10.3711 24.1895-10.5273 23.7109-10.4883L23.1348-10.4395L22.4902-11.0742L22.7344-12.1973C22.8613-12.7637 22.7051-13.2031 22.1191-13.7891L19.9219-15.9766C16.582-19.2969 12.1484-19.2188 9.25781-16.3281ZM10.752-15.957C13.1836-17.7344 16.4746-17.4316 18.7012-15.2051L21.1328-12.793C21.3672-12.5586 21.4062-12.373 21.3379-12.0312L21.0156-10.5469L22.5195-9.0625L23.5059-9.12109C23.7598-9.13086 23.8379-9.11133 24.0332-8.91602L24.6094-8.33984L22.168-5.89844L21.5918-6.47461C21.3965-6.66992 21.3672-6.74805 21.377-7.01172L21.4453-7.98828L19.9512-9.47266L18.4277-9.21875C18.1055-9.15039 17.959-9.17969 17.7148-9.41406L15.7129-11.416C15.459-11.6504 15.4297-11.8164 15.5859-12.1875L16.4648-14.2773C14.9023-15.7324 12.8711-16.3574 10.8398-15.7617C10.6836-15.7227 10.625-15.8496 10.752-15.957Z"/>
  </g>
  <text style="stroke:none;fill:black;font-family:sans-serif;font-size:13;font-weight:bold;" transform="matrix(1 0 0 1 1289 1953)">Exporting</text>
  <text style="stroke:none;fill:black;font-family:sans-serif;font-size:13;" transform="matrix(1 0 0 1 1289 1971)">Symbols should be outlined when exporting to ensure the</text>
  <text style="stroke:none;fill:black;font-family:sans-serif;font-size:13;" transform="matrix(1 0 0 1 1289 1989)">design is preserved when submitting to Xcode.</text>
  <text id="template-version" style="stroke:none;fill:black;font-family:sans-serif;font-size:13;text-anchor:end;" transform="matrix(1 0 0 1 3036 1933)">Template v.4.0</text>
  <text style="stroke:none;fill:black;font-family:sans-serif;font-size:13;text-anchor:end;" transform="matrix(1 0 0 1 3036 1951)">Requires Xcode 14 or greater</text>
  <text id="descriptive-name" style="stroke:none;fill:black;font-family:sans-serif;font-size:13;text-anchor:end;" transform="matrix(1 0 0 1 3036 1969)">Generated from figure.rugby</text>
  <text style="stroke:none;fill:black;font-family:sans-serif;font-size:13;text-anchor:end;" transform="matrix(1 0 0 1 3036 1987)">Typeset at 100 points</text>
  <text style="stroke:none;fill:black;font-family:sans-serif;font-size:13;" transform="matrix(1 0 0 1 263 726)">Small</text>
  <text style="stroke:none;fill:black;font-family:sans-serif;font-size:13;" transform="matrix(1 0 0 1 263 1156)">Medium</text>
  <text style="stroke:none;fill:black;font-family:sans-serif;font-size:13;" transform="matrix(1 0 0 1 263 1586)">Large</text>
 </g>
 <g id="Guides">
  <g id="H-reference" style="fill:#27AAE1;stroke:none;" transform="matrix(1 0 0 1 339 696)">
   <path d="M0.993654 0L3.63775 0L29.3281-67.1323L30.0303-67.1323L30.0303-70.459L28.1226-70.459ZM11.6885-24.4799L46.9815-24.4799L46.2315-26.7285L12.4385-26.7285ZM55.1196 0L57.7637 0L30.6382-70.459L29.4326-70.459L29.4326-67.1323Z"/>
  </g>
  <line id="Baseline-S" style="fill:none;stroke:#27AAE1;opacity:1;stroke-width:0.5;" x1="263" x2="3036" y1="696" y2="696"/>
  <line id="Capline-S" style="fill:none;stroke:#27AAE1;opacity:1;stroke-width:0.5;" x1="263" x2="3036" y1="625.541" y2="625.541"/>
  <g id="H-reference" style="fill:#27AAE1;stroke:none;" transform="matrix(1 0 0 1 339 1126)">
   <path d="M0.993654 0L3.63775 0L29.3281-67.1323L30.0303-67.1323L30.0303-70.459L28.1226-70.459ZM11.6885-24.4799L46.9815-24.4799L46.2315-26.7285L12.4385-26.7285ZM55.1196 0L57.7637 0L30.6382-70.459L29.4326-70.459L29.4326-67.1323Z"/>
  </g>
  <line id="Baseline-M" style="fill:none;stroke:#27AAE1;opacity:1;stroke-width:0.5;" x1="263" x2="3036" y1="1126" y2="1126"/>
  <line id="Capline-M" style="fill:none;stroke:#27AAE1;opacity:1;stroke-width:0.5;" x1="263" x2="3036" y1="1055.54" y2="1055.54"/>
  <g id="H-reference" style="fill:#27AAE1;stroke:none;" transform="matrix(1 0 0 1 339 1556)">
   <path d="M0.993654 0L3.63775 0L29.3281-67.1323L30.0303-67.1323L30.0303-70.459L28.1226-70.459ZM11.6885-24.4799L46.9815-24.4799L46.2315-26.7285L12.4385-26.7285ZM55.1196 0L57.7637 0L30.6382-70.459L29.4326-70.459L29.4326-67.1323Z"/>
  </g>
  <line id="Baseline-L" style="fill:none;stroke:#27AAE1;opacity:1;stroke-width:0.5;" x1="263" x2="3036" y1="1556" y2="1556"/>
  <line id="Capline-L" style="fill:none;stroke:#27AAE1;opacity:1;stroke-width:0.5;" x1="263" x2="3036" y1="1485.54" y2="1485.54"/>
  <line id="left-margin-Regular-M" style="fill:none;stroke:#00AEEF;stroke-width:0.5;opacity:1.0;" x1="1373.53" x2="1373.53" y1="1030.79" y2="1150.12"/>
  <line id="right-margin-Regular-M" style="fill:none;stroke:#00AEEF;stroke-width:0.5;opacity:1.0;" x1="1526.16" x2="1526.16" y1="1030.79" y2="1150.12"/>
 </g>
 <g id="Symbols">
  <g id="Black-L" transform="matrix(1 0 0 1 2827.1 1556)">
   <path d="M104.477-81.2811C113.025-81.2811 119.967-88.2463 119.967-96.7736C119.967-105.322 113.025-112.264 104.477-112.264C95.9497-112.264 88.9845-105.322 88.9845-96.7736C88.9845-88.2463 95.9497-81.2811 104.477-81.2811ZM161.514-59.0607C165.886-59.0607 169.443-62.5351 169.443-66.9877C169.443-71.3611 165.886-74.8147 161.514-74.8147L90.5767-74.8147C83.7295-74.8147 77.6464-71.251 74.4653-64.8863L45.2991-6.38122L29.5026-22.1789C26.3487-25.3328 21.2968-25.194 18.3401-22.1789C15.2666-19.025 15.3458-14.1119 18.3401-11.0175L42.2256 12.9288C45.5392 16.2435 50.8116 15.783 53.5646 11.7313L73.1586-16.827C73.9693-18.0241 75.1661-18.1486 76.3181-17.2587L99.958 0.80182L99.958 33.7913C99.958 38.1439 103.432 41.6183 107.806 41.6183C112.258 41.6183 115.713 38.1439 115.713 33.7913L115.713-3.19149C115.713-5.22836 114.873-7.32243 113.397-8.70275L90.5553-31.5825L102.82-55.9931C103.908-58.1476 105.47-59.0607 107.725-59.0607ZM117.873-28.8368L144.768-28.8368C149.141-28.8368 152.616-32.3928 152.616-36.6846C152.616-41.058 149.141-44.592 144.768-44.592L121.128-44.592L114.194-51.5049L110.236-51.5049C109.477-51.5049 108.84-51.1468 108.461-50.4087L103.29-40.1862L112.361-31.1733C113.881-29.7334 115.836-28.8368 117.873-28.8368ZM160.528-42.5331C160.528-35.3562 168.713-29.6324 178.524-29.6324C188.336-29.6324 196.519-35.3562 196.519-42.5331C196.519-49.8112 188.336-55.4533 178.524-55.4533C168.713-55.4533 160.528-49.8112 160.528-42.5331Z"/>
  </g>
  <g id="Heavy-L" transform="matrix(1 0 0 1 2532.38 1556)">
   <path d="M103.103-80.7962C111.428-80.7962 118.155-87.5651 118.155-95.8597C118.155-104.184 111.428-110.912 103.103-110.912C94.8084-110.912 88.0395-104.184 88.0395-95.8597C88.0395-87.5651 94.8084-80.7962 103.103-80.7962ZM159.403-59.2408C163.574-59.2408 166.979-62.5597 166.979-66.8111C166.979-70.9876 163.574-74.2763 159.403-74.2763L89.3698-74.2763C82.6958-74.2763 76.8002-70.8086 73.7101-64.617L44.7354-6.54517L28.8939-22.3923C25.891-25.3952 21.0679-25.2701 18.2348-22.3923C15.3124-19.3895 15.3872-14.6915 18.2348-11.7389L41.813 11.8952C44.9711 15.0589 50.0053 14.6122 52.6116 10.7573L71.9525-17.4303C72.8138-18.7151 74.2455-18.8671 75.4531-17.9309L98.8911-0.0226892L98.8911 32.6798C98.8911 36.8262 102.21 40.1451 106.387 40.1451C110.638 40.1451 113.932 36.8262 113.932 32.6798L113.932-3.83293C113.932-5.77825 113.119-7.76259 111.731-9.09715L89.0402-31.8025L101.225-56.0762C102.336-58.2632 104.008-59.2408 106.306-59.2408ZM116.318-29.4058L142.869-29.4058C147.046-29.4058 150.365-32.8108 150.365-36.9013C150.365-41.0778 147.046-44.4469 142.869-44.4469L119.431-44.4469L111.785-52.0628L108.395-52.0628C107.668-52.0628 107.082-51.7323 106.721-51.0355L101.651-40.995L111.053-31.637C112.513-30.2523 114.372-29.4058 116.318-29.4058ZM157.515-43.059C157.515-36.1474 165.458-30.588 175.028-30.588C184.598-30.588 192.535-36.1474 192.535-43.059C192.535-50.0812 184.598-55.5546 175.028-55.5546C165.458-55.5546 157.515-50.0812 157.515-43.059Z"/>
  </g>
  <g id="Bold-L" transform="matrix(1 0 0 1 2238.17 1556)">
   <path d="M101.293-80.1521C109.341-80.1521 115.807-86.6827 115.807-94.6928C115.807-102.741 109.341-109.207 101.293-109.207C93.2828-109.207 86.7522-102.741 86.7522-94.6928C86.7522-86.6827 93.2828-80.1521 101.293-80.1521ZM156.589-59.3593C160.522-59.3593 163.75-62.4936 163.75-66.5064C163.75-70.452 160.522-73.5482 156.589-73.5482L87.7896-73.5482C81.3307-73.5482 75.6582-70.1959 72.6832-64.2195L44.0139-6.81957L28.1781-22.6686C25.3523-25.4944 20.7986-25.3848 18.1116-22.6686C15.3662-19.8428 15.4334-15.3987 18.1116-12.6154L41.2685 10.5972C44.2419 13.5838 48.9989 13.1525 51.4358 9.52858L70.4319-18.1533C71.3473-19.5308 73.0337-19.7137 74.2955-18.7311L97.4353-1.05209L97.4353 31.2224C97.4353 35.13 100.57 38.2643 104.515 38.2643C108.528 38.2643 111.637 35.13 111.637 31.2224L111.637-4.64682C111.637-6.4844 110.855-8.33795 109.567-9.61863L87.1206-32.0566L99.1752-56.0942C100.31-58.3123 102.098-59.3593 104.435-59.3593ZM114.262-30.0531L140.346-30.0531C144.292-30.0531 147.426-33.281 147.426-37.1329C147.426-41.0785 144.292-44.2552 140.346-44.2552L117.207-44.2552L108.766-52.6575L106.031-52.6575C105.343-52.6575 104.811-52.3578 104.473-51.7073L99.5254-41.8971L109.291-32.1611C110.681-30.838 112.425-30.0531 114.262-30.0531ZM153.707-43.6152C153.707-37.019 161.357-31.6595 170.627-31.6595C179.898-31.6595 187.535-37.019 187.535-43.6152C187.535-50.3298 179.898-55.5957 170.627-55.5957C161.357-55.5957 153.707-50.3298 153.707-43.6152Z"/>
  </g>
  <g id="Semibold-L" transform="matrix(1 0 0 1 1943.18 1556)">
   <path d="M100.045-79.7081C107.902-79.7081 114.188-86.0743 114.188-93.8883C114.188-101.746 107.902-108.032 100.045-108.032C92.231-108.032 85.8648-101.746 85.8648-93.8883C85.8648-86.0743 92.231-79.7081 100.045-79.7081ZM154.65-59.441C158.418-59.441 161.523-62.448 161.523-66.2963C161.523-70.0827 158.418-73.0463 154.65-73.0463L86.7002-73.0463C80.3896-73.0463 74.8709-69.7735 71.9754-63.9454L43.5164-7.00874L27.6846-22.859C24.9809-25.5628 20.6129-25.4638 18.0267-22.859C15.4034-20.1553 15.4653-15.8863 18.0267-13.2196L40.8931 9.70235C43.7392 12.5669 48.3051 12.1462 50.6252 8.6815L69.3836-18.6518C70.3363-20.0932 72.1983-20.2973 73.4975-19.2827L96.4317-1.76175L96.4317 30.2177C96.4317 33.9607 99.4386 36.9676 103.225 36.9676C107.073 36.9676 110.055 33.9607 110.055 30.2177L110.055-5.20792C110.055-6.97121 109.295-8.7346 108.076-9.97814L85.7972-32.2318L97.7624-56.1066C98.9131-58.3461 100.781-59.441 103.145-59.441ZM112.846-30.4993L138.607-30.4993C142.394-30.4993 145.401-33.6051 145.401-37.2926C145.401-41.0791 142.394-44.123 138.607-44.123L115.673-44.123L106.685-53.0674L104.401-53.0674C103.739-53.0674 103.245-52.789 102.923-52.1704L98.0601-42.5191L108.075-32.5224C109.418-31.2418 111.082-30.4993 112.846-30.4993ZM151.081-43.9987C151.081-37.6199 158.53-32.3982 167.594-32.3982C176.657-32.3982 184.088-37.6199 184.088-43.9987C184.088-50.5012 176.657-55.624 167.594-55.624C158.53-55.624 151.081-50.5012 151.081-43.9987Z"/>
  </g>
  <g id="Medium-L" transform="matrix(1 0 0 1 1647.78 1556)">
   <path d="M99.0989-79.3714C106.812-79.3714 112.961-85.6131 112.961-93.2784C112.961-100.991 106.812-107.14 99.0989-107.14C91.4336-107.14 85.1919-100.991 85.1919-93.2784C85.1919-85.6131 91.4336-79.3714 99.0989-79.3714ZM153.179-59.503C156.822-59.503 159.835-62.4134 159.835-66.137C159.835-69.8028 156.822-72.6657 153.179-72.6657L85.8742-72.6657C79.676-72.6657 74.274-69.4532 71.4386-63.7376L43.1392-7.15218L27.3104-23.0035C24.6993-25.6146 20.472-25.5237 17.9623-23.0035C15.4315-20.3923 15.4895-16.256 17.9623-13.6778L40.6085 9.02383C43.358 11.7959 47.7791 11.3832 50.0106 8.0392L68.5887-19.0297C69.5697-20.5196 71.5648-20.7398 72.8924-19.7009L95.6707-2.29984L95.6707 29.4558C95.6707 33.0741 98.5811 35.9845 102.247 35.9845C105.971 35.9845 108.856 33.0741 108.856 29.4558L108.856-5.63336C108.856-7.34033 108.111-9.03535 106.945-10.2507L84.7937-32.3647L96.6911-56.116C97.854-58.3717 99.7829-59.503 102.166-59.503ZM111.771-30.8376L137.289-30.8376C140.954-30.8376 143.865-33.8509 143.865-37.4137C143.865-41.0794 140.954-44.0228 137.289-44.0228L114.51-44.0228L105.107-53.3783L103.166-53.3783C102.524-53.3783 102.057-53.116 101.747-52.5215L96.949-42.9906L107.154-32.7964C108.46-31.548 110.064-30.8376 111.771-30.8376ZM149.09-44.2894C149.09-38.0756 156.386-32.9584 165.293-32.9584C174.2-32.9584 181.474-38.0756 181.474-44.2894C181.474-50.6311 174.2-55.6454 165.293-55.6454C156.386-55.6454 149.09-50.6311 149.09-44.2894Z"/>
  </g>
  <g id="Regular-L" transform="matrix(1 0 0 1 1352.77 1556)">
   <path d="M97.8648-78.9322C105.389-78.9322 111.36-85.0114 111.36-92.4828C111.36-100.007 105.389-105.978 97.8648-105.978C90.3934-105.978 84.3142-100.007 84.3142-92.4828C84.3142-85.0114 90.3934-78.9322 97.8648-78.9322ZM151.26-59.5838C154.741-59.5838 157.633-62.3683 157.633-65.9293C157.633-69.4376 154.741-72.1693 151.26-72.1693L84.7967-72.1693C78.7452-72.1693 73.4954-69.0355 70.7385-63.4665L42.6473-7.33928L26.8224-23.1918C24.3319-25.6823 20.2884-25.6019 17.8783-23.1918C15.4683-20.7013 15.521-16.7382 17.8783-14.2754L40.2372 8.13881C42.8609 10.7901 47.0929 10.388 49.2089 7.20143L67.5519-19.5227C68.5697-21.0758 70.7385-21.317 72.1031-20.2465L94.6782-3.0017L94.6782 28.4621C94.6782 31.9176 97.4627 34.7021 100.971 34.7021C104.532 34.7021 107.291 31.9176 107.291 28.4621L107.291-6.18829C107.291-7.8218 106.568-9.42764 105.469-10.6063L83.4849-32.538L95.2939-56.1283C96.4725-58.4051 98.4805-59.5838 100.891-59.5838ZM110.37-31.2789L135.569-31.2789C139.077-31.2789 141.861-34.1715 141.861-37.5717C141.861-41.0799 139.077-43.8921 135.569-43.8921L112.994-43.8921L103.049-53.7837L101.554-53.7837C100.938-53.7837 100.508-53.5425 100.214-52.9795L95.4998-43.6057L105.952-33.1537C107.211-31.9474 108.736-31.2789 110.37-31.2789ZM146.493-44.6686C146.493-38.6699 153.59-33.689 162.293-33.689C170.995-33.689 178.065-38.6699 178.065-44.6686C178.065-50.8006 170.995-55.6734 162.293-55.6734C153.59-55.6734 146.493-50.8006 146.493-44.6686Z"/>
  </g>
  <g id="Light-L" transform="matrix(1 0 0 1 1058 1556)">
   <path d="M95.9181-78.207C103.251-78.207 109.07-84.1525 109.07-91.4522C109.07-98.7855 103.251-104.604 95.9181-104.604C88.6184-104.604 82.6729-98.7855 82.6729-91.4522C82.6729-84.1525 88.6184-78.207 95.9181-78.207ZM148.035-58.9921C151.42-58.9921 154.255-61.7003 154.255-65.1659C154.255-68.5978 151.42-71.2723 148.035-71.2723L83.1554-71.2723C77.2566-71.2723 72.1021-68.1957 69.4407-62.7794L41.9984-7.98818L26.5743-23.459C24.1411-25.8922 20.193-25.8118 17.8402-23.459C15.4874-21.0258 15.521-17.1581 17.8402-14.7716L39.6456 7.12729C42.1929 9.72134 46.3486 9.31924 48.4265 6.20899L66.3305-19.8662C67.3292-21.3811 69.4407-21.6224 70.7481-20.59L92.8078-3.76511L92.8078 26.9353C92.8078 30.3335 95.516 33.0417 98.9479 33.0417C102.413 33.0417 105.135 30.3335 105.135 26.9353L105.135-6.87536C105.135-8.4707 104.411-10.0193 103.332-11.1788L81.8817-32.5952L93.4044-55.5939C94.564-57.8326 96.5147-58.9921 98.8675-58.9921ZM108.118-31.3553L132.725-31.3553C136.157-31.3553 138.865-34.1906 138.865-37.4953C138.865-40.9273 136.157-43.6822 132.725-43.6822L110.665-43.6822L100.74-53.5738L99.3782-53.5738C98.7815-53.5738 98.3327-53.3325 98.0578-52.7696L93.4195-43.5866L103.814-33.1918C105.054-31.9855 106.522-31.3553 108.118-31.3553ZM143.363-44.4396C143.363-38.5745 150.307-33.708 158.8-33.708C167.293-33.708 174.19-38.5745 174.19-44.4396C174.19-50.4188 167.293-55.1581 158.8-55.1581C150.307-55.1581 143.363-50.4188 143.363-44.4396Z"/>
  </g>
  <g id="Thin-L" transform="matrix(1 0 0 1 763.847 1556)">
   <path d="M93.3434-77.2478C100.424-77.2478 106.041-83.0167 106.041-90.0891C106.041-97.17 100.424-102.786 93.3434-102.786C86.2709-102.786 80.5021-97.17 80.5021-90.0891C80.5021-83.0167 86.2709-77.2478 93.3434-77.2478ZM143.769-58.2096C147.028-58.2096 149.788-60.8168 149.788-64.1562C149.788-67.4872 147.028-70.0859 143.769-70.0859L80.9846-70.0859C75.2877-70.0859 70.2595-67.0851 67.7243-61.8707L41.1401-8.8464L26.2461-23.8124C23.8887-26.1699 20.0667-26.0895 17.7897-23.8124C15.5126-21.4549 15.521-17.7134 17.7897-15.4279L38.8631 5.78947C41.3094 8.3078 45.3642 7.9057 47.3915 4.89642L64.715-20.3206C65.6885-21.785 67.7243-22.0263 68.9559-21.0444L90.3341-4.77479L90.3341 24.9159C90.3341 28.2385 92.9413 30.8456 96.2723 30.8456C99.6117 30.8456 102.282 28.2385 102.282 24.9159L102.282-7.78407C102.282-9.32892 101.559-10.8018 100.505-11.9361L79.7614-32.671L90.9055-54.8871C92.0398-57.0753 93.9148-58.2096 96.1918-58.2096ZM105.139-31.4562L128.964-31.4562C132.295-31.4562 134.902-34.2158 134.902-37.3944C134.902-40.7253 132.295-43.4045 128.964-43.4045L107.586-43.4045L97.6855-53.2961L96.5006-53.2961C95.9292-53.2961 95.4551-53.0549 95.2054-52.4919L90.6682-43.5614L100.987-33.2423C102.202-32.036 103.594-31.4562 105.139-31.4562ZM139.223-44.1367C139.223-38.4483 145.966-33.7333 154.181-33.7333C162.396-33.7333 169.066-38.4483 169.066-44.1367C169.066-49.914 162.396-54.4766 154.181-54.4766C145.966-54.4766 139.223-49.914 139.223-44.1367Z"/>
  </g>
  <g id="Ultralight-L" transform="matrix(1 0 0 1 468.448 1556)">
   <path d="M92.0247-76.7565C98.9763-76.7565 104.489-82.4349 104.489-89.391C104.489-96.3426 98.9763-101.856 92.0247-101.856C85.0686-101.856 79.3902-96.3426 79.3902-89.391C79.3902-82.4349 85.0686-76.7565 92.0247-76.7565ZM141.584-57.8089C144.778-57.8089 147.499-60.3643 147.499-63.6391C147.499-66.9183 144.778-69.4783 141.584-69.4783L79.8727-69.4783C74.2793-69.4783 69.3157-66.5162 66.8451-61.4053L40.7006-9.28598L26.0781-23.9934C23.7594-26.3121 20.0021-26.2317 17.7638-23.9934C15.5255-21.6747 15.521-17.9978 17.7638-15.764L38.4623 5.10425C40.8569 7.58379 44.8599 7.18169 46.8615 4.22413L63.8876-20.5533C64.8481-21.9919 66.8451-22.2331 68.038-21.2771L89.0671-5.29193L89.0671 23.8816C89.0671 27.1654 91.6226 29.7208 94.9018 29.7208C98.1766 29.7208 100.821 27.1654 100.821 23.8816L100.821-8.2495C100.821-9.76849 100.098-11.2026 99.0567-12.324L78.6754-32.7097L89.6255-54.5251C90.7469-56.6875 92.5831-57.8089 94.8214-57.8089ZM103.614-31.5079L127.037-31.5079C130.317-31.5079 132.872-34.2287 132.872-37.3426C132.872-40.6219 130.317-43.2623 127.037-43.2623L106.008-43.2623L96.1211-53.1539L95.0267-53.1539C94.4683-53.1539 93.9813-52.9127 93.7445-52.3497L89.2589-43.5485L99.5392-33.2682C100.741-32.0619 102.095-31.5079 103.614-31.5079ZM137.103-43.9816C137.103-38.3836 143.742-33.7462 151.815-33.7462C159.888-33.7462 166.442-38.3836 166.442-43.9816C166.442-49.6554 159.888-54.1275 151.815-54.1275C143.742-54.1275 137.103-49.6554 137.103-43.9816Z"/>
  </g>
  <g id="Black-M" transform="matrix(1 0 0 1 2849.59 1126)">
   <path d="M81.8598-71.226C88.6484-71.226 94.1904-76.7729 94.1904-83.5561C94.1904-90.3447 88.6484-95.8867 81.8598-95.8867C75.0767-95.8867 69.5297-90.3447 69.5297-83.5561C69.5297-76.7729 75.0767-71.226 81.8598-71.226ZM126.509-53.4576C130.057-53.4576 132.934-56.2726 132.934-59.8823C132.934-63.4294 130.057-66.239 126.509-66.239L70.9884-66.239C65.5554-66.239 60.6944-63.4034 58.1646-58.3442L35.4917-12.8265L23.3465-24.9714C20.781-27.537 16.6833-27.4176 14.2942-24.9714C11.7909-22.4058 11.8535-18.4275 14.2942-15.9188L32.9884 2.83196C35.6789 5.52213 39.958 5.15351 42.2117 1.85564L57.5502-20.5003C58.1321-21.3473 58.8497-21.42 59.6866-20.7756L78.1051-6.70935L78.1051 18.9921C78.1051 22.5337 80.9202 25.3488 84.4673 25.3488C88.077 25.3488 90.8863 22.5337 90.8863 18.9921L90.8863-9.95013C90.8863-11.6017 90.2113-13.3106 88.9962-14.4167L71.2419-32.2227L80.7735-51.1721C81.5942-52.8082 82.7011-53.4576 84.405-53.4576ZM92.3522-29.7981L113.404-29.7981C116.951-29.7981 119.766-32.6752 119.766-36.1603C119.766-39.7074 116.951-42.5793 113.404-42.5793L94.9855-42.5793L90.2285-47.3308L86.6913-47.3308C86.0784-47.3308 85.5388-47.0297 85.2322-46.4223L81.1502-38.3719L87.8855-31.6937C89.1111-30.5307 90.7006-29.7981 92.3522-29.7981ZM126.533-40.4049C126.533-34.6348 133.061-30.0746 140.842-30.0746C148.622-30.0746 155.151-34.6348 155.151-40.4049C155.151-46.2427 148.622-50.7409 140.842-50.7409C133.061-50.7409 126.533-46.2427 126.533-40.4049Z"/>
  </g>
  <g id="Heavy-M" transform="matrix(1 0 0 1 2554.65 1126)">
   <path d="M80.6962-70.8189C87.2841-70.8189 92.6304-76.1863 92.6304-82.7577C92.6304-89.3456 87.2841-94.692 80.6962-94.692C74.1247-94.692 68.7574-89.3456 68.7574-82.7577C68.7574-76.1863 74.1247-70.8189 80.6962-70.8189ZM124.743-53.6882C128.102-53.6882 130.837-56.3583 130.837-59.78C130.837-63.1417 128.102-65.7954 124.743-65.7954L69.96-65.7954C64.6822-65.7954 59.9957-63.0483 57.546-58.1444L35.0005-12.9269L22.7743-25.1554C20.3511-27.5786 16.4683-27.4726 14.1947-25.1554C11.8339-22.7323 11.8939-18.9554 14.1947-16.5781L32.6396 1.91491C35.1851 4.46267 39.2384 4.10752 41.3523 0.995045L56.4838-21.0584C57.117-21.9946 58.0695-22.0943 58.966-21.401L77.2347-7.44493L77.2347 18.0465C77.2347 21.3918 79.9048 24.0619 83.2665 24.0619C86.6883 24.0619 89.3442 21.3918 89.3442 18.0465L89.3442-10.5138C89.3442-12.0794 88.6962-13.6863 87.5645-14.7495L69.9087-32.4325L79.3885-51.3026C80.2336-52.974 81.4541-53.6882 83.2042-53.6882ZM91.0398-30.3473L111.81-30.3473C115.172-30.3473 117.842-33.082 117.842-36.3791C117.842-39.7408 115.172-42.4568 111.81-42.4568L93.5417-42.4568L88.0865-47.8956L85.0928-47.8956C84.5094-47.8956 84.0211-47.6214 83.7305-47.0544L79.7396-39.1644L86.8042-32.1435C87.9733-31.0344 89.4743-30.3473 91.0398-30.3473ZM123.876-40.9401C123.876-35.417 130.182-31.0069 137.746-31.0069C145.31-31.0069 151.614-35.417 151.614-40.9401C151.614-46.5419 145.31-50.8874 137.746-50.8874C130.182-50.8874 123.876-46.5419 123.876-40.9401Z"/>
  </g>
  <g id="Bold-M" transform="matrix(1 0 0 1 2259.92 1126)">
   <path d="M79.3945-70.3636C85.7579-70.3636 90.8854-75.53 90.8854-81.8647C90.8854-88.228 85.7579-93.3555 79.3945-93.3555C73.0598-93.3555 67.8934-88.228 67.8934-81.8647C67.8934-75.53 73.0598-70.3636 79.3945-70.3636ZM122.767-53.9462C125.917-53.9462 128.492-56.4542 128.492-59.6656C128.492-62.8199 125.917-65.2992 122.767-65.2992L68.8096-65.2992C63.7055-65.2992 59.2142-62.6512 56.8541-57.9208L34.451-13.0393L22.1342-25.3613C19.8703-27.6251 16.2279-27.5342 14.0835-25.3613C11.882-23.0974 11.9392-19.5459 14.0835-17.3157L32.2495 0.889064C34.6328 3.2775 38.4335 2.93743 40.3909 0.032349L55.2908-21.6827C55.9814-22.7187 57.1967-22.8485 58.16-22.1007L76.2611-8.26779L76.2611 16.9886C76.2611 20.1143 78.769 22.6222 81.9233 22.6222C85.1347 22.6222 87.6192 20.1143 87.6192 16.9886L87.6192-11.1443C87.6192-12.6137 87.0013-14.1066 85.9629-15.1217L68.4173-32.6672L77.8392-51.4486C78.7115-53.1596 80.0591-53.9462 81.861-53.9462ZM89.5718-30.9617L110.028-30.9617C113.182-30.9617 115.69-33.5371 115.69-36.6239C115.69-39.7782 113.182-42.3198 110.028-42.3198L91.9266-42.3198L85.6904-48.5273L83.3046-48.5273C82.7542-48.5273 82.3234-48.2833 82.0507-47.7616L78.1617-40.0509L85.5945-32.6466C86.7004-31.5978 88.1024-30.9617 89.5718-30.9617ZM120.905-41.5389C120.905-36.292 126.962-32.0499 134.283-32.0499C141.605-32.0499 147.656-36.292 147.656-41.5389C147.656-46.8766 141.605-51.0514 134.283-51.0514C126.962-51.0514 120.905-46.8766 120.905-41.5389Z"/>
  </g>
  <g id="Semibold-M" transform="matrix(1 0 0 1 1964.57 1126)">
   <path d="M78.4972-70.0496C84.7057-70.0496 89.6824-75.0775 89.6824-81.249C89.6824-87.4576 84.7057-92.4342 78.4972-92.4342C72.3257-92.4342 67.2978-87.4576 67.2978-81.249C67.2978-75.0775 72.3257-70.0496 78.4972-70.0496ZM121.405-54.1241C124.41-54.1241 126.875-56.5202 126.875-59.5868C126.875-62.5981 124.41-64.9572 121.405-64.9572L68.0166-64.9572C63.0321-64.9572 58.6753-62.3773 56.3771-57.7667L34.0722-13.1167L21.6929-25.5032C19.5389-27.6572 16.0622-27.5767 14.0068-25.5032C11.9151-23.3492 11.9703-19.953 14.0068-17.8242L31.9805 0.181849C34.2521 2.46046 37.8786 2.13078 39.7282-0.631328L54.4684-22.113C55.1986-23.2178 56.595-23.3684 57.6044-22.583L75.5898-8.83507L75.5898 16.2594C75.5898 19.2336 77.9859 21.6297 80.9973 21.6297C84.0638 21.6297 86.4299 19.2336 86.4299 16.2594L86.4299-11.579C86.4299-12.9821 85.8329-14.3963 84.8588-15.3783L67.3892-32.8289L76.7711-51.5493C77.6622-53.2874 79.0974-54.1241 80.9349-54.1241ZM88.5598-31.3853L108.799-31.3853C111.81-31.3853 114.206-33.8508 114.206-36.7927C114.206-39.804 111.81-42.2254 108.799-42.2254L90.8131-42.2254L84.0386-48.9629L82.0718-48.9629C81.5442-48.9629 81.1529-48.7397 80.8927-48.2491L77.0739-40.662L84.7605-32.9935C85.8229-31.9863 87.1567-31.3853 88.5598-31.3853ZM118.857-41.9517C118.857-36.8953 124.742-32.7688 131.896-32.7688C139.05-32.7688 144.929-36.8953 144.929-41.9517C144.929-47.1074 139.05-51.1644 131.896-51.1644C124.742-51.1644 118.857-47.1074 118.857-41.9517Z"/>
  </g>
  <g id="Medium-M" transform="matrix(1 0 0 1 1668.9 1126)">
   <path d="M77.8168-69.8116C83.9079-69.8116 88.7702-74.7345 88.7702-80.7822C88.7702-86.8734 83.9079-91.7356 77.8168-91.7356C71.769-91.7356 66.8461-86.8734 66.8461-80.7822C66.8461-74.7345 71.769-69.8116 77.8168-69.8116ZM120.373-54.259C123.267-54.259 125.649-56.5703 125.649-59.527C125.649-62.4299 123.267-64.6978 120.373-64.6978L67.4152-64.6978C62.5215-64.6978 58.2668-62.1697 56.0154-57.6498L33.785-13.1754L21.3583-25.6108C19.2875-27.6815 15.9365-27.6089 13.9487-25.6108C11.9403-23.5401 11.994-20.2616 13.9487-18.2098L31.7766-0.354391C33.9633 1.84094 37.4578 1.51914 39.2256-1.13456L53.8448-22.4394C54.605-23.5963 56.1388-23.7627 57.183-22.9487L75.0808-9.2652L75.0808 15.7064C75.0808 18.5659 77.3922 20.8772 80.2951 20.8772C83.2517 20.8772 85.5282 18.5659 85.5282 15.7064L85.5282-11.9086C85.5282-13.2615 84.9469-14.616 84.0216-15.5728L66.6096-32.9516L75.9612-51.6256C76.8666-53.3844 78.3683-54.259 80.2328-54.259ZM87.7924-31.7064L107.867-31.7064C110.77-31.7064 113.081-34.0887 113.081-36.9207C113.081-39.8236 110.77-42.1538 107.867-42.1538L89.9689-42.1538L82.7861-49.2931L81.1371-49.2931C80.6267-49.2931 80.2655-49.0857 80.0146-48.6187L76.249-41.1254L84.1282-33.2565C85.1576-32.2808 86.4396-31.7064 87.7924-31.7064ZM117.304-42.2647C117.304-37.3527 123.059-33.314 130.086-33.314C137.114-33.314 142.86-37.3527 142.86-42.2647C142.86-47.2824 137.114-51.2501 130.086-51.2501C123.059-51.2501 117.304-47.2824 117.304-42.2647Z"/>
  </g>
  <g id="Regular-M" transform="matrix(1 0 0 1 1373.53 1126)">
   <path d="M76.9293-69.5011C82.8673-69.5011 87.5804-74.287 87.5804-80.1733C87.5804-86.1114 82.8673-90.8244 76.9293-90.8244C71.043-90.8244 66.2571-86.1114 66.2571-80.1733C66.2571-74.287 71.043-69.5011 76.9293-69.5011ZM119.026-54.4349C121.777-54.4349 124.05-56.6357 124.05-59.449C124.05-62.2105 121.777-64.3595 119.026-64.3595L66.6309-64.3595C61.8555-64.3595 57.7339-61.8989 55.5437-57.4974L33.4104-13.252L20.9218-25.7511C18.9597-27.7132 15.7726-27.6509 13.8728-25.7511C11.9731-23.789 12.0248-20.6643 13.8728-18.7127L31.5106-1.05383C33.5868 1.03287 36.909 0.721349 38.5701-1.79094L53.0314-22.865C53.8308-24.09 55.5437-24.2769 56.6335-23.4258L74.417-9.82624L74.417 14.9851C74.417 17.6949 76.6177 19.8956 79.3792 19.8956C82.1925 19.8956 84.3521 17.6949 84.3521 14.9851L84.3521-12.3385C84.3521-13.6258 83.7913-14.9026 82.9296-15.8266L65.5928-33.1116L74.9049-51.7252C75.8289-53.5109 77.4171-54.4349 79.3169-54.4349ZM86.7915-32.1253L106.651-32.1253C109.413-32.1253 111.613-34.3989 111.613-37.0876C111.613-39.8491 109.413-42.0604 106.651-42.0604L88.8677-42.0604L81.1524-49.7239L79.9179-49.7239C79.43-49.7239 79.1079-49.537 78.8693-49.1008L75.1732-41.7298L83.3034-33.5995C84.2898-32.6649 85.5042-32.1253 86.7915-32.1253ZM115.278-42.6729C115.278-37.9493 120.863-34.0251 127.725-34.0251C134.587-34.0251 140.162-37.9493 140.162-42.6729C140.162-47.5106 134.587-51.3619 127.725-51.3619C120.863-51.3619 115.278-47.5106 115.278-42.6729Z"/>
  </g>
  <g id="Light-M" transform="matrix(1 0 0 1 1078.56 1126)">
   <path d="M75.1839-68.8509C80.9509-68.8509 85.527-73.517 85.527-79.2493C85.527-85.0163 80.9509-89.5924 75.1839-89.5924C69.4517-89.5924 64.7855-85.0163 64.7855-79.2493C64.7855-73.517 69.4517-68.8509 75.1839-68.8509ZM116.134-53.9045C118.799-53.9045 121.022-56.0368 121.022-58.7645C121.022-61.4576 118.799-63.5553 116.134-63.5553L65.1594-63.5553C60.5209-63.5553 56.4848-61.1461 54.3801-56.8814L32.8286-13.8338L20.6994-25.9907C18.7886-27.9014 15.6871-27.8391 13.8386-25.9907C11.9902-24.0799 12.0248-21.0407 13.8386-19.1576L30.9802-1.96071C32.9879 0.0746598 36.2417-0.236864 37.8686-2.68071L51.9363-23.173C52.7186-24.3638 54.3801-24.5507 55.4186-23.7338L72.7401-10.5107L72.7401 13.6162C72.7401 16.2747 74.8724 18.407 77.5655 18.407C80.2932 18.407 82.4185 16.2747 82.4185 13.6162L82.4185-12.9545C82.4185-14.2076 81.8578-15.433 81.0132-16.3399L64.1555-33.163L73.2109-51.2461C74.1178-52.9976 75.6547-53.9045 77.5032-53.9045ZM84.7724-32.1938L104.102-32.1938C106.795-32.1938 108.927-34.416 108.927-37.0191C108.927-39.7122 106.795-41.8722 104.102-41.8722L86.7801-41.8722L79.082-49.5357L77.9672-49.5357C77.4965-49.5357 77.1573-49.3487 76.9357-48.9126L73.3081-41.7127L81.387-33.6337C82.3562-32.6992 83.5193-32.1938 84.7724-32.1938ZM112.472-42.4676C112.472-37.8637 117.92-34.0422 124.594-34.0422C131.268-34.0422 136.689-37.8637 136.689-42.4676C136.689-47.1683 131.268-50.8999 124.594-50.8999C117.92-50.8999 112.472-47.1683 112.472-42.4676Z"/>
  </g>
  <g id="Thin-M" transform="matrix(1 0 0 1 784.144 1126)">
   <path d="M72.8756-67.9909C78.4163-67.9909 82.8114-72.4987 82.8114-78.0273C82.8114-83.5679 78.4163-87.963 72.8756-87.963C67.347-87.963 62.8393-83.5679 62.8393-78.0273C62.8393-72.4987 67.347-67.9909 72.8756-67.9909ZM112.309-53.2029C114.862-53.2029 117.016-55.2447 117.016-57.8593C117.016-60.4618 114.862-62.4916 112.309-62.4916L63.2131-62.4916C58.7557-62.4916 54.8327-60.1503 52.8412-56.0667L32.0592-14.6032L20.4052-26.3075C18.5623-28.1504 15.5739-28.0881 13.7934-26.3075C12.0128-24.4646 12.0248-21.5386 13.7934-19.746L30.2786-3.16014C32.1958-1.19265 35.3591-1.50418 36.9407-3.8575L50.4879-23.5804C51.2476-24.7259 52.8412-24.9128 53.8118-24.1411L70.5223-11.4159L70.5223 11.8058C70.5223 14.3963 72.5641 16.4381 75.1666 16.4381C77.7812 16.4381 79.8613 14.3963 79.8613 11.8058L79.8613-13.7692C79.8613-14.977 79.3005-16.1346 78.4786-17.0188L62.2545-33.2309L70.9704-50.6124C71.8547-52.3187 73.3238-53.2029 75.1043-53.2029ZM82.102-32.2843L100.73-32.2843C103.332-32.2843 105.374-34.4387 105.374-36.9286C105.374-39.5312 103.332-41.6232 100.73-41.6232L84.0192-41.6232L76.3437-49.2867L75.3873-49.2867C74.9392-49.2867 74.5774-49.0998 74.3785-48.6637L70.8414-41.69L78.8524-33.679C79.799-32.7444 80.8942-32.2843 82.102-32.2843ZM108.76-42.196C108.76-37.7506 114.028-34.0648 120.453-34.0648C126.877-34.0648 132.095-37.7506 132.095-42.196C132.095-46.7157 126.877-50.2889 120.453-50.2889C114.028-50.2889 108.76-46.7157 108.76-42.196Z"/>
  </g>
  <g id="Ultralight-M" transform="matrix(1 0 0 1 488.61 1126)">
   <path d="M71.6933-67.5505C77.118-67.5505 81.4204-71.977 81.4204-77.4013C81.4204-82.8261 77.118-87.1284 71.6933-87.1284C66.269-87.1284 61.8424-82.8261 61.8424-77.4013C61.8424-71.977 66.269-67.5505 71.6933-67.5505ZM110.35-52.8436C112.845-52.8436 114.964-54.839 114.964-57.3956C114.964-59.9518 112.845-61.9468 110.35-61.9468L62.2163-61.9468C57.8516-61.9468 53.9866-59.6403 52.053-55.6494L31.6651-14.9973L20.2545-26.4698C18.4464-28.2779 15.516-28.2156 13.7702-26.4698C12.0244-24.6617 12.0248-21.7936 13.7702-20.0474L29.9193-3.77447C31.7901-1.84177 34.907-2.15329 36.4655-4.46025L49.7461-23.789C50.4942-24.9113 52.053-25.0982 52.9889-24.3497L69.3864-11.8796L69.3864 10.8785C69.3864 13.4342 71.3818 15.4297 73.938 15.4297C76.4946 15.4297 78.5515 13.4342 78.5515 10.8785L78.5515-14.1865C78.5515-15.3711 77.9907-16.4939 77.1803-17.3666L61.2809-33.2656L69.8229-50.2879C70.6956-51.9709 72.1299-52.8436 73.8757-52.8436ZM80.7342-32.3306L99.0025-32.3306C101.559-32.3306 103.554-34.4503 103.554-36.8822C103.554-39.4384 101.559-41.4957 99.0025-41.4957L82.6051-41.4957L74.9412-49.1592L74.0659-49.1592C73.6294-49.1592 73.256-48.9723 73.0686-48.5362L69.5779-41.6784L77.5542-33.7022C78.4892-32.7676 79.5496-32.3306 80.7342-32.3306ZM106.859-42.0569C106.859-37.6926 112.034-34.0764 118.331-34.0764C124.629-34.0764 129.741-37.6926 129.741-42.0569C129.741-46.4839 124.629-49.9759 118.331-49.9759C112.034-49.9759 106.859-46.4839 106.859-42.0569Z"/>
  </g>
  <g id="Black-S" transform="matrix(1 0 0 1 2867.29 696)">
   <path d="M64.4043-63.5254C69.7754-63.5254 74.1699-67.9199 74.1699-73.291C74.1699-78.6621 69.7754-83.0566 64.4043-83.0566C59.0332-83.0566 54.6387-78.6621 54.6387-73.291C54.6387-67.9199 59.0332-63.5254 64.4043-63.5254ZM99.5117-49.4141C102.344-49.4141 104.639-51.6602 104.639-54.541C104.639-57.373 102.344-59.6191 99.5117-59.6191L55.8594-59.6191C51.5625-59.6191 47.7051-57.373 45.7031-53.3691L27.9297-17.6758L18.457-27.1484C16.4062-29.1992 13.1348-29.1016 11.2305-27.1484C9.22852-25.0977 9.27734-21.9238 11.2305-19.9219L25.9277-5.17578C28.0762-3.02734 31.4941-3.32031 33.3008-5.95703L45.3613-23.5352C45.8008-24.1699 46.2891-24.2188 46.9238-23.7305L61.377-12.6953L61.377 7.4707C61.377 10.3027 63.623 12.5488 66.4551 12.5488C69.3359 12.5488 71.582 10.3027 71.582 7.4707L71.582-15.2832C71.582-16.6016 71.0449-17.9688 70.0684-18.8477L56.1523-32.8125L63.623-47.6562C64.2578-48.9258 65.0879-49.4141 66.4062-49.4141ZM72.6562-30.8105L89.209-30.8105C92.041-30.8105 94.2871-33.1055 94.2871-35.8887C94.2871-38.7207 92.041-41.0156 89.209-41.0156L74.7559-41.0156L71.2402-44.5312L68.3105-44.5312C67.8223-44.5312 67.3828-44.2871 67.1387-43.7988L63.916-37.4512L69.0918-32.3242C70.0684-31.3965 71.3379-30.8105 72.6562-30.8105ZM99.8047-39.1113C99.8047-34.5215 104.98-30.9082 111.133-30.9082C117.285-30.9082 122.461-34.5215 122.461-39.1113C122.461-43.75 117.285-47.3145 111.133-47.3145C104.98-47.3145 99.8047-43.75 99.8047-39.1113Z"/>
  </g>
  <g id="Heavy-S" transform="matrix(1 0 0 1 2571.87 696)">
   <path d="M63.6322-63.2603C68.8534-63.2603 73.0981-67.5166 73.0981-72.7263C73.0981-77.9476 68.8534-82.1923 63.6322-82.1923C58.4224-82.1923 54.1662-77.9476 54.1662-72.7263C54.1662-67.5166 58.4224-63.2603 63.6322-63.2603ZM98.3708-49.6791C101.053-49.6791 103.233-51.81 103.233-54.541C103.233-57.2232 101.053-59.3426 98.3708-59.3426L55.1679-59.3426C50.9863-59.3426 47.2671-57.1656 45.3228-53.2769L27.584-17.6873L17.9961-27.2752C16.0605-29.2107 12.9619-29.1246 11.1498-27.2752C9.26309-25.3397 9.31192-22.3272 11.1498-20.429L25.6972-5.8442C27.7304-3.81101 30.964-4.09245 32.6554-6.57935L44.5892-23.9731C45.0747-24.6885 45.7705-24.7604 46.4628-24.226L60.8468-13.237L60.8468 6.83686C60.8468 9.50755 62.9777 11.6384 65.6599 11.6384C68.3909 11.6384 70.5103 9.50755 70.5103 6.83686L70.5103-15.6866C70.5103-16.9358 69.9962-18.2223 69.0888-19.0666L55.1958-32.9854L62.655-47.8291C63.3128-49.1332 64.2466-49.6791 65.6111-49.6791ZM71.7919-31.2715L88.1718-31.2715C90.854-31.2715 92.9848-33.4512 92.9848-36.0846C92.9848-38.7668 90.854-40.935 88.1718-40.935L73.7878-40.935L69.6729-45.0383L67.1927-45.0383C66.7274-45.0383 66.3341-44.8172 66.1015-44.3635L62.948-38.1311L68.4119-32.7045C69.3423-31.8229 70.5427-31.2715 71.7919-31.2715ZM97.8916-39.5954C97.8916-35.2014 102.895-31.7034 108.886-31.7034C114.877-31.7034 119.879-35.2014 119.879-39.5954C119.879-44.0496 114.877-47.4988 108.886-47.4988C102.895-47.4988 97.8916-44.0496 97.8916-39.5954Z"/>
  </g>
  <g id="Bold-S" transform="matrix(1 0 0 1 2276.6 696)">
   <path d="M62.7686-62.9639C67.8223-62.9639 71.8994-67.0654 71.8994-72.0947C71.8994-77.1484 67.8223-81.2256 62.7686-81.2256C57.7393-81.2256 53.6377-77.1484 53.6377-72.0947C53.6377-67.0654 57.7393-62.9639 62.7686-62.9639ZM97.0947-49.9756C99.6094-49.9756 101.66-51.9775 101.66-54.541C101.66-57.0557 99.6094-59.0332 97.0947-59.0332L54.3945-59.0332C50.3418-59.0332 46.7773-56.9336 44.8975-53.1738L27.1973-17.7002L17.4805-27.417C15.6738-29.2236 12.7686-29.1504 11.0596-27.417C9.30176-25.6104 9.35059-22.7783 11.0596-20.9961L25.4395-6.5918C27.3438-4.6875 30.3711-4.95605 31.9336-7.27539L43.7256-24.4629C44.2627-25.2686 45.1904-25.3662 45.9473-24.7803L60.2539-13.8428L60.2539 6.12793C60.2539 8.61816 62.2559 10.6201 64.7705 10.6201C67.334 10.6201 69.3115 8.61816 69.3115 6.12793L69.3115-16.1377C69.3115-17.3096 68.8232-18.5059 67.9932-19.3115L54.126-33.1787L61.5723-48.0225C62.2559-49.3652 63.3057-49.9756 64.7217-49.9756ZM70.8252-31.7871L87.0117-31.7871C89.5264-31.7871 91.5283-33.8379 91.5283-36.3037C91.5283-38.8184 89.5264-40.8447 87.0117-40.8447L72.7051-40.8447L67.9199-45.6055L65.9424-45.6055C65.5029-45.6055 65.1611-45.4102 64.9414-44.9951L61.8652-38.8916L67.6514-33.1299C68.5303-32.2998 69.6533-31.7871 70.8252-31.7871ZM95.752-40.1367C95.752-35.9619 100.562-32.5928 106.372-32.5928C112.183-32.5928 116.992-35.9619 116.992-40.1367C116.992-44.3848 112.183-47.7051 106.372-47.7051C100.562-47.7051 95.752-44.3848 95.752-40.1367Z"/>
  </g>
  <g id="Semibold-S" transform="matrix(1 0 0 1 1980.88 696)">
   <path d="M62.1731-62.7595C67.1113-62.7595 71.0729-66.7544 71.0729-71.6593C71.0729-76.5975 67.1113-80.5591 62.1731-80.5591C57.2683-80.5591 53.2733-76.5975 53.2733-71.6593C53.2733-66.7544 57.2683-62.7595 62.1731-62.7595ZM96.2149-50.18C98.6141-50.18 100.576-52.0931 100.576-54.541C100.576-56.9401 98.6141-58.8199 96.2149-58.8199L53.8613-58.8199C49.8975-58.8199 46.4396-56.7736 44.6042-53.1027L26.9307-17.7091L17.125-27.5147C15.4072-29.2325 12.6353-29.1682 10.9974-27.5147C9.32842-25.797 9.37725-23.0894 10.9974-21.3871L25.2617-7.10723C27.0771-5.2918 29.9623-5.55146 31.4359-7.75527L43.1302-24.8006C43.7028-25.6685 44.7905-25.7839 45.5918-25.1624L59.8451-14.2604L59.8451 5.63916C59.8451 8.00498 61.7582 9.91807 64.1573 9.91807C66.6053 9.91807 68.4851 8.00498 68.4851 5.63916L68.4851-16.4487C68.4851-17.5673 68.0146-18.7014 67.2378-19.4804L53.3884-33.312L60.8258-48.1558C61.5271-49.5252 62.6569-50.18 64.1085-50.18ZM70.1587-32.1426L86.2119-32.1426C88.611-32.1426 90.5241-34.1045 90.5241-36.4548C90.5241-38.8539 88.611-40.7825 86.2119-40.7825L71.9586-40.7825L66.7113-45.9965L65.0804-45.9965C64.6587-45.9965 64.3524-45.8189 64.1416-45.4306L61.1187-39.4159L67.1271-33.4231C67.9704-32.6286 69.0401-32.1426 70.1587-32.1426ZM94.2768-40.51C94.2768-36.4862 98.953-33.206 104.639-33.206C110.325-33.206 115.002-36.4862 115.002-40.51C115.002-44.6158 110.325-47.8473 104.639-47.8473C98.953-47.8473 94.2768-44.6158 94.2768-40.51Z"/>
  </g>
  <g id="Medium-S" transform="matrix(1 0 0 1 1684.93 696)">
   <path d="M61.7217-62.6045C66.5723-62.6045 70.4463-66.5186 70.4463-71.3291C70.4463-76.1797 66.5723-80.0537 61.7217-80.0537C56.9111-80.0537 52.9971-76.1797 52.9971-71.3291C52.9971-66.5186 56.9111-62.6045 61.7217-62.6045ZM95.5479-50.335C97.8594-50.335 99.7539-52.1807 99.7539-54.541C99.7539-56.8525 97.8594-58.6582 95.5479-58.6582L53.457-58.6582C49.5605-58.6582 46.1836-56.6523 44.3818-53.0488L26.7285-17.7158L16.8555-27.5889C15.2051-29.2393 12.5342-29.1816 10.9502-27.5889C9.34863-25.9385 9.39746-23.3252 10.9502-21.6836L25.127-7.49805C26.875-5.75 29.6523-6.00293 31.0586-8.11914L42.6787-25.0566C43.2783-25.9717 44.4873-26.1006 45.3223-25.4521L59.5352-14.5771L59.5352 5.26855C59.5352 7.54004 61.3809 9.38574 63.6924 9.38574C66.0527 9.38574 67.8584 7.54004 67.8584 5.26855L67.8584-16.6846C67.8584-17.7627 67.4014-18.8496 66.665-19.6084L52.8291-33.4131L60.2598-48.2568C60.9746-49.6465 62.165-50.335 63.6436-50.335ZM69.6533-32.4121L85.6055-32.4121C87.917-32.4121 89.7627-34.3066 89.7627-36.5693C89.7627-38.8809 87.917-40.7354 85.6055-40.7354L71.3926-40.7354L65.7949-46.293L64.4268-46.293C64.0186-46.293 63.7393-46.1289 63.5352-45.7607L60.5527-39.8135L66.7295-33.6455C67.5459-32.8779 68.5752-32.4121 69.6533-32.4121ZM93.1582-40.793C93.1582-36.8838 97.7334-33.6709 103.325-33.6709C108.917-33.6709 113.492-36.8838 113.492-40.793C113.492-44.791 108.917-47.9551 103.325-47.9551C97.7334-47.9551 93.1582-44.791 93.1582-40.793Z"/>
  </g>
  <g id="Regular-S" transform="matrix(1 0 0 1 1389.2 696)">
   <path d="M61.1328-62.4023C65.8691-62.4023 69.6289-66.2109 69.6289-70.8984C69.6289-75.6348 65.8691-79.3945 61.1328-79.3945C56.4453-79.3945 52.6367-75.6348 52.6367-70.8984C52.6367-66.2109 56.4453-62.4023 61.1328-62.4023ZM94.6777-50.5371C96.875-50.5371 98.6816-52.2949 98.6816-54.541C98.6816-56.7383 96.875-58.4473 94.6777-58.4473L52.9297-58.4473C49.1211-58.4473 45.8496-56.4941 44.0918-52.9785L26.4648-17.7246L16.5039-27.6855C14.9414-29.248 12.4023-29.1992 10.8887-27.6855C9.375-26.123 9.42383-23.6328 10.8887-22.0703L24.9512-8.00781C26.6113-6.34766 29.248-6.5918 30.5664-8.59375L42.0898-25.3906C42.7246-26.3672 44.0918-26.5137 44.9707-25.8301L59.1309-14.9902L59.1309 4.78516C59.1309 6.93359 60.8887 8.69141 63.0859 8.69141C65.332 8.69141 67.041 6.93359 67.041 4.78516L67.041-16.9922C67.041-18.0176 66.6016-19.043 65.918-19.7754L52.0996-33.5449L59.5215-48.3887C60.2539-49.8047 61.5234-50.5371 63.0371-50.5371ZM68.9941-32.7637L84.8145-32.7637C87.0117-32.7637 88.7695-34.5703 88.7695-36.7188C88.7695-38.916 87.0117-40.6738 84.8145-40.6738L70.6543-40.6738L64.5996-46.6797L63.5742-46.6797C63.1836-46.6797 62.9395-46.5332 62.7441-46.1914L59.8145-40.332L66.2109-33.9355C66.9922-33.2031 67.9688-32.7637 68.9941-32.7637ZM91.6992-41.1621C91.6992-37.4023 96.1426-34.2773 101.611-34.2773C107.08-34.2773 111.523-37.4023 111.523-41.1621C111.523-45.0195 107.08-48.0957 101.611-48.0957C96.1426-48.0957 91.6992-45.0195 91.6992-41.1621Z"/>
  </g>
  <g id="Light-S" transform="matrix(1 0 0 1 1094.03 696)">
   <path d="M59.5889-61.8272C64.1738-61.8272 67.8125-65.5298 67.8125-70.0811C67.8125-74.666 64.1738-78.3047 59.5889-78.3047C55.0376-78.3047 51.335-74.666 51.335-70.0811C51.335-65.5298 55.0376-61.8272 59.5889-61.8272ZM92.1196-50.0679C94.2412-50.0679 96.0025-51.7651 96.0025-53.9356C96.0025-56.0723 94.2412-57.7358 92.1196-57.7358L51.6279-57.7358C47.9404-57.7358 44.7446-55.8281 43.0625-52.4336L25.9502-18.2393L16.3071-27.8975C14.79-29.4145 12.3267-29.3657 10.8584-27.8975C9.39014-26.3804 9.42383-23.9658 10.8584-22.4639L24.4819-8.81005C26.0815-7.19531 28.6577-7.43945 29.9458-9.38085L41.1211-25.6631C41.7407-26.6094 43.0625-26.7559 43.896-26.1025L57.6475-15.5957L57.6475 3.57423C57.6475 5.67726 59.3447 7.37452 61.4815 7.37452C63.6519 7.37452 65.3306 5.67726 65.3306 3.57423L65.3306-17.5371C65.3306-18.5322 64.8911-19.5122 64.2227-20.2295L50.8281-33.5903L58.023-47.9648C58.7402-49.3506 59.9644-50.0679 61.4326-50.0679ZM67.208-32.8242L82.5591-32.8242C84.6958-32.8242 86.3931-34.5854 86.3931-36.6582C86.3931-38.7949 84.6958-40.5073 82.5591-40.5073L68.8076-40.5073L62.7681-46.5132L61.8486-46.5132C61.4732-46.5132 61.2139-46.3667 61.0337-46.0249L58.1646-40.3169L64.5156-33.9658C65.2818-33.2334 66.2129-32.8242 67.208-32.8242ZM89.2168-40.9805C89.2168-37.3267 93.5391-34.2925 98.8413-34.2925C104.144-34.2925 108.451-37.3267 108.451-40.9805C108.451-44.7168 104.144-47.687 98.8413-47.687C93.5391-47.687 89.2168-44.7168 89.2168-40.9805Z"/>
  </g>
  <g id="Thin-S" transform="matrix(1 0 0 1 799.346 696)">
   <path d="M57.5469-61.0664C61.9317-61.0664 65.4102-64.6289 65.4102-69C65.4102-73.3848 61.9317-76.8633 57.5469-76.8633C53.1758-76.8633 49.6133-73.3848 49.6133-69C49.6133-64.6289 53.1758-61.0664 57.5469-61.0664ZM88.7364-49.4473C90.7579-49.4473 92.459-51.0645 92.459-53.1348C92.459-55.1914 90.7579-56.7949 88.7364-56.7949L49.9063-56.7949C46.3789-56.7949 43.2832-54.9473 41.7012-51.7129L25.2695-18.9199L16.0469-28.1777C14.5898-29.6348 12.2266-29.5859 10.8184-28.1777C9.41016-26.7207 9.42383-24.4062 10.8184-22.9844L23.8613-9.87108C25.3809-8.31639 27.877-8.56053 29.125-10.4219L39.8399-26.0234C40.4395-26.9297 41.7012-27.0762 42.4746-26.4629L55.6856-16.3965L55.6856 1.97268C55.6856 4.01565 57.3028 5.63284 59.3594 5.63284C61.4297 5.63284 63.0684 4.01565 63.0684 1.97268L63.0684-18.2578C63.0684-19.2129 62.6289-20.1328 61.9805-20.8301L49.1465-33.6504L56.041-47.4043C56.7383-48.75 57.9024-49.4473 59.3106-49.4473ZM64.8457-32.9043L79.5762-32.9043C81.6329-32.9043 83.25-34.6055 83.25-36.5781C83.25-38.6348 81.6329-40.2871 79.5762-40.2871L66.3653-40.2871L60.3457-46.293L59.5664-46.293C59.211-46.293 58.9317-46.1465 58.7715-45.8047L55.9825-40.2969L62.2735-34.0059C63.0196-33.2734 63.8907-32.9043 64.8457-32.9043ZM85.9336-40.7402C85.9336-37.2266 90.0958-34.3125 95.1778-34.3125C100.26-34.3125 104.387-37.2266 104.387-40.7402C104.387-44.3164 100.26-47.1465 95.1778-47.1465C90.0958-47.1465 85.9336-44.3164 85.9336-40.7402Z"/>
  </g>
  <g id="Ultralight-S" transform="matrix(1 0 0 1 503.676 696)">
   <path d="M56.501-60.6768C60.7832-60.6768 64.1797-64.1675 64.1797-68.4463C64.1797-72.7285 60.7832-76.125 56.501-76.125C52.2222-76.125 48.7315-72.7285 48.7315-68.4463C48.7315-64.1675 52.2222-60.6768 56.501-60.6768ZM87.0035-49.1294C88.9737-49.1294 90.6441-50.7056 90.6441-52.7246C90.6441-54.7403 88.9737-56.313 87.0035-56.313L49.0244-56.313C45.5791-56.313 42.5347-54.4961 41.0039-51.3438L24.9209-19.2685L15.9136-28.3213C14.4873-29.7476 12.1753-29.6987 10.7979-28.3213C9.42041-26.895 9.42383-24.6318 10.7979-23.251L23.5435-10.4145C25.022-8.8906 27.4771-9.13475 28.7046-10.9551L39.1836-26.208C39.773-27.0937 41.0039-27.2402 41.7466-26.6475L54.6807-16.8066L54.6807 1.15237C54.6807 3.16458 56.2569 4.74075 58.2725 4.74075C60.2915 4.74075 61.9097 3.16458 61.9097 1.15237L61.9097-18.6269C61.9097-19.5615 61.4703-20.4507 60.8321-21.1377L48.2852-33.6812L55.0259-47.1172C55.7129-48.4424 56.8462-49.1294 58.2237-49.1294ZM63.6358-32.9453L78.0484-32.9453C80.064-32.9453 81.6402-34.6157 81.6402-36.5371C81.6402-38.5527 80.064-40.1743 78.0484-40.1743L65.1143-40.1743L59.105-46.1802L58.3975-46.1802C58.0523-46.1802 57.7627-46.0337 57.6128-45.6919L54.8648-40.2866L61.125-34.0264C61.8609-33.2939 62.7012-32.9453 63.6358-32.9453ZM84.252-40.6172C84.252-37.1753 88.3321-34.3228 93.3013-34.3228C98.2706-34.3228 102.305-37.1753 102.305-40.6172C102.305-44.1113 98.2706-46.8696 93.3013-46.8696C88.3321-46.8696 84.252-44.1113 84.252-40.6172Z"/>
  </g>
 </g>
</svg>
