<?xml version="1.0" encoding="UTF-8"?>
<!--Generator: Apple Native CoreSVG 175.5-->
<!DOCTYPE svg
PUBLIC "-//W3C//DTD SVG 1.1//EN"
       "http://www.w3.org/Graphics/SVG/1.1/DTD/svg11.dtd">
<svg version="1.1" xmlns="http://www.w3.org/2000/svg" xmlns:xlink="http://www.w3.org/1999/xlink" width="3300" height="2200">
 <!--glyph: "uni101492.medium", point size: 100.0, font version: "18.0d12e2", template writer version: "101"-->
 <g id="Notes">
  <rect height="2200" id="artboard" style="fill:white;opacity:1" width="3300" x="0" y="0"/>
  <line style="fill:none;stroke:black;opacity:1;stroke-width:0.5;" x1="263" x2="3036" y1="292" y2="292"/>
  <text style="stroke:none;fill:black;font-family:sans-serif;font-size:13;font-weight:bold;" transform="matrix(1 0 0 1 263 322)">Weight/Scale Variations</text>
  <text style="stroke:none;fill:black;font-family:sans-serif;font-size:13;text-anchor:middle;" transform="matrix(1 0 0 1 559.711 322)">Ultralight</text>
  <text style="stroke:none;fill:black;font-family:sans-serif;font-size:13;text-anchor:middle;" transform="matrix(1 0 0 1 856.422 322)">Thin</text>
  <text style="stroke:none;fill:black;font-family:sans-serif;font-size:13;text-anchor:middle;" transform="matrix(1 0 0 1 1153.13 322)">Light</text>
  <text style="stroke:none;fill:black;font-family:sans-serif;font-size:13;text-anchor:middle;" transform="matrix(1 0 0 1 1449.84 322)">Regular</text>
  <text style="stroke:none;fill:black;font-family:sans-serif;font-size:13;text-anchor:middle;" transform="matrix(1 0 0 1 1746.56 322)">Medium</text>
  <text style="stroke:none;fill:black;font-family:sans-serif;font-size:13;text-anchor:middle;" transform="matrix(1 0 0 1 2043.27 322)">Semibold</text>
  <text style="stroke:none;fill:black;font-family:sans-serif;font-size:13;text-anchor:middle;" transform="matrix(1 0 0 1 2339.98 322)">Bold</text>
  <text style="stroke:none;fill:black;font-family:sans-serif;font-size:13;text-anchor:middle;" transform="matrix(1 0 0 1 2636.69 322)">Heavy</text>
  <text style="stroke:none;fill:black;font-family:sans-serif;font-size:13;text-anchor:middle;" transform="matrix(1 0 0 1 2933.4 322)">Black</text>
  <line style="fill:none;stroke:black;opacity:1;stroke-width:0.5;" x1="263" x2="3036" y1="1903" y2="1903"/>
  <g transform="matrix(1 0 0 1 263 1933)">
   <path d="M9.24805 0.830078C13.5547 0.830078 17.1387-2.74414 17.1387-7.05078C17.1387-11.3574 13.5449-14.9316 9.23828-14.9316C4.94141-14.9316 1.36719-11.3574 1.36719-7.05078C1.36719-2.74414 4.95117 0.830078 9.24805 0.830078ZM9.24805-0.654297C5.70312-0.654297 2.87109-3.49609 2.87109-7.05078C2.87109-10.6055 5.69336-13.4473 9.23828-13.4473C12.793-13.4473 15.6445-10.6055 15.6445-7.05078C15.6445-3.49609 12.8027-0.654297 9.24805-0.654297ZM5.6543-7.05078C5.6543-6.62109 5.95703-6.32812 6.40625-6.32812L8.50586-6.32812L8.50586-4.20898C8.50586-3.76953 8.79883-3.4668 9.22852-3.4668C9.67773-3.4668 9.9707-3.76953 9.9707-4.20898L9.9707-6.32812L12.0898-6.32812C12.5293-6.32812 12.832-6.62109 12.832-7.05078C12.832-7.49023 12.5293-7.79297 12.0898-7.79297L9.9707-7.79297L9.9707-9.90234C9.9707-10.3516 9.67773-10.6543 9.22852-10.6543C8.79883-10.6543 8.50586-10.3516 8.50586-9.90234L8.50586-7.79297L6.40625-7.79297C5.95703-7.79297 5.6543-7.49023 5.6543-7.05078Z"/>
  </g>
  <g transform="matrix(1 0 0 1 281.867 1933)">
   <path d="M11.709 2.91016C17.1582 2.91016 21.6699-1.61133 21.6699-7.05078C21.6699-12.5 17.1484-17.0117 11.6992-17.0117C6.25977-17.0117 1.74805-12.5 1.74805-7.05078C1.74805-1.61133 6.26953 2.91016 11.709 2.91016ZM11.709 1.25C7.09961 1.25 3.41797-2.44141 3.41797-7.05078C3.41797-11.6602 7.08984-15.3516 11.6992-15.3516C16.3086-15.3516 20.0098-11.6602 20.0098-7.05078C20.0098-2.44141 16.3184 1.25 11.709 1.25ZM7.17773-7.05078C7.17773-6.57227 7.50977-6.25 8.00781-6.25L10.8789-6.25L10.8789-3.36914C10.8789-2.88086 11.2109-2.53906 11.6895-2.53906C12.1777-2.53906 12.5195-2.87109 12.5195-3.36914L12.5195-6.25L15.4004-6.25C15.8887-6.25 16.2305-6.57227 16.2305-7.05078C16.2305-7.53906 15.8887-7.88086 15.4004-7.88086L12.5195-7.88086L12.5195-10.752C12.5195-11.25 12.1777-11.5918 11.6895-11.5918C11.2109-11.5918 10.8789-11.25 10.8789-10.752L10.8789-7.88086L8.00781-7.88086C7.50977-7.88086 7.17773-7.53906 7.17773-7.05078Z"/>
  </g>
  <g transform="matrix(1 0 0 1 305.646 1933)">
   <path d="M14.9707 5.66406C21.9336 5.66406 27.6953-0.0976562 27.6953-7.05078C27.6953-14.0137 21.9238-19.7754 14.9609-19.7754C8.00781-19.7754 2.25586-14.0137 2.25586-7.05078C2.25586-0.0976562 8.01758 5.66406 14.9707 5.66406ZM14.9707 3.84766C8.93555 3.84766 4.08203-1.01562 4.08203-7.05078C4.08203-13.0957 8.92578-17.9492 14.9609-17.9492C21.0059-17.9492 25.8691-13.0957 25.8691-7.05078C25.8691-1.01562 21.0156 3.84766 14.9707 3.84766ZM9.19922-7.05078C9.19922-6.5332 9.57031-6.17188 10.1172-6.17188L14.0625-6.17188L14.0625-2.2168C14.0625-1.67969 14.4336-1.29883 14.9512-1.29883C15.4883-1.29883 15.8594-1.66992 15.8594-2.2168L15.8594-6.17188L19.8145-6.17188C20.3516-6.17188 20.7324-6.5332 20.7324-7.05078C20.7324-7.59766 20.3613-7.96875 19.8145-7.96875L15.8594-7.96875L15.8594-11.9141C15.8594-12.4609 15.4883-12.8418 14.9512-12.8418C14.4336-12.8418 14.0625-12.4609 14.0625-11.9141L14.0625-7.96875L10.1172-7.96875C9.57031-7.96875 9.19922-7.59766 9.19922-7.05078Z"/>
  </g>
  <text style="stroke:none;fill:black;font-family:sans-serif;font-size:13;font-weight:bold;" transform="matrix(1 0 0 1 263 1953)">Design Variations</text>
  <text style="stroke:none;fill:black;font-family:sans-serif;font-size:13;" transform="matrix(1 0 0 1 263 1971)">Symbols are supported in up to nine weights and three scales.</text>
  <text style="stroke:none;fill:black;font-family:sans-serif;font-size:13;" transform="matrix(1 0 0 1 263 1989)">For optimal layout with text and other symbols, vertically align</text>
  <text style="stroke:none;fill:black;font-family:sans-serif;font-size:13;" transform="matrix(1 0 0 1 263 2007)">symbols with the adjacent text.</text>
  <line style="fill:none;stroke:#00AEEF;stroke-width:0.5;opacity:1.0;" x1="776" x2="776" y1="1919" y2="1933"/>
  <g transform="matrix(1 0 0 1 776 1933)">
   <path d="M3.31055 0.15625C3.82812 0.15625 4.08203-0.0390625 4.26758-0.585938L5.52734-4.0332L11.2891-4.0332L12.5488-0.585938C12.7344-0.0390625 12.9883 0.15625 13.4961 0.15625C14.0137 0.15625 14.3457-0.15625 14.3457-0.644531C14.3457-0.810547 14.3164-0.966797 14.2383-1.17188L9.6582-13.3691C9.43359-13.9648 9.0332-14.2676 8.4082-14.2676C7.80273-14.2676 7.39258-13.9746 7.17773-13.3789L2.59766-1.16211C2.51953-0.957031 2.49023-0.800781 2.49023-0.634766C2.49023-0.146484 2.80273 0.15625 3.31055 0.15625ZM6.00586-5.51758L8.37891-12.0898L8.42773-12.0898L10.8008-5.51758Z"/>
  </g>
  <line style="fill:none;stroke:#00AEEF;stroke-width:0.5;opacity:1.0;" x1="793.197" x2="793.197" y1="1919" y2="1933"/>
  <text style="stroke:none;fill:black;font-family:sans-serif;font-size:13;font-weight:bold;" transform="matrix(1 0 0 1 776 1953)">Margins</text>
  <text style="stroke:none;fill:black;font-family:sans-serif;font-size:13;" transform="matrix(1 0 0 1 776 1971)">Leading and trailing margins on the left and right side of each symbol</text>
  <text style="stroke:none;fill:black;font-family:sans-serif;font-size:13;" transform="matrix(1 0 0 1 776 1989)">can be adjusted by modifying the x-location of the margin guidelines.</text>
  <text style="stroke:none;fill:black;font-family:sans-serif;font-size:13;" transform="matrix(1 0 0 1 776 2007)">Modifications are automatically applied proportionally to all</text>
  <text style="stroke:none;fill:black;font-family:sans-serif;font-size:13;" transform="matrix(1 0 0 1 776 2025)">scales and weights.</text>
  <g transform="matrix(1 0 0 1 1289 1933)">
   <path d="M2.8418 1.86523L4.54102 3.57422C5.40039 4.44336 6.38672 4.38477 7.31445 3.35938L18.0078-8.42773L17.041-9.4043L6.42578 2.27539C6.07422 2.67578 5.74219 2.77344 5.27344 2.30469L4.10156 1.14258C3.63281 0.683594 3.74023 0.341797 4.14062-0.0195312L15.6152-10.8203L14.6387-11.7871L3.04688-0.898438C2.06055 0.0195312 1.98242 0.996094 2.8418 1.86523ZM9.25781-16.3281C8.83789-15.918 8.80859-15.3418 9.04297-14.9512C9.27734-14.5898 9.73633-14.3555 10.3809-14.5215C11.8457-14.8633 13.3691-14.9219 14.7949-13.9844L14.209-12.5293C13.8672-11.6992 14.043-11.1133 14.5801-10.5664L16.875-8.25195C17.3633-7.76367 17.7734-7.74414 18.3398-7.8418L19.4043-8.03711L20.0684-7.36328L20.0293-6.80664C19.9902-6.30859 20.1172-5.92773 20.6055-5.44922L21.3672-4.70703C21.8457-4.22852 22.4609-4.19922 22.9297-4.66797L25.8398-7.58789C26.3086-8.05664 26.2891-8.65234 25.8105-9.13086L25.0391-9.89258C24.5605-10.3711 24.1895-10.5273 23.7109-10.4883L23.1348-10.4395L22.4902-11.0742L22.7344-12.1973C22.8613-12.7637 22.7051-13.2031 22.1191-13.7891L19.9219-15.9766C16.582-19.2969 12.1484-19.2188 9.25781-16.3281ZM10.752-15.957C13.1836-17.7344 16.4746-17.4316 18.7012-15.2051L21.1328-12.793C21.3672-12.5586 21.4062-12.373 21.3379-12.0312L21.0156-10.5469L22.5195-9.0625L23.5059-9.12109C23.7598-9.13086 23.8379-9.11133 24.0332-8.91602L24.6094-8.33984L22.168-5.89844L21.5918-6.47461C21.3965-6.66992 21.3672-6.74805 21.377-7.01172L21.4453-7.98828L19.9512-9.47266L18.4277-9.21875C18.1055-9.15039 17.959-9.17969 17.7148-9.41406L15.7129-11.416C15.459-11.6504 15.4297-11.8164 15.5859-12.1875L16.4648-14.2773C14.9023-15.7324 12.8711-16.3574 10.8398-15.7617C10.6836-15.7227 10.625-15.8496 10.752-15.957Z"/>
  </g>
  <text style="stroke:none;fill:black;font-family:sans-serif;font-size:13;font-weight:bold;" transform="matrix(1 0 0 1 1289 1953)">Exporting</text>
  <text style="stroke:none;fill:black;font-family:sans-serif;font-size:13;" transform="matrix(1 0 0 1 1289 1971)">Symbols should be outlined when exporting to ensure the</text>
  <text style="stroke:none;fill:black;font-family:sans-serif;font-size:13;" transform="matrix(1 0 0 1 1289 1989)">design is preserved when submitting to Xcode.</text>
  <text id="template-version" style="stroke:none;fill:black;font-family:sans-serif;font-size:13;text-anchor:end;" transform="matrix(1 0 0 1 3036 1933)">Template v.4.0</text>
  <text style="stroke:none;fill:black;font-family:sans-serif;font-size:13;text-anchor:end;" transform="matrix(1 0 0 1 3036 1951)">Requires Xcode 14 or greater</text>
  <text id="descriptive-name" style="stroke:none;fill:black;font-family:sans-serif;font-size:13;text-anchor:end;" transform="matrix(1 0 0 1 3036 1969)">Generated from figure.australian.football</text>
  <text style="stroke:none;fill:black;font-family:sans-serif;font-size:13;text-anchor:end;" transform="matrix(1 0 0 1 3036 1987)">Typeset at 100 points</text>
  <text style="stroke:none;fill:black;font-family:sans-serif;font-size:13;" transform="matrix(1 0 0 1 263 726)">Small</text>
  <text style="stroke:none;fill:black;font-family:sans-serif;font-size:13;" transform="matrix(1 0 0 1 263 1156)">Medium</text>
  <text style="stroke:none;fill:black;font-family:sans-serif;font-size:13;" transform="matrix(1 0 0 1 263 1586)">Large</text>
 </g>
 <g id="Guides">
  <g id="H-reference" style="fill:#27AAE1;stroke:none;" transform="matrix(1 0 0 1 339 696)">
   <path d="M0.993654 0L3.63775 0L29.3281-67.1323L30.0303-67.1323L30.0303-70.459L28.1226-70.459ZM11.6885-24.4799L46.9815-24.4799L46.2315-26.7285L12.4385-26.7285ZM55.1196 0L57.7637 0L30.6382-70.459L29.4326-70.459L29.4326-67.1323Z"/>
  </g>
  <line id="Baseline-S" style="fill:none;stroke:#27AAE1;opacity:1;stroke-width:0.5;" x1="263" x2="3036" y1="696" y2="696"/>
  <line id="Capline-S" style="fill:none;stroke:#27AAE1;opacity:1;stroke-width:0.5;" x1="263" x2="3036" y1="625.541" y2="625.541"/>
  <g id="H-reference" style="fill:#27AAE1;stroke:none;" transform="matrix(1 0 0 1 339 1126)">
   <path d="M0.993654 0L3.63775 0L29.3281-67.1323L30.0303-67.1323L30.0303-70.459L28.1226-70.459ZM11.6885-24.4799L46.9815-24.4799L46.2315-26.7285L12.4385-26.7285ZM55.1196 0L57.7637 0L30.6382-70.459L29.4326-70.459L29.4326-67.1323Z"/>
  </g>
  <line id="Baseline-M" style="fill:none;stroke:#27AAE1;opacity:1;stroke-width:0.5;" x1="263" x2="3036" y1="1126" y2="1126"/>
  <line id="Capline-M" style="fill:none;stroke:#27AAE1;opacity:1;stroke-width:0.5;" x1="263" x2="3036" y1="1055.54" y2="1055.54"/>
  <g id="H-reference" style="fill:#27AAE1;stroke:none;" transform="matrix(1 0 0 1 339 1556)">
   <path d="M0.993654 0L3.63775 0L29.3281-67.1323L30.0303-67.1323L30.0303-70.459L28.1226-70.459ZM11.6885-24.4799L46.9815-24.4799L46.2315-26.7285L12.4385-26.7285ZM55.1196 0L57.7637 0L30.6382-70.459L29.4326-70.459L29.4326-67.1323Z"/>
  </g>
  <line id="Baseline-L" style="fill:none;stroke:#27AAE1;opacity:1;stroke-width:0.5;" x1="263" x2="3036" y1="1556" y2="1556"/>
  <line id="Capline-L" style="fill:none;stroke:#27AAE1;opacity:1;stroke-width:0.5;" x1="263" x2="3036" y1="1485.54" y2="1485.54"/>
  <line id="left-margin-Regular-M" style="fill:none;stroke:#00AEEF;stroke-width:0.5;opacity:1.0;" x1="1383.89" x2="1383.89" y1="1030.79" y2="1150.12"/>
  <line id="right-margin-Regular-M" style="fill:none;stroke:#00AEEF;stroke-width:0.5;opacity:1.0;" x1="1515.8" x2="1515.8" y1="1030.79" y2="1150.12"/>
 </g>
 <g id="Symbols">
  <g id="Black-L" transform="matrix(1 0 0 1 2843.71 1556)">
   <path d="M115.625-85.6197C124.171-85.6197 131.113-92.5826 131.113-101.109C131.113-109.654 124.171-116.596 115.625-116.596C107.098-116.596 100.137-109.654 100.137-101.109C100.137-92.5826 107.098-85.6197 115.625-85.6197ZM43.9851-15.2654L81.933-15.2654L116.975-10.3306C130.795-8.36892 141.022-14.5716 141.022-27.9248L141.022-50.4086C141.022-50.9868 141.584-51.2345 142.037-50.7819L147.249-45.4896L147.249-23.3921C147.249-18.9591 151.023-15.2654 155.316-15.2654C159.748-15.2654 163.303-18.9591 163.303-23.3921L163.303-48.8836C163.303-51.0009 162.544-53.0378 160.887-54.5933L144.219-71.1218C139.073-76.2099 132.423-79.1742 125.092-79.1742L59.8495-79.1742C55.4773-79.1742 51.7836-75.4793 51.7836-71.1655C51.7836-66.7325 55.3969-63.1193 59.8495-63.1193L110.009-63.1193C111.507-63.1193 112.309-62.2946 112.309-60.8562L112.309-31.3995L43.9851-31.3995C39.4521-31.3995 35.8389-27.7863 35.8389-23.3921C35.8389-18.9591 39.5325-15.2654 43.9851-15.2654ZM127.502 42.8666C130.597 45.9621 135.649 46.0205 138.687 42.8666C141.92 39.8503 141.781 34.7984 138.687 31.6237L117.427 10.0658L123.911-2.47635C121.368-2.31551 118.644-2.47516 115.919-2.85524L104.838-4.3732L99.9944 8.89038C98.9357 11.8042 99.5559 14.979 101.891 17.3155ZM23.1737-44.8187C32.2823-35.7881 42.6504-36.8468 46.7085-40.7673C50.6666-44.9059 51.0247-54.549 41.9565-63.66C32.8443-72.771 23.1-72.5309 19.0419-68.3535C15.0033-64.2954 14.0835-54.1257 23.1737-44.8187Z"/>
  </g>
  <g id="Heavy-L" transform="matrix(1 0 0 1 2548.2 1556)">
   <path d="M114.083-84.9986C122.402-84.9986 129.129-91.7563 129.129-100.045C129.129-108.359 122.402-115.086 114.083-115.086C105.794-115.086 99.0418-108.359 99.0418-100.045C99.0418-91.7563 105.794-84.9986 114.083-84.9986ZM43.3614-15.9338L80.8392-15.9338L115.466-11.053C128.971-9.13655 138.911-15.1617 138.911-28.1636L138.911-50.6709C138.911-51.3593 139.621-51.6578 140.152-51.1269L145.576-45.6219L145.576-23.6849C145.576-19.4581 149.181-15.9338 153.277-15.9338C157.498-15.9338 160.898-19.4581 160.898-23.6849L160.898-48.8603C160.898-50.8861 160.171-52.8314 158.592-54.2998L142.132-70.6341C137.109-75.613 130.604-78.5089 123.442-78.5089L59.0222-78.5089C54.8512-78.5089 51.3269-74.9789 51.3269-70.8526C51.3269-66.6259 54.7708-63.1819 59.0222-63.1819L108.544-63.1819C110.121-63.1819 111.066-62.2006 111.066-60.6746L111.066-31.3356L43.3614-31.3356C39.0296-31.3356 35.5857-27.8916 35.5857-23.6849C35.5857-19.4581 39.11-15.9338 43.3614-15.9338ZM125.99 41.5352C128.949 44.4934 133.772 44.538 136.685 41.5352C139.763 38.6518 139.638 33.8287 136.685 30.7957L115.55 9.38023L122.259-3.59474C119.79-3.4339 117.13-3.58913 114.464-3.95543L103.891-5.40942L98.8999 8.27811C97.887 11.0453 98.489 14.0783 100.715 16.3095ZM23.0049-45.038C31.8813-36.2308 41.9571-37.2437 45.8691-41.0363C49.6762-45.0287 50.0067-54.3751 41.185-63.2628C32.2918-72.1504 22.8348-71.9147 18.9228-67.9023C15.0353-63.9902 14.1475-54.0897 23.0049-45.038Z"/>
  </g>
  <g id="Bold-L" transform="matrix(1 0 0 1 2253.06 1556)">
   <path d="M112.05-84.178C120.085-84.178 126.551-90.6822 126.551-98.679C126.551-106.701 120.085-113.167 112.05-113.167C104.054-113.167 97.5626-106.701 97.5626-98.679C97.5626-90.6822 104.054-84.178 112.05-84.178ZM42.5779-16.7189L79.4122-16.7189L113.464-11.9146C126.578-10.0595 136.164-15.8618 136.164-28.4333L136.164-50.8893C136.164-51.7012 137.036-52.0536 137.652-51.4379L143.293-45.7162L143.293-24.0312C143.293-20.0431 146.698-16.7189 150.563-16.7189C154.538-16.7189 157.752-20.0431 157.752-24.0312L157.752-48.77C157.752-50.688 157.064-52.5256 155.577-53.8939L139.401-69.9601C134.532-74.8007 128.211-77.6121 121.257-77.6121L57.9628-77.6121C54.0305-77.6121 50.7062-74.2746 50.7062-70.3715C50.7062-66.3834 53.95-63.1395 57.9628-63.1395L106.612-63.1395C108.273-63.1395 109.373-61.9885 109.373-60.3697L109.373-31.2586L42.5779-31.2586C38.4847-31.2586 35.2409-28.0148 35.2409-24.0312C35.2409-20.0431 38.5651-16.7189 42.5779-16.7189ZM123.952 39.8236C126.748 42.6202 131.302 42.6494 134.069 39.8236C136.962 37.0942 136.853 32.5405 134.069 29.6767L113.14 8.49016L120.096-4.95556C117.712-4.79472 115.128-4.94233 112.532-5.29322L102.559-6.67029L97.4133 7.47276C96.4543 10.0705 97.0332 12.9343 99.128 15.0423ZM22.7974-45.2325C31.382-36.702 41.104-37.661 44.8392-41.2997C48.4692-45.1153 48.7688-54.1003 40.247-62.7114C31.6228-71.3224 22.5193-71.0943 18.7842-67.2743C15.0738-63.5392 14.2244-53.9692 22.7974-45.2325Z"/>
  </g>
  <g id="Semibold-L" transform="matrix(1 0 0 1 1957.43 1556)">
   <path d="M110.649-83.6123C118.488-83.6123 124.774-89.9416 124.774-97.7372C124.774-105.558 118.488-111.843 110.649-111.843C102.854-111.843 96.5429-105.558 96.5429-97.7372C96.5429-89.9416 102.854-83.6123 110.649-83.6123ZM42.0379-17.2601L78.4285-17.2601L112.085-12.5086C124.928-10.6958 134.271-16.3446 134.271-28.6193L134.271-51.0399C134.271-51.9368 135.254-52.3266 135.928-51.6523L141.719-45.7813L141.719-24.2699C141.719-20.4464 144.986-17.2601 148.692-17.2601C152.497-17.2601 155.584-20.4464 155.584-24.2699L155.584-48.7078C155.584-50.5515 154.922-52.3148 153.499-53.614L137.519-69.4955C132.755-74.2408 126.562-76.9939 119.75-76.9939L57.2326-76.9939C53.4646-76.9939 50.2783-73.7891 50.2783-70.0397C50.2783-66.2163 53.3842-63.1103 57.2326-63.1103L105.279-63.1103C106.999-63.1103 108.205-61.8422 108.205-60.1595L108.205-31.2056L42.0379-31.2056C38.1091-31.2056 35.0032-28.0997 35.0032-24.2699C35.0032-20.4464 38.1895-17.2601 42.0379-17.2601ZM122.546 38.6436C125.231 41.3288 129.599 41.3474 132.266 38.6436C135.032 36.0204 134.933 31.6524 132.266 28.9053L111.479 7.87656L118.605-5.8937C116.279-5.73286 113.748-5.87522 111.2-6.21548L101.641-7.53952L96.3884 6.91755C95.4666 9.3985 96.0296 12.1456 98.0343 14.1687ZM22.6544-45.3666C31.0377-37.0267 40.5159-37.9486 44.1292-41.4813C47.6371-45.175 47.9155-53.9109 39.6004-62.3312C31.1616-70.7515 22.3019-70.5288 18.6886-66.8414C15.1003-63.2282 14.2774-53.886 22.6544-45.3666Z"/>
  </g>
  <g id="Medium-L" transform="matrix(1 0 0 1 1661.54 1556)">
   <path d="M109.587-83.1834C117.277-83.1834 123.426-89.3801 123.426-97.023C123.426-104.691 117.277-110.84 109.587-110.84C101.944-110.84 95.7697-104.691 95.7697-97.023C95.7697-89.3801 101.944-83.1834 109.587-83.1834ZM41.6283-17.6705L77.6826-17.6705L111.038-12.959C123.677-11.1782 132.835-16.7106 132.835-28.7603L132.835-51.1541C132.835-52.1155 133.903-52.5335 134.622-51.8148L140.526-45.8306L140.526-24.4509C140.526-20.7522 143.688-17.6705 147.273-17.6705C150.949-17.6705 153.94-20.7522 153.94-24.4509L153.94-48.6606C153.94-50.448 153.298-52.1549 151.923-53.4019L136.091-69.1431C131.408-73.8162 125.311-76.5252 118.608-76.5252L56.6788-76.5252C53.0356-76.5252 49.9538-73.4209 49.9538-69.7882C49.9538-66.0895 52.9552-63.0882 56.6788-63.0882L104.269-63.0882C106.033-63.0882 107.32-61.7313 107.32-60.0002L107.32-31.1654L41.6283-31.1654C37.8242-31.1654 34.8229-28.1641 34.8229-24.4509C34.8229-20.7522 37.9047-17.6705 41.6283-17.6705ZM121.481 37.7489C124.081 40.3496 128.308 40.3601 130.899 37.7489C133.568 35.2062 133.477 30.979 130.899 28.3204L110.219 7.41129L117.474-6.60504C115.192-6.4442 112.702-6.58258 110.19-6.91477L100.944-8.19862L95.6114 6.49657C94.7177 8.88895 95.2686 11.5476 97.2049 13.5063ZM22.5459-45.4683C30.7767-37.273 40.07-38.1667 43.5908-41.619C47.0061-45.2202 47.2684-53.7673 39.1101-62.043C30.8119-70.3187 22.137-70.0999 18.6162-66.5132C15.1204-62.9924 14.3176-53.823 22.5459-45.4683Z"/>
  </g>
  <g id="Regular-L" transform="matrix(1 0 0 1 1365.9 1556)">
   <path d="M108.201-82.6239C115.698-82.6239 121.669-88.6477 121.669-96.0915C121.669-103.56 115.698-109.531 108.201-109.531C100.757-109.531 94.7611-103.56 94.7611-96.0915C94.7611-88.6477 100.757-82.6239 108.201-82.6239ZM41.0942-18.2058L76.7096-18.2058L109.674-13.5465C122.046-11.8075 130.962-17.188 130.962-28.9442L130.962-51.3031C130.962-52.3485 132.141-52.8034 132.917-52.0269L138.969-45.8949L138.969-24.687C138.969-21.1511 141.995-18.2058 145.422-18.2058C148.931-18.2058 151.796-21.1511 151.796-24.687L151.796-48.599C151.796-50.3129 151.18-51.9464 149.868-53.1251L134.229-68.6836C129.65-73.2624 123.679-75.9137 117.117-75.9137L55.9566-75.9137C52.476-75.9137 49.5306-72.9407 49.5306-69.4601C49.5306-65.9242 52.3955-63.0593 55.9566-63.0593L102.951-63.0593C104.773-63.0593 106.165-61.5866 106.165-59.7923L106.165-31.113L41.0942-31.113C37.4527-31.113 34.5878-28.2481 34.5878-24.687C34.5878-21.1511 37.5332-18.2058 41.0942-18.2058ZM120.09 36.582C122.581 39.0724 126.624 39.0724 129.115 36.582C131.658 34.1443 131.578 30.1007 129.115 27.5575L108.576 6.80443L115.999-7.53287C113.775-7.37203 111.337-7.50522 108.872-7.8269L100.036-9.0583L94.5978 5.94747C93.7408 8.22433 94.2761 10.7676 96.1232 12.6423ZM22.4044-45.6009C30.4362-37.5942 39.4883-38.4512 42.8885-41.7986C46.1832-45.2792 46.4245-53.5799 38.4705-61.667C30.3558-69.7542 21.9219-69.5406 18.5217-66.085C15.1466-62.6849 14.3701-53.7408 22.4044-45.6009Z"/>
  </g>
  <g id="Light-L" transform="matrix(1 0 0 1 1070.82 1556)">
   <path d="M106.006-81.7269C113.293-81.7269 119.111-87.579 119.111-94.8319C119.111-102.072 113.293-107.89 106.006-107.89C98.7534-107.89 92.948-102.072 92.948-94.8319C92.948-87.579 98.7534-81.7269 106.006-81.7269ZM40.4835-18.473L75.2591-18.473L107.441-13.9282C119.526-12.2655 128.214-17.4742 128.214-28.9633L128.214-50.7687C128.214-51.8142 129.373-52.2499 130.131-51.4925L136.03-45.5132L136.03-24.8206C136.03-21.342 138.979-18.473 142.331-18.473C145.762-18.473 148.551-21.342 148.551-24.8206L148.551-48.141C148.551-49.8167 147.954-51.4121 146.681-52.5716L131.404-67.7675C126.94-72.2318 121.122-74.8259 114.694-74.8259L55.0023-74.8259C51.6171-74.8259 48.7481-71.9101 48.7481-68.525C48.7481-65.0463 51.5367-62.2577 55.0023-62.2577L100.852-62.2577C102.655-62.2577 104.009-60.8232 104.009-59.067L104.009-31.0748L40.4835-31.0748C36.9374-31.0748 34.1489-28.2862 34.1489-24.8206C34.1489-21.342 37.0179-18.473 40.4835-18.473ZM117.609 34.9979C120.043 37.4311 123.991 37.4311 126.424 34.9979C128.891 32.5984 128.81 28.6502 126.424 26.1833L106.362 5.92651L113.747-8.31537C111.542-8.15453 109.143-8.26863 106.696-8.59031L98.0894-9.78354L92.7274 5.08863C91.8895 7.32732 92.4057 9.79421 94.1956 11.6308ZM22.2708-45.2383C30.0736-37.4225 38.9349-38.2603 42.2396-41.5314C45.477-44.9166 45.7183-53.0074 37.9361-60.9036C29.9932-68.7999 21.7883-68.6054 18.4835-65.2071C15.1657-61.9024 14.4082-53.1682 22.2708-45.2383Z"/>
  </g>
  <g id="Thin-L" transform="matrix(1 0 0 1 776.25 1556)">
   <path d="M103.103-80.5405C110.112-80.5405 115.729-86.1654 115.729-93.1659C115.729-100.103 110.112-105.719 103.103-105.719C96.103-105.719 90.5501-100.103 90.5501-93.1659C90.5501-86.1654 96.103-80.5405 103.103-80.5405ZM39.6757-18.8264L73.3408-18.8264L104.487-14.4331C116.194-12.8713 124.579-17.8529 124.579-28.9885L124.579-50.0619C124.579-51.1074 125.713-51.5179 126.445-50.7857L132.142-45.0084L132.142-24.9973C132.142-21.5944 134.991-18.8264 138.241-18.8264C141.572-18.8264 144.26-21.5944 144.26-24.9973L144.26-47.5352C144.26-49.1604 143.689-50.7053 142.465-51.8396L127.669-66.5559C123.356-70.8688 117.739-73.3871 111.488-73.3871L53.7402-73.3871C50.4812-73.3871 47.7132-70.5471 47.7132-67.2881C47.7132-63.8852 50.4008-61.1976 53.7402-61.1976L98.0752-61.1976C99.8529-61.1976 101.157-59.8135 101.157-58.1079L101.157-31.0243L39.6757-31.0243C36.2559-31.0243 33.5683-28.3367 33.5683-24.9973C33.5683-21.5944 36.3363-18.8264 39.6757-18.8264ZM114.328 32.9028C116.685 35.2603 120.507 35.2603 122.865 32.9028C125.231 30.5538 125.15 26.7318 122.865 24.3659L103.434 4.76538L110.769-9.35028C108.589-9.18944 106.24-9.2783 103.819-9.59998L95.5147-10.7427L90.2537 3.95275C89.4411 6.14096 89.932 8.50688 91.6461 10.293ZM22.0941-44.7587C29.594-37.1953 38.2029-38.0079 41.3814-41.178C44.5431-44.437 44.7844-52.2501 37.2294-59.894C29.5136-67.5378 21.6116-67.3685 18.433-64.046C15.1909-60.8674 14.4587-52.411 22.0941-44.7587Z"/>
  </g>
  <g id="Ultralight-L" transform="matrix(1 0 0 1 480.638 1556)">
   <path d="M101.617-79.9329C108.483-79.9329 113.996-85.4414 113.996-92.3126C113.996-99.0944 108.483-104.607 101.617-104.607C94.7455-104.607 89.3218-99.0944 89.3218-92.3126C89.3218-85.4414 94.7455-79.9329 101.617-79.9329ZM39.262-19.0074L72.3582-19.0074L102.975-14.6916C114.488-13.1816 122.717-18.0468 122.717-29.0014L122.717-49.6999C122.717-50.7454 123.839-51.143 124.558-50.4237L130.151-44.7498L130.151-25.0878C130.151-21.7237 132.948-19.0074 136.147-19.0074C139.426-19.0074 142.062-21.7237 142.062-25.0878L142.062-47.2249C142.062-48.8243 141.504-50.3433 140.306-51.4647L125.755-65.9353C121.52-70.1706 116.007-72.6501 109.846-72.6501L53.0938-72.6501C49.8994-72.6501 47.1831-69.8489 47.1831-66.6546C47.1831-63.2904 49.819-60.6545 53.0938-60.6545L96.6531-60.6545C98.4178-60.6545 99.6956-59.2964 99.6956-57.6166L99.6956-30.9985L39.262-30.9985C35.9068-30.9985 33.2709-28.3626 33.2709-25.0878C33.2709-21.7237 35.9872-19.0074 39.262-19.0074ZM112.647 31.8297C114.966 34.1484 118.723 34.1484 121.042 31.8297C123.356 29.5065 123.276 25.7493 121.042 23.4351L101.934 4.17066L109.243-9.88036C107.076-9.71952 104.753-9.79545 102.345-10.1171L94.196-11.234L88.9867 3.37095C88.187 5.53331 88.665 7.84751 90.3403 9.60777ZM22.0036-44.5131C29.3483-37.0789 37.8279-37.8786 40.9418-40.997C44.0647-44.1914 44.306-51.8623 36.8674-59.3768C29.2679-66.8914 21.5211-66.735 18.4072-63.4513C15.2039-60.3374 14.4846-52.0231 22.0036-44.5131Z"/>
  </g>
  <g id="Black-M" transform="matrix(1 0 0 1 2863.1 1126)">
   <path d="M90.6068-74.6812C97.3957-74.6812 102.938-80.2286 102.938-87.0121C102.938-93.8013 97.3957-99.3433 90.6068-99.3433C83.8233-99.3433 78.2756-93.8013 78.2756-87.0121C78.2756-80.2286 83.8233-74.6812 90.6068-74.6812ZM34.5305-19.2243L64.2204-19.2243L91.6198-15.3702C102.558-13.8218 110.697-18.7567 110.697-29.3677L110.697-46.6916C110.697-47.0447 111.004-47.1905 111.285-46.9097L115.119-43.0131L115.119-25.825C115.119-22.2211 118.178-19.2243 121.663-19.2243C125.267-19.2243 128.145-22.2211 128.145-25.825L128.145-45.7659C128.145-47.4797 127.532-49.1313 126.186-50.4087L113.144-63.3318C109.067-67.352 103.81-69.6996 98.0036-69.6996L46.9496-69.6996C43.4023-69.6996 40.4055-66.7031 40.4055-63.2129C40.4055-59.609 43.34-56.6745 46.9496-56.6745L86.2026-56.6745C87.2933-56.6745 87.7873-56.1753 87.7873-55.1414L87.7873-32.3121L34.5305-32.3121C30.8585-32.3121 27.924-29.3776 27.924-25.825C27.924-22.2211 30.9208-19.2243 34.5305-19.2243ZM99.744 26.2045C102.252 28.713 106.35 28.7701 108.801 26.2045C111.43 23.7586 111.31 19.6609 108.801 17.0899L92.2889 0.332975L97.1132-8.9991C95.0829-8.87449 92.9225-8.99939 90.7623-9.3057L81.772-10.5315L78.157-0.638141C77.3001 1.74022 77.7936 4.31128 79.6895 6.20683ZM18.0806-42.421C25.3059-35.2586 33.5638-36.1155 36.8205-39.2525C40.0091-42.5715 40.3102-50.2689 33.0961-57.4937C25.8717-64.7185 18.1064-64.5313 14.8497-61.161C11.5988-57.9043 10.8613-49.8226 18.0806-42.421Z"/>
  </g>
  <g id="Heavy-M" transform="matrix(1 0 0 1 2567.41 1126)">
   <path d="M89.3021-74.1568C95.8878-74.1568 101.234-79.5195 101.234-86.0887C101.234-92.6721 95.8878-98.0184 89.3021-98.0184C82.7329-98.0184 77.3724-92.6721 77.3724-86.0887C77.3724-79.5195 82.7329-74.1568 89.3021-74.1568ZM33.977-19.853L63.285-19.853L90.3505-16.0411C101.008-14.53 108.887-19.3071 108.887-29.5993L108.887-46.9973C108.887-47.4582 109.34-47.6553 109.699-47.2963L113.755-43.1776L113.755-26.0989C113.755-22.6913 116.656-19.853 119.955-19.853C123.361-19.853 126.093-22.6913 126.093-26.0989L126.093-45.7854C126.093-47.4132 125.51-48.9788 124.237-50.1729L111.364-62.9396C107.397-66.8636 102.268-69.1496 96.6144-69.1496L46.2289-69.1496C42.8695-69.1496 40.0312-66.3091 40.0312-62.9933C40.0312-59.5857 42.8072-56.8096 46.2289-56.8096L84.9646-56.8096C86.1336-56.8096 86.7707-56.1539 86.7707-55.0308L86.7707-32.253L33.977-32.253C30.493-32.253 27.717-29.477 27.717-26.0989C27.717-22.6913 30.5553-19.853 33.977-19.853ZM98.4953 25.0491C100.875 27.4286 104.758 27.4722 107.094 25.0491C109.577 22.7296 109.471 18.8468 107.094 16.4072L90.6583-0.256256L95.7065-10.0202C93.7462-9.89561 91.6448-10.0179 89.5411-10.3108L81.0261-11.4776L77.2597-1.15744C76.4457 1.08106 76.9232 3.52062 78.7171 5.31673ZM17.9279-42.6689C24.9474-35.7072 32.9372-36.5211 36.0598-39.5401C39.106-42.725 39.3802-50.1518 32.3912-57.1758C25.3649-64.1999 17.8594-64.0152 14.7368-60.8008C11.6283-57.6782 10.9203-49.8402 17.9279-42.6689Z"/>
  </g>
  <g id="Bold-M" transform="matrix(1 0 0 1 2271.85 1126)">
   <path d="M87.8427-73.5701C94.2009-73.5701 99.3284-78.7263 99.3284-85.0559C99.3284-91.4089 94.2009-96.5364 87.8427-96.5364C81.5131-96.5364 76.3621-91.4089 76.3621-85.0559C76.3621-78.7263 81.5131-73.5701 87.8427-73.5701ZM33.3579-20.5563L62.2386-20.5563L88.9306-16.7917C99.2739-15.3221 106.863-19.9227 106.863-29.8584L106.863-47.3392C106.863-47.9208 107.478-48.1753 107.925-47.7287L112.229-43.3615L112.229-26.4053C112.229-23.2174 114.953-20.5563 118.045-20.5563C121.228-20.5563 123.798-23.2174 123.798-26.4053L123.798-45.8072C123.798-47.3389 123.248-48.8083 122.056-49.909L109.373-62.5008C105.528-66.3173 100.543-68.5344 95.0603-68.5344L45.4227-68.5344C42.2735-68.5344 39.6124-65.8682 39.6124-62.7476C39.6124-59.5596 42.2112-56.9608 45.4227-56.9608L83.5798-56.9608C84.8363-56.9608 85.6335-56.1299 85.6335-54.907L85.6335-32.187L33.3579-32.187C30.0842-32.187 27.4854-29.5883 27.4854-26.4053C27.4854-23.2174 30.1465-20.5563 33.3579-20.5563ZM97.0985 23.7565C99.3337 25.9918 102.976 26.0204 105.183 23.7565C107.504 21.5784 107.413 17.936 105.183 15.6436L88.8342-0.915395L94.133-11.1625C92.2509-11.0379 90.2155-11.1573 88.175-11.4351L80.1918-12.5359L76.2559-1.73835C75.49 0.343696 75.9495 2.63615 77.6293 4.32103ZM17.7572-42.9462C24.5464-36.209 32.2362-36.9749 35.2089-39.8618C38.0958-42.8968 38.3398-50.0208 31.6027-56.8203C24.7981-63.6197 17.5832-63.438 14.6105-60.3979C11.6613-57.4252 10.9863-49.8599 17.7572-42.9462Z"/>
  </g>
  <g id="Semibold-M" transform="matrix(1 0 0 1 1975.93 1126)">
   <path d="M86.8366-73.1657C93.038-73.1657 98.0147-78.1794 98.0147-84.3438C98.0147-90.5381 93.038-95.5148 86.8366-95.5148C80.6722-95.5148 75.6656-90.5381 75.6656-84.3438C75.6656-78.1794 80.6722-73.1657 86.8366-73.1657ZM32.9311-21.0411L61.5172-21.0411L87.9517-17.3092C98.0784-15.8683 105.467-20.3472 105.467-30.037L105.467-47.575C105.467-48.2397 106.195-48.5338 106.702-48.0268L111.178-43.4884L111.178-26.6166C111.178-23.58 113.779-21.0411 116.728-21.0411C119.757-21.0411 122.216-23.58 122.216-26.6166L122.216-45.8222C122.216-47.2876 121.688-48.6907 120.552-49.7271L108.001-62.1983C104.24-65.9406 99.3544-68.1103 93.989-68.1103L44.8668-68.1103C41.8626-68.1103 39.3237-65.5643 39.3237-62.5782C39.3237-59.5416 41.8003-57.0651 44.8668-57.0651L82.6251-57.0651C83.942-57.0651 84.8496-56.1134 84.8496-54.8217L84.8496-32.1415L32.9311-32.1415C29.8023-32.1415 27.3257-29.6649 27.3257-26.6166C27.3257-23.58 29.8646-21.0411 32.9311-21.0411ZM96.1355 22.8655C98.2713 25.0013 101.748 25.0195 103.866 22.8655C106.075 20.7848 105.994 17.3082 103.866 15.1171L87.5768-1.3698L93.0482-11.9499C91.22-11.8253 89.2301-11.9428 87.2332-12.2102L79.6165-13.2655L75.5638-2.13883C74.8311-0.16464 75.2783 2.0264 76.8794 3.6346ZM17.6394-43.1373C24.2699-36.555 31.753-37.2877 34.6223-40.0836C37.3993-43.0152 37.6226-49.9305 31.0591-56.5751C24.4073-63.2198 17.3927-63.04 14.5234-60.1202C11.6841-57.2509 11.0318-49.8735 17.6394-43.1373Z"/>
  </g>
  <g id="Medium-M" transform="matrix(1 0 0 1 1679.82 1126)">
   <path d="M86.0737-72.8591C92.1562-72.8591 97.0185-77.7647 97.0185-83.8039C97.0185-89.8778 92.1562-94.7401 86.0737-94.7401C80.0346-94.7401 75.1375-89.8778 75.1375-83.8039C75.1375-77.7647 80.0346-72.8591 86.0737-72.8591ZM32.6075-21.4087L60.9702-21.4087L87.2094-17.7015C97.1719-16.2823 104.408-20.669 104.408-30.1725L104.408-47.7537C104.408-48.4815 105.221-48.8056 105.774-48.2528L110.38-43.5845L110.38-26.7768C110.38-23.855 112.889-21.4087 115.729-21.4087C118.642-21.4087 121.016-23.855 121.016-26.7768L121.016-45.8336C121.016-47.2487 120.506-48.6016 119.412-49.5892L106.96-61.969C103.264-65.655 98.4528-67.7887 93.1766-67.7887L44.4454-67.7887C41.5511-67.7887 39.1049-65.3338 39.1049-62.4498C39.1049-59.528 41.4888-57.1441 44.4454-57.1441L81.9012-57.1441C83.2639-57.1441 84.2551-56.1008 84.2551-54.757L84.2551-32.107L32.6075-32.107C29.5886-32.107 27.2047-29.7231 27.2047-26.7768C27.2047-23.855 29.6509-21.4087 32.6075-21.4087ZM95.4054 22.1898C97.4658 24.2503 100.817 24.2605 102.867 22.1898C104.991 20.1831 104.919 16.8321 102.867 14.7179L86.6233-1.71435L92.2257-12.547C90.4384-12.4224 88.483-12.5384 86.5191-12.7979L79.1804-13.8187L75.0391-2.44249C74.3315-0.550082 74.7693 1.56407 76.3108 3.11412ZM17.5502-43.2823C24.0603-36.8173 31.3866-37.5249 34.1775-40.2518C36.8713-43.105 37.0787-49.862 30.6469-56.3892C24.111-62.9165 17.2483-62.7382 14.4574-59.9096C11.7013-57.1187 11.0663-49.8838 17.5502-43.2823Z"/>
  </g>
  <g id="Regular-M" transform="matrix(1 0 0 1 1383.89 1126)">
   <path d="M85.0786-72.4591C91.0061-72.4591 95.7192-77.2239 95.7192-83.0996C95.7192-89.0166 91.0061-93.7296 85.0786-93.7296C79.2029-93.7296 74.4486-89.0166 74.4486-83.0996C74.4486-77.2239 79.2029-72.4591 85.0786-72.4591ZM32.1854-21.8882L60.2567-21.8882L86.2413-18.2133C95.9895-16.8225 103.028-21.0888 103.028-30.3491L103.028-47.9869C103.028-48.7969 103.952-49.1601 104.564-48.5476L109.34-43.71L109.34-26.9857C109.34-24.2136 111.727-21.8882 114.427-21.8882C117.188-21.8882 119.451-24.2136 119.451-26.9857L119.451-45.8484C119.451-47.198 118.963-48.4853 117.925-49.4094L105.603-61.6698C101.99-65.2825 97.2768-67.3692 92.117-67.3692L43.8957-67.3692C41.1447-67.3692 38.8194-65.0333 38.8194-62.2823C38.8194-59.5103 41.0824-57.2472 43.8957-57.2472L80.957-57.2472C82.3794-57.2472 83.4798-56.0845 83.4798-54.6726L83.4798-32.062L32.1854-32.062C29.3098-32.062 27.0468-29.7989 27.0468-26.9857C27.0468-24.2136 29.3722-21.8882 32.1854-21.8882ZM94.453 21.3085C96.4151 23.2706 99.6022 23.2706 101.564 21.3085C103.578 19.3982 103.516 16.2111 101.564 14.1973L85.3796-2.16377L91.1528-13.3259C89.4188-13.2012 87.5085-13.3153 85.5876-13.5645L78.6115-14.5403L74.3547-2.83857C73.6799-1.05283 74.1055 0.961018 75.5691 2.43523ZM17.4338-43.4713C23.7868-37.1594 30.9087-37.8342 33.5973-40.4711C36.1825-43.2221 36.3694-49.7726 30.1093-56.1468C23.7245-62.521 17.0599-62.3446 14.3713-59.6349C11.7238-56.9462 11.1113-49.8972 17.4338-43.4713Z"/>
  </g>
  <g id="Light-M" transform="matrix(1 0 0 1 1088.63 1126)">
   <path d="M83.1109-71.6549C88.8501-71.6549 93.4263-76.2657 93.4263-81.9703C93.4263-87.6819 88.8501-92.2581 83.1109-92.2581C77.4062-92.2581 72.8231-87.6819 72.8231-81.9703C72.8231-76.2657 77.4062-71.6549 83.1109-71.6549ZM31.6379-22.1278L58.9563-22.1278L84.2393-18.5555C93.7308-17.2331 100.564-21.3455 100.564-30.3662L100.564-47.5078C100.564-48.3177 101.471-48.6639 102.066-48.0685L106.705-43.3678L106.705-27.1055C106.705-24.3847 109.024-22.1278 111.655-22.1278C114.348-22.1278 116.542-24.3847 116.542-27.1055L116.542-45.4378C116.542-46.7532 116.072-48.0062 115.068-48.9131L103.07-60.8485C99.5601-64.3585 94.9839-66.3939 89.944-66.3939L43.0401-66.3939C40.3747-66.3939 38.1178-64.1093 38.1178-61.4439C38.1178-58.7232 40.3124-56.5285 43.0401-56.5285L79.0748-56.5285C80.4801-56.5285 81.5463-55.4001 81.5463-54.0224L81.5463-32.0278L31.6379-32.0278C28.8479-32.0278 26.6532-29.8332 26.6532-27.1055C26.6532-24.3847 28.9102-22.1278 31.6379-22.1278ZM92.2286 19.8883C94.1393 21.7991 97.2409 21.7991 99.1516 19.8883C101.097 18.0122 101.035 14.9107 99.1516 12.9653L83.3947-2.95087L89.1337-14.0274C87.4169-13.9028 85.5407-13.9997 83.637-14.249L76.8662-15.1905L72.6778-3.60856C72.0201-1.85705 72.4286 0.0883603 73.8409 1.52835ZM17.314-43.1462C23.4617-37.0054 30.4125-37.6631 33.0155-40.2316C35.5494-42.897 35.7363-49.2593 29.6302-55.4624C23.3994-61.6654 16.9402-61.5062 14.3371-58.8478C11.7409-56.2447 11.1456-49.3839 17.314-43.1462Z"/>
  </g>
  <g id="Thin-M" transform="matrix(1 0 0 1 793.844 1126)">
   <path d="M80.5083-70.5912C85.9987-70.5912 90.3938-74.9984 90.3938-80.4767C90.3938-85.9167 85.9987-90.3119 80.5083-90.3119C75.03-90.3119 70.6732-85.9167 70.6732-80.4767C70.6732-74.9984 75.03-70.5912 80.5083-70.5912ZM30.9137-22.4446L57.2364-22.4446L81.5916-19.0081C90.7436-17.7763 97.3051-21.685 97.3051-30.3889L97.3051-46.8741C97.3051-47.6841 98.1894-48.0076 98.7622-47.4349L103.22-42.9151L103.22-27.2639C103.22-24.611 105.448-22.4446 107.989-22.4446C110.591-22.4446 112.695-24.611 112.695-27.2639L112.695-44.8946C112.695-46.1648 112.247-47.3726 111.288-48.2568L99.7208-59.7622C96.3465-63.1364 91.9514-65.1039 87.0699-65.1039L41.9086-65.1039C39.3564-65.1039 37.19-62.8872 37.19-60.335C37.19-57.6821 39.2941-55.578 41.9086-55.578L76.5854-55.578C77.9681-55.578 78.989-54.4948 78.989-53.1624L78.989-31.9825L30.9137-31.9825C28.2368-31.9825 26.1327-29.8784 26.1327-27.2639C26.1327-24.611 28.2991-22.4446 30.9137-22.4446ZM89.2866 18.01C91.1294 19.8529 94.1178 19.8529 95.9607 18.01C97.8156 16.1791 97.7533 13.1908 95.9607 11.3359L80.7696-3.99188L86.4633-14.9553C84.7691-14.8306 82.9382-14.905 81.0571-15.1542L74.5579-16.0505L70.46-4.62694C69.8249-2.92068 70.2108-1.0658 71.5552 0.328927ZM17.1556-42.7162C23.0317-36.8018 29.7562-37.4368 32.2461-39.9148C34.712-42.467 34.8989-48.5804 28.9965-54.5571C22.9694-60.5339 16.7817-60.3973 14.2918-57.8068C11.7636-55.3168 11.1908-48.705 17.1556-42.7162Z"/>
  </g>
  <g id="Ultralight-M" transform="matrix(1 0 0 1 498.118 1126)">
   <path d="M79.1753-70.0464C84.5382-70.0464 88.8406-74.3493 88.8406-79.7117C88.8406-85.0126 84.5382-89.315 79.1753-89.315C73.8129-89.315 69.572-85.0126 69.572-79.7117C69.572-74.3493 73.8129-70.0464 79.1753-70.0464ZM30.5428-22.6069L56.3554-22.6069L80.2354-19.2399C89.2136-18.0545 95.636-21.8588 95.636-30.4005L95.636-46.5496C95.636-47.3595 96.5087-47.6715 97.0698-47.1103L101.435-42.6833L101.435-27.345C101.435-24.7269 103.617-22.6069 106.111-22.6069C108.667-22.6069 110.725-24.7269 110.725-27.345L110.725-44.6164C110.725-45.8634 110.288-47.048 109.353-47.9207L98.0053-59.2058C94.7006-62.5105 90.3982-64.4432 85.5978-64.4432L41.329-64.4432C38.8348-64.4432 36.7147-62.2613 36.7147-59.767C36.7147-57.1489 38.7725-55.0912 41.329-55.0912L75.3104-55.0912C76.6815-55.0912 77.6792-54.0312 77.6792-52.7219L77.6792-31.9593L30.5428-31.9593C27.9239-31.9593 25.8661-29.9016 25.8661-27.345C25.8661-24.7269 27.9862-22.6069 30.5428-22.6069ZM87.7797 17.0479C89.5878 18.856 92.5182 18.856 94.3263 17.0479C96.1348 15.2402 96.0725 12.3098 94.3263 10.5013L79.425-4.52508L85.0956-15.4305C83.4129-15.3059 81.6052-15.3686 79.7357-15.6178L73.3755-16.4909L69.3241-5.14854C68.7006-3.46547 69.0748-1.65696 70.3845-0.285411ZM17.0744-42.496C22.8115-36.6974 29.42-37.3209 31.852-39.7525C34.2831-42.2468 34.4701-48.2326 28.6719-54.0935C22.7492-59.9543 16.7006-59.8293 14.2686-57.2736C11.7752-54.8416 11.214-48.3573 17.0744-42.496Z"/>
  </g>
  <g id="Black-S" transform="matrix(1 0 0 1 2878.08 696)">
   <path d="M71.2891-66.2598C76.6602-66.2598 81.0547-70.6543 81.0547-76.0254C81.0547-81.3965 76.6602-85.791 71.2891-85.791C65.918-85.791 61.5234-81.3965 61.5234-76.0254C61.5234-70.6543 65.918-66.2598 71.2891-66.2598ZM27.1973-22.5098L50.5371-22.5098L72.0703-19.4824C80.7129-18.2617 87.1582-22.168 87.1582-30.5664L87.1582-44.0918C87.1582-44.3359 87.3535-44.4336 87.5488-44.2383L90.4785-41.2598L90.4785-27.7832C90.4785-24.9023 92.9199-22.5098 95.7031-22.5098C98.584-22.5098 100.879-24.9023 100.879-27.7832L100.879-43.457C100.879-44.8242 100.391-46.1426 99.3164-47.168L89.0625-57.3242C85.8398-60.498 81.6895-62.3535 77.0996-62.3535L36.9629-62.3535C34.1309-62.3535 31.7383-59.9609 31.7383-57.1777C31.7383-54.2969 34.082-51.9531 36.9629-51.9531L67.8223-51.9531C68.6523-51.9531 68.9941-51.6113 68.9941-50.8301L68.9941-32.959L27.1973-32.959C24.2676-32.959 21.9238-30.6152 21.9238-27.7832C21.9238-24.9023 24.3164-22.5098 27.1973-22.5098ZM78.418 13.1836C80.4199 15.1855 83.6914 15.2344 85.6445 13.1836C87.7441 11.2305 87.6465 7.95898 85.6445 5.9082L72.7051-7.22656L76.416-14.4043C74.8047-14.3066 73.0957-14.4043 71.3867-14.6484L64.209-15.625L61.4258-8.00781C60.7422-6.10352 61.1328-4.05273 62.6465-2.53906ZM14.209-40.7715C19.9219-35.1074 26.4648-35.791 29.0527-38.2812C31.5918-40.918 31.8359-47.0215 26.123-52.7344C20.4102-58.4473 14.2578-58.3008 11.6699-55.6152C9.08203-53.0273 8.49609-46.6309 14.209-40.7715Z"/>
  </g>
  <g id="Heavy-S" transform="matrix(1 0 0 1 2582.06 696)">
   <path d="M70.4247-65.914C75.646-65.914 79.8907-70.1703 79.8907-75.38C79.8907-80.6013 75.646-84.846 70.4247-84.846C65.215-84.846 60.9587-80.6013 60.9587-75.38C60.9587-70.1703 65.215-65.914 70.4247-65.914ZM26.7939-23.0168L49.9033-23.0168L71.2406-20.0125C79.6757-18.8149 85.9251-22.6059 85.9251-30.7623L85.9251-44.4145C85.9251-44.7508 86.2472-44.8946 86.5116-44.6301L89.6488-41.4442L89.6488-28.0022C89.6488-25.2827 91.9634-23.0168 94.5968-23.0168C97.3163-23.0168 99.496-25.2827 99.496-28.0022L99.496-43.5262C99.496-44.8242 99.0307-46.0734 98.0141-47.0297L87.864-57.0937C84.722-60.1984 80.6638-62.0078 76.1892-62.0078L36.4558-62.0078C33.7736-62.0078 31.5078-59.742 31.5078-57.0971C31.5078-54.3775 33.7248-52.1606 36.4558-52.1606L67.004-52.1606C67.9033-52.1606 68.3718-51.6805 68.3718-50.8186L68.3718-32.9129L26.7939-32.9129C24.014-32.9129 21.7971-30.6959 21.7971-28.0022C21.7971-25.2827 24.0629-23.0168 26.7939-23.0168ZM77.6343 12.3769C79.5325 14.2751 82.6312 14.3124 84.4921 12.3769C86.4764 10.5275 86.3903 7.42886 84.4921 5.4818L71.5642-7.62992L75.471-15.188C73.9173-15.0903 72.2544-15.188 70.5915-15.4206L63.7941-16.351L60.8726-8.35355C60.2236-6.56449 60.6027-4.61743 62.0357-3.18443ZM14.0937-41.025C19.6568-35.5108 25.9923-36.1598 28.4765-38.5578C30.9003-41.0908 31.1214-46.9869 25.5814-52.55C20.0183-58.1131 14.0619-57.9666 11.5777-55.4078C9.10508-52.9236 8.54219-46.7115 14.0937-41.025Z"/>
  </g>
  <g id="Bold-S" transform="matrix(1 0 0 1 2286.12 696)">
   <path d="M69.458-65.5273C74.5117-65.5273 78.5889-69.6289 78.5889-74.6582C78.5889-79.7119 74.5117-83.7891 69.458-83.7891C64.4287-83.7891 60.3271-79.7119 60.3271-74.6582C60.3271-69.6289 64.4287-65.5273 69.458-65.5273ZM26.3428-23.584L49.1943-23.584L70.3125-20.6055C78.5156-19.4336 84.5459-23.0957 84.5459-30.9814L84.5459-44.7754C84.5459-45.2148 85.0098-45.4102 85.3516-45.0684L88.7207-41.6504L88.7207-28.2471C88.7207-25.708 90.8936-23.584 93.3594-23.584C95.8984-23.584 97.9492-25.708 97.9492-28.2471L97.9492-43.6035C97.9492-44.8242 97.5098-45.9961 96.5576-46.875L86.5234-56.8359C83.4717-59.8633 79.5166-61.6211 75.1709-61.6211L35.8887-61.6211C33.374-61.6211 31.25-59.4971 31.25-57.0068C31.25-54.4678 33.3252-52.3926 35.8887-52.3926L66.0889-52.3926C67.0654-52.3926 67.6758-51.7578 67.6758-50.8057L67.6758-32.8613L26.3428-32.8613C23.7305-32.8613 21.6553-30.7861 21.6553-28.2471C21.6553-25.708 23.7793-23.584 26.3428-23.584ZM76.7578 11.4746C78.54 13.2568 81.4453 13.2812 83.2031 11.4746C85.0586 9.74121 84.9854 6.83594 83.2031 5.00488L70.2881-8.08105L74.4141-16.0645C72.9248-15.9668 71.3135-16.0645 69.7021-16.2842L63.3301-17.1631L60.2539-8.74023C59.6436-7.08008 60.0098-5.24902 61.3525-3.90625ZM13.9648-41.3086C19.3604-35.9619 25.4639-36.5723 27.832-38.8672C30.127-41.2842 30.3223-46.9482 24.9756-52.3438C19.5801-57.7393 13.8428-57.5928 11.4746-55.1758C9.13086-52.8076 8.59375-46.8018 13.9648-41.3086Z"/>
  </g>
  <g id="Semibold-S" transform="matrix(1 0 0 1 1989.94 696)">
   <path d="M68.7915-65.2607C73.7297-65.2607 77.6913-69.2557 77.6913-74.1605C77.6913-79.0987 73.7297-83.0604 68.7915-83.0604C63.8866-83.0604 59.8917-79.0987 59.8917-74.1605C59.8917-69.2557 63.8866-65.2607 68.7915-65.2607ZM26.0317-23.975L48.7056-23.975L69.6727-21.0143C77.7158-19.8602 83.595-23.4334 83.595-31.1325L83.595-45.0242C83.595-45.5348 84.1566-45.7656 84.5518-45.3705L88.0809-41.7926L88.0809-28.4159C88.0809-26.0013 90.156-23.975 92.5062-23.975C94.9209-23.975 96.8828-26.0013 96.8828-28.4159L96.8828-43.6568C96.8828-44.8242 96.4611-45.9428 95.5534-46.7684L85.5992-56.6582C82.6097-59.6322 78.7257-61.3545 74.4688-61.3545L35.4977-61.3545C33.0985-61.3545 31.0723-59.3282 31.0723-56.9446C31.0723-54.53 33.0497-52.5525 35.4977-52.5525L65.4579-52.5525C66.4878-52.5525 67.1959-51.8111 67.1959-50.7968L67.1959-32.8258L26.0317-32.8258C23.535-32.8258 21.5575-30.8483 21.5575-28.4159C21.5575-26.0013 23.5838-23.975 26.0317-23.975ZM76.1535 10.8525C77.8558 12.5548 80.6277 12.5703 82.3145 10.8525C84.0811 9.19912 84.0167 6.42715 82.3145 4.67607L69.4083-8.39209L73.6854-16.6687C72.2405-16.5711 70.6647-16.6687 69.089-16.8796L63.0102-17.7229L59.8273-9.00684C59.2437-7.43555 59.601-5.68447 60.8815-4.40391ZM13.876-41.5041C19.156-36.2729 25.0995-36.8566 27.3877-39.0805C29.5938-41.4175 29.7713-46.9216 24.5579-52.2016C19.2779-57.4815 13.6917-57.3351 11.4035-55.0158C9.14863-52.7276 8.6293-46.864 13.876-41.5041Z"/>
  </g>
  <g id="Medium-S" transform="matrix(1 0 0 1 1693.64 696)">
   <path d="M68.2861-65.0586C73.1367-65.0586 77.0107-68.9727 77.0107-73.7832C77.0107-78.6338 73.1367-82.5078 68.2861-82.5078C63.4756-82.5078 59.5615-78.6338 59.5615-73.7832C59.5615-68.9727 63.4756-65.0586 68.2861-65.0586ZM25.7959-24.2715L48.335-24.2715L69.1875-21.3242C77.1094-20.1836 82.874-23.6895 82.874-31.2471L82.874-45.2129C82.874-45.7773 83.5098-46.0352 83.9453-45.5996L87.5957-41.9004L87.5957-28.5439C87.5957-26.2236 89.5967-24.2715 91.8594-24.2715C94.1797-24.2715 96.0742-26.2236 96.0742-28.5439L96.0742-43.6973C96.0742-44.8242 95.666-45.9023 94.792-46.6875L84.8984-56.5234C81.9561-59.457 78.126-61.1523 73.9365-61.1523L35.2012-61.1523C32.8896-61.1523 30.9375-59.2002 30.9375-56.8975C30.9375-54.5771 32.8408-52.6738 35.2012-52.6738L64.9795-52.6738C66.0498-52.6738 66.832-51.8516 66.832-50.79L66.832-32.7988L25.7959-32.7988C23.3867-32.7988 21.4834-30.8955 21.4834-28.5439C21.4834-26.2236 23.4355-24.2715 25.7959-24.2715ZM75.6953 10.3809C77.3369 12.0225 80.0078 12.0312 81.6406 10.3809C83.3398 8.78809 83.2822 6.11719 81.6406 4.42676L68.7412-8.62793L73.1328-17.127C71.7217-17.0293 70.1729-17.127 68.624-17.3311L62.7676-18.1475L59.5039-9.20898C58.9404-7.70508 59.291-6.01465 60.5244-4.78125ZM13.8086-41.6523C19.001-36.5088 24.8232-37.0723 27.0508-39.2422C29.1895-41.5186 29.3535-46.9014 24.2412-52.0938C19.0488-57.2861 13.5771-57.1396 11.3496-54.8945C9.16211-52.667 8.65625-46.9111 13.8086-41.6523Z"/>
  </g>
  <g id="Regular-S" transform="matrix(1 0 0 1 1397.45 696)">
   <path d="M67.627-64.7949C72.3633-64.7949 76.123-68.6035 76.123-73.291C76.123-78.0273 72.3633-81.7871 67.627-81.7871C62.9395-81.7871 59.1309-78.0273 59.1309-73.291C59.1309-68.6035 62.9395-64.7949 67.627-64.7949ZM25.4883-24.6582L47.8516-24.6582L68.5547-21.7285C76.3184-20.6055 81.9336-24.0234 81.9336-31.3965L81.9336-45.459C81.9336-46.0938 82.666-46.3867 83.1543-45.8984L86.9629-42.041L86.9629-28.7109C86.9629-26.5137 88.8672-24.6582 91.0156-24.6582C93.2129-24.6582 95.0195-26.5137 95.0195-28.7109L95.0195-43.75C95.0195-44.8242 94.6289-45.8496 93.7988-46.582L83.9844-56.3477C81.1035-59.2285 77.3438-60.8887 73.2422-60.8887L34.8145-60.8887C32.6172-60.8887 30.7617-59.0332 30.7617-56.8359C30.7617-54.6387 32.5684-52.832 34.8145-52.832L64.3555-52.832C65.4785-52.832 66.3574-51.9043 66.3574-50.7812L66.3574-32.7637L25.4883-32.7637C23.1934-32.7637 21.3867-30.957 21.3867-28.7109C21.3867-26.5137 23.2422-24.6582 25.4883-24.6582ZM75.0977 9.76562C76.6602 11.3281 79.1992 11.3281 80.7617 9.76562C82.373 8.25195 82.3242 5.71289 80.7617 4.10156L67.8711-8.93555L72.4121-17.7246C71.0449-17.627 69.5312-17.7246 68.0176-17.9199L62.4512-18.7012L59.082-9.47266C58.5449-8.05664 58.8867-6.44531 60.0586-5.27344ZM13.7207-41.8457C18.7988-36.8164 24.4629-37.3535 26.6113-39.4531C28.6621-41.6504 28.8086-46.875 23.8281-51.9531C18.75-57.0312 13.4277-56.8848 11.2793-54.7363C9.17969-52.5879 8.69141-46.9727 13.7207-41.8457Z"/>
  </g>
  <g id="Light-S" transform="matrix(1 0 0 1 1102.03 696)">
   <path d="M65.8862-64.0835C70.4561-64.0835 74.0947-67.7559 74.0947-72.292C74.0947-76.8467 70.4561-80.4854 65.8862-80.4854C61.3501-80.4854 57.6929-76.8467 57.6929-72.292C57.6929-67.7559 61.3501-64.0835 65.8862-64.0835ZM25.0039-24.8701L46.7012-24.8701L66.7837-22.0312C74.3203-20.9687 79.7539-24.2505 79.7539-31.4116L79.7539-45.0352C79.7539-45.6699 80.4712-45.9478 80.9444-45.4746L84.6319-41.7383L84.6319-28.8169C84.6319-26.665 86.4756-24.8701 88.5635-24.8701C90.7002-24.8701 92.4463-26.665 92.4463-28.8169L92.4463-43.3867C92.4463-44.4307 92.0708-45.4258 91.271-46.1431L81.7442-55.6211C78.9541-58.4111 75.3154-60.0259 71.3198-60.0259L34.0576-60.0259C31.936-60.0259 30.1411-58.2158 30.1411-56.0942C30.1411-53.9424 31.8872-52.1963 34.0576-52.1963L62.6904-52.1963C63.7984-52.1963 64.647-51.2988 64.647-50.2061L64.647-32.7334L25.0039-32.7334C22.7847-32.7334 21.0386-30.9873 21.0386-28.8169C21.0386-26.665 22.8335-24.8701 25.0039-24.8701ZM73.1299 8.50929C74.647 10.0264 77.1104 10.0264 78.6275 8.50929C80.1782 7.02589 80.1294 4.56251 78.6275 3.01173L66.1152-9.63183L70.626-18.3452C69.2739-18.2476 67.7905-18.3301 66.292-18.5254L60.9072-19.2764L57.5986-10.1538C57.0767-8.76806 57.4033-7.21728 58.5298-6.07568ZM13.6147-41.5581C18.5112-36.6802 24.0239-37.2021 26.0967-39.2412C28.1021-41.3628 28.2485-46.4209 23.4043-51.3477C18.4624-56.2744 13.3218-56.1431 11.249-54.04C9.19482-51.9673 8.72168-46.5186 13.6147-41.5581Z"/>
  </g>
  <g id="Thin-S" transform="matrix(1 0 0 1 807.018 696)">
   <path d="M63.584-63.1426C67.9336-63.1426 71.4121-66.6348 71.4121-70.9707C71.4121-75.2852 67.9336-78.7637 63.584-78.7637C59.2481-78.7637 55.791-75.2852 55.791-70.9707C55.791-66.6348 59.2481-63.1426 63.584-63.1426ZM24.3633-25.1504L45.1797-25.1504L64.4414-22.4316C71.6778-21.4492 76.8711-24.5508 76.8711-31.4316L76.8711-44.4746C76.8711-45.1094 77.5684-45.3672 78.0215-44.9141L81.5489-41.3379L81.5489-28.957C81.5489-26.8652 83.3125-25.1504 85.3204-25.1504C87.377-25.1504 89.043-26.8652 89.043-28.957L89.043-42.9063C89.043-43.9102 88.6875-44.8652 87.9278-45.5625L78.7813-54.6602C76.1114-57.3301 72.6328-58.8848 68.7774-58.8848L33.0567-58.8848C31.0352-58.8848 29.3203-57.1348 29.3203-55.1133C29.3203-53.0215 30.9863-51.3555 33.0567-51.3555L60.4883-51.3555C61.5762-51.3555 62.3848-50.4981 62.3848-49.4453L62.3848-32.6934L24.3633-32.6934C22.2441-32.6934 20.5781-31.0273 20.5781-28.957C20.5781-26.8652 22.293-25.1504 24.3633-25.1504ZM70.5274 6.84768C71.9844 8.30471 74.3477 8.30471 75.8047 6.84768C77.2754 5.40432 77.2266 3.04104 75.8047 1.57033L63.793-10.5527L68.2637-19.166C66.9317-19.0683 65.4883-19.1308 64.0098-19.3262L58.8653-20.0371L55.6367-11.0547C55.1348-9.70897 55.4414-8.23827 56.5078-7.1367ZM13.4746-41.1777C18.1309-36.5 23.4434-37.002 25.416-38.9609C27.3613-40.9824 27.5078-45.8203 22.8438-50.5469C18.082-55.2735 13.1816-55.1621 11.209-53.1192C9.21484-51.1465 8.76172-45.918 13.4746-41.1777Z"/>
  </g>
  <g id="Ultralight-S" transform="matrix(1 0 0 1 511.178 696)">
   <path d="M62.4048-62.6607C66.6416-62.6607 70.0381-66.0606 70.0381-70.294C70.0381-74.4854 66.6416-77.8819 62.4048-77.8819C58.1714-77.8819 54.8169-74.4854 54.8169-70.294C54.8169-66.0606 58.1714-62.6607 62.4048-62.6607ZM24.0352-25.2939L44.4004-25.2939L63.2417-22.6367C70.3243-21.6953 75.3946-24.7046 75.3946-31.4419L75.3946-44.1875C75.3946-44.8223 76.0816-45.0698 76.5245-44.627L79.9698-41.1328L79.9698-29.0288C79.9698-26.9678 81.6924-25.2939 83.6592-25.2939C85.6749-25.2939 87.2999-26.9678 87.2999-29.0288L87.2999-42.6602C87.2999-43.6436 86.9547-44.5781 86.2154-45.2651L77.2637-54.168C74.6553-56.7764 71.2588-58.3003 67.4751-58.3003L32.544-58.3003C30.5737-58.3003 28.8999-56.5811 28.8999-54.6109C28.8999-52.5498 30.5249-50.9248 32.544-50.9248L59.3604-50.9248C60.438-50.9248 61.2261-50.0879 61.2261-49.0557L61.2261-32.6729L24.0352-32.6729C21.9673-32.6729 20.3423-31.0479 20.3423-29.0288C20.3423-26.9678 22.0161-25.2939 24.0352-25.2939ZM69.1944 5.99661C70.6207 7.42288 72.9327 7.42288 74.3589 5.99661C75.7886 4.57376 75.7398 2.26175 74.3589 0.832057L62.6036-11.0244L67.0538-19.5864C65.732-19.4888 64.3091-19.541 62.8409-19.7363L57.8194-20.4267L54.6319-11.5161C54.1402-10.1909 54.4366-8.76121 55.4722-7.68016ZM13.4028-40.9829C17.936-36.4077 23.146-36.8994 25.0674-38.8174C26.9819-40.7876 27.1284-45.5127 22.5567-50.1367C17.8872-54.7608 13.1099-54.6597 11.1885-52.6475C9.2251-50.7261 8.78223-45.6104 13.4028-40.9829Z"/>
  </g>
 </g>
</svg>
