<?xml version="1.0" encoding="UTF-8"?>
<!--Generator: Apple Native CoreSVG 175.5-->
<!DOCTYPE svg
PUBLIC "-//W3C//DTD SVG 1.1//EN"
       "http://www.w3.org/Graphics/SVG/1.1/DTD/svg11.dtd">
<svg version="1.1" xmlns="http://www.w3.org/2000/svg" xmlns:xlink="http://www.w3.org/1999/xlink" width="3300" height="2200">
 <!--glyph: "uni100681.medium", point size: 100.0, font version: "18.0d12e2", template writer version: "101"-->
 <g id="Notes">
  <rect height="2200" id="artboard" style="fill:white;opacity:1" width="3300" x="0" y="0"/>
  <line style="fill:none;stroke:black;opacity:1;stroke-width:0.5;" x1="263" x2="3036" y1="292" y2="292"/>
  <text style="stroke:none;fill:black;font-family:sans-serif;font-size:13;font-weight:bold;" transform="matrix(1 0 0 1 263 322)">Weight/Scale Variations</text>
  <text style="stroke:none;fill:black;font-family:sans-serif;font-size:13;text-anchor:middle;" transform="matrix(1 0 0 1 559.711 322)">Ultralight</text>
  <text style="stroke:none;fill:black;font-family:sans-serif;font-size:13;text-anchor:middle;" transform="matrix(1 0 0 1 856.422 322)">Thin</text>
  <text style="stroke:none;fill:black;font-family:sans-serif;font-size:13;text-anchor:middle;" transform="matrix(1 0 0 1 1153.13 322)">Light</text>
  <text style="stroke:none;fill:black;font-family:sans-serif;font-size:13;text-anchor:middle;" transform="matrix(1 0 0 1 1449.84 322)">Regular</text>
  <text style="stroke:none;fill:black;font-family:sans-serif;font-size:13;text-anchor:middle;" transform="matrix(1 0 0 1 1746.56 322)">Medium</text>
  <text style="stroke:none;fill:black;font-family:sans-serif;font-size:13;text-anchor:middle;" transform="matrix(1 0 0 1 2043.27 322)">Semibold</text>
  <text style="stroke:none;fill:black;font-family:sans-serif;font-size:13;text-anchor:middle;" transform="matrix(1 0 0 1 2339.98 322)">Bold</text>
  <text style="stroke:none;fill:black;font-family:sans-serif;font-size:13;text-anchor:middle;" transform="matrix(1 0 0 1 2636.69 322)">Heavy</text>
  <text style="stroke:none;fill:black;font-family:sans-serif;font-size:13;text-anchor:middle;" transform="matrix(1 0 0 1 2933.4 322)">Black</text>
  <line style="fill:none;stroke:black;opacity:1;stroke-width:0.5;" x1="263" x2="3036" y1="1903" y2="1903"/>
  <g transform="matrix(1 0 0 1 263 1933)">
   <path d="M9.24805 0.830078C13.5547 0.830078 17.1387-2.74414 17.1387-7.05078C17.1387-11.3574 13.5449-14.9316 9.23828-14.9316C4.94141-14.9316 1.36719-11.3574 1.36719-7.05078C1.36719-2.74414 4.95117 0.830078 9.24805 0.830078ZM9.24805-0.654297C5.70312-0.654297 2.87109-3.49609 2.87109-7.05078C2.87109-10.6055 5.69336-13.4473 9.23828-13.4473C12.793-13.4473 15.6445-10.6055 15.6445-7.05078C15.6445-3.49609 12.8027-0.654297 9.24805-0.654297ZM5.6543-7.05078C5.6543-6.62109 5.95703-6.32812 6.40625-6.32812L8.50586-6.32812L8.50586-4.20898C8.50586-3.76953 8.79883-3.4668 9.22852-3.4668C9.67773-3.4668 9.9707-3.76953 9.9707-4.20898L9.9707-6.32812L12.0898-6.32812C12.5293-6.32812 12.832-6.62109 12.832-7.05078C12.832-7.49023 12.5293-7.79297 12.0898-7.79297L9.9707-7.79297L9.9707-9.90234C9.9707-10.3516 9.67773-10.6543 9.22852-10.6543C8.79883-10.6543 8.50586-10.3516 8.50586-9.90234L8.50586-7.79297L6.40625-7.79297C5.95703-7.79297 5.6543-7.49023 5.6543-7.05078Z"/>
  </g>
  <g transform="matrix(1 0 0 1 281.867 1933)">
   <path d="M11.709 2.91016C17.1582 2.91016 21.6699-1.61133 21.6699-7.05078C21.6699-12.5 17.1484-17.0117 11.6992-17.0117C6.25977-17.0117 1.74805-12.5 1.74805-7.05078C1.74805-1.61133 6.26953 2.91016 11.709 2.91016ZM11.709 1.25C7.09961 1.25 3.41797-2.44141 3.41797-7.05078C3.41797-11.6602 7.08984-15.3516 11.6992-15.3516C16.3086-15.3516 20.0098-11.6602 20.0098-7.05078C20.0098-2.44141 16.3184 1.25 11.709 1.25ZM7.17773-7.05078C7.17773-6.57227 7.50977-6.25 8.00781-6.25L10.8789-6.25L10.8789-3.36914C10.8789-2.88086 11.2109-2.53906 11.6895-2.53906C12.1777-2.53906 12.5195-2.87109 12.5195-3.36914L12.5195-6.25L15.4004-6.25C15.8887-6.25 16.2305-6.57227 16.2305-7.05078C16.2305-7.53906 15.8887-7.88086 15.4004-7.88086L12.5195-7.88086L12.5195-10.752C12.5195-11.25 12.1777-11.5918 11.6895-11.5918C11.2109-11.5918 10.8789-11.25 10.8789-10.752L10.8789-7.88086L8.00781-7.88086C7.50977-7.88086 7.17773-7.53906 7.17773-7.05078Z"/>
  </g>
  <g transform="matrix(1 0 0 1 305.646 1933)">
   <path d="M14.9707 5.66406C21.9336 5.66406 27.6953-0.0976562 27.6953-7.05078C27.6953-14.0137 21.9238-19.7754 14.9609-19.7754C8.00781-19.7754 2.25586-14.0137 2.25586-7.05078C2.25586-0.0976562 8.01758 5.66406 14.9707 5.66406ZM14.9707 3.84766C8.93555 3.84766 4.08203-1.01562 4.08203-7.05078C4.08203-13.0957 8.92578-17.9492 14.9609-17.9492C21.0059-17.9492 25.8691-13.0957 25.8691-7.05078C25.8691-1.01562 21.0156 3.84766 14.9707 3.84766ZM9.19922-7.05078C9.19922-6.5332 9.57031-6.17188 10.1172-6.17188L14.0625-6.17188L14.0625-2.2168C14.0625-1.67969 14.4336-1.29883 14.9512-1.29883C15.4883-1.29883 15.8594-1.66992 15.8594-2.2168L15.8594-6.17188L19.8145-6.17188C20.3516-6.17188 20.7324-6.5332 20.7324-7.05078C20.7324-7.59766 20.3613-7.96875 19.8145-7.96875L15.8594-7.96875L15.8594-11.9141C15.8594-12.4609 15.4883-12.8418 14.9512-12.8418C14.4336-12.8418 14.0625-12.4609 14.0625-11.9141L14.0625-7.96875L10.1172-7.96875C9.57031-7.96875 9.19922-7.59766 9.19922-7.05078Z"/>
  </g>
  <text style="stroke:none;fill:black;font-family:sans-serif;font-size:13;font-weight:bold;" transform="matrix(1 0 0 1 263 1953)">Design Variations</text>
  <text style="stroke:none;fill:black;font-family:sans-serif;font-size:13;" transform="matrix(1 0 0 1 263 1971)">Symbols are supported in up to nine weights and three scales.</text>
  <text style="stroke:none;fill:black;font-family:sans-serif;font-size:13;" transform="matrix(1 0 0 1 263 1989)">For optimal layout with text and other symbols, vertically align</text>
  <text style="stroke:none;fill:black;font-family:sans-serif;font-size:13;" transform="matrix(1 0 0 1 263 2007)">symbols with the adjacent text.</text>
  <line style="fill:none;stroke:#00AEEF;stroke-width:0.5;opacity:1.0;" x1="776" x2="776" y1="1919" y2="1933"/>
  <g transform="matrix(1 0 0 1 776 1933)">
   <path d="M3.31055 0.15625C3.82812 0.15625 4.08203-0.0390625 4.26758-0.585938L5.52734-4.0332L11.2891-4.0332L12.5488-0.585938C12.7344-0.0390625 12.9883 0.15625 13.4961 0.15625C14.0137 0.15625 14.3457-0.15625 14.3457-0.644531C14.3457-0.810547 14.3164-0.966797 14.2383-1.17188L9.6582-13.3691C9.43359-13.9648 9.0332-14.2676 8.4082-14.2676C7.80273-14.2676 7.39258-13.9746 7.17773-13.3789L2.59766-1.16211C2.51953-0.957031 2.49023-0.800781 2.49023-0.634766C2.49023-0.146484 2.80273 0.15625 3.31055 0.15625ZM6.00586-5.51758L8.37891-12.0898L8.42773-12.0898L10.8008-5.51758Z"/>
  </g>
  <line style="fill:none;stroke:#00AEEF;stroke-width:0.5;opacity:1.0;" x1="793.197" x2="793.197" y1="1919" y2="1933"/>
  <text style="stroke:none;fill:black;font-family:sans-serif;font-size:13;font-weight:bold;" transform="matrix(1 0 0 1 776 1953)">Margins</text>
  <text style="stroke:none;fill:black;font-family:sans-serif;font-size:13;" transform="matrix(1 0 0 1 776 1971)">Leading and trailing margins on the left and right side of each symbol</text>
  <text style="stroke:none;fill:black;font-family:sans-serif;font-size:13;" transform="matrix(1 0 0 1 776 1989)">can be adjusted by modifying the x-location of the margin guidelines.</text>
  <text style="stroke:none;fill:black;font-family:sans-serif;font-size:13;" transform="matrix(1 0 0 1 776 2007)">Modifications are automatically applied proportionally to all</text>
  <text style="stroke:none;fill:black;font-family:sans-serif;font-size:13;" transform="matrix(1 0 0 1 776 2025)">scales and weights.</text>
  <g transform="matrix(1 0 0 1 1289 1933)">
   <path d="M2.8418 1.86523L4.54102 3.57422C5.40039 4.44336 6.38672 4.38477 7.31445 3.35938L18.0078-8.42773L17.041-9.4043L6.42578 2.27539C6.07422 2.67578 5.74219 2.77344 5.27344 2.30469L4.10156 1.14258C3.63281 0.683594 3.74023 0.341797 4.14062-0.0195312L15.6152-10.8203L14.6387-11.7871L3.04688-0.898438C2.06055 0.0195312 1.98242 0.996094 2.8418 1.86523ZM9.25781-16.3281C8.83789-15.918 8.80859-15.3418 9.04297-14.9512C9.27734-14.5898 9.73633-14.3555 10.3809-14.5215C11.8457-14.8633 13.3691-14.9219 14.7949-13.9844L14.209-12.5293C13.8672-11.6992 14.043-11.1133 14.5801-10.5664L16.875-8.25195C17.3633-7.76367 17.7734-7.74414 18.3398-7.8418L19.4043-8.03711L20.0684-7.36328L20.0293-6.80664C19.9902-6.30859 20.1172-5.92773 20.6055-5.44922L21.3672-4.70703C21.8457-4.22852 22.4609-4.19922 22.9297-4.66797L25.8398-7.58789C26.3086-8.05664 26.2891-8.65234 25.8105-9.13086L25.0391-9.89258C24.5605-10.3711 24.1895-10.5273 23.7109-10.4883L23.1348-10.4395L22.4902-11.0742L22.7344-12.1973C22.8613-12.7637 22.7051-13.2031 22.1191-13.7891L19.9219-15.9766C16.582-19.2969 12.1484-19.2188 9.25781-16.3281ZM10.752-15.957C13.1836-17.7344 16.4746-17.4316 18.7012-15.2051L21.1328-12.793C21.3672-12.5586 21.4062-12.373 21.3379-12.0312L21.0156-10.5469L22.5195-9.0625L23.5059-9.12109C23.7598-9.13086 23.8379-9.11133 24.0332-8.91602L24.6094-8.33984L22.168-5.89844L21.5918-6.47461C21.3965-6.66992 21.3672-6.74805 21.377-7.01172L21.4453-7.98828L19.9512-9.47266L18.4277-9.21875C18.1055-9.15039 17.959-9.17969 17.7148-9.41406L15.7129-11.416C15.459-11.6504 15.4297-11.8164 15.5859-12.1875L16.4648-14.2773C14.9023-15.7324 12.8711-16.3574 10.8398-15.7617C10.6836-15.7227 10.625-15.8496 10.752-15.957Z"/>
  </g>
  <text style="stroke:none;fill:black;font-family:sans-serif;font-size:13;font-weight:bold;" transform="matrix(1 0 0 1 1289 1953)">Exporting</text>
  <text style="stroke:none;fill:black;font-family:sans-serif;font-size:13;" transform="matrix(1 0 0 1 1289 1971)">Symbols should be outlined when exporting to ensure the</text>
  <text style="stroke:none;fill:black;font-family:sans-serif;font-size:13;" transform="matrix(1 0 0 1 1289 1989)">design is preserved when submitting to Xcode.</text>
  <text id="template-version" style="stroke:none;fill:black;font-family:sans-serif;font-size:13;text-anchor:end;" transform="matrix(1 0 0 1 3036 1933)">Template v.4.0</text>
  <text style="stroke:none;fill:black;font-family:sans-serif;font-size:13;text-anchor:end;" transform="matrix(1 0 0 1 3036 1951)">Requires Xcode 14 or greater</text>
  <text id="descriptive-name" style="stroke:none;fill:black;font-family:sans-serif;font-size:13;text-anchor:end;" transform="matrix(1 0 0 1 3036 1969)">Generated from arrow.clockwise.circle</text>
  <text style="stroke:none;fill:black;font-family:sans-serif;font-size:13;text-anchor:end;" transform="matrix(1 0 0 1 3036 1987)">Typeset at 100 points</text>
  <text style="stroke:none;fill:black;font-family:sans-serif;font-size:13;" transform="matrix(1 0 0 1 263 726)">Small</text>
  <text style="stroke:none;fill:black;font-family:sans-serif;font-size:13;" transform="matrix(1 0 0 1 263 1156)">Medium</text>
  <text style="stroke:none;fill:black;font-family:sans-serif;font-size:13;" transform="matrix(1 0 0 1 263 1586)">Large</text>
 </g>
 <g id="Guides">
  <g id="H-reference" style="fill:#27AAE1;stroke:none;" transform="matrix(1 0 0 1 339 696)">
   <path d="M0.993654 0L3.63775 0L29.3281-67.1323L30.0303-67.1323L30.0303-70.459L28.1226-70.459ZM11.6885-24.4799L46.9815-24.4799L46.2315-26.7285L12.4385-26.7285ZM55.1196 0L57.7637 0L30.6382-70.459L29.4326-70.459L29.4326-67.1323Z"/>
  </g>
  <line id="Baseline-S" style="fill:none;stroke:#27AAE1;opacity:1;stroke-width:0.5;" x1="263" x2="3036" y1="696" y2="696"/>
  <line id="Capline-S" style="fill:none;stroke:#27AAE1;opacity:1;stroke-width:0.5;" x1="263" x2="3036" y1="625.541" y2="625.541"/>
  <g id="H-reference" style="fill:#27AAE1;stroke:none;" transform="matrix(1 0 0 1 339 1126)">
   <path d="M0.993654 0L3.63775 0L29.3281-67.1323L30.0303-67.1323L30.0303-70.459L28.1226-70.459ZM11.6885-24.4799L46.9815-24.4799L46.2315-26.7285L12.4385-26.7285ZM55.1196 0L57.7637 0L30.6382-70.459L29.4326-70.459L29.4326-67.1323Z"/>
  </g>
  <line id="Baseline-M" style="fill:none;stroke:#27AAE1;opacity:1;stroke-width:0.5;" x1="263" x2="3036" y1="1126" y2="1126"/>
  <line id="Capline-M" style="fill:none;stroke:#27AAE1;opacity:1;stroke-width:0.5;" x1="263" x2="3036" y1="1055.54" y2="1055.54"/>
  <g id="H-reference" style="fill:#27AAE1;stroke:none;" transform="matrix(1 0 0 1 339 1556)">
   <path d="M0.993654 0L3.63775 0L29.3281-67.1323L30.0303-67.1323L30.0303-70.459L28.1226-70.459ZM11.6885-24.4799L46.9815-24.4799L46.2315-26.7285L12.4385-26.7285ZM55.1196 0L57.7637 0L30.6382-70.459L29.4326-70.459L29.4326-67.1323Z"/>
  </g>
  <line id="Baseline-L" style="fill:none;stroke:#27AAE1;opacity:1;stroke-width:0.5;" x1="263" x2="3036" y1="1556" y2="1556"/>
  <line id="Capline-L" style="fill:none;stroke:#27AAE1;opacity:1;stroke-width:0.5;" x1="263" x2="3036" y1="1485.54" y2="1485.54"/>
  <line id="left-margin-Regular-M" style="fill:none;stroke:#00AEEF;stroke-width:0.5;opacity:1.0;" x1="1391.32" x2="1391.32" y1="1030.79" y2="1150.12"/>
  <line id="right-margin-Regular-M" style="fill:none;stroke:#00AEEF;stroke-width:0.5;opacity:1.0;" x1="1508.37" x2="1508.37" y1="1030.79" y2="1150.12"/>
 </g>
 <g id="Symbols">
  <g id="Black-L" transform="matrix(1 0 0 1 2854.19 1556)">
   <path d="M79.1958 32.7257C116.56 32.7257 147.154 2.15259 147.154-35.2113C147.154-72.5752 116.539-103.148 79.175-103.148C41.8307-103.148 11.2588-72.5752 11.2588-35.2113C11.2588 2.15259 41.8515 32.7257 79.1958 32.7257ZM79.1958 12.5782C52.765 12.5782 31.4468-8.75969 31.4468-35.2113C31.4468-61.6629 52.7442-83.0007 79.175-83.0007C105.627-83.0007 126.985-61.6629 126.985-35.2113C126.985-8.75969 105.647 12.5782 79.1958 12.5782ZM51.7512-32.4914C51.7512-17.2847 64.0903-4.92471 79.175-4.92471C94.2816-4.92471 106.618-17.2847 106.618-32.4289C106.618-35.8158 103.864-38.5496 100.478-38.5496C97.0317-38.5496 94.277-35.8158 94.277-32.4289C94.277-24.0011 87.5432-17.3037 79.175-17.3037C70.768-17.3037 64.0718-24.0583 64.0718-32.4289C64.0718-39.045 68.1397-44.9599 73.6848-46.0112C74.1079-46.128 74.6251-46.2996 75.1323-46.5249L73.509-44.7472C73.0576-44.0622 72.8135-43.0043 72.8135-41.9232C72.8135-38.3455 75.3097-36.3738 78.5393-36.3738C80.0841-36.3738 81.6676-37.028 82.6387-38.0574L93.2822-48.7481C95.5407-50.9858 95.4639-54.7967 93.3406-56.9212L82.7227-67.666C81.6312-68.7378 80.1645-69.706 78.3629-69.706C74.7245-69.706 72.6955-67.0722 72.6955-64.4851C72.6955-62.7067 73.4837-61.7448 74.1247-60.8286L75.3489-59.4875C75.0437-59.4327 74.5765-59.3803 74.1861-59.3219C61.8165-57.6281 51.7512-46.0951 51.7512-32.4914Z"/>
  </g>
  <g id="Heavy-L" transform="matrix(1 0 0 1 2558.42 1556)">
   <path d="M78.2532 31.7694C115.056 31.7694 145.278 1.57794 145.278-35.2251C145.278-72.0281 115.026-102.22 78.2231-102.22C41.4446-102.22 11.2588-72.0281 11.2588-35.2251C11.2588 1.57794 41.4748 31.7694 78.2532 31.7694ZM78.2532 14.0275C51.0062 14.0275 29.0554-7.9479 29.0554-35.2251C29.0554-62.5023 50.9761-84.4777 78.2231-84.4777C105.5-84.4777 127.506-62.5023 127.506-35.2251C127.506-7.9479 105.53 14.0275 78.2532 14.0275ZM50.6891-32.4638C50.6891-17.1491 63.0491-4.75891 78.2231-4.75891C93.4328-4.75891 105.782-17.1491 105.782-32.3733C105.782-35.4837 103.235-38.0003 100.13-38.0003C96.9693-38.0003 94.4226-35.4837 94.4226-32.3733C94.4226-23.331 87.2151-16.1323 78.2231-16.1323C69.211-16.1323 62.0179-23.3701 62.0179-32.3733C62.0179-40.0266 67.203-46.6038 74.0285-47.407C74.5969-47.4963 75.2422-47.6133 75.8135-47.7525L73.0021-44.8374C72.4768-44.1336 72.1952-43.0973 72.1952-42.0195C72.1952-38.7965 74.4873-36.9004 77.4538-36.9004C78.8717-36.9004 80.3097-37.5 81.2085-38.4434L92.2524-49.5466C94.3201-51.5841 94.2565-55.1325 92.297-57.0976L81.3057-68.2521C80.3009-69.2324 78.9521-70.0909 77.3143-70.0909C74.0355-70.0909 72.1004-67.6794 72.1004-65.2037C72.1004-63.6073 72.8025-62.6301 73.4347-61.7591L75.5614-59.543C75.1822-59.5153 74.6366-59.4987 74.1546-59.4541C61.3548-58.16 50.6891-46.492 50.6891-32.4638Z"/>
  </g>
  <g id="Bold-L" transform="matrix(1 0 0 1 2262.89 1556)">
   <path d="M77.0704 30.5711C113.182 30.5711 142.92 0.870872 142.92-35.2405C142.92-71.3519 113.144-101.052 77.0324-101.052C40.9458-101.052 11.2588-71.3519 11.2588-35.2405C11.2588 0.870872 40.9838 30.5711 77.0704 30.5711ZM77.0704 15.8255C48.8167 15.8255 26.0672-6.94878 26.0672-35.2405C26.0672-63.5322 48.7787-86.3065 77.0324-86.3065C105.324-86.3065 128.136-63.5322 128.136-35.2405C128.136-6.94878 105.362 15.8255 77.0704 15.8255ZM49.4422-32.433C49.4422-17.0323 61.7881-4.64839 77.0324-4.64839C92.3279-4.64839 104.647-17.0323 104.647-32.319C104.647-35.0615 102.384-37.2867 99.655-37.2867C96.8701-37.2867 94.6069-35.0615 94.6069-32.319C94.6069-22.5012 86.8078-14.6801 77.0324-14.6801C67.2525-14.6801 59.4447-22.5172 59.4447-32.319C59.4447-41.2184 65.9384-48.5953 74.2873-49.121C75.1145-49.1794 75.9807-49.2273 76.6959-49.2515L72.3199-44.8258C71.7173-44.1065 71.4046-43.1157 71.4046-42.0604C71.4046-39.2903 73.4282-37.5163 76.0495-37.5163C77.2987-37.5163 78.5524-38.0467 79.3516-38.8751L90.9023-50.5229C92.7244-52.307 92.6837-55.5028 90.9315-57.2681L79.4717-68.9373C78.5744-69.8098 77.3791-70.5375 75.9487-70.5375C73.123-70.5375 71.3329-68.4175 71.3329-66.1174C71.3329-64.7514 71.9201-63.781 72.537-62.9713L75.9196-59.5302C75.3961-59.5407 74.6985-59.5776 74.0416-59.5484C60.7339-58.7015 49.4422-46.9092 49.4422-32.433Z"/>
  </g>
  <g id="Semibold-L" transform="matrix(1 0 0 1 1966.99 1556)">
   <path d="M76.2549 29.745C111.889 29.745 141.294 0.383422 141.294-35.2511C141.294-70.8857 111.846-100.247 76.2116-100.247C40.6019-100.247 11.2588-70.8857 11.2588-35.2511C11.2588 0.383422 40.6453 29.745 76.2549 29.745ZM76.2549 17.065C47.3072 17.065 24.0071-6.26 24.0071-35.2511C24.0071-64.2423 47.2638-87.5672 76.2116-87.5672C105.203-87.5672 128.571-64.2423 128.571-35.2511C128.571-6.26 105.246 17.065 76.2549 17.065ZM48.5826-32.4117C48.5826-16.9517 60.9187-4.57219 76.2116-4.57219C91.5663-4.57219 103.865-16.9517 103.865-32.2816C103.865-34.7704 101.798-36.7948 99.3275-36.7948C96.8017-36.7948 94.7339-34.7704 94.7339-32.2816C94.7339-21.9291 86.5271-13.679 76.2116-13.679C65.9024-13.679 57.6707-21.9292 57.6707-32.2816C57.6707-42.0399 65.0666-49.9683 74.4657-50.3026C75.4713-50.3398 76.4898-50.34 77.3043-50.2849L71.8496-44.8179C71.1938-44.0878 70.8595-43.1283 70.8595-42.0885C70.8595-39.6307 72.6981-37.9408 75.0814-37.9408C76.2143-37.9408 77.3409-38.4236 78.0715-39.1727L89.9716-51.1959C91.6244-52.8053 91.5994-55.758 89.9902-57.3857L78.2073-69.4096C77.3842-70.2079 76.2947-70.8454 75.0072-70.8454C72.4939-70.8454 70.8038-68.9263 70.8038-66.7473C70.8038-65.5401 71.3117-64.5744 71.9181-63.807L76.1666-59.5214C75.5435-59.5582 74.7411-59.6321 73.9637-59.6135C60.3059-59.0749 48.5826-47.1969 48.5826-32.4117Z"/>
  </g>
  <g id="Medium-L" transform="matrix(1 0 0 1 1670.9 1556)">
   <path d="M75.6366 29.1187C110.91 29.1187 140.062 0.0138167 140.062-35.2592C140.062-70.5322 110.862-99.637 75.5892-99.637C40.3412-99.637 11.2588-70.5322 11.2588-35.2592C11.2588 0.0138167 40.3886 29.1187 75.6366 29.1187ZM75.6366 18.0048C46.1626 18.0048 22.4451-5.73774 22.4451-35.2592C22.4451-64.7806 46.1152-88.5232 75.5892-88.5232C105.111-88.5232 128.901-64.7806 128.901-35.2592C128.901-5.73774 105.158 18.0048 75.6366 18.0048ZM47.9307-32.3956C47.9307-16.8906 60.2595-4.51442 75.5892-4.51442C90.9888-4.51442 103.273-16.8906 103.273-32.2533C103.273-34.5496 101.353-36.4218 99.0792-36.4218C96.7498-36.4218 94.8303-34.5496 94.8303-32.2533C94.8303-21.4953 86.3142-12.9198 75.5892-12.9198C64.8786-12.9198 56.3257-21.4833 56.3257-32.2533C56.3257-42.6629 64.4055-51.0093 74.601-51.1986C75.7418-51.2196 76.8758-51.1837 77.7656-51.0685L71.493-44.8118C70.7968-44.0736 70.4462-43.1379 70.4462-42.1099C70.4462-39.8889 72.1444-38.2627 74.3473-38.2627C75.3921-38.2627 76.4223-38.7094 77.1008-39.3984L89.2659-51.7063C90.7903-53.1832 90.7773-55.9515 89.2764-57.4749L77.2487-69.7678C76.4817-70.5097 75.4725-71.0788 74.2933-71.0788C72.0168-71.0788 70.4027-69.3121 70.4027-67.2249C70.4027-66.1381 70.8504-65.176 71.4489-64.4406L76.3538-59.5147C75.6553-59.5715 74.7735-59.6733 73.9047-59.6628C59.9813-59.3579 47.9307-47.415 47.9307-32.3956Z"/>
  </g>
  <g id="Regular-L" transform="matrix(1 0 0 1 1374.99 1556)">
   <path d="M74.8301 28.3017C109.632 28.3017 138.454-0.468277 138.454-35.2697C138.454-70.0711 109.579-98.8411 74.7774-98.8411C40.0011-98.8411 11.2588-70.0711 11.2588-35.2697C11.2588-0.468277 40.0538 28.3017 74.8301 28.3017ZM74.8301 19.2307C44.6697 19.2307 20.4076-5.05652 20.4076-35.2697C20.4076-65.4829 44.617-89.7701 74.7774-89.7701C104.991-89.7701 129.331-65.4829 129.331-35.2697C129.331-5.05652 105.043 19.2307 74.8301 19.2307ZM47.0806-32.3746C47.0806-16.811 59.3997-4.43906 74.7774-4.43906C90.2355-4.43906 102.499-16.811 102.499-32.2163C102.499-34.2617 100.773-35.9352 98.7553-35.9352C96.6822-35.9352 94.9559-34.2617 94.9559-32.2163C94.9559-20.9295 86.0366-11.9297 74.7774-11.9297C63.5433-11.9297 54.5712-20.9018 54.5712-32.2163C54.5712-43.4755 63.5433-52.3672 74.7774-52.3672C76.0947-52.3672 77.3793-52.2842 78.3673-52.0906L71.0279-44.804C70.279-44.0551 69.9071-43.1505 69.9071-42.1378C69.9071-40.2255 71.4223-38.6826 73.3898-38.6826C74.3196-38.6826 75.2242-39.0822 75.8348-39.6928L88.3454-52.3719C89.7023-53.6761 89.7049-56.204 88.3454-57.5911L75.9982-70.2349C75.3046-70.9034 74.4-71.3833 73.3622-71.3833C71.3946-71.3833 69.8794-69.8154 69.8794-67.8478C69.8794-66.9181 70.2488-65.9607 70.8368-65.2671L76.598-59.5059C75.8011-59.5889 74.8156-59.7272 73.8276-59.7272C59.558-59.7272 47.0806-47.6995 47.0806-32.3746Z"/>
  </g>
  <g id="Light-L" transform="matrix(1 0 0 1 1079.2 1556)">
   <path d="M73.9141 27.3856C108.257 27.3856 136.603-0.926323 136.603-35.2697C136.603-69.6131 108.224-97.925 73.8804-97.925C39.5239-97.925 11.2588-69.6131 11.2588-35.2697C11.2588-0.926323 39.5576 27.3856 73.9141 27.3856ZM73.9141 20.4903C43.0857 20.4903 18.1746-4.40762 18.1746-35.2697C18.1746-66.1318 43.052-91.0297 73.8804-91.0297C104.742-91.0297 129.674-66.1318 129.674-35.2697C129.674-4.40762 104.776 20.4903 73.9141 20.4903ZM46.6607-32.3746C46.6607-17.0591 58.7127-4.97345 73.8804-4.97345C89.1285-4.97345 101.087-17.0591 101.087-32.2736C101.087-33.8991 99.7233-35.2291 98.1445-35.2291C96.4723-35.2291 95.1086-33.8991 95.1086-32.2736C95.1086-20.3569 85.7503-10.9182 73.8804-10.9182C61.9974-10.9182 52.6054-20.3102 52.6054-32.2736C52.6054-44.1435 61.9974-53.455 73.8804-53.455C75.8848-53.455 77.7228-53.3148 79.2261-52.9876L70.2072-44.0024C69.4965-43.2917 69.2009-42.5397 69.2009-41.6606C69.2009-40.1492 70.4299-38.8735 72.0348-38.8735C72.7737-38.8735 73.5256-39.2158 74.0026-39.6928L86.9331-52.9635C88.061-54.0578 88.1208-56.1658 86.9331-57.4003L74.2233-70.4448C73.606-71.0751 72.8541-71.4979 71.988-71.4979C70.3831-71.4979 69.1542-70.2352 69.1542-68.6303C69.1542-67.8914 69.3899-67.1058 69.9398-66.4886L77.4569-58.9715C76.2209-59.1117 74.7775-59.3455 73.2742-59.3455C58.8137-59.3455 46.6607-47.5086 46.6607-32.3746Z"/>
  </g>
  <g id="Thin-L" transform="matrix(1 0 0 1 783.716 1556)">
   <path d="M72.7024 26.174C106.44 26.174 134.155-1.53213 134.155-35.2697C134.155-69.0073 106.432-96.7134 72.694-96.7134C38.8929-96.7134 11.2588-69.0073 11.2588-35.2697C11.2588-1.53213 38.9013 26.174 72.7024 26.174ZM72.7024 22.1563C40.9906 22.1563 15.2214-3.5494 15.2214-35.2697C15.2214-66.99 40.9821-92.6957 72.694-92.6957C104.414-92.6957 130.128-66.99 130.128-35.2697C130.128-3.5494 104.423 22.1563 72.7024 22.1563ZM46.1054-32.3746C46.1054-17.3872 57.8039-5.68022 72.694-5.68022C87.6645-5.68022 99.2191-17.3872 99.2191-32.3493C99.2191-33.4195 98.335-34.2951 97.3368-34.2951C96.1946-34.2951 95.3105-33.4195 95.3105-32.3493C95.3105-19.5996 85.3717-9.58034 72.694-9.58034C59.9528-9.58034 50.0055-19.5277 50.0055-32.3493C50.0055-45.0269 59.9528-54.8938 72.694-54.8938C75.6071-54.8938 78.1772-54.6779 80.362-54.174L69.1218-42.9422C68.4616-42.282 68.267-41.732 68.267-41.0296C68.267-40.0482 69.1173-39.1259 70.2426-39.1259C70.7291-39.1259 71.2791-39.3925 71.5794-39.6928L85.0652-53.746C85.8902-54.5626 86.0257-56.1153 85.0652-57.1479L71.8758-70.7225C71.3595-71.3023 70.8095-71.6493 70.1706-71.6493C69.0453-71.6493 68.195-70.7906 68.195-69.6652C68.195-69.1788 68.254-68.6203 68.7534-68.1041L78.5927-58.2648C76.7763-58.4807 74.727-58.8406 72.5422-58.8406C57.8293-58.8406 46.1054-47.2562 46.1054-32.3746Z"/>
  </g>
  <g id="Ultralight-L" transform="matrix(1 0 0 1 487.631 1556)">
   <path d="M72.0819 25.5534C105.509 25.5534 132.9-1.84242 132.9-35.2697C132.9-68.697 105.514-96.0928 72.0864-96.0928C38.5697-96.0928 11.2588-68.697 11.2588-35.2697C11.2588-1.84242 38.5652 25.5534 72.0819 25.5534ZM72.0819 23.0096C39.9175 23.0096 13.7087-3.10983 13.7087-35.2697C13.7087-67.4296 39.922-93.549 72.0864-93.549C104.246-93.549 130.361-67.4296 130.361-35.2697C130.361-3.10983 104.242 23.0096 72.0819 23.0096ZM45.8209-32.3746C45.8209-17.5553 57.3385-6.04222 72.0864-6.04222C86.9146-6.04222 98.2624-17.5553 98.2624-32.3881C98.2624-33.1738 97.624-33.8168 96.9231-33.8168C96.0524-33.8168 95.414-33.1738 95.414-32.3881C95.414-19.2118 85.1777-8.89512 72.0864-8.89512C58.9056-8.89512 48.6738-19.1269 48.6738-32.3881C48.6738-45.4794 58.9056-55.6308 72.0864-55.6308C75.4649-55.6308 78.4099-55.376 80.9438-54.7816L68.5659-42.3992C67.9315-41.7649 67.7886-41.3183 67.7886-40.7064C67.7886-39.9965 68.445-39.2552 69.3247-39.2552C69.6819-39.2552 70.1284-39.483 70.3382-39.6928L84.1085-54.1468C84.7783-54.8212 84.9527-56.0895 84.1085-57.0186L70.6734-70.8647C70.2089-71.4187 69.7623-71.7269 69.2398-71.7269C68.3601-71.7269 67.7037-71.075 67.7037-70.1953C67.7037-69.8381 67.6722-69.396 68.1458-68.9315L79.1745-57.9027C77.0607-58.1575 74.7011-58.582 72.1672-58.582C57.325-58.582 45.8209-47.1269 45.8209-32.3746Z"/>
  </g>
  <g id="Black-M" transform="matrix(1 0 0 1 2871.36 1126)">
   <path d="M62.0422 18.116C91.4096 18.116 115.367-5.83621 115.367-35.2035C115.367-64.5709 91.4041-88.5231 62.0367-88.5231C32.6752-88.5231 8.72266-64.5709 8.72266-35.2035C8.72266-5.83621 32.6807 18.116 62.0422 18.116ZM62.0422 0.73415C42.1762 0.73415 26.1158-15.332 26.1158-35.2035C26.1158-55.0751 42.1707-71.1412 62.0367-71.1412C81.9083-71.1412 97.9799-55.0751 97.9799-35.2035C97.9799-15.332 81.9138 0.73415 62.0422 0.73415ZM40.9497-33.1319C40.9497-21.477 50.4552-11.966 62.0367-11.966C73.6235-11.966 83.1296-21.477 83.1296-33.1154C83.1296-35.9199 80.8658-38.1782 78.061-38.1782C75.1997-38.1782 72.9359-35.9199 72.9359-33.1154C72.9359-27.0287 68.0666-22.2113 62.0367-22.2113C55.9555-22.2113 51.1379-27.0861 51.1379-33.1154C51.1379-37.4324 53.3862-41.5026 56.6697-42.5303C56.9658-42.6445 57.3314-42.8166 57.7391-43.047L57.275-42.4171C56.994-41.9077 56.8474-41.0903 56.8474-40.2679C56.8474-37.2457 58.9179-35.6893 61.597-35.6893C62.877-35.6893 64.2083-36.2353 65.0046-37.0887L72.9633-45.0968C74.8461-46.9741 74.7829-50.0953 73.0204-51.8576L65.066-59.8841C64.1564-60.788 62.9393-61.6246 61.426-61.6246C58.3472-61.6246 56.7335-59.4344 56.7335-57.3834C56.7335-55.875 57.4-55.1663 57.899-54.4279L58.3097-53.9031C58.0774-53.8451 57.7207-53.7866 57.4273-53.7295C48.1878-52.0737 40.9497-43.2805 40.9497-33.1319Z"/>
  </g>
  <g id="Heavy-M" transform="matrix(1 0 0 1 2575.48 1126)">
   <path d="M61.2053 17.2657C90.0667 17.2657 113.704-6.35571 113.704-35.217C113.704-64.0783 90.0502-87.6997 61.1889-87.6997C32.3418-87.6997 8.72266-64.0783 8.72266-35.217C8.72266-6.35571 32.3582 17.2657 61.2053 17.2657ZM61.2053 2.03478C40.603 2.03478 23.9841-14.5983 23.9841-35.217C23.9841-55.8358 40.5866-72.4688 61.1889-72.4688C81.8077-72.4688 98.4571-55.8358 98.4571-35.217C98.4571-14.5983 81.8241 2.03478 61.2053 2.03478ZM39.9502-33.1049C39.9502-21.3216 49.5007-11.7546 61.1889-11.7546C72.8958-11.7546 82.4418-21.3216 82.4418-33.0557C82.4418-35.6288 80.3479-37.7063 77.7771-37.7063C75.1581-37.7063 73.0641-35.6288 73.0641-33.0557C73.0641-26.4265 67.7722-21.1595 61.1889-21.1595C54.5761-21.1595 49.3115-26.4678 49.3115-33.0557C49.3115-38.3304 52.6132-43.0093 57.0885-43.7945C57.4632-43.8817 57.903-44.0057 58.3258-44.1643L56.8551-42.5792C56.4984-42.048 56.3081-41.2375 56.3081-40.4061C56.3081-37.6936 58.2055-36.1865 60.6609-36.1865C61.8344-36.1865 63.0375-36.6844 63.7755-37.466L72.0869-45.8228C73.8042-47.5238 73.7488-50.4271 72.1305-52.0476L63.8446-60.4377C63.0125-61.2557 61.8967-61.9903 60.5277-61.9903C57.767-61.9903 56.2186-59.9892 56.2186-58.0138C56.2186-56.6657 56.8133-55.9261 57.3072-55.2249L58.4382-54.0067C58.174-53.9699 57.783-53.9376 57.4475-53.894C47.8051-52.629 39.9502-43.6862 39.9502-33.1049Z"/>
  </g>
  <g id="Bold-M" transform="matrix(1 0 0 1 2279.69 1126)">
   <path d="M60.2692 16.3144C88.5644 16.3144 111.844-6.93686 111.844-35.2321C111.844-63.5273 88.5358-86.7786 60.2405-86.7786C31.9688-86.7786 8.72266-63.5273 8.72266-35.2321C8.72266-6.93686 31.9974 16.3144 60.2692 16.3144ZM60.2692 3.48972C38.8432 3.48972 21.5995-13.7775 21.5995-35.2321C21.5995-56.6867 38.8146-73.9539 60.2405-73.9539C81.6951-73.9539 98.991-56.6867 98.991-35.2321C98.991-13.7775 81.7238 3.48972 60.2692 3.48972ZM38.8321-33.0748C38.8321-21.1478 48.4331-11.5182 60.2405-11.5182C72.0818-11.5182 81.6725-21.1478 81.6725-32.9889C81.6725-35.3031 79.7685-37.1784 77.4594-37.1784C75.1115-37.1784 73.2076-35.3031 73.2076-32.9889C73.2076-25.7528 67.4429-19.9829 60.2405-19.9829C53.0331-19.9829 47.2683-25.7762 47.2683-32.9889C47.2683-39.3349 51.7484-44.6947 57.557-45.2086C58.0196-45.2657 58.5423-45.3359 58.982-45.4142L56.3855-42.7606C55.944-42.2049 55.7049-41.4022 55.7049-40.5607C55.7049-38.1947 57.4087-36.7427 59.6137-36.7427C60.6682-36.7427 61.7278-37.1868 62.4005-37.8881L71.1065-46.635C72.6388-48.1387 72.5919-50.7982 71.1351-52.2602L62.4782-61.0571C61.733-61.7788 60.7305-62.3994 59.5229-62.3994C57.118-62.3994 55.6426-60.6099 55.6426-58.7189C55.6426-57.5502 56.157-56.776 56.6452-56.1164L58.582-54.1225C58.2822-54.1094 57.8527-54.1065 57.47-54.078C47.377-53.2501 38.8321-44.1399 38.8321-33.0748Z"/>
  </g>
  <g id="Semibold-M" transform="matrix(1 0 0 1 1983.62 1126)">
   <path d="M59.6238 15.6586C87.5288 15.6586 110.562-7.33749 110.562-35.2425C110.562-63.1475 87.4917-86.1436 59.5867-86.1436C31.7117-86.1436 8.72266-63.1475 8.72266-35.2425C8.72266-7.33749 31.7487 15.6586 59.6238 15.6586ZM59.6238 4.49275C37.63 4.49275 19.9555-13.2117 19.9555-35.2425C19.9555-57.2733 37.5929-74.9777 59.5867-74.9777C81.6175-74.9777 99.359-57.2733 99.359-35.2425C99.359-13.2117 81.6546 4.49275 59.6238 4.49275ZM38.0613-33.054C38.0613-21.0279 47.697-11.3552 59.5867-11.3552C71.5206-11.3552 81.1421-21.0279 81.1421-32.9429C81.1421-35.0786 79.3691-36.8145 77.2405-36.8145C75.0794-36.8145 73.3065-35.0786 73.3065-32.9429C73.3065-25.2884 67.2159-19.1718 59.5867-19.1718C51.9693-19.1718 45.8598-25.2994 45.8598-32.9429C45.8598-40.0274 51.1522-45.8567 57.88-46.1835C58.4032-46.2198 58.9831-46.2529 59.4345-46.2758L56.0617-42.8856C55.5618-42.3131 55.289-41.5158 55.289-40.6673C55.289-38.5401 56.8593-37.1261 58.8918-37.1261C59.8642-37.1261 60.8249-37.5331 61.4527-38.179L70.4306-47.195C71.8353-48.5626 71.7943-51.054 70.4488-52.4067L61.5363-61.484C60.8509-62.1395 59.9265-62.6814 58.8302-62.6814C56.6706-62.6814 55.2456-61.0378 55.2456-59.205C55.2456-58.1599 55.7046-57.3619 56.1888-56.731L58.6811-54.2024C58.3567-54.2056 57.9007-54.2229 57.4856-54.2048C47.0819-53.6782 38.0613-44.4527 38.0613-33.054Z"/>
  </g>
  <g id="Medium-M" transform="matrix(1 0 0 1 1687.4 1126)">
   <path d="M59.1344 15.1614C86.7435 15.1614 109.59-7.64127 109.59-35.2504C109.59-62.8595 86.7001-85.6621 59.091-85.6621C31.5167-85.6621 8.72266-62.8595 8.72266-35.2504C8.72266-7.64127 31.5601 15.1614 59.1344 15.1614ZM59.1344 5.25329C36.7101 5.25329 18.709-12.7826 18.709-35.2504C18.709-57.7181 36.6666-75.754 59.091-75.754C81.5587-75.754 99.6381-57.7181 99.6381-35.2504C99.6381-12.7826 81.6021 5.25329 59.1344 5.25329ZM37.4769-33.0382C37.4769-20.937 47.1389-11.2316 59.091-11.2316C71.095-11.2316 80.7399-20.937 80.7399-32.908C80.7399-34.9084 79.0663-36.5386 77.0744-36.5386C75.0551-36.5386 73.3815-34.9084 73.3815-32.908C73.3815-24.9362 67.0438-18.5568 59.091-18.5568C51.1627-18.5568 44.7918-24.9379 44.7918-32.908C44.7918-40.5525 50.7002-46.7377 58.1249-46.9227C58.694-46.9432 59.3173-46.9483 59.7775-46.9292L55.8161-42.9804C55.272-42.3951 54.9737-41.6019 54.9737-40.7481C54.9737-38.802 56.4427-37.4168 58.3444-37.4168C59.2546-37.4168 60.1403-37.7957 60.7339-38.3996L69.9181-47.6195C71.2261-48.884 71.1896-51.248 69.9284-52.5178L60.822-61.8078C60.182-62.413 59.3169-62.8952 58.3049-62.8952C56.3314-62.8952 54.9445-61.3622 54.9445-59.5736C54.9445-58.6223 55.3615-57.8062 55.8428-57.197L58.7563-54.263C58.4133-54.2785 57.9371-54.3112 57.4974-54.3009C46.8581-54.0029 37.4769-44.6899 37.4769-33.0382Z"/>
  </g>
  <g id="Regular-M" transform="matrix(1 0 0 1 1391.32 1126)">
   <path d="M58.4961 14.5128C85.7192 14.5128 108.321-8.0375 108.321-35.2606C108.321-62.4838 85.6675-85.0341 58.4443-85.0341C31.2624-85.0341 8.72266-62.4838 8.72266-35.2606C8.72266-8.0375 31.3141 14.5128 58.4961 14.5128ZM58.4961 6.24529C35.5102 6.24529 17.0831-12.223 17.0831-35.2606C17.0831-58.2983 35.4584-76.7666 58.4443-76.7666C81.482-76.7666 100.002-58.2983 100.002-35.2606C100.002-12.223 81.5337 6.24529 58.4961 6.24529ZM36.7146-33.0177C36.7146-20.8185 46.411-11.0703 58.4443-11.0703C70.54-11.0703 80.2153-20.8185 80.2153-32.8624C80.2153-34.6863 78.6713-36.1787 76.8579-36.1787C75.0234-36.1787 73.4793-34.6863 73.4793-32.8624C73.4793-24.4769 66.8193-17.7546 58.4443-17.7546C50.1106-17.7546 43.3988-24.4664 43.3988-32.8624C43.3988-41.2374 50.1106-47.8869 58.4443-47.8869C59.0734-47.8869 59.7532-47.8552 60.225-47.7813L55.4959-43.104C54.894-42.5021 54.5623-41.7142 54.5623-40.8535C54.5623-39.1436 55.8994-37.796 57.6304-37.796C58.4594-37.796 59.2473-38.1382 59.7965-38.6874L69.2497-48.1733C70.4315-49.3033 70.4008-51.5011 69.2497-52.6628L59.8904-62.23C59.3096-62.7697 58.5217-63.1741 57.6198-63.1741C55.8888-63.1741 54.5518-61.7853 54.5518-60.0544C54.5518-59.2253 54.9141-58.3857 55.3914-57.8049L58.8543-54.342C58.487-54.3736 57.9846-54.4264 57.5128-54.4264C46.5662-54.4264 36.7146-44.9993 36.7146-33.0177Z"/>
  </g>
  <g id="Light-M" transform="matrix(1 0 0 1 1095.44 1126)">
   <path d="M57.6748 13.6915C84.4872 13.6915 106.662-8.44816 106.662-35.2606C106.662-62.0731 84.4526-84.2128 57.6401-84.2128C30.8346-84.2128 8.72266-62.0731 8.72266-35.2606C8.72266-8.44816 30.8693 13.6915 57.6748 13.6915ZM57.6748 7.37462C34.09 7.37462 15.0811-11.6412 15.0811-35.2606C15.0811-58.8801 34.0554-77.8959 57.6401-77.8959C81.2595-77.8959 100.31-58.8801 100.31-35.2606C100.31-11.6412 81.2942 7.37462 57.6748 7.37462ZM36.3381-33.0177C36.3381-21.041 45.795-11.5494 57.6401-11.5494C69.5476-11.5494 78.9491-21.041 78.9491-32.9137C78.9491-34.3612 77.7302-35.5455 76.3103-35.5455C74.8352-35.5455 73.6162-34.3612 73.6162-32.9137C73.6162-23.9636 66.5626-16.8477 57.6401-16.8477C48.7246-16.8477 41.6364-23.9359 41.6364-32.9137C41.6364-41.8362 48.7246-48.8622 57.6401-48.8622C58.8852-48.8622 60.0612-48.7792 60.995-48.5856L54.7601-42.3854C54.1924-41.8176 53.9292-41.1667 53.9292-40.4257C53.9292-39.0752 55.0096-37.9671 56.4155-37.9671C57.0734-37.9671 57.7244-38.258 58.1538-38.6874L67.9835-48.7037C68.9599-49.6455 68.9806-51.4668 67.9835-52.4916L58.2991-62.4182C57.7867-62.9237 57.1357-63.2768 56.3878-63.2768C54.982-63.2768 53.9016-62.1618 53.9016-60.7559C53.9016-60.098 54.1441-59.4124 54.5872-58.9L59.6243-53.8629C58.8634-53.9459 57.9503-54.0842 57.0166-54.0842C45.8989-54.0842 36.3381-44.8282 36.3381-33.0177Z"/>
  </g>
  <g id="Thin-M" transform="matrix(1 0 0 1 799.828 1126)">
   <path d="M56.5885 12.6052C82.8578 12.6052 104.466-8.9913 104.466-35.2606C104.466-61.53 82.8458-83.1265 56.5765-83.1265C30.2689-83.1265 8.72266-61.53 8.72266-35.2606C8.72266-8.9913 30.2809 12.6052 56.5885 12.6052ZM56.5885 8.86824C32.2117 8.86824 12.4333-10.8718 12.4333-35.2606C12.4333-59.6495 32.1996-79.3895 56.5765-79.3895C80.9653-79.3895 100.717-59.6495 100.717-35.2606C100.717-10.8718 80.9773 8.86824 56.5885 8.86824ZM35.8402-33.0177C35.8402-21.3352 44.9803-12.1831 56.5765-12.1831C68.235-12.1831 77.2744-21.3352 77.2744-32.9816C77.2744-33.9313 76.4855-34.7082 75.5861-34.7082C74.5862-34.7082 73.7973-33.9313 73.7973-32.9816C73.7973-23.2847 66.2232-15.6483 56.5765-15.6483C46.8915-15.6483 39.3054-23.2344 39.3054-32.9816C39.3054-42.6283 46.8915-50.1521 56.5765-50.1521C58.6362-50.1521 60.4685-50.0012 62.0134-49.6492L53.787-41.4349C53.2646-40.9124 53.0919-40.4425 53.0919-39.86C53.0919-38.9847 53.8328-38.1935 54.8087-38.1935C55.2404-38.1935 55.7103-38.4164 55.9813-38.6874L66.3088-49.4053C67.0137-50.0981 67.1023-51.4216 66.3088-52.2653L56.1945-62.6672C55.7726-63.1273 55.3027-63.4126 54.7584-63.4126C53.7825-63.4126 53.0416-62.6597 53.0416-61.6838C53.0416-61.2521 53.1257-60.7702 53.5236-60.3483L60.6427-53.2292C59.3613-53.3801 57.9051-53.6316 56.3603-53.6316C45.0163-53.6316 35.8402-44.6019 35.8402-33.0177Z"/>
  </g>
  <g id="Ultralight-M" transform="matrix(1 0 0 1 503.679 1126)">
   <path d="M56.0321 12.0488C82.0233 12.0488 103.342-9.26949 103.342-35.2606C103.342-61.2518 82.0228-82.5701 56.0317-82.5701C29.9791-82.5701 8.72266-61.2518 8.72266-35.2606C8.72266-9.26949 29.9795 12.0488 56.0321 12.0488ZM56.0321 9.63326C31.2496 9.63326 11.0772-10.4777 11.0772-35.2606C11.0772-60.0436 31.2492-80.1545 56.0317-80.1545C80.8147-80.1545 100.926-60.0436 100.926-35.2606C100.926-10.4777 80.8151 9.63326 56.0321 9.63326ZM35.5852-33.0177C35.5852-21.4858 44.563-12.5077 56.0317-12.5077C67.5627-12.5077 76.4167-21.4858 76.4167-33.0164C76.4167-33.711 75.848-34.2793 75.2152-34.2793C74.4587-34.2793 73.89-33.711 73.89-33.0164C73.89-22.9369 66.0493-15.0339 56.0317-15.0339C45.9526-15.0339 38.1115-22.8751 38.1115-33.0164C38.1115-43.034 45.9526-50.8128 56.0317-50.8128C58.5087-50.8128 60.6772-50.6272 62.535-50.194L53.2886-40.948C52.7893-40.4488 52.663-40.0716 52.663-39.5702C52.663-38.9383 53.2301-38.3094 53.9857-38.3094C54.3015-38.3094 54.6787-38.4975 54.8685-38.6874L65.4511-49.7646C66.0169-50.33 66.1402-51.3984 65.4511-52.1494L55.1165-62.7947C54.741-63.2317 54.3638-63.4821 53.9239-63.4821C53.1682-63.4821 52.6011-62.9147 52.6011-62.159C52.6011-61.8433 52.6041-61.4657 52.9788-61.0902L61.1643-52.9047C59.6163-53.0903 57.8819-53.3997 56.0241-53.3997C44.5643-53.3997 35.5852-44.4859 35.5852-33.0177Z"/>
  </g>
  <g id="Black-S" transform="matrix(1 0 0 1 2884.57 696)">
   <path d="M48.8281 6.78711C71.9727 6.78711 90.8203-12.0605 90.8203-35.2051C90.8203-58.3496 71.9727-77.1973 48.8281-77.1973C25.6836-77.1973 6.83594-58.3496 6.83594-35.2051C6.83594-12.0605 25.6836 6.78711 48.8281 6.78711ZM48.8281-7.37305C33.4473-7.37305 20.9961-19.8242 20.9961-35.2051C20.9961-50.5859 33.4473-63.0371 48.8281-63.0371C64.209-63.0371 76.6602-50.5859 76.6602-35.2051C76.6602-19.8242 64.209-7.37305 48.8281-7.37305ZM32.373-33.5938C32.373-24.5117 39.7949-17.0898 48.8281-17.0898C57.8613-17.0898 65.2832-24.5117 65.2832-33.5938C65.2832-35.8398 63.4766-37.6465 61.2305-37.6465C58.9355-37.6465 57.1289-35.8398 57.1289-33.5938C57.1289-28.9551 53.418-25.293 48.8281-25.293C44.1895-25.293 40.5273-29.0039 40.5273-33.5938C40.5273-36.7188 41.9922-39.7461 44.2383-40.625C44.4824-40.7227 44.7754-40.8691 45.1172-41.0645L44.9707-40.7715C44.7754-40.3809 44.6777-39.7461 44.6777-39.1113C44.6777-36.6699 46.3379-35.4492 48.4863-35.4492C49.5117-35.4492 50.5859-35.8887 51.2207-36.5723L57.373-42.7734C58.8867-44.2871 58.8379-46.7773 57.4219-48.1934L51.2695-54.3945C50.5371-55.127 49.5605-55.8105 48.3398-55.8105C45.8496-55.8105 44.5801-54.0527 44.5801-52.4414C44.5801-51.2207 45.1172-50.6836 45.5078-50.0977L45.7031-49.8047C45.5078-49.7559 45.2148-49.707 44.9707-49.6582C37.8418-48.2422 32.373-41.4062 32.373-33.5938Z"/>
  </g>
  <g id="Heavy-S" transform="matrix(1 0 0 1 2588.47 696)">
   <path d="M48.2173 6.16479C70.9816 6.16479 89.6102-12.4524 89.6102-35.2166C89.6102-57.9808 70.97-76.598 48.2058-76.598C25.4531-76.598 6.83594-57.9808 6.83594-35.2166C6.83594-12.4524 25.4646 6.16479 48.2173 6.16479ZM48.2173-6.40499C32.2833-6.40499 19.4288-19.271 19.4288-35.2166C19.4288-51.1622 32.2718-64.0282 48.2058-64.0282C64.1514-64.0282 77.0289-51.1622 77.0289-35.2166C77.0289-19.271 64.1629-6.40499 48.2173-6.40499ZM31.5663-33.5707C31.5663-24.3504 39.0574-16.8478 48.2058-16.8478C57.3658-16.8478 64.8568-24.3504 64.8568-33.5361C64.8568-35.6324 63.1539-37.3238 61.0576-37.3238C58.924-37.3238 57.2211-35.6324 57.2211-33.5361C57.2211-28.5056 53.199-24.5093 48.2058-24.5093C43.1868-24.5093 39.1905-28.5429 39.1905-33.5361C39.1905-37.4102 41.5082-40.9101 44.6993-41.5815C44.9319-41.6561 45.2248-41.768 45.5205-41.9173L44.7056-41.002C44.4412-40.5883 44.2974-39.942 44.2974-39.2842C44.2974-37.0618 45.8423-35.8526 47.841-35.8526C48.7972-35.8526 49.7792-36.2575 50.3794-36.895L56.7853-43.3266C58.1837-44.7135 58.1349-47.0655 56.8226-48.3778L50.4282-54.844C49.7534-55.5073 48.846-56.1102 47.729-56.1102C45.4693-56.1102 44.2228-54.4791 44.2228-52.8909C44.2228-51.7854 44.7138-51.2022 45.1045-50.6393L45.7146-49.9545C45.5424-49.9172 45.2725-49.8799 45.0514-49.8426C37.5998-48.7608 31.5663-41.775 31.5663-33.5707Z"/>
  </g>
  <g id="Bold-S" transform="matrix(1 0 0 1 2292.43 696)">
   <path d="M47.5342 5.46875C69.873 5.46875 88.2568-12.8906 88.2568-35.2295C88.2568-57.5684 69.8486-75.9277 47.5098-75.9277C25.1953-75.9277 6.83594-57.5684 6.83594-35.2295C6.83594-12.8906 25.2197 5.46875 47.5342 5.46875ZM47.5342-5.32227C30.9814-5.32227 17.6758-18.6523 17.6758-35.2295C17.6758-51.8066 30.957-65.1367 47.5098-65.1367C64.0869-65.1367 77.4414-51.8066 77.4414-35.2295C77.4414-18.6523 64.1113-5.32227 47.5342-5.32227ZM30.6641-33.5449C30.6641-24.1699 38.2324-16.5771 47.5098-16.5771C56.8115-16.5771 64.3799-24.1699 64.3799-33.4717C64.3799-35.4004 62.793-36.9629 60.8643-36.9629C58.9111-36.9629 57.3242-35.4004 57.3242-33.4717C57.3242-28.0029 52.9541-23.6328 47.5098-23.6328C42.0654-23.6328 37.6953-28.0273 37.6953-33.4717C37.6953-38.1836 40.9668-42.2119 45.2148-42.6514C45.4346-42.7002 45.7275-42.7734 45.9717-42.8711L44.4092-41.2598C44.0674-40.8203 43.8721-40.1611 43.8721-39.4775C43.8721-37.5 45.2881-36.3037 47.1191-36.3037C47.998-36.3037 48.877-36.6699 49.4385-37.2559L56.1279-43.9453C57.3975-45.1904 57.3486-47.3877 56.1523-48.584L49.4873-55.3467C48.877-55.9326 48.0469-56.4453 47.0459-56.4453C45.0439-56.4453 43.8232-54.9561 43.8232-53.3936C43.8232-52.417 44.2627-51.7822 44.6533-51.2451L45.7275-50.1221C45.5811-50.0977 45.3369-50.0732 45.1416-50.0488C37.3291-49.3408 30.6641-42.1875 30.6641-33.5449Z"/>
  </g>
  <g id="Semibold-S" transform="matrix(1 0 0 1 1996.19 696)">
   <path d="M47.0632 4.98887C69.1088 4.98887 87.3237-13.1928 87.3237-35.2384C87.3237-57.284 69.0755-75.4656 47.0299-75.4656C25.0176-75.4656 6.83594-57.284 6.83594-35.2384C6.83594-13.1928 25.0509 4.98887 47.0632 4.98887ZM47.0632-4.57578C30.0839-4.57578 16.4672-18.2258 16.4672-35.2384C16.4672-52.251 30.0506-65.901 47.0299-65.901C64.0425-65.901 77.7258-52.251 77.7258-35.2384C77.7258-18.2258 64.0758-4.57578 47.0632-4.57578ZM30.042-33.5271C30.042-24.0455 37.6637-16.3905 47.0299-16.3905C56.4294-16.3905 64.0511-24.0455 64.0511-33.4272C64.0511-35.2404 62.5441-36.7141 60.731-36.7141C58.9022-36.7141 57.3953-35.2404 57.3953-33.4272C57.3953-27.6563 52.7853-23.0285 47.0299-23.0285C41.2923-23.0285 36.6645-27.6719 36.6645-33.4272C36.6645-38.7168 40.5936-43.1095 45.5703-43.389C45.7812-43.42 46.0741-43.4666 46.2827-43.5287L44.2048-41.4375C43.8097-40.9803 43.5788-40.3122 43.5788-39.6108C43.5788-37.8021 44.906-36.6147 46.6215-36.6147C47.4471-36.6147 48.2549-36.9543 48.7897-37.5047L55.6747-44.3719C56.8554-45.5192 56.8065-47.6099 55.6902-48.7262L48.8386-55.6933C48.2727-56.2259 47.4959-56.6764 46.5749-56.6764C44.7507-56.6764 43.5478-55.2849 43.5478-53.7401C43.5478-52.8524 43.9517-52.1821 44.3423-51.6628L45.7364-50.2376C45.6077-50.2221 45.3813-50.2065 45.2038-50.191C37.1425-49.7407 30.042-42.4719 30.042-33.5271Z"/>
  </g>
  <g id="Medium-S" transform="matrix(1 0 0 1 1699.83 696)">
   <path d="M46.7061 4.625C68.5293 4.625 86.6162-13.4219 86.6162-35.2451C86.6162-57.0684 68.4893-75.1152 46.666-75.1152C24.8828-75.1152 6.83594-57.0684 6.83594-35.2451C6.83594-13.4219 24.9229 4.625 46.7061 4.625ZM46.7061-4.00977C29.4033-4.00977 15.5508-17.9023 15.5508-35.2451C15.5508-52.5879 29.3633-66.4805 46.666-66.4805C64.0088-66.4805 77.9414-52.5879 77.9414-35.2451C77.9414-17.9023 64.0488-4.00977 46.7061-4.00977ZM29.5703-33.5137C29.5703-23.9512 37.2324-16.249 46.666-16.249C56.1396-16.249 63.8018-23.9512 63.8018-33.3936C63.8018-35.1191 62.3555-36.5254 60.6299-36.5254C58.8955-36.5254 57.4492-35.1191 57.4492-33.3936C57.4492-27.3936 52.6572-22.5703 46.666-22.5703C40.7061-22.5703 35.8828-27.4023 35.8828-33.3936C35.8828-39.1211 40.3105-43.79 45.8398-43.9482C46.0439-43.9658 46.3369-43.9922 46.5186-44.0273L44.0498-41.5723C43.6143-41.1016 43.3564-40.4268 43.3564-39.7119C43.3564-38.0312 44.6162-36.8506 46.2441-36.8506C47.0293-36.8506 47.7832-37.1699 48.2979-37.6934L55.3311-44.6953C56.4443-45.7686 56.3955-47.7783 55.3398-48.834L48.3467-55.9561C47.8145-56.4482 47.0781-56.8516 46.2178-56.8516C44.5283-56.8516 43.3389-55.5342 43.3389-54.0029C43.3389-53.1826 43.7158-52.4854 44.1064-51.9795L45.7432-50.3252C45.6279-50.3164 45.415-50.3076 45.251-50.2988C37.001-50.0439 29.5703-42.6875 29.5703-33.5137Z"/>
  </g>
  <g id="Regular-S" transform="matrix(1 0 0 1 1403.58 696)">
   <path d="M46.2402 4.15039C67.7734 4.15039 85.6934-13.7207 85.6934-35.2539C85.6934-56.7871 67.7246-74.6582 46.1914-74.6582C24.707-74.6582 6.83594-56.7871 6.83594-35.2539C6.83594-13.7207 24.7559 4.15039 46.2402 4.15039ZM46.2402-3.27148C28.5156-3.27148 14.3555-17.4805 14.3555-35.2539C14.3555-53.0273 28.4668-67.2363 46.1914-67.2363C63.9648-67.2363 78.2227-53.0273 78.2227-35.2539C78.2227-17.4805 64.0137-3.27148 46.2402-3.27148ZM28.9551-33.4961C28.9551-23.8281 36.6699-16.0645 46.1914-16.0645C55.7617-16.0645 63.4766-23.8281 63.4766-33.3496C63.4766-34.9609 62.1094-36.2793 60.498-36.2793C58.8867-36.2793 57.5195-34.9609 57.5195-33.3496C57.5195-27.0508 52.4902-21.9727 46.1914-21.9727C39.9414-21.9727 34.8633-27.0508 34.8633-33.3496C34.8633-39.6484 39.9414-44.6777 46.1914-44.6777C46.3867-44.6777 46.6797-44.6777 46.8262-44.6777L43.8477-41.748C43.3594-41.2598 43.0664-40.5762 43.0664-39.8438C43.0664-38.3301 44.2383-37.1582 45.752-37.1582C46.4844-37.1582 47.168-37.4512 47.6562-37.9395L54.8828-45.1172C55.9082-46.0938 55.8594-47.998 54.8828-48.9746L47.7051-56.2988C47.2168-56.7383 46.5332-57.0801 45.752-57.0801C44.2383-57.0801 43.0664-55.8594 43.0664-54.3457C43.0664-53.6133 43.4082-52.8809 43.7988-52.3926L45.752-50.4395C45.6543-50.4395 45.459-50.4395 45.3125-50.4395C36.8164-50.4395 28.9551-42.9688 28.9551-33.4961Z"/>
  </g>
  <g id="Light-S" transform="matrix(1 0 0 1 1107.6 696)">
   <path d="M45.5137 3.42383C66.6836 3.42383 84.2251-14.084 84.2251-35.2539C84.2251-56.4238 66.6499-73.9316 45.48-73.9316C24.3286-73.9316 6.83594-56.4238 6.83594-35.2539C6.83594-14.084 24.3623 3.42383 45.5137 3.42383ZM45.5137-2.27247C27.2593-2.27247 12.5845-16.9658 12.5845-35.2539C12.5845-53.542 27.2256-68.2353 45.48-68.2353C63.7681-68.2353 78.4951-53.542 78.4951-35.2539C78.4951-16.9658 63.8018-2.27247 45.5137-2.27247ZM28.6221-33.4961C28.6221-24.0249 36.125-16.4883 45.48-16.4883C54.8838-16.4883 62.3565-24.0249 62.3565-33.395C62.3565-34.6733 61.2769-35.7192 60.0137-35.7192C58.7202-35.7192 57.6406-34.6733 57.6406-33.395C57.6406-26.5967 52.2632-21.1704 45.48-21.1704C38.7153-21.1704 33.3042-26.5815 33.3042-33.395C33.3042-40.1782 38.7153-45.5405 45.48-45.5405C46.2202-45.5405 46.9521-45.4951 47.5073-45.3892L43.1968-41.1123C42.7388-40.6543 42.5064-40.0918 42.5064-39.4653C42.5064-38.2695 43.4512-37.3096 44.6773-37.3096C45.2583-37.3096 45.8208-37.5571 46.2031-37.9395L53.7627-45.5864C54.6065-46.3965 54.603-47.9678 53.7627-48.8232L46.2974-56.4653C45.8696-56.8745 45.3071-57.1709 44.6621-57.1709C43.436-57.1709 42.4912-56.1924 42.4912-54.9663C42.4912-54.3852 42.7271-53.7891 43.0874-53.3613L46.4331-50.0156C45.9873-50.061 45.4287-50.1367 44.8735-50.1367C36.2261-50.1367 28.6221-42.8174 28.6221-33.4961Z"/>
  </g>
  <g id="Thin-S" transform="matrix(1 0 0 1 811.863 696)">
   <path d="M44.5527 2.4629C65.2422 2.4629 82.2832-14.5644 82.2832-35.2539C82.2832-55.9434 65.2285-72.9707 44.5391-72.9707C23.8281-72.9707 6.83594-55.9434 6.83594-35.2539C6.83594-14.5644 23.8418 2.4629 44.5527 2.4629ZM44.5527-0.95119C25.5977-0.95119 10.2422-16.2852 10.2422-35.2539C10.2422-54.2226 25.584-69.5566 44.5391-69.5566C63.5078-69.5566 78.8555-54.2226 78.8555-35.2539C78.8555-16.2852 63.5215-0.95119 44.5527-0.95119ZM28.1816-33.4961C28.1816-24.2852 35.4043-17.0488 44.5391-17.0488C53.7227-17.0488 60.875-24.2852 60.875-33.4551C60.875-34.293 60.1758-34.9785 59.3731-34.9785C58.5-34.9785 57.8008-34.293 57.8008-33.4551C57.8008-25.9961 51.9629-20.1094 44.5391-20.1094C37.0938-20.1094 31.2422-25.9609 31.2422-33.4551C31.2422-40.8789 37.0938-46.6816 44.5391-46.6816C46-46.6816 47.3125-46.5762 48.4082-46.3301L42.3359-40.2715C41.918-39.8535 41.7656-39.4512 41.7656-38.9649C41.7656-38.1895 42.4102-37.5098 43.2559-37.5098C43.6367-37.5098 44.0391-37.6973 44.2813-37.9395L52.2813-46.207C52.8848-46.7969 52.9414-47.9277 52.2813-48.623L44.4356-56.6855C44.0879-57.0547 43.6856-57.291 43.2207-57.291C42.375-57.291 41.7305-56.6328 41.7305-55.7871C41.7305-55.4062 41.8262-54.9902 42.1465-54.6426L47.334-49.4551C46.4277-49.5606 45.3887-49.7363 44.293-49.7363C35.4453-49.7363 28.1816-42.6172 28.1816-33.4961Z"/>
  </g>
  <g id="Ultralight-S" transform="matrix(1 0 0 1 515.649 696)">
   <path d="M44.0606 1.97072C64.5039 1.97072 81.2886-14.8105 81.2886-35.2539C81.2886-55.6973 64.5005-72.4785 44.0571-72.4785C23.5718-72.4785 6.83594-55.6973 6.83594-35.2539C6.83594-14.8105 23.5752 1.97072 44.0606 1.97072ZM44.0606-0.274438C24.7466-0.274438 9.04252-15.9365 9.04252-35.2539C9.04252-54.5713 24.7432-70.2334 44.0571-70.2334C63.3745-70.2334 79.04-54.5713 79.04-35.2539C79.04-15.9365 63.3779-0.274438 44.0606-0.274438ZM27.9561-33.4961C27.9561-24.4185 35.0352-17.3359 44.0571-17.3359C53.128-17.3359 60.1162-24.4185 60.1162-33.4858C60.1162-34.0982 59.6118-34.5991 59.0449-34.5991C58.3872-34.5991 57.8828-34.0982 57.8828-33.4858C57.8828-25.6885 51.8091-19.5659 44.0571-19.5659C36.2632-19.5659 30.1861-25.6431 30.1861-33.4858C30.1861-41.2378 36.2632-47.2661 44.0571-47.2661C45.8872-47.2661 47.4971-47.1299 48.8696-46.812L41.895-39.8408C41.4976-39.4434 41.3862-39.1231 41.3862-38.7085C41.3862-38.1484 41.877-37.6123 42.5279-37.6123C42.8062-37.6123 43.1265-37.769 43.2969-37.9395L51.5225-46.5249C52.003-47.0019 52.0904-47.9072 51.5225-48.5205L43.482-56.7983C43.1753-57.147 42.855-57.3525 42.4824-57.3525C41.8316-57.3525 41.3408-56.8584 41.3408-56.2075C41.3408-55.9292 41.3648-55.6054 41.6646-55.2988L47.7954-49.168C46.6533-49.3042 45.3682-49.5313 43.9956-49.5313C35.0454-49.5313 27.9561-42.5147 27.9561-33.4961Z"/>
  </g>
 </g>
</svg>
