<?xml version="1.0" encoding="UTF-8"?>
<!--Generator: Apple Native CoreSVG 175.5-->
<!DOCTYPE svg
PUBLIC "-//W3C//DTD SVG 1.1//EN"
       "http://www.w3.org/Graphics/SVG/1.1/DTD/svg11.dtd">
<svg version="1.1" xmlns="http://www.w3.org/2000/svg" xmlns:xlink="http://www.w3.org/1999/xlink" width="3300" height="2200">
 <!--glyph: "uni101530.medium", point size: 100.0, font version: "18.0d12e2", template writer version: "101"-->
 <g id="Notes">
  <rect height="2200" id="artboard" style="fill:white;opacity:1" width="3300" x="0" y="0"/>
  <line style="fill:none;stroke:black;opacity:1;stroke-width:0.5;" x1="263" x2="3036" y1="292" y2="292"/>
  <text style="stroke:none;fill:black;font-family:sans-serif;font-size:13;font-weight:bold;" transform="matrix(1 0 0 1 263 322)">Weight/Scale Variations</text>
  <text style="stroke:none;fill:black;font-family:sans-serif;font-size:13;text-anchor:middle;" transform="matrix(1 0 0 1 559.711 322)">Ultralight</text>
  <text style="stroke:none;fill:black;font-family:sans-serif;font-size:13;text-anchor:middle;" transform="matrix(1 0 0 1 856.422 322)">Thin</text>
  <text style="stroke:none;fill:black;font-family:sans-serif;font-size:13;text-anchor:middle;" transform="matrix(1 0 0 1 1153.13 322)">Light</text>
  <text style="stroke:none;fill:black;font-family:sans-serif;font-size:13;text-anchor:middle;" transform="matrix(1 0 0 1 1449.84 322)">Regular</text>
  <text style="stroke:none;fill:black;font-family:sans-serif;font-size:13;text-anchor:middle;" transform="matrix(1 0 0 1 1746.56 322)">Medium</text>
  <text style="stroke:none;fill:black;font-family:sans-serif;font-size:13;text-anchor:middle;" transform="matrix(1 0 0 1 2043.27 322)">Semibold</text>
  <text style="stroke:none;fill:black;font-family:sans-serif;font-size:13;text-anchor:middle;" transform="matrix(1 0 0 1 2339.98 322)">Bold</text>
  <text style="stroke:none;fill:black;font-family:sans-serif;font-size:13;text-anchor:middle;" transform="matrix(1 0 0 1 2636.69 322)">Heavy</text>
  <text style="stroke:none;fill:black;font-family:sans-serif;font-size:13;text-anchor:middle;" transform="matrix(1 0 0 1 2933.4 322)">Black</text>
  <line style="fill:none;stroke:black;opacity:1;stroke-width:0.5;" x1="263" x2="3036" y1="1903" y2="1903"/>
  <g transform="matrix(1 0 0 1 263 1933)">
   <path d="M9.24805 0.830078C13.5547 0.830078 17.1387-2.74414 17.1387-7.05078C17.1387-11.3574 13.5449-14.9316 9.23828-14.9316C4.94141-14.9316 1.36719-11.3574 1.36719-7.05078C1.36719-2.74414 4.95117 0.830078 9.24805 0.830078ZM9.24805-0.654297C5.70312-0.654297 2.87109-3.49609 2.87109-7.05078C2.87109-10.6055 5.69336-13.4473 9.23828-13.4473C12.793-13.4473 15.6445-10.6055 15.6445-7.05078C15.6445-3.49609 12.8027-0.654297 9.24805-0.654297ZM5.6543-7.05078C5.6543-6.62109 5.95703-6.32812 6.40625-6.32812L8.50586-6.32812L8.50586-4.20898C8.50586-3.76953 8.79883-3.4668 9.22852-3.4668C9.67773-3.4668 9.9707-3.76953 9.9707-4.20898L9.9707-6.32812L12.0898-6.32812C12.5293-6.32812 12.832-6.62109 12.832-7.05078C12.832-7.49023 12.5293-7.79297 12.0898-7.79297L9.9707-7.79297L9.9707-9.90234C9.9707-10.3516 9.67773-10.6543 9.22852-10.6543C8.79883-10.6543 8.50586-10.3516 8.50586-9.90234L8.50586-7.79297L6.40625-7.79297C5.95703-7.79297 5.6543-7.49023 5.6543-7.05078Z"/>
  </g>
  <g transform="matrix(1 0 0 1 281.867 1933)">
   <path d="M11.709 2.91016C17.1582 2.91016 21.6699-1.61133 21.6699-7.05078C21.6699-12.5 17.1484-17.0117 11.6992-17.0117C6.25977-17.0117 1.74805-12.5 1.74805-7.05078C1.74805-1.61133 6.26953 2.91016 11.709 2.91016ZM11.709 1.25C7.09961 1.25 3.41797-2.44141 3.41797-7.05078C3.41797-11.6602 7.08984-15.3516 11.6992-15.3516C16.3086-15.3516 20.0098-11.6602 20.0098-7.05078C20.0098-2.44141 16.3184 1.25 11.709 1.25ZM7.17773-7.05078C7.17773-6.57227 7.50977-6.25 8.00781-6.25L10.8789-6.25L10.8789-3.36914C10.8789-2.88086 11.2109-2.53906 11.6895-2.53906C12.1777-2.53906 12.5195-2.87109 12.5195-3.36914L12.5195-6.25L15.4004-6.25C15.8887-6.25 16.2305-6.57227 16.2305-7.05078C16.2305-7.53906 15.8887-7.88086 15.4004-7.88086L12.5195-7.88086L12.5195-10.752C12.5195-11.25 12.1777-11.5918 11.6895-11.5918C11.2109-11.5918 10.8789-11.25 10.8789-10.752L10.8789-7.88086L8.00781-7.88086C7.50977-7.88086 7.17773-7.53906 7.17773-7.05078Z"/>
  </g>
  <g transform="matrix(1 0 0 1 305.646 1933)">
   <path d="M14.9707 5.66406C21.9336 5.66406 27.6953-0.0976562 27.6953-7.05078C27.6953-14.0137 21.9238-19.7754 14.9609-19.7754C8.00781-19.7754 2.25586-14.0137 2.25586-7.05078C2.25586-0.0976562 8.01758 5.66406 14.9707 5.66406ZM14.9707 3.84766C8.93555 3.84766 4.08203-1.01562 4.08203-7.05078C4.08203-13.0957 8.92578-17.9492 14.9609-17.9492C21.0059-17.9492 25.8691-13.0957 25.8691-7.05078C25.8691-1.01562 21.0156 3.84766 14.9707 3.84766ZM9.19922-7.05078C9.19922-6.5332 9.57031-6.17188 10.1172-6.17188L14.0625-6.17188L14.0625-2.2168C14.0625-1.67969 14.4336-1.29883 14.9512-1.29883C15.4883-1.29883 15.8594-1.66992 15.8594-2.2168L15.8594-6.17188L19.8145-6.17188C20.3516-6.17188 20.7324-6.5332 20.7324-7.05078C20.7324-7.59766 20.3613-7.96875 19.8145-7.96875L15.8594-7.96875L15.8594-11.9141C15.8594-12.4609 15.4883-12.8418 14.9512-12.8418C14.4336-12.8418 14.0625-12.4609 14.0625-11.9141L14.0625-7.96875L10.1172-7.96875C9.57031-7.96875 9.19922-7.59766 9.19922-7.05078Z"/>
  </g>
  <text style="stroke:none;fill:black;font-family:sans-serif;font-size:13;font-weight:bold;" transform="matrix(1 0 0 1 263 1953)">Design Variations</text>
  <text style="stroke:none;fill:black;font-family:sans-serif;font-size:13;" transform="matrix(1 0 0 1 263 1971)">Symbols are supported in up to nine weights and three scales.</text>
  <text style="stroke:none;fill:black;font-family:sans-serif;font-size:13;" transform="matrix(1 0 0 1 263 1989)">For optimal layout with text and other symbols, vertically align</text>
  <text style="stroke:none;fill:black;font-family:sans-serif;font-size:13;" transform="matrix(1 0 0 1 263 2007)">symbols with the adjacent text.</text>
  <line style="fill:none;stroke:#00AEEF;stroke-width:0.5;opacity:1.0;" x1="776" x2="776" y1="1919" y2="1933"/>
  <g transform="matrix(1 0 0 1 776 1933)">
   <path d="M3.31055 0.15625C3.82812 0.15625 4.08203-0.0390625 4.26758-0.585938L5.52734-4.0332L11.2891-4.0332L12.5488-0.585938C12.7344-0.0390625 12.9883 0.15625 13.4961 0.15625C14.0137 0.15625 14.3457-0.15625 14.3457-0.644531C14.3457-0.810547 14.3164-0.966797 14.2383-1.17188L9.6582-13.3691C9.43359-13.9648 9.0332-14.2676 8.4082-14.2676C7.80273-14.2676 7.39258-13.9746 7.17773-13.3789L2.59766-1.16211C2.51953-0.957031 2.49023-0.800781 2.49023-0.634766C2.49023-0.146484 2.80273 0.15625 3.31055 0.15625ZM6.00586-5.51758L8.37891-12.0898L8.42773-12.0898L10.8008-5.51758Z"/>
  </g>
  <line style="fill:none;stroke:#00AEEF;stroke-width:0.5;opacity:1.0;" x1="793.197" x2="793.197" y1="1919" y2="1933"/>
  <text style="stroke:none;fill:black;font-family:sans-serif;font-size:13;font-weight:bold;" transform="matrix(1 0 0 1 776 1953)">Margins</text>
  <text style="stroke:none;fill:black;font-family:sans-serif;font-size:13;" transform="matrix(1 0 0 1 776 1971)">Leading and trailing margins on the left and right side of each symbol</text>
  <text style="stroke:none;fill:black;font-family:sans-serif;font-size:13;" transform="matrix(1 0 0 1 776 1989)">can be adjusted by modifying the x-location of the margin guidelines.</text>
  <text style="stroke:none;fill:black;font-family:sans-serif;font-size:13;" transform="matrix(1 0 0 1 776 2007)">Modifications are automatically applied proportionally to all</text>
  <text style="stroke:none;fill:black;font-family:sans-serif;font-size:13;" transform="matrix(1 0 0 1 776 2025)">scales and weights.</text>
  <g transform="matrix(1 0 0 1 1289 1933)">
   <path d="M2.8418 1.86523L4.54102 3.57422C5.40039 4.44336 6.38672 4.38477 7.31445 3.35938L18.0078-8.42773L17.041-9.4043L6.42578 2.27539C6.07422 2.67578 5.74219 2.77344 5.27344 2.30469L4.10156 1.14258C3.63281 0.683594 3.74023 0.341797 4.14062-0.0195312L15.6152-10.8203L14.6387-11.7871L3.04688-0.898438C2.06055 0.0195312 1.98242 0.996094 2.8418 1.86523ZM9.25781-16.3281C8.83789-15.918 8.80859-15.3418 9.04297-14.9512C9.27734-14.5898 9.73633-14.3555 10.3809-14.5215C11.8457-14.8633 13.3691-14.9219 14.7949-13.9844L14.209-12.5293C13.8672-11.6992 14.043-11.1133 14.5801-10.5664L16.875-8.25195C17.3633-7.76367 17.7734-7.74414 18.3398-7.8418L19.4043-8.03711L20.0684-7.36328L20.0293-6.80664C19.9902-6.30859 20.1172-5.92773 20.6055-5.44922L21.3672-4.70703C21.8457-4.22852 22.4609-4.19922 22.9297-4.66797L25.8398-7.58789C26.3086-8.05664 26.2891-8.65234 25.8105-9.13086L25.0391-9.89258C24.5605-10.3711 24.1895-10.5273 23.7109-10.4883L23.1348-10.4395L22.4902-11.0742L22.7344-12.1973C22.8613-12.7637 22.7051-13.2031 22.1191-13.7891L19.9219-15.9766C16.582-19.2969 12.1484-19.2188 9.25781-16.3281ZM10.752-15.957C13.1836-17.7344 16.4746-17.4316 18.7012-15.2051L21.1328-12.793C21.3672-12.5586 21.4062-12.373 21.3379-12.0312L21.0156-10.5469L22.5195-9.0625L23.5059-9.12109C23.7598-9.13086 23.8379-9.11133 24.0332-8.91602L24.6094-8.33984L22.168-5.89844L21.5918-6.47461C21.3965-6.66992 21.3672-6.74805 21.377-7.01172L21.4453-7.98828L19.9512-9.47266L18.4277-9.21875C18.1055-9.15039 17.959-9.17969 17.7148-9.41406L15.7129-11.416C15.459-11.6504 15.4297-11.8164 15.5859-12.1875L16.4648-14.2773C14.9023-15.7324 12.8711-16.3574 10.8398-15.7617C10.6836-15.7227 10.625-15.8496 10.752-15.957Z"/>
  </g>
  <text style="stroke:none;fill:black;font-family:sans-serif;font-size:13;font-weight:bold;" transform="matrix(1 0 0 1 1289 1953)">Exporting</text>
  <text style="stroke:none;fill:black;font-family:sans-serif;font-size:13;" transform="matrix(1 0 0 1 1289 1971)">Symbols should be outlined when exporting to ensure the</text>
  <text style="stroke:none;fill:black;font-family:sans-serif;font-size:13;" transform="matrix(1 0 0 1 1289 1989)">design is preserved when submitting to Xcode.</text>
  <text id="template-version" style="stroke:none;fill:black;font-family:sans-serif;font-size:13;text-anchor:end;" transform="matrix(1 0 0 1 3036 1933)">Template v.4.0</text>
  <text style="stroke:none;fill:black;font-family:sans-serif;font-size:13;text-anchor:end;" transform="matrix(1 0 0 1 3036 1951)">Requires Xcode 14 or greater</text>
  <text id="descriptive-name" style="stroke:none;fill:black;font-family:sans-serif;font-size:13;text-anchor:end;" transform="matrix(1 0 0 1 3036 1969)">Generated from figure.jumprope</text>
  <text style="stroke:none;fill:black;font-family:sans-serif;font-size:13;text-anchor:end;" transform="matrix(1 0 0 1 3036 1987)">Typeset at 100 points</text>
  <text style="stroke:none;fill:black;font-family:sans-serif;font-size:13;" transform="matrix(1 0 0 1 263 726)">Small</text>
  <text style="stroke:none;fill:black;font-family:sans-serif;font-size:13;" transform="matrix(1 0 0 1 263 1156)">Medium</text>
  <text style="stroke:none;fill:black;font-family:sans-serif;font-size:13;" transform="matrix(1 0 0 1 263 1586)">Large</text>
 </g>
 <g id="Guides">
  <g id="H-reference" style="fill:#27AAE1;stroke:none;" transform="matrix(1 0 0 1 339 696)">
   <path d="M0.993654 0L3.63775 0L29.3281-67.1323L30.0303-67.1323L30.0303-70.459L28.1226-70.459ZM11.6885-24.4799L46.9815-24.4799L46.2315-26.7285L12.4385-26.7285ZM55.1196 0L57.7637 0L30.6382-70.459L29.4326-70.459L29.4326-67.1323Z"/>
  </g>
  <line id="Baseline-S" style="fill:none;stroke:#27AAE1;opacity:1;stroke-width:0.5;" x1="263" x2="3036" y1="696" y2="696"/>
  <line id="Capline-S" style="fill:none;stroke:#27AAE1;opacity:1;stroke-width:0.5;" x1="263" x2="3036" y1="625.541" y2="625.541"/>
  <g id="H-reference" style="fill:#27AAE1;stroke:none;" transform="matrix(1 0 0 1 339 1126)">
   <path d="M0.993654 0L3.63775 0L29.3281-67.1323L30.0303-67.1323L30.0303-70.459L28.1226-70.459ZM11.6885-24.4799L46.9815-24.4799L46.2315-26.7285L12.4385-26.7285ZM55.1196 0L57.7637 0L30.6382-70.459L29.4326-70.459L29.4326-67.1323Z"/>
  </g>
  <line id="Baseline-M" style="fill:none;stroke:#27AAE1;opacity:1;stroke-width:0.5;" x1="263" x2="3036" y1="1126" y2="1126"/>
  <line id="Capline-M" style="fill:none;stroke:#27AAE1;opacity:1;stroke-width:0.5;" x1="263" x2="3036" y1="1055.54" y2="1055.54"/>
  <g id="H-reference" style="fill:#27AAE1;stroke:none;" transform="matrix(1 0 0 1 339 1556)">
   <path d="M0.993654 0L3.63775 0L29.3281-67.1323L30.0303-67.1323L30.0303-70.459L28.1226-70.459ZM11.6885-24.4799L46.9815-24.4799L46.2315-26.7285L12.4385-26.7285ZM55.1196 0L57.7637 0L30.6382-70.459L29.4326-70.459L29.4326-67.1323Z"/>
  </g>
  <line id="Baseline-L" style="fill:none;stroke:#27AAE1;opacity:1;stroke-width:0.5;" x1="263" x2="3036" y1="1556" y2="1556"/>
  <line id="Capline-L" style="fill:none;stroke:#27AAE1;opacity:1;stroke-width:0.5;" x1="263" x2="3036" y1="1485.54" y2="1485.54"/>
  <line id="left-margin-Regular-M" style="fill:none;stroke:#00AEEF;stroke-width:0.5;opacity:1.0;" x1="1404.54" x2="1404.54" y1="1030.79" y2="1150.12"/>
  <line id="right-margin-Regular-M" style="fill:none;stroke:#00AEEF;stroke-width:0.5;opacity:1.0;" x1="1495.15" x2="1495.15" y1="1030.79" y2="1150.12"/>
 </g>
 <g id="Symbols">
  <g id="Black-L" transform="matrix(1 0 0 1 2871.65 1556)">
   <path d="M61.754-74.9275C70.2384-74.9275 77.162-81.8512 77.162-90.3564C77.162-98.8616 70.2384-105.785 61.754-105.785C53.2475-105.785 46.3239-98.8616 46.3239-90.3564C46.3239-81.8512 53.2475-74.9275 61.754-74.9275ZM52.1684 56.8885C56.2785 56.8885 59.7541 53.3545 59.7541 49.2832L59.7541 14.7446L61.754-1.5055L63.7538 14.7446L63.7538 49.2832C63.7538 53.3545 67.2294 56.8885 71.3395 56.8885C75.4133 56.8885 78.8656 53.3545 78.8656 49.2832L78.8656-38.592C78.8656-39.5482 79.7335-39.5338 80.0552-38.9489C86.0929-27.7644 90.7877-14.4867 92.7726-8.74884C94.0725-4.85677 98.4227-2.68107 102.277-4.03819C105.41-5.07601 107.425-7.93146 107.425-11.0854C107.425-11.8455 107.286-12.6837 106.988-13.5011C106.41-15.3331 95.3786-48.2281 81.5223-63.9096C78.4788-67.4708 73.8369-69.6321 68.8345-69.6321L54.6942-69.6321C49.671-69.6321 45.0279-67.4708 41.9844-63.9096C28.1293-48.2281 17.0974-15.3331 16.5213-13.5011C16.2228-12.6837 16.084-11.8443 16.084-11.0842C16.084-7.93146 18.0976-5.07601 21.2516-4.03819C25.0852-2.68107 29.4354-4.85677 30.7353-8.74884C32.7214-14.4867 37.415-27.7644 43.3931-38.7736C43.8316-39.5338 44.6411-39.4314 44.6411-38.4752L44.6411 49.2832C44.6411 53.3545 48.0947 56.8885 52.1684 56.8885ZM61.754-115.822C83.0866-115.822 96.0142-96.0045 96.0142-63.7654L96.0142-11.0646L107.425-11.0646L107.425-63.7654C107.425-103.078 90.1322-127.232 61.754-127.232C33.3977-127.232 16.1048-103.078 16.1048-63.7654L16.1048-11.0634L27.5158-11.0634L27.5158-63.7654C27.5158-96.0045 40.4421-115.822 61.754-115.822Z"/>
  </g>
  <g id="Heavy-L" transform="matrix(1 0 0 1 2575.79 1556)">
   <path d="M60.8996-74.7786C69.1281-74.7786 75.8367-81.4872 75.8367-89.7459C75.8367-98.0046 69.1281-104.713 60.8996-104.713C52.6353-104.713 45.9267-98.0046 45.9267-89.7459C45.9267-81.4872 52.6353-74.7786 60.8996-74.7786ZM51.4453 55.1913C55.3448 55.1913 58.6693 51.8222 58.6693 47.9428L58.6693 13.829L60.8996-4.32868L63.1299 13.829L63.1299 47.9428C63.1299 51.8222 66.4544 55.1913 70.3539 55.1913C74.2445 55.1913 77.5276 51.8222 77.5276 47.9428L77.5276-39.7769C77.5276-40.6735 78.428-40.7005 78.7497-40.1018C85.1612-28.2205 89.8063-15.1005 91.7642-9.42119C93.0183-5.72156 97.1535-3.65119 100.839-4.94433C103.811-5.92702 105.721-8.64958 105.721-11.6524C105.721-12.385 105.596-13.1868 105.316-13.9584C104.78-15.6713 93.8833-48.1735 80.2218-63.6376C77.2511-67.0941 72.7459-69.1914 67.8991-69.1914L53.9303-69.1914C49.0533-69.1914 44.5425-67.0941 41.5718-63.6376C27.9159-48.1735 17.0197-15.6713 16.4893-13.9584C16.209-13.1868 16.084-12.3794 16.084-11.6468C16.084-8.64958 17.9879-5.92702 20.9907-4.94433C24.6457-3.65119 28.7809-5.72156 30.035-9.42119C31.9985-15.1005 36.638-28.2205 42.9993-39.9679C43.4102-40.7005 44.2659-40.5843 44.2659-39.6876L44.2659 47.9428C44.2659 51.8222 47.5547 55.1913 51.4453 55.1913ZM60.8996-115.286C82.5405-115.286 95.4344-95.2473 95.4344-62.193L95.4344-11.6222L105.721-11.6222L105.721-62.193C105.721-101.702 88.9308-125.567 60.8996-125.567C32.9041-125.567 16.1142-101.702 16.1142-62.193L16.1142-11.6166L26.4006-11.6166L26.4006-62.193C26.4006-95.2473 39.2889-115.286 60.8996-115.286Z"/>
  </g>
  <g id="Bold-L" transform="matrix(1 0 0 1 2280.17 1556)">
   <path d="M59.802-74.5718C67.7229-74.5718 74.1775-81.0264 74.1775-88.9853C74.1775-96.9442 67.7229-103.399 59.802-103.399C51.8299-103.399 45.3753-96.9442 45.3753-88.9853C45.3753-81.0264 51.8299-74.5718 59.802-74.5718ZM50.524 52.9742C54.1772 52.9742 57.3246 49.7976 57.3246 46.1489L57.3246 12.6173L59.802-7.59388L62.2794 12.6173L62.2794 46.1489C62.2794 49.7976 65.4268 52.9742 69.08 52.9742C72.7551 52.9742 75.8382 49.7976 75.8382 46.1489L75.8382-41.1104C75.8382-41.9377 76.7695-42.011 77.0912-41.3968C83.8968-28.7815 88.473-15.8836 90.3926-10.2884C91.5928-6.81208 95.474-4.86488 98.9591-6.08111C101.747-7.00212 103.533-9.57067 103.533-12.3964C103.533-13.0982 103.424-13.8539 103.166-14.5717C102.677-16.146 91.9644-48.1044 78.5635-63.2772C75.685-66.6031 71.3489-68.6235 66.6867-68.6235L52.9553-68.6235C48.2552-68.6235 43.9058-66.6031 41.0273-63.2772C27.6396-48.1044 16.9273-16.146 16.4508-14.5717C16.1936-13.8539 16.084-13.085 16.084-12.3832C16.084-9.57067 17.8571-7.00212 20.6829-6.08111C24.13-4.86488 28.0112-6.81208 29.2115-10.2884C31.1443-15.8836 35.7072-28.7815 42.4704-41.3092C42.8504-42.011 43.7526-41.8793 43.7526-41.052L43.7526 46.1489C43.7526 49.7976 46.8489 52.9742 50.524 52.9742ZM59.802-114.528C81.7823-114.528 94.6601-94.3173 94.6601-60.45L94.6601-12.3585L103.533-12.3585L103.533-60.45C103.533-99.9958 87.3434-123.388 59.802-123.388C32.3119-123.388 16.122-99.9958 16.122-60.45L16.122-12.3452L24.9952-12.3452L24.9952-60.45C24.9952-94.3173 37.8597-114.528 59.802-114.528Z"/>
  </g>
  <g id="Semibold-L" transform="matrix(1 0 0 1 1984.21 1556)">
   <path d="M59.0453-74.4293C66.7541-74.4293 73.0337-80.7088 73.0337-88.461C73.0337-96.2131 66.7541-102.493 59.0453-102.493C51.2747-102.493 44.9952-96.2131 44.9952-88.461C44.9952-80.7088 51.2747-74.4293 59.0453-74.4293ZM49.8889 51.4458C53.3722 51.4458 56.3976 48.4018 56.3976 44.9122L56.3976 11.782L59.0453-9.84489L61.6931 11.782L61.6931 44.9122C61.6931 48.4018 64.7185 51.4458 68.2018 51.4458C71.7284 51.4458 74.6735 48.4018 74.6735 44.9122L74.6735-42.0297C74.6735-42.8093 75.6262-42.9144 75.9479-42.2896C83.0251-29.1683 87.5538-16.4234 89.447-10.8863C90.6101-7.56388 94.3162-5.70159 97.6634-6.8648C100.324-7.74329 102.025-10.2057 102.025-12.9094C102.025-13.5899 101.926-14.3139 101.685-14.9945C101.227-16.4732 90.6415-48.0567 77.4203-63.0288C74.6053-66.2646 70.3857-68.232 65.8508-68.232L52.2832-68.232C47.7049-68.232 43.4669-66.2646 40.6519-63.0288C27.4492-48.0567 16.8637-16.4732 16.4243-14.9945C16.183-14.3139 16.084-13.5714 16.084-12.8909C16.084-10.2057 17.767-7.74329 20.4707-6.8648C23.7745-5.70159 27.4806-7.56388 28.6437-10.8863C30.5554-16.4234 35.0656-29.1683 42.1057-42.2339C42.4646-42.9144 43.3988-42.7721 43.3988-41.9925L43.3988 44.9122C43.3988 48.4018 46.3623 51.4458 49.8889 51.4458ZM59.0453-114.006C81.2596-114.006 94.1263-93.6762 94.1263-59.2485L94.1263-12.866L102.025-12.866L102.025-59.2485C102.025-98.8198 86.249-121.886 59.0453-121.886C31.9036-121.886 16.1273-98.8198 16.1273-59.2485L16.1273-12.8475L24.0263-12.8475L24.0263-59.2485C24.0263-93.6762 36.8744-114.006 59.0453-114.006Z"/>
  </g>
  <g id="Medium-L" transform="matrix(1 0 0 1 1688.07 1556)">
   <path d="M58.4716-74.3212C66.0196-74.3212 72.1664-80.468 72.1664-88.0634C72.1664-95.6588 66.0196-101.806 58.4716-101.806C50.8537-101.806 44.7069-95.6588 44.7069-88.0634C44.7069-80.468 50.8537-74.3212 58.4716-74.3212ZM49.4073 50.2868C52.7619 50.2868 55.6947 47.3435 55.6947 43.9745L55.6947 11.1486L58.4716-11.5517L61.2485 11.1486L61.2485 43.9745C61.2485 47.3435 64.1813 50.2868 67.5359 50.2868C70.9498 50.2868 73.7903 47.3435 73.7903 43.9745L73.7903-42.7267C73.7903-43.4701 74.7593-43.5994 75.081-42.9665C82.3642-29.4616 86.8568-16.8328 88.73-11.3396C89.865-8.13392 93.4383-6.33602 96.6809-7.45902C99.2446-8.30527 100.882-10.6871 100.882-13.2983C100.882-13.9627 100.791-14.6626 100.561-15.315C100.128-16.7213 89.6384-48.0206 76.5535-62.8404C73.7866-66.0079 69.6555-67.9351 65.2171-67.9351L51.7736-67.9351C47.2878-67.9351 43.1341-66.0079 40.3672-62.8404C27.3048-48.0206 16.8154-16.7213 16.4042-15.315C16.1749-14.6626 16.084-13.9402 16.084-13.2759C16.084-10.6871 17.6986-8.30527 20.3098-7.45902C23.5049-6.33602 27.0783-8.13392 28.2132-11.3396C30.1089-16.8328 34.5791-29.4616 41.8293-42.935C42.172-43.5994 43.1304-43.4491 43.1304-42.7057L43.1304 43.9745C43.1304 47.3435 45.9934 50.2868 49.4073 50.2868ZM58.4716-113.61C80.8633-113.61 93.7215-93.19 93.7215-58.3374L93.7215-13.2509L100.882-13.2509L100.882-58.3374C100.882-97.9281 85.4191-120.747 58.4716-120.747C31.594-120.747 16.1314-97.9281 16.1314-58.3374L16.1314-13.2284L23.2916-13.2284L23.2916-58.3374C23.2916-93.19 36.1274-113.61 58.4716-113.61Z"/>
  </g>
  <g id="Regular-L" transform="matrix(1 0 0 1 1392.11 1556)">
   <path d="M57.7233-74.1802C65.0615-74.1802 71.0351-80.1538 71.0351-87.5448C71.0351-94.9358 65.0615-100.909 57.7233-100.909C50.3046-100.909 44.331-94.9358 44.331-87.5448C44.331-80.1538 50.3046-74.1802 57.7233-74.1802ZM48.7792 48.7752C51.9658 48.7752 54.7779 45.963 54.7779 42.7513L54.7779 10.3225L57.7233-13.778L60.6686 10.3225L60.6686 42.7513C60.6686 45.963 63.4807 48.7752 66.6673 48.7752C69.9343 48.7752 72.6384 45.963 72.6384 42.7513L72.6384-43.6359C72.6384-44.332 73.6286-44.4929 73.9502-43.8495C81.5021-29.8441 85.9477-17.3667 87.7948-11.9309C88.893-8.87746 92.2932-7.16353 95.3994-8.2341C97.8371-9.0383 99.3902-11.3152 99.3902-13.8056C99.3902-14.449 99.3098-15.1175 99.0962-15.7332C98.6941-17.045 88.3301-47.9735 75.4229-62.5946C72.7188-65.6731 68.7029-67.5479 64.3905-67.5479L51.1088-67.5479C46.7436-67.5479 42.7-65.6731 39.996-62.5946C27.1164-47.9735 16.7525-17.045 16.378-15.7332C16.1644-15.1175 16.084-14.4213 16.084-13.778C16.084-11.3152 17.6094-9.0383 20.0999-8.2341C23.1533-7.16353 26.5535-8.87746 27.6517-11.9309C29.5265-17.3667 33.9445-29.8441 41.4686-43.8495C41.7903-44.4929 42.7805-44.332 42.7805-43.6359L42.7805 42.7513C42.7805 45.963 45.5122 48.7752 48.7792 48.7752ZM57.7233-113.093C80.3464-113.093 93.1935-92.5559 93.1935-57.149L93.1935-13.7529L99.3902-13.7529L99.3902-57.149C99.3902-96.765 84.3368-119.262 57.7233-119.262C31.1902-119.262 16.1367-96.765 16.1367-57.149L16.1367-13.7252L22.3334-13.7252L22.3334-57.149C22.3334-92.5559 35.1529-113.093 57.7233-113.093Z"/>
  </g>
  <g id="Light-L" transform="matrix(1 0 0 1 1096.4 1556)">
   <path d="M56.7117-73.8939C63.8973-73.8939 69.7755-79.7721 69.7755-86.9913C69.7755-94.2105 63.8973-100.089 56.7117-100.089C49.4458-100.089 43.5676-94.2105 43.5676-86.9913C43.5676-79.7721 49.4458-73.8939 56.7117-73.8939ZM47.9776 46.504C51.0879 46.504 53.8428 43.7492 53.8428 40.652L53.8428 8.98654L56.7117-14.5414L59.5807 8.98654L59.5807 40.652C59.5807 43.7492 62.3356 46.504 65.4459 46.504C68.6365 46.504 71.2643 43.7492 71.2643 40.652L71.2643-43.6932C71.2643-44.3702 72.2162-44.5311 72.5379-43.8877C79.918-30.2067 84.2682-18.0537 86.0581-12.7515C87.1372-9.75538 90.442-8.07962 93.4718-9.11202C95.8713-9.91622 97.3862-12.1549 97.3862-14.5881C97.3862-15.2315 97.3058-15.8618 97.1113-16.4584C96.7092-17.7321 86.5743-47.9162 73.9724-62.1938C71.3447-65.1769 67.4433-67.0135 63.2072-67.0135L50.25-67.0135C45.9802-67.0135 42.032-65.1769 39.4043-62.1938C26.8492-47.9162 16.7143-17.7321 16.3589-16.4584C16.1644-15.8618 16.084-15.1847 16.084-14.5414C16.084-12.1549 17.5522-9.91622 19.9854-9.11202C22.9815-8.07962 26.2863-9.75538 27.3654-12.7515C29.202-18.0537 33.5055-30.2067 40.8388-43.8877C41.1605-44.5311 42.1125-44.3702 42.1125-43.6932L42.1125 40.652C42.1125 43.7492 44.7869 46.504 47.9776 46.504ZM56.7117-111.967C79.2967-111.967 92.2965-91.9643 92.2965-57.2635L92.2965-14.5544L97.3862-14.5544L97.3862-57.2635C97.3862-95.5818 82.6-117.01 56.7117-117.01C30.9039-117.01 16.1177-95.5818 16.1177-57.2635L16.1177-14.5077L21.2074-14.5077L21.2074-57.2635C21.2074-91.9643 34.1605-111.967 56.7117-111.967Z"/>
  </g>
  <g id="Thin-L" transform="matrix(1 0 0 1 801.012 1556)">
   <path d="M55.3739-73.5153C62.3575-73.5153 68.1095-79.2673 68.1095-86.2593C68.1095-93.2514 62.3575-99.0034 55.3739-99.0034C48.3099-99.0034 42.5579-93.2514 42.5579-86.2593C42.5579-79.2673 48.3099-73.5153 55.3739-73.5153ZM46.9175 43.5003C49.9267 43.5003 52.6059 40.8211 52.6059 37.8754L52.6059 7.21961L55.3739-15.5511L58.1419 7.21961L58.1419 37.8754C58.1419 40.8211 60.8211 43.5003 63.8304 43.5003C66.9201 43.5003 69.4469 40.8211 69.4469 37.8754L69.4469-43.7689C69.4469-44.4207 70.3483-44.5815 70.67-43.9382C77.8229-30.6863 82.0469-18.9624 83.761-13.8369C84.8149-10.9165 87.9935-9.29123 90.9224-10.2731C93.2714-11.0773 94.7358-13.2656 94.7358-15.623C94.7358-16.2664 94.6554-16.8462 94.4861-17.4176C94.084-18.6408 84.252-47.8405 72.054-61.6638C69.5273-64.5206 65.7773-66.3067 61.6422-66.3067L49.1141-66.3067C44.9705-66.3067 41.1486-64.5206 38.6218-61.6638C26.4958-47.8405 16.6638-18.6408 16.3337-17.4176C16.1644-16.8462 16.084-16.1944 16.084-15.5511C16.084-13.2656 17.4764-11.0773 19.8339-10.2731C22.7543-9.29123 25.9329-10.9165 26.9868-13.8369C28.7729-18.9624 32.9249-30.6863 40.0058-43.9382C40.3275-44.5815 41.229-44.4207 41.229-43.7689L41.229 37.8754C41.229 40.8211 43.8278 43.5003 46.9175 43.5003ZM55.3739-110.478C77.9084-110.478 91.1102-91.1818 91.1102-57.415L91.1102-15.6146L94.7358-15.6146L94.7358-57.415C94.7358-94.0168 80.303-114.031 55.3739-114.031C30.5253-114.031 16.0924-94.0168 16.0924-57.415L16.0924-15.5426L19.7181-15.5426L19.7181-57.415C19.7181-91.1818 32.8479-110.478 55.3739-110.478Z"/>
  </g>
  <g id="Ultralight-L" transform="matrix(1 0 0 1 504.98 1556)">
   <path d="M54.6887-73.3214C61.5689-73.3214 67.2562-79.0087 67.2562-85.8844C67.2562-92.7601 61.5689-98.4474 54.6887-98.4474C47.7281-98.4474 42.0408-92.7601 42.0408-85.8844C42.0408-79.0087 47.7281-73.3214 54.6887-73.3214ZM46.3744 41.9617C49.332 41.9617 51.9724 39.3214 51.9724 36.4532L51.9724 6.3146L54.6887-16.0682L57.405 6.3146L57.405 36.4532C57.405 39.3214 60.0454 41.9617 63.003 41.9617C66.0409 41.9617 68.516 39.3214 68.516 36.4532L68.516-43.8077C68.516-44.4466 69.3916-44.6074 69.7133-43.964C76.7498-30.932 80.9092-19.4279 82.5845-14.3929C83.6255-11.5112 86.7394-9.91181 89.6166-10.8679C91.9398-11.6721 93.3783-13.8344 93.3783-16.1531C93.3783-16.7965 93.2979-17.3504 93.1416-17.9089C92.7395-19.1062 83.0626-47.8017 71.0715-61.3923C68.5964-64.1845 64.924-65.9447 60.8406-65.9447L48.5323-65.9447C44.4534-65.9447 40.6961-64.1845 38.221-61.3923C26.3148-47.8017 16.6379-19.1062 16.3208-17.9089C16.1644-17.3504 16.084-16.7116 16.084-16.0682C16.084-13.8344 17.4376-11.6721 19.7563-10.8679C22.638-9.91181 25.7519-11.5112 26.7929-14.3929C28.5531-19.4279 32.6276-30.932 39.5792-43.964C39.9009-44.6074 40.7765-44.4466 40.7765-43.8077L40.7765 36.4532C40.7765 39.3214 43.3365 41.9617 46.3744 41.9617ZM54.6887-109.715C77.1973-109.715 90.5025-90.781 90.5025-57.4926L90.5025-16.1576L93.3783-16.1576L93.3783-57.4926C93.3783-93.2152 79.1265-112.506 54.6887-112.506C30.3313-112.506 16.0795-93.2152 16.0795-57.4926L16.0795-16.0727L18.9553-16.0727L18.9553-57.4926C18.9553-90.781 32.1756-109.715 54.6887-109.715Z"/>
  </g>
  <g id="Black-M" transform="matrix(1 0 0 1 2884.96 1126)">
   <path d="M48.4406-66.0745C55.213-66.0745 60.749-71.6104 60.749-78.3883C60.749-85.1663 55.213-90.7022 48.4406-90.7022C41.6629-90.7022 36.127-85.1663 36.127-78.3883C36.127-71.6104 41.6629-66.0745 48.4406-66.0745ZM40.9299 37.2891C44.2848 37.2891 47.0996 34.4172 47.0996 31.1136L47.0996 4.09348L48.4406-6.7792L49.7816 4.09348L49.7816 31.1136C49.7816 34.4172 52.5963 37.2891 55.9513 37.2891C59.2544 37.2891 62.0643 34.4172 62.0643 31.1136L62.0643-36.824C62.0643-37.6134 62.7035-37.5667 62.9527-37.1254C67.2859-29.1031 70.9529-18.7247 72.5062-14.2472C73.55-11.0742 77.0922-9.30324 80.2135-10.4045C82.7736-11.2559 84.42-13.5772 84.42-16.1427C84.42-16.7554 84.3006-17.4309 84.0563-18.1009C83.5734-19.6174 74.941-45.3392 64.08-57.6286C61.6698-60.4647 57.9715-62.189 53.9726-62.189L42.914-62.189C38.9097-62.189 35.2117-60.4647 32.8015-57.6286C21.9402-45.3392 13.3077-19.6174 12.8246-18.1009C12.5803-17.4309 12.4609-16.7556 12.4609-16.143C12.4609-13.5772 14.1076-11.2559 16.6731-10.4045C19.789-9.30324 23.3312-11.0742 24.375-14.2472C25.928-18.7247 29.5952-29.1031 33.8716-36.9541C34.2351-37.5667 34.8172-37.4992 34.8172-36.7098L34.8172 31.1136C34.8172 34.4172 37.6268 37.2891 40.9299 37.2891ZM48.4406-97.9763C64.6979-97.9763 74.7629-82.885 74.7629-58.7044L74.7629-16.1372L84.42-16.1372L84.42-58.7044C84.42-88.8174 70.6264-107.634 48.4406-107.634C26.26-107.634 12.4664-88.8174 12.4664-58.7044L12.4664-16.1375L22.1235-16.1375L22.1235-58.7044C22.1235-82.885 32.1888-97.9763 48.4406-97.9763Z"/>
  </g>
  <g id="Heavy-M" transform="matrix(1 0 0 1 2588.99 1126)">
   <path d="M47.6987-65.9553C54.2351-65.9553 59.5696-71.2897 59.5696-77.8426C59.5696-84.3954 54.2351-89.7299 47.6987-89.7299C41.1436-89.7299 35.8091-84.3954 35.8091-77.8426C35.8091-71.2897 41.1436-65.9553 47.6987-65.9553ZM40.297 35.8395C43.4531 35.8395 46.1254 33.1235 46.1254 29.9969L46.1254 3.32161L47.6987-9.46863L49.272 3.32161L49.272 29.9969C49.272 33.1235 51.9444 35.8395 55.1005 35.8395C58.2316 35.8395 60.883 33.1235 60.883 29.9969L60.883-37.977C60.883-38.71 61.5576-38.7037 61.8068-38.2489C66.5212-29.5155 70.1485-19.2614 71.6806-14.8287C72.6815-11.8386 76.0222-10.1671 78.9851-11.2093C81.3919-12.0068 82.9388-14.2017 82.9388-16.6248C82.9388-17.2105 82.8328-17.854 82.6046-18.481C82.1622-19.8846 73.6412-45.2911 62.9424-57.3997C60.5964-60.1423 57.0212-61.8075 53.1673-61.8075L42.2465-61.8075C38.3762-61.8075 34.7988-60.1423 32.4527-57.3997C21.7562-45.2911 13.2352-19.8846 12.7951-18.481C12.5669-17.854 12.4609-17.2083 12.4609-16.6226C12.4609-14.2017 14.0056-12.0068 16.4287-11.2093C19.3752-10.1671 22.716-11.8386 23.7168-14.8287C25.2512-19.2614 28.8762-29.5155 33.5447-38.118C33.8812-38.7037 34.5121-38.6227 34.5121-37.8898L34.5121 29.9969C34.5121 33.1235 37.1658 35.8395 40.297 35.8395ZM47.6987-97.556C64.2608-97.556 74.2789-82.1994 74.2789-57.1567L74.2789-16.6084L82.9388-16.6084L82.9388-57.1567C82.9388-87.5809 69.6122-106.214 47.6987-106.214C25.8039-106.214 12.4773-87.5809 12.4773-57.1567L12.4773-16.6062L21.1372-16.6062L21.1372-57.1567C21.1372-82.1994 31.153-97.556 47.6987-97.556Z"/>
  </g>
  <g id="Bold-M" transform="matrix(1 0 0 1 2293.11 1126)">
   <path d="M46.8688-65.8219C53.1412-65.8219 58.2503-70.9311 58.2503-77.232C58.2503-83.533 53.1412-88.6422 46.8688-88.6422C40.5627-88.6422 35.4536-83.533 35.4536-77.232C35.4536-70.9311 40.5627-65.8219 46.8688-65.8219ZM39.589 34.2179C42.5226 34.2179 45.0356 31.6763 45.0356 28.7477L45.0356 2.45817L46.8688-12.4771L48.702 2.45817L48.702 28.7477C48.702 31.6763 51.215 34.2179 54.1487 34.2179C57.0875 34.2179 59.5617 31.6763 59.5617 28.7477L59.5617-39.2668C59.5617-39.9366 60.2757-39.9756 60.5249-39.5057C65.6658-29.9768 69.2486-19.8618 70.7571-15.4793C71.7099-12.6937 74.8253-11.1334 77.611-12.1096C79.8462-12.8468 81.2818-14.9003 81.2818-17.1642C81.2818-17.7197 81.191-18.3273 80.9806-18.9062C80.5835-20.1835 72.1873-45.2373 61.6699-57.1437C59.3956-59.7815 55.9582-61.3807 52.2665-61.3807L41.4998-61.3807C37.7795-61.3807 34.3369-59.7815 32.0626-57.1437C21.5504-45.2373 13.1542-20.1835 12.7621-18.9062C12.5518-18.3273 12.4609-17.7146 12.4609-17.159C12.4609-14.9003 13.8915-12.8468 16.1553-12.1096C18.9124-11.1334 22.0278-12.6937 22.9805-15.4793C24.4941-19.8618 28.0718-29.9768 33.179-39.4201C33.4853-39.9756 34.1708-39.8795 34.1708-39.2097L34.1708 28.7477C34.1708 31.6763 36.6501 34.2179 39.589 34.2179ZM46.8688-97.0857C63.7719-97.0857 73.7375-81.4324 73.7375-55.4253L73.7375-17.1355L81.2818-17.1355L81.2818-55.4253C81.2818-86.1977 68.4777-104.625 46.8688-104.625C25.2937-104.625 12.4896-86.1977 12.4896-55.4253L12.4896-17.1304L20.0339-17.1304L20.0339-55.4253C20.0339-81.4324 29.9944-97.0857 46.8688-97.0857Z"/>
  </g>
  <g id="Semibold-M" transform="matrix(1 0 0 1 1996.97 1126)">
   <path d="M46.2967-65.73C52.387-65.73 57.3408-70.6838 57.3408-76.8112C57.3408-82.9385 52.387-87.8923 46.2967-87.8923C40.1622-87.8923 35.2084-82.9385 35.2084-76.8112C35.2084-70.6838 40.1622-65.73 46.2967-65.73ZM39.1009 33.1C41.8811 33.1 44.2844 30.6786 44.2844 27.8866L44.2844 1.86291L46.2967-14.5512L48.309 1.86291L48.309 27.8866C48.309 30.6786 50.7122 33.1 53.4925 33.1C56.2988 33.1 58.6507 30.6786 58.6507 27.8866L58.6507-40.156C58.6507-40.7823 59.392-40.8524 59.6412-40.3722C65.0761-30.2949 68.6283-20.2757 70.1204-15.9278C71.0401-13.2832 74.0001-11.7996 76.6636-12.7303C78.7806-13.4259 80.1396-15.382 80.1396-17.536C80.1396-18.0707 80.0591-18.6536 79.8611-19.1994C79.4951-20.3896 71.1849-45.2002 60.7926-56.9672C58.5678-59.5328 55.2253-61.0865 51.6454-61.0865L40.985-61.0865C37.3681-61.0865 34.0185-59.5328 31.7936-56.9672C21.4084-45.2002 13.0983-20.3896 12.7394-19.1994C12.5414-18.6536 12.4609-18.0636 12.4609-17.5289C12.4609-15.382 13.8128-13.4259 15.9668-12.7303C18.5933-11.7996 21.5533-13.2832 22.473-15.9278C23.9722-20.2757 27.5173-30.2949 32.9269-40.3177C33.2124-40.8524 33.9356-40.746 33.9356-40.1197L33.9356 27.8866C33.9356 30.6786 36.2946 33.1 39.1009 33.1ZM46.2967-96.7616C63.4348-96.7616 73.3643-80.9037 73.3643-54.2317L73.3643-17.4989L80.1396-17.4989L80.1396-54.2317C80.1396-85.2441 67.6955-103.53 46.2967-103.53C24.942-103.53 12.498-85.2441 12.498-54.2317L12.498-17.4918L19.2733-17.4918L19.2733-54.2317C19.2733-80.9037 29.1956-96.7616 46.2967-96.7616Z"/>
  </g>
  <g id="Medium-M" transform="matrix(1 0 0 1 1700.69 1126)">
   <path d="M45.8629-65.6603C51.8152-65.6603 56.6512-70.4963 56.6512-76.492C56.6512-82.4877 51.8152-87.3238 45.8629-87.3238C39.8586-87.3238 35.0225-82.4877 35.0225-76.492C35.0225-70.4963 39.8586-65.6603 45.8629-65.6603ZM38.7308 32.2523C41.3948 32.2523 43.7147 29.9221 43.7147 27.2336L43.7147 1.41157L45.8629-16.1238L48.0111 1.41157L48.0111 27.2336C48.0111 29.9221 50.331 32.2523 52.995 32.2523C55.7007 32.2523 57.96 29.9221 57.96 27.2336L57.96-40.8303C57.96-41.4235 58.7219-41.5173 58.9712-41.0291C64.629-30.536 68.1579-20.5895 69.6377-16.2678C70.5322-13.7302 73.3745-12.3047 75.9453-13.2009C77.9726-13.865 79.2734-15.7472 79.2734-17.8179C79.2734-18.3369 79.2008-18.901 79.0123-19.4217C78.6699-20.5459 70.4249-45.1721 60.1275-56.8334C57.9401-59.3442 54.6696-60.8634 51.1745-60.8634L40.5947-60.8634C37.0561-60.8634 33.7771-59.3442 31.5897-56.8334C21.3008-45.1721 13.0559-20.5459 12.7221-19.4217C12.5335-18.901 12.4609-18.3283 12.4609-17.8093C12.4609-15.7472 13.7532-13.865 15.8239-13.2009C18.3513-12.3047 21.1936-13.7302 22.0881-16.2678C23.5765-20.5895 27.0968-30.536 32.7357-40.9983C33.0055-41.5173 33.7572-41.403 33.7572-40.8097L33.7572 27.2336C33.7572 29.9221 36.0251 32.2523 38.7308 32.2523ZM45.8629-96.5158C63.1792-96.5158 73.0813-80.5028 73.0813-53.3267L73.0813-17.7745L79.2734-17.7745L79.2734-53.3267C79.2734-84.5211 67.1025-102.699 45.8629-102.699C24.6753-102.699 12.5044-84.5211 12.5044-53.3267L12.5044-17.7659L18.6965-17.7659L18.6965-53.3267C18.6965-80.5028 28.59-96.5158 45.8629-96.5158Z"/>
  </g>
  <g id="Regular-M" transform="matrix(1 0 0 1 1404.54 1126)">
   <path d="M45.297-65.5694C51.0693-65.5694 55.7517-70.2518 55.7517-76.0758C55.7517-81.8997 51.0693-86.5821 45.297-86.5821C39.4625-86.5821 34.7801-81.8997 34.7801-76.0758C34.7801-70.2518 39.4625-65.5694 45.297-65.5694ZM38.2481 31.1467C40.7604 31.1467 42.9717 28.9354 42.9717 26.3819L42.9717 0.822853L45.297-18.1751L47.6224 0.822853L47.6224 26.3819C47.6224 28.9354 49.8337 31.1467 52.346 31.1467C54.9206 31.1467 57.0591 28.9354 57.0591 26.3819L57.0591-41.7097C57.0591-42.2599 57.8479-42.3845 58.0972-41.886C64.0457-30.8506 67.5444-20.9989 69.008-16.7114C69.8697-14.3132 72.5584-12.9636 75.0084-13.8147C76.9187-14.4378 78.1437-16.2235 78.1437-18.1856C78.1437-18.6841 78.0814-19.2237 77.905-19.7116C77.5935-20.7497 69.4336-45.1354 59.2598-56.6588C57.1214-59.0982 53.9448-60.5724 50.5603-60.5724L40.0856-60.5724C36.6492-60.5724 33.4622-59.0982 31.3237-56.6588C21.1605-45.1354 13.0006-20.7497 12.6996-19.7116C12.5232-19.2237 12.4609-18.6735 12.4609-18.1751C12.4609-16.2235 13.6754-14.4378 15.6375-13.8147C18.0357-12.9636 20.7244-14.3132 21.5861-16.7114C23.0603-20.9989 26.5483-30.8506 32.4864-41.886C32.7356-42.3845 33.5245-42.2599 33.5245-41.7097L33.5245 26.3819C33.5245 28.9354 35.6735 31.1467 38.2481 31.1467ZM45.297-96.1952C62.8459-96.1952 72.7121-79.9799 72.7121-52.1462L72.7121-18.1339L78.1437-18.1339L78.1437-52.1462C78.1437-83.578 66.3289-101.616 45.297-101.616C24.3275-101.616 12.5127-83.578 12.5127-52.1462L12.5127-18.1233L17.9443-18.1233L17.9443-52.1462C17.9443-79.9799 27.8-96.1952 45.297-96.1952Z"/>
  </g>
  <g id="Light-M" transform="matrix(1 0 0 1 1108.73 1126)">
   <path d="M44.3902-65.3127C50.0255-65.3127 54.6224-69.9096 54.6224-75.5795C54.6224-81.2495 50.0255-85.8464 44.3902-85.8464C38.6925-85.8464 34.0957-81.2495 34.0957-75.5795C34.0957-69.9096 38.6925-65.3127 44.3902-65.3127ZM37.5294 29.1105C39.9733 29.1105 42.1332 26.9505 42.1332 24.4997L42.1332-0.374913L44.3902-18.8595L46.6471-0.374913L46.6471 24.4997C46.6471 26.9505 48.8071 29.1105 51.2509 29.1105C53.7571 29.1105 55.8271 26.9505 55.8271 24.4997L55.8271-41.761C55.8271-42.2941 56.5817-42.4187 56.8309-41.9203C62.6255-31.1757 66.0386-21.6149 67.4509-17.4472C68.2955-15.1003 70.8986-13.7849 73.2802-14.6018C75.1563-15.2249 76.3471-16.9764 76.3471-18.8872C76.3471-19.3856 76.2848-19.891 76.1255-20.3618C75.814-21.3657 67.8594-45.0841 57.9594-56.2995C55.8894-58.6533 52.8155-60.0933 49.4994-60.0933L39.3156-60.0933C35.9648-60.0933 32.8633-58.6533 30.7933-56.2995C20.9209-45.0841 12.9664-21.3657 12.6825-20.3618C12.5232-19.891 12.4609-19.3579 12.4609-18.8595C12.4609-16.9764 13.624-15.2249 15.5348-14.6018C17.8817-13.7849 20.4848-15.1003 21.3294-17.4472C22.7694-21.6149 26.1548-31.1757 31.9217-41.9203C32.1709-42.4187 32.9256-42.2941 32.9256-41.761L32.9256 24.4997C32.9256 26.9505 35.0233 29.1105 37.5294 29.1105ZM44.3902-95.1856C61.9048-95.1856 71.9079-79.4494 71.9079-52.2489L71.9079-18.8525L76.3471-18.8525L76.3471-52.2489C76.3471-82.5171 64.7718-99.5971 44.3902-99.5971C24.0708-99.5971 12.4956-82.5171 12.4956-52.2489L12.4956-18.8249L16.9347-18.8249L16.9347-52.2489C16.9347-79.4494 26.9102-95.1856 44.3902-95.1856Z"/>
  </g>
  <g id="Thin-M" transform="matrix(1 0 0 1 813.206 1126)">
   <path d="M43.1907-64.9732C48.645-64.9732 53.1287-69.4569 53.1287-74.9233C53.1287-80.3896 48.645-84.8733 43.1907-84.8733C37.6741-84.8733 33.1904-80.3896 33.1904-74.9233C33.1904-69.4569 37.6741-64.9732 43.1907-64.9732ZM36.5789 26.4174C38.9322 26.4174 41.0243 24.3253 41.0243 22.0103L41.0243-1.95905L43.1907-19.7647L45.3572-1.95905L45.3572 22.0103C45.3572 24.3253 47.4492 26.4174 49.8026 26.4174C52.2182 26.4174 54.1977 24.3253 54.1977 22.0103L54.1977-41.8289C54.1977-42.3394 54.9071-42.464 55.1563-41.9655C60.7472-31.6057 64.0471-22.4296 65.3915-18.4203C66.2135-16.1413 68.7035-14.8712 70.9945-15.6429C72.8253-16.2659 73.9708-17.9722 73.9708-19.815C73.9708-20.3135 73.9085-20.7736 73.7719-21.2218C73.4604-22.1804 65.7774-45.0162 56.2395-55.8242C54.26-58.065 51.3219-59.4597 48.0963-59.4597L38.2972-59.4597C35.0596-59.4597 32.0712-58.065 30.0917-55.8242C20.6041-45.0162 12.9211-22.1804 12.6599-21.2218C12.5232-20.7736 12.4609-20.2632 12.4609-19.7647C12.4609-17.9722 13.5562-16.2659 15.399-15.6429C17.678-14.8712 20.168-16.1413 20.9899-18.4203C22.3847-22.4296 25.6343-31.6057 31.1749-41.9655C31.4241-42.464 32.1335-42.3394 32.1335-41.8289L32.1335 22.0103C32.1335 24.3253 34.1633 26.4174 36.5789 26.4174ZM43.1907-93.8504C60.6601-93.8504 70.8443-78.7479 70.8443-52.3847L70.8443-19.803L73.9708-19.803L73.9708-52.3847C73.9708-81.114 62.7124-96.9267 43.1907-96.9267C23.7314-96.9267 12.4729-81.114 12.4729-52.3847L12.4729-19.7527L15.5995-19.7527L15.5995-52.3847C15.5995-78.7479 25.7334-93.8504 43.1907-93.8504Z"/>
  </g>
  <g id="Ultralight-M" transform="matrix(1 0 0 1 517.104 1126)">
   <path d="M42.5764-64.7994C47.938-64.7994 52.3637-69.2251 52.3637-74.5871C52.3637-79.9491 47.938-84.3748 42.5764-84.3748C37.1525-84.3748 32.7268-79.9491 32.7268-74.5871C32.7268-69.2251 37.1525-64.7994 42.5764-64.7994ZM36.0921 25.0381C38.399 25.0381 40.4564 22.9808 40.4564 20.7353L40.4564-2.77044L42.5764-20.2284L44.6964-2.77044L44.6964 20.7353C44.6964 22.9808 46.7538 25.0381 49.0607 25.0381C51.43 25.0381 53.3631 22.9808 53.3631 20.7353L53.3631-41.8637C53.3631-42.3625 54.0493-42.4871 54.2985-41.9887C59.7851-31.8259 63.0271-22.8469 64.3367-18.9187C65.1471-16.6745 67.5791-15.4276 69.8238-16.1761C71.6314-16.7991 72.7538-18.4822 72.7538-20.2903C72.7538-20.7887 72.6915-21.2257 72.5664-21.6622C72.2549-22.5976 64.711-44.9814 55.3585-55.5808C53.4254-57.7636 50.5569-59.1351 47.3777-59.1351L37.7756-59.1351C34.5959-59.1351 31.6655-57.7636 29.7324-55.5808C20.4418-44.9814 12.8979-22.5976 12.6483-21.6622C12.5232-21.2257 12.4609-20.7268 12.4609-20.2284C12.4609-18.4822 13.5214-16.7991 15.3295-16.1761C17.5737-15.4276 20.0057-16.6745 20.8161-18.9187C22.1876-22.8469 25.3677-31.8259 30.7924-41.9887C31.0416-42.4871 31.7278-42.3625 31.7278-41.8637L31.7278 20.7353C31.7278 22.9808 33.7228 25.0381 36.0921 25.0381ZM42.5764-93.1665C60.0226-93.1665 70.2995-78.3885 70.2995-52.4542L70.2995-20.2898L72.7538-20.2898L72.7538-52.4542C72.7538-80.3953 61.6576-95.5589 42.5764-95.5589C23.5575-95.5589 12.4614-80.3953 12.4614-52.4542L12.4614-20.228L14.9156-20.228L14.9156-52.4542C14.9156-78.3885 25.1307-93.1665 42.5764-93.1665Z"/>
  </g>
  <g id="Black-S" transform="matrix(1 0 0 1 2895.27 696)">
   <path d="M38.1348-59.4238C43.5059-59.4238 47.9004-63.8184 47.9004-69.1895C47.9004-74.5605 43.5059-78.9551 38.1348-78.9551C32.7637-78.9551 28.3691-74.5605 28.3691-69.1895C28.3691-63.8184 32.7637-59.4238 38.1348-59.4238ZM32.2266 21.9238C34.9121 21.9238 37.1582 19.6289 37.1582 16.9922L37.1582-4.24805L38.1348-12.1582L39.1113-4.24805L39.1113 16.9922C39.1113 19.6289 41.3574 21.9238 44.043 21.9238C46.6797 21.9238 48.9258 19.6289 48.9258 16.9922L48.9258-36.1328C48.9258-36.7676 49.4141-36.7188 49.6094-36.377C52.8809-30.3223 55.7617-22.168 56.9824-18.6523C57.8125-16.1133 60.6445-14.6973 63.1348-15.5762C65.1855-16.2598 66.5039-18.1152 66.5039-20.166C66.5039-20.6543 66.4062-21.1914 66.2109-21.7285C65.8203-22.9492 59.0332-43.1641 50.4883-52.832C48.584-55.0781 45.6543-56.4453 42.4805-56.4453L33.7891-56.4453C30.6152-56.4453 27.6855-55.0781 25.7812-52.832C17.2363-43.1641 10.4492-22.9492 10.0586-21.7285C9.86328-21.1914 9.76562-20.6543 9.76562-20.166C9.76562-18.1152 11.084-16.2598 13.1348-15.5762C15.625-14.6973 18.457-16.1133 19.2871-18.6523C20.5078-22.168 23.3887-30.3223 26.6113-36.2305C26.9043-36.7188 27.3438-36.6699 27.3438-36.0352L27.3438 16.9922C27.3438 19.6289 29.5898 21.9238 32.2266 21.9238ZM38.1348-84.4727C50.7812-84.4727 58.6914-72.7539 58.6914-54.1016L58.6914-20.166L66.5039-20.166L66.5039-54.1016C66.5039-77.5391 55.5664-92.2852 38.1348-92.2852C20.7031-92.2852 9.76562-77.5391 9.76562-54.1016L9.76562-20.166L17.5781-20.166L17.5781-54.1016C17.5781-72.7539 25.4883-84.4727 38.1348-84.4727Z"/>
  </g>
  <g id="Heavy-S" transform="matrix(1 0 0 1 2599.07 696)">
   <path d="M37.6162-59.3547C42.8029-59.3547 47.0361-63.5879 47.0361-68.7861C47.0361-73.9843 42.8029-78.2175 37.6162-78.2175C32.4179-78.2175 28.1847-73.9843 28.1847-68.7861C28.1847-63.5879 32.4179-59.3547 37.6162-59.3547ZM31.7771 20.9442C34.3013 20.9442 36.4322 18.7761 36.4322 16.2777L36.4322-4.75512L37.6162-14.3709L38.8002-4.75512L38.8002 16.2777C38.8002 18.7761 40.931 20.9442 43.4552 20.9442C45.9536 20.9442 48.073 18.7761 48.073 16.2777L48.073-37.1124C48.073-37.7011 48.5958-37.6868 48.7911-37.3335C52.4084-30.6334 55.2662-22.5483 56.4753-19.0557C57.2709-16.6665 59.9415-15.3311 62.305-16.1639C64.229-16.8014 65.4667-18.5532 65.4667-20.4887C65.4667-20.9539 65.3806-21.468 65.1968-21.9705C64.8407-23.099 58.1228-43.1295 49.6816-52.6822C47.8234-54.8592 44.9859-56.1802 41.9273-56.1802L33.3166-56.1802C30.2465-56.1802 27.409-54.8592 25.5508-52.6822C17.1096-43.1295 10.3916-23.099 10.0355-21.9705C9.85176-21.468 9.76562-20.9539 9.76562-20.4887C9.76562-18.5532 11.0033-16.8014 12.9388-16.1639C15.2908-15.3311 17.9615-16.6665 18.757-19.0557C19.9662-22.5483 22.824-30.6334 26.4039-37.2216C26.6738-37.6868 27.1594-37.6265 27.1594-37.0378L27.1594 16.2777C27.1594 18.7761 29.2787 20.9442 31.7771 20.9442ZM37.6162-84.2422C50.5277-84.2422 58.3802-72.2353 58.3802-52.7647L58.3802-20.4772L65.4667-20.4772L65.4667-52.7647C65.4667-76.6171 54.898-91.3286 37.6162-91.3286C20.3459-91.3286 9.77715-76.6171 9.77715-52.7647L9.77715-20.4772L16.8636-20.4772L16.8636-52.7647C16.8636-72.2353 24.7161-84.2422 37.6162-84.2422Z"/>
  </g>
  <g id="Bold-S" transform="matrix(1 0 0 1 2302.94 696)">
   <path d="M37.0361-59.2773C42.0166-59.2773 46.0693-63.3301 46.0693-68.335C46.0693-73.3398 42.0166-77.3926 37.0361-77.3926C32.0312-77.3926 27.9785-73.3398 27.9785-68.335C27.9785-63.3301 32.0312-59.2773 37.0361-59.2773ZM31.2744 19.8486C33.6182 19.8486 35.6201 17.8223 35.6201 15.4785L35.6201-5.32227L37.0361-16.8457L38.4521-5.32227L38.4521 15.4785C38.4521 17.8223 40.4541 19.8486 42.7979 19.8486C45.1416 19.8486 47.1191 17.8223 47.1191 15.4785L47.1191-38.208C47.1191-38.7451 47.6807-38.7695 47.876-38.4033C51.8799-30.9814 54.7119-22.9736 55.9082-19.5068C56.665-17.2852 59.1553-16.04 61.377-16.8213C63.1592-17.4072 64.3066-19.043 64.3066-20.8496C64.3066-21.2891 64.2334-21.7773 64.0625-22.2412C63.7451-23.2666 57.1045-43.0908 48.7793-52.5146C46.9727-54.6143 44.2383-55.8838 41.3086-55.8838L32.7881-55.8838C29.834-55.8838 27.0996-54.6143 25.293-52.5146C16.9678-43.0908 10.3271-23.2666 10.0098-22.2412C9.83887-21.7773 9.76562-21.2891 9.76562-20.8496C9.76562-19.043 10.9131-17.4072 12.7197-16.8213C14.917-16.04 17.4072-17.2852 18.1641-19.5068C19.3604-22.9736 22.1924-30.9814 26.1719-38.3301C26.416-38.7695 26.9531-38.6963 26.9531-38.1592L26.9531 15.4785C26.9531 17.8223 28.9307 19.8486 31.2744 19.8486ZM37.0361-83.9844C50.2441-83.9844 58.0322-71.6553 58.0322-51.2695L58.0322-20.8252L64.3066-20.8252L64.3066-51.2695C64.3066-75.5859 54.1504-90.2588 37.0361-90.2588C19.9463-90.2588 9.79004-75.5859 9.79004-51.2695L9.79004-20.8252L16.0645-20.8252L16.0645-51.2695C16.0645-71.6553 23.8525-83.9844 37.0361-83.9844Z"/>
  </g>
  <g id="Semibold-S" transform="matrix(1 0 0 1 2006.63 696)">
   <path d="M36.6362-59.224C41.4745-59.224 45.4028-63.1523 45.4028-68.0239C45.4028-72.8955 41.4745-76.8238 36.6362-76.8238C31.7646-76.8238 27.8363-72.8955 27.8363-68.0239C27.8363-63.1523 31.7646-59.224 36.6362-59.224ZM30.9278 19.0933C33.1472 19.0933 35.0603 17.1646 35.0603 14.9275L35.0603-5.71328L36.6362-18.552L38.2122-5.71328L38.2122 14.9275C38.2122 17.1646 40.1253 19.0933 42.3446 19.0933C44.5817 19.0933 46.4615 17.1646 46.4615 14.9275L46.4615-38.9634C46.4615-39.4649 47.0497-39.516 47.245-39.1409C51.5155-31.2214 54.3298-23.2669 55.5172-19.8179C56.2474-17.7117 58.6132-16.5288 60.7371-17.2745C62.4216-17.8249 63.5068-19.3807 63.5068-21.0984C63.5068-21.5201 63.4425-21.9906 63.2805-22.4278C62.9897-23.3821 56.4024-43.0642 48.1572-52.3991C46.3861-54.4454 43.7229-55.6794 40.882-55.6794L32.4237-55.6794C29.5496-55.6794 26.8863-54.4454 25.1152-52.3991C16.87-43.0642 10.2827-23.3821 9.99199-22.4278C9.82998-21.9906 9.76562-21.5201 9.76562-21.0984C9.76562-19.3807 10.8509-17.8249 12.5687-17.2745C14.6593-16.5288 17.0251-17.7117 17.7553-19.8179C18.9427-23.2669 21.7569-31.2214 26.0119-39.0943C26.2383-39.516 26.8109-39.4339 26.8109-38.9323L26.8109 14.9275C26.8109 17.1646 28.6907 19.0933 30.9278 19.0933ZM36.6362-83.8066C50.0486-83.8066 57.7923-71.2554 57.7923-50.2387L57.7923-21.0651L63.5068-21.0651L63.5068-50.2387C63.5068-74.875 53.635-89.5212 36.6362-89.5212C19.6708-89.5212 9.79893-74.875 9.79893-50.2387L9.79893-21.0651L15.5135-21.0651L15.5135-50.2387C15.5135-71.2554 23.2571-83.8066 36.6362-83.8066Z"/>
  </g>
  <g id="Medium-S" transform="matrix(1 0 0 1 1710.22 696)">
   <path d="M36.333-59.1836C41.0635-59.1836 44.8975-63.0176 44.8975-67.7881C44.8975-72.5586 41.0635-76.3926 36.333-76.3926C31.5625-76.3926 27.7285-72.5586 27.7285-67.7881C27.7285-63.0176 31.5625-59.1836 36.333-59.1836ZM30.665 18.5205C32.79 18.5205 34.6357 16.666 34.6357 14.5098L34.6357-6.00977L36.333-19.8457L38.0303-6.00977L38.0303 14.5098C38.0303 16.666 39.876 18.5205 42.001 18.5205C44.1572 18.5205 45.9629 16.666 45.9629 14.5098L45.9629-39.5361C45.9629-40.0107 46.5713-40.082 46.7666-39.7002C51.2393-31.4033 54.04-23.4893 55.2207-20.0537C55.9307-18.0352 58.2021-16.8994 60.252-17.6182C61.8623-18.1416 62.9004-19.6367 62.9004-21.2871C62.9004-21.6953 62.8428-22.1523 62.6875-22.5693C62.417-23.4697 55.8701-43.0439 47.6855-52.3115C45.9414-54.3174 43.332-55.5244 40.5586-55.5244L32.1475-55.5244C29.334-55.5244 26.7246-54.3174 24.9805-52.3115C16.7959-43.0439 10.249-23.4697 9.97852-22.5693C9.82324-22.1523 9.76562-21.6953 9.76562-21.2871C9.76562-19.6367 10.8037-18.1416 12.4541-17.6182C14.4639-16.8994 16.7354-18.0352 17.4453-20.0537C18.626-23.4893 21.4268-31.4033 25.8906-39.6738C26.1035-40.082 26.7031-39.9932 26.7031-39.5186L26.7031 14.5098C26.7031 16.666 28.5088 18.5205 30.665 18.5205ZM36.333-83.6719C49.9004-83.6719 57.6104-70.9521 57.6104-49.457L57.6104-21.2471L62.9004-21.2471L62.9004-49.457C62.9004-74.3359 53.2441-88.9619 36.333-88.9619C19.4619-88.9619 9.80566-74.3359 9.80566-49.457L9.80566-21.2471L15.0957-21.2471L15.0957-49.457C15.0957-70.9521 22.8057-83.6719 36.333-83.6719Z"/>
  </g>
  <g id="Regular-S" transform="matrix(1 0 0 1 1413.91 696)">
   <path d="M35.9375-59.1309C40.5273-59.1309 44.2383-62.8418 44.2383-67.4805C44.2383-72.1191 40.5273-75.8301 35.9375-75.8301C31.2988-75.8301 27.5879-72.1191 27.5879-67.4805C27.5879-62.8418 31.2988-59.1309 35.9375-59.1309ZM30.3223 17.7734C32.3242 17.7734 34.082 16.0156 34.082 13.9648L34.082-6.39648L35.9375-21.5332L37.793-6.39648L37.793 13.9648C37.793 16.0156 39.5508 17.7734 41.5527 17.7734C43.6035 17.7734 45.3125 16.0156 45.3125 13.9648L45.3125-40.2832C45.3125-40.7227 45.9473-40.8203 46.1426-40.4297C50.8789-31.6406 53.6621-23.7793 54.834-20.3613C55.5176-18.457 57.666-17.3828 59.6191-18.0664C61.1328-18.5547 62.1094-19.9707 62.1094-21.5332C62.1094-21.9238 62.0605-22.3633 61.9141-22.7539C61.6699-23.584 55.1758-43.0176 47.0703-52.1973C45.3613-54.1504 42.8223-55.3223 40.1367-55.3223L31.7871-55.3223C29.0527-55.3223 26.5137-54.1504 24.8047-52.1973C16.6992-43.0176 10.2051-23.584 9.96094-22.7539C9.81445-22.3633 9.76562-21.9238 9.76562-21.5332C9.76562-19.9707 10.7422-18.5547 12.3047-18.0664C14.209-17.3828 16.3574-18.457 17.041-20.3613C18.2129-23.7793 20.9961-31.6406 25.7324-40.4297C25.9277-40.8203 26.5625-40.7227 26.5625-40.2832L26.5625 13.9648C26.5625 16.0156 28.2715 17.7734 30.3223 17.7734ZM35.9375-83.4961C49.707-83.4961 57.373-70.5566 57.373-48.4375L57.373-21.4844L62.1094-21.4844L62.1094-48.4375C62.1094-73.6328 52.7344-88.2324 35.9375-88.2324C19.1895-88.2324 9.81445-73.6328 9.81445-48.4375L9.81445-21.4844L14.5508-21.4844L14.5508-48.4375C14.5508-70.5566 22.2168-83.4961 35.9375-83.4961Z"/>
  </g>
  <g id="Light-S" transform="matrix(1 0 0 1 1117.99 696)">
   <path d="M35.1353-58.9038C39.604-58.9038 43.2393-62.5391 43.2393-67.0415C43.2393-71.5439 39.604-75.1792 35.1353-75.1792C30.6177-75.1792 26.9824-71.5439 26.9824-67.0415C26.9824-62.5391 30.6177-58.9038 35.1353-58.9038ZM29.6865 15.9722C31.6279 15.9722 33.3403 14.2598 33.3403 12.2998L33.3403-7.45605L35.1353-22.1387L36.9302-7.45605L36.9302 12.2998C36.9302 14.2598 38.6426 15.9722 40.584 15.9722C42.5742 15.9722 44.2227 14.2598 44.2227 12.2998L44.2227-40.3286C44.2227-40.7529 44.8272-40.8506 45.0225-40.46C49.6226-31.9282 52.3301-24.3242 53.4566-21.0122C54.125-19.1533 56.1978-18.1094 58.0903-18.7627C59.5737-19.251 60.52-20.6367 60.52-22.1538C60.52-22.5444 60.4712-22.9536 60.3399-23.3291C60.0957-24.1289 53.7832-42.9722 45.9199-51.8794C44.2715-53.7568 41.8233-54.8984 39.1982-54.8984L31.106-54.8984C28.4473-54.8984 25.9839-53.7568 24.3355-51.8794C16.4873-42.9722 10.1748-24.1289 9.9458-23.3291C9.81445-22.9536 9.76562-22.5293 9.76562-22.1387C9.76562-20.6367 10.6968-19.251 12.2139-18.7627C14.0728-18.1094 16.1455-19.1533 16.814-21.0122C17.9556-24.3242 20.648-31.9282 25.2329-40.46C25.4282-40.8506 26.0327-40.7529 26.0327-40.3286L26.0327 12.2998C26.0327 14.2598 27.6963 15.9722 29.6865 15.9722ZM35.1353-82.603C48.8745-82.603 56.6616-70.0874 56.6616-48.5283L56.6616-22.1201L60.52-22.1201L60.52-48.5283C60.52-72.6943 51.3569-86.4463 35.1353-86.4463C18.9624-86.4463 9.79932-72.6943 9.79932-48.5283L9.79932-22.105L13.6577-22.105L13.6577-48.5283C13.6577-70.0874 21.4297-82.603 35.1353-82.603Z"/>
  </g>
  <g id="Thin-S" transform="matrix(1 0 0 1 822.33 696)">
   <path d="M34.0742-58.6035C38.3828-58.6035 41.918-62.1387 41.918-66.4609C41.918-70.7832 38.3828-74.3184 34.0742-74.3184C29.7168-74.3184 26.1817-70.7832 26.1817-66.4609C26.1817-62.1387 29.7168-58.6035 34.0742-58.6035ZM28.8457 13.5899C30.707 13.5899 32.3594 11.9375 32.3594 10.0977L32.3594-8.8574L34.0742-22.9394L35.7891-8.8574L35.7891 10.0977C35.7891 11.9375 37.4414 13.5899 39.3028 13.5899C41.2129 13.5899 42.7813 11.9375 42.7813 10.0977L42.7813-40.3887C42.7813-40.793 43.3457-40.8906 43.541-40.5C47.961-32.3086 50.5684-25.0449 51.6348-21.873C52.2832-20.0742 54.2559-19.0703 56.0684-19.6836C57.5117-20.1719 58.418-21.5176 58.418-22.9746C58.418-23.3652 58.3692-23.7344 58.2578-24.0898C58.0137-24.8496 51.9414-42.9121 44.3985-51.459C42.8301-53.2363 40.502-54.3379 37.957-54.3379L30.2051-54.3379C27.6465-54.3379 25.2832-53.2363 23.7149-51.459C16.207-42.9121 10.1348-24.8496 9.92578-24.0898C9.81445-23.7344 9.76562-23.3301 9.76562-22.9394C9.76562-21.5176 10.6367-20.1719 12.0938-19.6836C13.8926-19.0703 15.8652-20.0742 16.5137-21.873C17.6152-25.0449 20.1875-32.3086 24.5723-40.5C24.7676-40.8906 25.332-40.793 25.332-40.3887L25.332 10.0977C25.332 11.9375 26.9356 13.5899 28.8457 13.5899ZM34.0742-81.4219C47.7735-81.4219 55.7207-69.4668 55.7207-48.6484L55.7207-22.9609L58.418-22.9609L58.418-48.6484C58.418-71.4531 49.5352-84.084 34.0742-84.084C18.6621-84.084 9.7793-71.4531 9.7793-48.6484L9.7793-22.9258L12.4766-22.9258L12.4766-48.6484C12.4766-69.4668 20.3887-81.4219 34.0742-81.4219Z"/>
  </g>
  <g id="Ultralight-S" transform="matrix(1 0 0 1 526.158 696)">
   <path d="M33.5308-58.4497C37.7573-58.4497 41.2412-61.9336 41.2412-66.1636C41.2412-70.3936 37.7573-73.8775 33.5308-73.8775C29.2554-73.8775 25.7715-70.3936 25.7715-66.1636C25.7715-61.9336 29.2554-58.4497 33.5308-58.4497ZM28.4151 12.3697C30.2354 12.3697 31.857 10.7481 31.857 8.96977L31.857-9.57517L33.5308-23.3496L35.2046-9.57517L35.2046 8.96977C35.2046 10.7481 36.8262 12.3697 38.6465 12.3697C40.5156 12.3697 42.043 10.7481 42.043 8.96977L42.043-40.4194C42.043-40.8135 42.5869-40.9111 42.7823-40.5205C47.1099-32.5034 49.666-25.414 50.7017-22.3139C51.3399-20.5459 53.2613-19.5625 55.0328-20.1553C56.4556-20.6435 57.3413-21.9687 57.3413-23.395C57.3413-23.7856 57.2925-24.1343 57.1914-24.4795C56.9473-25.2187 50.9981-42.8813 43.6192-51.2437C42.0918-52.9697 39.8252-54.0508 37.3213-54.0508L29.7437-54.0508C27.2363-54.0508 24.9243-52.9697 23.397-51.2437C16.0635-42.8813 10.1143-25.2187 9.91553-24.4795C9.81445-24.1343 9.76562-23.7402 9.76562-23.3496C9.76562-21.9687 10.606-20.6435 12.0322-20.1553C13.8003-19.5625 15.7217-20.5459 16.3599-22.3139C17.4409-25.414 19.9517-32.5034 24.2339-40.5205C24.4292-40.9111 24.9732-40.8135 24.9732-40.4194L24.9732 8.96977C24.9732 10.7481 26.5459 12.3697 28.4151 12.3697ZM33.5308-80.8169C47.2095-80.8169 55.2388-69.1489 55.2388-48.71L55.2388-23.3916L57.3413-23.3916L57.3413-48.71C57.3413-70.8174 48.6021-82.8741 33.5308-82.8741C18.5083-82.8741 9.76904-70.8174 9.76904-48.71L9.76904-23.3462L11.8716-23.3462L11.8716-48.71C11.8716-69.1489 19.8555-80.8169 33.5308-80.8169Z"/>
  </g>
 </g>
</svg>
