<?xml version="1.0" encoding="UTF-8"?>
<!--Generator: Apple Native CoreSVG 175.5-->
<!DOCTYPE svg
PUBLIC "-//W3C//DTD SVG 1.1//EN"
       "http://www.w3.org/Graphics/SVG/1.1/DTD/svg11.dtd">
<svg version="1.1" xmlns="http://www.w3.org/2000/svg" xmlns:xlink="http://www.w3.org/1999/xlink" width="3300" height="2200">
 <!--glyph: "uni10152C.medium", point size: 100.0, font version: "18.0d12e2", template writer version: "101"-->
 <g id="Notes">
  <rect height="2200" id="artboard" style="fill:white;opacity:1" width="3300" x="0" y="0"/>
  <line style="fill:none;stroke:black;opacity:1;stroke-width:0.5;" x1="263" x2="3036" y1="292" y2="292"/>
  <text style="stroke:none;fill:black;font-family:sans-serif;font-size:13;font-weight:bold;" transform="matrix(1 0 0 1 263 322)">Weight/Scale Variations</text>
  <text style="stroke:none;fill:black;font-family:sans-serif;font-size:13;text-anchor:middle;" transform="matrix(1 0 0 1 559.711 322)">Ultralight</text>
  <text style="stroke:none;fill:black;font-family:sans-serif;font-size:13;text-anchor:middle;" transform="matrix(1 0 0 1 856.422 322)">Thin</text>
  <text style="stroke:none;fill:black;font-family:sans-serif;font-size:13;text-anchor:middle;" transform="matrix(1 0 0 1 1153.13 322)">Light</text>
  <text style="stroke:none;fill:black;font-family:sans-serif;font-size:13;text-anchor:middle;" transform="matrix(1 0 0 1 1449.84 322)">Regular</text>
  <text style="stroke:none;fill:black;font-family:sans-serif;font-size:13;text-anchor:middle;" transform="matrix(1 0 0 1 1746.56 322)">Medium</text>
  <text style="stroke:none;fill:black;font-family:sans-serif;font-size:13;text-anchor:middle;" transform="matrix(1 0 0 1 2043.27 322)">Semibold</text>
  <text style="stroke:none;fill:black;font-family:sans-serif;font-size:13;text-anchor:middle;" transform="matrix(1 0 0 1 2339.98 322)">Bold</text>
  <text style="stroke:none;fill:black;font-family:sans-serif;font-size:13;text-anchor:middle;" transform="matrix(1 0 0 1 2636.69 322)">Heavy</text>
  <text style="stroke:none;fill:black;font-family:sans-serif;font-size:13;text-anchor:middle;" transform="matrix(1 0 0 1 2933.4 322)">Black</text>
  <line style="fill:none;stroke:black;opacity:1;stroke-width:0.5;" x1="263" x2="3036" y1="1903" y2="1903"/>
  <g transform="matrix(1 0 0 1 263 1933)">
   <path d="M9.24805 0.830078C13.5547 0.830078 17.1387-2.74414 17.1387-7.05078C17.1387-11.3574 13.5449-14.9316 9.23828-14.9316C4.94141-14.9316 1.36719-11.3574 1.36719-7.05078C1.36719-2.74414 4.95117 0.830078 9.24805 0.830078ZM9.24805-0.654297C5.70312-0.654297 2.87109-3.49609 2.87109-7.05078C2.87109-10.6055 5.69336-13.4473 9.23828-13.4473C12.793-13.4473 15.6445-10.6055 15.6445-7.05078C15.6445-3.49609 12.8027-0.654297 9.24805-0.654297ZM5.6543-7.05078C5.6543-6.62109 5.95703-6.32812 6.40625-6.32812L8.50586-6.32812L8.50586-4.20898C8.50586-3.76953 8.79883-3.4668 9.22852-3.4668C9.67773-3.4668 9.9707-3.76953 9.9707-4.20898L9.9707-6.32812L12.0898-6.32812C12.5293-6.32812 12.832-6.62109 12.832-7.05078C12.832-7.49023 12.5293-7.79297 12.0898-7.79297L9.9707-7.79297L9.9707-9.90234C9.9707-10.3516 9.67773-10.6543 9.22852-10.6543C8.79883-10.6543 8.50586-10.3516 8.50586-9.90234L8.50586-7.79297L6.40625-7.79297C5.95703-7.79297 5.6543-7.49023 5.6543-7.05078Z"/>
  </g>
  <g transform="matrix(1 0 0 1 281.867 1933)">
   <path d="M11.709 2.91016C17.1582 2.91016 21.6699-1.61133 21.6699-7.05078C21.6699-12.5 17.1484-17.0117 11.6992-17.0117C6.25977-17.0117 1.74805-12.5 1.74805-7.05078C1.74805-1.61133 6.26953 2.91016 11.709 2.91016ZM11.709 1.25C7.09961 1.25 3.41797-2.44141 3.41797-7.05078C3.41797-11.6602 7.08984-15.3516 11.6992-15.3516C16.3086-15.3516 20.0098-11.6602 20.0098-7.05078C20.0098-2.44141 16.3184 1.25 11.709 1.25ZM7.17773-7.05078C7.17773-6.57227 7.50977-6.25 8.00781-6.25L10.8789-6.25L10.8789-3.36914C10.8789-2.88086 11.2109-2.53906 11.6895-2.53906C12.1777-2.53906 12.5195-2.87109 12.5195-3.36914L12.5195-6.25L15.4004-6.25C15.8887-6.25 16.2305-6.57227 16.2305-7.05078C16.2305-7.53906 15.8887-7.88086 15.4004-7.88086L12.5195-7.88086L12.5195-10.752C12.5195-11.25 12.1777-11.5918 11.6895-11.5918C11.2109-11.5918 10.8789-11.25 10.8789-10.752L10.8789-7.88086L8.00781-7.88086C7.50977-7.88086 7.17773-7.53906 7.17773-7.05078Z"/>
  </g>
  <g transform="matrix(1 0 0 1 305.646 1933)">
   <path d="M14.9707 5.66406C21.9336 5.66406 27.6953-0.0976562 27.6953-7.05078C27.6953-14.0137 21.9238-19.7754 14.9609-19.7754C8.00781-19.7754 2.25586-14.0137 2.25586-7.05078C2.25586-0.0976562 8.01758 5.66406 14.9707 5.66406ZM14.9707 3.84766C8.93555 3.84766 4.08203-1.01562 4.08203-7.05078C4.08203-13.0957 8.92578-17.9492 14.9609-17.9492C21.0059-17.9492 25.8691-13.0957 25.8691-7.05078C25.8691-1.01562 21.0156 3.84766 14.9707 3.84766ZM9.19922-7.05078C9.19922-6.5332 9.57031-6.17188 10.1172-6.17188L14.0625-6.17188L14.0625-2.2168C14.0625-1.67969 14.4336-1.29883 14.9512-1.29883C15.4883-1.29883 15.8594-1.66992 15.8594-2.2168L15.8594-6.17188L19.8145-6.17188C20.3516-6.17188 20.7324-6.5332 20.7324-7.05078C20.7324-7.59766 20.3613-7.96875 19.8145-7.96875L15.8594-7.96875L15.8594-11.9141C15.8594-12.4609 15.4883-12.8418 14.9512-12.8418C14.4336-12.8418 14.0625-12.4609 14.0625-11.9141L14.0625-7.96875L10.1172-7.96875C9.57031-7.96875 9.19922-7.59766 9.19922-7.05078Z"/>
  </g>
  <text style="stroke:none;fill:black;font-family:sans-serif;font-size:13;font-weight:bold;" transform="matrix(1 0 0 1 263 1953)">Design Variations</text>
  <text style="stroke:none;fill:black;font-family:sans-serif;font-size:13;" transform="matrix(1 0 0 1 263 1971)">Symbols are supported in up to nine weights and three scales.</text>
  <text style="stroke:none;fill:black;font-family:sans-serif;font-size:13;" transform="matrix(1 0 0 1 263 1989)">For optimal layout with text and other symbols, vertically align</text>
  <text style="stroke:none;fill:black;font-family:sans-serif;font-size:13;" transform="matrix(1 0 0 1 263 2007)">symbols with the adjacent text.</text>
  <line style="fill:none;stroke:#00AEEF;stroke-width:0.5;opacity:1.0;" x1="776" x2="776" y1="1919" y2="1933"/>
  <g transform="matrix(1 0 0 1 776 1933)">
   <path d="M3.31055 0.15625C3.82812 0.15625 4.08203-0.0390625 4.26758-0.585938L5.52734-4.0332L11.2891-4.0332L12.5488-0.585938C12.7344-0.0390625 12.9883 0.15625 13.4961 0.15625C14.0137 0.15625 14.3457-0.15625 14.3457-0.644531C14.3457-0.810547 14.3164-0.966797 14.2383-1.17188L9.6582-13.3691C9.43359-13.9648 9.0332-14.2676 8.4082-14.2676C7.80273-14.2676 7.39258-13.9746 7.17773-13.3789L2.59766-1.16211C2.51953-0.957031 2.49023-0.800781 2.49023-0.634766C2.49023-0.146484 2.80273 0.15625 3.31055 0.15625ZM6.00586-5.51758L8.37891-12.0898L8.42773-12.0898L10.8008-5.51758Z"/>
  </g>
  <line style="fill:none;stroke:#00AEEF;stroke-width:0.5;opacity:1.0;" x1="793.197" x2="793.197" y1="1919" y2="1933"/>
  <text style="stroke:none;fill:black;font-family:sans-serif;font-size:13;font-weight:bold;" transform="matrix(1 0 0 1 776 1953)">Margins</text>
  <text style="stroke:none;fill:black;font-family:sans-serif;font-size:13;" transform="matrix(1 0 0 1 776 1971)">Leading and trailing margins on the left and right side of each symbol</text>
  <text style="stroke:none;fill:black;font-family:sans-serif;font-size:13;" transform="matrix(1 0 0 1 776 1989)">can be adjusted by modifying the x-location of the margin guidelines.</text>
  <text style="stroke:none;fill:black;font-family:sans-serif;font-size:13;" transform="matrix(1 0 0 1 776 2007)">Modifications are automatically applied proportionally to all</text>
  <text style="stroke:none;fill:black;font-family:sans-serif;font-size:13;" transform="matrix(1 0 0 1 776 2025)">scales and weights.</text>
  <g transform="matrix(1 0 0 1 1289 1933)">
   <path d="M2.8418 1.86523L4.54102 3.57422C5.40039 4.44336 6.38672 4.38477 7.31445 3.35938L18.0078-8.42773L17.041-9.4043L6.42578 2.27539C6.07422 2.67578 5.74219 2.77344 5.27344 2.30469L4.10156 1.14258C3.63281 0.683594 3.74023 0.341797 4.14062-0.0195312L15.6152-10.8203L14.6387-11.7871L3.04688-0.898438C2.06055 0.0195312 1.98242 0.996094 2.8418 1.86523ZM9.25781-16.3281C8.83789-15.918 8.80859-15.3418 9.04297-14.9512C9.27734-14.5898 9.73633-14.3555 10.3809-14.5215C11.8457-14.8633 13.3691-14.9219 14.7949-13.9844L14.209-12.5293C13.8672-11.6992 14.043-11.1133 14.5801-10.5664L16.875-8.25195C17.3633-7.76367 17.7734-7.74414 18.3398-7.8418L19.4043-8.03711L20.0684-7.36328L20.0293-6.80664C19.9902-6.30859 20.1172-5.92773 20.6055-5.44922L21.3672-4.70703C21.8457-4.22852 22.4609-4.19922 22.9297-4.66797L25.8398-7.58789C26.3086-8.05664 26.2891-8.65234 25.8105-9.13086L25.0391-9.89258C24.5605-10.3711 24.1895-10.5273 23.7109-10.4883L23.1348-10.4395L22.4902-11.0742L22.7344-12.1973C22.8613-12.7637 22.7051-13.2031 22.1191-13.7891L19.9219-15.9766C16.582-19.2969 12.1484-19.2188 9.25781-16.3281ZM10.752-15.957C13.1836-17.7344 16.4746-17.4316 18.7012-15.2051L21.1328-12.793C21.3672-12.5586 21.4062-12.373 21.3379-12.0312L21.0156-10.5469L22.5195-9.0625L23.5059-9.12109C23.7598-9.13086 23.8379-9.11133 24.0332-8.91602L24.6094-8.33984L22.168-5.89844L21.5918-6.47461C21.3965-6.66992 21.3672-6.74805 21.377-7.01172L21.4453-7.98828L19.9512-9.47266L18.4277-9.21875C18.1055-9.15039 17.959-9.17969 17.7148-9.41406L15.7129-11.416C15.459-11.6504 15.4297-11.8164 15.5859-12.1875L16.4648-14.2773C14.9023-15.7324 12.8711-16.3574 10.8398-15.7617C10.6836-15.7227 10.625-15.8496 10.752-15.957Z"/>
  </g>
  <text style="stroke:none;fill:black;font-family:sans-serif;font-size:13;font-weight:bold;" transform="matrix(1 0 0 1 1289 1953)">Exporting</text>
  <text style="stroke:none;fill:black;font-family:sans-serif;font-size:13;" transform="matrix(1 0 0 1 1289 1971)">Symbols should be outlined when exporting to ensure the</text>
  <text style="stroke:none;fill:black;font-family:sans-serif;font-size:13;" transform="matrix(1 0 0 1 1289 1989)">design is preserved when submitting to Xcode.</text>
  <text id="template-version" style="stroke:none;fill:black;font-family:sans-serif;font-size:13;text-anchor:end;" transform="matrix(1 0 0 1 3036 1933)">Template v.4.0</text>
  <text style="stroke:none;fill:black;font-family:sans-serif;font-size:13;text-anchor:end;" transform="matrix(1 0 0 1 3036 1951)">Requires Xcode 14 or greater</text>
  <text id="descriptive-name" style="stroke:none;fill:black;font-family:sans-serif;font-size:13;text-anchor:end;" transform="matrix(1 0 0 1 3036 1969)">Generated from figure.handball</text>
  <text style="stroke:none;fill:black;font-family:sans-serif;font-size:13;text-anchor:end;" transform="matrix(1 0 0 1 3036 1987)">Typeset at 100 points</text>
  <text style="stroke:none;fill:black;font-family:sans-serif;font-size:13;" transform="matrix(1 0 0 1 263 726)">Small</text>
  <text style="stroke:none;fill:black;font-family:sans-serif;font-size:13;" transform="matrix(1 0 0 1 263 1156)">Medium</text>
  <text style="stroke:none;fill:black;font-family:sans-serif;font-size:13;" transform="matrix(1 0 0 1 263 1586)">Large</text>
 </g>
 <g id="Guides">
  <g id="H-reference" style="fill:#27AAE1;stroke:none;" transform="matrix(1 0 0 1 339 696)">
   <path d="M0.993654 0L3.63775 0L29.3281-67.1323L30.0303-67.1323L30.0303-70.459L28.1226-70.459ZM11.6885-24.4799L46.9815-24.4799L46.2315-26.7285L12.4385-26.7285ZM55.1196 0L57.7637 0L30.6382-70.459L29.4326-70.459L29.4326-67.1323Z"/>
  </g>
  <line id="Baseline-S" style="fill:none;stroke:#27AAE1;opacity:1;stroke-width:0.5;" x1="263" x2="3036" y1="696" y2="696"/>
  <line id="Capline-S" style="fill:none;stroke:#27AAE1;opacity:1;stroke-width:0.5;" x1="263" x2="3036" y1="625.541" y2="625.541"/>
  <g id="H-reference" style="fill:#27AAE1;stroke:none;" transform="matrix(1 0 0 1 339 1126)">
   <path d="M0.993654 0L3.63775 0L29.3281-67.1323L30.0303-67.1323L30.0303-70.459L28.1226-70.459ZM11.6885-24.4799L46.9815-24.4799L46.2315-26.7285L12.4385-26.7285ZM55.1196 0L57.7637 0L30.6382-70.459L29.4326-70.459L29.4326-67.1323Z"/>
  </g>
  <line id="Baseline-M" style="fill:none;stroke:#27AAE1;opacity:1;stroke-width:0.5;" x1="263" x2="3036" y1="1126" y2="1126"/>
  <line id="Capline-M" style="fill:none;stroke:#27AAE1;opacity:1;stroke-width:0.5;" x1="263" x2="3036" y1="1055.54" y2="1055.54"/>
  <g id="H-reference" style="fill:#27AAE1;stroke:none;" transform="matrix(1 0 0 1 339 1556)">
   <path d="M0.993654 0L3.63775 0L29.3281-67.1323L30.0303-67.1323L30.0303-70.459L28.1226-70.459ZM11.6885-24.4799L46.9815-24.4799L46.2315-26.7285L12.4385-26.7285ZM55.1196 0L57.7637 0L30.6382-70.459L29.4326-70.459L29.4326-67.1323Z"/>
  </g>
  <line id="Baseline-L" style="fill:none;stroke:#27AAE1;opacity:1;stroke-width:0.5;" x1="263" x2="3036" y1="1556" y2="1556"/>
  <line id="Capline-L" style="fill:none;stroke:#27AAE1;opacity:1;stroke-width:0.5;" x1="263" x2="3036" y1="1485.54" y2="1485.54"/>
  <line id="left-margin-Regular-M" style="fill:none;stroke:#00AEEF;stroke-width:0.5;opacity:1.0;" x1="1370.13" x2="1370.13" y1="1030.79" y2="1150.12"/>
  <line id="right-margin-Regular-M" style="fill:none;stroke:#00AEEF;stroke-width:0.5;opacity:1.0;" x1="1529.56" x2="1529.56" y1="1030.79" y2="1150.12"/>
 </g>
 <g id="Symbols">
  <g id="Black-L" transform="matrix(1 0 0 1 2825.09 1556)">
   <path d="M87.2552-86.5707C93.5123-86.5707 98.5707-91.5487 98.5707-97.885C98.5707-104.163 93.5123-109.222 87.2552-109.222C80.9762-109.222 75.919-104.163 75.919-97.885C75.919-91.5487 80.9762-86.5707 87.2552-86.5707ZM23.9318 6.9256L60.0907 6.9256C62.1936 6.9256 63.1135 6.82436 64.617 6.44428L98.5558-1.77863C99.72-2.05509 100.687-1.26331 100.549-0.0406692L98.688 15.2473L87.9485 7.62706C84.3937 5.12968 79.4221 5.96908 76.926 9.44467C74.291 12.9995 75.1083 17.9918 78.7216 20.5476L98.7608 34.7093C104.237 38.587 111.266 37.2507 112.705 31.3594L130.663-40.8699C130.904-41.8493 131.415-42.1554 132.415-41.9361L191.124-30.2776C197.095-29.0802 200.528-33.5912 200.528-38.045C200.528-41.3222 198.592-44.9522 194.277-45.7916L135.474-57.6229C118.047-61.0917 107.04-62.6978 94.5489-62.6978L79.1301-62.6978L79.1301-78.4382C79.1301-82.8908 75.5753-86.4236 71.2239-86.4236C66.7713-86.4236 63.2957-82.8908 63.2957-78.4382L63.2957-54.8708C63.2957-50.4998 66.7713-46.9438 71.2239-46.9438L98.2055-46.9438C99.2354-46.9438 99.8268-46.1343 99.5051-44.9876L94.381-25.1802C93.5572-22.1226 91.6207-19.9836 88.6423-18.9173L59.7559-8.8284L23.9318-8.8284C19.4792-8.8284 16.084-5.27358 16.084-0.901378C16.084 3.55244 19.4792 6.9256 23.9318 6.9256ZM123.112-66.4926C131.638-66.4926 138.603-73.4578 138.603-82.0047C138.603-90.5307 131.638-97.4752 123.112-97.4752C114.565-97.4752 107.6-90.5307 107.6-82.0047C107.6-73.4578 114.565-66.4926 123.112-66.4926Z"/>
  </g>
  <g id="Heavy-L" transform="matrix(1 0 0 1 2529.82 1556)">
   <path d="M85.7027-85.7494C91.7265-85.7494 96.6068-90.5493 96.6068-96.6479C96.6068-102.702 91.7265-107.588 85.7027-107.588C79.6431-107.588 74.7685-102.702 74.7685-96.6479C74.7685-90.5493 79.6431-85.7494 85.7027-85.7494ZM23.5794 5.78071L59.2634 5.78071C61.3161 5.78071 62.204 5.67011 63.6849 5.3038L97.7911-2.95269C98.8136-3.19716 99.6664-2.47819 99.547-1.41105L97.5886 14.7298L86.1754 6.61559C82.7761 4.22354 78.0334 5.03095 75.647 8.35546C73.1355 11.7548 73.9071 16.5276 77.351 18.9643L97.6063 33.2627C102.867 36.9893 109.585 35.7263 110.965 30.0958L128.757-41.4228C128.998-42.3609 129.573-42.7039 130.542-42.4985L188.693-30.9431C194.399-29.8052 197.657-34.1012 197.657-38.3581C197.657-41.5074 195.823-44.9356 191.691-45.743L133.638-57.4209C116.446-60.8352 105.602-62.4324 93.2968-62.4324L77.8103-62.4324L77.8103-78.2405C77.8103-82.4919 74.411-85.8554 70.2702-85.8554C66.0189-85.8554 62.6944-82.4919 62.6944-78.2405L62.6944-54.9671C62.6944-50.8018 66.0189-47.3969 70.2702-47.3969L97.1061-47.3969C98.1729-47.3969 98.8288-46.5411 98.5071-45.3851L93.3726-25.5965C92.5438-22.5058 90.5566-20.2974 87.5407-19.2218L58.9743-9.25477L23.5794-9.25477C19.3281-9.25477 16.084-5.85546 16.084-1.68454C16.084 2.57242 19.3281 5.78071 23.5794 5.78071ZM121.507-66.256C129.796-66.256 136.565-73.0249 136.565-81.344C136.565-89.6329 129.796-96.3716 121.507-96.3716C113.188-96.3716 106.419-89.6329 106.419-81.344C106.419-73.0249 113.188-66.256 121.507-66.256Z"/>
  </g>
  <g id="Bold-L" transform="matrix(1 0 0 1 2235 1556)">
   <path d="M83.7519-84.6754C89.4987-84.6754 94.1636-89.26 94.1636-95.0739C94.1636-100.859 89.4987-105.537 83.7519-105.537C77.9538-105.537 73.3021-100.859 73.3021-95.0739C73.3021-89.26 77.9538-84.6754 83.7519-84.6754ZM23.1638 4.37419L58.2041 4.37419C60.1953 4.37419 61.0447 4.25578 62.495 3.9049L96.6894-4.36776C97.5426-4.57377 98.2571-3.94694 98.1607-3.06447L96.1018 13.9876L83.9778 5.35564C80.7632 3.08676 76.2899 3.85572 74.0342 7.00318C71.669 10.2178 72.3867 14.7291 75.6306 17.0272L96.0578 31.4275C101.065 34.9771 107.414 33.7988 108.724 28.4762L126.271-42.0173C126.512-42.9091 127.157-43.2908 128.087-43.1007L185.428-31.6983C190.818-30.6297 193.876-34.6717 193.876-38.6977C193.876-41.6931 192.157-44.8902 188.241-45.6592L131.214-57.1228C114.337-60.4679 103.715-62.0498 91.6552-62.0498L76.1439-62.0498L76.1439-77.8829C76.1439-81.8957 72.9292-85.0591 69.0348-85.0591C65.022-85.0591 61.8745-81.8957 61.8745-77.8829L61.8745-55.008C61.8745-51.0888 65.022-47.8609 69.0348-47.8609L95.6193-47.8609C96.7248-47.8609 97.4501-46.9588 97.1285-45.7949L92.001-26.089C91.172-22.9748 89.1307-20.6966 86.0837-19.6132L57.9689-9.81471L23.1638-9.81471C19.151-9.81471 16.084-6.60006 16.084-2.66767C16.084 1.35836 19.151 4.37419 23.1638 4.37419ZM119.39-65.9565C127.387-65.9565 133.917-72.4871 133.917-80.5219C133.917-88.5188 127.387-95.0114 119.39-95.0114C111.355-95.0114 104.825-88.5188 104.825-80.5219C104.825-72.4871 111.355-65.9565 119.39-65.9565Z"/>
  </g>
  <g id="Semibold-L" transform="matrix(1 0 0 1 1939.59 1556)">
   <path d="M82.4069-83.935C87.9628-83.935 92.4793-88.3711 92.4793-93.9889C92.4793-99.5881 87.9628-104.123 82.4069-104.123C76.7893-104.123 72.2912-99.5881 72.2912-93.9889C72.2912-88.3711 76.7893-83.935 82.4069-83.935ZM22.8773 3.40454L57.4738 3.40454C59.4227 3.40454 60.2455 3.28075 61.6747 2.9405L95.9299-5.34329C96.6665-5.5228 97.2855-4.95949 97.205-4.20432L95.0768 13.4759L82.4629 4.48704C79.3755 2.30307 75.0879 3.04552 72.9224 6.07093C70.6579 9.15827 71.3385 13.4892 74.4445 15.6918L94.9903 30.1624C99.8223 33.5899 105.917 32.4701 107.179 27.3596L124.557-42.4271C124.799-43.287 125.491-43.6954 126.395-43.516L183.177-32.2189C188.349-31.1981 191.269-35.065 191.269-38.9319C191.269-41.8212 189.63-44.859 185.862-45.6014L129.544-56.9172C112.883-60.2147 102.415-61.7861 90.5236-61.7861L74.995-61.7861L74.995-77.6363C74.995-81.4847 71.9077-84.5102 68.1831-84.5102C64.3348-84.5102 61.3093-81.4847 61.3093-77.6363L61.3093-55.0361C61.3093-51.2867 64.3348-48.1809 68.1831-48.1809L94.5943-48.1809C95.7264-48.1809 96.4997-47.2467 96.178-46.0774L91.0554-26.4285C90.2263-23.298 88.1477-20.9719 85.0792-19.8831L57.2757-10.2007L22.8773-10.2007C19.029-10.2007 16.084-7.11339 16.084-3.34544C16.084 0.521399 19.029 3.40454 22.8773 3.40454ZM117.931-65.75C125.726-65.75 132.093-72.1163 132.093-79.9552C132.093-87.7507 125.726-94.0736 117.931-94.0736C110.092-94.0736 103.726-87.7507 103.726-79.9552C103.726-72.1163 110.092-65.75 117.931-65.75Z"/>
  </g>
  <g id="Medium-L" transform="matrix(1 0 0 1 1643.87 1556)">
   <path d="M81.3872-83.3736C86.7982-83.3736 91.2022-87.6972 91.2022-93.1662C91.2022-98.6247 86.7982-103.051 81.3872-103.051C75.9062-103.051 71.5247-98.6247 71.5247-93.1662C71.5247-87.6972 75.9062-83.3736 81.3872-83.3736ZM22.6601 2.66931L56.9201 2.66931C58.8368 2.66931 59.6395 2.54145 61.0527 2.20925L95.354-6.08299C96.0021-6.24239 96.5488-5.72725 96.4803-5.06861L94.2997 13.088L81.3141 3.82843C78.3233 1.70885 74.1765 2.43119 72.0794 5.36405C69.8913 8.35487 70.5438 12.5491 73.5451 14.6792L94.1809 29.2031C98.8801 32.5381 104.781 31.4625 106.007 26.513L123.258-42.7379C123.499-43.5736 124.228-44.0021 125.112-43.8308L181.47-32.6137C186.477-31.629 189.293-35.3632 189.293-39.1094C189.293-41.9183 187.714-44.8353 184.059-45.5576L128.277-56.7613C111.78-60.0227 101.428-61.5862 89.6655-61.5862L74.1239-61.5862L74.1239-77.4494C74.1239-81.1731 71.1331-84.094 67.5373-84.094C63.8137-84.094 60.8808-81.1731 60.8808-77.4494L60.8808-55.0575C60.8808-51.4367 63.8137-48.4234 67.5373-48.4234L93.8171-48.4234C94.9694-48.4234 95.779-47.465 95.4573-46.2916L90.3384-26.686C89.5092-23.5431 87.4024-21.1806 84.3175-20.0877L56.7502-10.4934L22.6601-10.4934C18.9364-10.4934 16.084-7.50261 16.084-3.85936C16.084-0.113223 18.9364 2.66931 22.6601 2.66931ZM116.824-65.5935C124.467-65.5935 130.709-71.8352 130.709-79.5255C130.709-87.1683 124.467-93.3626 116.824-93.3626C109.134-93.3626 102.892-87.1683 102.892-79.5255C102.892-71.8352 109.134-65.5935 116.824-65.5935Z"/>
  </g>
  <g id="Regular-L" transform="matrix(1 0 0 1 1348.45 1556)">
   <path d="M80.057-82.6413C85.2792-82.6413 89.5364-86.8181 89.5364-92.093C89.5364-97.368 85.2792-101.653 80.057-101.653C74.7544-101.653 70.5249-97.368 70.5249-92.093C70.5249-86.8181 74.7544-82.6413 80.057-82.6413ZM22.3767 1.71032L56.1978 1.71032C58.0726 1.71032 58.8491 1.57713 60.2414 1.25545L94.6029-7.0478C95.1356-7.18099 95.5879-6.72867 95.5351-6.19594L93.2859 12.5819L79.8158 2.96938C76.9509 0.933775 72.9877 1.6299 70.9798 4.44204C68.8914 7.30695 69.5071 11.3229 72.372 13.3585L93.1251 27.9519C97.6512 31.1662 103.301 30.1484 104.479 25.4087L121.563-43.1432C121.804-43.9474 122.581-44.4023 123.438-44.2414L179.243-33.1286C184.036-32.1912 186.715-35.7522 186.715-39.3409C186.715-42.045 185.215-44.8044 181.706-45.5005L126.624-56.558C110.342-59.7723 100.142-61.3254 88.5463-61.3254L72.9877-61.3254L72.9877-77.2055C72.9877-80.7666 70.1228-83.5511 66.695-83.5511C63.134-83.5511 60.3218-80.7666 60.3218-77.2055L60.3218-55.0854C60.3218-51.6324 63.134-48.7398 66.695-48.7398L92.8034-48.7398C93.982-48.7398 94.839-47.7497 94.5173-46.5711L89.4032-27.0218C88.5739-23.8628 86.4302-21.4528 83.3241-20.3546L56.0646-10.8752L22.3767-10.8752C18.8157-10.8752 16.084-8.01029 16.084-4.52968C16.084-0.94099 18.8157 1.71032 22.3767 1.71032ZM115.381-65.3893C122.825-65.3893 128.904-71.4685 128.904-78.965C128.904-86.4087 122.825-92.4351 115.381-92.4351C107.884-92.4351 101.805-86.4087 101.805-78.965C101.805-71.4685 107.884-65.3893 115.381-65.3893Z"/>
  </g>
  <g id="Light-L" transform="matrix(1 0 0 1 1053.77 1556)">
   <path d="M78.5302-81.5344C83.6379-81.5344 87.7806-85.5966 87.7806-90.738C87.7806-95.8793 83.6379-100.069 78.5302-100.069C73.3421-100.069 69.2462-95.8793 69.2462-90.738C69.2462-85.5966 73.3421-81.5344 78.5302-81.5344ZM22.2241 0.813309L55.2436 0.813309C57.0802 0.813309 57.8376 0.699211 59.1917 0.377532L92.847-7.77304C93.3034-7.88714 93.6794-7.51117 93.6457-7.05478L91.4537 11.4177L78.289 2.05329C75.5004 0.0558519 71.6327 0.732889 69.682 3.48778C67.6509 6.27635 68.2475 10.1777 71.0361 12.1752L91.2929 26.406C95.7235 29.563 101.22 28.5643 102.38 23.9391L119.044-42.9714C119.285-43.7756 120.043-44.2114 120.88-44.0506L175.35-33.2049C180.009-32.2866 182.65-35.7522 182.65-39.2646C182.65-41.8923 181.168-44.6135 177.737-45.2906L123.991-56.0427C108.071-59.1997 98.1568-60.7146 86.8286-60.7146L71.6327-60.7146L71.6327-76.2322C71.6327-79.6978 68.8441-82.406 65.4926-82.406C62.027-82.406 59.2721-79.6978 59.2721-76.2322L59.2721-54.6082C59.2721-51.2698 62.027-48.4345 65.4926-48.4345L90.9712-48.4345C92.1308-48.4345 92.9687-47.4825 92.647-46.3229L87.6665-27.2126C86.8753-24.1491 84.7507-21.7963 81.7209-20.7172L55.1295-11.4668L22.2241-11.4668C18.7585-11.4668 16.084-8.67828 16.084-5.29309C16.084-1.78074 18.7585 0.813309 22.2241 0.813309ZM113.091-65.1412C120.344-65.1412 126.289-71.0868 126.289-78.3733C126.289-85.6262 120.344-91.5381 113.091-91.5381C105.804-91.5381 99.8586-85.6262 99.8586-78.3733C99.8586-71.0868 105.804-65.1412 113.091-65.1412Z"/>
  </g>
  <g id="Thin-L" transform="matrix(1 0 0 1 759.744 1556)">
   <path d="M76.5109-80.0704C81.4671-80.0704 85.4583-83.9811 85.4583-88.9458C85.4583-93.9105 81.4671-97.9737 76.5109-97.9737C71.4742-97.9737 67.555-93.9105 67.555-88.9458C67.555-83.9811 71.4742-80.0704 76.5109-80.0704ZM22.0221-0.373056L53.9815-0.373056C55.7676-0.373056 56.4998-0.461912 57.8034-0.783592L90.5248-8.73223C90.8802-8.82109 91.1552-8.54609 91.1468-8.19066L89.0305 9.87796L76.2696 0.841679C73.582-1.10527 69.8405-0.453476 67.9656 2.22569C66.0102 4.91329 66.5815 8.66323 69.2691 10.6102L88.8697 24.3614C93.1741 27.4427 98.4689 26.4692 99.6032 21.9955L115.712-42.7443C115.953-43.5485 116.685-43.959 117.498-43.7982L170.201-33.3059C174.683-32.4128 177.273-35.7522 177.273-39.1636C177.273-41.6904 175.817-44.3611 172.486-45.0129L120.507-55.3612C105.067-58.4425 95.5316-59.9069 84.5568-59.9069L69.8405-59.9069L69.8405-74.9449C69.8405-78.2843 67.1529-80.8914 63.9024-80.8914C60.563-80.8914 57.8838-78.2843 57.8838-74.9449L57.8838-53.9772C57.8838-50.7902 60.563-48.0306 63.9024-48.0306L88.548-48.0306C89.6823-48.0306 90.495-47.1291 90.1733-45.9948L85.3694-27.465C84.6288-24.5277 82.5294-22.2507 79.6006-21.1968L53.8926-12.2493L22.0221-12.2493C18.6827-12.2493 16.084-9.56174 16.084-6.30276C16.084-2.89138 18.6827-0.373056 22.0221-0.373056ZM110.062-64.8131C117.062-64.8131 122.831-70.5819 122.831-77.5908C122.831-84.5913 117.062-90.3517 110.062-90.3517C103.053-90.3517 97.284-84.5913 97.284-77.5908C97.284-70.5819 103.053-64.8131 110.062-64.8131Z"/>
  </g>
  <g id="Ultralight-L" transform="matrix(1 0 0 1 464.409 1556)">
   <path d="M75.4766-79.3205C80.3552-79.3205 84.2689-83.1537 84.2689-88.0279C84.2689-92.902 80.3552-96.9006 75.4766-96.9006C70.5175-96.9006 66.6888-92.902 66.6888-88.0279C66.6888-83.1537 70.5175-79.3205 75.4766-79.3205ZM21.9187-0.980707L53.335-0.980707C55.0953-0.980707 55.8146-1.05663 57.0923-1.37831L89.3353-9.22353C89.639-9.29945 89.8623-9.07616 89.8668-8.77245L87.7894 9.08931L75.2353 0.221099C72.5994-1.69999 68.9226-1.06113 67.0864 1.57925C65.1698 4.21514 65.7282 7.8875 68.3641 9.80859L87.6285 23.3142C91.8683 26.3567 97.0597 25.3961 98.1811 21L114.005-42.6279C114.247-43.4321 114.966-43.8297 115.766-43.6689L167.563-33.3576C171.955-32.4775 174.519-35.7522 174.519-39.1119C174.519-41.5869 173.076-44.2318 169.797-44.8707L118.723-55.0121C103.529-58.0546 94.187-59.4932 83.3932-59.4932L68.9226-59.4932L68.9226-74.2855C68.9226-77.5603 66.2867-80.1157 63.0879-80.1157C59.8131-80.1157 57.1727-77.5603 57.1727-74.2855L57.1727-53.654C57.1727-50.5445 59.8131-47.8237 63.0879-47.8237L87.3068-47.8237C88.4282-47.8237 89.2279-46.9481 88.9063-45.8267L84.1929-27.5943C83.4781-24.7217 81.3917-22.4834 78.5146-21.4424L53.2591-12.6501L21.9187-12.6501C18.6439-12.6501 16.084-10.0142 16.084-6.81991C16.084-3.46025 18.6439-0.980707 21.9187-0.980707ZM108.51-64.645C115.381-64.645 121.06-70.3234 121.06-77.1901C121.06-84.0612 115.381-89.7441 108.51-89.7441C101.644-89.7441 95.9652-84.0612 95.9652-77.1901C95.9652-70.3234 101.644-64.645 108.51-64.645Z"/>
  </g>
  <g id="Black-M" transform="matrix(1 0 0 1 2848.53 1126)">
   <path d="M68.7277-75.5616C73.7603-75.5616 77.8168-79.5558 77.8168-84.6509C77.8168-89.689 73.7603-93.7452 68.7277-93.7452C63.69-93.7452 59.6332-89.689 59.6332-84.6509C59.6332-79.5558 63.69-75.5616 68.7277-75.5616ZM18.8231-1.70776L47.1365-1.70776C48.8037-1.70776 49.5412-1.77555 50.7204-2.08187L76.7746-8.40295C77.788-8.64203 78.625-7.97638 78.5053-6.90585L77.1544 4.16404L69.4544-1.28156C66.577-3.30173 62.5416-2.62651 60.5211 0.188274C58.3813 3.06564 59.0513 7.10653 61.9858 9.18379L77.2582 19.9889C81.6726 23.1152 87.365 22.0195 88.5283 17.2466L102.527-39.1008C102.714-39.8952 103.052-40.098 103.852-39.9163L149.634-30.8315C154.469-29.8551 157.274-33.5219 157.274-37.1313C157.274-39.7699 155.69-42.7505 152.2-43.4257L106.179-52.6823C92.5237-55.409 83.8956-56.6556 74.0944-56.6556L62.2561-56.6556L62.2561-68.7431C62.2561-72.3528 59.3787-75.225 55.8368-75.225C52.2272-75.225 49.4124-72.3528 49.4124-68.7431L49.4124-50.299C49.4124-46.7513 52.2272-43.8742 55.8368-43.8742L76.7806-43.8742C77.5441-43.8742 77.9443-43.2921 77.6951-42.4143L73.7523-27.1119C73.1234-24.7844 71.6693-23.1947 69.4044-22.3792L46.8404-14.4892L18.8231-14.4892C15.2134-14.4892 12.4609-11.6118 12.4609-8.06443C12.4609-4.45503 15.2134-1.70776 18.8231-1.70776ZM96.4492-59.6201C103.233-59.6201 108.78-65.167 108.78-71.9559C108.78-78.7393 103.233-84.2807 96.4492-84.2807C89.6603-84.2807 84.1134-78.7393 84.1134-71.9559C84.1134-65.167 89.6603-59.6201 96.4492-59.6201Z"/>
  </g>
  <g id="Heavy-M" transform="matrix(1 0 0 1 2553.04 1126)">
   <path d="M67.3509-74.8608C72.166-74.8608 76.0589-78.6915 76.0589-83.5666C76.0589-88.3981 72.166-92.2933 67.3509-92.2933C62.5171-92.2933 58.6264-88.3981 58.6264-83.5666C58.6264-78.6915 62.5171-74.8608 67.3509-74.8608ZM18.4927-2.74421L46.4158-2.74421C48.0374-2.74421 48.7455-2.82293 49.906-3.11577L76.189-9.48376C77.071-9.69334 77.8034-9.09182 77.6997-8.16626L76.2487 3.76553L67.8619-2.18583C65.1295-4.10655 61.309-3.46084 59.3906-0.788477C57.3662 1.94392 57.9932 5.78082 60.7692 7.74517L76.2985 18.7173C80.5116 21.7012 85.914 20.6754 87.0208 16.1469L100.896-39.6572C101.083-40.4111 101.486-40.6518 102.256-40.4836L147.617-31.475C152.205-30.5551 154.842-34.0205 154.842-37.4445C154.842-39.965 153.356-42.7518 150.037-43.3975L104.627-52.5325C91.1684-55.211 82.673-56.4525 73.0288-56.4525L61.0909-56.4525L61.0909-68.6397C61.0909-72.0614 58.3585-74.7751 55.0155-74.7751C51.5938-74.7751 48.9214-72.0614 48.9214-68.6397L48.9214-50.4372C48.9214-47.08 51.5938-44.3454 55.0155-44.3454L75.8748-44.3454C76.6763-44.3454 77.1412-43.7144 76.892-42.8258L72.9267-27.5013C72.2895-25.1327 70.784-23.4698 68.4754-22.6434L46.1626-14.8514L18.4927-14.8514C15.071-14.8514 12.4609-12.119 12.4609-8.75959C12.4609-5.33559 15.071-2.74421 18.4927-2.74421ZM95.0914-59.4116C101.661-59.4116 107.028-64.779 107.028-71.3646C107.028-77.9338 101.661-83.2847 95.0914-83.2847C88.5057-83.2847 83.1384-77.9338 83.1384-71.3646C83.1384-64.779 88.5057-59.4116 95.0914-59.4116Z"/>
  </g>
  <g id="Bold-M" transform="matrix(1 0 0 1 2257.69 1126)">
   <path d="M65.8107-74.0769C70.3825-74.0769 74.0925-77.7246 74.0925-82.3536C74.0925-86.954 70.3825-90.6692 65.8107-90.6692C61.2051-90.6692 57.5002-86.954 57.5002-82.3536C57.5002-77.7246 61.2051-74.0769 65.8107-74.0769ZM18.1232-3.90363L45.6096-3.90363C47.1803-3.90363 47.8553-3.99456 48.995-4.27233L75.534-10.6928C76.2688-10.8694 76.8843-10.3396 76.7985-9.57621L75.2355 3.31974L66.0805-3.19738C63.5103-5.00687 59.9302-4.39416 58.1259-1.88111C56.2306 0.689106 56.8096 4.29782 59.4084 6.13586L75.2251 17.2948C79.2127 20.1194 84.2909 19.1718 85.3345 14.9167L99.0713-40.2796C99.2583-40.9883 99.7334-41.2714 100.471-41.1182L145.36-32.1949C149.672-31.3382 152.123-34.5782 152.123-37.7948C152.123-40.1833 150.744-42.7534 147.619-43.3661L102.891-52.3648C89.6523-54.9895 81.3053-56.2254 71.8368-56.2254L59.7875-56.2254L59.7875-68.5239C59.7875-71.7354 57.2173-74.2719 54.0967-74.2719C50.8852-74.2719 48.3722-71.7354 48.3722-68.5239L48.3722-50.5918C48.3722-47.4477 50.8852-44.8724 54.0967-44.8724L74.8617-44.8724C75.7055-44.8724 76.2429-44.1869 75.9937-43.286L72.0032-27.9369C71.3566-25.5223 69.7937-23.7775 67.4363-22.9389L45.4045-15.2566L18.1232-15.2566C14.9117-15.2566 12.4609-12.6864 12.4609-9.53723C12.4609-6.32062 14.9117-3.90363 18.1232-3.90363ZM93.5724-59.1785C99.902-59.1785 105.068-64.3449 105.068-70.7031C105.068-77.0327 99.902-82.1705 93.5724-82.1705C87.2142-82.1705 82.0478-77.0327 82.0478-70.7031C82.0478-64.3449 87.2142-59.1785 93.5724-59.1785Z"/>
  </g>
  <g id="Semibold-M" transform="matrix(1 0 0 1 1961.91 1126)">
   <path d="M64.7489-73.5365C69.153-73.5365 72.7368-77.058 72.7368-81.5174C72.7368-85.9585 69.153-89.5495 64.7489-89.5495C60.3006-89.5495 56.7238-85.9585 56.7238-81.5174C56.7238-77.058 60.3006-73.5365 64.7489-73.5365ZM17.8684-4.70293L45.0538-4.70293C46.5893-4.70293 47.2416-4.80228 48.367-5.06966L75.0824-11.5263C75.7158-11.6801 76.2506-11.1998 76.1773-10.5482L74.537 3.01241L64.8525-3.89473C62.394-5.62754 58.9797-5.03759 57.254-2.63437C55.4478-0.175954 55.9936 3.27545 58.4702 5.02641L74.485 16.3142C78.3174 19.0289 83.1719 18.1353 84.172 14.0687L97.8135-40.7087C98.0004-41.3862 98.5255-41.6985 99.2401-41.5557L143.804-32.6912C147.926-31.878 150.248-34.9627 150.248-38.0363C150.248-40.3338 148.944-42.7544 145.951-43.3444L101.694-52.2492C88.6072-54.8369 80.3624-56.0687 71.0151-56.0687L58.8889-56.0687L58.8889-68.4442C58.8889-71.5107 56.4305-73.925 53.4633-73.925C50.3968-73.925 47.9936-71.5107 47.9936-68.4442L47.9936-50.6983C47.9936-47.7012 50.3968-45.2357 53.4633-45.2357L74.1632-45.2357C75.0362-45.2357 75.6236-44.5126 75.3744-43.6033L71.3665-28.2372C70.7135-25.7908 69.111-23.9897 66.7199-23.1426L44.8818-15.536L17.8684-15.536C14.8019-15.536 12.4609-13.0775 12.4609-10.0733C12.4609-6.9997 14.8019-4.70293 17.8684-4.70293ZM92.5252-59.0178C98.6896-59.0178 103.718-64.0457 103.718-70.2471C103.718-76.4115 98.6896-81.4024 92.5252-81.4024C86.3238-81.4024 81.2959-76.4115 81.2959-70.2471C81.2959-64.0457 86.3238-59.0178 92.5252-59.0178Z"/>
  </g>
  <g id="Medium-M" transform="matrix(1 0 0 1 1665.91 1126)">
   <path d="M63.9438-73.1267C68.2207-73.1267 71.7089-76.5526 71.7089-80.8833C71.7089-85.2037 68.2207-88.7005 63.9438-88.7005C59.6148-88.7005 56.1352-85.2037 56.1352-80.8833C56.1352-76.5526 59.6148-73.1267 63.9438-73.1267ZM17.6752-5.309L44.6323-5.309C46.1413-5.309 46.7763-5.41473 47.8908-5.67422L74.74-12.1583C75.2965-12.2949 75.7702-11.8521 75.7062-11.2852L74.0074 2.77938L63.9213-4.4235C61.5476-6.09816 58.2589-5.52546 56.5929-3.20552C54.8542-0.831878 55.3749 2.50024 57.7588 4.18518L73.9239 15.5706C77.6384 18.2021 82.3234 17.3493 83.2905 13.4256L96.8597-41.0341C97.0466-41.688 97.6097-42.0224 98.307-41.8875L142.625-33.0675C146.602-32.2873 148.827-35.2542 148.827-38.2194C148.827-40.4479 147.579-42.7553 144.687-43.3279L100.786-52.1616C87.8146-54.7211 79.6475-55.95 70.392-55.95L58.2076-55.95L58.2076-68.3837C58.2076-71.3403 55.8339-73.6619 52.983-73.6619C50.0264-73.6619 47.7065-71.3403 47.7065-68.3837L47.7065-50.7792C47.7065-47.8934 50.0264-45.5112 52.983-45.5112L73.6336-45.5112C74.5287-45.5112 75.1541-44.7596 74.9049-43.8439L70.8838-28.4649C70.2259-25.9945 68.5934-24.1505 66.1767-23.2971L44.4855-15.7478L17.6752-15.7478C14.7186-15.7478 12.4609-13.3741 12.4609-10.4798C12.4609-7.5146 14.7186-5.309 17.6752-5.309ZM91.7312-58.8959C97.7704-58.8959 102.693-63.8188 102.693-69.9014C102.693-75.9405 97.7704-80.8199 91.7312-80.8199C85.6487-80.8199 80.7258-75.9405 80.7258-69.9014C80.7258-63.8188 85.6487-58.8959 91.7312-58.8959Z"/>
  </g>
  <g id="Regular-M" transform="matrix(1 0 0 1 1370.13 1126)">
   <path d="M62.8936-72.5922C67.0047-72.5922 70.3682-75.8934 70.3682-80.0562C70.3682-84.2191 67.0047-87.5931 62.8936-87.5931C58.7202-87.5931 55.3673-84.2191 55.3673-80.0562C55.3673-75.8934 58.7202-72.5922 62.8936-72.5922ZM17.4232-6.09951L44.0826-6.09951C45.5568-6.09951 46.1693-6.21357 47.2697-6.46279L74.2934-12.9827C74.7496-13.0967 75.1435-12.7028 75.0918-12.2466L73.3166 2.47543L62.7067-5.11319C60.4436-6.71201 57.3188-6.16182 55.7306-3.9505C54.08-1.68743 54.5679 1.48911 56.831 3.08793L73.192 14.6007C76.7529 17.1236 81.2167 16.3242 82.1408 12.5869L95.6157-41.4585C95.8026-42.0815 96.4151-42.4448 97.0899-42.3202L141.086-33.5583C144.875-32.8212 146.972-35.6345 146.972-38.4583C146.972-40.5967 145.799-42.7563 143.038-43.3065L99.6022-52.0473C86.7809-54.5701 78.715-55.7951 69.5793-55.7951L57.3188-55.7951L57.3188-68.3048C57.3188-71.118 55.0558-73.3188 52.3566-73.3188C49.5433-73.3188 47.332-71.118 47.332-68.3048L47.332-50.8846C47.332-48.1442 49.5433-45.8705 52.3566-45.8705L72.9428-45.8705C73.8668-45.8705 74.5416-45.0817 74.2924-44.1577L70.2541-28.7619C69.5899-26.2601 67.9182-24.3603 65.4682-23.4986L43.9685-16.0241L17.4232-16.0241C14.6099-16.0241 12.4609-13.761 12.4609-11.01C12.4609-8.18622 14.6099-6.09951 17.4232-6.09951ZM90.6956-58.737C96.5713-58.737 101.357-63.5229 101.357-69.4504C101.357-75.3261 96.5713-80.0603 90.6956-80.0603C84.7681-80.0603 79.9822-75.3261 79.9822-69.4504C79.9822-63.5229 84.7681-58.737 90.6956-58.737Z"/>
  </g>
  <g id="Light-M" transform="matrix(1 0 0 1 1075.24 1126)">
   <path d="M61.5247-71.5998C65.5332-71.5998 68.794-74.7983 68.794-78.8414C68.794-82.8845 65.5332-86.1729 61.5247-86.1729C57.454-86.1729 54.2209-82.8845 54.2209-78.8414C54.2209-74.7983 57.454-71.5998 61.5247-71.5998ZM17.2863-6.90373L43.2271-6.90373C44.667-6.90373 45.2624-7.00067 46.3286-7.24989L72.7192-13.6329C73.107-13.7298 73.4324-13.4044 73.3978-13.0166L71.6739 1.43166L61.3378-5.93451C59.1432-7.49911 56.104-6.96603 54.567-4.80605C52.9678-2.61142 53.4386 0.462449 55.6332 2.02705L71.5493 13.2148C75.0247 15.6863 79.3516 14.904 80.2585 11.2693L93.357-41.3045C93.5439-41.9275 94.1393-42.2737 94.797-42.1491L137.595-33.6268C141.265-32.9068 143.328-35.6345 143.328-38.3898C143.328-40.4599 142.172-42.5852 139.479-43.1183L97.2409-51.5853C84.7447-54.0568 76.9355-55.2475 68.0393-55.2475L56.104-55.2475L56.104-67.4321C56.104-70.1598 53.9093-72.2921 51.2786-72.2921C48.5509-72.2921 46.3909-70.1598 46.3909-67.4321L46.3909-50.4568C46.3909-47.8191 48.5509-45.5968 51.2786-45.5968L71.3001-45.5968C72.207-45.5968 72.8647-44.8421 72.6155-43.9352L68.697-28.933C68.067-26.5168 66.4124-24.6683 64.0309-23.8237L43.1301-16.5545L17.2863-16.5545C14.5586-16.5545 12.4609-14.3599 12.4609-11.6945C12.4609-8.9391 14.5586-6.90373 17.2863-6.90373ZM88.6423-58.5145C94.3469-58.5145 99.013-63.1806 99.013-68.9199C99.013-74.6246 94.3469-79.256 88.6423-79.256C82.903-79.256 78.2369-74.6246 78.2369-68.9199C78.2369-63.1806 82.903-58.5145 88.6423-58.5145Z"/>
  </g>
  <g id="Thin-M" transform="matrix(1 0 0 1 780.938 1126)">
   <path d="M59.7143-70.2872C63.5869-70.2872 66.712-73.3499 66.712-77.2346C66.712-81.1193 63.5869-84.2946 59.7143-84.2946C55.7793-84.2946 52.7046-81.1193 52.7046-77.2346C52.7046-73.3499 55.7793-70.2872 59.7143-70.2872ZM17.1053-7.96736L42.0955-7.96736C43.4903-7.96736 44.063-8.04168 45.0839-8.2909L70.6371-14.4929C70.9344-14.5672 71.1694-14.3322 71.1574-14.0349L69.5014 0.0511961L59.5274-7.02078C57.4233-8.54012 54.4972-8.02967 53.0282-5.93758C51.4968-3.83347 51.9449-0.895386 54.0491 0.62395L69.3768 11.3817C72.739 13.7853 76.8849 13.0256 77.7692 9.52679L90.3698-41.1008C90.5567-41.7238 91.1294-42.0474 91.7645-41.9228L132.979-33.7173C136.49-33.0199 138.507-35.6345 138.507-38.2993C138.507-40.2788 137.374-42.3589 134.771-42.8693L94.1178-50.9742C82.0517-53.3778 74.5819-54.5234 66.0026-54.5234L54.4972-54.5234L54.4972-66.2779C54.4972-68.8925 52.3931-70.9343 49.8529-70.9343C47.2383-70.9343 45.1462-68.8925 45.1462-66.2779L45.1462-49.891C45.1462-47.3891 47.2383-45.2347 49.8529-45.2347L69.1276-45.2347C70.0119-45.2347 70.6469-44.5253 70.3977-43.641L66.6376-29.1593C66.0529-26.8562 64.4209-25.0757 62.1299-24.2537L42.0212-17.256L17.1053-17.256C14.4907-17.256 12.4609-15.1519 12.4609-12.5997C12.4609-9.93485 14.4907-7.96736 17.1053-7.96736ZM85.9266-58.2203C91.4049-58.2203 95.9127-62.728 95.9127-68.2184C95.9127-73.6967 91.4049-78.1924 85.9266-78.1924C80.4363-78.1924 75.9286-73.6967 75.9286-68.2184C75.9286-62.728 80.4363-58.2203 85.9266-58.2203Z"/>
  </g>
  <g id="Ultralight-M" transform="matrix(1 0 0 1 485.461 1126)">
   <path d="M58.787-69.6149C62.5901-69.6149 65.6456-72.6081 65.6456-76.4116C65.6456-80.2151 62.5901-83.3325 58.787-83.3325C54.9216-83.3325 51.928-80.2151 51.928-76.4116C51.928-72.6081 54.9216-69.6149 58.787-69.6149ZM17.0125-8.51215L41.516-8.51215C42.8875-8.51215 43.4487-8.57488 44.4464-8.8241L69.5707-14.9333C69.8217-14.9961 70.0102-14.8075 70.0098-14.5566L68.3886-0.655872L58.6001-7.57716C56.5423-9.07332 53.6742-8.57446 52.2399-6.51714C50.7434-4.4594 51.1799-1.59086 53.2377-0.0947091L68.264 10.4428C71.5683 12.8116 75.6215 12.0635 76.4941 8.63426L88.8397-40.9965C89.0266-41.6195 89.5878-41.9315 90.2113-41.8068L130.614-33.7636C134.044-33.0779 136.038-35.6345 136.038-38.253C136.038-40.1861 134.917-42.243 132.36-42.7418L92.5182-50.6613C80.6723-53.0301 73.3764-54.1524 64.9594-54.1524L53.6742-54.1524L53.6742-65.6868C53.6742-68.2434 51.6165-70.2388 49.1226-70.2388C46.566-70.2388 44.5087-68.2434 44.5087-65.6868L44.5087-49.6012C44.5087-47.1688 46.566-45.0492 49.1226-45.0492L68.0148-45.0492C68.8875-45.0492 69.511-44.363 69.2617-43.4903L65.5828-29.2752C65.0212-27.0301 63.4009-25.2843 61.1562-24.4739L41.4532-17.6154L17.0125-17.6154C14.456-17.6154 12.4609-15.5576 12.4609-13.0633C12.4609-10.4449 14.456-8.51215 17.0125-8.51215ZM84.5357-58.0696C89.8981-58.0696 94.3246-62.4962 94.3246-67.859C94.3246-73.2215 89.8981-77.6476 84.5357-77.6476C79.1728-77.6476 74.7462-73.2215 74.7462-67.859C74.7462-62.4962 79.1728-58.0696 84.5357-58.0696Z"/>
  </g>
  <g id="Black-S" transform="matrix(1 0 0 1 2866.63 696)">
   <path d="M54.1992-66.9922C58.2031-66.9922 61.4258-70.166 61.4258-74.2188C61.4258-78.2227 58.2031-81.4453 54.1992-81.4453C50.1953-81.4453 46.9727-78.2227 46.9727-74.2188C46.9727-70.166 50.1953-66.9922 54.1992-66.9922ZM14.8438-8.69141L37.1094-8.69141C38.4277-8.69141 39.0137-8.74023 39.9414-8.98438L60.2539-13.916C61.084-14.1113 61.7676-13.5742 61.6699-12.6953L60.6445-4.29688L54.834-8.39844C52.5391-10.0098 49.3164-9.47266 47.7051-7.22656C45.9961-4.93164 46.5332-1.70898 48.877-0.0488281L60.7422 8.34961C64.2578 10.8398 68.7988 9.96094 69.7266 6.15234L80.7129-38.0859C80.8594-38.7207 81.1035-38.8672 81.7383-38.7207L117.676-31.5918C121.533-30.8105 123.779-33.7402 123.779-36.6211C123.779-38.7207 122.51-41.1133 119.727-41.6504L83.5449-48.9258C72.8027-51.0742 66.0156-52.0508 58.3008-52.0508L49.0723-52.0508L49.0723-61.4746C49.0723-64.3555 46.7773-66.6504 43.9453-66.6504C41.0645-66.6504 38.8184-64.3555 38.8184-61.4746L38.8184-46.9727C38.8184-44.1406 41.0645-41.8457 43.9453-41.8457L60.3516-41.8457C60.9375-41.8457 61.2305-41.4062 61.0352-40.7227L57.959-28.7598C57.4707-26.9531 56.3477-25.7324 54.5898-25.0977L36.8652-18.8965L14.8438-18.8965C11.9629-18.8965 9.76562-16.6016 9.76562-13.7695C9.76562-10.8887 11.9629-8.69141 14.8438-8.69141ZM75.8789-54.3945C81.25-54.3945 85.6445-58.7891 85.6445-64.1602C85.6445-69.5312 81.25-73.9258 75.8789-73.9258C70.5078-73.9258 66.1133-69.5312 66.1133-64.1602C66.1133-58.7891 70.5078-54.3945 75.8789-54.3945Z"/>
  </g>
  <g id="Heavy-S" transform="matrix(1 0 0 1 2570.72 696)">
   <path d="M53.1966-66.5197C57.0276-66.5197 60.1235-69.5667 60.1235-73.4466C60.1235-77.2892 57.0276-80.3851 53.1966-80.3851C49.354-80.3851 46.2581-77.2892 46.2581-73.4466C46.2581-69.5667 49.354-66.5197 53.1966-66.5197ZM14.5787-9.47507L36.6023-9.47507C37.8861-9.47507 38.449-9.53542 39.3652-9.76804L59.9543-14.7573C60.6806-14.9296 61.2836-14.4386 61.1974-13.6749L60.0798-4.50432L53.647-9.06686C51.4673-10.5975 48.4175-10.0835 46.8868-7.9526C45.2701-5.77293 45.7726-2.71161 47.9896-1.14365L60.1314 7.43918C63.4857 9.81417 67.7962 8.99288 68.6778 5.3802L79.6065-38.5815C79.753-39.1817 80.0548-39.3627 80.6665-39.2278L116.397-32.1334C120.058-31.3983 122.166-34.1666 122.166-36.8977C122.166-38.9051 120.977-41.1363 118.332-41.6504L82.5192-48.8566C71.9038-50.9705 65.1974-51.9471 57.5863-51.9471L48.231-51.9471L48.231-61.4977C48.231-64.2287 46.0513-66.3969 43.3806-66.3969C40.6496-66.3969 38.5187-64.2287 38.5187-61.4977L38.5187-47.1455C38.5187-44.4633 40.6496-42.2836 43.3806-42.2836L59.7869-42.2836C60.4074-42.2836 60.758-41.7981 60.5627-41.103L57.4519-29.0709C56.9521-27.2182 55.783-25.9283 53.979-25.282L36.3927-19.1385L14.5787-19.1385C11.8476-19.1385 9.76562-16.9588 9.76562-14.2766C9.76562-11.5456 11.8476-9.47507 14.5787-9.47507ZM74.98-54.2447C80.1897-54.2447 84.446-58.501 84.446-63.7222C84.446-68.932 80.1897-73.1767 74.98-73.1767C69.7587-73.1767 65.5025-68.932 65.5025-63.7222C65.5025-58.501 69.7587-54.2447 74.98-54.2447Z"/>
  </g>
  <g id="Bold-S" transform="matrix(1 0 0 1 2274.91 696)">
   <path d="M52.0752-65.9912C55.7129-65.9912 58.667-68.8965 58.667-72.583C58.667-76.2451 55.7129-79.1992 52.0752-79.1992C48.4131-79.1992 45.459-76.2451 45.459-72.583C45.459-68.8965 48.4131-65.9912 52.0752-65.9912ZM14.2822-10.3516L36.0352-10.3516C37.2803-10.3516 37.8174-10.4248 38.7207-10.6445L59.6191-15.6982C60.2295-15.8447 60.7422-15.4053 60.6689-14.7705L59.4482-4.73633L52.3193-9.81445C50.2686-11.2549 47.4121-10.7666 45.9717-8.76465C44.458-6.71387 44.9219-3.83301 46.9971-2.36816L59.4482 6.4209C62.6221 8.66699 66.6748 7.91016 67.5049 4.5166L78.3691-39.1357C78.5156-39.6973 78.8818-39.917 79.4678-39.7949L114.966-32.7393C118.408-32.0557 120.361-34.6436 120.361-37.207C120.361-39.1113 119.263-41.1621 116.772-41.6504L81.3721-48.7793C70.8984-50.8545 64.2822-51.8311 56.7871-51.8311L47.29-51.8311L47.29-61.5234C47.29-64.0869 45.2393-66.1133 42.749-66.1133C40.1855-66.1133 38.1836-64.0869 38.1836-61.5234L38.1836-47.3389C38.1836-44.8242 40.1855-42.7734 42.749-42.7734L59.1553-42.7734C59.8145-42.7734 60.2295-42.2363 60.0342-41.5283L56.8848-29.4189C56.3721-27.5146 55.1514-26.1475 53.2959-25.4883L35.8643-19.4092L14.2822-19.4092C11.7188-19.4092 9.76562-17.3584 9.76562-14.8438C9.76562-12.2803 11.7188-10.3516 14.2822-10.3516ZM73.9746-54.0771C79.0039-54.0771 83.1055-58.1787 83.1055-63.2324C83.1055-68.2617 79.0039-72.3389 73.9746-72.3389C68.9209-72.3389 64.8193-68.2617 64.8193-63.2324C64.8193-58.1787 68.9209-54.0771 73.9746-54.0771Z"/>
  </g>
  <g id="Semibold-S" transform="matrix(1 0 0 1 1978.83 696)">
   <path d="M51.3021-65.6269C54.8064-65.6269 57.6628-68.4344 57.6628-71.9876C57.6628-75.5253 54.8064-78.3816 51.3021-78.3816C47.7644-78.3816 44.908-75.5253 44.908-71.9876C44.908-68.4344 47.7644-65.6269 51.3021-65.6269ZM14.0778-10.9559L35.6441-10.9559C36.8626-10.9559 37.3819-11.038 38.2764-11.2488L59.3881-16.347C59.9185-16.4757 60.3689-16.0718 60.3046-15.5259L59.0128-4.89629L51.404-10.3299C49.4421-11.7081 46.7189-11.2376 45.3407-9.32451C43.8981-7.3626 44.3354-4.60615 46.3128-3.2124L58.9772 5.71885C62.0267 7.87607 65.9017 7.16367 66.6962 3.92119L77.516-39.5179C77.6625-40.0527 78.0731-40.2991 78.6413-40.1859L113.979-33.1569C117.271-32.5089 119.117-34.9724 119.117-37.4203C119.117-39.2535 118.081-41.1799 115.697-41.6504L80.5812-48.726C70.2053-50.7745 63.6513-51.7511 56.2361-51.7511L46.6413-51.7511L46.6413-61.5412C46.6413-63.9892 44.6794-65.9178 42.3136-65.9178C39.8656-65.9178 37.9525-63.9892 37.9525-61.5412L37.9525-47.4722C37.9525-45.073 39.8656-43.1111 42.3136-43.1111L58.7198-43.1111C59.4057-43.1111 59.8651-42.5385 59.6698-41.8216L56.4937-29.6589C55.9722-27.719 54.7159-26.2985 52.8249-25.6305L35.4999-19.5958L14.0778-19.5958C11.6299-19.5958 9.76562-17.6339 9.76562-15.2348C9.76562-12.7868 11.6299-10.9559 14.0778-10.9559ZM73.2814-53.9616C78.1863-53.9616 82.1813-57.9565 82.1813-62.8947C82.1813-67.7996 78.1863-71.7612 73.2814-71.7612C68.3433-71.7612 64.3483-67.7996 64.3483-62.8947C64.3483-57.9565 68.3433-53.9616 73.2814-53.9616Z"/>
  </g>
  <g id="Medium-S" transform="matrix(1 0 0 1 1682.59 696)">
   <path d="M50.7158-65.3506C54.1191-65.3506 56.9014-68.084 56.9014-71.5361C56.9014-74.9795 54.1191-77.7617 50.7158-77.7617C47.2725-77.7617 44.4902-74.9795 44.4902-71.5361C44.4902-68.084 47.2725-65.3506 50.7158-65.3506ZM13.9229-11.4141L35.3477-11.4141C36.5459-11.4141 37.0518-11.5029 37.9395-11.707L59.2129-16.8389C59.6826-16.9541 60.0859-16.5771 60.0283-16.0986L58.6826-5.01758L50.71-10.7207C48.8154-12.0518 46.1934-11.5947 44.8623-9.74902C43.4736-7.85449 43.8906-5.19238 45.7939-3.85254L58.6201 5.18652C61.5752 7.27637 65.3154 6.59766 66.083 3.46973L76.8691-39.8076C77.0156-40.3223 77.46-40.5889 78.0146-40.4824L113.231-33.4736C116.408-32.8525 118.174-35.2217 118.174-37.582C118.174-39.3613 117.185-41.1934 114.882-41.6504L79.9814-48.6855C69.6797-50.7139 63.1729-51.6904 55.8184-51.6904L46.1494-51.6904L46.1494-61.5547C46.1494-63.915 44.2549-65.7695 41.9834-65.7695C39.623-65.7695 37.7773-63.915 37.7773-61.5547L37.7773-47.5732C37.7773-45.2617 39.623-43.3672 41.9834-43.3672L58.3896-43.3672C59.0957-43.3672 59.5889-42.7676 59.3936-42.0439L56.1973-29.8408C55.6689-27.874 54.3857-26.4131 52.4678-25.7383L35.2236-19.7373L13.9229-19.7373C11.5625-19.7373 9.76562-17.8428 9.76562-15.5312C9.76562-13.1709 11.5625-11.4141 13.9229-11.4141ZM72.7559-53.874C77.5664-53.874 81.4805-57.7881 81.4805-62.6387C81.4805-67.4492 77.5664-71.3232 72.7559-71.3232C67.9053-71.3232 63.9912-67.4492 63.9912-62.6387C63.9912-57.7881 67.9053-53.874 72.7559-53.874Z"/>
  </g>
  <g id="Regular-S" transform="matrix(1 0 0 1 1386.49 696)">
   <path d="M49.9512-64.9902C53.2227-64.9902 55.9082-67.627 55.9082-70.9473C55.9082-74.2676 53.2227-76.9531 49.9512-76.9531C46.6309-76.9531 43.9453-74.2676 43.9453-70.9473C43.9453-67.627 46.6309-64.9902 49.9512-64.9902ZM13.7207-12.0117L34.9609-12.0117C36.1328-12.0117 36.6211-12.1094 37.5-12.3047L58.9844-17.4805C59.375-17.5781 59.7168-17.2363 59.668-16.8457L58.252-5.17578L49.8047-11.2305C47.998-12.5 45.5078-12.0605 44.2383-10.3027C42.9199-8.49609 43.3105-5.95703 45.1172-4.6875L58.1543 4.49219C60.9863 6.49414 64.5508 5.85938 65.2832 2.88086L76.0254-40.1855C76.1719-40.6738 76.6602-40.9668 77.1973-40.8691L112.256-33.8867C115.283-33.3008 116.943-35.5469 116.943-37.793C116.943-39.502 116.016-41.2109 113.818-41.6504L79.1992-48.6328C68.9941-50.6348 62.5488-51.6113 55.2734-51.6113L45.5078-51.6113L45.5078-61.5723C45.5078-63.8184 43.7012-65.5762 41.5527-65.5762C39.3066-65.5762 37.5488-63.8184 37.5488-61.5723L37.5488-47.7051C37.5488-45.5078 39.3066-43.7012 41.5527-43.7012L57.959-43.7012C58.6914-43.7012 59.2285-43.0664 59.0332-42.334L55.8105-30.0781C55.2734-28.0762 53.9551-26.5625 52.002-25.8789L34.8633-19.9219L13.7207-19.9219C11.4746-19.9219 9.76562-18.1152 9.76562-15.918C9.76562-13.6719 11.4746-12.0117 13.7207-12.0117ZM72.0703-53.7598C76.7578-53.7598 80.5664-57.5684 80.5664-62.3047C80.5664-66.9922 76.7578-70.752 72.0703-70.752C67.334-70.752 63.5254-66.9922 63.5254-62.3047C63.5254-57.5684 67.334-53.7598 72.0703-53.7598Z"/>
  </g>
  <g id="Light-S" transform="matrix(1 0 0 1 1091.39 696)">
   <path d="M48.7402-64.1123C51.9209-64.1123 54.5156-66.6582 54.5156-69.8726C54.5156-73.0869 51.9209-75.6968 48.7402-75.6968C45.5108-75.6968 42.9312-73.0869 42.9312-69.8726C42.9312-66.6582 45.5108-64.1123 48.7402-64.1123ZM13.5996-12.7231L34.2041-12.7231C35.3457-12.7231 35.8189-12.8057 36.6675-13.001L57.5918-18.0557C57.9219-18.1382 58.2031-17.8569 58.1694-17.5269L56.7988-6.09911L48.5938-11.957C46.8477-13.1963 44.4331-12.772 43.209-11.0596C41.936-9.31347 42.3115-6.86523 44.0576-5.62597L56.7012 3.26612C59.4575 5.22267 62.9009 4.60304 63.6182 1.71534L74.0274-40.0493C74.1738-40.5376 74.647-40.8154 75.169-40.7178L109.168-33.9473C112.089-33.3765 113.719-35.5469 113.719-37.7324C113.719-39.3809 112.807-41.0596 110.67-41.4839L77.1104-48.2241C67.1929-50.1807 60.9746-51.127 53.9111-51.127L44.4331-51.127L44.4331-60.8003C44.4331-62.9707 42.687-64.668 40.5991-64.668C38.4287-64.668 36.7163-62.9707 36.7163-60.8003L36.7163-47.3267C36.7163-45.2202 38.4287-43.459 40.5991-43.459L56.5059-43.459C57.2232-43.459 57.7451-42.8545 57.5498-42.1372L54.4331-30.2295C53.9263-28.3032 52.6231-26.835 50.7305-26.1665L34.1216-20.3911L13.5996-20.3911C11.4292-20.3911 9.76562-18.645 9.76562-16.5234C9.76562-14.3379 11.4292-12.7231 13.5996-12.7231ZM70.2539-53.563C74.7901-53.563 78.4927-57.2656 78.4927-61.8355C78.4927-66.3716 74.7901-70.0405 70.2539-70.0405C65.6841-70.0405 61.9815-66.3716 61.9815-61.8355C61.9815-57.2656 65.6841-53.563 70.2539-53.563Z"/>
  </g>
  <g id="Thin-S" transform="matrix(1 0 0 1 796.812 696)">
   <path d="M47.1387-62.9512C50.1992-62.9512 52.6739-65.377 52.6739-68.4512C52.6739-71.5254 50.1992-74.0352 47.1387-74.0352C44.0293-74.0352 41.5899-71.5254 41.5899-68.4512C41.5899-65.377 44.0293-62.9512 47.1387-62.9512ZM13.4395-13.664L33.2031-13.664C34.3047-13.664 34.7578-13.7265 35.5664-13.9219L55.75-18.8164C56-18.8789 56.2012-18.6777 56.1875-18.4277L54.877-7.3203L46.9922-12.918C45.3262-14.1172 43.0117-13.7129 41.8477-12.0605C40.6348-10.3945 40.9903-8.06639 42.6563-6.86717L54.7793 1.64455C57.4356 3.54104 60.7188 2.94143 61.416 0.173849L71.3848-39.8691C71.5313-40.3574 71.9844-40.6152 72.4864-40.5176L105.084-34.0273C107.865-33.4766 109.455-35.5469 109.455-37.6523C109.455-39.2207 108.563-40.8594 106.506-41.2637L74.3477-47.6836C64.8106-49.5801 58.8926-50.4863 52.1094-50.4863L43.0117-50.4863L43.0117-59.7793C43.0117-61.8496 41.3457-63.4668 39.3379-63.4668C37.2676-63.4668 35.6152-61.8496 35.6152-59.7793L35.6152-46.8262C35.6152-44.8398 37.2676-43.1387 39.3379-43.1387L54.584-43.1387C55.2813-43.1387 55.7832-42.5742 55.5879-41.877L52.6114-30.4297C52.1446-28.6035 50.8614-27.1953 49.0489-26.5469L33.1406-21.0117L13.4395-21.0117C11.3691-21.0117 9.76562-19.3457 9.76562-17.3242C9.76562-15.2187 11.3691-13.664 13.4395-13.664ZM67.8516-53.3027C72.1875-53.3027 75.75-56.8652 75.75-61.2149C75.75-65.5508 72.1875-69.0996 67.8516-69.0996C63.502-69.0996 59.9395-65.5508 59.9395-61.2149C59.9395-56.8652 63.502-53.3027 67.8516-53.3027Z"/>
  </g>
  <g id="Ultralight-S" transform="matrix(1 0 0 1 501.193 696)">
   <path d="M46.3184-62.3565C49.3174-62.3565 51.7305-64.7207 51.7305-67.7232C51.7305-70.7256 49.3174-73.1841 46.3184-73.1841C43.2705-73.1841 40.9029-70.7256 40.9029-67.7232C40.9029-64.7207 43.2705-62.3565 46.3184-62.3565ZM13.3574-14.146L32.6904-14.146C33.7715-14.146 34.2144-14.1982 35.0025-14.3935L54.8067-19.206C55.0157-19.2583 55.1758-19.0981 55.1724-18.8891L53.8926-7.94578L46.1719-13.4101C44.5469-14.5889 42.2837-14.1948 41.1504-12.5732C39.9683-10.9482 40.3135-8.68162 41.9385-7.50291L53.795 0.813994C56.3999 2.67972 59.6011 2.09036 60.2881-0.615695L70.0313-39.7769C70.1778-40.2651 70.6207-40.5127 71.1124-40.415L102.992-34.0684C105.702-33.5278 107.271-35.5469 107.271-37.6113C107.271-39.1387 106.389-40.7568 104.373-41.1509L72.9327-47.4067C63.5904-49.2725 57.8262-50.1582 51.1866-50.1582L42.2837-50.1582L42.2837-59.2564C42.2837-61.2754 40.6587-62.8516 38.6919-62.8516C36.6729-62.8516 35.0513-61.2754 35.0513-59.2564L35.0513-46.5698C35.0513-44.645 36.6729-42.9746 38.6919-42.9746L53.5996-42.9746C54.2867-42.9746 54.7784-42.4307 54.583-41.7437L51.6783-30.5322C51.232-28.7573 49.959-27.3799 48.1875-26.7417L32.6382-21.3296L13.3574-21.3296C11.3384-21.3296 9.76562-19.7046 9.76562-17.7344C9.76562-15.6699 11.3384-14.146 13.3574-14.146ZM66.6211-53.1694C70.8545-53.1694 74.3453-56.6602 74.3453-60.897C74.3453-65.1304 70.8545-68.6177 66.6211-68.6177C62.3843-68.6177 58.8936-65.1304 58.8936-60.897C58.8936-56.6602 62.3843-53.1694 66.6211-53.1694Z"/>
  </g>
 </g>
</svg>
