<?xml version="1.0" encoding="UTF-8"?>
<!--Generator: Apple Native CoreSVG 175.5-->
<!DOCTYPE svg
PUBLIC "-//W3C//DTD SVG 1.1//EN"
       "http://www.w3.org/Graphics/SVG/1.1/DTD/svg11.dtd">
<svg version="1.1" xmlns="http://www.w3.org/2000/svg" xmlns:xlink="http://www.w3.org/1999/xlink" width="3300" height="2200">
 <!--glyph: "uni10151A.medium", point size: 100.0, font version: "18.0d12e2", template writer version: "101"-->
 <g id="Notes">
  <rect height="2200" id="artboard" style="fill:white;opacity:1" width="3300" x="0" y="0"/>
  <line style="fill:none;stroke:black;opacity:1;stroke-width:0.5;" x1="263" x2="3036" y1="292" y2="292"/>
  <text style="stroke:none;fill:black;font-family:sans-serif;font-size:13;font-weight:bold;" transform="matrix(1 0 0 1 263 322)">Weight/Scale Variations</text>
  <text style="stroke:none;fill:black;font-family:sans-serif;font-size:13;text-anchor:middle;" transform="matrix(1 0 0 1 559.711 322)">Ultralight</text>
  <text style="stroke:none;fill:black;font-family:sans-serif;font-size:13;text-anchor:middle;" transform="matrix(1 0 0 1 856.422 322)">Thin</text>
  <text style="stroke:none;fill:black;font-family:sans-serif;font-size:13;text-anchor:middle;" transform="matrix(1 0 0 1 1153.13 322)">Light</text>
  <text style="stroke:none;fill:black;font-family:sans-serif;font-size:13;text-anchor:middle;" transform="matrix(1 0 0 1 1449.84 322)">Regular</text>
  <text style="stroke:none;fill:black;font-family:sans-serif;font-size:13;text-anchor:middle;" transform="matrix(1 0 0 1 1746.56 322)">Medium</text>
  <text style="stroke:none;fill:black;font-family:sans-serif;font-size:13;text-anchor:middle;" transform="matrix(1 0 0 1 2043.27 322)">Semibold</text>
  <text style="stroke:none;fill:black;font-family:sans-serif;font-size:13;text-anchor:middle;" transform="matrix(1 0 0 1 2339.98 322)">Bold</text>
  <text style="stroke:none;fill:black;font-family:sans-serif;font-size:13;text-anchor:middle;" transform="matrix(1 0 0 1 2636.69 322)">Heavy</text>
  <text style="stroke:none;fill:black;font-family:sans-serif;font-size:13;text-anchor:middle;" transform="matrix(1 0 0 1 2933.4 322)">Black</text>
  <line style="fill:none;stroke:black;opacity:1;stroke-width:0.5;" x1="263" x2="3036" y1="1903" y2="1903"/>
  <g transform="matrix(1 0 0 1 263 1933)">
   <path d="M9.24805 0.830078C13.5547 0.830078 17.1387-2.74414 17.1387-7.05078C17.1387-11.3574 13.5449-14.9316 9.23828-14.9316C4.94141-14.9316 1.36719-11.3574 1.36719-7.05078C1.36719-2.74414 4.95117 0.830078 9.24805 0.830078ZM9.24805-0.654297C5.70312-0.654297 2.87109-3.49609 2.87109-7.05078C2.87109-10.6055 5.69336-13.4473 9.23828-13.4473C12.793-13.4473 15.6445-10.6055 15.6445-7.05078C15.6445-3.49609 12.8027-0.654297 9.24805-0.654297ZM5.6543-7.05078C5.6543-6.62109 5.95703-6.32812 6.40625-6.32812L8.50586-6.32812L8.50586-4.20898C8.50586-3.76953 8.79883-3.4668 9.22852-3.4668C9.67773-3.4668 9.9707-3.76953 9.9707-4.20898L9.9707-6.32812L12.0898-6.32812C12.5293-6.32812 12.832-6.62109 12.832-7.05078C12.832-7.49023 12.5293-7.79297 12.0898-7.79297L9.9707-7.79297L9.9707-9.90234C9.9707-10.3516 9.67773-10.6543 9.22852-10.6543C8.79883-10.6543 8.50586-10.3516 8.50586-9.90234L8.50586-7.79297L6.40625-7.79297C5.95703-7.79297 5.6543-7.49023 5.6543-7.05078Z"/>
  </g>
  <g transform="matrix(1 0 0 1 281.867 1933)">
   <path d="M11.709 2.91016C17.1582 2.91016 21.6699-1.61133 21.6699-7.05078C21.6699-12.5 17.1484-17.0117 11.6992-17.0117C6.25977-17.0117 1.74805-12.5 1.74805-7.05078C1.74805-1.61133 6.26953 2.91016 11.709 2.91016ZM11.709 1.25C7.09961 1.25 3.41797-2.44141 3.41797-7.05078C3.41797-11.6602 7.08984-15.3516 11.6992-15.3516C16.3086-15.3516 20.0098-11.6602 20.0098-7.05078C20.0098-2.44141 16.3184 1.25 11.709 1.25ZM7.17773-7.05078C7.17773-6.57227 7.50977-6.25 8.00781-6.25L10.8789-6.25L10.8789-3.36914C10.8789-2.88086 11.2109-2.53906 11.6895-2.53906C12.1777-2.53906 12.5195-2.87109 12.5195-3.36914L12.5195-6.25L15.4004-6.25C15.8887-6.25 16.2305-6.57227 16.2305-7.05078C16.2305-7.53906 15.8887-7.88086 15.4004-7.88086L12.5195-7.88086L12.5195-10.752C12.5195-11.25 12.1777-11.5918 11.6895-11.5918C11.2109-11.5918 10.8789-11.25 10.8789-10.752L10.8789-7.88086L8.00781-7.88086C7.50977-7.88086 7.17773-7.53906 7.17773-7.05078Z"/>
  </g>
  <g transform="matrix(1 0 0 1 305.646 1933)">
   <path d="M14.9707 5.66406C21.9336 5.66406 27.6953-0.0976562 27.6953-7.05078C27.6953-14.0137 21.9238-19.7754 14.9609-19.7754C8.00781-19.7754 2.25586-14.0137 2.25586-7.05078C2.25586-0.0976562 8.01758 5.66406 14.9707 5.66406ZM14.9707 3.84766C8.93555 3.84766 4.08203-1.01562 4.08203-7.05078C4.08203-13.0957 8.92578-17.9492 14.9609-17.9492C21.0059-17.9492 25.8691-13.0957 25.8691-7.05078C25.8691-1.01562 21.0156 3.84766 14.9707 3.84766ZM9.19922-7.05078C9.19922-6.5332 9.57031-6.17188 10.1172-6.17188L14.0625-6.17188L14.0625-2.2168C14.0625-1.67969 14.4336-1.29883 14.9512-1.29883C15.4883-1.29883 15.8594-1.66992 15.8594-2.2168L15.8594-6.17188L19.8145-6.17188C20.3516-6.17188 20.7324-6.5332 20.7324-7.05078C20.7324-7.59766 20.3613-7.96875 19.8145-7.96875L15.8594-7.96875L15.8594-11.9141C15.8594-12.4609 15.4883-12.8418 14.9512-12.8418C14.4336-12.8418 14.0625-12.4609 14.0625-11.9141L14.0625-7.96875L10.1172-7.96875C9.57031-7.96875 9.19922-7.59766 9.19922-7.05078Z"/>
  </g>
  <text style="stroke:none;fill:black;font-family:sans-serif;font-size:13;font-weight:bold;" transform="matrix(1 0 0 1 263 1953)">Design Variations</text>
  <text style="stroke:none;fill:black;font-family:sans-serif;font-size:13;" transform="matrix(1 0 0 1 263 1971)">Symbols are supported in up to nine weights and three scales.</text>
  <text style="stroke:none;fill:black;font-family:sans-serif;font-size:13;" transform="matrix(1 0 0 1 263 1989)">For optimal layout with text and other symbols, vertically align</text>
  <text style="stroke:none;fill:black;font-family:sans-serif;font-size:13;" transform="matrix(1 0 0 1 263 2007)">symbols with the adjacent text.</text>
  <line style="fill:none;stroke:#00AEEF;stroke-width:0.5;opacity:1.0;" x1="776" x2="776" y1="1919" y2="1933"/>
  <g transform="matrix(1 0 0 1 776 1933)">
   <path d="M3.31055 0.15625C3.82812 0.15625 4.08203-0.0390625 4.26758-0.585938L5.52734-4.0332L11.2891-4.0332L12.5488-0.585938C12.7344-0.0390625 12.9883 0.15625 13.4961 0.15625C14.0137 0.15625 14.3457-0.15625 14.3457-0.644531C14.3457-0.810547 14.3164-0.966797 14.2383-1.17188L9.6582-13.3691C9.43359-13.9648 9.0332-14.2676 8.4082-14.2676C7.80273-14.2676 7.39258-13.9746 7.17773-13.3789L2.59766-1.16211C2.51953-0.957031 2.49023-0.800781 2.49023-0.634766C2.49023-0.146484 2.80273 0.15625 3.31055 0.15625ZM6.00586-5.51758L8.37891-12.0898L8.42773-12.0898L10.8008-5.51758Z"/>
  </g>
  <line style="fill:none;stroke:#00AEEF;stroke-width:0.5;opacity:1.0;" x1="793.197" x2="793.197" y1="1919" y2="1933"/>
  <text style="stroke:none;fill:black;font-family:sans-serif;font-size:13;font-weight:bold;" transform="matrix(1 0 0 1 776 1953)">Margins</text>
  <text style="stroke:none;fill:black;font-family:sans-serif;font-size:13;" transform="matrix(1 0 0 1 776 1971)">Leading and trailing margins on the left and right side of each symbol</text>
  <text style="stroke:none;fill:black;font-family:sans-serif;font-size:13;" transform="matrix(1 0 0 1 776 1989)">can be adjusted by modifying the x-location of the margin guidelines.</text>
  <text style="stroke:none;fill:black;font-family:sans-serif;font-size:13;" transform="matrix(1 0 0 1 776 2007)">Modifications are automatically applied proportionally to all</text>
  <text style="stroke:none;fill:black;font-family:sans-serif;font-size:13;" transform="matrix(1 0 0 1 776 2025)">scales and weights.</text>
  <g transform="matrix(1 0 0 1 1289 1933)">
   <path d="M2.8418 1.86523L4.54102 3.57422C5.40039 4.44336 6.38672 4.38477 7.31445 3.35938L18.0078-8.42773L17.041-9.4043L6.42578 2.27539C6.07422 2.67578 5.74219 2.77344 5.27344 2.30469L4.10156 1.14258C3.63281 0.683594 3.74023 0.341797 4.14062-0.0195312L15.6152-10.8203L14.6387-11.7871L3.04688-0.898438C2.06055 0.0195312 1.98242 0.996094 2.8418 1.86523ZM9.25781-16.3281C8.83789-15.918 8.80859-15.3418 9.04297-14.9512C9.27734-14.5898 9.73633-14.3555 10.3809-14.5215C11.8457-14.8633 13.3691-14.9219 14.7949-13.9844L14.209-12.5293C13.8672-11.6992 14.043-11.1133 14.5801-10.5664L16.875-8.25195C17.3633-7.76367 17.7734-7.74414 18.3398-7.8418L19.4043-8.03711L20.0684-7.36328L20.0293-6.80664C19.9902-6.30859 20.1172-5.92773 20.6055-5.44922L21.3672-4.70703C21.8457-4.22852 22.4609-4.19922 22.9297-4.66797L25.8398-7.58789C26.3086-8.05664 26.2891-8.65234 25.8105-9.13086L25.0391-9.89258C24.5605-10.3711 24.1895-10.5273 23.7109-10.4883L23.1348-10.4395L22.4902-11.0742L22.7344-12.1973C22.8613-12.7637 22.7051-13.2031 22.1191-13.7891L19.9219-15.9766C16.582-19.2969 12.1484-19.2188 9.25781-16.3281ZM10.752-15.957C13.1836-17.7344 16.4746-17.4316 18.7012-15.2051L21.1328-12.793C21.3672-12.5586 21.4062-12.373 21.3379-12.0312L21.0156-10.5469L22.5195-9.0625L23.5059-9.12109C23.7598-9.13086 23.8379-9.11133 24.0332-8.91602L24.6094-8.33984L22.168-5.89844L21.5918-6.47461C21.3965-6.66992 21.3672-6.74805 21.377-7.01172L21.4453-7.98828L19.9512-9.47266L18.4277-9.21875C18.1055-9.15039 17.959-9.17969 17.7148-9.41406L15.7129-11.416C15.459-11.6504 15.4297-11.8164 15.5859-12.1875L16.4648-14.2773C14.9023-15.7324 12.8711-16.3574 10.8398-15.7617C10.6836-15.7227 10.625-15.8496 10.752-15.957Z"/>
  </g>
  <text style="stroke:none;fill:black;font-family:sans-serif;font-size:13;font-weight:bold;" transform="matrix(1 0 0 1 1289 1953)">Exporting</text>
  <text style="stroke:none;fill:black;font-family:sans-serif;font-size:13;" transform="matrix(1 0 0 1 1289 1971)">Symbols should be outlined when exporting to ensure the</text>
  <text style="stroke:none;fill:black;font-family:sans-serif;font-size:13;" transform="matrix(1 0 0 1 1289 1989)">design is preserved when submitting to Xcode.</text>
  <text id="template-version" style="stroke:none;fill:black;font-family:sans-serif;font-size:13;text-anchor:end;" transform="matrix(1 0 0 1 3036 1933)">Template v.4.0</text>
  <text style="stroke:none;fill:black;font-family:sans-serif;font-size:13;text-anchor:end;" transform="matrix(1 0 0 1 3036 1951)">Requires Xcode 14 or greater</text>
  <text id="descriptive-name" style="stroke:none;fill:black;font-family:sans-serif;font-size:13;text-anchor:end;" transform="matrix(1 0 0 1 3036 1969)">Generated from figure.baseball</text>
  <text style="stroke:none;fill:black;font-family:sans-serif;font-size:13;text-anchor:end;" transform="matrix(1 0 0 1 3036 1987)">Typeset at 100 points</text>
  <text style="stroke:none;fill:black;font-family:sans-serif;font-size:13;" transform="matrix(1 0 0 1 263 726)">Small</text>
  <text style="stroke:none;fill:black;font-family:sans-serif;font-size:13;" transform="matrix(1 0 0 1 263 1156)">Medium</text>
  <text style="stroke:none;fill:black;font-family:sans-serif;font-size:13;" transform="matrix(1 0 0 1 263 1586)">Large</text>
 </g>
 <g id="Guides">
  <g id="H-reference" style="fill:#27AAE1;stroke:none;" transform="matrix(1 0 0 1 339 696)">
   <path d="M0.993654 0L3.63775 0L29.3281-67.1323L30.0303-67.1323L30.0303-70.459L28.1226-70.459ZM11.6885-24.4799L46.9815-24.4799L46.2315-26.7285L12.4385-26.7285ZM55.1196 0L57.7637 0L30.6382-70.459L29.4326-70.459L29.4326-67.1323Z"/>
  </g>
  <line id="Baseline-S" style="fill:none;stroke:#27AAE1;opacity:1;stroke-width:0.5;" x1="263" x2="3036" y1="696" y2="696"/>
  <line id="Capline-S" style="fill:none;stroke:#27AAE1;opacity:1;stroke-width:0.5;" x1="263" x2="3036" y1="625.541" y2="625.541"/>
  <g id="H-reference" style="fill:#27AAE1;stroke:none;" transform="matrix(1 0 0 1 339 1126)">
   <path d="M0.993654 0L3.63775 0L29.3281-67.1323L30.0303-67.1323L30.0303-70.459L28.1226-70.459ZM11.6885-24.4799L46.9815-24.4799L46.2315-26.7285L12.4385-26.7285ZM55.1196 0L57.7637 0L30.6382-70.459L29.4326-70.459L29.4326-67.1323Z"/>
  </g>
  <line id="Baseline-M" style="fill:none;stroke:#27AAE1;opacity:1;stroke-width:0.5;" x1="263" x2="3036" y1="1126" y2="1126"/>
  <line id="Capline-M" style="fill:none;stroke:#27AAE1;opacity:1;stroke-width:0.5;" x1="263" x2="3036" y1="1055.54" y2="1055.54"/>
  <g id="H-reference" style="fill:#27AAE1;stroke:none;" transform="matrix(1 0 0 1 339 1556)">
   <path d="M0.993654 0L3.63775 0L29.3281-67.1323L30.0303-67.1323L30.0303-70.459L28.1226-70.459ZM11.6885-24.4799L46.9815-24.4799L46.2315-26.7285L12.4385-26.7285ZM55.1196 0L57.7637 0L30.6382-70.459L29.4326-70.459L29.4326-67.1323Z"/>
  </g>
  <line id="Baseline-L" style="fill:none;stroke:#27AAE1;opacity:1;stroke-width:0.5;" x1="263" x2="3036" y1="1556" y2="1556"/>
  <line id="Capline-L" style="fill:none;stroke:#27AAE1;opacity:1;stroke-width:0.5;" x1="263" x2="3036" y1="1485.54" y2="1485.54"/>
  <line id="left-margin-Regular-M" style="fill:none;stroke:#00AEEF;stroke-width:0.5;opacity:1.0;" x1="1395.05" x2="1395.05" y1="1030.79" y2="1150.12"/>
  <line id="right-margin-Regular-M" style="fill:none;stroke:#00AEEF;stroke-width:0.5;opacity:1.0;" x1="1504.64" x2="1504.64" y1="1030.79" y2="1150.12"/>
 </g>
 <g id="Symbols">
  <g id="Black-L" transform="matrix(1 0 0 1 2858.91 1556)">
   <path d="M69.2002-73.814C77.7251-73.814 84.6671-80.756 84.6671-89.3029C84.6671-97.8289 77.7251-104.771 69.2002-104.771C60.6534-104.771 53.6905-97.8289 53.6905-89.3029C53.6905-80.756 60.6534-73.814 69.2002-73.814ZM32.4651 46.3183C36.8373 47.0772 40.8891 44.223 41.7285 39.7484L47.8684 6.53965L72.0443-6.63335C73.0773-7.2291 74.0115-7.04744 74.4464-6.03522L87.1216 24.4966C87.9026 26.4166 89.4581 27.8333 91.0201 28.6947L120.922 45.2816C125.413 47.7778 130.026 45.7994 131.845 42.325C134.041 38.4705 132.604 33.4393 128.749 31.3221L101.38 16.1531L82.6834-58.7112C81.3847-63.7488 77.0465-67.3476 71.6676-67.3476L33.0862-67.3476L52.0369-107.559C54.9936-113.851 50.519-118.239 45.7511-118.239C43.1149-118.239 40.3631-116.881 39.0852-113.588L16.7197-55.8963C15.2898-52.1787 16.2841-48.7732 18.6893-46.3679L34.9919-30.0434C38.0641-26.9699 43.2173-27.0283 46.2324-30.0434L53.3438-37.1756C53.9572-37.789 54.7015-37.6138 54.8688-36.8695L58.5126-22.2021L35.808-5.14181C33.8528-3.64587 33.0134-1.30934 32.5749 0.653545L25.9965 36.8941C25.2375 41.1859 28.1722 45.4789 32.4651 46.3183ZM46.9192-52.3101L40.6407-46.0096L34.2831-52.3101Z"/>
  </g>
  <g id="Heavy-L" transform="matrix(1 0 0 1 2563.19 1556)">
   <path d="M68.2923-73.3733C76.5756-73.3733 83.3031-80.1008 83.3031-88.4199C83.3031-96.7088 76.5756-103.436 68.2923-103.436C59.9732-103.436 53.2155-96.7088 53.2155-88.4199C53.2155-80.1008 59.9732-73.3733 68.2923-73.3733ZM32.078 44.8417C36.2489 45.5687 40.1038 42.8518 40.9112 38.5647L46.9926 5.65666L71.3525-7.60614C72.3127-8.16106 73.1736-7.97004 73.5677-7.03998L86.2224 23.4431C86.9852 25.2991 88.4536 26.6425 89.9792 27.4857L119.493 43.8647C123.758 46.2511 128.17 44.3504 129.916 41.0315C132.017 37.3463 130.643 32.5534 126.958 30.5276L99.8397 15.4977L81.3509-58.5324C80.1024-63.3825 75.929-66.8534 70.7327-66.8534L32.2392-66.8534L50.9367-106.545C53.7699-112.572 49.4827-116.721 44.9669-116.721C42.4498-116.721 39.8491-115.423 38.6307-112.295L16.6646-55.5417C15.3538-52.0937 16.294-48.9226 18.4969-46.7196L34.7155-30.4652C37.6323-27.5428 42.566-27.5875 45.4438-30.4652L52.5474-37.5991C53.2391-38.2908 54.14-38.1569 54.358-37.256L58.053-22.4338L35.4815-5.49378C33.6222-4.07559 32.8148-1.84438 32.4039 0.0776812L25.9115 35.8477C25.1845 39.9382 27.9819 44.0343 32.078 44.8417ZM46.4525-52.332L40.0991-45.9428L33.6709-52.332Z"/>
  </g>
  <g id="Bold-L" transform="matrix(1 0 0 1 2267.76 1556)">
   <path d="M67.1108-72.8054C75.0944-72.8054 81.5605-79.2715 81.5605-87.3063C81.5605-95.3032 75.0944-101.769 67.1108-101.769C59.0759-101.769 52.5718-95.3032 52.5718-87.3063C52.5718-79.2715 59.0759-72.8054 67.1108-72.8054ZM31.594 42.9384C35.5264 43.627 39.1504 41.0717 39.9193 37.0076L45.9166 4.5431L70.41-8.78266C71.2781-9.2839 72.0543-9.08507 72.3947-8.25497L84.989 22.0772C85.7288 23.8564 87.0971 25.115 88.5766 25.9352L117.561 42.0307C121.565 44.2863 125.739 42.4779 127.4 39.3437C129.385 35.8586 128.088 31.3428 124.603 29.4248L97.8521 14.6013L79.6542-58.2574C78.4672-62.8844 74.4863-66.2015 69.5129-66.2015L31.2463-66.2015L49.5989-105.188C52.2859-110.899 48.2219-114.772 43.9986-114.772C41.6201-114.772 39.1964-113.542 38.0474-110.607L16.6029-55.0888C15.4307-51.9639 16.2943-49.0548 18.2736-47.0756L34.3475-30.9505C37.0796-28.2051 41.7517-28.2343 44.4679-30.9505L51.5414-38.062C52.318-38.8386 53.3887-38.751 53.6607-37.6803L57.4024-22.733L35.052-5.98387C33.308-4.65802 32.5391-2.54997 32.159-0.6816L25.7816 34.4523C25.0931 38.3043 27.7288 42.1695 31.594 42.9384ZM45.8315-52.303L39.4157-45.836L32.9327-52.303Z"/>
  </g>
  <g id="Semibold-L" transform="matrix(1 0 0 1 1971.94 1556)">
   <path d="M66.2962-72.4138C74.0733-72.4138 80.3592-78.6998 80.3592-86.5387C80.3592-94.3342 74.0733-100.62 66.2962-100.62C58.4573-100.62 52.128-94.3342 52.128-86.5387C52.128-78.6998 58.4573-72.4138 66.2962-72.4138ZM31.2604 41.6263C35.0283 42.2883 38.4931 39.8444 39.2355 35.9342L45.1748 3.77543L69.7603-9.59376C70.5649-10.058 71.2826-9.85377 71.586-9.09257L84.1387 21.1356C84.8626 22.8618 86.1619 24.062 87.6096 24.8663L116.23 40.7663C120.053 42.9318 124.062 41.1871 125.665 38.1801C127.57 34.833 126.327 30.5083 122.98 28.6646L96.4818 13.9833L78.4845-58.0679C77.3398-62.541 73.4917-65.7521 68.6719-65.7521L30.5617-65.7521L48.6767-104.252C51.2628-109.746 47.3526-113.428 43.3311-113.428C41.0481-113.428 38.7465-112.246 37.6452-109.443L16.5604-54.7765C15.4837-51.8744 16.2946-49.146 18.1197-47.321L34.0937-31.285C36.6986-28.6617 41.1904-28.6803 43.7951-31.285L50.8479-38.3812C51.683-39.2163 52.8707-39.1606 53.1801-37.9728L56.9539-22.9394L34.7559-6.32174C33.0915-5.05953 32.349-3.0364 31.9902-1.20504L25.6921 33.4903C25.0301 37.1779 27.5544 40.8839 31.2604 41.6263ZM45.4033-52.283L38.9445-45.7623L32.4237-52.283Z"/>
  </g>
  <g id="Medium-L" transform="matrix(1 0 0 1 1675.9 1556)">
   <path d="M65.6786-72.117C73.299-72.117 79.4483-78.2663 79.4483-85.9566C79.4483-93.5994 73.299-99.7487 65.6786-99.7487C57.9883-99.7487 51.7915-93.5994 51.7915-85.9566C51.7915-78.2663 57.9883-72.117 65.6786-72.117ZM31.0074 40.6314C34.6507 41.2733 37.9947 38.9139 38.7171 35.1203L44.6123 3.19334L69.2677-10.2088C70.024-10.6449 70.6975-10.4366 70.9728-9.72768L83.494 20.4216C84.2058 22.1076 85.4527 23.2636 86.8764 24.0558L115.22 39.8076C118.907 41.9047 122.791 40.2083 124.349 37.2979C126.195 34.0553 124.991 29.8755 121.749 28.0881L95.4428 13.5148L77.5976-57.9241C76.4851-62.2807 72.7375-65.4113 68.0343-65.4113L30.0427-65.4113L47.9774-103.543C50.4871-108.872 46.6935-112.409 42.8249-112.409C40.6144-112.409 38.4053-111.263 37.3403-108.561L16.5281-54.5398C15.5239-51.8065 16.2948-49.2151 18.0029-47.507L33.9014-31.5387C36.4097-29.0079 40.7647-29.0184 43.285-31.5387L50.3221-38.6232C51.2016-39.5027 52.478-39.4711 52.8156-38.1946L56.6138-23.0958L34.5313-6.57792C32.9273-5.36398 32.2049-3.40524 31.8622-1.60194L25.6242 32.7609C24.9823 36.3238 27.4221 39.9091 31.0074 40.6314ZM45.0787-52.2679L38.5872-45.7065L32.0378-52.2679Z"/>
  </g>
  <g id="Regular-L" transform="matrix(1 0 0 1 1380.07 1556)">
   <path d="M64.873-71.7297C72.2891-71.7297 78.2602-77.7008 78.2602-85.1973C78.2602-92.6411 72.2891-98.6122 64.873-98.6122C57.3765-98.6122 51.3526-92.6411 51.3526-85.1973C51.3526-77.7008 57.3765-71.7297 64.873-71.7297ZM30.6775 39.3337C34.1581 39.9494 37.3447 37.7002 38.0408 34.0587L43.8787 2.4341L68.6251-11.0109C69.3186-11.4105 69.9343-11.1969 70.173-10.5561L82.653 19.4904C83.3492 21.1239 84.5278 22.2221 85.9201 22.9986L113.903 38.5572C117.412 40.5651 121.133 38.9316 122.634 36.1471C124.4 33.0409 123.249 29.0501 120.143 27.3362L94.0876 12.9036L76.4407-57.7367C75.3701-61.9411 71.7538-64.9668 67.2026-64.9668L29.3656-64.9668L47.0653-102.618C49.4753-107.732 45.8339-111.079 42.1648-111.079C40.0487-111.079 37.9604-109.981 36.9426-107.41L16.4861-54.231C15.5764-51.7179 16.295-49.3053 17.8507-47.7497L33.6504-31.8695C36.0328-29.4595 40.2096-29.4595 42.6196-31.8695L49.6362-38.9388C50.5735-39.8762 51.9658-39.8762 52.3402-38.4839L56.1702-23.2999L34.2385-6.91207C32.7131-5.76109 32.0169-3.88632 31.6953-2.11963L25.5357 31.8095C24.92 35.2097 27.2496 38.6376 30.6775 39.3337ZM44.6552-52.2481L38.1212-45.6337L31.5344-52.2481Z"/>
  </g>
  <g id="Light-L" transform="matrix(1 0 0 1 1084.66 1556)">
   <path d="M63.6897-71.1954C70.8958-71.1954 76.7142-77.0137 76.7142-84.3003C76.7142-91.5532 70.8958-97.3716 63.6897-97.3716C56.4031-97.3716 50.551-91.5532 50.551-84.3003C50.551-77.0137 56.4031-71.1954 63.6897-71.1954ZM30.3148 37.5397C33.7 38.1363 36.8103 35.9443 37.4873 32.3983L43.1916 1.53709L67.4227-11.6408C68.0399-11.983 68.6365-11.7885 68.818-11.205L81.0308 18.1544C81.7078 19.7497 82.8674 20.8289 84.2215 21.5863L111.537 36.7822C114.969 38.7329 118.595 37.1376 120.076 34.4294C121.786 31.3996 120.673 27.4852 117.643 25.8094L92.1981 11.7394L74.9711-57.2023C73.9387-61.3113 70.3796-64.2607 65.9621-64.2607L29.0412-64.2607L46.3019-101.034C48.6546-106.014 45.1086-109.285 41.5159-109.285C39.438-109.285 37.4069-108.206 36.4082-105.693L16.4861-53.8302C15.6145-51.4698 16.2187-49.0572 17.7934-47.4825L33.2306-31.9649C35.5366-29.6121 39.5988-29.6121 41.9516-31.9649L48.8155-38.8625C49.7338-39.7808 51.0879-39.7808 51.4432-38.4267L55.1968-23.5862L33.7804-7.59914C32.3123-6.48633 31.6352-4.64973 31.3135-2.9403L25.2876 30.2064C24.691 33.5111 26.9633 36.8626 30.3148 37.5397ZM43.9491-51.8664L37.5677-45.4046L31.1527-51.8664Z"/>
  </g>
  <g id="Thin-L" transform="matrix(1 0 0 1 789.663 1556)">
   <path d="M62.1247-70.4886C69.0532-70.4886 74.6697-76.105 74.6697-83.114C74.6697-90.1144 69.0532-95.7309 62.1247-95.7309C55.1158-95.7309 49.4909-90.1144 49.4909-83.114C49.4909-76.105 55.1158-70.4886 62.1247-70.4886ZM29.8352 35.1669C33.0942 35.7383 36.1035 33.6221 36.7553 30.2023L42.2829 0.350723L65.8325-12.4737C66.3487-12.7403 66.9201-12.571 67.0258-12.0632L78.8852 16.3875C79.537 17.9323 80.6713 18.9862 81.9749 19.7184L108.407 34.4347C111.738 36.3097 115.238 34.7648 116.694 32.1577C118.328 29.2288 117.265 25.4153 114.336 23.7901L89.6992 10.1996L73.0275-56.4955C72.0456-60.4783 68.5622-63.3267 64.3213-63.3267L28.6121-63.3267L45.2922-98.9387C47.5692-103.743 44.1494-106.913 40.6576-106.913C38.6303-106.913 36.6749-105.859 35.7014-103.421L16.4861-53.3001C15.665-51.1417 16.1177-48.7291 17.7177-47.1291L32.6752-32.0911C34.8803-29.8141 38.7911-29.8141 41.0682-32.0911L47.7301-38.7615C48.6231-39.6546 49.9267-39.6546 50.2569-38.351L53.9095-23.9648L33.1746-8.50785C31.7822-7.44551 31.1304-5.6594 30.8087-4.0257L24.9594 28.0861C24.3881 31.2646 26.5847 34.5152 29.8352 35.1669ZM43.0151-51.3616L36.8357-45.1017L30.6479-51.3616Z"/>
  </g>
  <g id="Ultralight-L" transform="matrix(1 0 0 1 493.831 1556)">
   <path d="M61.3231-70.1266C68.1094-70.1266 73.6224-75.6396 73.6224-82.5063C73.6224-89.3775 68.1094-94.8905 61.3231-94.8905C54.4564-94.8905 48.9479-89.3775 48.9479-82.5063C48.9479-75.6396 54.4564-70.1266 61.3231-70.1266ZM29.5896 33.9516C32.7839 34.5101 35.7415 32.4327 36.3804 29.0775L41.8175-0.256928L65.0179-12.9004C65.4825-13.1282 66.0409-12.9718 66.1079-12.5028L77.7863 15.4825C78.4252 17.0015 79.5465 18.0424 80.8243 18.7617L106.804 33.2324C110.083 35.0685 113.518 33.5495 114.961 30.9941C116.556 28.1169 115.52 24.3552 112.643 22.7558L88.4192 9.41099L72.032-56.1335C71.0759-60.0516 67.6314-62.8483 63.481-62.8483L28.3923-62.8483L44.775-97.8656C47.0133-102.579 43.6581-105.697 40.2181-105.697C38.2165-105.697 36.2999-104.656 35.3394-102.257L16.4861-53.0286C15.6909-50.9736 16.066-48.561 17.6789-46.9481L32.3908-32.1558C34.5442-29.9175 38.3774-29.9175 40.6157-32.1558L47.1742-38.7098C48.0543-39.5899 49.332-39.5899 49.6492-38.3122L53.2501-24.1587L32.8643-8.97328C31.5107-7.93681 30.8718-6.17655 30.5501-4.58163L24.7914 27C24.2329 30.114 26.3908 33.3128 29.5896 33.9516ZM42.5368-51.103L36.4608-44.9466L30.3893-51.103Z"/>
  </g>
  <g id="Black-M" transform="matrix(1 0 0 1 2875.01 1126)">
   <path d="M54.2323-65.4289C61.016-65.4289 66.558-70.9708 66.558-77.7598C66.558-84.5432 61.016-90.0852 54.2323-90.0852C47.4433-90.0852 41.8959-84.5432 41.8959-77.7598C41.8959-70.9708 47.4433-65.4289 54.2323-65.4289ZM25.4357 28.9749C28.9831 29.5878 32.281 27.2662 32.9562 23.6514L37.7452-2.23185L56.2473-12.3242C57.0999-12.813 57.8841-12.6829 58.2484-11.8359L68.0498 11.7672C68.6679 13.3045 69.9453 14.4626 71.1816 15.143L94.5918 28.1232C98.2531 30.1436 101.987 28.5492 103.457 25.7341C105.233 22.6127 104.07 18.5205 100.948 16.8067L79.6106 4.98423L65.0044-53.503C63.9603-57.554 60.4654-60.4418 56.1593-60.4418L26.3172-60.4418L41.1573-91.9235C43.5464-97.0083 39.9315-100.602 36.0314-100.602C33.8918-100.602 31.6378-99.5011 30.5991-96.8161L13.0008-51.4915C11.7959-48.4002 12.5971-45.5604 14.637-43.5205L27.2903-30.862C29.7938-28.3588 33.9593-28.4159 36.4055-30.862L41.901-36.363C42.3063-36.7684 42.7432-36.5971 42.8267-36.1602L45.5952-24.9763L27.9606-11.7099C26.371-10.4893 25.6958-8.59372 25.3324-7.04567L20.18 21.3298C19.5671 24.8149 21.9509 28.2997 25.4357 28.9749ZM36.6557-48.392L31.8766-43.6077L27.0349-48.392Z"/>
  </g>
  <g id="Heavy-M" transform="matrix(1 0 0 1 2579.15 1126)">
   <path d="M53.4539-65.0473C60.0208-65.0473 65.3672-70.3937 65.3672-76.9793C65.3672-83.5485 60.0208-88.8949 53.4539-88.8949C46.8683-88.8949 41.5055-83.5485 41.5055-76.9793C41.5055-70.3937 46.8683-65.0473 53.4539-65.0473ZM25.0907 27.697C28.4501 28.2804 31.5626 26.0878 32.2083 22.6474L36.9525-3.01228L55.682-13.217C56.4704-13.6713 57.1847-13.5302 57.5144-12.7582L67.3204 10.8606C67.9225 12.3389 69.1165 13.427 70.3207 14.0914L93.4124 26.9017C96.8613 28.8202 100.408 27.2982 101.807 24.6281C103.495 21.6652 102.391 17.7988 99.4277 16.1709L78.2795 4.45097L63.8374-53.3775C62.8388-57.2541 59.4997-60.0238 55.3598-60.0238L25.5192-60.0238L40.1522-91.078C42.4258-95.9158 38.9854-99.2837 35.3246-99.2837C33.2979-99.2837 31.1863-98.2392 30.2042-95.7102L12.9469-51.1817C11.8549-48.34 12.6138-45.7293 14.4542-43.8889L27.0589-31.2656C29.4174-28.9047 33.3789-28.9484 35.6962-31.2656L41.1981-36.784C41.6818-37.2676 42.2753-37.1368 42.41-36.5433L45.2358-25.1764L27.6836-11.9906C26.1826-10.8425 25.5369-9.04634 25.2004-7.53291L20.1198 20.4548C19.5364 23.7519 21.7913 27.0513 25.0907 27.697ZM36.2646-48.4486L31.3982-43.5635L26.4717-48.4486Z"/>
  </g>
  <g id="Bold-M" transform="matrix(1 0 0 1 2283.39 1126)">
   <path d="M52.5832-64.6206C58.9076-64.6206 64.0352-69.7481 64.0352-76.1063C64.0352-82.4359 58.9076-87.5634 52.5832-87.5634C46.225-87.5634 41.0688-82.4359 41.0688-76.1063C41.0688-69.7481 46.225-64.6206 52.5832-64.6206ZM24.7047 26.2675C27.8539 26.8179 30.759 24.7695 31.3717 21.5243L36.0657-3.88531L55.0496-14.2158C55.7663-14.6313 56.4024-14.4781 56.6933-13.79L66.5045 9.84638C67.0887 11.2587 68.1894 12.2686 69.3577 12.915L92.093 25.5354C95.3044 27.3397 98.6405 25.8989 99.9619 23.3909C101.551 20.6053 100.512 16.9915 97.7266 15.4598L76.7904 3.85444L62.5318-53.2371C61.5842-56.9185 58.4195-59.5562 54.4655-59.5562L24.6265-59.5562L39.0279-90.1321C41.1723-94.6936 37.9271-97.809 34.534-97.809C32.6336-97.809 30.6813-96.8276 29.7623-94.473L12.8867-50.8353C11.9209-48.2727 12.6325-45.9182 14.2497-44.3011L26.8-31.717C28.9964-29.5155 32.7297-29.544 34.9027-31.717L40.4119-37.2549C40.9832-37.8261 41.7518-37.7405 41.944-36.9718L44.8336-25.4002L27.3738-12.3046C25.9718-11.2375 25.3591-9.55266 25.0528-8.07796L20.0525 19.4759C19.5021 22.5628 21.6127 25.6548 24.7047 26.2675ZM35.8272-48.512L30.863-43.5141L25.8417-48.512Z"/>
  </g>
  <g id="Semibold-M" transform="matrix(1 0 0 1 1987.33 1126)">
   <path d="M51.9829-64.3264C58.1402-64.3264 63.1169-69.303 63.1169-75.5044C63.1169-81.6688 58.1402-86.6455 51.9829-86.6455C45.7815-86.6455 40.7678-81.6688 40.7678-75.5044C40.7678-69.303 45.7815-64.3264 51.9829-64.3264ZM24.4387 25.282C27.4429 25.8096 30.205 23.8607 30.7949 20.75L35.4544-4.48717L54.6136-14.9044C55.2809-15.2932 55.863-15.1315 56.1272-14.5013L65.942 9.14721C66.5138 10.514 67.5502 11.47 68.6938 12.1041L91.1834 24.5934C94.2311 26.3191 97.4222 24.9341 98.6897 22.538C100.21 19.8745 99.2173 16.4349 96.5538 14.9695L75.7639 3.44319L61.6318-53.1404C60.7193-56.6872 57.6749-59.2339 53.8489-59.2339L24.011-59.2339L38.2528-89.4801C40.3082-93.8511 37.1975-96.7923 33.9889-96.7923C32.1757-96.7923 30.3332-95.8545 29.4577-93.6201L12.8451-50.5964C11.9664-48.2263 12.6454-46.0485 14.1087-44.5852L26.6215-32.0282C28.7061-29.9365 32.2821-29.9547 34.3556-32.0282L39.8699-37.5795C40.5015-38.2111 41.3909-38.1567 41.6227-37.2673L44.5564-25.5544L27.1602-12.521C25.8265-11.5099 25.2365-9.90171 24.951-8.45371L20.006 18.8011C19.4784 21.743 21.4896 24.692 24.4387 25.282ZM35.5256-48.5557L30.4941-43.4801L25.4074-48.5557Z"/>
  </g>
  <g id="Medium-M" transform="matrix(1 0 0 1 1691.11 1126)">
   <path d="M51.5278-64.1033C57.5583-64.1033 62.4206-68.9655 62.4206-75.0481C62.4206-81.0872 57.5583-85.9495 51.5278-85.9495C45.4452-85.9495 40.5395-81.0872 40.5395-75.0481C40.5395-68.9655 45.4452-64.1033 51.5278-64.1033ZM24.2369 24.5347C27.1312 25.0451 29.7849 23.1716 30.3576 20.1629L34.9908-4.94352L54.2831-15.4265C54.9128-15.795 55.454-15.627 55.698-15.0407L65.5155 8.61707C66.0779 9.94938 67.0656 10.8644 68.1904 11.4892L90.4938 23.8792C93.4172 25.5452 96.4985 24.2026 97.725 21.8913C99.1939 19.3205 98.2354 16.0129 95.6646 14.5977L74.9855 3.13137L60.9494-53.067C60.0635-56.5118 57.1102-58.9895 53.3814-58.9895L23.5444-58.9895L37.6651-88.9857C39.6529-93.2123 36.6443-96.0214 33.5756-96.0214C31.8284-96.0214 30.0692-95.1166 29.2267-92.9733L12.8136-50.4153C12.0009-48.1911 12.6552-46.1472 14.0017-44.8007L26.4862-32.2642C28.486-30.2558 31.9427-30.2661 33.9409-32.2642L39.4589-37.8257C40.1363-38.5031 41.1173-38.4722 41.3791-37.4913L44.3462-25.6714L26.9983-12.6852C25.7163-11.7164 25.1436-10.1664 24.8738-8.73862L19.9709 18.2894C19.4605 21.1214 21.3963 23.962 24.2369 24.5347ZM35.2969-48.5888L30.2144-43.4542L25.0781-48.5888Z"/>
  </g>
  <g id="Regular-M" transform="matrix(1 0 0 1 1395.05 1126)">
   <path d="M50.9341-63.8123C56.7993-63.8123 61.5124-68.5253 61.5124-74.4528C61.5124-80.3286 56.7993-85.0416 50.9341-85.0416C45.0066-85.0416 40.2418-80.3286 40.2418-74.4528C40.2418-68.5253 45.0066-63.8123 50.9341-63.8123ZM23.9737 23.5601C26.7247 24.0479 29.237 22.2728 29.7872 19.3972L34.3862-5.53877L53.8519-16.1075C54.4327-16.4496 54.9206-16.2733 55.1382-15.7442L64.9592 7.92559C65.5094 9.21288 66.4334 10.0746 67.5338 10.6871L89.5942 22.9476C92.3557 24.5358 95.2936 23.2485 96.4668 21.0478C97.8682 18.5978 96.9547 15.4625 94.5047 14.1129L73.9703 2.72465L60.0592-52.9713C59.2081-56.283 56.3737-58.6706 52.7716-58.6706L22.9357-58.6706L36.8985-88.3408C38.7983-92.379 35.9227-95.0159 33.0366-95.0159C31.3755-95.0159 29.7249-94.1542 28.9255-92.1298L12.7725-50.1791C12.0459-48.1452 12.668-46.276 13.8623-45.0817L26.3097-32.572C28.1989-30.6722 31.5001-30.6722 33.3999-32.572L38.9229-38.1468C39.66-38.8839 40.7604-38.8839 41.0613-37.7835L44.0721-25.824L26.787-12.8993C25.5726-11.9858 25.0224-10.5116 24.7732-9.11024L19.9249 17.622C19.4371 20.3107 21.2745 23.0099 23.9737 23.5601ZM34.9987-48.632L29.8495-43.4206L24.6485-48.632Z"/>
  </g>
  <g id="Light-M" transform="matrix(1 0 0 1 1099.5 1126)">
   <path d="M49.8732-63.3332C55.5502-63.3332 60.1264-67.9093 60.1264-73.6486C60.1264-79.3532 55.5502-83.9294 49.8732-83.9294C44.134-83.9294 39.5232-79.3532 39.5232-73.6486C39.5232-67.9093 44.134-63.3332 49.8732-63.3332ZM23.6486 21.9516C26.314 22.4224 28.7579 20.6986 29.291 17.9085L33.7702-6.34298L52.7739-16.6721C53.2863-16.963 53.7571-16.8037 53.9233-16.326L63.5048 6.72782C64.0379 7.9809 64.9448 8.8255 66.0109 9.42088L87.4725 21.3562C90.1655 22.8932 93.0178 21.6401 94.174 19.5078C95.524 17.1262 94.6447 14.0594 92.2632 12.744L72.2763 1.68088L58.7417-52.4922C57.9248-55.7183 55.1417-58.0375 51.6594-58.0375L22.6448-58.0375L36.214-86.9206C38.0625-90.839 35.2725-93.4075 32.4548-93.4075C30.8279-93.4075 29.2287-92.5629 28.4464-90.5898L12.7725-49.8198C12.0801-47.9227 12.5995-46.0536 13.811-44.8421L25.9332-32.6575C27.754-30.8091 30.9525-30.8091 32.801-32.6575L38.1871-38.0783C38.9071-38.7983 39.9733-38.7983 40.2571-37.7322L43.1994-26.0807L26.3763-13.5153C25.2132-12.636 24.6802-11.196 24.4309-9.84601L19.7025 16.1847C19.2317 18.7878 21.0179 21.4185 23.6486 21.9516ZM34.3656-48.2898L29.3533-43.2152L24.3063-48.2898Z"/>
  </g>
  <g id="Thin-M" transform="matrix(1 0 0 1 804.329 1126)">
   <path d="M48.4701-62.6995C53.8982-62.6995 58.2933-67.0946 58.2933-72.585C58.2933-78.0633 53.8982-82.4584 48.4701-82.4584C42.9798-82.4584 38.5727-78.0633 38.5727-72.585C38.5727-67.0946 42.9798-62.6995 48.4701-62.6995ZM23.2187 19.8244C25.7709 20.2725 28.1242 18.6165 28.6347 15.9397L32.9555-7.40662L51.3482-17.4189C51.77-17.6419 52.2182-17.5053 52.3165-17.0954L61.5812 5.14368C62.0916 6.35149 62.9759 7.17347 63.9968 7.74622L84.6663 19.2516C87.2688 20.7206 90.008 19.5128 91.1415 17.471C92.4236 15.18 91.5896 12.2036 89.2986 10.9335L70.0359 0.300415L56.9992-51.8585C56.2275-54.9715 53.5123-57.2002 50.1884-57.2002L22.2601-57.2002L35.3088-85.0422C37.0894-88.8023 34.4125-91.2802 31.6854-91.2802C30.1037-91.2802 28.5724-90.4582 27.8127-88.5531L12.7725-49.3445C12.1254-47.6285 12.509-45.7594 13.7431-44.5253L25.4354-32.7707C27.1656-30.9901 30.2283-30.9901 32.0089-32.7707L37.214-37.9878C37.9113-38.6852 38.9322-38.6852 39.1935-37.6643L42.0452-26.4201L25.8332-14.33C24.738-13.496 24.2275-12.1013 23.9783-10.8191L19.4083 14.2837C18.9602 16.7737 20.6784 19.3139 23.2187 19.8244ZM33.5282-47.8372L28.697-42.9437L23.8537-47.8372Z"/>
  </g>
  <g id="Ultralight-M" transform="matrix(1 0 0 1 508.406 1126)">
   <path d="M47.7515-62.375C53.052-62.375 57.3544-66.6774 57.3544-72.0402C57.3544-77.4026 53.052-81.705 47.7515-81.705C42.3887-81.705 38.0858-77.4026 38.0858-72.0402C38.0858-66.6774 42.3887-62.375 47.7515-62.375ZM22.9984 18.7348C25.4927 19.1713 27.7997 17.5501 28.2985 14.9312L32.5382-7.95141L50.6179-17.8014C50.9934-17.9896 51.43-17.8646 51.4936-17.4895L60.5959 4.33229C61.0948 5.51692 61.9675 6.3273 62.9652 6.88847L83.2289 18.1736C85.7851 19.6079 88.4663 18.4232 89.5882 16.4278C90.8356 14.1832 90.0248 11.2532 87.7801 10.0062L68.8883-0.406653L56.1066-51.534C55.3581-54.589 52.6778-56.7713 49.435-56.7713L22.063-56.7713L34.8452-84.0801C36.5909-87.7591 33.972-90.1906 31.2913-90.1906C29.7328-90.1906 28.2362-89.3803 27.4882-87.5098L12.7725-49.1011C12.1486-47.4778 12.4626-45.6087 13.7083-44.363L25.1804-32.8287C26.8643-31.0829 29.8574-31.0829 31.6032-32.8287L36.7156-37.9414C37.4013-38.6272 38.399-38.6272 38.6487-37.6295L41.4541-26.594L25.555-14.7473C24.4946-13.9364 23.9957-12.5649 23.7465-11.3175L19.2576 13.3101C18.8211 15.742 20.5046 18.2359 22.9984 18.7348ZM33.0994-47.6054L28.3608-42.8046L23.6219-47.6054Z"/>
  </g>
  <g id="Black-S" transform="matrix(1 0 0 1 2887.45 696)">
   <path d="M42.6758-58.9844C48.0469-58.9844 52.4414-63.3789 52.4414-68.75C52.4414-74.1211 48.0469-78.5156 42.6758-78.5156C37.3047-78.5156 32.9102-74.1211 32.9102-68.75C32.9102-63.3789 37.3047-58.9844 42.6758-58.9844ZM20.0195 15.3809C22.8516 15.8691 25.4883 14.0137 26.0254 11.1328L29.7852-9.17969L44.1895-17.041C44.873-17.4316 45.5078-17.334 45.8008-16.6504L53.4668 1.80664C53.9551 3.02734 54.9805 3.95508 55.957 4.49219L74.3652 14.6973C77.2949 16.3086 80.2734 15.0391 81.4453 12.793C82.8613 10.3027 81.9336 7.03125 79.4434 5.66406L62.6953-3.61328L51.2207-49.5605C50.3906-52.7832 47.6074-55.0781 44.1895-55.0781L20.8496-55.0781L32.5195-79.834C34.4238-83.8867 31.543-86.7676 28.418-86.7676C26.709-86.7676 24.9023-85.8887 24.0723-83.7402L10.2051-48.0469C9.22852-45.5566 9.86328-43.2617 11.5234-41.6016L21.4355-31.6895C23.4375-29.6875 26.7578-29.7363 28.7109-31.6895L33.0078-35.9863C33.3008-36.2793 33.5938-36.1328 33.6426-35.8398L35.791-27.1484L21.9727-16.748C20.7031-15.7715 20.166-14.2578 19.873-13.0371L15.8203 9.27734C15.332 12.0605 17.2363 14.8438 20.0195 15.3809ZM28.8086-45.5078L25.0977-41.7969L21.3379-45.5078Z"/>
  </g>
  <g id="Heavy-S" transform="matrix(1 0 0 1 2591.32 696)">
   <path d="M42.1457-58.7193C47.3554-58.7193 51.6001-62.964 51.6001-68.1853C51.6001-73.3951 47.3554-77.6398 42.1457-77.6398C36.9244-77.6398 32.6681-73.3951 32.6681-68.1853C32.6681-62.964 36.9244-58.7193 42.1457-58.7193ZM19.766 14.4935C22.4482 14.9587 24.9351 13.207 25.4492 10.4644L29.1859-9.74439L43.8437-17.7325C44.4812-18.1001 45.0584-17.9909 45.3283-17.3649L53.0289 1.18432C53.5056 2.35892 54.4619 3.22904 55.4154 3.75462L73.6277 13.856C76.3845 15.3866 79.2132 14.1747 80.3274 12.0439C81.6743 9.68041 80.7927 6.59332 78.4292 5.29528L61.7734-3.93597L50.3909-49.5144C49.5954-52.5988 46.939-54.8015 43.6478-54.8015L20.2042-54.8015L31.7474-79.2923C33.5595-83.1492 30.8169-85.8456 27.8878-85.8456C26.2711-85.8456 24.5797-85.0128 23.7957-82.9911L10.159-47.8279C9.27461-45.5336 9.88633-43.4346 11.3736-41.9473L21.2857-32.0237C23.1724-30.137 26.3314-30.1743 28.1808-32.0237L32.5007-36.3551C32.8629-36.7172 33.2941-36.6053 33.389-36.1741L35.5951-27.2867L21.7883-16.9094C20.5879-15.9904 20.0738-14.5574 19.8039-13.3598L15.7973 8.71264C15.332 11.346 17.1326 13.9794 19.766 14.4935ZM28.5551-45.6L24.7519-41.7854L20.9-45.6Z"/>
  </g>
  <g id="Bold-S" transform="matrix(1 0 0 1 2295.25 696)">
   <path d="M41.5527-58.4229C46.582-58.4229 50.6592-62.5 50.6592-67.5537C50.6592-72.583 46.582-76.6602 41.5527-76.6602C36.499-76.6602 32.3975-72.583 32.3975-67.5537C32.3975-62.5 36.499-58.4229 41.5527-58.4229ZM19.4824 13.501C21.9971 13.9404 24.3164 12.3047 24.8047 9.7168L28.5156-10.376L43.457-18.5059C44.043-18.8477 44.5557-18.7256 44.7998-18.1641L52.5391 0.488281C53.0029 1.61133 53.8818 2.41699 54.8096 2.92969L72.8027 12.915C75.3662 14.3555 78.0273 13.208 79.0771 11.2061C80.3467 8.98438 79.5166 6.10352 77.2949 4.88281L60.7422-4.29688L49.4629-49.4629C48.7061-52.3926 46.1914-54.4922 43.042-54.4922L19.4824-54.4922L30.8838-78.6865C32.5928-82.3242 30.0049-84.8145 27.2949-84.8145C25.7812-84.8145 24.2188-84.0332 23.4863-82.1533L10.1074-47.583C9.32617-45.5078 9.91211-43.6279 11.2061-42.334L21.1182-32.3975C22.876-30.6396 25.8545-30.6641 27.5879-32.3975L31.9336-36.7676C32.373-37.207 32.959-37.1338 33.1055-36.5479L35.376-27.4414L21.582-17.0898C20.459-16.2354 19.9707-14.8926 19.7266-13.7207L15.7715 8.08105C15.332 10.5469 17.0166 13.0127 19.4824 13.501ZM28.2715-45.7031L24.3652-41.7725L20.4102-45.7031Z"/>
  </g>
  <g id="Semibold-S" transform="matrix(1 0 0 1 1998.98 696)">
   <path d="M41.1439-58.2185C46.0488-58.2185 50.0104-62.1801 50.0104-67.1183C50.0104-72.0231 46.0488-75.9848 41.1439-75.9848C36.2058-75.9848 32.2108-72.0231 32.2108-67.1183C32.2108-62.1801 36.2058-58.2185 41.1439-58.2185ZM19.2869 12.8167C21.686 13.2384 23.8898 11.6826 24.3604 9.20137L28.0535-10.8114L43.1904-19.0391C43.7408-19.3631 44.2091-19.2321 44.4354-18.715L52.2014 0.00839844C52.6563 1.0959 53.4819 1.85713 54.3919 2.36094L72.234 12.2663C74.6642 13.6445 77.2098 12.5415 78.2151 10.6284C79.4313 8.50449 78.6368 5.76582 76.5129 4.59844L60.0312-4.5457L48.823-49.4273C48.0929-52.2504 45.676-54.2789 42.6243-54.2789L18.9848-54.2789L30.2884-78.2688C31.9263-81.7555 29.445-84.1035 26.8861-84.1035C25.4436-84.1035 23.9699-83.3578 23.273-81.5757L10.0719-47.4142C9.36172-45.49 9.92988-43.7612 11.0905-42.6006L21.0026-32.6552C22.6716-30.9862 25.5257-31.0018 27.1791-32.6552L31.5426-37.052C32.0354-37.5447 32.7279-37.4981 32.91-36.8056L35.2249-27.548L21.4398-17.2143C20.3701-16.4042 19.8996-15.1236 19.6732-13.9695L15.7537 7.64561C15.332 9.9959 16.9366 12.3462 19.2869 12.8167ZM28.076-45.7742L24.0986-41.7636L20.0725-45.7742Z"/>
  </g>
  <g id="Medium-S" transform="matrix(1 0 0 1 1702.61 696)">
   <path d="M40.834-58.0635C45.6445-58.0635 49.5186-61.9375 49.5186-66.7881C49.5186-71.5986 45.6445-75.4727 40.834-75.4727C35.9834-75.4727 32.0693-71.5986 32.0693-66.7881C32.0693-61.9375 35.9834-58.0635 40.834-58.0635ZM19.1387 12.2979C21.4502 12.7061 23.5664 11.2109 24.0234 8.81055L27.7031-11.1416L42.9883-19.4434C43.5117-19.7539 43.9463-19.6162 44.1592-19.1328L51.9453-0.355469C52.3936 0.705078 53.1787 1.43262 54.0752 1.92969L71.8027 11.7744C74.1318 13.1055 76.5898 12.0361 77.5615 10.1904C78.7373 8.14062 77.9697 5.50977 75.9199 4.38281L59.4922-4.73438L48.3379-49.4004C47.6279-52.1426 45.2852-54.1172 42.3076-54.1172L18.6074-54.1172L29.8369-77.9521C31.4209-81.3242 29.0205-83.5645 26.5762-83.5645C25.1875-83.5645 23.7812-82.8457 23.1113-81.1377L10.0449-47.2861C9.38867-45.4766 9.94336-43.8623 11.0029-42.8027L20.915-32.8506C22.5166-31.249 25.2764-31.2578 26.8691-32.8506L31.2461-37.2676C31.7793-37.8008 32.5527-37.7744 32.7617-37.001L35.1104-27.6289L21.332-17.3086C20.3027-16.5322 19.8457-15.2988 19.6328-14.1582L15.7402 7.31543C15.332 9.57812 16.876 11.8408 19.1387 12.2979ZM27.9277-45.8281L23.8965-41.7568L19.8164-45.8281Z"/>
  </g>
  <g id="Regular-S" transform="matrix(1 0 0 1 1406.34 696)">
   <path d="M40.4297-57.8613C45.1172-57.8613 48.877-61.6211 48.877-66.3574C48.877-71.0449 45.1172-74.8047 40.4297-74.8047C35.6934-74.8047 31.8848-71.0449 31.8848-66.3574C31.8848-61.6211 35.6934-57.8613 40.4297-57.8613ZM18.9453 11.6211C21.1426 12.0117 23.1445 10.5957 23.584 8.30078L27.2461-11.5723L42.7246-19.9707C43.2129-20.2637 43.6035-20.1172 43.7988-19.6777L51.6113-0.830078C52.0508 0.195312 52.7832 0.878906 53.6621 1.36719L71.2402 11.1328C73.4375 12.4023 75.7812 11.377 76.709 9.61914C77.832 7.66602 77.0996 5.17578 75.1465 4.10156L58.7891-4.98047L47.7051-49.3652C47.0215-52.002 44.7754-53.9062 41.8945-53.9062L18.1152-53.9062L29.248-77.5391C30.7617-80.7617 28.4668-82.8613 26.1719-82.8613C24.8535-82.8613 23.5352-82.1777 22.9004-80.5664L10.0098-47.1191C9.42383-45.459 9.96094-43.9941 10.8887-43.0664L20.8008-33.1055C22.3145-31.5918 24.9512-31.5918 26.4648-33.1055L30.8594-37.5488C31.4453-38.1348 32.3242-38.1348 32.5684-37.2559L34.9609-27.7344L21.1914-17.4316C20.2148-16.6992 19.7754-15.5273 19.5801-14.4043L15.7227 6.88477C15.332 9.0332 16.7969 11.1816 18.9453 11.6211ZM27.7344-45.8984L23.6328-41.748L19.4824-45.8984Z"/>
  </g>
  <g id="Light-S" transform="matrix(1 0 0 1 1110.66 696)">
   <path d="M39.4912-57.4375C44.0122-57.4375 47.6509-61.0762 47.6509-65.646C47.6509-70.1821 44.0122-73.8208 39.4912-73.8208C34.9214-73.8208 31.249-70.1821 31.249-65.646C31.249-61.0762 34.9214-57.4375 39.4912-57.4375ZM18.6577 10.1983C20.7793 10.5737 22.7207 9.20314 23.145 6.9839L26.7012-12.2837L41.771-20.4702C42.1987-20.7178 42.5742-20.5864 42.7241-20.1924L50.3247-1.88964C50.749-0.894523 51.4663-0.226066 52.315 0.247079L69.3633 9.72511C71.5 10.9492 73.7681 9.95411 74.6807 8.25685C75.7583 6.36427 75.0562 3.93458 73.1636 2.89063L57.2905-5.9038L46.5396-48.9414C45.8862-51.5024 43.6856-53.3462 40.9107-53.3462L17.8579-53.3462L28.6426-76.2827C30.1108-79.3994 27.8916-81.4385 25.6572-81.4385C24.3691-81.4385 23.0962-80.77 22.4766-79.2041L10.0098-46.8013C9.4541-45.2622 9.90039-43.7974 10.8433-42.8545L20.4678-33.1812C21.9209-31.7129 24.4668-31.7129 25.9351-33.1812L30.2085-37.4883C30.7793-38.0591 31.6279-38.0591 31.8569-37.2104L34.189-27.9614L20.8281-17.9766C19.897-17.2744 19.4727-16.1328 19.2773-15.0552L15.5259 5.61329C15.1504 7.68605 16.5698 9.77394 18.6577 10.1983ZM27.1743-45.5957L23.1939-41.5664L19.1797-45.5957Z"/>
  </g>
  <g id="Thin-S" transform="matrix(1 0 0 1 815.307 696)">
   <path d="M38.25-56.877C42.5508-56.877 46.0293-60.3555 46.0293-64.7051C46.0293-69.041 42.5508-72.5195 38.25-72.5195C33.9004-72.5195 30.4082-69.041 30.4082-64.7051C30.4082-60.3555 33.9004-56.877 38.25-56.877ZM18.2773 8.31643C20.2988 8.6719 22.1602 7.36135 22.5645 5.24221L25.9805-13.2246L40.5098-21.1309C40.8574-21.3184 41.2129-21.207 41.3028-20.873L48.6231-3.291C49.0274-2.33592 49.7246-1.68748 50.5332-1.23435L66.8809 7.86331C68.9375 9.02737 71.1055 8.07229 71.9981 6.4551C73.0157 4.6426 72.3536 2.29299 70.5411 1.28908L55.3086-7.12498L44.9981-48.3809C44.3848-50.8418 42.2442-52.6055 39.6094-52.6055L17.5176-52.6055L27.8418-74.6211C29.25-77.5977 27.1309-79.5567 24.9766-79.5567C23.7285-79.5567 22.5156-78.9082 21.916-77.4024L10.0098-46.3809C9.49414-45.002 9.82031-43.5371 10.7832-42.5742L20.0273-33.2812C21.4004-31.873 23.8262-31.873 25.2344-33.2812L29.3477-37.4082C29.8984-37.959 30.707-37.959 30.916-37.1504L33.168-28.2617L20.3477-18.6973C19.4766-18.0351 19.0723-16.9336 18.877-15.916L15.2656 3.93166C14.9102 5.90432 16.2695 7.91214 18.2773 8.31643ZM26.4336-45.1953L22.6133-41.3262L18.7793-45.1953Z"/>
  </g>
  <g id="Ultralight-S" transform="matrix(1 0 0 1 519.293 696)">
   <path d="M37.6143-56.5899C41.8023-56.5899 45.1988-59.9863 45.1988-64.2232C45.1988-68.4566 41.8023-71.8531 37.6143-71.8531C33.3775-71.8531 29.9776-68.4566 29.9776-64.2232C29.9776-59.9863 33.3775-56.5899 37.6143-56.5899ZM18.0825 7.35257C20.0527 7.69779 21.8731 6.418 22.2671 4.35013L25.6113-13.7065L39.8638-21.4692C40.1704-21.626 40.5156-21.5249 40.5747-21.2217L47.7515-4.00876C48.1455-3.07419 48.8326-2.43601 49.6206-1.99314L65.6094 6.9097C67.625 8.043 69.7417 7.10843 70.6241 5.53226C71.6109 3.76077 70.9693 1.45218 69.1978 0.468779L54.2935-7.75047L44.2085-48.0938C43.6157-50.5034 41.5059-52.2261 38.9429-52.2261L17.3433-52.2261L27.4317-73.77C28.8091-76.6748 26.7412-78.5928 24.6279-78.5928C23.4004-78.5928 22.2183-77.9546 21.6289-76.4795L10.0098-46.1655C9.51465-44.8687 9.7793-43.4038 10.7524-42.4307L19.8018-33.3325C21.1338-31.9551 23.4981-31.9551 24.8755-33.3325L28.9068-37.3672C29.4473-37.9077 30.2354-37.9077 30.4341-37.1196L32.645-28.4155L20.1016-19.0664C19.2612-18.4248 18.8672-17.3437 18.6719-16.3569L15.1323 3.07034C14.7871 4.99173 16.1157 6.95853 18.0825 7.35257ZM26.0542-44.9902L22.3159-41.2031L18.5742-44.9902Z"/>
  </g>
 </g>
</svg>
