<?xml version="1.0" encoding="UTF-8"?>
<!--Generator: Apple Native CoreSVG 175.5-->
<!DOCTYPE svg
PUBLIC "-//W3C//DTD SVG 1.1//EN"
       "http://www.w3.org/Graphics/SVG/1.1/DTD/svg11.dtd">
<svg version="1.1" xmlns="http://www.w3.org/2000/svg" xmlns:xlink="http://www.w3.org/1999/xlink" width="3300" height="2200">
 <!--glyph: "uni10130E.medium", point size: 100.0, font version: "18.0d12e2", template writer version: "101"-->
 <g id="Notes">
  <rect height="2200" id="artboard" style="fill:white;opacity:1" width="3300" x="0" y="0"/>
  <line style="fill:none;stroke:black;opacity:1;stroke-width:0.5;" x1="263" x2="3036" y1="292" y2="292"/>
  <text style="stroke:none;fill:black;font-family:sans-serif;font-size:13;font-weight:bold;" transform="matrix(1 0 0 1 263 322)">Weight/Scale Variations</text>
  <text style="stroke:none;fill:black;font-family:sans-serif;font-size:13;text-anchor:middle;" transform="matrix(1 0 0 1 559.711 322)">Ultralight</text>
  <text style="stroke:none;fill:black;font-family:sans-serif;font-size:13;text-anchor:middle;" transform="matrix(1 0 0 1 856.422 322)">Thin</text>
  <text style="stroke:none;fill:black;font-family:sans-serif;font-size:13;text-anchor:middle;" transform="matrix(1 0 0 1 1153.13 322)">Light</text>
  <text style="stroke:none;fill:black;font-family:sans-serif;font-size:13;text-anchor:middle;" transform="matrix(1 0 0 1 1449.84 322)">Regular</text>
  <text style="stroke:none;fill:black;font-family:sans-serif;font-size:13;text-anchor:middle;" transform="matrix(1 0 0 1 1746.56 322)">Medium</text>
  <text style="stroke:none;fill:black;font-family:sans-serif;font-size:13;text-anchor:middle;" transform="matrix(1 0 0 1 2043.27 322)">Semibold</text>
  <text style="stroke:none;fill:black;font-family:sans-serif;font-size:13;text-anchor:middle;" transform="matrix(1 0 0 1 2339.98 322)">Bold</text>
  <text style="stroke:none;fill:black;font-family:sans-serif;font-size:13;text-anchor:middle;" transform="matrix(1 0 0 1 2636.69 322)">Heavy</text>
  <text style="stroke:none;fill:black;font-family:sans-serif;font-size:13;text-anchor:middle;" transform="matrix(1 0 0 1 2933.4 322)">Black</text>
  <line style="fill:none;stroke:black;opacity:1;stroke-width:0.5;" x1="263" x2="3036" y1="1903" y2="1903"/>
  <g transform="matrix(1 0 0 1 263 1933)">
   <path d="M9.24805 0.830078C13.5547 0.830078 17.1387-2.74414 17.1387-7.05078C17.1387-11.3574 13.5449-14.9316 9.23828-14.9316C4.94141-14.9316 1.36719-11.3574 1.36719-7.05078C1.36719-2.74414 4.95117 0.830078 9.24805 0.830078ZM9.24805-0.654297C5.70312-0.654297 2.87109-3.49609 2.87109-7.05078C2.87109-10.6055 5.69336-13.4473 9.23828-13.4473C12.793-13.4473 15.6445-10.6055 15.6445-7.05078C15.6445-3.49609 12.8027-0.654297 9.24805-0.654297ZM5.6543-7.05078C5.6543-6.62109 5.95703-6.32812 6.40625-6.32812L8.50586-6.32812L8.50586-4.20898C8.50586-3.76953 8.79883-3.4668 9.22852-3.4668C9.67773-3.4668 9.9707-3.76953 9.9707-4.20898L9.9707-6.32812L12.0898-6.32812C12.5293-6.32812 12.832-6.62109 12.832-7.05078C12.832-7.49023 12.5293-7.79297 12.0898-7.79297L9.9707-7.79297L9.9707-9.90234C9.9707-10.3516 9.67773-10.6543 9.22852-10.6543C8.79883-10.6543 8.50586-10.3516 8.50586-9.90234L8.50586-7.79297L6.40625-7.79297C5.95703-7.79297 5.6543-7.49023 5.6543-7.05078Z"/>
  </g>
  <g transform="matrix(1 0 0 1 281.867 1933)">
   <path d="M11.709 2.91016C17.1582 2.91016 21.6699-1.61133 21.6699-7.05078C21.6699-12.5 17.1484-17.0117 11.6992-17.0117C6.25977-17.0117 1.74805-12.5 1.74805-7.05078C1.74805-1.61133 6.26953 2.91016 11.709 2.91016ZM11.709 1.25C7.09961 1.25 3.41797-2.44141 3.41797-7.05078C3.41797-11.6602 7.08984-15.3516 11.6992-15.3516C16.3086-15.3516 20.0098-11.6602 20.0098-7.05078C20.0098-2.44141 16.3184 1.25 11.709 1.25ZM7.17773-7.05078C7.17773-6.57227 7.50977-6.25 8.00781-6.25L10.8789-6.25L10.8789-3.36914C10.8789-2.88086 11.2109-2.53906 11.6895-2.53906C12.1777-2.53906 12.5195-2.87109 12.5195-3.36914L12.5195-6.25L15.4004-6.25C15.8887-6.25 16.2305-6.57227 16.2305-7.05078C16.2305-7.53906 15.8887-7.88086 15.4004-7.88086L12.5195-7.88086L12.5195-10.752C12.5195-11.25 12.1777-11.5918 11.6895-11.5918C11.2109-11.5918 10.8789-11.25 10.8789-10.752L10.8789-7.88086L8.00781-7.88086C7.50977-7.88086 7.17773-7.53906 7.17773-7.05078Z"/>
  </g>
  <g transform="matrix(1 0 0 1 305.646 1933)">
   <path d="M14.9707 5.66406C21.9336 5.66406 27.6953-0.0976562 27.6953-7.05078C27.6953-14.0137 21.9238-19.7754 14.9609-19.7754C8.00781-19.7754 2.25586-14.0137 2.25586-7.05078C2.25586-0.0976562 8.01758 5.66406 14.9707 5.66406ZM14.9707 3.84766C8.93555 3.84766 4.08203-1.01562 4.08203-7.05078C4.08203-13.0957 8.92578-17.9492 14.9609-17.9492C21.0059-17.9492 25.8691-13.0957 25.8691-7.05078C25.8691-1.01562 21.0156 3.84766 14.9707 3.84766ZM9.19922-7.05078C9.19922-6.5332 9.57031-6.17188 10.1172-6.17188L14.0625-6.17188L14.0625-2.2168C14.0625-1.67969 14.4336-1.29883 14.9512-1.29883C15.4883-1.29883 15.8594-1.66992 15.8594-2.2168L15.8594-6.17188L19.8145-6.17188C20.3516-6.17188 20.7324-6.5332 20.7324-7.05078C20.7324-7.59766 20.3613-7.96875 19.8145-7.96875L15.8594-7.96875L15.8594-11.9141C15.8594-12.4609 15.4883-12.8418 14.9512-12.8418C14.4336-12.8418 14.0625-12.4609 14.0625-11.9141L14.0625-7.96875L10.1172-7.96875C9.57031-7.96875 9.19922-7.59766 9.19922-7.05078Z"/>
  </g>
  <text style="stroke:none;fill:black;font-family:sans-serif;font-size:13;font-weight:bold;" transform="matrix(1 0 0 1 263 1953)">Design Variations</text>
  <text style="stroke:none;fill:black;font-family:sans-serif;font-size:13;" transform="matrix(1 0 0 1 263 1971)">Symbols are supported in up to nine weights and three scales.</text>
  <text style="stroke:none;fill:black;font-family:sans-serif;font-size:13;" transform="matrix(1 0 0 1 263 1989)">For optimal layout with text and other symbols, vertically align</text>
  <text style="stroke:none;fill:black;font-family:sans-serif;font-size:13;" transform="matrix(1 0 0 1 263 2007)">symbols with the adjacent text.</text>
  <line style="fill:none;stroke:#00AEEF;stroke-width:0.5;opacity:1.0;" x1="776" x2="776" y1="1919" y2="1933"/>
  <g transform="matrix(1 0 0 1 776 1933)">
   <path d="M3.31055 0.15625C3.82812 0.15625 4.08203-0.0390625 4.26758-0.585938L5.52734-4.0332L11.2891-4.0332L12.5488-0.585938C12.7344-0.0390625 12.9883 0.15625 13.4961 0.15625C14.0137 0.15625 14.3457-0.15625 14.3457-0.644531C14.3457-0.810547 14.3164-0.966797 14.2383-1.17188L9.6582-13.3691C9.43359-13.9648 9.0332-14.2676 8.4082-14.2676C7.80273-14.2676 7.39258-13.9746 7.17773-13.3789L2.59766-1.16211C2.51953-0.957031 2.49023-0.800781 2.49023-0.634766C2.49023-0.146484 2.80273 0.15625 3.31055 0.15625ZM6.00586-5.51758L8.37891-12.0898L8.42773-12.0898L10.8008-5.51758Z"/>
  </g>
  <line style="fill:none;stroke:#00AEEF;stroke-width:0.5;opacity:1.0;" x1="793.197" x2="793.197" y1="1919" y2="1933"/>
  <text style="stroke:none;fill:black;font-family:sans-serif;font-size:13;font-weight:bold;" transform="matrix(1 0 0 1 776 1953)">Margins</text>
  <text style="stroke:none;fill:black;font-family:sans-serif;font-size:13;" transform="matrix(1 0 0 1 776 1971)">Leading and trailing margins on the left and right side of each symbol</text>
  <text style="stroke:none;fill:black;font-family:sans-serif;font-size:13;" transform="matrix(1 0 0 1 776 1989)">can be adjusted by modifying the x-location of the margin guidelines.</text>
  <text style="stroke:none;fill:black;font-family:sans-serif;font-size:13;" transform="matrix(1 0 0 1 776 2007)">Modifications are automatically applied proportionally to all</text>
  <text style="stroke:none;fill:black;font-family:sans-serif;font-size:13;" transform="matrix(1 0 0 1 776 2025)">scales and weights.</text>
  <g transform="matrix(1 0 0 1 1289 1933)">
   <path d="M2.8418 1.86523L4.54102 3.57422C5.40039 4.44336 6.38672 4.38477 7.31445 3.35938L18.0078-8.42773L17.041-9.4043L6.42578 2.27539C6.07422 2.67578 5.74219 2.77344 5.27344 2.30469L4.10156 1.14258C3.63281 0.683594 3.74023 0.341797 4.14062-0.0195312L15.6152-10.8203L14.6387-11.7871L3.04688-0.898438C2.06055 0.0195312 1.98242 0.996094 2.8418 1.86523ZM9.25781-16.3281C8.83789-15.918 8.80859-15.3418 9.04297-14.9512C9.27734-14.5898 9.73633-14.3555 10.3809-14.5215C11.8457-14.8633 13.3691-14.9219 14.7949-13.9844L14.209-12.5293C13.8672-11.6992 14.043-11.1133 14.5801-10.5664L16.875-8.25195C17.3633-7.76367 17.7734-7.74414 18.3398-7.8418L19.4043-8.03711L20.0684-7.36328L20.0293-6.80664C19.9902-6.30859 20.1172-5.92773 20.6055-5.44922L21.3672-4.70703C21.8457-4.22852 22.4609-4.19922 22.9297-4.66797L25.8398-7.58789C26.3086-8.05664 26.2891-8.65234 25.8105-9.13086L25.0391-9.89258C24.5605-10.3711 24.1895-10.5273 23.7109-10.4883L23.1348-10.4395L22.4902-11.0742L22.7344-12.1973C22.8613-12.7637 22.7051-13.2031 22.1191-13.7891L19.9219-15.9766C16.582-19.2969 12.1484-19.2188 9.25781-16.3281ZM10.752-15.957C13.1836-17.7344 16.4746-17.4316 18.7012-15.2051L21.1328-12.793C21.3672-12.5586 21.4062-12.373 21.3379-12.0312L21.0156-10.5469L22.5195-9.0625L23.5059-9.12109C23.7598-9.13086 23.8379-9.11133 24.0332-8.91602L24.6094-8.33984L22.168-5.89844L21.5918-6.47461C21.3965-6.66992 21.3672-6.74805 21.377-7.01172L21.4453-7.98828L19.9512-9.47266L18.4277-9.21875C18.1055-9.15039 17.959-9.17969 17.7148-9.41406L15.7129-11.416C15.459-11.6504 15.4297-11.8164 15.5859-12.1875L16.4648-14.2773C14.9023-15.7324 12.8711-16.3574 10.8398-15.7617C10.6836-15.7227 10.625-15.8496 10.752-15.957Z"/>
  </g>
  <text style="stroke:none;fill:black;font-family:sans-serif;font-size:13;font-weight:bold;" transform="matrix(1 0 0 1 1289 1953)">Exporting</text>
  <text style="stroke:none;fill:black;font-family:sans-serif;font-size:13;" transform="matrix(1 0 0 1 1289 1971)">Symbols should be outlined when exporting to ensure the</text>
  <text style="stroke:none;fill:black;font-family:sans-serif;font-size:13;" transform="matrix(1 0 0 1 1289 1989)">design is preserved when submitting to Xcode.</text>
  <text id="template-version" style="stroke:none;fill:black;font-family:sans-serif;font-size:13;text-anchor:end;" transform="matrix(1 0 0 1 3036 1933)">Template v.4.0</text>
  <text style="stroke:none;fill:black;font-family:sans-serif;font-size:13;text-anchor:end;" transform="matrix(1 0 0 1 3036 1951)">Requires Xcode 14 or greater</text>
  <text id="descriptive-name" style="stroke:none;fill:black;font-family:sans-serif;font-size:13;text-anchor:end;" transform="matrix(1 0 0 1 3036 1969)">Generated from figure.highintensity.intervaltraining</text>
  <text style="stroke:none;fill:black;font-family:sans-serif;font-size:13;text-anchor:end;" transform="matrix(1 0 0 1 3036 1987)">Typeset at 100 points</text>
  <text style="stroke:none;fill:black;font-family:sans-serif;font-size:13;" transform="matrix(1 0 0 1 263 726)">Small</text>
  <text style="stroke:none;fill:black;font-family:sans-serif;font-size:13;" transform="matrix(1 0 0 1 263 1156)">Medium</text>
  <text style="stroke:none;fill:black;font-family:sans-serif;font-size:13;" transform="matrix(1 0 0 1 263 1586)">Large</text>
 </g>
 <g id="Guides">
  <g id="H-reference" style="fill:#27AAE1;stroke:none;" transform="matrix(1 0 0 1 339 696)">
   <path d="M0.993654 0L3.63775 0L29.3281-67.1323L30.0303-67.1323L30.0303-70.459L28.1226-70.459ZM11.6885-24.4799L46.9815-24.4799L46.2315-26.7285L12.4385-26.7285ZM55.1196 0L57.7637 0L30.6382-70.459L29.4326-70.459L29.4326-67.1323Z"/>
  </g>
  <line id="Baseline-S" style="fill:none;stroke:#27AAE1;opacity:1;stroke-width:0.5;" x1="263" x2="3036" y1="696" y2="696"/>
  <line id="Capline-S" style="fill:none;stroke:#27AAE1;opacity:1;stroke-width:0.5;" x1="263" x2="3036" y1="625.541" y2="625.541"/>
  <g id="H-reference" style="fill:#27AAE1;stroke:none;" transform="matrix(1 0 0 1 339 1126)">
   <path d="M0.993654 0L3.63775 0L29.3281-67.1323L30.0303-67.1323L30.0303-70.459L28.1226-70.459ZM11.6885-24.4799L46.9815-24.4799L46.2315-26.7285L12.4385-26.7285ZM55.1196 0L57.7637 0L30.6382-70.459L29.4326-70.459L29.4326-67.1323Z"/>
  </g>
  <line id="Baseline-M" style="fill:none;stroke:#27AAE1;opacity:1;stroke-width:0.5;" x1="263" x2="3036" y1="1126" y2="1126"/>
  <line id="Capline-M" style="fill:none;stroke:#27AAE1;opacity:1;stroke-width:0.5;" x1="263" x2="3036" y1="1055.54" y2="1055.54"/>
  <g id="H-reference" style="fill:#27AAE1;stroke:none;" transform="matrix(1 0 0 1 339 1556)">
   <path d="M0.993654 0L3.63775 0L29.3281-67.1323L30.0303-67.1323L30.0303-70.459L28.1226-70.459ZM11.6885-24.4799L46.9815-24.4799L46.2315-26.7285L12.4385-26.7285ZM55.1196 0L57.7637 0L30.6382-70.459L29.4326-70.459L29.4326-67.1323Z"/>
  </g>
  <line id="Baseline-L" style="fill:none;stroke:#27AAE1;opacity:1;stroke-width:0.5;" x1="263" x2="3036" y1="1556" y2="1556"/>
  <line id="Capline-L" style="fill:none;stroke:#27AAE1;opacity:1;stroke-width:0.5;" x1="263" x2="3036" y1="1485.54" y2="1485.54"/>
  <line id="left-margin-Regular-M" style="fill:none;stroke:#00AEEF;stroke-width:0.5;opacity:1.0;" x1="1401.36" x2="1401.36" y1="1030.79" y2="1150.12"/>
  <line id="right-margin-Regular-M" style="fill:none;stroke:#00AEEF;stroke-width:0.5;opacity:1.0;" x1="1498.33" x2="1498.33" y1="1030.79" y2="1150.12"/>
 </g>
 <g id="Symbols">
  <g id="Black-L" transform="matrix(1 0 0 1 2867.32 1556)">
   <path d="M71.822-88.7507C80.3481-88.7507 87.2925-95.716 87.2925-104.263C87.2925-112.789 80.3481-119.733 71.822-119.733C63.2752-119.733 56.3099-112.789 56.3099-104.263C56.3099-95.716 63.2752-88.7507 71.822-88.7507ZM86.4082-48.2366C89.6425-45.0011 95.7531-45.1619 98.5489-49.5937L114.652-75.3277C120.442-84.591 106.806-92.1768 101.455-83.5908L90.5623-66.0859L82.4874-74.2401C73.4504-83.3135 63.456-85.0583 49.8266-83.5547L26.3188-80.9277C22.7067-80.5476 19.9317-77.6349 19.4932-74.1813L16.1644-48.2073C14.8865-38.3667 30.2164-35.8693 31.5747-46.3521L34.0861-66.1739L45.4459-67.4218C46.6067-67.5243 46.9721-67.2173 46.7892-65.8373L43.6796-40.447C42.1176-27.6931 49.6214-20.0713 62.2157-20.9911L84.9263-22.6191L78.1146 2.29685C75.2383 12.6628 90.3733 16.4149 93.0888 6.29016L102.616-29.0282C104.053-34.2786 100.44-38.8116 94.6865-38.8116L70.9392-38.8116L73.8736-59.1276C74.0189-60.2233 74.5228-60.2441 75.3774-59.3686ZM50.0244-15.1505L48.6145 6.1654L36.2774 37.0171C33.7216 43.4482 38.4311 48.0408 43.3222 48.0408C46.2788 48.0408 49.2939 46.3828 50.8119 42.5283L63.507 10.6996C63.6679 10.1587 63.8871 9.56058 63.9675 8.96124L67.27-13.7338L62.7542-13.4341C58.0175-13.1345 53.7401-13.7338 50.0244-15.1505Z"/>
  </g>
  <g id="Heavy-L" transform="matrix(1 0 0 1 2571.52 1556)">
   <path d="M70.8364-88.4063C79.1253-88.4063 85.864-95.1753 85.864-103.494C85.864-111.783 79.1253-118.522 70.8364-118.522C62.5173-118.522 55.7484-111.783 55.7484-103.494C55.7484-95.1753 62.5173-88.4063 70.8364-88.4063ZM85.4257-48.7933C88.509-45.7045 94.345-45.8653 97.0173-50.0865L112.908-75.5088C118.428-84.342 105.418-91.566 100.315-83.3737L89.3968-65.8188L81.1868-74.1035C72.3225-82.9767 62.5558-84.6989 49.1626-83.218L25.9394-80.6224C22.5011-80.2561 19.8589-77.4945 19.448-74.2058L16.1644-48.5479C14.9461-39.1787 29.5437-36.7866 30.8424-46.7936L33.3544-66.5552L44.7764-67.8218C46.0523-67.938 46.5925-67.4425 46.3959-65.961L43.3177-40.8962C41.7922-28.4661 49.077-21.0864 61.3519-21.9742L84.1275-23.6072L77.3097 1.33731C74.557 11.255 88.9961 14.824 91.588 5.14755L100.998-29.7234C102.371-34.7218 98.9273-39.0536 93.4162-39.0536L69.6636-39.0536L72.6079-59.4064C72.7901-60.7275 73.6022-60.7577 74.5351-59.7945ZM49.6316-16.4199L48.1985 5.14243L35.9966 35.6421C33.5599 41.7942 38.0312 46.1762 42.6934 46.1762C45.5266 46.1762 48.4044 44.5915 49.8584 40.9064L62.3908 9.47981C62.5516 8.95267 62.7571 8.38652 62.8375 7.81475L66.1863-15.0765L61.8678-14.7906C57.3093-14.5047 53.1918-15.0765 49.6316-16.4199Z"/>
  </g>
  <g id="Bold-L" transform="matrix(1 0 0 1 2275.98 1556)">
   <path d="M69.5625-87.8793C77.5594-87.8793 84.052-94.4099 84.052-102.445C84.052-110.442 77.5594-116.934 69.5625-116.934C61.5277-116.934 54.9971-110.442 54.9971-102.445C54.9971-94.4099 61.5277-87.8793 69.5625-87.8793ZM84.1073-49.3358C87.0135-46.4163 92.5262-46.5772 95.0523-50.552L110.652-75.5453C115.856-83.8706 103.585-90.6712 98.7744-82.9408L87.8628-65.3915L79.5286-73.7929C70.8868-82.4127 61.4044-84.1043 48.318-82.654L25.4855-80.1042C22.2549-79.7533 19.7668-77.1688 19.3867-74.0726L16.1644-48.8512C15.0154-40.0362 28.7509-37.7673 29.9804-47.2125L32.485-66.8451L43.939-68.1274C45.3386-68.259 46.0716-67.5552 45.8595-65.9657L42.8273-41.3452C41.3478-29.3147 48.3636-22.2272 60.2465-23.0766L83.0171-24.7097L76.214 0.183637C73.6074 9.57035 87.2307 12.9238 89.6764 3.77837L98.9251-30.4797C100.222-35.1855 96.9779-39.2787 91.7516-39.2787L68.0733-39.2787L71.018-59.6031C71.2388-61.1711 72.3903-61.2091 73.4082-60.1533ZM49.0878-17.8906L47.6315 3.90441L35.621 33.914C33.3229 39.7352 37.5169 43.8709 41.9098 43.8709C44.5968 43.8709 47.3129 42.3709 48.69 38.8858L61.0002 8.01087C61.1611 7.49915 61.3511 6.97145 61.4315 6.43053L64.8267-16.632L60.7318-16.3615C56.3885-16.0911 52.4633-16.632 49.0878-17.8906Z"/>
  </g>
  <g id="Semibold-L" transform="matrix(1 0 0 1 1980.08 1556)">
   <path d="M68.6843-87.5159C76.4798-87.5159 82.8027-93.8822 82.8027-101.721C82.8027-109.517 76.4798-115.839 68.6843-115.839C60.8454-115.839 54.4791-109.517 54.4791-101.721C54.4791-93.8822 60.8454-87.5159 68.6843-87.5159ZM83.1983-49.7097C85.9824-46.9071 91.2723-47.068 93.6977-50.8729L109.097-75.5706C114.083-83.5457 102.322-90.0544 97.7124-82.6424L86.8053-65.0969L78.3854-73.5787C69.897-82.0238 60.6106-83.6943 47.7358-82.2651L25.1726-79.747C22.0852-79.4068 19.7032-76.9443 19.3444-73.9807L16.1644-49.0604C15.0631-40.6274 28.2045-38.4434 29.3861-47.5013L31.8856-67.045L43.3618-68.3381C44.8465-68.4803 45.7125-67.633 45.4898-65.9688L42.4892-41.6548C41.0414-29.8997 47.8718-23.0137 59.4845-23.8366L82.2516-25.4699L75.4586-0.6117C72.9528 8.40898 86.0136 11.6139 88.3585 2.83447L97.4963-31.0011C98.74-35.5052 95.634-39.4339 90.6041-39.4339L66.977-39.4339L69.9219-59.7387C70.1694-61.4769 71.5549-61.5203 72.6313-60.4006ZM48.713-18.9046L47.2406 3.05093L35.362 32.7227C33.1594 38.3158 37.1624 42.2816 41.3696 42.2816C43.9558 42.2816 46.5605 40.8401 47.8846 37.4929L60.0416 6.99819C60.2024 6.4971 60.3819 5.99592 60.4623 5.47625L63.8895-17.7043L59.9486-17.4445C55.7538-17.1847 51.9612-17.7043 48.713-18.9046Z"/>
  </g>
  <g id="Medium-L" transform="matrix(1 0 0 1 1683.98 1556)">
   <path d="M68.0184-87.2404C75.6613-87.2404 81.8555-93.4821 81.8555-101.172C81.8555-108.815 75.6613-115.009 68.0184-115.009C60.3281-115.009 54.0864-108.815 54.0864-101.172C54.0864-93.4821 60.3281-87.2404 68.0184-87.2404ZM82.5091-49.9933C85.2007-47.2792 90.3216-47.4401 92.6705-51.1163L107.917-75.5897C112.739-83.2993 101.364-89.5867 96.9071-82.4161L86.0035-64.8735L77.5186-73.4164C69.1465-81.729 60.0087-83.3834 47.2943-81.9703L24.9354-79.4762C21.9565-79.144 19.6551-76.7741 19.3124-73.9111L16.1644-49.2189C15.0994-41.0757 27.7901-38.9561 28.9356-47.7202L31.4311-67.1966L42.9241-68.4978C44.4734-68.6481 45.4402-67.6919 45.2094-65.9713L42.2328-41.8895C40.8091-30.3433 47.4989-23.6101 58.9067-24.4128L81.6711-26.0462L74.8858-1.21476C72.4565 7.52838 85.0907 10.6206 87.3592 2.11876L96.413-31.3964C97.6164-35.7475 94.615-39.5516 89.734-39.5516L66.1457-39.5516L69.0908-59.8416C69.3585-61.7088 70.9214-61.7563 72.0422-60.5881ZM48.4287-19.6734L46.9442 2.40378L35.1656 31.8193C33.0355 37.2395 36.8936 41.0765 40.96 41.0765C43.4697 41.0765 45.99 39.6793 47.2738 36.4367L59.3147 6.23034C59.4756 5.7373 59.6469 5.25622 59.7273 4.75268L63.1788-18.5174L59.3548-18.2657C55.2725-18.0139 51.5804-18.5174 48.4287-19.6734Z"/>
  </g>
  <g id="Regular-L" transform="matrix(1 0 0 1 1388.06 1556)">
   <path d="M67.1498-86.881C74.5936-86.881 80.62-92.9602 80.62-100.457C80.62-107.9 74.5936-113.927 67.1498-113.927C59.6533-113.927 53.5742-107.9 53.5742-100.457C53.5742-92.9602 59.6533-86.881 67.1498-86.881ZM81.6101-50.3631C84.181-47.7646 89.0815-47.9254 91.3307-51.4337L106.379-75.6146C110.986-82.9779 100.114-88.9767 95.8568-82.121L84.9576-64.5822L76.3879-73.2046C68.1676-81.3444 59.2236-82.9779 46.7185-81.5857L24.626-79.1229C21.7887-78.8012 19.5923-76.552 19.2706-73.8203L16.1644-49.4258C15.1466-41.6603 27.2496-39.6247 28.3478-48.0059L30.8383-67.3943L42.3532-68.7061C43.9868-68.867 45.085-67.7688 44.8437-65.9744L41.8984-42.1956C40.5061-30.9219 47.0125-24.3879 58.153-25.1644L80.914-26.798L74.1387-2.00136C71.8091 6.37977 83.887 9.3251 86.0558 1.18523L94.9999-31.9121C96.1508-36.0637 93.2859-39.7052 88.599-39.7052L65.0615-39.7052L68.0068-59.9757C68.3008-62.0113 70.0952-62.064 71.2738-60.8326ZM48.058-20.6762L46.5576 1.55968L34.9095 30.6411C32.8739 35.8356 36.543 39.5047 40.4257 39.5047C42.8358 39.5047 45.2458 38.1653 46.4772 35.0591L58.3666 5.22879C58.5275 4.74627 58.6883 4.2914 58.7687 3.80889L62.2519-19.578L58.5802-19.3368C54.6447-19.0955 51.0837-19.578 48.058-20.6762Z"/>
  </g>
  <g id="Light-L" transform="matrix(1 0 0 1 1092.45 1556)">
   <path d="M65.9284-85.8695C73.1813-85.8695 79.0932-91.8151 79.0932-99.1017C79.0932-106.355 73.1813-112.266 65.9284-112.266C58.6418-112.266 52.6963-106.355 52.6963-99.1017C52.6963-91.8151 58.6418-85.8695 65.9284-85.8695ZM80.0451-49.7906C82.5588-47.2302 87.3448-47.3911 89.5367-50.823L104.203-74.4313C108.714-81.6038 98.11-87.4689 93.9674-80.7659L83.3162-63.6661L74.9375-72.0785C66.9271-80.0085 58.193-81.6038 45.9932-80.2497L24.416-77.8632C21.6742-77.5416 19.5159-75.3496 19.1942-72.6751L16.1644-48.8723C15.1657-41.2977 26.9633-39.3003 28.0425-47.4715L30.4757-66.421L41.7234-67.6946C43.3188-67.8555 44.3979-66.7763 44.1566-65.0202L41.2877-41.8139C39.9336-30.8074 46.2682-24.4261 57.1606-25.1835L79.3681-26.7789L72.7455-2.57391C70.4731 5.59728 82.2838 8.46627 84.3954 0.536335L93.1295-31.7594C94.2423-35.8347 91.4537-39.3807 86.8623-39.3807L63.8973-39.3807L66.7663-59.155C67.0412-61.1524 68.7974-61.1861 69.9569-59.9929ZM47.3136-21.0389L45.8324 0.891693L34.4705 29.286C32.4731 34.347 36.0659 37.9397 39.8532 37.9397C42.206 37.9397 44.5587 36.6193 45.752 33.5895L57.3551 4.48446C57.5159 4.00194 57.6768 3.56616 57.7572 3.08364L61.2022-19.9597L57.5496-19.7185C53.7287-19.4772 50.263-19.9597 47.3136-21.0389Z"/>
  </g>
  <g id="Thin-L" transform="matrix(1 0 0 1 797.19 1556)">
   <path d="M64.3129-84.5317C71.3134-84.5317 77.0738-90.3006 77.0738-97.3095C77.0738-104.31 71.3134-110.07 64.3129-110.07C57.304-110.07 51.5351-104.31 51.5351-97.3095C51.5351-90.3006 57.304-84.5317 64.3129-84.5317ZM77.9753-49.0333C80.4132-46.5234 85.0478-46.6843 87.164-50.0152L101.326-72.8663C105.711-79.7864 95.4596-85.4748 91.4684-78.9737L81.1454-62.4545L73.0191-70.5893C65.2864-78.2415 56.8299-79.7864 45.0341-78.4828L24.1384-76.1973C21.5227-75.8756 19.4149-73.7594 19.0933-71.1606L16.1644-48.1403C15.1909-40.8181 26.5847-38.8712 27.6386-46.7647L29.9961-65.1336L40.8905-66.3568C42.4353-66.5176 43.4892-65.4638 43.2479-63.7581L40.4799-41.3091C39.1763-30.656 45.2837-24.4766 55.848-25.2088L77.3235-26.7536L70.9029-3.33117C68.7062 4.56236 80.1635 7.33038 82.1993-0.321887L90.6558-31.5575C91.7181-35.5318 89.0305-38.9516 84.5652-38.9516L62.3575-38.9516L65.1255-58.0696C65.3752-60.0166 67.0809-60.025 68.2152-58.8823ZM46.3292-21.5184L44.8732 0.00822934L33.89 27.4939C31.943 32.3781 35.4348 35.8699 39.0959 35.8699C41.373 35.8699 43.65 34.5748 44.7928 31.6459L56.0173 3.50003C56.1781 3.01751 56.339 2.60698 56.4194 2.12446L59.8139-20.4646L56.1866-20.2233C52.517-19.982 49.1776-20.4646 46.3292-21.5184Z"/>
  </g>
  <g id="Ultralight-L" transform="matrix(1 0 0 1 501.223 1556)">
   <path d="M63.4855-83.8465C70.3567-83.8465 76.0395-89.5249 76.0395-96.3915C76.0395-103.263 70.3567-108.946 63.4855-108.946C56.6188-108.946 50.9404-103.263 50.9404-96.3915C50.9404-89.5249 56.6188-83.8465 63.4855-83.8465ZM76.9152-48.6455C79.3143-46.1614 83.8713-46.3223 85.9487-49.6015L99.8519-72.0647C104.172-78.8555 94.1021-84.4535 90.1885-78.0558L80.0336-61.8339L72.0365-69.8265C64.446-77.3365 56.1318-78.8555 44.5428-77.5778L23.9961-75.344C21.4452-75.0223 19.3632-72.9449 19.0416-70.3849L16.1644-47.7653C15.2039-40.5725 26.3908-38.6514 27.4317-46.4027L29.7504-64.4743L40.4638-65.6716C41.9828-65.8324 43.0238-64.7915 42.7825-63.1116L40.0662-41.0505C38.7885-30.5784 44.7795-24.5024 55.1757-25.2217L76.2763-26.7407L69.9591-3.71903C67.8012 4.03228 79.0775 6.74859 81.0745-0.761464L89.3888-31.454C90.4253-35.3766 87.7894-38.7318 83.3887-38.7318L61.5689-38.7318L64.2852-57.5137C64.5219-59.4348 66.2018-59.4303 67.3232-58.3134ZM45.825-21.7641L44.3819-0.444276L33.5926 26.5759C31.6715 31.3697 35.1116 34.8098 38.708 34.8098C40.9463 34.8098 43.1846 33.5275 44.3015 30.6504L55.3321 2.99581C55.4929 2.51329 55.6537 2.11568 55.7342 1.63316L59.1028-20.7231L55.4884-20.4819C51.8965-20.2406 48.6217-20.7231 45.825-21.7641Z"/>
  </g>
  <g id="Black-M" transform="matrix(1 0 0 1 2881.58 1126)">
   <path d="M56.3251-76.8535C63.1086-76.8535 68.65-82.4004 68.65-89.1893C68.65-95.9728 63.1086-101.514 56.3251-101.514C49.5362-101.514 43.9893-95.9728 43.9893-89.1893C43.9893-82.4004 49.5362-76.8535 56.3251-76.8535ZM67.5763-44.7506C70.2042-42.1231 75.1588-42.2477 77.4233-45.8519L90.0299-65.9794C94.7351-73.4998 83.6675-79.6696 79.3255-72.7L70.9417-59.2407L64.8276-65.4174C57.7064-72.5905 49.7959-73.9566 39.0752-72.7775L20.6879-70.7255C17.7531-70.4192 15.4942-68.0405 15.1308-65.2309L12.5232-44.9162C11.4846-36.913 23.9493-34.8928 25.0502-43.3948L26.9877-58.7439L35.6989-59.6894C36.494-59.757 36.6243-59.6838 36.4945-58.707L34.0687-38.8339C32.8325-28.7109 38.8108-22.6186 48.8089-23.3561L66.2731-24.608L61.0216-5.40918C58.6948 2.97863 70.9824 6.0325 73.1846-2.1684L80.6382-29.8069C81.8017-34.0808 78.8673-37.7528 74.214-37.7528L55.8982-37.7528L58.1527-53.3936C58.2309-54.0435 58.3513-54.049 58.9436-53.4512ZM38.9927-18.6317L37.9229-2.37046L28.2874 21.741C26.2102 26.9452 30.0532 30.674 34.0263 30.674C36.4153 30.674 38.8615 29.329 40.0873 26.2076L50.0239 1.30124C50.1485 0.870317 50.3302 0.382013 50.3925-0.106008L52.9061-17.4737L49.2404-17.2297C45.4331-16.9856 41.9947-17.4737 38.9927-18.6317Z"/>
  </g>
  <g id="Heavy-M" transform="matrix(1 0 0 1 2585.65 1126)">
   <path d="M55.4743-76.6102C62.0435-76.6102 67.3944-81.9775 67.3944-88.5631C67.3944-95.1323 62.0435-100.483 55.4743-100.483C48.8887-100.483 43.5214-95.1323 43.5214-88.5631C43.5214-81.9775 48.8887-76.6102 55.4743-76.6102ZM66.7603-45.3477C69.2458-42.86 73.9425-42.9846 76.0915-46.3899L88.5257-66.2655C92.9755-73.3831 82.4962-79.2116 78.3851-72.6128L69.9538-59.0641L63.6901-65.3878C56.7182-72.3846 49.0111-73.7321 38.493-72.5715L20.3364-70.5433C17.5626-70.2504 15.43-68.0142 15.0936-65.3605L12.5232-45.3002C11.5411-37.7402 23.3181-35.8195 24.3625-43.8757L26.3058-59.2064L35.1025-60.1738C36.0138-60.2548 36.3167-59.9955 36.1734-58.916L33.7713-39.3083C32.5671-29.4771 38.3473-23.6074 48.0561-24.3154L65.6348-25.5756L60.3633-6.29437C58.152 1.67455 69.784 4.55649 71.8707-3.22552L79.2288-30.5006C80.3333-34.5352 77.5573-38.0193 73.1325-38.0193L54.7586-38.0193L57.0298-53.7418C57.1459-54.6157 57.5711-54.6321 58.2416-53.9451ZM38.6774-19.8391L37.5832-3.30886L28.0535 20.5219C26.0891 25.4656 29.7063 28.9956 33.4645 28.9956C35.7381 28.9956 38.0553 27.7205 39.2221 24.7576L49.026 0.177444C49.1506-0.240006 49.3188-0.698803 49.3811-1.15987L51.9435-18.751L48.469-18.5205C44.8253-18.2899 41.5344-18.751 38.6774-19.8391Z"/>
  </g>
  <g id="Bold-M" transform="matrix(1 0 0 1 2289.82 1126)">
   <path d="M54.5225-76.338C60.8521-76.338 65.9899-81.5044 65.9899-87.8626C65.9899-94.1922 60.8521-99.33 54.5225-99.33C48.1643-99.33 42.9979-94.1922 42.9979-87.8626C42.9979-81.5044 48.1643-76.338 54.5225-76.338ZM65.8475-46.0155C68.1736-43.6843 72.5819-43.8089 74.6017-46.9917L86.843-66.5856C91.0072-73.2526 81.186-78.6992 77.3332-72.5152L68.8486-58.8665L62.4176-65.3547C55.6128-72.1543 48.1331-73.4809 37.8416-72.3412L19.9431-70.3394C17.3495-70.0616 15.3583-67.9847 15.052-65.5054L12.5232-45.7298C11.6042-38.6657 22.6119-36.8562 23.5932-44.4136L25.543-59.7237L34.4353-60.7156C35.4765-60.8116 35.9725-60.3442 35.8142-59.1498L33.4386-39.8389C32.2703-30.3342 37.8288-24.7135 47.214-25.3885L64.9207-26.658L59.6269-7.28459C57.5448 0.215743 68.4434 2.90536 70.4009-4.40805L77.6522-31.2766C78.6907-35.0436 76.0919-38.3173 71.9226-38.3173L53.4837-38.3173L55.7737-54.1314C55.9321-55.2557 56.6983-55.2843 57.4564-54.4975ZM38.3247-21.1898L37.2032-4.3586L27.7917 19.1582C25.9537 23.8106 29.3182 27.118 32.836 27.118C34.9804 27.118 37.1534 25.9212 38.2542 23.1355L47.9097-1.07969C48.0343-1.48206 48.1874-1.90785 48.2497-2.33878L50.8667-20.1799L47.6061-19.9644C44.1454-19.749 41.0195-20.1799 38.3247-21.1898Z"/>
  </g>
  <g id="Semibold-M" transform="matrix(1 0 0 1 1993.72 1126)">
   <path d="M53.8663-76.1504C60.0307-76.1504 65.0216-81.1783 65.0216-87.3797C65.0216-93.5441 60.0307-98.535 53.8663-98.535C47.6649-98.535 42.637-93.5441 42.637-87.3797C42.637-81.1783 47.6649-76.1504 53.8663-76.1504ZM65.2182-46.476C67.4345-44.2526 71.6438-44.3772 73.5746-47.4066L85.683-66.8063C89.6503-73.1625 80.2827-78.346 76.6081-72.448L68.0867-58.7303L61.5403-65.3319C54.8508-71.9955 47.5278-73.3078 37.3926-72.1824L19.672-70.1989C17.2026-69.9315 15.3089-67.9644 15.0233-65.6054L12.5232-46.0259C11.6478-39.3037 22.1251-37.5708 23.0629-44.7844L25.0172-60.0804L33.9754-61.0891C35.1062-61.1955 35.7353-60.5846 35.5665-59.311L33.2092-40.2048C32.0656-30.9251 37.4713-25.476 46.6335-26.1282L64.4285-27.4043L59.1193-7.96723C57.1262-0.789947 67.5192 1.76709 69.3876-5.22328L76.5653-31.8116C77.5583-35.394 75.0817-38.5228 71.0885-38.5228L52.6049-38.5228L54.9077-54.3999C55.0954-55.6969 56.0966-55.734 56.9151-54.8784ZM38.0815-22.1209L36.9412-5.08228L27.6113 18.2181C25.8603 22.6696 29.0507 25.8236 32.4028 25.8236C34.4582 25.8236 36.5317 24.6808 37.587 22.0173L47.1401-1.94634C47.2647-2.33833 47.4075-2.74136 47.4698-3.1515L50.1244-21.165L47.0113-20.9599C43.6766-20.7548 40.6646-21.165 38.0815-22.1209Z"/>
  </g>
  <g id="Medium-M" transform="matrix(1 0 0 1 1697.47 1126)">
   <path d="M53.3688-76.0081C59.4079-76.0081 64.2874-80.931 64.2874-87.0135C64.2874-93.0527 59.4079-97.9321 53.3688-97.9321C47.2863-97.9321 42.3634-93.0527 42.3634-87.0135C42.3634-80.931 47.2863-76.0081 53.3688-76.0081ZM64.741-46.8251C66.874-44.6835 70.9326-44.8081 72.7959-47.7213L84.8034-66.9736C88.6214-73.0943 79.5978-78.0782 76.0582-72.397L67.509-58.627L60.8751-65.3146C54.2729-71.875 47.0689-73.1765 37.0521-72.0619L19.4665-70.0923C17.0912-69.8328 15.2714-67.949 15.0016-65.6811L12.5232-46.2505C11.6808-39.7874 21.756-38.1127 22.6608-45.0656L24.6184-60.3509L33.6266-61.3723C34.8253-61.4866 35.5554-60.7668 35.3788-59.4332L33.0353-40.4821C31.9105-31.3731 37.2003-26.0542 46.1933-26.6892L64.0552-27.9701L58.7344-8.48484C56.8088-1.5525 66.8184 0.903999 68.6193-5.84143L75.7412-32.2173C76.6996-35.6597 74.3157-38.6786 70.456-38.6786L51.9385-38.6786L54.2511-54.6035C54.4609-56.0315 55.6403-56.0749 56.5046-55.1672ZM37.8972-22.8269L36.7425-5.631L27.4745 17.5052C25.7895 21.8044 28.8479 24.8422 32.0743 24.8422C34.0621 24.8422 36.0603 23.7402 37.081 21.1694L46.5566-2.60348C46.6812-2.98758 46.8161-3.37337 46.8784-3.76775L49.5615-21.9119L46.5602-21.7147C43.3212-21.5175 40.3954-21.9119 37.8972-22.8269Z"/>
  </g>
  <g id="Regular-M" transform="matrix(1 0 0 1 1401.36 1126)">
   <path d="M52.7199-75.8225C58.5956-75.8225 63.3297-80.6084 63.3297-86.5359C63.3297-92.4117 58.5956-97.1458 52.7199-97.1458C46.7924-97.1458 42.0064-92.4117 42.0064-86.5359C42.0064-80.6084 46.7924-75.8225 52.7199-75.8225ZM64.1186-47.2804C66.143-45.2455 70.0049-45.3701 71.7801-48.1316L83.6562-67.1918C87.2794-73.0053 78.7044-77.7289 75.341-72.3305L66.7555-58.4923L60.0075-65.292C53.5193-71.718 46.4703-73.0053 36.608-71.9049L19.1984-69.9533C16.9459-69.7041 15.2224-67.9289 14.9732-65.7799L12.5232-46.5433C11.7238-40.4184 21.2745-38.8196 22.1363-45.4324L24.0984-60.7036L33.1717-61.7417C34.459-61.8663 35.3207-61.0046 35.1338-59.5927L32.8085-40.844C31.7081-31.9575 36.8467-26.8083 45.6191-27.4208L63.5684-28.7081L58.2323-9.15999C56.3948-2.54714 65.9043-0.221769 67.6172-6.6477L74.6662-32.7464C75.5797-36.0063 73.3166-38.8819 69.6311-38.8819L51.0693-38.8819L53.3947-54.8691C53.6333-56.4679 55.0452-56.5196 55.9692-55.5439ZM37.6567-23.7478L36.4834-6.34673L27.296 16.5754C25.6972 20.6759 28.5833 23.5621 31.6458 23.5621C33.5456 23.5621 35.4454 22.5134 36.4211 20.0634L45.7955-3.46061C45.9201-3.83444 46.0447-4.19772 46.107-4.57154L48.8273-22.8861L45.9718-22.6992C42.8576-22.5123 40.0444-22.8861 37.6567-23.7478Z"/>
  </g>
  <g id="Light-M" transform="matrix(1 0 0 1 1105.63 1126)">
   <path d="M51.6248-74.9157C57.3294-74.9157 61.9609-79.5818 61.9609-85.3211C61.9609-91.0257 57.3294-95.6572 51.6248-95.6572C45.8855-95.6572 41.2193-91.0257 41.2193-85.3211C41.2193-79.5818 45.8855-74.9157 51.6248-74.9157ZM62.7155-46.7671C64.6886-44.7664 68.4478-44.891 70.1716-47.5841L81.7055-66.131C85.2432-71.7733 76.9078-76.3771 73.647-71.1156L65.284-57.671L58.7071-64.2825C52.407-70.5202 45.5463-71.7733 35.9578-70.7071L19.0102-68.824C16.8432-68.5748 15.154-66.8509 14.9048-64.7533L12.5232-46.0471C11.7409-40.0933 21.0179-38.5287 21.8625-44.9533L23.7733-59.8309L32.6071-60.8348C33.8602-60.9594 34.7048-60.1148 34.5178-58.7371L32.2609-40.5017C31.1948-31.8548 36.1794-26.8425 44.7294-27.4379L62.1824-28.691L56.9832-9.67332C55.1971-3.24869 64.467-0.991762 66.1286-7.22947L72.9893-32.6095C73.8686-35.801 71.6739-38.591 68.074-38.591L50.0255-38.591L52.2824-54.1333C52.504-55.6979 53.8817-55.7325 54.7886-54.791ZM36.9893-24.0729L35.8332-6.94561L26.9024 15.3605C25.3378 19.3413 28.1555 22.159 31.1324 22.159C32.9809 22.159 34.8294 21.1274 35.7709 18.7459L44.8886-4.12794C45.0132-4.50177 45.1378-4.84793 45.2001-5.22176L47.8862-23.2283L45.0479-23.0414C42.0363-22.8545 39.3086-23.2283 36.9893-24.0729Z"/>
  </g>
  <g id="Thin-M" transform="matrix(1 0 0 1 810.218 1126)">
   <path d="M50.1764-73.7162C55.6547-73.7162 60.1504-78.2239 60.1504-83.7143C60.1504-89.1926 55.6547-93.6883 50.1764-93.6883C44.6861-93.6883 40.1783-89.1926 40.1783-83.7143C40.1783-78.2239 44.6861-73.7162 50.1764-73.7162ZM60.8598-46.0882C62.765-44.1327 66.3884-44.2573 68.0444-46.8599L79.1256-64.7279C82.5501-70.1439 74.5316-74.5893 71.4066-69.5088L63.3377-56.5847L56.9871-62.9473C50.9361-68.9361 44.3242-70.1439 35.0979-69.123L18.7612-67.3304C16.7074-67.0812 15.0635-65.4252 14.8143-63.3954L12.5232-45.3908C11.7636-39.6633 20.6784-38.144 21.5004-44.3196L23.3433-58.6768L31.8603-59.6354C33.0681-59.76 33.8901-58.938 33.7031-57.6056L31.5367-40.0491C30.5158-31.719 35.2968-26.8878 43.5526-27.4605L60.3493-28.6684L55.3312-10.3522C53.6129-4.17655 62.566-2.01014 64.1597-7.99891L70.7715-32.4284C71.6055-35.5294 69.5014-38.2063 66.0146-38.2063L48.645-38.2063L50.8115-53.1602C51.0104-54.6795 52.3428-54.6915 53.2271-53.7952ZM36.1068-24.5029L34.9733-7.73768L26.3819 13.7537C24.8626 17.5761 27.5898 20.3033 30.4535 20.3033C32.2341 20.3033 34.0147 19.2944 34.911 17.0034L43.6892-5.01053C43.8138-5.38436 43.9384-5.7079 44.0007-6.08172L46.6415-23.6809L43.8258-23.494C40.95-23.3071 38.3355-23.6809 36.1068-24.5029Z"/>
  </g>
  <g id="Ultralight-M" transform="matrix(1 0 0 1 514.173 1126)">
   <path d="M49.4346-73.1019C54.797-73.1019 59.2231-77.5285 59.2231-82.8913C59.2231-88.2537 54.797-92.6799 49.4346-92.6799C44.0717-92.6799 39.6451-88.2537 39.6451-82.8913C39.6451-77.5285 44.0717-73.1019 49.4346-73.1019ZM59.9093-45.7405C61.7797-43.8082 65.3336-43.9328 66.9548-46.489L77.8042-64.0092C81.1708-69.3093 73.3145-73.6736 70.259-68.6858L62.3409-56.0283L56.1062-62.2634C50.1826-68.1247 43.6983-69.3093 34.6574-68.3116L18.6337-66.5654C16.6379-66.3162 15.0171-64.695 14.7679-62.7L12.5232-45.0547C11.7752-39.4431 20.5046-37.9469 21.3149-43.9951L23.123-58.0856L31.4778-59.021C32.6624-59.1456 33.4728-58.3353 33.2859-57.026L31.1658-39.8173C30.1681-31.6495 34.8447-26.911 42.9498-27.4721L59.4105-28.6568L54.485-10.7C52.8015-4.65179 61.5924-2.53175 63.1513-8.39302L69.6356-32.3357C70.4464-35.3903 68.3886-38.0092 64.9598-38.0092L47.938-38.0092L50.058-52.6617C50.2454-54.1579 51.5546-54.1583 52.4273-53.2852ZM35.6547-24.7232L34.5328-8.14338L26.1153 12.9308C24.6192 16.672 27.3 19.3528 30.1058 19.3528C31.8516 19.3528 33.5974 18.3555 34.4705 16.1108L43.0748-5.46259C43.1995-5.83642 43.3241-6.14836 43.3864-6.52219L46.004-23.9128L43.1999-23.7259C40.3936-23.5389 37.837-23.9128 35.6547-24.7232Z"/>
  </g>
  <g id="Black-S" transform="matrix(1 0 0 1 2892.6 696)">
   <path d="M44.3359-67.8711C49.707-67.8711 54.1016-72.2656 54.1016-77.6367C54.1016-83.0078 49.707-87.4023 44.3359-87.4023C38.9648-87.4023 34.5703-83.0078 34.5703-77.6367C34.5703-72.2656 38.9648-67.8711 44.3359-67.8711ZM53.125-42.4805C55.2246-40.3809 59.1797-40.4785 60.9863-43.3594L70.8984-59.1797C74.6582-65.1855 65.8203-70.1172 62.3535-64.5508L55.8105-54.0527L51.0742-58.8379C45.459-64.502 39.209-65.5762 30.7617-64.6484L16.3086-63.0371C13.9648-62.793 12.1582-60.8887 11.8652-58.6426L9.81445-42.6758C8.98438-36.2793 18.9453-34.668 19.8242-41.4551L21.3379-53.4668L28.125-54.1992C28.7109-54.248 28.7598-54.248 28.6621-53.5156L26.7578-37.8906C25.7812-29.8828 30.5176-25.0488 38.4277-25.6348L52.0508-26.6113L47.9492-11.6211C46.0938-4.93164 55.9082-2.49023 57.666-9.0332L63.5254-30.7617C64.4531-34.1797 62.1094-37.1094 58.3984-37.1094L44.0918-37.1094L45.8496-49.3164C45.8984-49.7559 45.8984-49.7559 46.3379-49.3164ZM30.6152-21.875L29.7852-9.22852L22.2168 9.7168C20.5566 13.8672 23.6328 16.8457 26.8066 16.8457C28.7109 16.8457 30.6641 15.7715 31.6406 13.2812L39.4531-6.29883C39.5508-6.64062 39.6973-7.03125 39.7461-7.42188L41.6992-20.9473L38.7695-20.752C35.7422-20.5566 33.0078-20.9473 30.6152-21.875Z"/>
  </g>
  <g id="Heavy-S" transform="matrix(1 0 0 1 2596.44 696)">
   <path d="M43.7482-67.7789C48.9579-67.7789 53.2027-72.0351 53.2027-77.2564C53.2027-82.4662 48.9579-86.7109 43.7482-86.7109C38.5269-86.7109 34.2707-82.4662 34.2707-77.2564C34.2707-72.0351 38.5269-67.7789 43.7482-67.7789ZM52.6064-43.0567C54.5908-41.0723 58.3384-41.17 60.0528-43.8895L69.8612-59.56C73.4136-65.2432 65.0482-69.8982 61.7658-64.6315L55.1537-54.0066L50.2675-58.9416C44.756-64.4789 38.6558-65.5416 30.3468-64.6254L16.032-63.0256C13.815-62.793 12.1121-61.0039 11.8422-58.8846L9.81445-43.0676C9.03047-37.0284 18.4382-35.4977 19.271-41.9276L20.7962-53.9739L27.6871-54.7293C28.3767-54.7897 28.5754-54.6284 28.4662-53.8037L26.5734-38.3401C25.6199-30.5512 30.2064-25.8901 37.8976-26.453L51.682-27.4411L47.5459-12.3126C45.7826-5.95732 55.0669-3.65421 56.7325-9.86296L62.5343-31.3725C63.4159-34.5946 61.1989-37.3744 57.6724-37.3744L43.2505-37.3744L45.0314-49.7082C45.1148-50.3436 45.3798-50.3551 45.8884-49.835ZM30.4308-22.8661L29.5777-9.95456L22.067 8.82941C20.499 12.7724 23.3908 15.5895 26.3918 15.5895C28.2039 15.5895 30.0533 14.5729 30.9837 12.2095L38.7156-7.17469C38.8132-7.50496 38.9482-7.87254 38.997-8.24011L40.9962-21.996L38.2279-21.8122C35.3273-21.6284 32.7082-21.996 30.4308-22.8661Z"/>
  </g>
  <g id="Bold-S" transform="matrix(1 0 0 1 2300.34 696)">
   <path d="M43.0908-67.6758C48.1201-67.6758 52.1973-71.7773 52.1973-76.8311C52.1973-81.8604 48.1201-85.9375 43.0908-85.9375C38.0371-85.9375 33.9355-81.8604 33.9355-76.8311C33.9355-71.7773 38.0371-67.6758 43.0908-67.6758ZM52.0264-43.7012C53.8818-41.8457 57.3975-41.9434 59.0088-44.4824L68.7012-59.9854C72.0215-65.3076 64.1846-69.6533 61.1084-64.7217L54.4189-53.9551L49.3652-59.0576C43.9697-64.4531 38.0371-65.5029 29.8828-64.5996L15.7227-63.0127C13.6475-62.793 12.0605-61.1328 11.8164-59.1553L9.81445-43.5059C9.08203-37.8662 17.8711-36.4258 18.6523-42.4561L20.1904-54.541L27.1973-55.3223C28.0029-55.3955 28.3691-55.0537 28.2471-54.126L26.3672-38.8428C25.4395-31.2988 29.8584-26.8311 37.3047-27.3682L51.2695-28.3691L47.0947-13.0859C45.4346-7.10449 54.126-4.95605 55.6885-10.791L61.4258-32.0557C62.2559-35.0586 60.1807-37.6709 56.8604-37.6709L42.3096-37.6709L44.1162-50.1465C44.2383-51.001 44.7998-51.0254 45.3857-50.415ZM30.2246-23.9746L29.3457-10.7666L21.8994 7.83691C20.4346 11.5479 23.1201 14.1846 25.9277 14.1846C27.6367 14.1846 29.3701 13.2324 30.249 11.0107L37.8906-8.1543C37.9883-8.47168 38.1104-8.81348 38.1592-9.15527L40.21-23.1689L37.6221-22.998C34.8633-22.8271 32.373-23.1689 30.2246-23.9746Z"/>
  </g>
  <g id="Semibold-S" transform="matrix(1 0 0 1 2004.05 696)">
   <path d="M42.6376-67.6047C47.5425-67.6047 51.5041-71.5996 51.5041-76.5378C51.5041-81.4427 47.5425-85.4043 42.6376-85.4043C37.6994-85.4043 33.7045-81.4427 33.7045-76.5378C33.7045-71.5996 37.6994-67.6047 42.6376-67.6047ZM51.6265-44.1455C53.3931-42.3789 56.7487-42.4766 58.289-44.8912L67.9014-60.2786C71.0617-65.3521 63.5892-69.4845 60.6552-64.7839L53.9124-53.9195L48.7432-59.1376C43.4276-64.4354 37.6105-65.4763 29.5629-64.5818L15.5094-63.0038C13.5319-62.793 12.025-61.2217 11.7986-59.3419L9.81445-43.808C9.11758-38.4438 17.4801-37.0656 18.2258-42.8204L19.7728-54.932L26.8596-55.7311C27.7452-55.8132 28.227-55.347 28.096-54.3481L26.225-39.1894C25.315-31.8143 29.6185-27.4798 36.8959-27.9991L50.9852-29.009L46.7837-13.6191C45.1946-7.89541 53.4772-5.85361 54.9687-11.4309L60.6615-32.5267C61.4561-35.3785 59.4786-37.8753 56.3005-37.8753L41.6608-37.8753L43.4853-50.4486C43.634-51.4542 44.3999-51.4875 45.0392-50.8149ZM30.0824-24.7389L29.1857-11.3265L21.7839 7.15264C20.3901 10.7036 22.9335 13.2159 25.6078 13.2159C27.2457 13.2159 28.8991 12.3082 29.7425 10.1843L37.3219-8.82969C37.4195-9.13818 37.5327-9.46221 37.5815-9.78623L39.6679-23.9776L37.2044-23.8156C34.5434-23.6536 32.142-23.9776 30.0824-24.7389Z"/>
  </g>
  <g id="Medium-S" transform="matrix(1 0 0 1 1707.66 696)">
   <path d="M42.2939-67.5508C47.1045-67.5508 50.9785-71.4648 50.9785-76.3154C50.9785-81.126 47.1045-85 42.2939-85C37.4434-85 33.5293-81.126 33.5293-76.3154C33.5293-71.4648 37.4434-67.5508 42.2939-67.5508ZM51.3232-44.4824C53.0225-42.7832 56.2568-42.8809 57.7432-45.2012L67.2949-60.501C70.334-65.3857 63.1377-69.3564 60.3115-64.8311L53.5283-53.8926L48.2715-59.1982C43.0166-64.4219 37.2871-65.4561 29.3203-64.5684L15.3477-62.9971C13.4443-62.793 11.998-61.2891 11.7852-59.4834L9.81445-44.0371C9.14453-38.8818 17.1836-37.5508 17.9023-43.0967L19.4561-55.2285L26.6035-56.041C27.5498-56.1299 28.1191-55.5693 27.9814-54.5166L26.1172-39.4521C25.2207-32.2051 29.4365-27.9717 36.5859-28.4775L50.7695-29.4941L46.5479-14.0234C45.0127-8.49512 52.9854-6.53418 54.4229-11.916L60.082-32.8838C60.8496-35.6211 58.9463-38.0303 55.876-38.0303L41.1689-38.0303L43.0068-50.6777C43.1758-51.7979 44.0967-51.8379 44.7764-51.1182ZM29.9746-25.3184L29.0645-11.751L21.6963 6.63379C20.3564 10.0635 22.792 12.4814 25.3652 12.4814C26.9492 12.4814 28.542 11.6074 29.3584 9.55762L36.8906-9.3418C36.9883-9.64355 37.0947-9.9541 37.1436-10.2646L39.2568-24.5908L36.8877-24.4355C34.3008-24.2803 31.9668-24.5908 29.9746-25.3184Z"/>
  </g>
  <g id="Regular-S" transform="matrix(1 0 0 1 1411.37 696)">
   <path d="M41.8457-67.4805C46.5332-67.4805 50.293-71.2891 50.293-76.0254C50.293-80.7129 46.5332-84.4727 41.8457-84.4727C37.1094-84.4727 33.3008-80.7129 33.3008-76.0254C33.3008-71.2891 37.1094-67.4805 41.8457-67.4805ZM50.9277-44.9219C52.5391-43.3105 55.6152-43.4082 57.0312-45.6055L66.5039-60.791C69.3848-65.4297 62.5488-69.1895 59.8633-64.8926L53.0273-53.8574L47.6562-59.2773C42.4805-64.4043 36.8652-65.4297 29.0039-64.5508L15.1367-62.9883C13.3301-62.793 11.9629-61.377 11.7676-59.668L9.81445-44.3359C9.17969-39.4531 16.7969-38.1836 17.4805-43.457L19.043-55.6152L26.2695-56.4453C27.2949-56.543 27.9785-55.8594 27.832-54.7363L25.9766-39.7949C25.0977-32.7148 29.1992-28.6133 36.1816-29.1016L50.4883-30.127L46.2402-14.5508C44.7754-9.27734 52.3438-7.42188 53.7109-12.5488L59.3262-33.3496C60.0586-35.9375 58.252-38.2324 55.3223-38.2324L40.5273-38.2324L42.3828-50.9766C42.5781-52.2461 43.7012-52.2949 44.4336-51.5137ZM29.834-26.0742L28.9062-12.3047L21.582 5.95703C20.3125 9.22852 22.6074 11.5234 25.0488 11.5234C26.5625 11.5234 28.0762 10.6934 28.8574 8.74023L36.3281-10.0098C36.4258-10.3027 36.5234-10.5957 36.5723-10.8887L38.7207-25.3906L36.4746-25.2441C33.9844-25.0977 31.7383-25.3906 29.834-26.0742Z"/>
  </g>
  <g id="Light-S" transform="matrix(1 0 0 1 1115.53 696)">
   <path d="M40.877-66.6782C45.4131-66.6782 49.082-70.3809 49.082-74.9507C49.082-79.4868 45.4131-83.1558 40.877-83.1558C36.3071-83.1558 32.6045-79.4868 32.6045-74.9507C32.6045-70.3809 36.3071-66.6782 40.877-66.6782ZM49.6865-44.4678C51.2525-42.8867 54.2378-42.9844 55.6084-45.1211L64.7783-59.8525C67.5835-64.3399 60.9595-67.9937 58.3648-63.8179L51.7256-53.1309L46.5059-58.3843C41.4966-63.3447 36.0479-64.3399 28.4287-63.4912L14.9702-61.9893C13.2393-61.794 11.9023-60.4233 11.707-58.7598L9.81445-43.897C9.19482-39.1655 16.5698-37.9263 17.2383-43.0332L18.7554-54.8433L25.77-55.6431C26.7651-55.7407 27.4336-55.0723 27.2871-53.9795L25.4922-39.4922C24.6436-32.624 28.6089-28.6436 35.3945-29.1167L49.2622-30.1118L45.1353-15.0049C43.7158-9.89794 51.0723-8.10302 52.3941-13.0635L57.8428-33.2285C58.5449-35.7559 56.7988-37.9751 53.9448-37.9751L39.604-37.9751L41.3989-50.3257C41.5791-51.5649 42.6719-51.5986 43.3892-50.8477ZM29.2437-26.3618L28.3311-12.8345L21.2339 4.88233C19.9946 8.04786 22.229 10.2822 24.5947 10.2822C26.063 10.2822 27.5313 9.46729 28.2822 7.57472L35.5259-10.6001C35.6235-10.8931 35.7212-11.1709 35.77-11.4639L37.8882-25.6934L35.6572-25.5469C33.2578-25.4004 31.0874-25.6934 29.2437-26.3618Z"/>
  </g>
  <g id="Thin-S" transform="matrix(1 0 0 1 819.967 696)">
   <path d="M39.5957-65.6172C43.9317-65.6172 47.4805-69.1797 47.4805-73.5293C47.4805-77.8653 43.9317-81.4141 39.5957-81.4141C35.2461-81.4141 31.6836-77.8653 31.6836-73.5293C31.6836-69.1797 35.2461-65.6172 39.5957-65.6172ZM48.0449-43.8672C49.5508-42.3262 52.416-42.4238 53.7266-44.4805L62.4961-58.6113C65.2012-62.8985 58.8575-66.4121 56.3828-62.3965L50.0039-52.1699L44.9844-57.2031C40.1953-61.9434 34.9668-62.8985 27.668-62.0899L14.75-60.668C13.1191-60.4727 11.8223-59.1621 11.627-57.5586L9.81445-43.3164C9.21484-38.7852 16.2695-37.5859 16.918-42.4727L18.375-53.8223L25.1094-54.582C26.0645-54.6797 26.7129-54.0313 26.5664-52.9785L24.8516-39.0918C24.043-32.5039 27.8281-28.6836 34.3535-29.1367L47.6406-30.0918L43.6738-15.6055C42.3145-10.7187 49.3906-9.00389 50.6524-13.7441L55.8809-33.0684C56.543-35.5156 54.877-37.6348 52.1231-37.6348L38.3828-37.6348L40.0977-49.4649C40.2578-50.6641 41.3106-50.6777 42.0078-49.9668ZM28.4629-26.7422L27.5703-13.5351L20.7734 3.46096C19.5742 6.48635 21.7285 8.64065 23.9941 8.64065C25.4024 8.64065 26.8106 7.84573 27.5215 6.03322L34.4649-11.3808C34.5625-11.6738 34.6602-11.9316 34.709-12.2246L36.7871-26.0937L34.5762-25.9473C32.2969-25.8008 30.2266-26.0937 28.4629-26.7422Z"/>
  </g>
  <g id="Ultralight-S" transform="matrix(1 0 0 1 523.846 696)">
   <path d="M38.9395-65.0737C43.1729-65.0737 46.6602-68.5645 46.6602-72.8013C46.6602-77.0347 43.1729-80.522 38.9395-80.522C34.7027-80.522 31.2119-77.0347 31.2119-72.8013C31.2119-68.5645 34.7027-65.0737 38.9395-65.0737ZM47.2041-43.5596C48.6792-42.0391 51.4829-42.1367 52.7627-44.1524L61.3272-57.9756C63.981-62.1602 57.7808-65.6021 55.3677-61.6685L49.1221-51.6778L44.2051-56.5982C39.5288-61.2256 34.4131-62.1602 27.2783-61.3721L14.6372-59.9912C13.0576-59.7959 11.7813-58.5161 11.5859-56.9434L9.81445-43.0191C9.2251-38.5903 16.1157-37.4116 16.7539-42.1856L18.1802-53.2993L24.771-54.0386C25.7056-54.1362 26.3438-53.4981 26.1973-52.4658L24.5234-38.8867C23.7354-32.4424 27.4282-28.7041 33.8203-29.147L46.8101-30.0815L42.9253-15.9131C41.5967-11.1391 48.5293-9.46532 49.7603-14.0928L54.876-32.9863C55.5176-35.3926 53.8926-37.4605 51.19-37.4605L37.7573-37.4605L39.4312-49.0239C39.5811-50.2027 40.6133-50.2061 41.3003-49.5156ZM28.063-26.937L27.1807-13.894L20.5376 2.73294C19.3589 5.68655 21.4722 7.79983 23.6865 7.79983C25.064 7.79983 26.4414 7.01517 27.1318 5.24368L33.9214-11.7807C34.0191-12.0737 34.1167-12.3213 34.1655-12.6142L36.2232-26.2988L34.0225-26.1523C31.8047-26.0059 29.7857-26.2988 28.063-26.937Z"/>
  </g>
 </g>
</svg>
