<?xml version="1.0" encoding="UTF-8"?>
<!--Generator: Apple Native CoreSVG 175.5-->
<!DOCTYPE svg
PUBLIC "-//W3C//DTD SVG 1.1//EN"
       "http://www.w3.org/Graphics/SVG/1.1/DTD/svg11.dtd">
<svg version="1.1" xmlns="http://www.w3.org/2000/svg" xmlns:xlink="http://www.w3.org/1999/xlink" width="3300" height="2200">
 <!--glyph: "uni101534.medium", point size: 100.0, font version: "18.0d12e2", template writer version: "101"-->
 <g id="Notes">
  <rect height="2200" id="artboard" style="fill:white;opacity:1" width="3300" x="0" y="0"/>
  <line style="fill:none;stroke:black;opacity:1;stroke-width:0.5;" x1="263" x2="3036" y1="292" y2="292"/>
  <text style="stroke:none;fill:black;font-family:sans-serif;font-size:13;font-weight:bold;" transform="matrix(1 0 0 1 263 322)">Weight/Scale Variations</text>
  <text style="stroke:none;fill:black;font-family:sans-serif;font-size:13;text-anchor:middle;" transform="matrix(1 0 0 1 559.711 322)">Ultralight</text>
  <text style="stroke:none;fill:black;font-family:sans-serif;font-size:13;text-anchor:middle;" transform="matrix(1 0 0 1 856.422 322)">Thin</text>
  <text style="stroke:none;fill:black;font-family:sans-serif;font-size:13;text-anchor:middle;" transform="matrix(1 0 0 1 1153.13 322)">Light</text>
  <text style="stroke:none;fill:black;font-family:sans-serif;font-size:13;text-anchor:middle;" transform="matrix(1 0 0 1 1449.84 322)">Regular</text>
  <text style="stroke:none;fill:black;font-family:sans-serif;font-size:13;text-anchor:middle;" transform="matrix(1 0 0 1 1746.56 322)">Medium</text>
  <text style="stroke:none;fill:black;font-family:sans-serif;font-size:13;text-anchor:middle;" transform="matrix(1 0 0 1 2043.27 322)">Semibold</text>
  <text style="stroke:none;fill:black;font-family:sans-serif;font-size:13;text-anchor:middle;" transform="matrix(1 0 0 1 2339.98 322)">Bold</text>
  <text style="stroke:none;fill:black;font-family:sans-serif;font-size:13;text-anchor:middle;" transform="matrix(1 0 0 1 2636.69 322)">Heavy</text>
  <text style="stroke:none;fill:black;font-family:sans-serif;font-size:13;text-anchor:middle;" transform="matrix(1 0 0 1 2933.4 322)">Black</text>
  <line style="fill:none;stroke:black;opacity:1;stroke-width:0.5;" x1="263" x2="3036" y1="1903" y2="1903"/>
  <g transform="matrix(1 0 0 1 263 1933)">
   <path d="M9.24805 0.830078C13.5547 0.830078 17.1387-2.74414 17.1387-7.05078C17.1387-11.3574 13.5449-14.9316 9.23828-14.9316C4.94141-14.9316 1.36719-11.3574 1.36719-7.05078C1.36719-2.74414 4.95117 0.830078 9.24805 0.830078ZM9.24805-0.654297C5.70312-0.654297 2.87109-3.49609 2.87109-7.05078C2.87109-10.6055 5.69336-13.4473 9.23828-13.4473C12.793-13.4473 15.6445-10.6055 15.6445-7.05078C15.6445-3.49609 12.8027-0.654297 9.24805-0.654297ZM5.6543-7.05078C5.6543-6.62109 5.95703-6.32812 6.40625-6.32812L8.50586-6.32812L8.50586-4.20898C8.50586-3.76953 8.79883-3.4668 9.22852-3.4668C9.67773-3.4668 9.9707-3.76953 9.9707-4.20898L9.9707-6.32812L12.0898-6.32812C12.5293-6.32812 12.832-6.62109 12.832-7.05078C12.832-7.49023 12.5293-7.79297 12.0898-7.79297L9.9707-7.79297L9.9707-9.90234C9.9707-10.3516 9.67773-10.6543 9.22852-10.6543C8.79883-10.6543 8.50586-10.3516 8.50586-9.90234L8.50586-7.79297L6.40625-7.79297C5.95703-7.79297 5.6543-7.49023 5.6543-7.05078Z"/>
  </g>
  <g transform="matrix(1 0 0 1 281.867 1933)">
   <path d="M11.709 2.91016C17.1582 2.91016 21.6699-1.61133 21.6699-7.05078C21.6699-12.5 17.1484-17.0117 11.6992-17.0117C6.25977-17.0117 1.74805-12.5 1.74805-7.05078C1.74805-1.61133 6.26953 2.91016 11.709 2.91016ZM11.709 1.25C7.09961 1.25 3.41797-2.44141 3.41797-7.05078C3.41797-11.6602 7.08984-15.3516 11.6992-15.3516C16.3086-15.3516 20.0098-11.6602 20.0098-7.05078C20.0098-2.44141 16.3184 1.25 11.709 1.25ZM7.17773-7.05078C7.17773-6.57227 7.50977-6.25 8.00781-6.25L10.8789-6.25L10.8789-3.36914C10.8789-2.88086 11.2109-2.53906 11.6895-2.53906C12.1777-2.53906 12.5195-2.87109 12.5195-3.36914L12.5195-6.25L15.4004-6.25C15.8887-6.25 16.2305-6.57227 16.2305-7.05078C16.2305-7.53906 15.8887-7.88086 15.4004-7.88086L12.5195-7.88086L12.5195-10.752C12.5195-11.25 12.1777-11.5918 11.6895-11.5918C11.2109-11.5918 10.8789-11.25 10.8789-10.752L10.8789-7.88086L8.00781-7.88086C7.50977-7.88086 7.17773-7.53906 7.17773-7.05078Z"/>
  </g>
  <g transform="matrix(1 0 0 1 305.646 1933)">
   <path d="M14.9707 5.66406C21.9336 5.66406 27.6953-0.0976562 27.6953-7.05078C27.6953-14.0137 21.9238-19.7754 14.9609-19.7754C8.00781-19.7754 2.25586-14.0137 2.25586-7.05078C2.25586-0.0976562 8.01758 5.66406 14.9707 5.66406ZM14.9707 3.84766C8.93555 3.84766 4.08203-1.01562 4.08203-7.05078C4.08203-13.0957 8.92578-17.9492 14.9609-17.9492C21.0059-17.9492 25.8691-13.0957 25.8691-7.05078C25.8691-1.01562 21.0156 3.84766 14.9707 3.84766ZM9.19922-7.05078C9.19922-6.5332 9.57031-6.17188 10.1172-6.17188L14.0625-6.17188L14.0625-2.2168C14.0625-1.67969 14.4336-1.29883 14.9512-1.29883C15.4883-1.29883 15.8594-1.66992 15.8594-2.2168L15.8594-6.17188L19.8145-6.17188C20.3516-6.17188 20.7324-6.5332 20.7324-7.05078C20.7324-7.59766 20.3613-7.96875 19.8145-7.96875L15.8594-7.96875L15.8594-11.9141C15.8594-12.4609 15.4883-12.8418 14.9512-12.8418C14.4336-12.8418 14.0625-12.4609 14.0625-11.9141L14.0625-7.96875L10.1172-7.96875C9.57031-7.96875 9.19922-7.59766 9.19922-7.05078Z"/>
  </g>
  <text style="stroke:none;fill:black;font-family:sans-serif;font-size:13;font-weight:bold;" transform="matrix(1 0 0 1 263 1953)">Design Variations</text>
  <text style="stroke:none;fill:black;font-family:sans-serif;font-size:13;" transform="matrix(1 0 0 1 263 1971)">Symbols are supported in up to nine weights and three scales.</text>
  <text style="stroke:none;fill:black;font-family:sans-serif;font-size:13;" transform="matrix(1 0 0 1 263 1989)">For optimal layout with text and other symbols, vertically align</text>
  <text style="stroke:none;fill:black;font-family:sans-serif;font-size:13;" transform="matrix(1 0 0 1 263 2007)">symbols with the adjacent text.</text>
  <line style="fill:none;stroke:#00AEEF;stroke-width:0.5;opacity:1.0;" x1="776" x2="776" y1="1919" y2="1933"/>
  <g transform="matrix(1 0 0 1 776 1933)">
   <path d="M3.31055 0.15625C3.82812 0.15625 4.08203-0.0390625 4.26758-0.585938L5.52734-4.0332L11.2891-4.0332L12.5488-0.585938C12.7344-0.0390625 12.9883 0.15625 13.4961 0.15625C14.0137 0.15625 14.3457-0.15625 14.3457-0.644531C14.3457-0.810547 14.3164-0.966797 14.2383-1.17188L9.6582-13.3691C9.43359-13.9648 9.0332-14.2676 8.4082-14.2676C7.80273-14.2676 7.39258-13.9746 7.17773-13.3789L2.59766-1.16211C2.51953-0.957031 2.49023-0.800781 2.49023-0.634766C2.49023-0.146484 2.80273 0.15625 3.31055 0.15625ZM6.00586-5.51758L8.37891-12.0898L8.42773-12.0898L10.8008-5.51758Z"/>
  </g>
  <line style="fill:none;stroke:#00AEEF;stroke-width:0.5;opacity:1.0;" x1="793.197" x2="793.197" y1="1919" y2="1933"/>
  <text style="stroke:none;fill:black;font-family:sans-serif;font-size:13;font-weight:bold;" transform="matrix(1 0 0 1 776 1953)">Margins</text>
  <text style="stroke:none;fill:black;font-family:sans-serif;font-size:13;" transform="matrix(1 0 0 1 776 1971)">Leading and trailing margins on the left and right side of each symbol</text>
  <text style="stroke:none;fill:black;font-family:sans-serif;font-size:13;" transform="matrix(1 0 0 1 776 1989)">can be adjusted by modifying the x-location of the margin guidelines.</text>
  <text style="stroke:none;fill:black;font-family:sans-serif;font-size:13;" transform="matrix(1 0 0 1 776 2007)">Modifications are automatically applied proportionally to all</text>
  <text style="stroke:none;fill:black;font-family:sans-serif;font-size:13;" transform="matrix(1 0 0 1 776 2025)">scales and weights.</text>
  <g transform="matrix(1 0 0 1 1289 1933)">
   <path d="M2.8418 1.86523L4.54102 3.57422C5.40039 4.44336 6.38672 4.38477 7.31445 3.35938L18.0078-8.42773L17.041-9.4043L6.42578 2.27539C6.07422 2.67578 5.74219 2.77344 5.27344 2.30469L4.10156 1.14258C3.63281 0.683594 3.74023 0.341797 4.14062-0.0195312L15.6152-10.8203L14.6387-11.7871L3.04688-0.898438C2.06055 0.0195312 1.98242 0.996094 2.8418 1.86523ZM9.25781-16.3281C8.83789-15.918 8.80859-15.3418 9.04297-14.9512C9.27734-14.5898 9.73633-14.3555 10.3809-14.5215C11.8457-14.8633 13.3691-14.9219 14.7949-13.9844L14.209-12.5293C13.8672-11.6992 14.043-11.1133 14.5801-10.5664L16.875-8.25195C17.3633-7.76367 17.7734-7.74414 18.3398-7.8418L19.4043-8.03711L20.0684-7.36328L20.0293-6.80664C19.9902-6.30859 20.1172-5.92773 20.6055-5.44922L21.3672-4.70703C21.8457-4.22852 22.4609-4.19922 22.9297-4.66797L25.8398-7.58789C26.3086-8.05664 26.2891-8.65234 25.8105-9.13086L25.0391-9.89258C24.5605-10.3711 24.1895-10.5273 23.7109-10.4883L23.1348-10.4395L22.4902-11.0742L22.7344-12.1973C22.8613-12.7637 22.7051-13.2031 22.1191-13.7891L19.9219-15.9766C16.582-19.2969 12.1484-19.2188 9.25781-16.3281ZM10.752-15.957C13.1836-17.7344 16.4746-17.4316 18.7012-15.2051L21.1328-12.793C21.3672-12.5586 21.4062-12.373 21.3379-12.0312L21.0156-10.5469L22.5195-9.0625L23.5059-9.12109C23.7598-9.13086 23.8379-9.11133 24.0332-8.91602L24.6094-8.33984L22.168-5.89844L21.5918-6.47461C21.3965-6.66992 21.3672-6.74805 21.377-7.01172L21.4453-7.98828L19.9512-9.47266L18.4277-9.21875C18.1055-9.15039 17.959-9.17969 17.7148-9.41406L15.7129-11.416C15.459-11.6504 15.4297-11.8164 15.5859-12.1875L16.4648-14.2773C14.9023-15.7324 12.8711-16.3574 10.8398-15.7617C10.6836-15.7227 10.625-15.8496 10.752-15.957Z"/>
  </g>
  <text style="stroke:none;fill:black;font-family:sans-serif;font-size:13;font-weight:bold;" transform="matrix(1 0 0 1 1289 1953)">Exporting</text>
  <text style="stroke:none;fill:black;font-family:sans-serif;font-size:13;" transform="matrix(1 0 0 1 1289 1971)">Symbols should be outlined when exporting to ensure the</text>
  <text style="stroke:none;fill:black;font-family:sans-serif;font-size:13;" transform="matrix(1 0 0 1 1289 1989)">design is preserved when submitting to Xcode.</text>
  <text id="template-version" style="stroke:none;fill:black;font-family:sans-serif;font-size:13;text-anchor:end;" transform="matrix(1 0 0 1 3036 1933)">Template v.4.0</text>
  <text style="stroke:none;fill:black;font-family:sans-serif;font-size:13;text-anchor:end;" transform="matrix(1 0 0 1 3036 1951)">Requires Xcode 14 or greater</text>
  <text id="descriptive-name" style="stroke:none;fill:black;font-family:sans-serif;font-size:13;text-anchor:end;" transform="matrix(1 0 0 1 3036 1969)">Generated from figure.mind.and.body</text>
  <text style="stroke:none;fill:black;font-family:sans-serif;font-size:13;text-anchor:end;" transform="matrix(1 0 0 1 3036 1987)">Typeset at 100 points</text>
  <text style="stroke:none;fill:black;font-family:sans-serif;font-size:13;" transform="matrix(1 0 0 1 263 726)">Small</text>
  <text style="stroke:none;fill:black;font-family:sans-serif;font-size:13;" transform="matrix(1 0 0 1 263 1156)">Medium</text>
  <text style="stroke:none;fill:black;font-family:sans-serif;font-size:13;" transform="matrix(1 0 0 1 263 1586)">Large</text>
 </g>
 <g id="Guides">
  <g id="H-reference" style="fill:#27AAE1;stroke:none;" transform="matrix(1 0 0 1 339 696)">
   <path d="M0.993654 0L3.63775 0L29.3281-67.1323L30.0303-67.1323L30.0303-70.459L28.1226-70.459ZM11.6885-24.4799L46.9815-24.4799L46.2315-26.7285L12.4385-26.7285ZM55.1196 0L57.7637 0L30.6382-70.459L29.4326-70.459L29.4326-67.1323Z"/>
  </g>
  <line id="Baseline-S" style="fill:none;stroke:#27AAE1;opacity:1;stroke-width:0.5;" x1="263" x2="3036" y1="696" y2="696"/>
  <line id="Capline-S" style="fill:none;stroke:#27AAE1;opacity:1;stroke-width:0.5;" x1="263" x2="3036" y1="625.541" y2="625.541"/>
  <g id="H-reference" style="fill:#27AAE1;stroke:none;" transform="matrix(1 0 0 1 339 1126)">
   <path d="M0.993654 0L3.63775 0L29.3281-67.1323L30.0303-67.1323L30.0303-70.459L28.1226-70.459ZM11.6885-24.4799L46.9815-24.4799L46.2315-26.7285L12.4385-26.7285ZM55.1196 0L57.7637 0L30.6382-70.459L29.4326-70.459L29.4326-67.1323Z"/>
  </g>
  <line id="Baseline-M" style="fill:none;stroke:#27AAE1;opacity:1;stroke-width:0.5;" x1="263" x2="3036" y1="1126" y2="1126"/>
  <line id="Capline-M" style="fill:none;stroke:#27AAE1;opacity:1;stroke-width:0.5;" x1="263" x2="3036" y1="1055.54" y2="1055.54"/>
  <g id="H-reference" style="fill:#27AAE1;stroke:none;" transform="matrix(1 0 0 1 339 1556)">
   <path d="M0.993654 0L3.63775 0L29.3281-67.1323L30.0303-67.1323L30.0303-70.459L28.1226-70.459ZM11.6885-24.4799L46.9815-24.4799L46.2315-26.7285L12.4385-26.7285ZM55.1196 0L57.7637 0L30.6382-70.459L29.4326-70.459L29.4326-67.1323Z"/>
  </g>
  <line id="Baseline-L" style="fill:none;stroke:#27AAE1;opacity:1;stroke-width:0.5;" x1="263" x2="3036" y1="1556" y2="1556"/>
  <line id="Capline-L" style="fill:none;stroke:#27AAE1;opacity:1;stroke-width:0.5;" x1="263" x2="3036" y1="1485.54" y2="1485.54"/>
  <line id="left-margin-Regular-M" style="fill:none;stroke:#00AEEF;stroke-width:0.5;opacity:1.0;" x1="1385.6" x2="1385.6" y1="1030.79" y2="1150.12"/>
  <line id="right-margin-Regular-M" style="fill:none;stroke:#00AEEF;stroke-width:0.5;opacity:1.0;" x1="1514.09" x2="1514.09" y1="1030.79" y2="1150.12"/>
 </g>
 <g id="Symbols">
  <g id="Black-L" transform="matrix(1 0 0 1 2846.01 1556)">
   <path d="M18.6398-38.9861L40.7817-16.843C44.2781-13.3466 50.089-13.2078 53.4842-17.4631L66.0411-32.9192C66.8065-33.9051 67.7272-33.4005 67.7272-32.2914L67.7272-6.57216L44.0227-9.22363C34.0952-10.3627 30.8025 4.23906 40.3875 7.41499L67.7932 16.5477C67.0125 22.7748 72.6923 27.8872 79.013 25.8272L87.3867 23.0745L95.7812 25.8272C102.082 27.8872 107.762 22.7748 106.981 16.5477L134.387 7.41499C143.994 4.23906 140.679-10.3627 130.751-9.22363L107.047-6.57216L107.047-32.2914C107.047-33.4005 108.027-33.7882 108.734-32.9192L121.289-17.4631C124.705-13.2078 130.497-13.3454 133.993-16.843L156.134-38.9861C159.529-42.4021 159.55-47.6953 156.134-51.0309C152.937-54.404 147.483-54.3676 144.089-51.0309L128.64-35.6197L112.792-55.003C109.829-58.6459 105.346-60.9669 100.484-60.9669L74.2907-60.9669C69.4283-60.9669 64.9668-58.6459 62.0037-55.003L46.1541-35.6197L30.6857-51.0309C27.2918-54.3676 21.8377-54.404 18.6398-51.0309C15.2446-47.6953 15.2654-42.4021 18.6398-38.9861ZM87.3867-67.4332C95.9127-67.4332 102.857-74.3777 102.857-82.9466C102.857-91.4518 95.9127-98.417 87.3867-98.417C78.8386-98.417 71.8746-91.4518 71.8746-82.9466C71.8746-74.3777 78.8386-67.4332 87.3867-67.4332Z"/>
  </g>
  <g id="Heavy-L" transform="matrix(1 0 0 1 2550.48 1556)">
   <path d="M18.5207-39.3053L40.3823-17.438C43.737-14.0833 49.2871-13.9583 52.5312-18.0399L65.238-33.6878C66.0221-34.683 67.0625-34.1647 67.0625-33.023L67.0625-6.83367L43.3758-9.4763C33.8691-10.5696 30.7412 3.40518 39.8961 6.44381L67.1698 15.5141C66.2602 21.5863 71.748 26.6121 77.868 24.6254L86.2113 21.8721L94.5848 24.6254C100.68 26.6121 106.168 21.5863 105.258 15.5141L132.532 6.44381C141.723 3.40518 138.559-10.5696 129.047-9.4763L105.366-6.83367L105.366-33.023C105.366-34.1647 106.451-34.5937 107.19-33.6878L119.891-18.0399C123.166-13.9583 128.691-14.0777 132.046-17.438L153.902-39.3053C157.146-42.5795 157.176-47.6439 153.902-50.8377C150.833-54.046 145.608-54.0372 142.369-50.8377L126.931-35.414L111.102-54.7647C108.212-58.3072 103.862-60.5598 99.1458-60.5598L73.2824-60.5598C68.5662-60.5598 64.2464-58.3072 61.3561-54.7647L45.5215-35.414L30.0588-50.8377C26.8203-54.0372 21.5951-54.046 18.5207-50.8377C15.2766-47.6439 15.3068-42.5795 18.5207-39.3053ZM86.2113-67.0797C94.5002-67.0797 101.239-73.8184 101.239-82.1733C101.239-90.432 94.5002-97.2009 86.2113-97.2009C77.8866-97.2009 71.1233-90.432 71.1233-82.1733C71.1233-73.8184 77.8866-67.0797 86.2113-67.0797Z"/>
  </g>
  <g id="Bold-L" transform="matrix(1 0 0 1 2255.3 1556)">
   <path d="M18.3821-39.6302L39.8606-18.1384C43.0461-14.9529 48.2884-14.8433 51.3554-18.7173L64.187-34.5288C64.9868-35.5318 66.1583-34.998 66.1583-33.8254L66.1583-7.20114L42.5692-9.82854C33.5625-10.868 30.6271 2.36798 39.2741 5.24498L66.3119 14.2161C65.2633 20.0961 70.5204 25.0144 76.3944 23.1124L84.6769 20.3666L92.9975 23.1124C98.8467 25.0144 104.104 20.0961 103.055 14.2161L130.093 5.24498C138.791 2.36798 135.805-10.868 126.785-9.82854L103.209-7.20114L103.209-33.8254C103.209-34.998 104.41-35.4734 105.18-34.5288L117.998-18.7173C121.104-14.8433 126.321-14.9397 129.506-18.1384L150.972-39.6302C154.039-42.7352 154.077-47.5302 150.972-50.5548C148.057-53.5706 143.101-53.5926 140.047-50.5548L124.669-35.1679L108.915-54.4204C106.117-57.84 101.929-60.008 97.3893-60.008L71.9779-60.008C67.4385-60.008 63.288-57.84 60.4898-54.4204L44.7228-35.1679L29.3199-50.5548C26.2661-53.5926 21.3103-53.5706 18.3821-50.5548C15.315-47.5302 15.353-42.7352 18.3821-39.6302ZM84.6769-66.6119C92.6738-66.6119 99.1664-73.1045 99.1664-81.1905C99.1664-89.1494 92.6738-95.68 84.6769-95.68C76.6289-95.68 70.1115-89.1494 70.1115-81.1905C70.1115-73.1045 76.6289-66.6119 84.6769-66.6119Z"/>
  </g>
  <g id="Semibold-L" transform="matrix(1 0 0 1 1959.65 1556)">
   <path d="M18.2865-39.8542L39.501-18.6212C42.5698-15.5524 47.5998-15.4534 50.5448-19.1842L63.4625-35.1085C64.273-36.1169 65.5349-35.5726 65.5349-34.3785L65.5349-7.45448L42.0131-10.0714C33.3512-11.0736 30.5485 1.65295 38.8453 4.41852L65.7205 13.3212C64.576 19.0689 69.674 23.913 75.3785 22.0694L83.6192 19.3287L91.9032 22.0694C97.5828 23.913 102.681 19.0689 101.536 13.3212L128.412 4.41852C136.77 1.65295 133.906-11.0736 125.225-10.0714L101.722-7.45448L101.722-34.3785C101.722-35.5726 103.002-36.0798 103.794-35.1085L116.694-19.1842C119.682-15.4534 124.687-15.5339 127.756-18.6212L148.952-39.8542C151.897-42.8425 151.94-47.4518 148.952-50.3597C146.143-53.2429 141.373-53.2861 138.446-50.3597L123.109-34.9982L107.408-54.1831C104.673-57.5178 100.596-59.6276 96.1783-59.6276L71.0785-59.6276C66.6611-59.6276 62.6273-57.5178 59.8926-54.1831L44.1722-34.9982L28.8106-50.3597C25.8841-53.2861 21.1139-53.2429 18.2865-50.3597C15.3415-47.4518 15.3849-42.8425 18.2865-39.8542ZM83.6192-66.2894C91.4147-66.2894 97.7376-72.6123 97.7376-80.513C97.7376-88.2652 91.4147-94.6314 83.6192-94.6314C75.7618-94.6314 69.414-88.2652 69.414-80.513C69.414-72.6123 75.7618-66.2894 83.6192-66.2894Z"/>
  </g>
  <g id="Medium-L" transform="matrix(1 0 0 1 1663.74 1556)">
   <path d="M18.2141-40.024L39.2283-18.9873C42.2086-16.007 47.0778-15.9161 49.9302-19.5383L62.9131-35.5482C63.7318-36.5606 65.0623-36.0082 65.0623-34.798L65.0623-7.64657L41.5914-10.2555C33.191-11.2296 30.4889 1.11077 38.5202 3.79186L65.272 12.6427C64.0549 18.2899 69.0323 23.0778 74.6082 21.2785L82.8171 18.5417L91.0735 21.2785C96.6244 23.0778 101.602 18.2899 100.385 12.6427L127.137 3.79186C135.238 1.11077 132.466-11.2296 124.043-10.2555L100.594-7.64657L100.594-34.798C100.594-36.0082 101.935-36.5396 102.744-35.5482L115.704-19.5383C118.604-15.9161 123.448-15.9845 126.428-18.9873L147.42-40.024C150.273-42.9239 150.32-47.3924 147.42-50.2118C144.692-52.9944 140.062-53.0538 137.232-50.2118L121.927-34.8695L106.264-54.0032C103.578-57.2736 99.5851-59.3392 95.2601-59.3392L70.3966-59.3392C66.0716-59.3392 62.1263-57.2736 59.4398-54.0032L43.7548-34.8695L28.4244-50.2118C25.5944-53.0538 20.9651-52.9944 18.2141-50.2118C15.3616-47.3924 15.4091-42.9239 18.2141-40.024ZM82.8171-66.0449C90.46-66.0449 96.6542-72.2391 96.6542-79.9993C96.6542-87.5947 90.46-93.8364 82.8171-93.8364C75.1043-93.8364 68.8851-87.5947 68.8851-79.9993C68.8851-72.2391 75.1043-66.0449 82.8171-66.0449Z"/>
  </g>
  <g id="Regular-L" transform="matrix(1 0 0 1 1368.07 1556)">
   <path d="M18.1196-40.2455L38.8726-19.4648C41.7375-16.5999 46.3968-16.5195 49.1285-20.0001L62.1966-36.1216C63.0259-37.1394 64.4458-36.5764 64.4458-35.345L64.4458-7.89712L41.0414-10.4957C32.982-11.433 30.4111 0.403592 38.0961 2.97448L64.687 11.7577C63.3752 17.2739 68.1953 21.9885 73.6034 20.2469L81.771 17.5152L89.9913 20.2469C95.3743 21.9885 100.194 17.2739 98.8826 11.7577L125.474 2.97448C133.239 0.403592 130.588-11.433 122.501-10.4957L99.1238-7.89712L99.1238-35.345C99.1238-36.5764 100.544-37.1394 101.373-36.1216L114.413-20.0001C117.198-16.5195 121.832-16.5723 124.697-19.4648L145.422-40.2455C148.154-43.03 148.207-47.3148 145.422-50.0189C142.799-52.6702 138.353-52.7506 135.649-50.0189L120.384-34.7017L104.773-53.7684C102.15-56.955 98.2669-58.963 94.0625-58.963L69.5071-58.963C65.3027-58.963 61.4728-56.955 58.8491-53.7684L43.2102-34.7017L27.9206-50.0189C25.2165-52.7506 20.7709-52.6702 18.1196-50.0189C15.3879-47.3148 15.4406-43.03 18.1196-40.2455ZM81.771-65.7259C89.2147-65.7259 95.2411-71.7523 95.2411-79.3292C95.2411-86.7202 89.2147-92.7994 81.771-92.7994C74.2468-92.7994 68.1953-86.7202 68.1953-79.3292C68.1953-71.7523 74.2468-65.7259 81.771-65.7259Z"/>
  </g>
  <g id="Light-L" transform="matrix(1 0 0 1 1072.93 1556)">
   <path d="M18.0814-40.0165L38.3382-19.7129C41.1268-16.9244 45.6716-16.844 48.346-20.2291L61.1087-35.988C61.8998-36.9867 63.3007-36.4237 63.3007-35.2305L63.3007-8.4315L40.4498-10.9919C32.6003-11.9102 30.0866-0.340734 37.5808 2.1729L63.5419 10.7462C62.2683 16.1288 66.9738 20.767 72.2293 19.0445L80.206 16.3701L88.2163 19.0445C93.4849 20.767 98.1904 16.1288 96.9168 10.7462L122.878 2.1729C130.452-0.340734 127.858-11.9102 119.962-10.9919L97.158-8.4315L97.158-35.2305C97.158-36.4237 98.5589-36.9867 99.35-35.988L112.066-20.2291C114.774-16.844 119.332-16.8776 122.12-19.7129L142.331-40.0165C145.005-42.7247 145.039-46.914 142.331-49.5418C139.783-52.1358 135.433-52.2162 132.805-49.5418L117.884-34.5872L102.655-53.215C100.107-56.3252 96.3202-58.2759 92.2112-58.2759L68.2475-58.2759C64.1385-58.2759 60.3849-56.3252 57.8376-53.215L42.5613-34.5872L27.6534-49.5418C25.0257-52.2162 20.6755-52.1358 18.0814-49.5418C15.4069-46.914 15.4406-42.7247 18.0814-40.0165ZM80.206-65.2106C87.4589-65.2106 93.3708-71.1225 93.3708-78.4895C93.3708-85.7087 87.4589-91.6542 80.206-91.6542C72.8727-91.6542 66.9738-85.7087 66.9738-78.4895C66.9738-71.1225 72.8727-65.2106 80.206-65.2106Z"/>
  </g>
  <g id="Thin-L" transform="matrix(1 0 0 1 778.286 1556)">
   <path d="M18.0309-39.7136L37.6315-20.0411C40.3191-17.3535 44.7124-17.2731 47.3111-20.532L59.6699-35.8113C60.4106-36.7847 61.7861-36.2218 61.7861-35.0791L61.7861-9.13827L39.6673-11.6482C32.0954-12.5412 29.6575-1.32516 36.8993 1.11274L62.0274 9.40837C60.8042 14.6143 65.3584 19.1516 70.4119 17.4543L78.1361 14.8556L85.8688 17.4543C90.9859 19.1516 95.54 14.6143 94.3169 9.40837L119.445 1.11274C126.767-1.32516 124.249-12.5412 116.605-11.6482L94.5581-9.13827L94.5581-35.0791C94.5581-36.2218 95.9337-36.7847 96.6744-35.8113L108.961-20.532C111.568-17.2731 116.025-17.2815 118.713-20.0411L138.241-39.7136C140.84-42.3208 140.849-46.384 138.241-48.9107C135.795-51.4291 131.571-51.5095 129.044-48.9107L114.578-34.4357L99.8529-52.483C97.4066-55.4922 93.7455-57.3672 89.7627-57.3672L66.5815-57.3672C62.5988-57.3672 58.9461-55.4922 56.4998-52.483L41.7031-34.4357L27.3-48.9107C24.7733-51.5095 20.5493-51.4291 18.0309-48.9107C15.4322-46.384 15.4406-42.3208 18.0309-39.7136ZM78.1361-64.5291C85.1366-64.5291 90.8971-70.2895 90.8971-77.3788C90.8971-84.3709 85.1366-90.1397 78.1361-90.1397C71.0553-90.1397 65.3584-84.3709 65.3584-77.3788C65.3584-70.2895 71.0553-64.5291 78.1361-64.5291Z"/>
  </g>
  <g id="Ultralight-L" transform="matrix(1 0 0 1 482.635 1556)">
   <path d="M18.0051-39.5585L37.2695-20.2092C39.9054-17.5733 44.2211-17.4929 46.781-20.6872L58.933-35.7208C59.6478-36.6813 61.0104-36.1184 61.0104-35.0015L61.0104-9.50028L39.2665-11.9843C31.8369-12.8644 29.4377-1.82939 36.5502 0.569734L61.2517 8.72315C60.0544 13.8386 64.5309 18.3241 69.481 16.6398L77.076 14.0798L84.6665 16.6398C89.706 18.3241 94.1825 13.8386 92.9852 8.72315L117.687 0.569734C124.88-1.82939 122.4-12.8644 114.885-11.9843L93.2265-9.50028L93.2265-35.0015C93.2265-36.1184 94.5891-36.6813 95.3039-35.7208L107.371-20.6872C109.926-17.4929 114.332-17.4884 116.967-20.2092L136.147-39.5585C138.707-42.1139 138.702-46.1125 136.147-48.5875C133.752-51.0671 129.593-51.1475 127.118-48.5875L112.884-34.3581L98.4178-52.108C96.0232-55.0656 92.4268-56.9018 88.5087-56.9018L65.7282-56.9018C61.8101-56.9018 58.2092-55.0656 55.8146-52.108L41.2635-34.3581L27.119-48.5875C24.644-51.1475 20.4846-51.0671 18.0051-48.5875C15.4451-46.1125 15.4406-42.1139 18.0051-39.5585ZM77.076-64.18C83.9472-64.18 89.63-69.8629 89.63-76.81C89.63-83.6856 83.9472-89.364 77.076-89.364C70.1244-89.364 64.5309-83.6856 64.5309-76.81C64.5309-69.8629 70.1244-64.18 77.076-64.18Z"/>
  </g>
  <g id="Black-M" transform="matrix(1 0 0 1 2864.9 1126)">
   <path d="M14.5382-37.8345L31.8661-20.507C34.6863-17.6867 39.397-17.5673 42.1494-21.0005L51.7076-32.761C52.2793-33.5141 52.8872-33.1351 52.8872-32.309L52.8872-12.8751L34.5821-14.9317C26.5577-15.851 23.8727-4.03574 31.6424-1.46497L52.9029 5.63567C52.4141 10.5752 56.9638 14.6 62.0126 12.9436L68.5003 10.8192L74.9935 12.9436C80.0365 14.6 84.5862 10.5752 84.0974 5.63567L105.358-1.46497C113.133-4.03574 110.443-15.851 102.419-14.9317L84.1131-12.8751L84.1131-32.309C84.1131-33.1351 84.7781-33.4 85.2927-32.761L94.8512-21.0005C97.6091-17.5673 102.314-17.687 105.134-20.507L122.462-37.8345C125.215-40.5925 125.22-44.8771 122.462-47.5728C119.886-50.3201 115.477-50.2682 112.724-47.5728L100.793-35.6931L88.5494-50.6787C86.2015-53.577 82.6281-55.4261 78.7484-55.4261L58.252-55.4261C54.3722-55.4261 50.8043-53.577 48.4564-50.6787L36.2133-35.6931L24.2762-47.5728C21.5234-50.2682 17.1142-50.3201 14.5382-47.5728C11.7857-44.8771 11.7912-40.5925 14.5382-37.8345ZM68.5003-60.4131C75.2837-60.4131 80.8251-65.9546 80.8251-72.7487C80.8251-79.5266 75.2837-85.0735 68.5003-85.0735C61.7117-85.0735 56.1645-79.5266 56.1645-72.7487C56.1645-65.9546 61.7117-60.4131 68.5003-60.4131Z"/>
  </g>
  <g id="Heavy-M" transform="matrix(1 0 0 1 2569.19 1126)">
   <path d="M14.4253-38.1677L31.525-21.0657C34.2137-18.3769 38.68-18.271 41.29-21.5432L51.0229-33.5246C51.6164-34.2887 52.3431-33.8962 52.3431-33.0347L52.3431-13.0815L34.0043-15.133C26.3718-16.0092 23.8427-4.78224 31.2096-2.34041L52.3991 4.71862C51.7807 9.51894 56.1534 13.4662 61.02 11.8797L67.4956 9.74947L73.9877 11.8797C78.8401 13.4662 83.2128 9.51894 82.5944 4.71862L103.784-2.34041C111.169-4.78224 108.622-16.0092 100.987-15.133L82.6505-13.0815L82.6505-33.0347C82.6505-33.8962 83.4207-34.2015 83.9706-33.5246L93.7012-21.5432C96.3277-18.271 100.78-18.3747 103.469-21.0657L120.566-38.1677C123.176-40.7942 123.192-44.8639 120.566-47.428C118.108-50.0194 113.913-49.9945 111.306-47.428L99.3529-35.5026L87.0933-50.4968C84.8095-53.3039 81.3567-55.0915 77.611-55.0915L57.3825-55.0915C53.6368-55.0915 50.2004-53.3039 47.9167-50.4968L35.6547-35.5026L23.6879-47.428C21.0801-49.9945 16.8858-50.0194 14.4253-47.428C11.8152-44.8639 11.8316-40.7942 14.4253-38.1677ZM67.4956-60.115C74.0648-60.115 79.4157-65.4659 79.4157-72.0702C79.4157-78.6231 74.0648-83.9904 67.4956-83.9904C60.9077-83.9904 55.5427-78.6231 55.5427-72.0702C55.5427-65.4659 60.9077-60.115 67.4956-60.115Z"/>
  </g>
  <g id="Bold-M" transform="matrix(1 0 0 1 2273.61 1126)">
   <path d="M14.299-38.5403L31.1434-21.6908C33.6851-19.1491 37.8779-19.0582 40.3286-22.1503L50.2569-34.3789C50.8749-35.1552 51.7343-34.7476 51.7343-33.8466L51.7343-13.3123L33.3579-15.3581C26.1639-16.1862 23.8092-5.61732 30.7253-3.31973L51.8356 3.69277C51.0722 8.3374 55.2468 12.1979 59.9096 10.6896L66.3718 8.55287L72.8625 10.6896C77.5018 12.1979 81.6765 8.3374 80.9131 3.69277L102.023-3.31973C108.973-5.61732 106.585-16.1862 99.3856-15.3581L81.0143-13.3123L81.0143-33.8466C81.0143-34.7476 81.9023-35.0981 82.4917-34.3789L92.4149-22.1503C94.8942-19.0582 99.0635-19.144 101.605-21.6908L118.445-38.5403C120.895-41.0197 120.924-44.849 118.445-47.2661C116.118-49.6831 112.164-49.6883 109.719-47.2661L97.7422-35.2894L85.4644-50.2933C83.2524-52.9985 79.9344-54.7172 76.3387-54.7172L56.4099-54.7172C52.8142-54.7172 49.5249-52.9985 47.3129-50.2933L35.0299-35.2894L23.0298-47.2661C20.5842-49.6883 16.6303-49.6831 14.299-47.2661C11.8482-44.849 11.8769-41.0197 14.299-38.5403ZM66.3718-59.7816C72.7013-59.7816 77.8391-64.9193 77.8391-71.3113C77.8391-77.6123 72.7013-82.7787 66.3718-82.7787C60.0084-82.7787 54.8471-77.6123 54.8471-71.3113C54.8471-64.9193 60.0084-59.7816 66.3718-59.7816Z"/>
  </g>
  <g id="Semibold-M" transform="matrix(1 0 0 1 1977.67 1126)">
   <path d="M14.2119-38.7973L30.8804-22.1217C33.3206-19.6814 37.325-19.6009 39.6659-22.5689L49.7289-34.9678C50.3637-35.7525 51.3146-35.3345 51.3146-34.4063L51.3146-13.4714L32.9123-15.5132C26.0205-16.3083 23.786-6.19301 30.3915-3.99486L51.4471 2.98556C50.5837 7.52286 54.6218 11.3235 59.1442 9.86912L65.597 7.72793L72.0868 9.86912C76.5792 11.3235 80.6173 7.52286 79.7539 2.98556L100.809-3.99486C107.459-6.19301 105.181-16.3083 98.2817-15.5132L79.8864-13.4714L79.8864-34.4063C79.8864-35.3345 80.8555-35.7162 81.4722-34.9678L91.5281-22.5689C93.906-19.6009 97.8804-19.6743 100.321-22.1217L116.982-38.7973C119.323-41.1752 119.36-44.8388 116.982-47.1544C114.747-49.4512 110.959-49.4772 108.625-47.1544L96.6318-35.1425L84.3415-50.153C82.1789-52.788 78.9539-54.4592 75.4616-54.4592L55.7394-54.4592C52.2471-54.4592 49.0592-52.788 46.8966-50.153L34.5992-35.1425L22.5762-47.1544C20.2424-49.4772 16.4542-49.4512 14.2119-47.1544C11.871-44.8388 11.908-41.1752 14.2119-38.7973ZM65.597-59.5517C71.7614-59.5517 76.7522-64.5425 76.7522-70.7881C76.7522-76.9155 71.7614-81.9434 65.597-81.9434C59.3884-81.9434 54.3676-76.9155 54.3676-70.7881C54.3676-64.5425 59.3884-59.5517 65.597-59.5517Z"/>
  </g>
  <g id="Medium-M" transform="matrix(1 0 0 1 1681.55 1126)">
   <path d="M14.1459-38.9921L30.6809-22.4484C33.0443-20.085 36.9057-20.0124 39.1633-22.8862L49.3285-35.4143C49.9761-36.2054 50.9964-35.7795 50.9964-34.8307L50.9964-13.5921L32.5744-15.6309C25.9118-16.4008 23.7685-6.62952 30.1384-4.50678L51.1525 2.44932C50.2133 6.90524 54.1479 10.6605 58.5638 9.24702L65.0095 7.10243L71.4986 9.24702C75.8796 10.6605 79.8143 6.90524 78.8751 2.44932L99.8891-4.50678C106.311-6.62952 104.116-16.4008 97.4446-15.6309L79.0311-13.5921L79.0311-34.8307C79.0311-35.7795 80.0618-36.1848 80.6991-35.4143L90.8557-22.8862C93.1567-20.0124 96.9833-20.0764 99.3466-22.4484L115.873-38.9921C118.131-41.2931 118.174-44.831 115.873-47.0698C113.707-49.2754 110.044-49.3171 107.795-47.0698L95.7899-35.0311L83.49-50.0466C81.3649-52.6283 78.2105-54.2635 74.7966-54.2635L55.231-54.2635C51.8171-54.2635 48.7061-52.6283 46.581-50.0466L34.2725-35.0311L22.2322-47.0698C19.9832-49.3171 16.3207-49.2754 14.1459-47.0698C11.8882-44.831 11.9317-41.2931 14.1459-38.9921ZM65.0095-59.3774C71.0486-59.3774 75.9281-64.2568 75.9281-70.3914C75.9281-76.3871 71.0486-81.31 65.0095-81.31C58.9183-81.31 54.0041-76.3871 54.0041-70.3914C54.0041-64.2568 58.9183-59.3774 65.0095-59.3774Z"/>
  </g>
  <g id="Regular-M" transform="matrix(1 0 0 1 1385.6 1126)">
   <path d="M14.0598-39.2461L30.4208-22.8746C32.6839-20.6115 36.3588-20.5492 38.5078-23.3001L48.8062-35.9967C49.4705-36.7962 50.5814-36.36 50.5814-35.3843L50.5814-13.7494L32.1337-15.7844C25.77-16.5215 23.7456-7.19889 29.8083-5.17449L50.7683 1.74988C49.7302 6.09965 53.5298 9.79573 57.8067 8.43558L64.2432 6.28657L70.7314 8.43558C74.9672 9.79573 78.7668 6.09965 77.7287 1.74988L98.6887-5.17449C104.814-7.19889 102.727-16.5215 96.3528-15.7844L77.9156-13.7494L77.9156-35.3843C77.9156-36.36 79.0265-36.7962 79.6908-35.9967L89.9786-23.3001C92.1794-20.5492 95.8131-20.6009 98.0762-22.8746L114.427-39.2461C116.576-41.4469 116.627-44.8209 114.427-46.9594C112.351-49.0461 108.852-49.1084 106.713-46.9594L94.6916-34.8858L82.3794-49.9078C80.3033-52.4201 77.2408-54.0083 73.9291-54.0083L54.5679-54.0083C51.2562-54.0083 48.2455-52.4201 46.1693-49.9078L33.8465-34.8858L21.7835-46.9594C19.6451-49.1084 16.1465-49.0461 14.0598-46.9594C11.9107-44.8209 11.9625-41.4469 14.0598-39.2461ZM64.2432-59.15C70.119-59.15 74.8531-63.8841 74.8531-69.8739C74.8531-75.6979 70.119-80.4838 64.2432-80.4838C58.3052-80.4838 53.5298-75.6979 53.5298-69.8739C53.5298-63.8841 58.3052-59.15 64.2432-59.15Z"/>
  </g>
  <g id="Light-M" transform="matrix(1 0 0 1 1090.29 1126)">
   <path d="M14.0255-39.0408L29.9417-23.097C32.1363-20.9024 35.7086-20.8401 37.8063-23.5055L47.8309-35.877C48.4609-36.6593 49.5547-36.2231 49.5547-35.2816L49.5547-14.2285L31.6032-16.2293C25.4278-16.9493 23.4547-7.86622 29.3463-5.89315L49.7416 0.842997C48.7378 5.073 52.4347 8.70063 56.5747 7.35759L62.8401 5.25991L69.1401 7.35759C73.2732 8.70063 76.9701 5.073 75.9662 0.842997L96.3616-5.89315C102.315-7.86622 100.28-16.9493 94.077-16.2293L76.1532-14.2285L76.1532-35.2816C76.1532-36.2231 77.247-36.6593 77.877-35.877L87.8739-23.5055C90.0063-20.8401 93.5716-20.8747 95.7662-23.097L111.655-39.0408C113.752-41.1731 113.787-44.4616 111.655-46.5316C109.647-48.567 106.234-48.6293 104.164-46.5316L92.4501-34.7831L80.4801-49.4116C78.4724-51.8554 75.4955-53.3924 72.2693-53.3924L53.4386-53.3924C50.2124-53.3924 47.2701-51.8554 45.2624-49.4116L33.2648-34.7831L21.544-46.5316C19.474-48.6293 16.0609-48.567 14.0255-46.5316C11.9279-44.4616 11.9625-41.1731 14.0255-39.0408ZM62.8401-58.688C68.5447-58.688 73.1762-63.3195 73.1762-69.1211C73.1762-74.791 68.5447-79.4572 62.8401-79.4572C57.0732-79.4572 52.4347-74.791 52.4347-69.1211C52.4347-63.3195 57.0732-58.688 62.8401-58.688Z"/>
  </g>
  <g id="Thin-M" transform="matrix(1 0 0 1 795.438 1126)">
   <path d="M13.9803-38.7692L29.308-23.3912C31.4121-21.2871 34.8486-21.2248 36.8784-23.777L46.5409-35.7186C47.1257-36.4782 48.1969-36.0421 48.1969-35.1458L48.1969-14.8622L30.9017-16.8177C24.9752-17.515 23.07-8.74881 28.7353-6.84364L48.3838-0.356424C47.4252 3.71516 50.9864 7.25227 54.9453 5.93186L60.9844 3.90207L67.0355 5.93186C71.0328 7.25227 74.5939 3.71516 73.6353-0.356424L93.2838-6.84364C99.0114-8.74881 97.0439-17.515 91.0671-16.8177L73.8222-14.8622L73.8222-35.1458C73.8222-36.0421 74.8934-36.4782 75.4782-35.7186L85.0904-23.777C87.1322-21.2248 90.607-21.2368 92.7111-23.3912L107.989-38.7692C110.018-40.811 110.03-43.9863 107.989-45.9658C106.071-47.9333 102.771-47.9956 100.792-45.9658L89.4855-34.6474L77.9681-48.7553C76.0509-51.1086 73.1871-52.5777 70.0742-52.5777L51.9449-52.5777C48.832-52.5777 45.9802-51.1086 44.063-48.7553L32.4953-34.6474L21.2272-45.9658C19.2477-47.9956 15.9478-47.9333 13.9803-45.9658C11.9505-43.9863 11.9625-40.811 13.9803-38.7692ZM60.9844-58.077C66.4627-58.077 70.9584-62.5727 70.9584-68.1253C70.9584-73.5916 66.4627-78.0993 60.9844-78.0993C55.4438-78.0993 50.9864-73.5916 50.9864-68.1253C50.9864-62.5727 55.4438-58.077 60.9844-58.077Z"/>
  </g>
  <g id="Ultralight-M" transform="matrix(1 0 0 1 499.677 1126)">
   <path d="M13.9571-38.6301L28.9835-23.5419C31.0412-21.4842 34.4082-21.4218 36.4032-23.9161L45.8802-35.6374C46.4418-36.3855 47.5014-35.9494 47.5014-35.0763L47.5014-15.1868L30.5423-17.119C24.7434-17.8048 22.873-9.20087 28.4223-7.33047L47.6883-0.970762C46.7529 3.01968 50.2445 6.51043 54.1108 5.20161L60.0339 3.2066L65.9575 5.20161C69.8852 6.51043 73.3768 3.01968 72.4414-0.970762L91.7074-7.33047C97.3191-9.20087 95.3864-17.8048 89.5255-17.119L72.6283-15.1868L72.6283-35.0763C72.6283-35.9494 73.6879-36.3855 74.2495-35.6374L83.6647-23.9161C85.6601-21.4218 89.0885-21.4223 91.1463-23.5419L106.111-38.6301C108.106-40.6256 108.106-43.7429 106.111-45.676C104.24-47.6088 100.998-47.6711 99.0649-45.676L87.967-34.5778L76.6815-48.4191C74.8107-50.7261 72.0048-52.1604 68.9498-52.1604L51.1799-52.1604C48.1249-52.1604 45.3195-50.7261 43.4487-48.4191L32.1012-34.5778L21.0649-45.676C19.1317-47.6711 15.8898-47.6088 13.9571-45.676C11.9621-43.7429 11.9625-40.6256 13.9571-38.6301ZM60.0339-57.764C65.3963-57.764 69.8225-62.1902 69.8225-67.6153C69.8225-72.9773 65.3963-77.4039 60.0339-77.4039C54.6092-77.4039 50.2445-72.9773 50.2445-67.6153C50.2445-62.1902 54.6092-57.764 60.0339-57.764Z"/>
  </g>
  <g id="Black-S" transform="matrix(1 0 0 1 2879.49 696)">
   <path d="M11.4258-37.1582L25.0488-23.5352C27.2949-21.2891 31.0547-21.1914 33.252-23.9258L40.6738-33.0566C41.1133-33.6426 41.5527-33.3496 41.5527-32.7148L41.5527-17.6758L27.2461-19.2871C20.8496-20.0195 18.7012-10.5957 24.9023-8.54492L41.5527-2.97852C41.2109 0.927734 44.8242 4.10156 48.8281 2.7832L53.9062 1.12305L58.9844 2.7832C62.9883 4.10156 66.6016 0.927734 66.2598-2.97852L82.9102-8.54492C89.1113-10.5957 86.9629-20.0195 80.5664-19.2871L66.2598-17.6758L66.2598-32.7148C66.2598-33.3496 66.748-33.5449 67.1387-33.0566L74.5605-23.9258C76.7578-21.1914 80.5176-21.2891 82.7637-23.5352L96.3867-37.1582C98.584-39.3555 98.584-42.7734 96.3867-44.9219C94.3359-47.1191 90.8203-47.0703 88.623-44.9219L79.2969-35.6445L69.7266-47.3633C67.8711-49.6582 65.0391-51.123 61.9629-51.123L45.8496-51.123C42.7734-51.123 39.9414-49.6582 38.0859-47.3633L28.5156-35.6445L19.1895-44.9219C16.9922-47.0703 13.4766-47.1191 11.4258-44.9219C9.22852-42.7734 9.22852-39.3555 11.4258-37.1582ZM53.9062-55.0293C59.2773-55.0293 63.6719-59.4238 63.6719-64.7949C63.6719-70.166 59.2773-74.5605 53.9062-74.5605C48.5352-74.5605 44.1406-70.166 44.1406-64.7949C44.1406-59.4238 48.5352-55.0293 53.9062-55.0293Z"/>
  </g>
  <g id="Heavy-S" transform="matrix(1 0 0 1 2583.46 696)">
   <path d="M11.3336-37.4694L24.8183-23.9846C26.9607-21.8422 30.5246-21.7561 32.6066-24.3637L40.2128-33.7251C40.6754-34.3225 41.2185-34.018 41.2185-33.3487L41.2185-17.791L26.8197-19.4024C20.7344-20.1002 18.7127-11.1489 24.5912-9.20182L41.2531-3.64693C40.7961 0.155595 44.271 3.2718 48.1367 2.01106L53.2263 0.339383L58.3275 2.01106C62.1816 3.2718 65.6566 0.155595 65.1995-3.64693L81.8614-9.20182C87.7514-11.1489 85.7182-20.1002 79.6329-19.4024L65.2341-17.791L65.2341-33.3487C65.2341-34.018 65.8146-34.2479 66.2398-33.7251L73.846-24.3637C75.9396-21.7561 79.4919-21.8422 81.6343-23.9846L95.119-37.4694C97.201-39.5629 97.2126-42.808 95.119-44.8527C93.1604-46.9232 89.8177-46.8974 87.7357-44.8527L78.3519-35.4947L68.7239-47.2711C66.9146-49.4969 64.1747-50.9156 61.2023-50.9156L45.2503-50.9156C42.2779-50.9156 39.5496-49.4969 37.7402-47.2711L28.1123-35.4947L18.717-44.8527C16.6349-46.8974 13.2922-46.9232 11.3336-44.8527C9.25156-42.808 9.26309-39.5629 11.3336-37.4694ZM53.2263-54.8334C58.4361-54.8334 62.6808-59.0781 62.6808-64.3109C62.6808-69.5091 58.4361-73.7654 53.2263-73.7654C48.005-73.7654 43.7488-69.5091 43.7488-64.3109C43.7488-59.0781 48.005-54.8334 53.2263-54.8334Z"/>
  </g>
  <g id="Bold-S" transform="matrix(1 0 0 1 2287.51 696)">
   <path d="M11.2305-37.8174L24.5605-24.4873C26.5869-22.4609 29.9316-22.3877 31.8848-24.8535L39.6973-34.4727C40.1855-35.083 40.8447-34.7656 40.8447-34.0576L40.8447-17.9199L26.3428-19.5312C20.6055-20.1904 18.7256-11.7676 24.2432-9.93652L40.918-4.39453C40.332-0.708008 43.6523 2.34375 47.3633 1.14746L52.4658-0.537109L57.5928 1.14746C61.2793 2.34375 64.5996-0.708008 64.0137-4.39453L80.6885-9.93652C86.2305-11.7676 84.3262-20.1904 78.5889-19.5312L64.0869-17.9199L64.0869-34.0576C64.0869-34.7656 64.7705-35.0342 65.2344-34.4727L73.0469-24.8535C75.0244-22.3877 78.3447-22.4609 80.3711-24.4873L93.7012-37.8174C95.6543-39.7949 95.6787-42.8467 93.7012-44.7754C91.8457-46.7041 88.6963-46.7041 86.7432-44.7754L77.2949-35.3271L67.6025-47.168C65.8447-49.3164 63.208-50.6836 60.3516-50.6836L44.5801-50.6836C41.7236-50.6836 39.1113-49.3164 37.3535-47.168L27.6611-35.3271L18.1885-44.7754C16.2354-46.7041 13.0859-46.7041 11.2305-44.7754C9.27734-42.8467 9.30176-39.7949 11.2305-37.8174ZM52.4658-54.6143C57.4951-54.6143 61.5723-58.6914 61.5723-63.7695C61.5723-68.7744 57.4951-72.876 52.4658-72.876C47.4121-72.876 43.3105-68.7744 43.3105-63.7695C43.3105-58.6914 47.4121-54.6143 52.4658-54.6143Z"/>
  </g>
  <g id="Semibold-S" transform="matrix(1 0 0 1 1991.33 696)">
   <path d="M11.1594-38.0573L24.3828-24.8339C26.3292-22.8875 29.5229-22.8231 31.3871-25.1912L39.3418-34.9881C39.8479-35.6073 40.587-35.2811 40.587-34.5464L40.587-18.0088L26.014-19.6201C20.5166-20.2526 18.7345-12.1941 24.0032-10.4431L40.6869-4.90996C40.0121-1.30342 43.2258 1.70391 46.8301 0.552051L51.9415-1.14141L57.0862 0.552051C60.6572 1.70391 63.8709-1.30342 63.1961-4.90996L79.8798-10.4431C85.1818-12.1941 83.3664-20.2526 77.869-19.6201L63.296-18.0088L63.296-34.5464C63.296-35.2811 64.0507-35.5763 64.5412-34.9881L72.4959-25.1912C74.3935-22.8231 77.5538-22.8875 79.5002-24.8339L92.7236-38.0573C94.5879-39.9549 94.6212-42.8733 92.7236-44.7221C90.9393-46.553 87.9231-46.5708 86.0589-44.7221L76.5662-35.2116L66.8294-47.0969C65.1071-49.192 62.5415-50.5236 59.765-50.5236L44.118-50.5236C41.3415-50.5236 38.8092-49.192 37.0869-47.0969L27.3501-35.2116L17.8241-44.7221C15.9599-46.5708 12.9437-46.553 11.1594-44.7221C9.29512-42.8733 9.32842-39.9549 11.1594-38.0573ZM51.9415-54.4632C56.8464-54.4632 60.808-58.4248 60.808-63.3963C60.808-68.2679 56.8464-72.2628 51.9415-72.2628C47.0033-72.2628 43.0084-68.2679 43.0084-63.3963C43.0084-58.4248 47.0033-54.4632 51.9415-54.4632Z"/>
  </g>
  <g id="Medium-S" transform="matrix(1 0 0 1 1695.01 696)">
   <path d="M11.1055-38.2393L24.248-25.0967C26.1338-23.2109 29.2129-23.1533 31.0098-25.4473L39.0723-35.3789C39.5918-36.0049 40.3916-35.6719 40.3916-34.917L40.3916-18.0762L25.7646-19.6875C20.4492-20.2998 18.7412-12.5176 23.8213-10.8271L40.5117-5.30078C39.7695-1.75488 42.9023 1.21875 46.4258 0.100586L51.5439-1.59961L56.7021 0.100586C60.1855 1.21875 63.3184-1.75488 62.5762-5.30078L79.2666-10.8271C84.3867-12.5176 82.6387-20.2998 77.3232-19.6875L62.6963-18.0762L62.6963-34.917C62.6963-35.6719 63.5049-35.9873 64.0156-35.3789L72.0781-25.4473C73.915-23.1533 76.9541-23.2109 78.8398-25.0967L91.9824-38.2393C93.7793-40.0762 93.8193-42.8936 91.9824-44.6816C90.252-46.4385 87.3369-46.4697 85.54-44.6816L76.0137-35.124L66.2432-47.043C64.5479-49.0977 62.0361-50.4023 59.3203-50.4023L43.7676-50.4023C41.0518-50.4023 38.5801-49.0977 36.8848-47.043L27.1143-35.124L17.5479-44.6816C15.751-46.4697 12.8359-46.4385 11.1055-44.6816C9.30859-42.8936 9.34863-40.0762 11.1055-38.2393ZM51.5439-54.3486C56.3545-54.3486 60.2285-58.2227 60.2285-63.1133C60.2285-67.8838 56.3545-71.7979 51.5439-71.7979C46.6934-71.7979 42.7793-67.8838 42.7793-63.1133C42.7793-58.2227 46.6934-54.3486 51.5439-54.3486Z"/>
  </g>
  <g id="Regular-S" transform="matrix(1 0 0 1 1398.82 696)">
   <path d="M11.0352-38.4766L24.0723-25.4395C25.8789-23.6328 28.8086-23.584 30.5176-25.7812L38.7207-35.8887C39.2578-36.5234 40.1367-36.1816 40.1367-35.4004L40.1367-18.1641L25.4395-19.7754C20.3613-20.3613 18.75-12.9395 23.584-11.3281L40.2832-5.81055C39.4531-2.34375 42.4805 0.585938 45.8984-0.488281L51.0254-2.19727L56.2012-0.488281C59.5703 0.585938 62.5977-2.34375 61.7676-5.81055L78.4668-11.3281C83.3496-12.9395 81.6895-20.3613 76.6113-19.7754L61.9141-18.1641L61.9141-35.4004C61.9141-36.1816 62.793-36.5234 63.3301-35.8887L71.5332-25.7812C73.291-23.584 76.1719-23.6328 77.9785-25.4395L91.0156-38.4766C92.7246-40.2344 92.7734-42.9199 91.0156-44.6289C89.3555-46.2891 86.5723-46.3379 84.8633-44.6289L75.293-35.0098L65.4785-46.9727C63.8184-48.9746 61.377-50.2441 58.7402-50.2441L43.3105-50.2441C40.6738-50.2441 38.2812-48.9746 36.6211-46.9727L26.8066-35.0098L17.1875-44.6289C15.4785-46.3379 12.6953-46.2891 11.0352-44.6289C9.32617-42.9199 9.375-40.2344 11.0352-38.4766ZM51.0254-54.1992C55.7129-54.1992 59.4727-57.959 59.4727-62.7441C59.4727-67.3828 55.7129-71.1914 51.0254-71.1914C46.2891-71.1914 42.4805-67.3828 42.4805-62.7441C42.4805-57.959 46.2891-54.1992 51.0254-54.1992Z"/>
  </g>
  <g id="Light-S" transform="matrix(1 0 0 1 1103.35 696)">
   <path d="M11.0049-38.2949L23.6484-25.6362C25.3945-23.8901 28.2334-23.8413 29.897-25.9629L37.8579-35.7827C38.3648-36.4023 39.2285-36.0605 39.2285-35.3096L39.2285-18.5879L24.9702-20.1689C20.0586-20.7397 18.4927-13.5298 23.1753-11.9639L39.375-6.61279C38.5752-3.25195 41.5117-0.382805 44.8086-1.44189L49.7842-3.10546L54.7935-1.44189C58.0718-0.382805 61.0083-3.25195 60.2085-6.61279L76.4082-11.9639C81.1397-13.5298 79.5249-20.7397 74.5982-20.1689L60.355-18.5879L60.355-35.3096C60.355-36.0605 61.2188-36.4023 61.7256-35.7827L69.6714-25.9629C71.3687-23.8413 74.189-23.875 75.9351-25.6362L88.5635-38.2949C90.2271-39.9922 90.2608-42.6021 88.5635-44.2505C86.9639-45.8652 84.2564-45.9141 82.6079-44.2505L73.3101-34.9189L63.7984-46.5337C62.1987-48.4751 59.833-49.6992 57.272-49.6992L42.3115-49.6992C39.7505-49.6992 37.4185-48.4751 35.8189-46.5337L26.292-34.9189L16.9756-44.2505C15.3271-45.9141 12.6196-45.8652 11.0049-44.2505C9.34131-42.6021 9.375-39.9922 11.0049-38.2949ZM49.7842-53.7905C54.3203-53.7905 57.9893-57.4595 57.9893-62.0781C57.9893-66.5806 54.3203-70.2832 49.7842-70.2832C45.1992-70.2832 41.5117-66.5806 41.5117-62.0781C41.5117-57.4595 45.1992-53.7905 49.7842-53.7905Z"/>
  </g>
  <g id="Thin-S" transform="matrix(1 0 0 1 808.28 696)">
   <path d="M10.9648-38.0547L23.0879-25.8965C24.7539-24.2305 27.4727-24.1816 29.0762-26.2031L36.7168-35.6426C37.1836-36.2422 38.0274-35.9004 38.0274-35.1895L38.0274-19.1484L24.3496-20.6894C19.6582-21.2402 18.1523-14.3105 22.6348-12.8047L38.1738-7.67381C37.4141-4.45311 40.2305-1.66404 43.3672-2.70311L48.1426-4.30662L52.9317-2.70311C56.0899-1.66404 58.9063-4.45311 58.1465-7.67381L73.6856-12.8047C78.2168-14.3105 76.6621-21.2402 71.9356-20.6894L58.293-19.1484L58.293-35.1895C58.293-35.9004 59.1367-36.2422 59.6035-35.6426L67.209-26.2031C68.8262-24.1816 71.5664-24.1953 73.2325-25.8965L85.3204-38.0547C86.9239-39.6719 86.9375-42.1816 85.3204-43.75C83.8008-45.3047 81.1934-45.3535 79.625-43.75L70.6875-34.7988L61.5762-45.9531C60.0567-47.8145 57.791-48.9785 55.3301-48.9785L40.9903-48.9785C38.5293-48.9785 36.2774-47.8145 34.7578-45.9531L25.6113-34.7988L16.6953-43.75C15.127-45.3535 12.5195-45.3047 10.9648-43.75C9.36133-42.1816 9.375-39.6719 10.9648-38.0547ZM48.1426-53.25C52.4785-53.25 56.0274-56.7988 56.0274-61.1973C56.0274-65.5195 52.4785-69.082 48.1426-69.082C43.7578-69.082 40.2305-65.5195 40.2305-61.1973C40.2305-56.7988 43.7578-53.25 48.1426-53.25Z"/>
  </g>
  <g id="Ultralight-S" transform="matrix(1 0 0 1 512.409 696)">
   <path d="M10.9443-37.9316L22.8008-26.0298C24.4258-24.4048 27.083-24.356 28.6558-26.3262L36.1323-35.5708C36.5786-36.1602 37.4121-35.8184 37.4121-35.1279L37.4121-19.4355L24.0317-20.956C19.4531-21.4966 17.978-14.7104 22.3579-13.2353L37.5586-8.21727C36.8194-5.06834 39.5742-2.32029 42.6289-3.3491L47.3018-4.92185L51.9781-3.3491C55.0747-2.32029 57.8296-5.06834 57.0904-8.21727L72.2911-13.2353C76.7198-14.7104 75.1959-21.4966 70.5718-20.956L57.2369-19.4355L57.2369-35.1279C57.2369-35.8184 58.0703-36.1602 58.5166-35.5708L65.9478-26.3262C67.524-24.356 70.2232-24.3594 71.8482-26.0298L83.6592-37.9316C85.232-39.5078 85.2354-41.9663 83.6592-43.4937C82.1807-45.0176 79.6246-45.0664 78.0972-43.4937L69.3443-34.7373L60.438-45.6558C58.9595-47.4761 56.7452-48.6094 54.3355-48.6094L40.3135-48.6094C37.9038-48.6094 35.6929-47.4761 34.2144-45.6558L25.2627-34.7373L16.5518-43.4937C15.0244-45.0664 12.4683-45.0176 10.9443-43.4937C9.37158-41.9663 9.375-39.5078 10.9443-37.9316ZM47.3018-52.9732C51.5352-52.9732 55.0225-56.4605 55.0225-60.7461C55.0225-64.9761 51.5352-68.4668 47.3018-68.4668C43.0196-68.4668 39.5742-64.9761 39.5742-60.7461C39.5742-56.4605 43.0196-52.9732 47.3018-52.9732Z"/>
  </g>
 </g>
</svg>
