<?xml version="1.0" encoding="UTF-8"?>
<!--Generator: Apple Native CoreSVG 175.5-->
<!DOCTYPE svg
PUBLIC "-//W3C//DTD SVG 1.1//EN"
       "http://www.w3.org/Graphics/SVG/1.1/DTD/svg11.dtd">
<svg version="1.1" xmlns="http://www.w3.org/2000/svg" xmlns:xlink="http://www.w3.org/1999/xlink" width="3300" height="2200">
 <!--glyph: "uni101519.medium", point size: 100.0, font version: "18.0d12e2", template writer version: "101"-->
 <g id="Notes">
  <rect height="2200" id="artboard" style="fill:white;opacity:1" width="3300" x="0" y="0"/>
  <line style="fill:none;stroke:black;opacity:1;stroke-width:0.5;" x1="263" x2="3036" y1="292" y2="292"/>
  <text style="stroke:none;fill:black;font-family:sans-serif;font-size:13;font-weight:bold;" transform="matrix(1 0 0 1 263 322)">Weight/Scale Variations</text>
  <text style="stroke:none;fill:black;font-family:sans-serif;font-size:13;text-anchor:middle;" transform="matrix(1 0 0 1 559.711 322)">Ultralight</text>
  <text style="stroke:none;fill:black;font-family:sans-serif;font-size:13;text-anchor:middle;" transform="matrix(1 0 0 1 856.422 322)">Thin</text>
  <text style="stroke:none;fill:black;font-family:sans-serif;font-size:13;text-anchor:middle;" transform="matrix(1 0 0 1 1153.13 322)">Light</text>
  <text style="stroke:none;fill:black;font-family:sans-serif;font-size:13;text-anchor:middle;" transform="matrix(1 0 0 1 1449.84 322)">Regular</text>
  <text style="stroke:none;fill:black;font-family:sans-serif;font-size:13;text-anchor:middle;" transform="matrix(1 0 0 1 1746.56 322)">Medium</text>
  <text style="stroke:none;fill:black;font-family:sans-serif;font-size:13;text-anchor:middle;" transform="matrix(1 0 0 1 2043.27 322)">Semibold</text>
  <text style="stroke:none;fill:black;font-family:sans-serif;font-size:13;text-anchor:middle;" transform="matrix(1 0 0 1 2339.98 322)">Bold</text>
  <text style="stroke:none;fill:black;font-family:sans-serif;font-size:13;text-anchor:middle;" transform="matrix(1 0 0 1 2636.69 322)">Heavy</text>
  <text style="stroke:none;fill:black;font-family:sans-serif;font-size:13;text-anchor:middle;" transform="matrix(1 0 0 1 2933.4 322)">Black</text>
  <line style="fill:none;stroke:black;opacity:1;stroke-width:0.5;" x1="263" x2="3036" y1="1903" y2="1903"/>
  <g transform="matrix(1 0 0 1 263 1933)">
   <path d="M9.24805 0.830078C13.5547 0.830078 17.1387-2.74414 17.1387-7.05078C17.1387-11.3574 13.5449-14.9316 9.23828-14.9316C4.94141-14.9316 1.36719-11.3574 1.36719-7.05078C1.36719-2.74414 4.95117 0.830078 9.24805 0.830078ZM9.24805-0.654297C5.70312-0.654297 2.87109-3.49609 2.87109-7.05078C2.87109-10.6055 5.69336-13.4473 9.23828-13.4473C12.793-13.4473 15.6445-10.6055 15.6445-7.05078C15.6445-3.49609 12.8027-0.654297 9.24805-0.654297ZM5.6543-7.05078C5.6543-6.62109 5.95703-6.32812 6.40625-6.32812L8.50586-6.32812L8.50586-4.20898C8.50586-3.76953 8.79883-3.4668 9.22852-3.4668C9.67773-3.4668 9.9707-3.76953 9.9707-4.20898L9.9707-6.32812L12.0898-6.32812C12.5293-6.32812 12.832-6.62109 12.832-7.05078C12.832-7.49023 12.5293-7.79297 12.0898-7.79297L9.9707-7.79297L9.9707-9.90234C9.9707-10.3516 9.67773-10.6543 9.22852-10.6543C8.79883-10.6543 8.50586-10.3516 8.50586-9.90234L8.50586-7.79297L6.40625-7.79297C5.95703-7.79297 5.6543-7.49023 5.6543-7.05078Z"/>
  </g>
  <g transform="matrix(1 0 0 1 281.867 1933)">
   <path d="M11.709 2.91016C17.1582 2.91016 21.6699-1.61133 21.6699-7.05078C21.6699-12.5 17.1484-17.0117 11.6992-17.0117C6.25977-17.0117 1.74805-12.5 1.74805-7.05078C1.74805-1.61133 6.26953 2.91016 11.709 2.91016ZM11.709 1.25C7.09961 1.25 3.41797-2.44141 3.41797-7.05078C3.41797-11.6602 7.08984-15.3516 11.6992-15.3516C16.3086-15.3516 20.0098-11.6602 20.0098-7.05078C20.0098-2.44141 16.3184 1.25 11.709 1.25ZM7.17773-7.05078C7.17773-6.57227 7.50977-6.25 8.00781-6.25L10.8789-6.25L10.8789-3.36914C10.8789-2.88086 11.2109-2.53906 11.6895-2.53906C12.1777-2.53906 12.5195-2.87109 12.5195-3.36914L12.5195-6.25L15.4004-6.25C15.8887-6.25 16.2305-6.57227 16.2305-7.05078C16.2305-7.53906 15.8887-7.88086 15.4004-7.88086L12.5195-7.88086L12.5195-10.752C12.5195-11.25 12.1777-11.5918 11.6895-11.5918C11.2109-11.5918 10.8789-11.25 10.8789-10.752L10.8789-7.88086L8.00781-7.88086C7.50977-7.88086 7.17773-7.53906 7.17773-7.05078Z"/>
  </g>
  <g transform="matrix(1 0 0 1 305.646 1933)">
   <path d="M14.9707 5.66406C21.9336 5.66406 27.6953-0.0976562 27.6953-7.05078C27.6953-14.0137 21.9238-19.7754 14.9609-19.7754C8.00781-19.7754 2.25586-14.0137 2.25586-7.05078C2.25586-0.0976562 8.01758 5.66406 14.9707 5.66406ZM14.9707 3.84766C8.93555 3.84766 4.08203-1.01562 4.08203-7.05078C4.08203-13.0957 8.92578-17.9492 14.9609-17.9492C21.0059-17.9492 25.8691-13.0957 25.8691-7.05078C25.8691-1.01562 21.0156 3.84766 14.9707 3.84766ZM9.19922-7.05078C9.19922-6.5332 9.57031-6.17188 10.1172-6.17188L14.0625-6.17188L14.0625-2.2168C14.0625-1.67969 14.4336-1.29883 14.9512-1.29883C15.4883-1.29883 15.8594-1.66992 15.8594-2.2168L15.8594-6.17188L19.8145-6.17188C20.3516-6.17188 20.7324-6.5332 20.7324-7.05078C20.7324-7.59766 20.3613-7.96875 19.8145-7.96875L15.8594-7.96875L15.8594-11.9141C15.8594-12.4609 15.4883-12.8418 14.9512-12.8418C14.4336-12.8418 14.0625-12.4609 14.0625-11.9141L14.0625-7.96875L10.1172-7.96875C9.57031-7.96875 9.19922-7.59766 9.19922-7.05078Z"/>
  </g>
  <text style="stroke:none;fill:black;font-family:sans-serif;font-size:13;font-weight:bold;" transform="matrix(1 0 0 1 263 1953)">Design Variations</text>
  <text style="stroke:none;fill:black;font-family:sans-serif;font-size:13;" transform="matrix(1 0 0 1 263 1971)">Symbols are supported in up to nine weights and three scales.</text>
  <text style="stroke:none;fill:black;font-family:sans-serif;font-size:13;" transform="matrix(1 0 0 1 263 1989)">For optimal layout with text and other symbols, vertically align</text>
  <text style="stroke:none;fill:black;font-family:sans-serif;font-size:13;" transform="matrix(1 0 0 1 263 2007)">symbols with the adjacent text.</text>
  <line style="fill:none;stroke:#00AEEF;stroke-width:0.5;opacity:1.0;" x1="776" x2="776" y1="1919" y2="1933"/>
  <g transform="matrix(1 0 0 1 776 1933)">
   <path d="M3.31055 0.15625C3.82812 0.15625 4.08203-0.0390625 4.26758-0.585938L5.52734-4.0332L11.2891-4.0332L12.5488-0.585938C12.7344-0.0390625 12.9883 0.15625 13.4961 0.15625C14.0137 0.15625 14.3457-0.15625 14.3457-0.644531C14.3457-0.810547 14.3164-0.966797 14.2383-1.17188L9.6582-13.3691C9.43359-13.9648 9.0332-14.2676 8.4082-14.2676C7.80273-14.2676 7.39258-13.9746 7.17773-13.3789L2.59766-1.16211C2.51953-0.957031 2.49023-0.800781 2.49023-0.634766C2.49023-0.146484 2.80273 0.15625 3.31055 0.15625ZM6.00586-5.51758L8.37891-12.0898L8.42773-12.0898L10.8008-5.51758Z"/>
  </g>
  <line style="fill:none;stroke:#00AEEF;stroke-width:0.5;opacity:1.0;" x1="793.197" x2="793.197" y1="1919" y2="1933"/>
  <text style="stroke:none;fill:black;font-family:sans-serif;font-size:13;font-weight:bold;" transform="matrix(1 0 0 1 776 1953)">Margins</text>
  <text style="stroke:none;fill:black;font-family:sans-serif;font-size:13;" transform="matrix(1 0 0 1 776 1971)">Leading and trailing margins on the left and right side of each symbol</text>
  <text style="stroke:none;fill:black;font-family:sans-serif;font-size:13;" transform="matrix(1 0 0 1 776 1989)">can be adjusted by modifying the x-location of the margin guidelines.</text>
  <text style="stroke:none;fill:black;font-family:sans-serif;font-size:13;" transform="matrix(1 0 0 1 776 2007)">Modifications are automatically applied proportionally to all</text>
  <text style="stroke:none;fill:black;font-family:sans-serif;font-size:13;" transform="matrix(1 0 0 1 776 2025)">scales and weights.</text>
  <g transform="matrix(1 0 0 1 1289 1933)">
   <path d="M2.8418 1.86523L4.54102 3.57422C5.40039 4.44336 6.38672 4.38477 7.31445 3.35938L18.0078-8.42773L17.041-9.4043L6.42578 2.27539C6.07422 2.67578 5.74219 2.77344 5.27344 2.30469L4.10156 1.14258C3.63281 0.683594 3.74023 0.341797 4.14062-0.0195312L15.6152-10.8203L14.6387-11.7871L3.04688-0.898438C2.06055 0.0195312 1.98242 0.996094 2.8418 1.86523ZM9.25781-16.3281C8.83789-15.918 8.80859-15.3418 9.04297-14.9512C9.27734-14.5898 9.73633-14.3555 10.3809-14.5215C11.8457-14.8633 13.3691-14.9219 14.7949-13.9844L14.209-12.5293C13.8672-11.6992 14.043-11.1133 14.5801-10.5664L16.875-8.25195C17.3633-7.76367 17.7734-7.74414 18.3398-7.8418L19.4043-8.03711L20.0684-7.36328L20.0293-6.80664C19.9902-6.30859 20.1172-5.92773 20.6055-5.44922L21.3672-4.70703C21.8457-4.22852 22.4609-4.19922 22.9297-4.66797L25.8398-7.58789C26.3086-8.05664 26.2891-8.65234 25.8105-9.13086L25.0391-9.89258C24.5605-10.3711 24.1895-10.5273 23.7109-10.4883L23.1348-10.4395L22.4902-11.0742L22.7344-12.1973C22.8613-12.7637 22.7051-13.2031 22.1191-13.7891L19.9219-15.9766C16.582-19.2969 12.1484-19.2188 9.25781-16.3281ZM10.752-15.957C13.1836-17.7344 16.4746-17.4316 18.7012-15.2051L21.1328-12.793C21.3672-12.5586 21.4062-12.373 21.3379-12.0312L21.0156-10.5469L22.5195-9.0625L23.5059-9.12109C23.7598-9.13086 23.8379-9.11133 24.0332-8.91602L24.6094-8.33984L22.168-5.89844L21.5918-6.47461C21.3965-6.66992 21.3672-6.74805 21.377-7.01172L21.4453-7.98828L19.9512-9.47266L18.4277-9.21875C18.1055-9.15039 17.959-9.17969 17.7148-9.41406L15.7129-11.416C15.459-11.6504 15.4297-11.8164 15.5859-12.1875L16.4648-14.2773C14.9023-15.7324 12.8711-16.3574 10.8398-15.7617C10.6836-15.7227 10.625-15.8496 10.752-15.957Z"/>
  </g>
  <text style="stroke:none;fill:black;font-family:sans-serif;font-size:13;font-weight:bold;" transform="matrix(1 0 0 1 1289 1953)">Exporting</text>
  <text style="stroke:none;fill:black;font-family:sans-serif;font-size:13;" transform="matrix(1 0 0 1 1289 1971)">Symbols should be outlined when exporting to ensure the</text>
  <text style="stroke:none;fill:black;font-family:sans-serif;font-size:13;" transform="matrix(1 0 0 1 1289 1989)">design is preserved when submitting to Xcode.</text>
  <text id="template-version" style="stroke:none;fill:black;font-family:sans-serif;font-size:13;text-anchor:end;" transform="matrix(1 0 0 1 3036 1933)">Template v.4.0</text>
  <text style="stroke:none;fill:black;font-family:sans-serif;font-size:13;text-anchor:end;" transform="matrix(1 0 0 1 3036 1951)">Requires Xcode 14 or greater</text>
  <text id="descriptive-name" style="stroke:none;fill:black;font-family:sans-serif;font-size:13;text-anchor:end;" transform="matrix(1 0 0 1 3036 1969)">Generated from figure.badminton</text>
  <text style="stroke:none;fill:black;font-family:sans-serif;font-size:13;text-anchor:end;" transform="matrix(1 0 0 1 3036 1987)">Typeset at 100 points</text>
  <text style="stroke:none;fill:black;font-family:sans-serif;font-size:13;" transform="matrix(1 0 0 1 263 726)">Small</text>
  <text style="stroke:none;fill:black;font-family:sans-serif;font-size:13;" transform="matrix(1 0 0 1 263 1156)">Medium</text>
  <text style="stroke:none;fill:black;font-family:sans-serif;font-size:13;" transform="matrix(1 0 0 1 263 1586)">Large</text>
 </g>
 <g id="Guides">
  <g id="H-reference" style="fill:#27AAE1;stroke:none;" transform="matrix(1 0 0 1 339 696)">
   <path d="M0.993654 0L3.63775 0L29.3281-67.1323L30.0303-67.1323L30.0303-70.459L28.1226-70.459ZM11.6885-24.4799L46.9815-24.4799L46.2315-26.7285L12.4385-26.7285ZM55.1196 0L57.7637 0L30.6382-70.459L29.4326-70.459L29.4326-67.1323Z"/>
  </g>
  <line id="Baseline-S" style="fill:none;stroke:#27AAE1;opacity:1;stroke-width:0.5;" x1="263" x2="3036" y1="696" y2="696"/>
  <line id="Capline-S" style="fill:none;stroke:#27AAE1;opacity:1;stroke-width:0.5;" x1="263" x2="3036" y1="625.541" y2="625.541"/>
  <g id="H-reference" style="fill:#27AAE1;stroke:none;" transform="matrix(1 0 0 1 339 1126)">
   <path d="M0.993654 0L3.63775 0L29.3281-67.1323L30.0303-67.1323L30.0303-70.459L28.1226-70.459ZM11.6885-24.4799L46.9815-24.4799L46.2315-26.7285L12.4385-26.7285ZM55.1196 0L57.7637 0L30.6382-70.459L29.4326-70.459L29.4326-67.1323Z"/>
  </g>
  <line id="Baseline-M" style="fill:none;stroke:#27AAE1;opacity:1;stroke-width:0.5;" x1="263" x2="3036" y1="1126" y2="1126"/>
  <line id="Capline-M" style="fill:none;stroke:#27AAE1;opacity:1;stroke-width:0.5;" x1="263" x2="3036" y1="1055.54" y2="1055.54"/>
  <g id="H-reference" style="fill:#27AAE1;stroke:none;" transform="matrix(1 0 0 1 339 1556)">
   <path d="M0.993654 0L3.63775 0L29.3281-67.1323L30.0303-67.1323L30.0303-70.459L28.1226-70.459ZM11.6885-24.4799L46.9815-24.4799L46.2315-26.7285L12.4385-26.7285ZM55.1196 0L57.7637 0L30.6382-70.459L29.4326-70.459L29.4326-67.1323Z"/>
  </g>
  <line id="Baseline-L" style="fill:none;stroke:#27AAE1;opacity:1;stroke-width:0.5;" x1="263" x2="3036" y1="1556" y2="1556"/>
  <line id="Capline-L" style="fill:none;stroke:#27AAE1;opacity:1;stroke-width:0.5;" x1="263" x2="3036" y1="1485.54" y2="1485.54"/>
  <line id="left-margin-Regular-M" style="fill:none;stroke:#00AEEF;stroke-width:0.5;opacity:1.0;" x1="1386.19" x2="1386.19" y1="1030.79" y2="1150.12"/>
  <line id="right-margin-Regular-M" style="fill:none;stroke:#00AEEF;stroke-width:0.5;opacity:1.0;" x1="1513.5" x2="1513.5" y1="1030.79" y2="1150.12"/>
 </g>
 <g id="Symbols">
  <g id="Black-L" transform="matrix(1 0 0 1 2846.66 1556)">
   <path d="M81.4171-74.8754C89.9223-74.8754 96.906-81.8382 96.906-90.3631C96.906-98.8891 89.9223-105.852 81.4171-105.852C72.8922-105.852 65.9294-98.8891 65.9294-90.3631C65.9294-81.8382 72.8922-74.8754 81.4171-74.8754ZM45.3787 27.6341L76.2459 27.6341C79.1442 27.6341 82.0788 26.3342 83.7136 23.3411L96.6042-0.389072C97.0867-1.35291 98.2942-1.27249 98.6159-0.307456L104.848 16.3691L78.9543 33.5551C75.2606 35.9916 74.3408 41.0216 76.7566 44.7956C79.1735 48.5113 84.2023 49.5271 87.9179 47.0517L118.223 26.8959C121.66 24.597 123.339 20.8229 122.339 16.7856L103.849-56.7582C103.44-58.408 103.673-59.4002 105.09-60.1085L152.944-84.0536C156.958-86.0904 158.535-91.0036 156.579-94.9177C154.542-98.9914 149.709-100.648 145.694-98.6113L47.1159-49.2022L32.8146-63.5035C32.2005-64.1176 31.6619-64.643 31.043-65.1987L46.3703-92.1931L36.5-97.9096L17.0842-63.7747C15.3226-60.6732 15.9267-57.1761 18.4413-54.6406L39.7065-33.6687C41.8238-31.6098 45.6199-30.3539 49.6352-32.3908L72.1866-43.7561C73.6757-44.5006 74.9457-43.8937 75.2674-42.4705L81.9171-15.5708L71.0551 11.4184L45.3787 11.4184C40.8456 11.4184 37.292 15.0328 37.292 19.545C37.292 23.9977 40.8456 27.6341 45.3787 27.6341ZM45.7819-88.1707C54.6917-88.1707 61.7402-95.2205 61.7402-104.129C61.7402-113.039 54.6917-120.067 45.7819-120.067C36.8734-120.067 29.8237-113.039 29.8237-104.129C29.8237-95.2205 36.8734-88.1707 45.7819-88.1707ZM45.7819-98.6472C42.6935-98.6472 40.3001-101.042 40.3001-104.129C40.3001-107.197 42.6935-109.611 45.7819-109.611C48.8496-109.611 51.265-107.197 51.265-104.129C51.265-101.042 48.8496-98.6472 45.7819-98.6472Z"/>
  </g>
  <g id="Heavy-L" transform="matrix(1 0 0 1 2551.15 1556)">
   <path d="M79.9709-74.0618C88.2297-74.0618 95.0176-80.8195 95.0176-89.1028C95.0176-97.3917 88.2297-104.149 79.9709-104.149C71.6877-104.149 64.9299-97.3917 64.9299-89.1028C64.9299-80.8195 71.6877-74.0618 79.9709-74.0618ZM44.6633 26.6794L75.1417 26.6794C77.9302 26.6794 80.7276 25.4252 82.2708 22.5833L95.2611-1.33201C95.7436-2.29143 96.9555-2.21102 97.2772-1.24598L103.695 15.9041L77.9702 33.0017C74.4459 35.3379 73.558 40.1252 75.8641 43.73C78.1757 47.2901 82.9574 48.237 86.5175 45.8807L116.439 25.9826C119.743 23.7658 121.358 20.161 120.39 16.2792L102.139-56.3197C101.68-58.1353 102.005-59.1877 103.495-59.9329L150.743-83.5613C154.584-85.5067 156.088-90.2047 154.223-93.9402C152.278-97.8308 147.66-99.4099 143.814-97.4645L46.3228-48.6011L31.8286-63.0953C31.1604-63.7635 30.5501-64.312 29.8594-64.8413L45.0517-91.5755L36.1372-96.7366L17.0522-63.1939C15.3458-60.2076 15.94-56.8764 18.3454-54.4408L39.2383-33.7766C41.264-31.7955 44.9046-30.613 48.7506-32.5583L71.2241-43.8849C72.732-44.6389 74.0345-44.0043 74.3561-42.6038L81.0074-15.7071L70.1935 11.1916L44.6633 11.1916C40.3316 11.1916 36.9379 14.6411 36.9379 18.9427C36.9379 23.194 40.3316 26.6794 44.6633 26.6794ZM45.0711-88.0605C53.6488-88.0605 60.4441-94.8614 60.4441-103.434C60.4441-112.011 53.6488-118.776 45.0711-118.776C36.499-118.776 29.698-112.011 29.698-103.434C29.698-94.8614 36.499-88.0605 45.0711-88.0605ZM45.0711-97.6329C41.7819-97.6329 39.2704-100.15 39.2704-103.434C39.2704-106.693 41.7819-109.234 45.0711-109.234C48.33-109.234 50.8773-106.693 50.8773-103.434C50.8773-100.15 48.33-97.6329 45.0711-97.6329Z"/>
  </g>
  <g id="Bold-L" transform="matrix(1 0 0 1 2256 1556)">
   <path d="M78.1284-73.0179C86.0873-73.0179 92.6294-79.5221 92.6294-87.5057C92.6294-95.5025 86.0873-102.007 78.1284-102.007C70.1448-102.007 63.6406-95.5025 63.6406-87.5057C63.6406-79.5221 70.1448-73.0179 78.1284-73.0179ZM43.7722 25.4588L73.7218 25.4588C76.3795 25.4588 79.0153 24.2586 80.4507 21.5936L93.5043-2.44035C93.9869-3.39216 95.2064-3.31174 95.5281-2.3467L102.124 15.2607L76.674 32.206C73.3498 34.4192 72.5004 38.9217 74.6756 42.3264C76.8641 45.7019 81.3534 46.5717 84.7289 44.354L114.129 24.8083C117.272 22.6914 118.81 19.2867 117.88 15.5896L99.9585-55.722C99.4452-57.7153 99.8709-58.8295 101.438-59.6133L147.859-82.8126C151.492-84.6502 152.911-89.0943 151.154-92.6219C149.317-96.297 144.953-97.7837 141.307-95.9462L45.3393-47.8483L30.6292-62.5584C29.8844-63.3031 29.1672-63.8749 28.3695-64.3584L43.4375-90.8445L35.7287-95.3067L17.0138-62.4344C15.369-59.5717 15.9628-56.4181 18.23-54.1129L38.6395-33.8627C40.5575-31.9739 44.0134-30.876 47.6594-32.7136L69.9734-43.9568C71.4969-44.7186 72.8304-44.0532 73.1521-42.6833L79.7811-15.8836L69.0584 10.8254L43.7722 10.8254C39.6789 10.8254 36.4775 14.0825 36.4775 18.1377C36.4775 22.1505 39.6789 25.4588 43.7722 25.4588ZM44.1875-87.9371C52.3429-87.9371 58.7935-94.4009 58.7935-102.543C58.7935-110.699 52.3429-117.111 44.1875-117.111C36.0453-117.111 29.5815-110.699 29.5815-102.543C29.5815-94.4009 36.0453-87.9371 44.1875-87.9371ZM44.1875-96.3431C40.6524-96.3431 37.9875-99.0212 37.9875-102.543C37.9875-106.04 40.6524-108.743 44.1875-108.743C47.6846-108.743 50.4008-106.04 50.4008-102.543C50.4008-99.0212 47.6846-96.3431 44.1875-96.3431Z"/>
  </g>
  <g id="Semibold-L" transform="matrix(1 0 0 1 1960.37 1556)">
   <path d="M76.8581-72.2983C84.6103-72.2983 90.983-78.6276 90.983-86.4046C90.983-94.2002 84.6103-100.529 76.8581-100.529C69.0811-100.529 62.7518-94.2002 62.7518-86.4046C62.7518-78.6276 69.0811-72.2983 76.8581-72.2983ZM43.1578 24.6174L72.7429 24.6174C75.3105 24.6174 77.8348 23.4542 79.196 20.9114L92.2933-3.20444C92.7758-4.15099 94.0006-4.07057 94.3222-3.10554L101.041 14.8172L75.7805 31.6574C72.5941 33.7858 71.7713 38.092 73.8563 41.3588C75.9599 44.607 80.2476 45.4236 83.4958 43.3015L112.536 23.9987C115.568 21.9508 117.053 18.684 116.15 15.1142L98.4554-55.31C97.9048-57.4257 98.3997-58.5826 100.021-59.393L145.871-82.2965C149.36-84.0598 150.721-88.3288 149.039-91.7131C147.275-95.2396 143.087-96.6627 139.579-94.8994L44.6613-47.3293L29.8023-62.1882C29.0048-62.9858 28.2138-63.5735 27.3423-64.0255L42.3246-90.3405L35.4471-94.3209L16.9873-61.9108C15.385-59.1333 15.9786-56.1021 18.1505-53.8869L38.2267-33.9219C40.0705-32.0968 43.3991-31.0574 46.9071-32.8207L69.1112-44.0064C70.6455-44.7735 72.0004-44.0869 72.322-42.7381L78.9357-16.0052L68.2759 10.5729L43.1578 10.5729C39.229 10.5729 36.1602 13.6973 36.1602 17.5827C36.1602 21.4311 39.229 24.6174 43.1578 24.6174ZM43.5784-87.8521C51.4427-87.8521 57.6555-94.0834 57.6555-101.929C57.6555-109.794 51.4427-115.963 43.5784-115.963C35.7325-115.963 29.5012-109.794 29.5012-101.929C29.5012-94.0834 35.7325-87.8521 43.5784-87.8521ZM43.5784-95.4538C39.8737-95.4538 37.103-98.243 37.103-101.929C37.103-105.591 39.8737-108.405 43.5784-108.405C47.2397-108.405 50.0723-105.591 50.0723-101.929C50.0723-98.243 47.2397-95.4538 43.5784-95.4538Z"/>
  </g>
  <g id="Medium-L" transform="matrix(1 0 0 1 1664.47 1556)">
   <path d="M75.895-71.7526C83.4904-71.7526 89.7346-77.9494 89.7346-85.5698C89.7346-93.2126 83.4904-99.4094 75.895-99.4094C68.2746-99.4094 62.0778-93.2126 62.0778-85.5698C62.0778-77.9494 68.2746-71.7526 75.895-71.7526ZM42.692 23.9793L72.0007 23.9793C74.4999 23.9793 76.9397 22.8444 78.2446 20.394L91.375-3.7838C91.8575-4.72637 93.0863-4.64595 93.4079-3.68091L100.22 14.4809L75.1029 31.2415C72.0212 33.3056 71.2184 37.4629 73.2351 40.6251C75.2743 43.7768 79.4091 44.5531 82.5608 42.5034L111.329 23.3849C114.276 21.3892 115.721 18.227 114.838 14.7537L97.3157-54.9976C96.7369-57.2061 97.2842-58.3954 98.9454-59.226L144.363-81.9051C147.744-83.6121 149.061-87.7484 147.434-91.0239C145.727-94.4379 141.672-95.8127 138.268-94.1057L44.1472-46.9358L29.1754-61.9076C28.3379-62.7451 27.4909-63.345 26.5635-63.7731L41.4808-89.9584L35.2335-93.5735L16.9672-61.5139C15.3971-58.8009 15.9905-55.8625 18.0902-53.7154L37.9137-33.9669C39.7011-32.19 42.9332-31.1949 46.3366-32.9019L68.4574-44.0439C69.9999-44.8152 71.371-44.1124 71.6927-42.7797L78.2946-16.0975L67.6825 10.3815L42.692 10.3815C38.8879 10.3815 35.9195 13.4053 35.9195 17.162C35.9195 20.8856 38.8879 23.9793 42.692 23.9793ZM43.1165-87.7876C50.7601-87.7876 56.7927-93.8426 56.7927-101.464C56.7927-109.107 50.7601-115.093 43.1165-115.093C35.4954-115.093 29.4403-109.107 29.4403-101.464C29.4403-93.8426 35.4954-87.7876 43.1165-87.7876ZM43.1165-94.7796C39.2832-94.7796 36.4323-97.653 36.4323-101.464C36.4323-105.25 39.2832-108.148 43.1165-108.148C46.9024-108.148 49.8232-105.25 49.8232-101.464C49.8232-97.653 46.9024-94.7796 43.1165-94.7796Z"/>
  </g>
  <g id="Regular-L" transform="matrix(1 0 0 1 1368.82 1556)">
   <path d="M74.6387-71.0409C82.0297-71.0409 88.1063-77.0647 88.1063-84.4808C88.1063-91.9246 82.0297-97.9484 74.6387-97.9484C67.2226-97.9484 61.1988-91.9246 61.1988-84.4808C61.1988-77.0647 67.2226-71.0409 74.6387-71.0409ZM42.0843 23.1471L71.0326 23.1471C73.4426 23.1471 75.7722 22.0489 77.0036 19.7193L90.1772-4.53949C90.6597-5.47687 91.8937-5.39645 92.2154-4.43141L99.1489 14.0422L74.2191 30.699C71.2738 32.6792 70.4973 36.6424 72.4248 39.6681C74.38 42.6939 78.3155 43.4177 81.3412 41.4625L109.754 22.5842C112.591 20.6567 113.984 17.6309 113.127 14.2835L95.8292-54.5901C95.2135-56.9197 95.8292-58.1511 97.5431-59.0081L142.397-81.3946C145.636-83.0281 146.895-86.9913 145.342-90.1251C143.708-93.3921 139.826-94.7039 136.559-93.0704L43.4766-46.4226L28.3576-61.5415C27.4679-62.4312 26.548-63.0469 25.5476-63.4439L40.3802-89.46L34.955-92.5985L16.9409-60.996C15.413-58.3673 16.0061-55.55 18.0115-53.4919L37.5055-34.0255C39.2194-32.3116 42.3256-31.3742 45.5926-33.0077L67.6047-44.0929C69.1578-44.8695 70.55-44.1457 70.8717-42.8339L77.4585-16.2178L66.9086 10.1319L42.0843 10.1319C38.4429 10.1319 35.6056 13.0244 35.6056 16.6131C35.6056 20.1741 38.4429 23.1471 42.0843 23.1471ZM42.5141-87.7035C49.8698-87.7035 55.6673-93.5286 55.6673-100.857C55.6673-108.212 49.8698-113.957 42.5141-113.957C35.1861-113.957 29.3609-108.212 29.3609-100.857C29.3609-93.5286 35.1861-87.7035 42.5141-87.7035ZM42.5141-93.9001C38.5131-93.9001 35.5576-96.8833 35.5576-100.857C35.5576-104.805 38.5131-107.813 42.5141-107.813C46.4623-107.813 49.4983-104.805 49.4983-100.857C49.4983-96.8833 46.4623-93.9001 42.5141-93.9001Z"/>
  </g>
  <g id="Light-L" transform="matrix(1 0 0 1 1073.67 1556)">
   <path d="M73.0355-70.0866C80.2548-70.0866 86.1405-75.9387 86.1405-83.1448C86.1405-90.3977 80.2548-96.2498 73.0355-96.2498C65.8294-96.2498 59.9773-90.3977 59.9773-83.1448C59.9773-75.9387 65.8294-70.0866 73.0355-70.0866ZM41.4354 22.0593L69.7157 22.0593C72.0685 22.0593 74.3408 20.9801 75.5341 18.7078L88.3641-4.92119C88.8466-5.83949 90.0997-5.75907 90.4213-4.79403L97.145 13.1643L72.8259 29.4393C69.9569 31.3433 69.1995 35.211 71.0697 38.1604C72.9868 41.1098 76.8077 41.8336 79.7571 39.9166L107.521 21.4963C110.263 19.6261 111.617 16.6766 110.779 13.4056L93.9206-53.8267C93.324-56.0991 93.9206-57.2923 95.5964-58.1302L139.381-79.9823C142.525-81.5777 143.765-85.4454 142.25-88.5219C140.655-91.7126 136.867-92.9863 133.677-91.3909L42.7895-45.85L27.6706-60.969C26.6663-61.9732 25.5556-62.5698 24.3644-62.8523L39.3878-89.1737L34.9359-91.7588L16.9219-60.2135C15.3939-57.5466 16.0634-54.6721 17.9543-52.7475L36.9711-33.7774C38.6469-32.1017 41.6767-31.1834 44.8674-32.7787L66.3642-43.5776C67.8791-44.3351 69.2332-43.6113 69.5548-42.3377L75.9699-16.3896L65.6871 9.33027L41.4354 9.33027C37.8894 9.33027 35.1476 12.1656 35.1476 15.6779C35.1476 19.1435 37.8894 22.0593 41.4354 22.0593ZM41.8843-87.7035C48.8773-87.7035 54.2359-93.1088 54.2359-100.055C54.2359-107.048 48.8773-112.373 41.8843-112.373C34.938-112.373 29.5327-107.048 29.5327-100.055C29.5327-93.1088 34.938-87.7035 41.8843-87.7035ZM41.8843-92.7932C37.7306-92.7932 34.6224-95.9481 34.6224-100.055C34.6224-104.175 37.7306-107.317 41.8843-107.317C46.0043-107.317 49.1929-104.175 49.1929-100.055C49.1929-95.9481 46.0043-92.7932 41.8843-92.7932Z"/>
  </g>
  <g id="Thin-L" transform="matrix(1 0 0 1 779.014 1556)">
   <path d="M70.9152-68.8245C77.9073-68.8245 83.5406-74.4494 83.5406-81.3779C83.5406-88.3784 77.9073-94.0033 70.9152-94.0033C63.9867-94.0033 58.3618-88.3784 58.3618-81.3779C58.3618-74.4494 63.9867-68.8245 70.9152-68.8245ZM40.5772 20.6205L67.974 20.6205C70.2511 20.6205 72.4477 19.5666 73.5905 17.3699L85.9661-5.42603C86.4487-6.31908 87.7269-6.23866 88.0486-5.27362L94.4946 12.0032L70.9833 27.7734C68.2152 29.5763 67.483 33.3178 69.2776 36.1663C71.1441 39.0147 74.8136 39.7385 77.6621 37.872L104.568 20.0575C107.184 18.263 108.487 15.4146 107.674 12.2444L91.3964-52.817C90.8251-55.0137 91.3964-56.1564 93.0217-56.969L135.393-78.1144C138.411-79.6593 139.625-83.4008 138.161-86.4016C136.616-89.4913 132.955-90.7145 129.865-89.1697L41.8808-45.0928L26.7619-60.2117C25.6062-61.3674 24.243-61.9388 22.7994-62.0698L38.0752-88.7951L34.9107-90.6481L16.8966-59.1786C15.3686-56.4612 16.1391-53.511 17.8785-51.7631L36.2643-33.4493C37.8896-31.824 40.8185-30.931 43.9082-32.4758L64.7234-42.8961C66.1879-43.6283 67.4915-42.9045 67.8131-41.6814L74.001-16.6168L64.0717 8.27011L40.5772 8.27011C37.1574 8.27011 34.5418 11.0297 34.5418 14.4411C34.5418 17.7805 37.1574 20.6205 40.5772 20.6205ZM41.0513-87.7035C47.5648-87.7035 52.3427-92.5534 52.3427-98.9949C52.3427-105.508 47.5648-110.278 41.0513-110.278C34.6098-110.278 29.7599-105.508 29.7599-98.9949C29.7599-92.5534 34.6098-87.7035 41.0513-87.7035ZM41.0513-91.3292C36.6957-91.3292 33.3855-94.7113 33.3855-98.9949C33.3855-103.342 36.6957-106.661 41.0513-106.661C45.3985-106.661 48.789-103.342 48.789-98.9949C48.789-94.7113 45.3985-91.3292 41.0513-91.3292Z"/>
  </g>
  <g id="Ultralight-L" transform="matrix(1 0 0 1 483.357 1556)">
   <path d="M69.8292-68.1781C76.7049-68.1781 82.2089-73.6866 82.2089-80.4729C82.2089-87.3441 76.7049-92.8526 69.8292-92.8526C63.0429-92.8526 57.5344-87.3441 57.5344-80.4729C57.5344-73.6866 63.0429-68.1781 69.8292-68.1781ZM40.1376 19.8835L67.0819 19.8835C69.3202 19.8835 71.478 18.8426 72.5949 16.6847L84.7379-5.6846C85.2204-6.56473 86.5116-6.48431 86.8333-5.51927L93.1371 11.4085L70.0395 26.9201C67.3232 28.6713 66.6039 32.3482 68.3596 35.1449C70.2003 37.9416 73.7923 38.6654 76.589 36.8247L103.055 19.3206C105.606 17.5648 106.884 14.7681 106.084 11.6497L90.1036-52.2999C89.5451-54.4577 90.1036-55.5746 91.703-56.3743L133.35-77.1577C136.303-78.6767 137.505-82.3536 136.066-85.3156C134.547-88.3536 130.951-89.5509 127.913-88.0319L41.4154-44.7049L26.2964-59.8238C25.0632-61.0571 23.5707-61.6155 21.9978-61.669L37.4029-88.6011L34.8978-90.0793L16.8837-58.6485C15.3557-55.9053 16.1779-52.9163 17.8397-51.2589L35.9023-33.2812C37.5017-31.6818 40.3789-30.8017 43.4169-32.3207L63.8831-42.547C65.3217-43.2663 66.5994-42.5425 66.9211-41.3452L72.9925-16.7331L63.2442 7.72711L40.1376 7.72711C36.7825 7.72711 34.2315 10.4479 34.2315 13.8076C34.2315 17.0823 36.7825 19.8835 40.1376 19.8835ZM40.6246-87.7035C46.8925-87.7035 51.3731-92.269 51.3731-98.4519C51.3731-104.72 46.8925-109.205 40.6246-109.205C34.4417-109.205 29.8762-104.72 29.8762-98.4519C29.8762-92.269 34.4417-87.7035 40.6246-87.7035ZM40.6246-90.5793C36.1656-90.5793 32.752-94.0778 32.752-98.4519C32.752-102.915 36.1656-106.325 40.6246-106.325C45.0882-106.325 48.5822-102.915 48.5822-98.4519C48.5822-94.0778 45.0882-90.5793 40.6246-90.5793Z"/>
  </g>
  <g id="Black-M" transform="matrix(1 0 0 1 2865.38 1126)">
   <path d="M64.1029-66.5147C70.8808-66.5147 76.4338-72.0622 76.4338-78.8459C76.4338-85.6293 70.8808-91.1768 64.1029-91.1768C57.3192-91.1768 51.7717-85.6293 51.7717-78.8459C51.7717-72.0622 57.3192-66.5147 64.1029-66.5147ZM35.6836 14.1467L59.8415 14.1467C62.1734 14.1467 64.5573 13.1029 65.8973 10.6619L75.752-7.47849C76.1258-8.22643 77.0601-8.16412 77.3093-7.41646L81.9492 5.02686L61.8261 18.3657C58.8294 20.3294 58.0918 24.4218 60.05 27.4809C62.0078 30.4829 66.1006 31.3291 69.1026 29.3142L92.8241 13.5393C95.5875 11.6953 96.938 8.63626 96.1381 5.38506L81.6667-52.1822C81.3964-53.3099 81.4954-54.0219 82.5241-54.5362L119.974-73.2873C123.221-74.9388 124.503-78.9171 122.914-82.0953C121.262-85.3984 117.346-86.7436 114.1-85.0921L37.0911-46.4938L26.1772-57.4077C25.7323-57.8526 25.3509-58.2371 24.9072-58.675L36.9238-79.8536L28.5873-84.6848L13.2608-57.7378C11.8486-55.2308 12.3355-52.371 14.362-50.339L31.0924-33.8938C32.8062-32.2371 35.8705-31.2036 39.1165-32.8552L56.5851-41.6548C57.7175-42.221 58.6683-41.7745 58.9175-40.6577L64.0447-19.9053L55.6244 0.996947L35.6836 0.996947C32.0116 0.996947 29.1339 3.93113 29.1339 7.59763C29.1339 11.2073 32.0116 14.1467 35.6836 14.1467ZM35.9948-76.3401C43.1338-76.3401 48.7527-81.9587 48.7527-89.098C48.7527-96.237 43.1338-101.85 35.9948-101.85C28.8556-101.85 23.2369-96.237 23.2369-89.098C23.2369-81.9587 28.8556-76.3401 35.9948-76.3401ZM35.9948-85.0836C33.7539-85.0836 31.9804-86.8568 31.9804-89.098C31.9804-91.3334 33.7539-93.1124 35.9948-93.1124C38.2302-93.1124 40.009-91.3334 40.009-89.098C40.009-86.8568 38.2302-85.0836 35.9948-85.0836Z"/>
  </g>
  <g id="Heavy-M" transform="matrix(1 0 0 1 2569.7 1126)">
   <path d="M62.8371-65.8075C69.3899-65.8075 74.769-71.1702 74.769-77.7372C74.769-84.3064 69.3899-89.6691 62.8371-89.6691C56.2701-89.6691 50.9074-84.3064 50.9074-77.7372C50.9074-71.1702 56.2701-65.8075 62.8371-65.8075ZM35.0442 13.3137L58.8835 13.3137C61.1135 13.3137 63.3684 12.3129 64.6225 10.0144L74.6062-8.36506C74.9801-9.11044 75.9169-9.04813 76.1661-8.30048L81.007 4.65322L60.9927 17.9409C58.1544 19.8135 57.4464 23.6776 59.3025 26.5782C61.1609 29.4352 65.0228 30.2141 67.8798 28.3121L91.2852 12.7468C93.9281 10.9778 95.2195 8.07722 94.4492 4.971L80.1714-51.8239C79.8497-53.1191 80.0405-53.8934 81.1449-54.4456L118.102-72.9364C121.187-74.5019 122.4-78.2788 120.896-81.2876C119.331-84.4188 115.616-85.6915 112.529-84.126L36.3792-45.959L25.2767-57.0615C24.7895-57.5487 24.3556-57.9576 23.8593-58.3801L35.7263-79.2763L28.2344-83.6155L13.2313-57.2422C11.873-54.8513 12.3431-52.1591 14.2735-50.2123L30.6839-34.0223C32.3118-32.438 35.2311-31.4745 38.3186-33.0401L55.7586-41.8283C56.9129-42.4055 57.899-41.932 58.1482-40.8337L63.2928-20.0226L54.8948 0.849135L35.0442 0.849135C31.5602 0.849135 28.83 3.62743 28.83 7.09505C28.83 10.5168 31.5602 13.3137 35.0442 13.3137ZM35.358-76.2323C42.2058-76.2323 47.6177-81.6465 47.6177-88.492C47.6177-95.3399 42.2058-100.735 35.358-100.735C28.5124-100.735 23.0982-95.3399 23.0982-88.492C23.0982-81.6465 28.5124-76.2323 35.358-76.2323ZM35.358-84.1942C32.9349-84.1942 31.0601-86.0713 31.0601-88.492C31.0601-90.8987 32.9349-92.7899 35.358-92.7899C37.7646-92.7899 39.6581-90.8987 39.6581-88.492C39.6581-86.0713 37.7646-84.1942 35.358-84.1942Z"/>
  </g>
  <g id="Bold-M" transform="matrix(1 0 0 1 2274.14 1126)">
   <path d="M61.4211-65.0163C67.7221-65.0163 72.9068-70.1724 72.9068-76.4969C72.9068-82.8265 67.7221-87.9826 61.4211-87.9826C55.0966-87.9826 49.9405-82.8265 49.9405-76.4969C49.9405-70.1724 55.0966-65.0163 61.4211-65.0163ZM34.3289 12.382L57.8119 12.382C59.9278 12.382 62.0385 11.4292 63.1963 9.28998L73.3246-9.35681C73.6984-10.0993 74.6381-10.037 74.8874-9.28938L79.953 4.23526L60.0604 17.4658C57.3993 19.2365 56.7243 22.8451 58.4663 25.5685C60.2135 28.2633 63.817 28.9668 66.5119 27.191L89.5638 11.8602C92.0718 10.1752 93.2972 7.45186 92.5599 4.50781L78.4986-51.4231C78.1195-52.9057 78.4129-53.7496 79.6021-54.3441L116.007-72.5438C118.912-74.0132 120.046-77.5648 118.639-80.3841C117.17-83.323 113.681-84.5146 110.77-83.0452L35.5829-45.3607L24.2693-56.6743C23.7348-57.2087 23.2421-57.6449 22.6872-58.0503L34.3868-78.6304L27.8397-82.4195L13.1983-56.6878C11.9003-54.4269 12.3517-51.922 14.1744-50.0706L30.227-34.166C31.7587-32.6628 34.5158-31.7775 37.4261-33.247L54.8341-42.0224C56.0128-42.6118 57.0384-42.1081 57.2876-41.0307L62.4517-20.1539L54.0787 0.683787L34.3289 0.683787C31.0552 0.683787 28.4901 3.28769 28.4901 6.53284C28.4901 9.74431 31.0552 12.382 34.3289 12.382ZM34.6456-76.1117C41.1678-76.1117 46.3481-81.2971 46.3481-87.8142C46.3481-94.3364 41.1678-99.4881 34.6456-99.4881C28.1285-99.4881 22.9431-94.3364 22.9431-87.8142C22.9431-81.2971 28.1285-76.1117 34.6456-76.1117ZM34.6456-83.1992C32.0188-83.1992 30.0306-85.1925 30.0306-87.8142C30.0306-90.4124 32.0188-92.4291 34.6456-92.4291C37.2438-92.4291 39.2657-90.4124 39.2657-87.8142C39.2657-85.1925 37.2438-83.1992 34.6456-83.1992Z"/>
  </g>
  <g id="Semibold-M" transform="matrix(1 0 0 1 1978.22 1126)">
   <path d="M60.4449-64.4709C66.5723-64.4709 71.623-69.4845 71.623-75.6418C71.623-81.8062 66.5723-86.8199 60.4449-86.8199C54.2876-86.8199 49.2739-81.8062 49.2739-75.6418C49.2739-69.4845 54.2876-64.4709 60.4449-64.4709ZM33.8358 11.7396L57.0731 11.7396C59.1104 11.7396 61.1216 10.82 62.2132 8.79059L72.4411-10.0405C72.8149-10.7811 73.7566-10.7188 74.0058-9.97111L79.2264 3.94711L59.4176 17.1382C56.8788 18.8386 56.2265 22.2712 57.8899 24.8723C59.5604 27.4554 62.9858 28.1069 65.5688 26.4182L88.3771 11.249C90.7921 9.62192 91.972 7.02074 91.2575 4.1885L77.3454-51.1468C76.9267-52.7586 77.2909-53.6504 78.5385-54.2742L114.562-72.2732C117.343-73.6763 118.424-77.0725 117.083-79.7613C115.68-82.5675 112.346-83.7033 109.558-82.3002L35.0339-44.9482L23.5748-56.4073C23.0077-56.9743 22.4746-57.4294 21.8791-57.8229L33.4633-78.1852L27.5675-81.5949L13.1755-56.3056C11.9191-54.1342 12.3576-51.7585 14.1062-49.973L29.912-34.265C31.3774-32.8178 34.0227-31.9864 36.8108-33.3896L54.1967-42.1562C55.3923-42.754 56.4451-42.2296 56.6943-41.1665L61.8718-20.2444L53.516 0.569796L33.8358 0.569796C30.707 0.569796 28.2557 3.05348 28.2557 6.14526C28.2557 9.21178 30.707 11.7396 33.8358 11.7396ZM34.1545-76.0286C40.4521-76.0286 45.4728-81.0563 45.4728-87.3469C45.4728-93.6446 40.4521-98.6282 34.1545-98.6282C27.8639-98.6282 22.8361-93.6446 22.8361-87.3469C22.8361-81.0563 27.8639-76.0286 34.1545-76.0286ZM34.1545-82.5133C31.3872-82.5133 29.3209-84.5867 29.3209-87.3469C29.3209-90.0771 31.3872-92.1804 34.1545-92.1804C36.8847-92.1804 38.9951-90.0771 38.9951-87.3469C38.9951-84.5867 36.8847-82.5133 34.1545-82.5133Z"/>
  </g>
  <g id="Medium-M" transform="matrix(1 0 0 1 1682.11 1126)">
   <path d="M59.7047-64.0573C65.7004-64.0573 70.6496-68.963 70.6496-74.9935C70.6496-81.0326 65.7004-85.9383 59.7047-85.9383C53.6742-85.9383 48.7685-81.0326 48.7685-74.9935C48.7685-68.963 53.6742-64.0573 59.7047-64.0573ZM33.4619 11.2525L56.513 11.2525C58.4906 11.2525 60.4264 10.358 61.4677 8.41194L71.7711-10.5589C72.1449-11.298 73.0881-11.2357 73.3373-10.488L78.6754 3.72863L58.9303 16.8898C56.4841 18.537 55.8491 21.836 57.4528 24.3445C59.0652 26.8428 62.3555 27.4549 64.8538 25.8322L87.4773 10.7856C89.8218 9.20238 90.9672 6.69385 90.2699 3.94638L76.471-50.9373C76.0222-52.647 76.4401-53.5753 77.732-54.2212L113.467-72.068C116.154-73.4209 117.194-76.6993 115.903-79.289C114.55-81.9947 111.334-83.0881 108.639-81.7352L34.6176-44.6354L23.0482-56.2048C22.4564-56.7966 21.8925-57.2659 21.2663-57.6504L32.7631-77.8476L27.3611-80.9697L13.1582-56.0158C11.9333-53.9124 12.3621-51.6346 14.0544-49.8989L29.6731-34.3402C31.0883-32.9353 33.6489-32.1448 36.3443-33.4977L53.7135-42.2577C54.9218-42.8619 55.9953-42.3217 56.2445-41.2694L61.4321-20.313L53.0894 0.483364L33.4619 0.483364C30.443 0.483364 28.078 2.87589 28.078 5.85138C28.078 8.808 30.443 11.2525 33.4619 11.2525ZM33.7821-75.9655C39.9095-75.9655 44.8091-80.8737 44.8091-86.9926C44.8091-93.12 39.9095-97.9762 33.7821-97.9762C27.6632-97.9762 22.755-93.12 22.755-86.9926C22.755-80.8737 27.6632-75.9655 33.7821-75.9655ZM33.7821-81.9933C30.9083-81.9933 28.7828-84.1274 28.7828-86.9926C28.7828-89.8229 30.9083-91.9919 33.7821-91.9919C36.6124-91.9919 38.79-89.8229 38.79-86.9926C38.79-84.1274 36.6124-81.9933 33.7821-81.9933Z"/>
  </g>
  <g id="Regular-M" transform="matrix(1 0 0 1 1386.19 1126)">
   <path d="M58.7393-63.5179C64.5633-63.5179 69.3798-68.2827 69.3798-74.1479C69.3798-80.0236 64.5633-84.7884 58.7393-84.7884C52.8741-84.7884 48.1093-80.0236 48.1093-74.1479C48.1093-68.2827 52.8741-63.5179 58.7393-63.5179ZM32.9743 10.6172L55.7823 10.6172C57.6821 10.6172 59.5196 9.75553 60.4954 7.91804L70.8973-11.2351C71.2711-11.9722 72.2162-11.9099 72.4654-11.1623L77.9568 3.44366L58.2946 16.5658C55.9692 18.1436 55.3567 21.2683 56.8827 23.656C58.4192 26.0437 61.5335 26.6044 63.9211 25.0679L86.3036 10.1811C88.5561 8.65515 89.6565 6.26747 88.9817 3.63057L75.3304-50.664C74.8426-52.5015 75.3304-53.4773 76.68-54.1521L112.039-71.8004C114.603-73.0877 115.589-76.2125 114.364-78.673C113.077-81.2476 110.015-82.2857 107.44-80.9984L34.0747-44.2275L22.3614-55.9408C21.7373-56.5648 21.1334-57.0527 20.4671-57.4256L31.8498-77.4073L27.092-80.1542L13.1357-55.6378C11.9519-53.623 12.368-51.473 13.9869-49.8023L29.3616-34.4381C30.7112-33.0885 33.1612-32.3514 35.7358-33.6387L53.0831-42.39C54.3081-43.0025 55.4085-42.4418 55.6577-41.4037L60.8587-20.4025L52.5329 0.370626L32.9743 0.370626C30.0987 0.370626 27.8462 2.64425 27.8462 5.46806C27.8462 8.28132 30.0987 10.6172 32.9743 10.6172ZM33.2963-75.8833C39.2017-75.8833 43.9434-80.6356 43.9434-86.5304C43.9434-92.4358 39.2017-97.1257 33.2963-97.1257C27.4015-97.1257 22.6493-92.4358 22.6493-86.5304C22.6493-80.6356 27.4015-75.8833 33.2963-75.8833ZM33.2963-81.3149C30.2836-81.3149 28.0809-83.5282 28.0809-86.5304C28.0809-89.4914 30.2836-91.7459 33.2963-91.7459C36.2573-91.7459 38.5224-89.4914 38.5224-86.5304C38.5224-83.5282 36.2573-81.3149 33.2963-81.3149Z"/>
  </g>
  <g id="Light-M" transform="matrix(1 0 0 1 1090.87 1126)">
   <path d="M57.302-62.6623C62.972-62.6623 67.6174-67.2731 67.6174-72.9501C67.6174-78.6547 62.972-83.2655 57.302-83.2655C51.625-83.2655 47.0142-78.6547 47.0142-72.9501C47.0142-67.2731 51.625-62.6623 57.302-62.6623ZM32.3925 9.64192L54.6017 9.64192C56.4501 9.64192 58.2363 8.79732 59.1778 7.01116L69.2717-11.5774C69.6455-12.2974 70.6078-12.2351 70.857-11.4874L76.1601 2.65655L57.0455 15.4365C54.7886 16.9458 54.1932 19.985 55.6678 22.3043C57.1701 24.6235 60.1817 25.1842 62.5009 23.6819L84.3016 9.20579C86.4686 7.73116 87.5348 5.41192 86.8771 2.84347L73.6193-49.9796C73.1486-51.7657 73.6193-52.7073 74.9347-53.365L109.335-70.5342C111.814-71.7872 112.783-74.8265 111.592-77.2357C110.339-79.7418 107.362-80.7457 104.856-79.4926L33.4587-43.7142L21.7454-55.4275C21.0187-56.1542 20.2436-56.625 19.4062-56.8951L30.96-77.1506L27.0749-79.4013L13.1186-54.9363C11.9348-52.8872 12.4193-50.6858 13.9356-49.135L28.8825-34.2157C30.1979-32.9003 32.5794-32.1803 35.0856-33.4334L51.9709-41.928C53.1617-42.5234 54.2278-41.9627 54.4771-40.9588L59.524-20.5565L51.4378-0.348033L32.3925-0.348033C29.6025-0.348033 27.4355 1.87425 27.4355 4.62962C27.4355 7.35733 29.6025 9.64192 32.3925 9.64192ZM32.7317-75.8833C38.312-75.8833 42.6601-80.2591 42.6601-85.8117C42.6601-91.392 38.312-95.7055 32.7317-95.7055C27.1791-95.7055 22.8033-91.392 22.8033-85.8117C22.8033-80.2591 27.1791-75.8833 32.7317-75.8833ZM32.7317-80.3225C29.5821-80.3225 27.2424-82.6898 27.2424-85.8117C27.2424-88.9267 29.5821-91.301 32.7317-91.301C35.8467-91.301 38.2486-88.9267 38.2486-85.8117C38.2486-82.6898 35.8467-80.3225 32.7317-80.3225Z"/>
  </g>
  <g id="Thin-M" transform="matrix(1 0 0 1 796.005 1126)">
   <path d="M55.401-61.5308C60.8673-61.5308 65.2865-65.9379 65.2865-71.3659C65.2865-76.8443 60.8673-81.2514 55.401-81.2514C49.973-81.2514 45.5658-76.8443 45.5658-71.3659C45.5658-65.9379 49.973-61.5308 55.401-61.5308ZM31.6231 8.35198L53.0402 8.35198C54.8207 8.35198 56.539 7.53 57.4353 5.81174L67.1218-12.03C67.4956-12.7273 68.4805-12.665 68.7297-11.9174L73.7839 1.61555L55.3935 13.9429C53.2271 15.3616 52.6543 18.2877 54.0611 20.5164C55.5181 22.7452 58.3939 23.3059 60.6226 21.8489L81.6539 7.91584C83.7077 6.5091 84.7286 4.28039 84.0935 1.80246L71.3563-49.0743C70.9081-50.7926 71.3563-51.6889 72.6264-52.3239L105.76-68.8595C108.125-70.0673 109.072-72.9934 107.926-75.3347C106.718-77.7503 103.855-78.7089 101.439-77.5011L32.644-43.0353L20.9307-54.7485C20.0682-55.611 19.0668-56.0592 18.0031-56.1936L29.7832-76.8111L27.0522-78.4056L13.096-54.0084C11.9122-51.9141 12.4872-49.6448 13.8677-48.2524L28.2488-33.9215C29.519-32.6514 31.81-31.954 34.2256-33.1618L50.4999-41.317C51.6454-41.8898 52.6663-41.329 52.9156-40.3704L57.7588-20.7602L49.9895-1.29852L31.6231-1.29852C28.9462-1.29852 26.8924 0.855877 26.8924 3.52072C26.8924 6.13528 28.9462 8.35198 31.6231 8.35198ZM31.9849-75.8833C37.1352-75.8833 40.9628-79.7612 40.9628-84.8612C40.9628-90.0115 37.1352-93.8272 31.9849-93.8272C26.8849-93.8272 23.0069-90.0115 23.0069-84.8612C23.0069-79.7612 26.8849-75.8833 31.9849-75.8833ZM31.9849-79.0099C28.6542-79.0099 26.1335-81.5809 26.1335-84.8612C26.1335-88.1799 28.6542-90.7126 31.9849-90.7126C35.3035-90.7126 37.8865-88.1799 37.8865-84.8612C37.8865-81.5809 35.3035-79.0099 31.9849-79.0099Z"/>
  </g>
  <g id="Ultralight-M" transform="matrix(1 0 0 1 500.238 1126)">
   <path d="M54.4273-60.9512C59.7893-60.9512 64.0926-65.254 64.0926-70.5546C64.0926-75.917 59.7893-80.2198 54.4273-80.2198C49.1268-80.2198 44.824-75.917 44.824-70.5546C44.824-65.254 49.1268-60.9512 54.4273-60.9512ZM31.229 7.69127L52.2404 7.69127C53.9862 7.69127 55.6696 6.88089 56.5428 5.1974L66.0206-12.2618C66.3945-12.9476 67.3909-12.8853 67.6401-12.1376L72.5668 1.08235L54.5473 13.1779C52.4273 14.5503 51.8661 17.4184 53.2381 19.6007C54.6719 21.7831 57.4782 22.3438 59.6605 20.91L80.2977 7.25514C82.2935 5.88317 83.2912 3.70083 82.6678 1.26926L70.1972-48.6107C69.7606-50.2942 70.1972-51.1673 71.4441-51.7907L103.928-68.0017C106.236-69.1864 107.171-72.0545 106.048-74.361C104.864-76.7303 102.058-77.6657 99.6887-76.4811L32.2267-42.6875L20.5134-54.4008C19.5813-55.3329 18.4641-55.7694 17.2845-55.8342L29.1805-76.6373L27.0407-77.8956L13.0844-53.5332C11.9006-51.4157 12.522-49.1116 13.8329-47.8003L27.9243-33.7708C29.1712-32.5239 31.4159-31.8381 33.7851-33.0227L49.7465-41.004C50.8688-41.5652 51.8665-41.0045 52.1158-40.069L56.8547-20.8645L49.2476-1.78535L31.229-1.78535C28.6101-1.78535 26.6142 0.33427 26.6142 2.95275C26.6142 5.50935 28.6101 7.69127 31.229 7.69127ZM31.6024-75.8833C36.5324-75.8833 40.0935-79.5062 40.0935-84.3744C40.0935-89.3045 36.5324-92.8651 31.6024-92.8651C26.7342-92.8651 23.1113-89.3045 23.1113-84.3744C23.1113-79.5062 26.7342-75.8833 31.6024-75.8833ZM31.6024-78.3376C28.179-78.3376 25.5655-81.0129 25.5655-84.3744C25.5655-87.7974 28.179-90.4112 31.6024-90.4112C35.0253-90.4112 37.7011-87.7974 37.7011-84.3744C37.7011-81.0129 35.0253-78.3376 31.6024-78.3376Z"/>
  </g>
  <g id="Black-S" transform="matrix(1 0 0 1 2879.86 696)">
   <path d="M50.5371-59.9121C55.9082-59.9121 60.3027-64.3066 60.3027-69.6777C60.3027-75.0488 55.9082-79.4434 50.5371-79.4434C45.166-79.4434 40.7715-75.0488 40.7715-69.6777C40.7715-64.3066 45.166-59.9121 50.5371-59.9121ZM28.125 3.66211L47.1191 3.66211C48.9746 3.66211 50.8789 2.83203 51.9531 0.878906L59.6191-13.2324C59.9121-13.8184 60.6445-13.7695 60.8398-13.1836L64.4043-3.61328L48.6328 6.83594C46.2402 8.39844 45.6543 11.6699 47.2168 14.1113C48.7793 16.5039 52.0508 17.1875 54.4434 15.5762L73.0957 3.17383C75.293 1.70898 76.3672-0.732422 75.7324-3.32031L64.3555-48.584C64.1602-49.4141 64.209-49.9512 64.9902-50.3418L94.4336-65.0879C97.0215-66.4062 98.0469-69.5801 96.7773-72.1191C95.459-74.7559 92.334-75.8301 89.7461-74.5117L29.248-44.1895L20.752-52.6855C20.4102-53.0273 20.1172-53.3203 19.7754-53.6621L29.248-70.3613L22.5098-74.2676L10.4004-52.9785C9.27734-50.9766 9.66797-48.6816 11.2793-47.0703L24.4629-34.1309C25.8301-32.8125 28.2715-31.9824 30.8594-33.3008L44.5312-40.1855C45.4102-40.625 46.1426-40.2832 46.3379-39.4043L50.3418-23.1934L43.75-6.83594L28.125-6.83594C25.1953-6.83594 22.9004-4.49219 22.9004-1.5625C22.9004 1.31836 25.1953 3.66211 28.125 3.66211ZM28.3691-67.4805C34.0332-67.4805 38.4766-71.9238 38.4766-77.5879C38.4766-83.252 34.0332-87.6953 28.3691-87.6953C22.7051-87.6953 18.2617-83.252 18.2617-77.5879C18.2617-71.9238 22.7051-67.4805 28.3691-67.4805ZM28.3691-74.5117C26.6602-74.5117 25.293-75.8789 25.293-77.5879C25.293-79.2969 26.6602-80.6641 28.3691-80.6641C30.0781-80.6641 31.4453-79.2969 31.4453-77.5879C31.4453-75.8789 30.0781-74.5117 28.3691-74.5117Z"/>
  </g>
  <g id="Heavy-S" transform="matrix(1 0 0 1 2583.85 696)">
   <path d="M49.6382-59.4166C54.8364-59.4166 59.1042-63.6728 59.1042-68.8825C59.1042-74.0923 54.8364-78.3485 49.6382-78.3485C44.4284-78.3485 40.1722-74.0923 40.1722-68.8825C40.1722-63.6728 44.4284-59.4166 49.6382-59.4166ZM27.6525 3.07436L46.4507 3.07436C48.2255 3.07436 50.0261 2.27886 51.0312 0.440977L58.847-13.9469C59.14-14.5329 59.8724-14.484 60.0677-13.8981L63.8281-3.83225L48.0796 6.61697C45.8138 8.11033 45.2509 11.1974 46.7328 13.5121C48.2146 15.7894 51.3017 16.4154 53.579 14.8962L72.0355 2.62065C74.1405 1.21343 75.1686-1.1012 74.5569-3.57385L63.2952-48.365C63.0538-49.3449 63.1833-49.9396 64.0337-50.3648L93.1774-64.9496C95.6385-66.1988 96.6063-69.2113 95.4059-71.6121C94.1567-74.1105 91.1931-75.1271 88.7319-73.8779L28.7179-43.7976L20.0605-52.4551C19.6956-52.8199 19.3796-53.1359 19.0148-53.4777L28.3376-69.9003L22.2101-73.4493L10.3773-52.6443C9.30039-50.7461 9.66797-48.601 11.2102-47.0473L24.1748-34.2692C25.4728-33.0084 27.799-32.236 30.2601-33.4852L43.9666-40.393C44.8685-40.844 45.6355-40.4791 45.8308-39.6117L49.8693-23.274L43.266-6.87051L27.6525-6.87051C24.8726-6.87051 22.693-4.65353 22.693-1.88519C22.693 0.845856 24.8726 3.07436 27.6525 3.07436ZM27.8966-67.3883C33.3533-67.3883 37.6698-71.7049 37.6698-77.1615C37.6698-82.6181 33.3533-86.9232 27.8966-86.9232C22.44-86.9232 18.1234-82.6181 18.1234-77.1615C18.1234-71.7049 22.44-67.3883 27.8966-67.3883ZM27.8966-73.8779C26.0494-73.8779 24.613-75.3142 24.613-77.1615C24.613-78.9972 26.0494-80.4451 27.8966-80.4451C29.7324-80.4451 31.1802-78.9972 31.1802-77.1615C31.1802-75.3142 29.7324-73.8779 27.8966-73.8779Z"/>
  </g>
  <g id="Bold-S" transform="matrix(1 0 0 1 2287.93 696)">
   <path d="M48.6328-58.8623C53.6377-58.8623 57.7637-62.9639 57.7637-67.9932C57.7637-73.0225 53.6377-77.124 48.6328-77.124C43.6035-77.124 39.502-73.0225 39.502-67.9932C39.502-62.9639 43.6035-58.8623 48.6328-58.8623ZM27.124 2.41699L45.7031 2.41699C47.3877 2.41699 49.0723 1.66016 50-0.0488281L57.9834-14.7461C58.2764-15.332 59.0088-15.2832 59.2041-14.6973L63.1836-4.07715L47.4609 6.37207C45.3369 7.78809 44.7998 10.6689 46.1914 12.8418C47.583 14.9902 50.4639 15.5518 52.6123 14.1357L70.8496 2.00195C72.8516 0.65918 73.8281-1.51367 73.2422-3.85742L62.1094-48.1201C61.8164-49.2676 62.0361-49.9268 62.9639-50.3906L91.7725-64.7949C94.0918-65.9668 94.9951-68.7988 93.8721-71.0449C92.7002-73.3887 89.917-74.3408 87.5977-73.1689L28.125-43.3594L19.2871-52.1973C18.8965-52.5879 18.5547-52.9297 18.1641-53.2715L27.3193-69.3848L21.875-72.5342L10.3516-52.2705C9.32617-50.4883 9.66797-48.5107 11.1328-47.0215L23.8525-34.4238C25.0732-33.2275 27.2705-32.5195 29.5898-33.6914L43.335-40.625C44.2627-41.0889 45.0684-40.6982 45.2637-39.8438L49.3408-23.3643L42.7246-6.90918L27.124-6.90918C24.5117-6.90918 22.4609-4.83398 22.4609-2.24609C22.4609 0.317383 24.5117 2.41699 27.124 2.41699ZM27.3682-67.2852C32.5928-67.2852 36.7676-71.46 36.7676-76.6846C36.7676-81.9092 32.5928-86.0596 27.3682-86.0596C22.1436-86.0596 17.9688-81.9092 17.9688-76.6846C17.9688-71.46 22.1436-67.2852 27.3682-67.2852ZM27.3682-73.1689C25.3662-73.1689 23.8525-74.6826 23.8525-76.6846C23.8525-78.6621 25.3662-80.2002 27.3682-80.2002C29.3457-80.2002 30.8838-78.6621 30.8838-76.6846C30.8838-74.6826 29.3457-73.1689 27.3682-73.1689Z"/>
  </g>
  <g id="Semibold-S" transform="matrix(1 0 0 1 1991.76 696)">
   <path d="M47.9396-58.4802C52.8112-58.4802 56.8395-62.4751 56.8395-67.38C56.8395-72.2849 52.8112-76.2798 47.9396-76.2798C43.0348-76.2798 39.0398-72.2849 39.0398-67.38C39.0398-62.4751 43.0348-58.4802 47.9396-58.4802ZM26.7597 1.96377L45.1877 1.96377C46.8101 1.96377 48.4146 1.23359 49.2891-0.386523L57.388-15.2971C57.681-15.883 58.4134-15.8342 58.6087-15.2482L62.7393-4.246L47.0344 6.20322C45.0081 7.56592 44.4888 10.3046 45.8182 12.3797C47.1476 14.4393 49.8862 14.9563 51.9458 13.6114L70.032 1.57539C71.9629 0.277051 72.9039-1.79805 72.3357-4.05293L61.2918-47.9513C60.9633-49.2143 61.2452-49.9179 62.2263-50.4084L90.8038-64.6883C93.0254-65.8068 93.8843-68.5145 92.8146-70.6539C91.696-72.891 89.0372-73.7987 86.8156-72.6802L27.7162-43.0572L18.7539-52.0195C18.3455-52.4279 17.9859-52.7875 17.5775-53.1293L26.6173-69.0293L21.6439-71.9032L10.3338-52.0128C9.34395-50.3105 9.66797-48.4485 11.0795-47.0037L23.6304-34.5305C24.7978-33.3786 26.9062-32.715 29.1277-33.8336L42.8995-40.785C43.845-41.2577 44.6773-40.8493 44.8727-40.0037L48.9765-23.4265L42.3514-6.93584L26.7597-6.93584C24.2629-6.93584 22.301-4.9584 22.301-2.49492C22.301-0.0469727 24.2629 1.96377 26.7597 1.96377ZM27.0038-67.2141C32.0685-67.2141 36.1455-71.2911 36.1455-76.3558C36.1455-81.4204 32.0685-85.4642 27.0038-85.4642C21.9392-85.4642 17.8621-81.4204 17.8621-76.3558C17.8621-71.2911 21.9392-67.2141 27.0038-67.2141ZM27.0038-72.6802C24.8952-72.6802 23.3282-74.2472 23.3282-76.3558C23.3282-78.4311 24.8952-80.0313 27.0038-80.0313C29.0791-80.0313 30.6794-78.4311 30.6794-76.3558C30.6794-74.2472 29.0791-72.6802 27.0038-72.6802Z"/>
  </g>
  <g id="Medium-S" transform="matrix(1 0 0 1 1695.46 696)">
   <path d="M47.4141-58.1904C52.1846-58.1904 56.1387-62.1045 56.1387-66.915C56.1387-71.7256 52.1846-75.6396 47.4141-75.6396C42.6035-75.6396 38.6895-71.7256 38.6895-66.915C38.6895-62.1045 42.6035-58.1904 47.4141-58.1904ZM26.4834 1.62012L44.7969 1.62012C46.3721 1.62012 47.916 0.910156 48.75-0.642578L56.9365-15.7148C57.2295-16.3008 57.9619-16.252 58.1572-15.666L62.4023-4.37402L46.7109 6.0752C44.7588 7.39746 44.2529 10.0283 45.5352 12.0293C46.8174 14.0215 49.4482 14.5049 51.4404 13.2139L69.4121 1.25195C71.2891-0.0126953 72.2031-2.01367 71.6484-4.20117L60.6719-47.8232C60.3164-49.1738 60.6455-49.9111 61.667-50.4219L90.0693-64.6074C92.2168-65.6855 93.042-68.2988 92.0127-70.3574C90.9346-72.5137 88.3701-73.3877 86.2227-72.3096L27.4062-42.8281L18.3496-51.8848C17.9277-52.3066 17.5547-52.6797 17.1328-53.0215L26.085-68.7598L21.4688-71.4248L10.3203-51.8174C9.35742-50.1758 9.66797-48.4014 11.0391-46.9902L23.4619-34.6113C24.5889-33.4932 26.6299-32.8633 28.7773-33.9414L42.5693-40.9062C43.5283-41.3857 44.3809-40.9639 44.5762-40.125L48.7002-23.4736L42.0684-6.95605L26.4834-6.95605C24.0742-6.95605 22.1797-5.05273 22.1797-2.68359C22.1797-0.323242 24.0742 1.62012 26.4834 1.62012ZM26.7275-67.1602C31.6709-67.1602 35.6738-71.1631 35.6738-76.1064C35.6738-81.0498 31.6709-85.0127 26.7275-85.0127C21.7842-85.0127 17.7812-81.0498 17.7812-76.1064C17.7812-71.1631 21.7842-67.1602 26.7275-67.1602ZM26.7275-72.3096C24.5381-72.3096 22.9307-73.917 22.9307-76.1064C22.9307-78.2559 24.5381-79.9033 26.7275-79.9033C28.877-79.9033 30.5244-78.2559 30.5244-76.1064C30.5244-73.917 28.877-72.3096 26.7275-72.3096Z"/>
  </g>
  <g id="Regular-S" transform="matrix(1 0 0 1 1399.28 696)">
   <path d="M46.7285-57.8125C51.3672-57.8125 55.2246-61.6211 55.2246-66.3086C55.2246-70.9961 51.3672-74.8047 46.7285-74.8047C42.041-74.8047 38.2324-70.9961 38.2324-66.3086C38.2324-61.6211 42.041-57.8125 46.7285-57.8125ZM26.123 1.17188L44.2871 1.17188C45.8008 1.17188 47.2656 0.488281 48.0469-0.976562L56.3477-16.2598C56.6406-16.8457 57.373-16.7969 57.5684-16.2109L61.9629-4.54102L46.2891 5.9082C44.4336 7.17773 43.9453 9.66797 45.166 11.5723C46.3867 13.4766 48.877 13.916 50.7812 12.6953L68.6035 0.830078C70.4102-0.390625 71.2891-2.29492 70.752-4.39453L59.8633-47.6562C59.4727-49.1211 59.8633-49.9023 60.9375-50.4395L89.1113-64.502C91.1621-65.5273 91.9434-68.0176 90.9668-69.9707C89.9414-72.0215 87.5-72.8516 85.4492-71.8262L27.002-42.5293L17.8223-51.709C17.3828-52.1484 16.9922-52.5391 16.5527-52.8809L25.3906-68.4082L21.2402-70.8008L10.3027-51.5625C9.375-50 9.66797-48.3398 10.9863-46.9727L23.2422-34.7168C24.3164-33.6426 26.2695-33.0566 28.3203-34.082L42.1387-41.0645C43.1152-41.5527 43.9941-41.1133 44.1895-40.2832L48.3398-23.5352L41.6992-6.98242L26.123-6.98242C23.8281-6.98242 22.0215-5.17578 22.0215-2.92969C22.0215-0.683594 23.8281 1.17188 26.123 1.17188ZM26.3672-67.0898C31.1523-67.0898 35.0586-70.9961 35.0586-75.7812C35.0586-80.5664 31.1523-84.4238 26.3672-84.4238C21.582-84.4238 17.6758-80.5664 17.6758-75.7812C17.6758-70.9961 21.582-67.0898 26.3672-67.0898ZM26.3672-71.8262C24.0723-71.8262 22.4121-73.4863 22.4121-75.7812C22.4121-78.0273 24.0723-79.7363 26.3672-79.7363C28.6133-79.7363 30.3223-78.0273 30.3223-75.7812C30.3223-73.4863 28.6133-71.8262 26.3672-71.8262Z"/>
  </g>
  <g id="Light-S" transform="matrix(1 0 0 1 1103.81 696)">
   <path d="M45.457-57.0557C49.9595-57.0557 53.6655-60.728 53.6655-65.249C53.6655-69.7852 49.9595-73.4575 45.457-73.4575C40.936-73.4575 37.2637-69.7852 37.2637-65.249C37.2637-60.728 40.936-57.0557 45.457-57.0557ZM25.6084 0.309089L43.2427 0.309089C44.7109 0.309089 46.1304-0.359368 46.8814-1.7788L54.9097-16.5625C55.2026-17.1333 55.9502-17.0845 56.1455-16.4985L60.3735-5.2373L45.1841 4.90919C43.3892 6.11817 42.916 8.53272 44.0913 10.3765C45.2817 12.2202 47.6812 12.6597 49.5249 11.4692L66.8325-0.032708C68.5635-1.208 69.4121-3.05175 68.8902-5.09081L58.3496-47.0508C57.9741-48.4702 58.3496-49.2212 59.3936-49.7432L86.7197-63.3818C88.6948-64.377 89.461-66.7915 88.5147-68.6992C87.5196-70.6895 85.1538-71.4893 83.1636-70.4942L26.457-42.0752L17.2773-51.2549C16.7471-51.7852 16.2051-52.1606 15.6143-52.4116L24.6035-68.1812L21.2251-70.1348L10.2876-50.9419C9.35986-49.3491 9.71338-47.6436 10.9409-46.3823L22.8184-34.52C23.8623-33.4761 25.7549-32.9053 27.7451-33.9004L41.1548-40.6558C42.1011-41.1289 42.9497-40.6895 43.145-39.8897L47.1592-23.6714L40.7305-7.61816L25.6084-7.61816C23.3892-7.61816 21.6582-5.85693 21.6582-3.67138C21.6582-1.50097 23.3892 0.309089 25.6084 0.309089ZM25.8677-67.0898C30.3652-67.0898 33.9233-70.6631 33.9233-75.1455C33.9233-79.6431 30.3652-83.1675 25.8677-83.1675C21.3853-83.1675 17.812-79.6431 17.812-75.1455C17.812-70.6631 21.3853-67.0898 25.8677-67.0898ZM25.8677-70.9482C23.4517-70.9482 21.6704-72.7446 21.6704-75.1455C21.6704-77.5278 23.4517-79.3428 25.8677-79.3428C28.25-79.3428 30.0801-77.5278 30.0801-75.1455C30.0801-72.7446 28.25-70.9482 25.8677-70.9482Z"/>
  </g>
  <g id="Thin-S" transform="matrix(1 0 0 1 808.726 696)">
   <path d="M43.7754-56.0547C48.0977-56.0547 51.6035-59.5469 51.6035-63.8477C51.6035-68.1836 48.0977-71.6758 43.7754-71.6758C39.4746-71.6758 35.9824-68.1836 35.9824-63.8477C35.9824-59.5469 39.4746-56.0547 43.7754-56.0547ZM24.9277-0.832015L41.8613-0.832015C43.2696-0.832015 44.6289-1.48045 45.3399-2.83983L53.0078-16.9629C53.3008-17.5137 54.0684-17.4648 54.2637-16.8789L58.2715-6.15819L43.7227 3.58791C42.0078 4.71682 41.5547 7.03127 42.6699 8.79494C43.8203 10.5586 46.0996 10.9981 47.8633 9.84768L64.4903-1.17381C66.1211-2.28905 66.9297-4.05272 66.4278-6.01171L56.3477-46.25C55.9922-47.6094 56.3477-48.3203 57.3516-48.8223L83.5567-61.9004C85.4317-62.8555 86.1778-65.1699 85.2715-67.0176C84.3165-68.9278 82.0508-69.6875 80.1407-68.7324L25.7363-41.4746L16.5567-50.6543C15.9063-51.3047 15.1641-51.6602 14.3731-51.791L23.5625-67.8809L21.2051-69.2539L10.2676-50.1211C9.33984-48.4883 9.77344-46.7227 10.8809-45.6016L22.2578-34.2598C23.2617-33.2559 25.0742-32.7051 26.9844-33.6602L39.8535-40.1152C40.7598-40.5684 41.5684-40.1289 41.7637-39.3691L45.5977-23.8516L39.4492-8.45897L24.9277-8.45897C22.8086-8.45897 21.1777-6.7578 21.1777-4.65233C21.1777-2.58202 22.8086-0.832015 24.9277-0.832015ZM25.207-67.0898C29.3242-67.0898 32.4219-70.2227 32.4219-74.3047C32.4219-78.4219 29.3242-81.5059 25.207-81.5059C21.125-81.5059 17.9922-78.4219 17.9922-74.3047C17.9922-70.2227 21.125-67.0898 25.207-67.0898ZM25.207-69.7871C22.6309-69.7871 20.6895-71.7637 20.6895-74.3047C20.6895-76.8672 22.6309-78.8223 25.207-78.8223C27.7695-78.8223 29.7598-76.8672 29.7598-74.3047C29.7598-71.7637 27.7695-69.7871 25.207-69.7871Z"/>
  </g>
  <g id="Ultralight-S" transform="matrix(1 0 0 1 512.85 696)">
   <path d="M42.9141-55.542C47.1441-55.542 50.5474-58.9419 50.5474-63.1299C50.5474-67.3633 47.1441-70.7632 42.9141-70.7632C38.7261-70.7632 35.3262-67.3633 35.3262-63.1299C35.3262-58.9419 38.7261-55.542 42.9141-55.542ZM24.5791-1.41648L41.1538-1.41648C42.5313-1.41648 43.8599-2.05467 44.5503-3.38328L52.0337-17.168C52.3267-17.7085 53.1045-17.6597 53.2998-17.0737L57.1949-6.62987L42.9741 2.91116C41.3003 3.99905 40.8574 6.26223 41.9419 7.98489C43.0718 9.70755 45.2896 10.147 47.0122 9.01712L63.2906-1.75828C64.8702-2.84275 65.6582-4.56541 65.1665-6.48338L55.3223-45.8399C54.9771-47.1685 55.3223-47.8589 56.3057-48.3506L81.9366-61.1416C83.7603-62.0762 84.4962-64.3394 83.6104-66.1563C82.6758-68.0254 80.4615-68.7647 78.5923-67.8301L25.3672-41.167L16.1875-50.3467C15.4756-51.0586 14.6309-51.4038 13.7373-51.4732L23.0293-67.7271L21.1948-68.8028L10.2573-49.7007C9.32959-48.0474 9.8042-46.251 10.8501-45.2017L21.9707-34.1265C22.9541-33.1431 24.7256-32.6025 26.5947-33.5371L39.187-39.8384C40.0728-40.2813 40.8609-39.8418 41.0562-39.1025L44.7979-23.9438L38.793-8.88963L24.5791-8.88963C22.5112-8.88963 20.9316-7.21922 20.9316-5.15477C20.9316-3.13572 22.5112-1.41648 24.5791-1.41648ZM24.8687-67.0898C28.791-67.0898 31.6529-69.9971 31.6529-73.874C31.6529-77.7964 28.791-80.6548 24.8687-80.6548C20.9917-80.6548 18.0845-77.7964 18.0845-73.874C18.0845-69.9971 20.9917-67.0898 24.8687-67.0898ZM24.8687-69.1924C22.2105-69.1924 20.187-71.2612 20.187-73.874C20.187-76.5288 22.2105-78.5557 24.8687-78.5557C27.5234-78.5557 29.5957-76.5288 29.5957-73.874C29.5957-71.2612 27.5234-69.1924 24.8687-69.1924Z"/>
  </g>
 </g>
</svg>
