<?xml version="1.0" encoding="UTF-8"?>
<!--Generator: Apple Native CoreSVG 175.5-->
<!DOCTYPE svg
PUBLIC "-//W3C//DTD SVG 1.1//EN"
       "http://www.w3.org/Graphics/SVG/1.1/DTD/svg11.dtd">
<svg version="1.1" xmlns="http://www.w3.org/2000/svg" xmlns:xlink="http://www.w3.org/1999/xlink" width="3300" height="2200">
 <!--glyph: "uni1006E5.medium", point size: 100.0, font version: "18.0d12e2", template writer version: "101"-->
 <g id="Notes">
  <rect height="2200" id="artboard" style="fill:white;opacity:1" width="3300" x="0" y="0"/>
  <line style="fill:none;stroke:black;opacity:1;stroke-width:0.5;" x1="263" x2="3036" y1="292" y2="292"/>
  <text style="stroke:none;fill:black;font-family:sans-serif;font-size:13;font-weight:bold;" transform="matrix(1 0 0 1 263 322)">Weight/Scale Variations</text>
  <text style="stroke:none;fill:black;font-family:sans-serif;font-size:13;text-anchor:middle;" transform="matrix(1 0 0 1 559.711 322)">Ultralight</text>
  <text style="stroke:none;fill:black;font-family:sans-serif;font-size:13;text-anchor:middle;" transform="matrix(1 0 0 1 856.422 322)">Thin</text>
  <text style="stroke:none;fill:black;font-family:sans-serif;font-size:13;text-anchor:middle;" transform="matrix(1 0 0 1 1153.13 322)">Light</text>
  <text style="stroke:none;fill:black;font-family:sans-serif;font-size:13;text-anchor:middle;" transform="matrix(1 0 0 1 1449.84 322)">Regular</text>
  <text style="stroke:none;fill:black;font-family:sans-serif;font-size:13;text-anchor:middle;" transform="matrix(1 0 0 1 1746.56 322)">Medium</text>
  <text style="stroke:none;fill:black;font-family:sans-serif;font-size:13;text-anchor:middle;" transform="matrix(1 0 0 1 2043.27 322)">Semibold</text>
  <text style="stroke:none;fill:black;font-family:sans-serif;font-size:13;text-anchor:middle;" transform="matrix(1 0 0 1 2339.98 322)">Bold</text>
  <text style="stroke:none;fill:black;font-family:sans-serif;font-size:13;text-anchor:middle;" transform="matrix(1 0 0 1 2636.69 322)">Heavy</text>
  <text style="stroke:none;fill:black;font-family:sans-serif;font-size:13;text-anchor:middle;" transform="matrix(1 0 0 1 2933.4 322)">Black</text>
  <line style="fill:none;stroke:black;opacity:1;stroke-width:0.5;" x1="263" x2="3036" y1="1903" y2="1903"/>
  <g transform="matrix(1 0 0 1 263 1933)">
   <path d="M9.24805 0.830078C13.5547 0.830078 17.1387-2.74414 17.1387-7.05078C17.1387-11.3574 13.5449-14.9316 9.23828-14.9316C4.94141-14.9316 1.36719-11.3574 1.36719-7.05078C1.36719-2.74414 4.95117 0.830078 9.24805 0.830078ZM9.24805-0.654297C5.70312-0.654297 2.87109-3.49609 2.87109-7.05078C2.87109-10.6055 5.69336-13.4473 9.23828-13.4473C12.793-13.4473 15.6445-10.6055 15.6445-7.05078C15.6445-3.49609 12.8027-0.654297 9.24805-0.654297ZM5.6543-7.05078C5.6543-6.62109 5.95703-6.32812 6.40625-6.32812L8.50586-6.32812L8.50586-4.20898C8.50586-3.76953 8.79883-3.4668 9.22852-3.4668C9.67773-3.4668 9.9707-3.76953 9.9707-4.20898L9.9707-6.32812L12.0898-6.32812C12.5293-6.32812 12.832-6.62109 12.832-7.05078C12.832-7.49023 12.5293-7.79297 12.0898-7.79297L9.9707-7.79297L9.9707-9.90234C9.9707-10.3516 9.67773-10.6543 9.22852-10.6543C8.79883-10.6543 8.50586-10.3516 8.50586-9.90234L8.50586-7.79297L6.40625-7.79297C5.95703-7.79297 5.6543-7.49023 5.6543-7.05078Z"/>
  </g>
  <g transform="matrix(1 0 0 1 281.867 1933)">
   <path d="M11.709 2.91016C17.1582 2.91016 21.6699-1.61133 21.6699-7.05078C21.6699-12.5 17.1484-17.0117 11.6992-17.0117C6.25977-17.0117 1.74805-12.5 1.74805-7.05078C1.74805-1.61133 6.26953 2.91016 11.709 2.91016ZM11.709 1.25C7.09961 1.25 3.41797-2.44141 3.41797-7.05078C3.41797-11.6602 7.08984-15.3516 11.6992-15.3516C16.3086-15.3516 20.0098-11.6602 20.0098-7.05078C20.0098-2.44141 16.3184 1.25 11.709 1.25ZM7.17773-7.05078C7.17773-6.57227 7.50977-6.25 8.00781-6.25L10.8789-6.25L10.8789-3.36914C10.8789-2.88086 11.2109-2.53906 11.6895-2.53906C12.1777-2.53906 12.5195-2.87109 12.5195-3.36914L12.5195-6.25L15.4004-6.25C15.8887-6.25 16.2305-6.57227 16.2305-7.05078C16.2305-7.53906 15.8887-7.88086 15.4004-7.88086L12.5195-7.88086L12.5195-10.752C12.5195-11.25 12.1777-11.5918 11.6895-11.5918C11.2109-11.5918 10.8789-11.25 10.8789-10.752L10.8789-7.88086L8.00781-7.88086C7.50977-7.88086 7.17773-7.53906 7.17773-7.05078Z"/>
  </g>
  <g transform="matrix(1 0 0 1 305.646 1933)">
   <path d="M14.9707 5.66406C21.9336 5.66406 27.6953-0.0976562 27.6953-7.05078C27.6953-14.0137 21.9238-19.7754 14.9609-19.7754C8.00781-19.7754 2.25586-14.0137 2.25586-7.05078C2.25586-0.0976562 8.01758 5.66406 14.9707 5.66406ZM14.9707 3.84766C8.93555 3.84766 4.08203-1.01562 4.08203-7.05078C4.08203-13.0957 8.92578-17.9492 14.9609-17.9492C21.0059-17.9492 25.8691-13.0957 25.8691-7.05078C25.8691-1.01562 21.0156 3.84766 14.9707 3.84766ZM9.19922-7.05078C9.19922-6.5332 9.57031-6.17188 10.1172-6.17188L14.0625-6.17188L14.0625-2.2168C14.0625-1.67969 14.4336-1.29883 14.9512-1.29883C15.4883-1.29883 15.8594-1.66992 15.8594-2.2168L15.8594-6.17188L19.8145-6.17188C20.3516-6.17188 20.7324-6.5332 20.7324-7.05078C20.7324-7.59766 20.3613-7.96875 19.8145-7.96875L15.8594-7.96875L15.8594-11.9141C15.8594-12.4609 15.4883-12.8418 14.9512-12.8418C14.4336-12.8418 14.0625-12.4609 14.0625-11.9141L14.0625-7.96875L10.1172-7.96875C9.57031-7.96875 9.19922-7.59766 9.19922-7.05078Z"/>
  </g>
  <text style="stroke:none;fill:black;font-family:sans-serif;font-size:13;font-weight:bold;" transform="matrix(1 0 0 1 263 1953)">Design Variations</text>
  <text style="stroke:none;fill:black;font-family:sans-serif;font-size:13;" transform="matrix(1 0 0 1 263 1971)">Symbols are supported in up to nine weights and three scales.</text>
  <text style="stroke:none;fill:black;font-family:sans-serif;font-size:13;" transform="matrix(1 0 0 1 263 1989)">For optimal layout with text and other symbols, vertically align</text>
  <text style="stroke:none;fill:black;font-family:sans-serif;font-size:13;" transform="matrix(1 0 0 1 263 2007)">symbols with the adjacent text.</text>
  <line style="fill:none;stroke:#00AEEF;stroke-width:0.5;opacity:1.0;" x1="776" x2="776" y1="1919" y2="1933"/>
  <g transform="matrix(1 0 0 1 776 1933)">
   <path d="M3.31055 0.15625C3.82812 0.15625 4.08203-0.0390625 4.26758-0.585938L5.52734-4.0332L11.2891-4.0332L12.5488-0.585938C12.7344-0.0390625 12.9883 0.15625 13.4961 0.15625C14.0137 0.15625 14.3457-0.15625 14.3457-0.644531C14.3457-0.810547 14.3164-0.966797 14.2383-1.17188L9.6582-13.3691C9.43359-13.9648 9.0332-14.2676 8.4082-14.2676C7.80273-14.2676 7.39258-13.9746 7.17773-13.3789L2.59766-1.16211C2.51953-0.957031 2.49023-0.800781 2.49023-0.634766C2.49023-0.146484 2.80273 0.15625 3.31055 0.15625ZM6.00586-5.51758L8.37891-12.0898L8.42773-12.0898L10.8008-5.51758Z"/>
  </g>
  <line style="fill:none;stroke:#00AEEF;stroke-width:0.5;opacity:1.0;" x1="793.197" x2="793.197" y1="1919" y2="1933"/>
  <text style="stroke:none;fill:black;font-family:sans-serif;font-size:13;font-weight:bold;" transform="matrix(1 0 0 1 776 1953)">Margins</text>
  <text style="stroke:none;fill:black;font-family:sans-serif;font-size:13;" transform="matrix(1 0 0 1 776 1971)">Leading and trailing margins on the left and right side of each symbol</text>
  <text style="stroke:none;fill:black;font-family:sans-serif;font-size:13;" transform="matrix(1 0 0 1 776 1989)">can be adjusted by modifying the x-location of the margin guidelines.</text>
  <text style="stroke:none;fill:black;font-family:sans-serif;font-size:13;" transform="matrix(1 0 0 1 776 2007)">Modifications are automatically applied proportionally to all</text>
  <text style="stroke:none;fill:black;font-family:sans-serif;font-size:13;" transform="matrix(1 0 0 1 776 2025)">scales and weights.</text>
  <g transform="matrix(1 0 0 1 1289 1933)">
   <path d="M2.8418 1.86523L4.54102 3.57422C5.40039 4.44336 6.38672 4.38477 7.31445 3.35938L18.0078-8.42773L17.041-9.4043L6.42578 2.27539C6.07422 2.67578 5.74219 2.77344 5.27344 2.30469L4.10156 1.14258C3.63281 0.683594 3.74023 0.341797 4.14062-0.0195312L15.6152-10.8203L14.6387-11.7871L3.04688-0.898438C2.06055 0.0195312 1.98242 0.996094 2.8418 1.86523ZM9.25781-16.3281C8.83789-15.918 8.80859-15.3418 9.04297-14.9512C9.27734-14.5898 9.73633-14.3555 10.3809-14.5215C11.8457-14.8633 13.3691-14.9219 14.7949-13.9844L14.209-12.5293C13.8672-11.6992 14.043-11.1133 14.5801-10.5664L16.875-8.25195C17.3633-7.76367 17.7734-7.74414 18.3398-7.8418L19.4043-8.03711L20.0684-7.36328L20.0293-6.80664C19.9902-6.30859 20.1172-5.92773 20.6055-5.44922L21.3672-4.70703C21.8457-4.22852 22.4609-4.19922 22.9297-4.66797L25.8398-7.58789C26.3086-8.05664 26.2891-8.65234 25.8105-9.13086L25.0391-9.89258C24.5605-10.3711 24.1895-10.5273 23.7109-10.4883L23.1348-10.4395L22.4902-11.0742L22.7344-12.1973C22.8613-12.7637 22.7051-13.2031 22.1191-13.7891L19.9219-15.9766C16.582-19.2969 12.1484-19.2188 9.25781-16.3281ZM10.752-15.957C13.1836-17.7344 16.4746-17.4316 18.7012-15.2051L21.1328-12.793C21.3672-12.5586 21.4062-12.373 21.3379-12.0312L21.0156-10.5469L22.5195-9.0625L23.5059-9.12109C23.7598-9.13086 23.8379-9.11133 24.0332-8.91602L24.6094-8.33984L22.168-5.89844L21.5918-6.47461C21.3965-6.66992 21.3672-6.74805 21.377-7.01172L21.4453-7.98828L19.9512-9.47266L18.4277-9.21875C18.1055-9.15039 17.959-9.17969 17.7148-9.41406L15.7129-11.416C15.459-11.6504 15.4297-11.8164 15.5859-12.1875L16.4648-14.2773C14.9023-15.7324 12.8711-16.3574 10.8398-15.7617C10.6836-15.7227 10.625-15.8496 10.752-15.957Z"/>
  </g>
  <text style="stroke:none;fill:black;font-family:sans-serif;font-size:13;font-weight:bold;" transform="matrix(1 0 0 1 1289 1953)">Exporting</text>
  <text style="stroke:none;fill:black;font-family:sans-serif;font-size:13;" transform="matrix(1 0 0 1 1289 1971)">Symbols should be outlined when exporting to ensure the</text>
  <text style="stroke:none;fill:black;font-family:sans-serif;font-size:13;" transform="matrix(1 0 0 1 1289 1989)">design is preserved when submitting to Xcode.</text>
  <text id="template-version" style="stroke:none;fill:black;font-family:sans-serif;font-size:13;text-anchor:end;" transform="matrix(1 0 0 1 3036 1933)">Template v.4.0</text>
  <text style="stroke:none;fill:black;font-family:sans-serif;font-size:13;text-anchor:end;" transform="matrix(1 0 0 1 3036 1951)">Requires Xcode 14 or greater</text>
  <text id="descriptive-name" style="stroke:none;fill:black;font-family:sans-serif;font-size:13;text-anchor:end;" transform="matrix(1 0 0 1 3036 1969)">Generated from bolt.heart.fill</text>
  <text style="stroke:none;fill:black;font-family:sans-serif;font-size:13;text-anchor:end;" transform="matrix(1 0 0 1 3036 1987)">Typeset at 100 points</text>
  <text style="stroke:none;fill:black;font-family:sans-serif;font-size:13;" transform="matrix(1 0 0 1 263 726)">Small</text>
  <text style="stroke:none;fill:black;font-family:sans-serif;font-size:13;" transform="matrix(1 0 0 1 263 1156)">Medium</text>
  <text style="stroke:none;fill:black;font-family:sans-serif;font-size:13;" transform="matrix(1 0 0 1 263 1586)">Large</text>
 </g>
 <g id="Guides">
  <g id="H-reference" style="fill:#27AAE1;stroke:none;" transform="matrix(1 0 0 1 339 696)">
   <path d="M0.993654 0L3.63775 0L29.3281-67.1323L30.0303-67.1323L30.0303-70.459L28.1226-70.459ZM11.6885-24.4799L46.9815-24.4799L46.2315-26.7285L12.4385-26.7285ZM55.1196 0L57.7637 0L30.6382-70.459L29.4326-70.459L29.4326-67.1323Z"/>
  </g>
  <line id="Baseline-S" style="fill:none;stroke:#27AAE1;opacity:1;stroke-width:0.5;" x1="263" x2="3036" y1="696" y2="696"/>
  <line id="Capline-S" style="fill:none;stroke:#27AAE1;opacity:1;stroke-width:0.5;" x1="263" x2="3036" y1="625.541" y2="625.541"/>
  <g id="H-reference" style="fill:#27AAE1;stroke:none;" transform="matrix(1 0 0 1 339 1126)">
   <path d="M0.993654 0L3.63775 0L29.3281-67.1323L30.0303-67.1323L30.0303-70.459L28.1226-70.459ZM11.6885-24.4799L46.9815-24.4799L46.2315-26.7285L12.4385-26.7285ZM55.1196 0L57.7637 0L30.6382-70.459L29.4326-70.459L29.4326-67.1323Z"/>
  </g>
  <line id="Baseline-M" style="fill:none;stroke:#27AAE1;opacity:1;stroke-width:0.5;" x1="263" x2="3036" y1="1126" y2="1126"/>
  <line id="Capline-M" style="fill:none;stroke:#27AAE1;opacity:1;stroke-width:0.5;" x1="263" x2="3036" y1="1055.54" y2="1055.54"/>
  <g id="H-reference" style="fill:#27AAE1;stroke:none;" transform="matrix(1 0 0 1 339 1556)">
   <path d="M0.993654 0L3.63775 0L29.3281-67.1323L30.0303-67.1323L30.0303-70.459L28.1226-70.459ZM11.6885-24.4799L46.9815-24.4799L46.2315-26.7285L12.4385-26.7285ZM55.1196 0L57.7637 0L30.6382-70.459L29.4326-70.459L29.4326-67.1323Z"/>
  </g>
  <line id="Baseline-L" style="fill:none;stroke:#27AAE1;opacity:1;stroke-width:0.5;" x1="263" x2="3036" y1="1556" y2="1556"/>
  <line id="Capline-L" style="fill:none;stroke:#27AAE1;opacity:1;stroke-width:0.5;" x1="263" x2="3036" y1="1485.54" y2="1485.54"/>
  <line id="left-margin-Regular-M" style="fill:none;stroke:#00AEEF;stroke-width:0.5;opacity:1.0;" x1="1389.31" x2="1389.31" y1="1030.79" y2="1150.12"/>
  <line id="right-margin-Regular-M" style="fill:none;stroke:#00AEEF;stroke-width:0.5;opacity:1.0;" x1="1510.38" x2="1510.38" y1="1030.79" y2="1150.12"/>
 </g>
 <g id="Symbols">
  <g id="Black-L" transform="matrix(1 0 0 1 2851.76 1556)">
   <path d="M62.0635-29.1003C62.0635-29.9153 62.3816-30.7303 63.0006-31.3725L87.9996-61.5105C90.5666-64.6369 94.8196-62.332 93.3285-58.5294L85.6317-38.5262L100.11-38.5262C101.739-38.5262 103.032-37.3139 103.032-35.6863C103.032-34.8714 102.711-34.0355 102.072-33.4142L77.1529-3.27613C74.5483-0.149756 70.3109-2.4547 71.7656-6.25724L79.4624-26.2616L65.0423-26.2616C63.3551-26.2616 62.0635-27.4727 62.0635-29.1003ZM83.4579 29.4269C86.064 29.4269 89.9476 27.0685 93.7207 24.5348C127.968 1.88516 150.832-25.3672 150.832-52.5973C150.832-78.799 132.452-96.0272 111.338-96.0272C98.096-96.0272 88.9042-88.7678 83.4579-78.5528C78.0325-88.747 68.8199-96.0272 55.5778-96.0272C34.4638-96.0272 16.084-78.799 16.084-52.5973C16.084-25.3672 38.9463 1.88516 73.1952 24.5348C76.967 27.0685 80.8726 29.4269 83.4579 29.4269Z"/>
  </g>
  <g id="Heavy-L" transform="matrix(1 0 0 1 2556 1556)">
   <path d="M60.8948-28.5781C60.8948-29.3385 61.1997-30.0989 61.796-30.7367L87.0625-61.5045C89.4845-64.4726 93.4606-62.3221 92.0649-58.7187L84.1448-37.9715L99.0253-37.9715C100.54-37.9715 101.761-36.8315 101.761-35.3219C101.761-34.5616 101.445-33.771 100.818-33.1634L75.6322-2.39556C73.1958 0.572494 69.1983-1.57802 70.5853-5.18142L78.5054-25.9342L63.6695-25.9342C62.1097-25.9342 60.8948-27.0686 60.8948-28.5781ZM82.2452 28.1545C84.5403 28.1545 87.9303 26.1578 91.1123 24.0272C125.602 1.38919 148.406-25.6105 148.406-52.7213C148.406-77.9365 130.781-94.8007 110.004-94.8007C97.0106-94.8007 87.7305-87.6505 82.2452-77.4025C76.79-87.6203 67.4797-94.8007 54.4864-94.8007C33.7095-94.8007 16.084-77.9365 16.084-52.7213C16.084-25.6105 38.883 1.38919 73.3781 24.0272C76.5544 26.1578 79.9803 28.1545 82.2452 28.1545Z"/>
  </g>
  <g id="Bold-L" transform="matrix(1 0 0 1 2260.57 1556)">
   <path d="M59.4054-27.9699C59.4054-28.6612 59.6874-29.3525 60.2531-29.9826L85.8724-61.5192C88.1027-64.2727 91.7182-62.3217 90.4453-58.9866L82.2485-37.3323L97.6136-37.3323C98.9829-37.3323 100.104-36.2918 100.104-34.9357C100.104-34.2444 99.7953-33.5152 99.1917-32.923L73.6527-1.38643C71.4313 1.36705 67.7558-0.583931 69.0507-3.91906L77.2475-25.5866L61.9116-25.5866C60.5131-25.5866 59.4054-26.6138 59.4054-27.9699ZM80.7467 26.5196C82.6725 26.5196 85.4702 24.9463 87.9669 23.2854C122.614 0.692507 145.409-25.955 145.409-52.8601C145.409-76.8833 128.684-93.2868 108.33-93.2868C95.6734-93.2868 86.2409-86.2748 80.7467-76.0032C75.2904-86.2368 65.82-93.2868 53.1639-93.2868C32.8094-93.2868 16.084-76.8833 16.084-52.8601C16.084-25.955 38.8657 0.692507 73.5265 23.2854C76.0099 24.9463 78.8589 26.5196 80.7467 26.5196Z"/>
  </g>
  <g id="Semibold-L" transform="matrix(1 0 0 1 1964.75 1556)">
   <path d="M58.3787-27.5506C58.3787-28.1942 58.6449-28.8379 59.1895-29.4628L85.052-61.5293C87.1501-64.1349 90.517-62.3214 89.3287-59.1713L80.9413-36.8916L96.6403-36.8916C97.9091-36.8916 98.9614-35.9198 98.9614-34.6695C98.9614-34.0258 98.6582-33.3388 98.0702-32.7573L72.2881-0.690735C70.2148 1.91482 66.7613 0.101385 67.9928-3.04881L76.3803-25.347L60.6998-25.347C59.4124-25.347 58.3787-26.3003 58.3787-27.5506ZM79.7137 25.3926C81.3848 25.3926 83.7743 24.1111 85.7985 22.774C120.555 0.212221 143.343-26.1924 143.343-52.9558C143.343-76.1573 127.238-92.2431 107.175-92.2431C94.7515-92.2431 85.214-85.3264 79.7137-75.0385C74.2566-85.2831 64.6758-92.2431 52.2521-92.2431C32.1889-92.2431 16.084-76.1573 16.084-52.9558C16.084-26.1924 38.8538 0.212221 73.6289 22.774C75.6345 24.1111 78.0858 25.3926 79.7137 25.3926Z"/>
  </g>
  <g id="Medium-L" transform="matrix(1 0 0 1 1668.71 1556)">
   <path d="M57.6001-27.2327C57.6001-27.8402 57.8544-28.4477 58.3829-29.0686L84.4299-61.537C86.4277-64.0304 89.6062-62.3213 88.4821-59.3113L79.95-36.5574L95.9024-36.5574C97.0949-36.5574 98.0951-35.6377 98.0951-34.4676C98.0951-33.8601 97.7959-33.2051 97.2199-32.6317L71.2534-0.163233C69.2925 2.33015 66.0072 0.621021 67.1907-2.38894L75.7227-25.1653L59.7809-25.1653C58.5778-25.1653 57.6001-26.0626 57.6001-27.2327ZM78.9304 24.538C80.4085 24.538 82.4884 23.4779 84.1543 22.3862C118.993-0.151952 141.777-26.3725 141.777-53.0283C141.777-75.6067 126.142-91.4517 106.3-91.4517C94.0525-91.4517 84.4354-84.6073 78.9304-74.3071C73.4728-84.5599 63.8082-91.4517 51.5608-91.4517C31.7184-91.4517 16.084-75.6067 16.084-53.0283C16.084-26.3725 38.8448-0.151952 73.7064 22.3862C75.3499 23.4779 77.4997 24.538 78.9304 24.538Z"/>
  </g>
  <g id="Regular-L" transform="matrix(1 0 0 1 1372.87 1556)">
   <path d="M56.5846-26.818C56.5846-27.3783 56.8233-27.9387 57.331-28.5544L83.6185-61.547C85.4856-63.8941 88.4182-62.321 87.3778-59.4939L78.6572-36.1216L94.9398-36.1216C96.033-36.1216 96.9652-35.2697 96.9652-34.2042C96.9652-33.6438 96.6712-33.0307 96.1108-32.4678L69.9037 0.524813C68.0894 2.8719 65.0236 1.29881 66.1444-1.52825L74.8651-24.9283L58.5824-24.9283C57.4893-24.9283 56.5846-25.7525 56.5846-26.818ZM77.9087 23.4233C79.135 23.4233 80.811 22.6519 82.0097 21.8804C116.957-0.626961 139.733-26.6073 139.733-53.1229C139.733-74.8887 124.713-90.4195 105.158-90.4195C93.1408-90.4195 83.4198-83.6694 77.9087-73.353C72.4503-83.6166 62.6765-90.4195 50.6591-90.4195C31.1047-90.4195 16.084-74.8887 16.084-53.1229C16.084-26.6073 38.833-0.626961 73.8076 21.8804C74.9786 22.6519 76.7351 23.4233 77.9087 23.4233Z"/>
  </g>
  <g id="Light-L" transform="matrix(1 0 0 1 1077.74 1556)">
   <path d="M55.2868-26.6462C55.2868-27.1493 55.4683-27.6525 55.9377-28.2491L82.607-61.6997C84.2641-63.7796 86.8341-62.3973 85.9082-59.8947L76.9967-35.988L93.5275-35.988C94.487-35.988 95.2857-35.2697 95.2857-34.3569C95.2857-33.8538 95.0108-33.317 94.5077-32.754L67.9189 0.696581C66.2954 2.77647 63.6113 1.39423 64.6176-1.10837L73.5291-25.0619L56.9983-25.0619C56.0388-25.0619 55.2868-25.7334 55.2868-26.6462ZM76.8971 21.9156C77.9708 21.9156 79.3606 21.2777 80.3874 20.6399C114.533-1.63848 137.71-27.1226 137.71-53.1229C137.71-74.2589 123.09-89.408 103.86-89.408C92.2629-89.408 82.1601-82.7723 76.8971-72.5515C71.6678-82.7387 61.5314-89.408 49.9338-89.408C30.7039-89.408 16.084-74.2589 16.084-53.1229C16.084-27.1226 39.2147-1.63848 73.4068 20.6399C74.387 21.2777 75.8572 21.9156 76.8971 21.9156Z"/>
  </g>
  <g id="Thin-L" transform="matrix(1 0 0 1 783.107 1556)">
   <path d="M53.5704-26.419C53.5704-26.8464 53.6761-27.2738 54.0951-27.8452L81.2691-61.9016C82.6487-63.6281 84.739-62.4983 83.9646-60.4248L74.8007-35.8113L91.6596-35.8113C92.4425-35.8113 93.0645-35.2697 93.0645-34.5589C93.0645-34.1314 92.8148-33.6956 92.3873-33.1327L65.2937 0.923757C63.9226 2.65026 61.7434 1.52044 62.5982-0.553051L71.7622-25.2386L54.9032-25.2386C54.1204-25.2386 53.5704-25.7082 53.5704-26.419ZM75.5593 19.9215C76.431 19.9215 77.4422 19.4603 78.2419 18.9992C111.327-2.9763 135.035-27.8041 135.035-53.1229C135.035-73.4259 120.945-88.0702 102.144-88.0702C91.1017-88.0702 80.4942-81.586 75.5593-71.4913C70.6329-81.5775 60.0169-88.0702 48.9746-88.0702C30.1738-88.0702 16.084-73.4259 16.084-53.1229C16.084-27.8041 39.7196-2.9763 72.8768 18.9992C73.6045 19.4603 74.6961 19.9215 75.5593 19.9215Z"/>
  </g>
  <g id="Ultralight-L" transform="matrix(1 0 0 1 487.463 1556)">
   <path d="M52.6912-26.3027C52.6912-26.6913 52.7582-27.0799 53.1513-27.6383L80.5839-62.0051C81.8212-63.5506 83.6659-62.55 82.9691-60.6963L73.6759-35.7208L90.7029-35.7208C91.3952-35.7208 91.9267-35.2697 91.9267-34.6623C91.9267-34.2737 91.69-33.8895 91.3013-33.3266L63.9491 1.04012C62.7073 2.58562 60.7867 1.58508 61.5639-0.268619L70.8572-25.3291L53.8301-25.3291C53.1378-25.3291 52.6912-25.6952 52.6912-26.3027ZM74.8741 18.9001C75.6424 18.9001 76.4596 18.5294 77.1429 18.1588C109.685-3.66152 133.664-28.1532 133.664-53.1229C133.664-72.9992 119.846-87.385 101.265-87.385C90.507-87.385 79.6409-80.9783 74.8741-70.9483C70.1028-80.9828 59.2412-87.385 48.4833-87.385C29.9023-87.385 16.084-72.9992 16.084-53.1229C16.084-28.1532 39.9781-3.66152 72.6053 18.1588C73.2037 18.5294 74.1013 18.9001 74.8741 18.9001Z"/>
  </g>
  <g id="Black-M" transform="matrix(1 0 0 1 2869.55 1126)">
   <path d="M48.9118-30.9065C48.9118-31.5771 49.1619-32.2476 49.6557-32.7464L68.8453-55.6164C70.9303-58.1384 74.4141-56.2458 73.1924-53.1726L67.3955-38.2422L78.3007-38.2422C79.6421-38.2422 80.6877-37.259 80.6877-35.9173C80.6877-35.2467 80.4382-34.5707 79.9389-34.0774L60.8116-11.2074C58.675-8.6854 55.2375-10.578 56.4074-13.6512L62.2043-28.5813L51.3562-28.5813C49.9576-28.5813 48.9118-29.5648 48.9118-30.9065ZM65.5636 15.7518C67.8292 15.7518 71.2234 13.6319 74.6313 11.3406C100.848-6.18601 118.666-27.4495 118.666-48.5784C118.666-69.6406 103.833-83.2491 87.229-83.2491C76.8129-83.2491 69.7158-77.5466 65.5636-69.674C61.4168-77.5411 54.3142-83.2491 43.8981-83.2491C27.2946-83.2491 12.4609-69.6406 12.4609-48.5784C12.4609-27.4495 30.2794-6.18601 56.4959 11.3406C59.904 13.6319 63.3034 15.7518 65.5636 15.7518Z"/>
  </g>
  <g id="Heavy-M" transform="matrix(1 0 0 1 2573.62 1126)">
   <path d="M47.8891-30.4119C47.8891-31.0343 48.1314-31.6568 48.6067-32.153L68.0226-55.5964C69.9851-57.9883 73.2317-56.2291 72.0927-53.3206L66.095-37.7123L77.3704-37.7123C78.6131-37.7123 79.6003-36.7874 79.6003-35.547C79.6003-34.9245 79.3533-34.2856 78.8617-33.8059L59.5081-10.3624C57.5184-7.97055 54.2803-9.72979 55.3944-12.6382L61.392-28.2488L50.1603-28.2488C48.874-28.2488 47.8891-29.1714 47.8891-30.4119ZM64.4714 14.647C66.4471 14.647 69.3852 12.8684 72.231 10.9588C98.7581-6.57754 116.482-27.6398 116.482-48.6997C116.482-68.8555 102.349-82.1434 86.0445-82.1434C75.8329-82.1434 68.6847-76.5371 64.4714-68.6233C60.2744-76.5207 53.1098-82.1434 42.8982-82.1434C26.5941-82.1434 12.4609-68.8555 12.4609-48.6997C12.4609-27.6398 30.1823-6.57754 56.7117 10.9588C59.5553 12.8684 62.512 14.647 64.4714 14.647Z"/>
  </g>
  <g id="Bold-M" transform="matrix(1 0 0 1 2277.79 1126)">
   <path d="M46.7449-29.8585C46.7449-30.4272 46.9787-30.9959 47.4332-31.4892L67.1022-55.5741C68.9278-57.8204 71.909-56.2103 70.8625-53.4862L64.6403-37.1195L76.3297-37.1195C77.4619-37.1195 78.3839-36.2598 78.3839-35.1327C78.3839-34.5641 78.1398-33.9668 77.6568-33.5021L58.05-9.41721C56.2245-7.17088 53.2094-8.78094 54.2612-11.5051L60.4834-27.8769L48.8225-27.8769C47.6618-27.8769 46.7449-28.7315 46.7449-29.8585ZM63.2495 13.4111C64.9009 13.4111 67.3288 12.0143 69.546 10.5318C96.4202-7.01553 114.038-27.8527 114.038-48.8354C114.038-67.9773 100.689-80.9065 84.7195-80.9065C74.7366-80.9065 67.5312-75.4078 63.2495-67.4481C58.9965-75.3792 51.7625-80.9065 41.7796-80.9065C25.8105-80.9065 12.4609-67.9773 12.4609-48.8354C12.4609-27.8527 30.0737-7.01553 56.9531 10.5318C59.1651 12.0143 61.6268 13.4111 63.2495 13.4111Z"/>
  </g>
  <g id="Semibold-M" transform="matrix(1 0 0 1 1981.68 1126)">
   <path d="M45.9562-29.4771C45.9562-30.0087 46.1841-30.5403 46.6242-31.0316L66.4677-55.5587C68.1989-57.7047 70.9972-56.1975 70.0145-53.6003L63.6375-36.7108L75.6122-36.7108C76.6683-36.7108 77.5453-35.8961 77.5453-34.8472C77.5453-34.3156 77.3032-33.7469 76.8261-33.2926L57.0448-8.76558C55.3325-6.6196 52.4712-8.1268 53.4799-10.7239L59.8569-27.6205L47.9003-27.6205C46.8261-27.6205 45.9562-28.4281 45.9562-29.4771ZM62.4072 12.5591C63.835 12.5591 65.9112 11.4255 67.695 10.2373C94.8085-7.31747 112.354-27.9994 112.354-48.9289C112.354-67.3719 99.5441-80.0538 83.8061-80.0538C73.9809-80.0538 66.736-74.6293 62.4072-66.6379C58.1155-74.5923 50.8336-80.0538 41.0084-80.0538C25.2703-80.0538 12.4609-67.3719 12.4609-48.9289C12.4609-27.9994 29.9989-7.31747 57.1195 10.2373C58.8962 11.4255 61.0165 12.5591 62.4072 12.5591Z"/>
  </g>
  <g id="Medium-M" transform="matrix(1 0 0 1 1685.43 1126)">
   <path d="M45.3581-29.1879C45.3581-29.6913 45.5815-30.1948 46.0107-30.6846L65.9867-55.547C67.6462-57.6169 70.3058-56.1877 69.3714-53.6869L62.877-36.4009L75.0682-36.4009C76.0666-36.4009 76.9095-35.6204 76.9095-34.6306C76.9095-34.1272 76.6688-33.5803 76.1962-33.1338L56.2826-8.27148C54.6562-6.20159 51.9115-7.63081 52.8876-10.1316L59.3819-27.4261L47.201-27.4261C46.1924-27.4261 45.3581-28.1981 45.3581-29.1879ZM61.7686 11.9131C63.0268 11.9131 64.8363 10.979 66.2915 10.0141C93.5864-7.54642 111.076-28.1107 111.076-48.9998C111.076-66.9128 98.6764-79.4073 83.1135-79.4073C73.4078-79.4073 66.1331-74.039 61.7686-66.0235C57.4475-73.9956 50.1293-79.4073 40.4237-79.4073C24.8607-79.4073 12.4609-66.9128 12.4609-48.9998C12.4609-28.1107 29.9421-7.54642 57.2457 10.0141C58.6922 10.979 60.5538 11.9131 61.7686 11.9131Z"/>
  </g>
  <g id="Regular-M" transform="matrix(1 0 0 1 1389.31 1126)">
   <path d="M44.578-28.8106C44.578-29.2774 44.7956-29.7442 45.2106-30.2321L65.3592-55.5318C66.9253-57.5024 69.404-56.1749 68.5327-53.7998L61.8852-35.9967L74.3587-35.9967C75.2817-35.9967 76.0801-35.2606 76.0801-34.3482C76.0801-33.8814 75.8414-33.3629 75.3747-32.9267L55.2884-7.62701C53.774-5.65637 51.1813-6.98387 52.1149-9.35899L58.7624-27.1726L46.2889-27.1726C45.3659-27.1726 44.578-27.8981 44.578-28.8106ZM60.9355 11.0705C61.9726 11.0705 63.4343 10.3967 64.4608 9.72287C91.9924-7.84504 109.41-28.2559 109.41-49.0923C109.41-66.314 97.5446-78.5639 82.2101-78.5639C72.6604-78.5639 65.3466-73.269 60.9355-65.2222C56.5762-73.2173 49.2107-78.5639 39.661-78.5639C24.3265-78.5639 12.4609-66.314 12.4609-49.0923C12.4609-28.2559 29.8681-7.84504 57.4103 9.72287C58.4262 10.3967 59.9502 11.0705 60.9355 11.0705Z"/>
  </g>
  <g id="Light-M" transform="matrix(1 0 0 1 1094.01 1126)">
   <path d="M43.4145-28.6566C43.4145-29.0721 43.5807-29.4875 43.9615-29.9583L64.4523-55.6687C65.8302-57.3998 67.9837-56.2434 67.2151-54.1591L60.3965-35.877L73.0925-35.877C73.8957-35.877 74.5743-35.2606 74.5743-34.4851C74.5743-34.0696 74.3528-33.6195 73.9373-33.1834L53.5089-7.47301C52.1656-5.74192 49.9151-6.89831 50.746-8.98255L57.5646-27.2924L44.8687-27.2924C44.0655-27.2924 43.4145-27.881 43.4145-28.6566ZM60.0286 9.71871C60.9288 9.71871 62.1338 9.16469 63.0063 8.61066C89.8194-8.75192 107.596-28.7179 107.596-49.0923C107.596-65.7494 96.0901-77.6571 81.0465-77.6571C71.8733-77.6571 64.2173-72.4648 60.0286-64.5035C55.8746-72.4302 48.184-77.6571 39.0108-77.6571C23.9671-77.6571 12.4609-65.7494 12.4609-49.0923C12.4609-28.7179 30.2103-8.75192 57.0509 8.61066C57.8958 9.16469 59.1631 9.71871 60.0286 9.71871Z"/>
  </g>
  <g id="Thin-M" transform="matrix(1 0 0 1 799.17 1126)">
   <path d="M41.8756-28.4529C41.8756-28.8005 41.974-29.1481 42.3095-29.5962L63.2529-55.8497C64.3819-57.264 66.1054-56.3339 65.4726-54.6344L58.4277-35.7186L71.4178-35.7186C72.0626-35.7186 72.5828-35.2606 72.5828-34.6661C72.5828-34.3186 72.3839-33.959 72.0364-33.5228L51.1553-7.26934C50.0383-5.85508 48.2405-6.78516 48.9356-8.48468L55.9805-27.4508L42.9904-27.4508C42.3455-27.4508 41.8756-27.8584 41.8756-28.4529ZM58.8292 7.93089C59.5484 7.93089 60.4139 7.53528 61.0827 7.13967C86.9453-9.95135 105.198-29.3289 105.198-49.0923C105.198-65.0026 94.1665-76.4576 79.5076-76.4576C70.8322-76.4576 62.7237-71.4012 58.8292-63.553C54.9468-71.3892 46.8262-76.4576 38.1508-76.4576C23.4919-76.4576 12.4609-65.0026 12.4609-49.0923C12.4609-29.3289 30.6629-9.95135 56.5757 7.13967C57.1943 7.53528 58.1221 7.93089 58.8292 7.93089Z"/>
  </g>
  <g id="Ultralight-M" transform="matrix(1 0 0 1 503.415 1126)">
   <path d="M41.0874-28.3486C41.0874-28.6614 41.151-28.9742 41.4633-29.4107L62.6385-55.9424C63.64-57.1944 65.1433-56.3803 64.5801-54.8778L57.4192-35.6374L70.56-35.6374C71.1237-35.6374 71.5628-35.2606 71.5628-34.7588C71.5628-34.4461 71.3755-34.1328 71.0627-33.6967L49.9498-7.16502C48.9487-5.91303 47.3827-6.7272 48.0083-8.22967L55.1691-27.5319L42.0283-27.5319C41.4646-27.5319 41.0874-27.8468 41.0874-28.3486ZM58.2149 7.01518C58.8413 7.01518 59.533 6.70071 60.0975 6.38624C85.4732-10.5657 103.969-29.6419 103.969-49.0923C103.969-64.62 93.1813-75.8433 78.7194-75.8433C70.299-75.8433 61.9586-70.8564 58.2149-63.0662C54.4716-70.856 46.1307-75.8433 37.7103-75.8433C23.2485-75.8433 12.4609-64.62 12.4609-49.0923C12.4609-29.6419 30.8947-10.5657 56.3323 6.38624C56.8349 6.70071 57.5889 7.01518 58.2149 7.01518Z"/>
  </g>
  <g id="Black-S" transform="matrix(1 0 0 1 2883.2 696)">
   <path d="M38.5742-31.9824C38.5742-32.5195 38.7695-33.0566 39.1602-33.4473L54.1504-51.2207C55.8105-53.2227 58.5938-51.709 57.6172-49.2676L53.125-37.7441L61.5723-37.7441C62.6465-37.7441 63.4766-36.9629 63.4766-35.8887C63.4766-35.3516 63.2812-34.8145 62.8906-34.4238L47.9492-16.6504C46.2402-14.6484 43.5059-16.1621 44.4336-18.6035L48.9258-30.127L40.5273-30.127C39.4043-30.127 38.5742-30.9082 38.5742-31.9824ZM51.6602 4.98047C53.5156 4.98047 56.2988 3.22266 59.1309 1.31836C79.541-12.4023 93.5547-29.1016 93.5547-45.6543C93.5547-62.4023 81.7383-73.1445 68.6523-73.1445C60.4492-73.1445 54.8828-68.6523 51.6602-62.5C48.4375-68.6523 42.8711-73.1445 34.668-73.1445C21.582-73.1445 9.76562-62.4023 9.76562-45.6543C9.76562-29.1016 23.7793-12.4023 44.1895 1.31836C47.0215 3.22266 49.8047 4.98047 51.6602 4.98047Z"/>
  </g>
  <g id="Heavy-S" transform="matrix(1 0 0 1 2586.98 696)">
   <path d="M37.8482-31.5791C37.8482-32.0816 38.0435-32.5841 38.4226-32.9748L53.5626-51.1861C55.1421-53.1074 57.764-51.6859 56.845-49.3482L52.203-37.3062L60.9384-37.3062C61.9435-37.3062 62.739-36.5595 62.739-35.5545C62.739-35.0519 62.5437-34.5379 62.1531-34.1588L47.0618-15.9474C45.4566-14.0261 42.849-15.4476 43.7421-17.7853L48.3841-29.8273L39.6861-29.8273C38.6437-29.8273 37.8482-30.574 37.8482-31.5791ZM50.8419 4.20833C52.4669 4.20833 54.8928 2.7271 57.2639 1.13397C78.0313-12.6213 91.9182-29.2053 91.9182-45.758C91.9182-61.8031 80.655-72.3148 67.788-72.3148C59.7117-72.3148 54.1452-67.8917 50.8419-61.6933C47.5501-67.8802 41.9722-72.3148 33.8958-72.3148C21.0289-72.3148 9.76562-61.8031 9.76562-45.758C9.76562-29.2053 23.6525-12.6213 44.4199 1.13397C46.791 2.7271 49.2285 4.20833 50.8419 4.20833Z"/>
  </g>
  <g id="Bold-S" transform="matrix(1 0 0 1 2290.82 696)">
   <path d="M37.0361-31.1279C37.0361-31.5918 37.2314-32.0557 37.5977-32.4463L52.9053-51.1475C54.3945-52.9785 56.8359-51.6602 55.9814-49.4385L51.1719-36.8164L60.2295-36.8164C61.1572-36.8164 61.9141-36.1084 61.9141-35.1807C61.9141-34.7168 61.7188-34.2285 61.3281-33.8623L46.0693-15.1611C44.5801-13.3301 42.1143-14.6484 42.9688-16.8701L47.7783-29.4922L38.7451-29.4922C37.793-29.4922 37.0361-30.2002 37.0361-31.1279ZM49.9268 3.34473C51.2939 3.34473 53.3203 2.17285 55.1758 0.927734C76.3428-12.8662 90.0879-29.3213 90.0879-45.874C90.0879-61.1328 79.4434-71.3867 66.8213-71.3867C58.8867-71.3867 53.3203-67.041 49.9268-60.791C46.5576-67.0166 40.9668-71.3867 33.0322-71.3867C20.4102-71.3867 9.76562-61.1328 9.76562-45.874C9.76562-29.3213 23.5107-12.8662 44.6777 0.927734C46.5332 2.17285 48.584 3.34473 49.9268 3.34473Z"/>
  </g>
  <g id="Semibold-S" transform="matrix(1 0 0 1 1994.49 696)">
   <path d="M36.4763-30.8169C36.4763-31.2541 36.6716-31.6913 37.0289-32.0819L52.4521-51.1208C53.8791-52.8896 56.1961-51.6424 55.386-49.5007L50.4609-36.4787L59.7407-36.4787C60.6151-36.4787 61.3453-35.7974 61.3453-34.9229C61.3453-34.4857 61.15-34.0152 60.7594-33.6579L45.3851-14.619C43.9758-12.8502 41.6077-14.0975 42.4355-16.2392L47.3606-29.2611L38.0964-29.2611C37.2064-29.2611 36.4763-29.9425 36.4763-30.8169ZM49.2958 2.74932C50.4853 2.74932 52.2361 1.79072 53.7361 0.785547C75.1786-13.0351 88.826-29.4013 88.826-45.954C88.826-60.6707 78.608-70.7469 66.1548-70.7469C58.318-70.7469 52.7516-66.4545 49.2958-60.1689C45.8733-66.4212 40.2736-70.7469 32.4368-70.7469C19.9836-70.7469 9.76562-60.6707 9.76562-45.954C9.76562-29.4013 23.413-13.0351 44.8555 0.785547C46.3555 1.79072 48.1396 2.74932 49.2958 2.74932Z"/>
  </g>
  <g id="Medium-S" transform="matrix(1 0 0 1 1698.06 696)">
   <path d="M36.0518-30.5811C36.0518-30.998 36.2471-31.415 36.5977-31.8057L52.1084-51.1006C53.4883-52.8223 55.7109-51.6289 54.9346-49.5479L49.9219-36.2227L59.3701-36.2227C60.2041-36.2227 60.9141-35.5615 60.9141-34.7275C60.9141-34.3105 60.7188-33.8535 60.3281-33.5029L44.8662-14.208C43.5176-12.4863 41.2236-13.6797 42.0312-15.7607L47.0439-29.0859L37.6045-29.0859C36.7617-29.0859 36.0518-29.7471 36.0518-30.5811ZM48.8174 2.29785C49.8721 2.29785 51.4141 1.50098 52.6445 0.677734C74.2959-13.1631 87.8691-29.4619 87.8691-46.0146C87.8691-60.3203 77.9746-70.2617 65.6494-70.2617C57.8867-70.2617 52.3203-66.0098 48.8174-59.6973C45.3545-65.9697 39.748-70.2617 31.9854-70.2617C19.6602-70.2617 9.76562-60.3203 9.76562-46.0146C9.76562-29.4619 23.3389-13.1631 44.9902 0.677734C46.2207 1.50098 47.8027 2.29785 48.8174 2.29785Z"/>
  </g>
  <g id="Regular-S" transform="matrix(1 0 0 1 1401.72 696)">
   <path d="M35.498-30.2734C35.498-30.6641 35.6934-31.0547 36.0352-31.4453L51.6602-51.0742C52.9785-52.7344 55.0781-51.6113 54.3457-49.6094L49.2188-35.8887L58.8867-35.8887C59.668-35.8887 60.3516-35.2539 60.3516-34.4727C60.3516-34.082 60.1562-33.6426 59.7656-33.3008L44.1895-13.6719C42.9199-12.0117 40.7227-13.1348 41.5039-15.1367L46.6309-28.8574L36.9629-28.8574C36.1816-28.8574 35.498-29.4922 35.498-30.2734ZM48.1934 1.70898C49.0723 1.70898 50.3418 1.12305 51.2207 0.537109C73.1445-13.3301 86.6211-29.541 86.6211-46.0938C86.6211-59.8633 77.1484-69.6289 64.9902-69.6289C57.3242-69.6289 51.7578-65.4297 48.1934-59.082C44.6777-65.3809 39.0625-69.6289 31.3965-69.6289C19.2383-69.6289 9.76562-59.8633 9.76562-46.0938C9.76562-29.541 23.2422-13.3301 45.166 0.537109C46.0449 1.12305 47.3633 1.70898 48.1934 1.70898Z"/>
  </g>
  <g id="Light-S" transform="matrix(1 0 0 1 1106.26 696)">
   <path d="M34.4688-30.1372C34.4688-30.4824 34.6187-30.8276 34.9302-31.2031L50.8579-51.1953C52.0098-52.6436 53.8218-51.6719 53.1802-49.9272L47.9019-35.7827L57.7666-35.7827C58.4419-35.7827 59.0195-35.2539 59.0195-34.5937C59.0195-34.2485 58.8394-33.8696 58.4942-33.5278L42.6152-13.5356C41.4971-12.0874 39.6025-13.0591 40.293-14.8037L45.5713-28.9634L35.7066-28.9634C35.0313-28.9634 34.4688-29.4771 34.4688-30.1372ZM47.3911 0.513193C48.1489 0.513193 49.1914 0.0332117 49.9341-0.44677C71.2222-14.1323 85.0166-29.9497 85.0166-46.0938C85.0166-59.3638 75.8618-68.8267 63.9609-68.8267C56.6279-68.8267 50.7588-64.7183 47.3911-58.4463C44.0571-64.6846 38.1543-68.8267 30.8213-68.8267C18.9204-68.8267 9.76562-59.3638 9.76562-46.0938C9.76562-29.9497 23.5449-14.1323 44.8481-0.44677C45.5757 0.0332117 46.667 0.513193 47.3911 0.513193Z"/>
  </g>
  <g id="Thin-S" transform="matrix(1 0 0 1 811.202 696)">
   <path d="M33.1074-29.957C33.1074-30.2422 33.1973-30.5273 33.4688-30.8828L49.7969-51.3555C50.7285-52.5234 52.1602-51.752 51.6387-50.3477L46.1602-35.6426L56.2852-35.6426C56.8203-35.6426 57.2578-35.2539 57.2578-34.7539C57.2578-34.4687 57.0977-34.1699 56.8125-33.8281L40.5332-13.3555C39.6153-12.1875 38.1211-12.959 38.6914-14.3633L44.1699-29.1035L34.0449-29.1035C33.5098-29.1035 33.1074-29.457 33.1074-29.957ZM46.3301-1.06834C46.9278-1.06834 47.6699-1.40818 48.2324-1.74803C68.6797-15.1933 82.8946-30.4902 82.8946-46.0938C82.8946-58.7031 74.1602-67.7656 62.5996-67.7656C55.707-67.7656 49.4375-63.7774 46.3301-57.6055C43.2363-63.7637 36.9531-67.7656 30.0606-67.7656C18.5-67.7656 9.76562-58.7031 9.76562-46.0938C9.76562-30.4902 23.9453-15.1933 44.4277-1.74803C44.9551-1.40818 45.7461-1.06834 46.3301-1.06834Z"/>
  </g>
  <g id="Ultralight-S" transform="matrix(1 0 0 1 515.337 696)">
   <path d="M32.4102-29.8647C32.4102-30.1191 32.4693-30.3735 32.7202-30.7188L49.2534-51.4375C50.0723-52.4619 51.3091-51.793 50.8491-50.563L45.2681-35.5708L55.5264-35.5708C55.9898-35.5708 56.3555-35.2539 56.3555-34.8359C56.3555-34.5815 56.2056-34.3237 55.9512-33.9819L39.4668-13.2632C38.6514-12.2388 37.3623-12.9077 37.8711-14.1377L43.4522-29.1753L33.1939-29.1753C32.7305-29.1753 32.4102-29.4468 32.4102-29.8647ZM45.7866-1.87839C46.3023-1.87839 46.8907-2.14646 47.3609-2.41453C67.3775-15.7368 81.8077-30.7671 81.8077-46.0938C81.8077-58.3648 73.2886-67.2222 61.9024-67.2222C55.2354-67.2222 48.7608-63.2954 45.7866-57.1748C42.8159-63.292 36.3379-67.2222 29.6709-67.2222C18.2847-67.2222 9.76562-58.3648 9.76562-46.0938C9.76562-30.7671 24.1504-15.7368 44.2124-2.41453C44.6372-2.14646 45.2744-1.87839 45.7866-1.87839Z"/>
  </g>
 </g>
</svg>
