<?xml version="1.0" encoding="UTF-8"?>
<!--Generator: Apple Native CoreSVG 175.5-->
<!DOCTYPE svg
PUBLIC "-//W3C//DTD SVG 1.1//EN"
       "http://www.w3.org/Graphics/SVG/1.1/DTD/svg11.dtd">
<svg version="1.1" xmlns="http://www.w3.org/2000/svg" xmlns:xlink="http://www.w3.org/1999/xlink" width="3300" height="2200">
 <!--glyph: "uni10151F.medium", point size: 100.0, font version: "18.0d12e2", template writer version: "101"-->
 <g id="Notes">
  <rect height="2200" id="artboard" style="fill:white;opacity:1" width="3300" x="0" y="0"/>
  <line style="fill:none;stroke:black;opacity:1;stroke-width:0.5;" x1="263" x2="3036" y1="292" y2="292"/>
  <text style="stroke:none;fill:black;font-family:sans-serif;font-size:13;font-weight:bold;" transform="matrix(1 0 0 1 263 322)">Weight/Scale Variations</text>
  <text style="stroke:none;fill:black;font-family:sans-serif;font-size:13;text-anchor:middle;" transform="matrix(1 0 0 1 559.711 322)">Ultralight</text>
  <text style="stroke:none;fill:black;font-family:sans-serif;font-size:13;text-anchor:middle;" transform="matrix(1 0 0 1 856.422 322)">Thin</text>
  <text style="stroke:none;fill:black;font-family:sans-serif;font-size:13;text-anchor:middle;" transform="matrix(1 0 0 1 1153.13 322)">Light</text>
  <text style="stroke:none;fill:black;font-family:sans-serif;font-size:13;text-anchor:middle;" transform="matrix(1 0 0 1 1449.84 322)">Regular</text>
  <text style="stroke:none;fill:black;font-family:sans-serif;font-size:13;text-anchor:middle;" transform="matrix(1 0 0 1 1746.56 322)">Medium</text>
  <text style="stroke:none;fill:black;font-family:sans-serif;font-size:13;text-anchor:middle;" transform="matrix(1 0 0 1 2043.27 322)">Semibold</text>
  <text style="stroke:none;fill:black;font-family:sans-serif;font-size:13;text-anchor:middle;" transform="matrix(1 0 0 1 2339.98 322)">Bold</text>
  <text style="stroke:none;fill:black;font-family:sans-serif;font-size:13;text-anchor:middle;" transform="matrix(1 0 0 1 2636.69 322)">Heavy</text>
  <text style="stroke:none;fill:black;font-family:sans-serif;font-size:13;text-anchor:middle;" transform="matrix(1 0 0 1 2933.4 322)">Black</text>
  <line style="fill:none;stroke:black;opacity:1;stroke-width:0.5;" x1="263" x2="3036" y1="1903" y2="1903"/>
  <g transform="matrix(1 0 0 1 263 1933)">
   <path d="M9.24805 0.830078C13.5547 0.830078 17.1387-2.74414 17.1387-7.05078C17.1387-11.3574 13.5449-14.9316 9.23828-14.9316C4.94141-14.9316 1.36719-11.3574 1.36719-7.05078C1.36719-2.74414 4.95117 0.830078 9.24805 0.830078ZM9.24805-0.654297C5.70312-0.654297 2.87109-3.49609 2.87109-7.05078C2.87109-10.6055 5.69336-13.4473 9.23828-13.4473C12.793-13.4473 15.6445-10.6055 15.6445-7.05078C15.6445-3.49609 12.8027-0.654297 9.24805-0.654297ZM5.6543-7.05078C5.6543-6.62109 5.95703-6.32812 6.40625-6.32812L8.50586-6.32812L8.50586-4.20898C8.50586-3.76953 8.79883-3.4668 9.22852-3.4668C9.67773-3.4668 9.9707-3.76953 9.9707-4.20898L9.9707-6.32812L12.0898-6.32812C12.5293-6.32812 12.832-6.62109 12.832-7.05078C12.832-7.49023 12.5293-7.79297 12.0898-7.79297L9.9707-7.79297L9.9707-9.90234C9.9707-10.3516 9.67773-10.6543 9.22852-10.6543C8.79883-10.6543 8.50586-10.3516 8.50586-9.90234L8.50586-7.79297L6.40625-7.79297C5.95703-7.79297 5.6543-7.49023 5.6543-7.05078Z"/>
  </g>
  <g transform="matrix(1 0 0 1 281.867 1933)">
   <path d="M11.709 2.91016C17.1582 2.91016 21.6699-1.61133 21.6699-7.05078C21.6699-12.5 17.1484-17.0117 11.6992-17.0117C6.25977-17.0117 1.74805-12.5 1.74805-7.05078C1.74805-1.61133 6.26953 2.91016 11.709 2.91016ZM11.709 1.25C7.09961 1.25 3.41797-2.44141 3.41797-7.05078C3.41797-11.6602 7.08984-15.3516 11.6992-15.3516C16.3086-15.3516 20.0098-11.6602 20.0098-7.05078C20.0098-2.44141 16.3184 1.25 11.709 1.25ZM7.17773-7.05078C7.17773-6.57227 7.50977-6.25 8.00781-6.25L10.8789-6.25L10.8789-3.36914C10.8789-2.88086 11.2109-2.53906 11.6895-2.53906C12.1777-2.53906 12.5195-2.87109 12.5195-3.36914L12.5195-6.25L15.4004-6.25C15.8887-6.25 16.2305-6.57227 16.2305-7.05078C16.2305-7.53906 15.8887-7.88086 15.4004-7.88086L12.5195-7.88086L12.5195-10.752C12.5195-11.25 12.1777-11.5918 11.6895-11.5918C11.2109-11.5918 10.8789-11.25 10.8789-10.752L10.8789-7.88086L8.00781-7.88086C7.50977-7.88086 7.17773-7.53906 7.17773-7.05078Z"/>
  </g>
  <g transform="matrix(1 0 0 1 305.646 1933)">
   <path d="M14.9707 5.66406C21.9336 5.66406 27.6953-0.0976562 27.6953-7.05078C27.6953-14.0137 21.9238-19.7754 14.9609-19.7754C8.00781-19.7754 2.25586-14.0137 2.25586-7.05078C2.25586-0.0976562 8.01758 5.66406 14.9707 5.66406ZM14.9707 3.84766C8.93555 3.84766 4.08203-1.01562 4.08203-7.05078C4.08203-13.0957 8.92578-17.9492 14.9609-17.9492C21.0059-17.9492 25.8691-13.0957 25.8691-7.05078C25.8691-1.01562 21.0156 3.84766 14.9707 3.84766ZM9.19922-7.05078C9.19922-6.5332 9.57031-6.17188 10.1172-6.17188L14.0625-6.17188L14.0625-2.2168C14.0625-1.67969 14.4336-1.29883 14.9512-1.29883C15.4883-1.29883 15.8594-1.66992 15.8594-2.2168L15.8594-6.17188L19.8145-6.17188C20.3516-6.17188 20.7324-6.5332 20.7324-7.05078C20.7324-7.59766 20.3613-7.96875 19.8145-7.96875L15.8594-7.96875L15.8594-11.9141C15.8594-12.4609 15.4883-12.8418 14.9512-12.8418C14.4336-12.8418 14.0625-12.4609 14.0625-11.9141L14.0625-7.96875L10.1172-7.96875C9.57031-7.96875 9.19922-7.59766 9.19922-7.05078Z"/>
  </g>
  <text style="stroke:none;fill:black;font-family:sans-serif;font-size:13;font-weight:bold;" transform="matrix(1 0 0 1 263 1953)">Design Variations</text>
  <text style="stroke:none;fill:black;font-family:sans-serif;font-size:13;" transform="matrix(1 0 0 1 263 1971)">Symbols are supported in up to nine weights and three scales.</text>
  <text style="stroke:none;fill:black;font-family:sans-serif;font-size:13;" transform="matrix(1 0 0 1 263 1989)">For optimal layout with text and other symbols, vertically align</text>
  <text style="stroke:none;fill:black;font-family:sans-serif;font-size:13;" transform="matrix(1 0 0 1 263 2007)">symbols with the adjacent text.</text>
  <line style="fill:none;stroke:#00AEEF;stroke-width:0.5;opacity:1.0;" x1="776" x2="776" y1="1919" y2="1933"/>
  <g transform="matrix(1 0 0 1 776 1933)">
   <path d="M3.31055 0.15625C3.82812 0.15625 4.08203-0.0390625 4.26758-0.585938L5.52734-4.0332L11.2891-4.0332L12.5488-0.585938C12.7344-0.0390625 12.9883 0.15625 13.4961 0.15625C14.0137 0.15625 14.3457-0.15625 14.3457-0.644531C14.3457-0.810547 14.3164-0.966797 14.2383-1.17188L9.6582-13.3691C9.43359-13.9648 9.0332-14.2676 8.4082-14.2676C7.80273-14.2676 7.39258-13.9746 7.17773-13.3789L2.59766-1.16211C2.51953-0.957031 2.49023-0.800781 2.49023-0.634766C2.49023-0.146484 2.80273 0.15625 3.31055 0.15625ZM6.00586-5.51758L8.37891-12.0898L8.42773-12.0898L10.8008-5.51758Z"/>
  </g>
  <line style="fill:none;stroke:#00AEEF;stroke-width:0.5;opacity:1.0;" x1="793.197" x2="793.197" y1="1919" y2="1933"/>
  <text style="stroke:none;fill:black;font-family:sans-serif;font-size:13;font-weight:bold;" transform="matrix(1 0 0 1 776 1953)">Margins</text>
  <text style="stroke:none;fill:black;font-family:sans-serif;font-size:13;" transform="matrix(1 0 0 1 776 1971)">Leading and trailing margins on the left and right side of each symbol</text>
  <text style="stroke:none;fill:black;font-family:sans-serif;font-size:13;" transform="matrix(1 0 0 1 776 1989)">can be adjusted by modifying the x-location of the margin guidelines.</text>
  <text style="stroke:none;fill:black;font-family:sans-serif;font-size:13;" transform="matrix(1 0 0 1 776 2007)">Modifications are automatically applied proportionally to all</text>
  <text style="stroke:none;fill:black;font-family:sans-serif;font-size:13;" transform="matrix(1 0 0 1 776 2025)">scales and weights.</text>
  <g transform="matrix(1 0 0 1 1289 1933)">
   <path d="M2.8418 1.86523L4.54102 3.57422C5.40039 4.44336 6.38672 4.38477 7.31445 3.35938L18.0078-8.42773L17.041-9.4043L6.42578 2.27539C6.07422 2.67578 5.74219 2.77344 5.27344 2.30469L4.10156 1.14258C3.63281 0.683594 3.74023 0.341797 4.14062-0.0195312L15.6152-10.8203L14.6387-11.7871L3.04688-0.898438C2.06055 0.0195312 1.98242 0.996094 2.8418 1.86523ZM9.25781-16.3281C8.83789-15.918 8.80859-15.3418 9.04297-14.9512C9.27734-14.5898 9.73633-14.3555 10.3809-14.5215C11.8457-14.8633 13.3691-14.9219 14.7949-13.9844L14.209-12.5293C13.8672-11.6992 14.043-11.1133 14.5801-10.5664L16.875-8.25195C17.3633-7.76367 17.7734-7.74414 18.3398-7.8418L19.4043-8.03711L20.0684-7.36328L20.0293-6.80664C19.9902-6.30859 20.1172-5.92773 20.6055-5.44922L21.3672-4.70703C21.8457-4.22852 22.4609-4.19922 22.9297-4.66797L25.8398-7.58789C26.3086-8.05664 26.2891-8.65234 25.8105-9.13086L25.0391-9.89258C24.5605-10.3711 24.1895-10.5273 23.7109-10.4883L23.1348-10.4395L22.4902-11.0742L22.7344-12.1973C22.8613-12.7637 22.7051-13.2031 22.1191-13.7891L19.9219-15.9766C16.582-19.2969 12.1484-19.2188 9.25781-16.3281ZM10.752-15.957C13.1836-17.7344 16.4746-17.4316 18.7012-15.2051L21.1328-12.793C21.3672-12.5586 21.4062-12.373 21.3379-12.0312L21.0156-10.5469L22.5195-9.0625L23.5059-9.12109C23.7598-9.13086 23.8379-9.11133 24.0332-8.91602L24.6094-8.33984L22.168-5.89844L21.5918-6.47461C21.3965-6.66992 21.3672-6.74805 21.377-7.01172L21.4453-7.98828L19.9512-9.47266L18.4277-9.21875C18.1055-9.15039 17.959-9.17969 17.7148-9.41406L15.7129-11.416C15.459-11.6504 15.4297-11.8164 15.5859-12.1875L16.4648-14.2773C14.9023-15.7324 12.8711-16.3574 10.8398-15.7617C10.6836-15.7227 10.625-15.8496 10.752-15.957Z"/>
  </g>
  <text style="stroke:none;fill:black;font-family:sans-serif;font-size:13;font-weight:bold;" transform="matrix(1 0 0 1 1289 1953)">Exporting</text>
  <text style="stroke:none;fill:black;font-family:sans-serif;font-size:13;" transform="matrix(1 0 0 1 1289 1971)">Symbols should be outlined when exporting to ensure the</text>
  <text style="stroke:none;fill:black;font-family:sans-serif;font-size:13;" transform="matrix(1 0 0 1 1289 1989)">design is preserved when submitting to Xcode.</text>
  <text id="template-version" style="stroke:none;fill:black;font-family:sans-serif;font-size:13;text-anchor:end;" transform="matrix(1 0 0 1 3036 1933)">Template v.4.0</text>
  <text style="stroke:none;fill:black;font-family:sans-serif;font-size:13;text-anchor:end;" transform="matrix(1 0 0 1 3036 1951)">Requires Xcode 14 or greater</text>
  <text id="descriptive-name" style="stroke:none;fill:black;font-family:sans-serif;font-size:13;text-anchor:end;" transform="matrix(1 0 0 1 3036 1969)">Generated from figure.cooldown</text>
  <text style="stroke:none;fill:black;font-family:sans-serif;font-size:13;text-anchor:end;" transform="matrix(1 0 0 1 3036 1987)">Typeset at 100 points</text>
  <text style="stroke:none;fill:black;font-family:sans-serif;font-size:13;" transform="matrix(1 0 0 1 263 726)">Small</text>
  <text style="stroke:none;fill:black;font-family:sans-serif;font-size:13;" transform="matrix(1 0 0 1 263 1156)">Medium</text>
  <text style="stroke:none;fill:black;font-family:sans-serif;font-size:13;" transform="matrix(1 0 0 1 263 1586)">Large</text>
 </g>
 <g id="Guides">
  <g id="H-reference" style="fill:#27AAE1;stroke:none;" transform="matrix(1 0 0 1 339 696)">
   <path d="M0.993654 0L3.63775 0L29.3281-67.1323L30.0303-67.1323L30.0303-70.459L28.1226-70.459ZM11.6885-24.4799L46.9815-24.4799L46.2315-26.7285L12.4385-26.7285ZM55.1196 0L57.7637 0L30.6382-70.459L29.4326-70.459L29.4326-67.1323Z"/>
  </g>
  <line id="Baseline-S" style="fill:none;stroke:#27AAE1;opacity:1;stroke-width:0.5;" x1="263" x2="3036" y1="696" y2="696"/>
  <line id="Capline-S" style="fill:none;stroke:#27AAE1;opacity:1;stroke-width:0.5;" x1="263" x2="3036" y1="625.541" y2="625.541"/>
  <g id="H-reference" style="fill:#27AAE1;stroke:none;" transform="matrix(1 0 0 1 339 1126)">
   <path d="M0.993654 0L3.63775 0L29.3281-67.1323L30.0303-67.1323L30.0303-70.459L28.1226-70.459ZM11.6885-24.4799L46.9815-24.4799L46.2315-26.7285L12.4385-26.7285ZM55.1196 0L57.7637 0L30.6382-70.459L29.4326-70.459L29.4326-67.1323Z"/>
  </g>
  <line id="Baseline-M" style="fill:none;stroke:#27AAE1;opacity:1;stroke-width:0.5;" x1="263" x2="3036" y1="1126" y2="1126"/>
  <line id="Capline-M" style="fill:none;stroke:#27AAE1;opacity:1;stroke-width:0.5;" x1="263" x2="3036" y1="1055.54" y2="1055.54"/>
  <g id="H-reference" style="fill:#27AAE1;stroke:none;" transform="matrix(1 0 0 1 339 1556)">
   <path d="M0.993654 0L3.63775 0L29.3281-67.1323L30.0303-67.1323L30.0303-70.459L28.1226-70.459ZM11.6885-24.4799L46.9815-24.4799L46.2315-26.7285L12.4385-26.7285ZM55.1196 0L57.7637 0L30.6382-70.459L29.4326-70.459L29.4326-67.1323Z"/>
  </g>
  <line id="Baseline-L" style="fill:none;stroke:#27AAE1;opacity:1;stroke-width:0.5;" x1="263" x2="3036" y1="1556" y2="1556"/>
  <line id="Capline-L" style="fill:none;stroke:#27AAE1;opacity:1;stroke-width:0.5;" x1="263" x2="3036" y1="1485.54" y2="1485.54"/>
  <line id="left-margin-Regular-M" style="fill:none;stroke:#00AEEF;stroke-width:0.5;opacity:1.0;" x1="1394.67" x2="1394.67" y1="1030.79" y2="1150.12"/>
  <line id="right-margin-Regular-M" style="fill:none;stroke:#00AEEF;stroke-width:0.5;opacity:1.0;" x1="1505.01" x2="1505.01" y1="1030.79" y2="1150.12"/>
 </g>
 <g id="Symbols">
  <g id="Black-L" transform="matrix(1 0 0 1 2858.31 1556)">
   <path d="M41.2763-62.9773C49.8023-62.9773 56.7432-69.9193 56.7432-78.4662C56.7432-86.9922 49.8023-93.9343 41.2763-93.9343C32.7294-93.9343 25.7666-86.9922 25.7666-78.4662C25.7666-69.9193 32.7294-62.9773 41.2763-62.9773ZM82.0425 4.04317L101.41-22.6165L113.354-0.643965C117.667 19.4975 118.128 34.7481 118.128 37.1143C118.128 41.8081 121.742 45.4214 126.114 45.4214C130.568 45.4214 134.043 41.8081 134.043 37.2751C134.043 36.6317 134.798 18.5381 128.808-5.15499L128.51-6.33808C121.684-33.4404 105.448-84.5834 60.2519-114.639C57.7909-116.062 55.5932-116.879 53.053-116.879L24.0122-116.879C19.6388-116.879 16.084-113.266 16.084-108.893C16.084-104.439 19.6388-100.826 24.0122-100.826L52.22-100.826C59.0838-96.0297 65.1057-90.8912 70.5659-85.313C71.056-84.8825 71.078-84.5755 70.7123-83.9257L47.8478-44.8776C44.5331-39.2251 48.5848-32.8965 54.7174-32.8965L83.9181-32.8965L68.4278-4.50519L67.7856-3.24288L47.687 33.6011C45.5697 37.4931 46.928 42.4647 50.8409 44.4431C54.4177 46.3412 59.3673 45.5018 61.7038 41.2672ZM67.5805-48.2064L72.07-55.9937C72.7354-57.1468 73.6185-56.8263 74.0867-56.1545L79.4573-48.2064Z"/>
  </g>
  <g id="Heavy-L" transform="matrix(1 0 0 1 2562.61 1556)">
   <path d="M41.5015-63.2578C49.7904-63.2578 56.5123-69.9853 56.5123-78.3044C56.5123-86.5933 49.7904-93.3208 41.5015-93.3208C33.1824-93.3208 26.4247-86.5933 26.4247-78.3044C26.4247-69.9853 33.1824-63.2578 41.5015-63.2578ZM80.7188 3.41712L100.091-23.244L112.106-1.16523C116.379 18.7599 116.826 33.8759 116.826 36.2057C116.826 40.6983 120.275 44.1422 124.446 44.1422C128.703 44.1422 132.022 40.6983 132.022 36.3665C132.022 35.7232 132.491 17.9698 126.855-5.4612L126.575-6.62608C120.149-33.4211 103.826-83.7803 59.2774-113.392C56.8941-114.792 54.788-115.564 52.3299-115.564L23.6598-115.564C19.4833-115.564 16.084-112.12 16.084-107.943C16.084-103.686 19.4833-100.242 23.6598-100.242L51.5797-100.242C58.3849-95.4868 64.3715-90.3792 69.8008-84.8551C70.346-84.36 70.3818-83.8645 69.9886-83.1639L47.4087-44.6129C44.2451-39.2124 48.0999-33.1766 53.9717-33.1766L83.2434-33.1766L67.7448-4.76068L67.1071-3.52098L47.2479 32.8667C45.2222 36.5664 46.5209 41.3091 50.2507 43.2098C53.6858 45.0301 58.3927 44.2226 60.6239 40.1711ZM66.4283-47.8965L70.9879-55.7824C71.6671-56.9956 72.693-56.6795 73.2025-55.9432L78.6298-47.8965Z"/>
  </g>
  <g id="Bold-L" transform="matrix(1 0 0 1 2267.22 1556)">
   <path d="M41.6142-63.4993C49.6111-63.4993 56.064-69.9654 56.064-78.0003C56.064-85.9971 49.6111-92.4633 41.6142-92.4633C33.5794-92.4633 27.0753-85.9971 27.0753-78.0003C27.0753-69.9654 33.5794-63.4993 41.6142-63.4993ZM79.0373 2.59635L98.3499-23.9754L110.405-1.8554C114.617 17.7636 115.048 32.6808 115.048 34.9645C115.048 39.2186 118.305 42.4624 122.238 42.4624C126.264 42.4624 129.398 39.2186 129.398 35.1253C129.398 34.482 129.506 17.1736 124.323-5.89741L124.066-7.03926C118.154-33.413 101.738-82.7294 58.056-111.75C55.7652-113.12 53.7667-113.838 51.4087-113.838L23.2443-113.838C19.2986-113.838 16.084-110.594 16.084-106.648C16.084-102.622 19.2986-99.3786 23.2443-99.3786L50.7509-99.3786C57.472-94.684 63.3976-89.6297 68.7736-84.1822C69.3805-83.6176 69.4318-82.9138 69.0076-82.1592L46.8185-44.29C43.8319-39.1821 47.4558-33.4926 53.0198-33.4926L82.2717-33.4926L66.8176-5.14283L66.1875-3.93379L46.6577 31.8258C44.7397 35.3021 45.9691 39.7755 49.4835 41.5838C52.7493 43.3118 57.1714 42.5428 59.2795 38.7068ZM64.9843-47.5123L69.6061-55.4764C70.3007-56.7515 71.481-56.443 72.0367-55.6372L77.5034-47.5123Z"/>
  </g>
  <g id="Semibold-L" transform="matrix(1 0 0 1 1971.42 1556)">
   <path d="M41.692-63.6658C49.4875-63.6658 55.7549-69.9517 55.7549-77.7906C55.7549-85.5861 49.4875-91.8721 41.692-91.8721C33.8531-91.8721 27.5238-85.5861 27.5238-77.7906C27.5238-69.9517 33.8531-63.6658 41.692-63.6658ZM77.8781 2.03051L97.1497-24.4796L109.232-2.3312C113.402 17.0767 113.823 31.8569 113.823 34.1088C113.823 38.1984 116.947 41.3043 120.715 41.3043C124.582 41.3043 127.589 38.1984 127.589 34.2696C127.589 33.6263 127.448 16.6247 122.578-6.19813L122.336-7.3241C116.779-33.4073 100.299-82.0048 57.2141-110.619C54.9868-111.968 53.0627-112.648 50.7735-112.648L22.9578-112.648C19.1713-112.648 16.084-109.542 16.084-105.756C16.084-101.889 19.1713-98.783 22.9578-98.783L50.1796-98.783C56.8426-94.1306 62.7263-89.1131 68.0654-83.7183C68.7149-83.1058 68.7768-82.2585 68.3314-81.4666L46.4116-44.0674C43.5471-39.1612 47.0118-33.7104 52.3635-33.7104L81.6019-33.7104L66.1784-5.40629L65.5535-4.21838L46.2508 31.1082C44.4071 34.4306 45.5888 38.7182 48.9545 40.4629C52.1037 42.1272 56.3295 41.3848 58.3526 37.6973ZM63.9888-47.2474L68.6535-55.2654C69.3587-56.5832 70.6454-56.28 71.233-55.4263L76.7269-47.2474Z"/>
  </g>
  <g id="Medium-L" transform="matrix(1 0 0 1 1675.4 1556)">
   <path d="M41.7509-63.792C49.3938-63.792 55.5206-69.9413 55.5206-77.6316C55.5206-85.2745 49.3938-91.4238 41.7509-91.4238C34.0606-91.4238 27.8638-85.2745 27.8638-77.6316C27.8638-69.9413 34.0606-63.792 41.7509-63.792ZM76.9991 1.60147L96.2396-24.8619L108.343-2.69197C112.481 16.5559 112.894 31.2321 112.894 33.46C112.894 37.4249 115.917 40.4263 119.561 40.4263C123.307 40.4263 126.217 37.4249 126.217 33.6208C126.217 32.9775 125.888 16.2084 121.254-6.42616L121.025-7.54008C115.736-33.4031 99.2077-81.4555 56.5757-109.761C54.3967-111.094 52.5289-111.746 50.292-111.746L22.7405-111.746C19.0748-111.746 16.084-108.745 16.084-105.079C16.084-101.333 19.0748-98.3315 22.7405-98.3315L49.7464-98.3315C56.3654-93.7109 62.2172-88.7213 67.5285-83.3665C68.2102-82.7178 68.2801-81.7615 67.8187-80.9414L46.1031-43.8986C43.3311-39.1454 46.6751-33.8756 51.8659-33.8756L81.094-33.8756L65.6937-5.60605L65.0728-4.43417L45.9423 30.5641C44.1549 33.7697 45.3003 37.9165 48.5534 39.613C51.6142 41.229 55.6911 40.5067 57.6498 36.9319ZM63.2339-47.0466L67.9312-55.1055C68.6444-56.4556 70.0118-56.1563 70.6237-55.2663L76.1381-47.0466Z"/>
  </g>
  <g id="Regular-L" transform="matrix(1 0 0 1 1379.59 1556)">
   <path d="M41.8278-63.9567C49.2715-63.9567 55.2149-69.9277 55.2149-77.4243C55.2149-84.868 49.2715-90.8391 41.8278-90.8391C34.3313-90.8391 28.3074-84.868 28.3074-77.4243C28.3074-69.9277 34.3313-63.9567 41.8278-63.9567ZM75.8527 1.04185L95.0526-25.3606L107.183-3.16254C111.28 15.8766 111.682 30.4173 111.682 32.6137C111.682 36.416 114.574 39.2809 118.055 39.2809C121.644 39.2809 124.428 36.416 124.428 32.7746C124.428 32.1312 123.852 15.6655 119.528-6.72357L119.314-7.8218C114.376-33.3975 97.7843-80.7389 55.743-108.642C53.6269-109.954 51.8326-110.569 49.6638-110.569L22.4572-110.569C18.9489-110.569 16.084-107.704 16.084-104.196C16.084-100.607 18.9489-97.7424 22.4572-97.7424L49.1813-97.7424C55.743-93.1636 61.5532-88.2103 66.8282-82.9077C67.5519-82.2116 67.6324-81.1134 67.1498-80.2564L45.7007-43.6785C43.0494-39.1248 46.236-34.0911 51.2169-34.0911L80.4315-34.0911L65.0615-5.86661L64.4458-4.71563L45.5398 29.8543C43.8259 32.9078 44.9241 36.8709 48.0303 38.5044C50.9756 40.0575 54.8583 39.3614 56.7331 35.9335ZM62.2493-46.7847L66.989-54.8969C67.7128-56.2891 69.1855-55.9951 69.8288-55.0577L75.3701-46.7847Z"/>
  </g>
  <g id="Light-L" transform="matrix(1 0 0 1 1084.18 1556)">
   <path d="M40.8353-63.4414C48.0882-63.4414 53.8599-69.2598 53.8599-76.5463C53.8599-83.7992 48.0882-89.6176 40.8353-89.6176C33.5488-89.6176 27.6967-83.7992 27.6967-76.5463C27.6967-69.2598 33.5488-63.4414 40.8353-63.4414ZM74.4213 0.183014L93.1632-25.5705L105.008-3.92595C108.989 14.6551 109.391 28.8523 109.391 31.0106C109.391 34.7174 112.227 37.506 115.612 37.506C119.124 37.506 121.832 34.7174 121.832 31.1714C121.832 30.528 120.97 14.5204 117.046-7.39156L116.852-8.4707C112.391-33.4929 95.8376-79.6511 54.8078-106.886C52.7299-108.16 50.9738-108.756 48.8622-108.756L22.3045-108.756C18.8726-108.756 16.084-105.968 16.084-102.536C16.084-99.0233 18.8726-96.2347 22.3045-96.2347L48.3797-96.2347C54.8078-91.7704 60.4653-86.9507 65.6067-81.7626C66.3305-81.0856 66.4109-80.0064 65.9284-79.1685L44.9945-43.4876C42.4005-39.0102 45.5107-34.1101 50.3771-34.1101L78.8856-34.1101L63.8973-6.55368L63.3007-5.44087L44.8337 28.2894C43.1579 31.2855 44.2371 35.1532 47.2669 36.7485C50.1359 38.2635 53.9232 37.5864 55.7598 34.2349ZM61.1424-46.5175L65.7675-54.4007C66.4913-55.7547 67.9258-55.4798 68.5692-54.5615L73.9387-46.5175Z"/>
  </g>
  <g id="Thin-L" transform="matrix(1 0 0 1 789.18 1556)">
   <path d="M39.5228-62.7598C46.5232-62.7598 52.0677-68.3763 52.0677-75.3852C52.0677-82.3857 46.5232-88.0021 39.5228-88.0021C32.5139-88.0021 26.889-82.3857 26.889-75.3852C26.889-68.3763 32.5139-62.7598 39.5228-62.7598ZM72.5281-0.952868L90.6642-25.8482L102.13-4.93563C105.96 13.0396 106.362 26.7825 106.362 28.8903C106.362 32.4709 109.122 35.1585 112.381 35.1585C115.792 35.1585 118.4 32.4709 118.4 29.0511C118.4 28.4077 117.159 13.0059 113.765-8.27502L113.596-9.32892C109.766-33.6191 93.263-78.2123 53.5709-104.564C51.5436-105.787 49.8379-106.358 47.8021-106.358L22.1025-106.358C18.7716-106.358 16.084-103.671 16.084-100.34C16.084-96.9282 18.7716-94.2406 22.1025-94.2406L47.3196-94.2406C53.5709-89.9277 59.0266-85.2847 63.9912-80.2481C64.715-79.5963 64.7954-78.5424 64.3129-77.7298L44.0606-43.2352C41.5422-38.8588 44.5515-34.1354 49.2665-34.1354L76.841-34.1354L62.3575-7.46239L61.7861-6.40006L43.8997 26.2195C42.2745 29.1399 43.3284 32.8814 46.2572 34.4263C49.0252 35.8907 52.6863 35.2389 54.4724 31.9884ZM59.6784-46.1641L64.1521-53.7444C64.8759-55.048 66.2599-54.7983 66.9032-53.9052L72.0456-46.1641Z"/>
  </g>
  <g id="Ultralight-L" transform="matrix(1 0 0 1 493.348 1556)">
   <path d="M38.8505-62.4108C45.7217-62.4108 51.1498-67.9238 51.1498-74.7905C51.1498-81.6617 45.7217-87.1747 38.8505-87.1747C31.9838-87.1747 26.4752-81.6617 26.4752-74.7905C26.4752-67.9238 31.9838-62.4108 38.8505-62.4108ZM71.5585-1.53466L89.3843-25.9904L100.656-5.45277C104.409 12.2122 104.811 25.7223 104.811 27.8042C104.811 31.3203 107.532 33.9561 110.726 33.9561C114.086 33.9561 116.641 31.3203 116.641 27.9651C116.641 27.3217 115.207 12.2302 112.084-8.72753L111.928-9.76849C108.421-33.6838 91.9442-77.4753 52.9374-103.374C50.9359-104.571 49.2561-105.13 47.2591-105.13L21.9991-105.13C18.7199-105.13 16.084-102.494 16.084-99.2148C16.084-95.8551 18.7199-93.2192 21.9991-93.2192L46.7765-93.2192C52.9374-88.9839 58.2896-84.4314 63.1638-79.4724C63.8876-78.8335 63.968-77.7925 63.4855-76.9928L43.5822-43.1059C41.1027-38.7812 44.0602-34.1483 48.6976-34.1483L75.7938-34.1483L61.5689-7.92782L61.0104-6.89135L43.4214 25.1594C41.822 28.041 42.8629 31.7179 45.7401 33.2369C48.4564 34.6754 52.0528 34.0366 53.8131 30.8377ZM58.9285-45.9831L63.3246-53.4082C64.0484-54.686 65.4066-54.4492 66.0499-53.5691L71.0759-45.9831Z"/>
  </g>
  <g id="Black-M" transform="matrix(1 0 0 1 2874.52 1126)">
   <path d="M31.6505-56.416C38.4339-56.416 43.9762-61.958 43.9762-68.7469C43.9762-75.5303 38.4339-81.0723 31.6505-81.0723C24.8615-81.0723 19.3141-75.5303 19.3141-68.7469C19.3141-61.958 24.8615-56.416 31.6505-56.416ZM64.5054-4.38163L79.4447-24.9468L88.5975-8.09008C91.9584 7.63814 92.3271 19.5226 92.3271 21.3819C92.3271 25.1785 95.2612 28.1129 98.8086 28.1129C102.418 28.1129 105.233 25.1785 105.233 21.5065C105.233 21.0081 106.026 6.75972 101.135-11.7569L100.891-12.6865C95.3232-33.8729 82.8252-74.0089 47.3905-97.5852C45.4222-98.702 43.6461-99.372 41.6152-99.372L18.8854-99.372C15.3383-99.372 12.4609-96.4376 12.4609-92.8905C12.4609-89.2811 15.3383-86.3466 18.8854-86.3466L40.8988-86.3466C46.2486-82.6118 50.9237-78.6224 55.1624-74.2698C55.4947-73.9942 55.5-73.921 55.2403-73.4638L37.3514-42.9059C34.6613-38.3205 37.9591-33.1839 42.919-33.1839L65.3854-33.1839L53.443-11.2996L52.9443-10.3074L37.2268 18.5155C35.513 21.6885 36.6139 25.7239 39.7924 27.3183C42.675 28.8505 46.7051 28.1753 48.6007 24.7476ZM53.1976-45.5134L56.6002-51.4308C57.1039-52.2673 57.6602-52.0178 57.9873-51.5554L62.0761-45.5134Z"/>
  </g>
  <g id="Heavy-M" transform="matrix(1 0 0 1 2578.69 1126)">
   <path d="M31.9622-56.7377C38.5314-56.7377 43.8755-62.0841 43.8755-68.6697C43.8755-75.2389 38.5314-80.5853 31.9622-80.5853C25.3765-80.5853 20.0138-75.2389 20.0138-68.6697C20.0138-62.0841 25.3765-56.7377 31.9622-56.7377ZM63.3435-4.91441L78.3292-25.5409L87.5784-8.52922C90.9105 7.02983 91.2657 18.8144 91.2657 20.6416C91.2657 24.2502 94.0439 27.0263 97.4034 27.0263C100.827 27.0263 103.497 24.2502 103.497 20.7662C103.497 20.2678 104.037 6.30987 99.455-11.9946L99.2268-12.9082C94.0062-33.8453 81.4191-73.3241 46.5241-96.528C44.6283-97.6263 42.9381-98.2533 40.9823-98.2533L18.555-98.2533C15.1933-98.2533 12.4609-95.4773 12.4609-92.1156C12.4609-88.6916 15.1933-85.9156 18.555-85.9156L40.3467-85.9156C45.6517-82.2096 50.3063-78.238 54.5271-73.9277C54.9134-73.5873 54.9321-73.328 54.6455-72.8195L36.9873-42.6648C34.4396-38.3186 37.552-33.4559 42.2675-33.4559L64.8683-33.4559L52.8828-11.486L52.3867-10.5123L36.8627 17.942C35.2348 20.9322 36.2793 24.7527 39.2859 26.2746C42.0369 27.7343 45.8387 27.0886 47.6349 23.8328ZM52.1734-45.2351L55.655-51.27C56.1722-52.1688 56.8716-51.9218 57.2391-51.3946L61.3993-45.2351Z"/>
  </g>
  <g id="Bold-M" transform="matrix(1 0 0 1 2282.96 1126)">
   <path d="M32.3109-57.0976C38.6404-57.0976 43.7628-62.2252 43.7628-68.5834C43.7628-74.913 38.6404-80.0405 32.3109-80.0405C25.9527-80.0405 20.7965-74.913 20.7965-68.5834C20.7965-62.2252 25.9527-57.0976 32.3109-57.0976ZM62.0437-5.51039L77.0813-26.2054L86.4384-9.02046C89.7383 6.34935 90.0783 18.0221 90.0783 19.8135C90.0783 23.2119 92.6822 25.8106 95.8314 25.8106C99.048 25.8106 101.556 23.2119 101.556 19.9381C101.556 19.4396 101.811 5.80664 97.5759-12.2605L97.3655-13.1562C92.5331-33.8143 79.8461-72.5582 45.5549-95.3454C43.7402-96.4228 42.1462-97.0018 40.2743-97.0018L18.1855-97.0018C15.0312-97.0018 12.4609-94.403 12.4609-91.2487C12.4609-88.0321 15.0312-85.4333 18.1855-85.4333L39.7292-85.4333C44.9839-81.7596 49.6157-77.8081 53.8165-73.5451C54.2631-73.1322 54.2968-72.6647 53.9801-72.0987L36.58-42.395C34.1916-38.3165 37.0967-33.7602 41.5387-33.7602L64.29-33.7602L52.2562-11.6945L51.7629-10.7416L36.4554 17.3005C34.9237 20.0861 35.905 23.6662 38.7192 25.1071C41.3232 26.4856 44.8696 25.8729 46.5544 22.8095ZM51.0278-44.9237L54.5977-51.0901C55.1299-52.0586 55.9894-51.8145 56.4022-51.2147L60.6421-44.9237Z"/>
  </g>
  <g id="Semibold-M" transform="matrix(1 0 0 1 1986.92 1126)">
   <path d="M32.5513-57.3458C38.7156-57.3458 43.6852-62.3224 43.6852-68.5238C43.6852-74.6882 38.7156-79.6649 32.5513-79.6649C26.3498-79.6649 21.3361-74.6882 21.3361-68.5238C21.3361-62.3224 26.3498-57.3458 32.5513-57.3458ZM61.1476-5.92126L76.2211-26.6635L85.6524-9.35912C88.9301 5.88024 89.2598 17.4759 89.2598 19.2426C89.2598 22.496 91.7435 24.9726 94.7477 24.9726C97.8213 24.9726 100.217 22.496 100.217 19.3672C100.217 18.8687 100.277 5.45972 96.2804-12.4438L96.0824-13.3271C91.5174-33.793 78.7617-72.0301 44.8868-94.5301C43.128-95.5932 41.6002-96.139 39.7862-96.139L17.9307-96.139C14.9194-96.139 12.4609-93.6624 12.4609-90.6511C12.4609-87.5775 14.9194-85.1009 17.9307-85.1009L39.3035-85.1009C44.5236-81.4494 49.1396-77.5117 53.3266-73.2813C53.8147-72.8184 53.8589-72.2074 53.5214-71.6018L36.2992-42.209C34.0206-38.3151 36.7827-33.97 41.0363-33.97L63.8913-33.97L51.8241-11.8382L51.3328-10.8997L36.1746 16.8582C34.7092 19.5028 35.647 22.9172 38.3286 24.3022C40.8312 25.6248 44.2014 25.0349 45.8096 22.104ZM50.238-44.7091L53.8688-50.9661C54.4114-51.9826 55.3813-51.7405 55.8252-51.0907L60.1201-44.7091Z"/>
  </g>
  <g id="Medium-M" transform="matrix(1 0 0 1 1690.72 1126)">
   <path d="M32.7335-57.5339C38.7726-57.5339 43.6263-62.3962 43.6263-68.4787C43.6263-74.5178 38.7726-79.3801 32.7335-79.3801C26.651-79.3801 21.7453-74.5178 21.7453-68.4787C21.7453-62.3962 26.651-57.5339 32.7335-57.5339ZM60.4681-6.2328L75.5688-27.0109L85.0565-9.61591C88.3173 5.52453 88.6391 17.0618 88.6391 18.8097C88.6391 21.9532 91.0316 24.3371 93.926 24.3371C96.8912 24.3371 99.2025 21.9532 99.2025 18.9343C99.2025 18.4359 99.1133 5.19667 95.2981-12.5828L95.1095-13.4567C90.7474-33.7769 77.9394-71.6297 44.3801-93.9119C42.6637-94.9642 41.1863-95.4848 39.4161-95.4848L17.7375-95.4848C14.8346-95.4848 12.4609-93.1009 12.4609-90.198C12.4609-87.2328 14.8346-84.8489 17.7375-84.8489L38.9806-84.8489C44.1746-81.2142 48.7786-77.2869 52.9551-73.0812C53.4748-72.5805 53.5268-71.8607 53.1735-71.2251L36.0863-42.068C33.891-38.314 36.5447-34.1291 40.6553-34.1291L63.5889-34.1291L51.4966-11.9472L51.0067-11.0195L35.9617 16.5229C34.5466 19.0606 35.4513 22.3493 38.0324 23.6919C40.4581 24.9721 43.6948 24.3994 45.2448 21.5691ZM49.6391-44.5463L53.3161-50.872C53.8666-51.9249 54.9201-51.6843 55.3877-50.9967L59.7243-44.5463Z"/>
  </g>
  <g id="Regular-M" transform="matrix(1 0 0 1 1394.67 1126)">
   <path d="M32.9713-57.7793C38.847-57.7793 43.5495-62.4923 43.5495-68.4198C43.5495-74.2956 38.847-79.0086 32.9713-79.0086C27.0438-79.0086 22.279-74.2956 22.279-68.4198C22.279-62.4923 27.0438-57.7793 32.9713-57.7793ZM59.5819-6.63915L74.7179-27.464L84.2792-9.95085C87.5181 5.06057 87.8296 16.5216 87.8296 18.2451C87.8296 21.2452 90.1032 23.5083 92.8542 23.5083C95.678 23.5083 97.8787 21.2452 97.8787 18.3697C97.8787 17.8712 97.5959 4.85356 94.0168-12.7641L93.8405-13.6258C89.7429-33.7558 76.867-71.1075 43.7193-93.1056C42.0582-94.1437 40.6463-94.6315 38.9334-94.6315L17.4855-94.6315C14.724-94.6315 12.4609-92.3685 12.4609-89.607C12.4609-86.7832 14.724-84.5201 17.4855-84.5201L38.5596-84.5201C43.7193-80.9074 48.3078-76.9938 52.4706-72.8204C53.0314-72.2702 53.0937-71.4084 52.7199-70.7336L35.8086-41.884C33.7219-38.3126 36.2342-34.3366 40.1584-34.3366L63.1946-34.3366L51.0693-12.0893L50.5814-11.1758L35.684 16.0855C34.3344 18.4837 35.1961 21.6085 37.6461 22.8958C39.9715 24.1208 43.034 23.5706 44.5082 20.8714ZM48.858-44.334L52.5952-50.7494C53.156-51.8498 54.3187-51.6111 54.8171-50.874L59.2081-44.334Z"/>
  </g>
  <g id="Light-M" transform="matrix(1 0 0 1 1099.13 1126)">
   <path d="M32.0815-57.3173C37.7861-57.3173 42.3346-61.8935 42.3346-67.6327C42.3346-73.3374 37.7861-77.9135 32.0815-77.9135C26.3422-77.9135 21.7314-73.3374 21.7314-67.6327C21.7314-61.8935 26.3422-57.3173 32.0815-57.3173ZM58.2986-7.40914L73.024-27.6522L82.3286-10.6353C85.4647 3.96547 85.7763 15.1185 85.7763 16.8077C85.7763 19.7224 87.9986 21.917 90.664 21.917C93.4193 21.917 95.5516 19.7224 95.5516 16.9324C95.5516 16.4339 95.0121 3.8269 91.7924-13.363L91.6332-14.2076C87.9634-33.8413 75.1216-70.1322 42.8809-91.5314C41.254-92.5352 39.8763-93.006 38.2148-93.006L17.3486-93.006C14.6556-93.006 12.4609-90.8114 12.4609-88.1183C12.4609-85.3629 14.6556-83.1683 17.3486-83.1683L37.8409-83.1683C42.8809-79.6583 47.3324-75.8644 51.3755-71.7937C51.9363-71.2606 51.9986-70.416 51.6248-69.7583L35.1755-41.7129C33.1402-38.2099 35.584-34.3537 39.4055-34.3537L61.8086-34.3537L50.0255-12.7053L49.5547-11.8261L35.0509 14.6824C33.7355 17.0293 34.5801 20.0685 36.9617 21.3216C39.2186 22.5124 42.1955 21.9793 43.6355 19.3485ZM47.8655-44.0945L51.5001-50.3045C52.0609-51.3707 53.1893-51.1491 53.6878-50.4291L57.9248-44.0945Z"/>
  </g>
  <g id="Thin-M" transform="matrix(1 0 0 1 803.955 1126)">
   <path d="M30.9047-56.7063C36.383-56.7063 40.7279-61.1014 40.7279-66.5917C40.7279-72.07 36.383-76.4652 30.9047-76.4652C25.4144-76.4652 21.0072-72.07 21.0072-66.5917C21.0072-61.1014 25.4144-56.7063 30.9047-56.7063ZM56.6013-8.42752L70.7835-27.9012L79.7487-11.5405C82.7491 2.51712 83.0606 13.2628 83.0606 14.9068C83.0606 17.7082 85.215 19.8123 87.7672 19.8123C90.4321 19.8123 92.4739 17.7082 92.4739 15.0314C92.4739 14.5329 91.5949 2.46907 88.8504-14.1551L88.7138-14.977C85.6098-33.9545 72.8133-68.8422 41.772-89.4494C40.1904-90.4079 38.8579-90.8561 37.2643-90.8561L17.1676-90.8561C14.565-90.8561 12.4609-88.752 12.4609-86.1494C12.4609-83.4846 14.565-81.3805 17.1676-81.3805L36.8904-81.3805C41.772-78.0063 46.0425-74.3708 49.9272-70.4359C50.4879-69.9254 50.5502-69.1034 50.1764-68.4684L34.3382-41.4866C32.3707-38.0741 34.724-34.3764 38.4098-34.3764L59.9755-34.3764L48.645-13.52L48.1969-12.686L34.2136 12.8267C32.9435 15.1057 33.7654 18.0318 36.0565 19.2396C38.2229 20.3851 41.0866 19.8746 42.4814 17.3344ZM46.553-43.7776L50.0518-49.7161C50.6125-50.737 51.6957-50.5381 52.1942-49.8407L56.2275-43.7776Z"/>
  </g>
  <g id="Ultralight-M" transform="matrix(1 0 0 1 508.032 1126)">
   <path d="M30.302-56.3933C35.6644-56.3933 39.9049-60.6957 39.9049-66.0585C39.9049-71.4209 35.6644-75.7233 30.302-75.7233C24.9391-75.7233 20.6363-71.4209 20.6363-66.0585C20.6363-60.6957 24.9391-56.3933 30.302-56.3933ZM55.732-8.94913L69.636-28.0287L78.4273-12.0042C81.3581 1.77527 81.6696 12.3123 81.6696 13.9331C81.6696 16.6766 83.7893 18.7344 86.2836 18.7344C88.902 18.7344 90.8975 16.6766 90.8975 14.0577C90.8975 13.5593 89.8446 1.77359 87.3436-14.5608L87.2185-15.3711C84.4043-34.0124 71.631-68.1815 41.204-88.383C39.6456-89.3184 38.3363-89.7549 36.7774-89.7549L17.0749-89.7549C14.5187-89.7549 12.4609-87.6972 12.4609-85.141C12.4609-82.5225 14.5187-80.4648 17.0749-80.4648L36.4036-80.4648C41.204-77.1601 45.3818-73.6058 49.1853-69.7404C49.7461-69.2415 49.8084-68.4311 49.4346-67.8077L33.9093-41.3707C31.9766-38.0046 34.2836-34.388 37.8998-34.388L59.0366-34.388L47.938-13.9373L47.5014-13.1265L33.7847 11.8762C32.5378 14.1204 33.3482 16.9886 35.5928 18.1732C37.7129 19.2955 40.5187 18.7967 41.8902 16.3028ZM45.8807-43.6154L49.3099-49.4148C49.8707-50.4125 50.9307-50.2251 51.4291-49.5394L55.3581-43.6154Z"/>
  </g>
  <g id="Black-S" transform="matrix(1 0 0 1 2887.06 696)">
   <path d="M24.6582-51.709C30.0293-51.709 34.4238-56.1035 34.4238-61.4746C34.4238-66.8457 30.0293-71.2402 24.6582-71.2402C19.2871-71.2402 14.8926-66.8457 14.8926-61.4746C14.8926-56.1035 19.2871-51.709 24.6582-51.709ZM50.8301-10.9375L62.5-27.002L69.6289-13.8672C72.2656-1.51367 72.5586 7.8125 72.5586 9.27734C72.5586 12.3047 74.9023 14.6484 77.7344 14.6484C80.6152 14.6484 82.8613 12.3047 82.8613 9.375C82.8613 8.98438 83.5449-2.24609 79.6387-16.7969L79.4434-17.5293C75-34.1797 65.2344-65.7715 37.3535-84.3262C35.791-85.2051 34.375-85.7422 32.7637-85.7422L14.8926-85.7422C12.0605-85.7422 9.76562-83.3984 9.76562-80.5664C9.76562-77.6855 12.0605-75.3418 14.8926-75.3418L32.1777-75.3418C36.377-72.4121 40.0391-69.2871 43.3594-65.8691C43.6035-65.6738 43.6035-65.6738 43.4082-65.332L29.3457-41.3086C27.1973-37.6465 29.834-33.5449 33.7891-33.5449L51.3184-33.5449L41.9922-16.4551L41.6016-15.6738L29.248 6.98242C27.8809 9.52148 28.7598 12.7441 31.2988 14.0137C33.5938 15.2344 36.8164 14.6973 38.3301 11.9629ZM41.9434-43.3594L44.5801-47.9492C44.9707-48.584 45.3613-48.3887 45.6055-48.0469L48.7793-43.3594Z"/>
  </g>
  <g id="Heavy-S" transform="matrix(1 0 0 1 2590.95 696)">
   <path d="M25.0385-52.0432C30.2483-52.0432 34.493-56.2879 34.493-61.5092C34.493-66.7189 30.2483-70.9636 25.0385-70.9636C19.8172-70.9636 15.561-66.7189 15.561-61.5092C15.561-56.2879 19.8172-52.0432 25.0385-52.0432ZM50.0003-11.2948L61.7624-27.486L69.0066-14.1553C71.6318-1.89398 71.9132 7.38609 71.9132 8.82789C71.9132 11.7054 74.1302 13.9224 76.8124 13.9224C79.5435 13.9224 81.6743 11.7054 81.6743 8.92555C81.6743 8.53492 82.1735-2.49963 78.4862-16.9236L78.3024-17.6445C74.1011-34.1451 64.2548-65.3105 36.7197-83.6232C35.2148-84.4906 33.8679-84.9931 32.3142-84.9931L14.6275-84.9931C11.9453-84.9931 9.76562-82.7761 9.76562-80.0939C9.76562-77.3629 11.9453-75.1459 14.6275-75.1459L31.7974-75.1459C35.9736-72.2277 39.6357-69.1027 42.956-65.7078C43.2463-65.4549 43.2578-65.2935 43.0394-64.9056L29.1152-41.1242C27.082-37.658 29.5689-33.7754 33.3281-33.7754L51.0533-33.7754L41.6465-16.5357L41.2558-15.766L29.0176 6.67126C27.7195 9.06051 28.5523 12.1103 30.9531 13.3222C33.1443 14.4853 36.1826 13.9712 37.6156 11.3751ZM41.1943-43.1519L43.9117-47.8685C44.3138-48.5609 44.8312-48.3656 45.1099-47.9662L48.3644-43.1519Z"/>
  </g>
  <g id="Bold-S" transform="matrix(1 0 0 1 2294.91 696)">
   <path d="M25.4639-52.417C30.4932-52.417 34.5703-56.4941 34.5703-61.5479C34.5703-66.5771 30.4932-70.6543 25.4639-70.6543C20.4102-70.6543 16.3086-66.5771 16.3086-61.5479C16.3086-56.4941 20.4102-52.417 25.4639-52.417ZM49.0723-11.6943L60.9375-28.0273L68.3105-14.4775C70.9229-2.31934 71.1914 6.90918 71.1914 8.3252C71.1914 11.0352 73.2666 13.1104 75.7812 13.1104C78.3447 13.1104 80.3467 11.0352 80.3467 8.42285C80.3467 8.03223 80.6396-2.7832 77.1973-17.0654L77.0264-17.7734C73.0957-34.1064 63.1592-64.7949 36.0107-82.8369C34.5703-83.6914 33.3008-84.1553 31.8115-84.1553L14.3311-84.1553C11.8164-84.1553 9.76562-82.0801 9.76562-79.5654C9.76562-77.002 11.8164-74.9268 14.3311-74.9268L31.3721-74.9268C35.5225-72.0215 39.1846-68.8965 42.5049-65.5273C42.8467-65.21 42.8711-64.8682 42.627-64.4287L28.8574-40.918C26.9531-37.6709 29.2725-34.0332 32.8125-34.0332L50.7568-34.0332L41.2598-16.626L40.8691-15.8691L28.7598 6.32324C27.5391 8.54492 28.3203 11.4014 30.5664 12.5488C32.6416 13.6475 35.4736 13.1592 36.8164 10.7178ZM40.3564-42.9199L43.1641-47.7783C43.5791-48.5352 44.2383-48.3398 44.5557-47.876L47.9004-42.9199Z"/>
  </g>
  <g id="Semibold-S" transform="matrix(1 0 0 1 1998.66 696)">
   <path d="M25.7571-52.6747C30.662-52.6747 34.6236-56.6363 34.6236-61.5745C34.6236-66.4794 30.662-70.441 25.7571-70.441C20.8189-70.441 16.824-66.4794 16.824-61.5745C16.824-56.6363 20.8189-52.6747 25.7571-52.6747ZM48.4324-11.9698L60.3687-28.4006L67.8307-14.6997C70.4341-2.6126 70.6937 6.58037 70.6937 7.97861C70.6937 10.573 72.6712 12.5505 75.0703 12.5505C77.5183 12.5505 79.4313 10.573 79.4313 8.07627C79.4313 7.68564 79.5821-2.97871 76.3086-17.1632L76.1466-17.8623C72.4025-34.0798 62.4038-64.4395 35.522-82.2948C34.126-83.1404 32.9098-83.5776 31.4649-83.5776L14.1267-83.5776C11.7275-83.5776 9.76562-81.6002 9.76562-79.2011C9.76562-76.7531 11.7275-74.7757 14.1267-74.7757L31.0788-74.7757C35.2114-71.8793 38.8735-68.7543 42.1938-65.4029C42.5712-65.0411 42.6045-64.5749 42.3426-64.0999L28.6797-40.7758C26.8643-37.6798 29.0681-34.2109 32.457-34.2109L50.5524-34.2109L40.9932-16.6882L40.6025-15.9402L28.582 6.0833C27.4146 8.18945 28.1604 10.9126 30.2998 12.0156C32.295 13.0698 34.9849 12.5993 36.2654 10.2646ZM39.7788-42.76L42.6486-47.7161C43.0726-48.5174 43.8295-48.3221 44.1735-47.8138L47.5805-42.76Z"/>
  </g>
  <g id="Medium-S" transform="matrix(1 0 0 1 1702.3 696)">
   <path d="M25.9795-52.8701C30.79-52.8701 34.6641-56.7441 34.6641-61.5947C34.6641-66.4053 30.79-70.2793 25.9795-70.2793C21.1289-70.2793 17.2148-66.4053 17.2148-61.5947C17.2148-56.7441 21.1289-52.8701 25.9795-52.8701ZM47.9473-12.1787L59.9375-28.6836L67.4668-14.8682C70.0635-2.83496 70.3164 6.33105 70.3164 7.71582C70.3164 10.2227 72.2197 12.126 74.5312 12.126C76.8916 12.126 78.7373 10.2227 78.7373 7.81348C78.7373 7.42285 78.7803-3.12695 75.6348-17.2373L75.4795-17.9297C71.877-34.0596 61.8311-64.1699 35.1514-81.8838C33.7891-82.7227 32.6133-83.1396 31.2021-83.1396L13.9717-83.1396C11.6602-83.1396 9.76562-81.2363 9.76562-78.9248C9.76562-76.5645 11.6602-74.6611 13.9717-74.6611L30.8564-74.6611C34.9756-71.7715 38.6377-68.6465 41.958-65.3086C42.3623-64.9131 42.4023-64.3525 42.127-63.8506L28.5449-40.668C26.7969-37.6865 28.9131-34.3457 32.1875-34.3457L50.3975-34.3457L40.791-16.7354L40.4004-15.9941L28.4473 5.90137C27.3203 7.91992 28.0391 10.542 30.0977 11.6113C32.0322 12.6318 34.6143 12.1748 35.8477 9.9209ZM39.3408-42.6387L42.2578-47.6689C42.6885-48.5039 43.5195-48.3086 43.8838-47.7666L47.3379-42.6387Z"/>
  </g>
  <g id="Regular-S" transform="matrix(1 0 0 1 1406.05 696)">
   <path d="M26.2695-53.125C30.957-53.125 34.7168-56.8848 34.7168-61.6211C34.7168-66.3086 30.957-70.0684 26.2695-70.0684C21.5332-70.0684 17.7246-66.3086 17.7246-61.6211C17.7246-56.8848 21.5332-53.125 26.2695-53.125ZM47.3145-12.4512L59.375-29.0527L66.9922-15.0879C69.5801-3.125 69.8242 6.00586 69.8242 7.37305C69.8242 9.76562 71.6309 11.5723 73.8281 11.5723C76.0742 11.5723 77.832 9.76562 77.832 7.4707C77.832 7.08008 77.7344-3.32031 74.7559-17.334L74.6094-18.0176C71.1914-34.0332 61.084-63.8184 34.668-81.3477C33.3496-82.1777 32.2266-82.5684 30.8594-82.5684L13.7695-82.5684C11.5723-82.5684 9.76562-80.7617 9.76562-78.5645C9.76562-76.3184 11.5723-74.5117 13.7695-74.5117L30.5664-74.5117C34.668-71.6309 38.3301-68.5059 41.6504-65.1855C42.0898-64.7461 42.1387-64.0625 41.8457-63.5254L28.3691-40.5273C26.709-37.6953 28.7109-34.5215 31.8359-34.5215L50.1953-34.5215L40.5273-16.7969L40.1367-16.0645L28.2715 5.66406C27.1973 7.56836 27.8809 10.0586 29.834 11.084C31.6895 12.0605 34.1309 11.6211 35.3027 9.47266ZM38.7695-42.4805L41.748-47.6074C42.1875-48.4863 43.1152-48.291 43.5059-47.7051L47.0215-42.4805Z"/>
  </g>
  <g id="Light-S" transform="matrix(1 0 0 1 1110.36 696)">
   <path d="M25.4824-52.7163C30.0186-52.7163 33.6421-56.355 33.6421-60.9248C33.6421-65.4609 30.0186-69.0996 25.4824-69.0996C20.9126-69.0996 17.2402-65.4609 17.2402-60.9248C17.2402-56.355 20.9126-52.7163 25.4824-52.7163ZM46.1792-13.1323L57.8765-29.2192L65.2666-15.6934C67.7637-4.09374 68.0078 4.76466 68.0078 6.10157C68.0078 8.41847 69.7691 10.1646 71.8906 10.1646C74.0762 10.1646 75.7735 8.41847 75.7735 6.19923C75.7735 5.8086 75.4487-4.22851 72.7881-17.8638L72.6568-18.5322C69.6172-34.1089 59.5401-62.9556 33.9263-79.9551C32.6382-80.7549 31.5454-81.1304 30.2236-81.1304L13.6484-81.1304C11.5117-81.1304 9.76562-79.3843 9.76562-77.2476C9.76562-75.062 11.5117-73.3159 13.6484-73.3159L29.9307-73.3159C33.9263-70.5259 37.4673-67.5068 40.6816-64.2774C41.1211-63.853 41.1699-63.1846 40.877-62.6626L27.8091-40.376C26.1943-37.6045 28.1357-34.5366 31.1699-34.5366L48.9692-34.5366L39.604-17.3418L39.2285-16.6396L27.7114 4.42286C26.6675 6.28175 27.3359 8.6963 29.2285 9.69142C31.0234 10.6377 33.3892 10.2134 34.5308 8.1255ZM37.8916-42.2686L40.7793-47.2139C41.2188-48.0625 42.1162-47.8823 42.5068-47.3115L45.8862-42.2686Z"/>
  </g>
  <g id="Thin-S" transform="matrix(1 0 0 1 815.014 696)">
   <path d="M24.4414-52.1758C28.7774-52.1758 32.2207-55.6543 32.2207-60.0039C32.2207-64.3399 28.7774-67.8184 24.4414-67.8184C20.0918-67.8184 16.5996-64.3399 16.5996-60.0039C16.5996-55.6543 20.0918-52.1758 24.4414-52.1758ZM44.6778-14.0332L55.8946-29.4395L62.9844-16.4941C65.3614-5.37498 65.6055 3.12307 65.6055 4.41995C65.6055 6.63674 67.3067 8.30276 69.3282 8.30276C71.4336 8.30276 73.0508 6.63674 73.0508 4.5176C73.0508 4.12698 72.4258-5.42967 70.1856-18.5644L70.0743-19.2129C67.5352-34.209 57.4981-61.8145 32.9453-78.1133C31.6973-78.8731 30.6445-79.2285 29.3828-79.2285L13.4883-79.2285C11.4316-79.2285 9.76562-77.5625 9.76562-75.5059C9.76562-73.4004 11.4316-71.7344 13.4883-71.7344L29.0899-71.7344C32.9453-69.0645 36.3262-66.1856 39.4004-63.0762C39.8399-62.6719 39.8887-62.0235 39.5957-61.5215L27.0684-40.1758C25.5137-37.4844 27.375-34.5566 30.2891-34.5566L47.3477-34.5566L38.3828-18.0625L38.0274-17.4004L26.9707 2.78127C25.9668 4.5801 26.6152 6.89456 28.4277 7.84963C30.1426 8.75589 32.4082 8.35159 33.5098 6.34377ZM36.7305-41.9883L39.4981-46.6934C39.9375-47.502 40.7949-47.3418 41.1856-46.791L44.3848-41.9883Z"/>
  </g>
  <g id="Ultralight-S" transform="matrix(1 0 0 1 519 696)">
   <path d="M23.9082-51.8989C28.1416-51.8989 31.4927-55.2954 31.4927-59.5322C31.4927-63.7656 28.1416-67.1621 23.9082-67.1621C19.6714-67.1621 16.2715-63.7656 16.2715-59.5322C16.2715-55.2954 19.6714-51.8989 23.9082-51.8989ZM43.9087-14.4946L54.8794-29.5522L61.8155-16.9043C64.1309-6.03123 64.375 2.28226 64.375 3.55862C64.375 5.72415 66.0455 7.34915 68.0157 7.34915C70.0801 7.34915 71.6563 5.72415 71.6563 3.65628C71.6563 3.26566 70.8775-6.0449 68.8526-18.9233L68.7515-19.5615C66.4688-34.2603 56.4522-61.23 32.4429-77.17C31.2153-77.9092 30.1831-78.2544 28.9522-78.2544L13.4063-78.2544C11.3906-78.2544 9.76562-76.6294 9.76562-74.6138C9.76562-72.5493 11.3906-70.9243 13.4063-70.9243L28.6592-70.9243C32.4429-68.3159 35.7417-65.5088 38.7442-62.461C39.1836-62.0669 39.2324-61.4287 38.9395-60.937L26.689-40.0732C25.1651-37.4229 26.9854-34.5669 29.8379-34.5669L46.5171-34.5669L37.7573-18.4316L37.4121-17.79L26.5913 1.94046C25.6079 3.70853 26.2461 5.97171 28.0176 6.90628C29.6914 7.79203 31.9058 7.39798 32.9868 5.43118ZM36.1358-41.8447L38.8418-46.4268C39.2813-47.2149 40.1182-47.065 40.5088-46.5244L43.6157-41.8447Z"/>
  </g>
 </g>
</svg>
