<?xml version="1.0" encoding="UTF-8"?>
<!--Generator: Apple Native CoreSVG 175.5-->
<!DOCTYPE svg
PUBLIC "-//W3C//DTD SVG 1.1//EN"
       "http://www.w3.org/Graphics/SVG/1.1/DTD/svg11.dtd">
<svg version="1.1" xmlns="http://www.w3.org/2000/svg" xmlns:xlink="http://www.w3.org/1999/xlink" width="3300" height="2200">
 <!--glyph: "uni101525.medium", point size: 100.0, font version: "18.0d12e2", template writer version: "101"-->
 <g id="Notes">
  <rect height="2200" id="artboard" style="fill:white;opacity:1" width="3300" x="0" y="0"/>
  <line style="fill:none;stroke:black;opacity:1;stroke-width:0.5;" x1="263" x2="3036" y1="292" y2="292"/>
  <text style="stroke:none;fill:black;font-family:sans-serif;font-size:13;font-weight:bold;" transform="matrix(1 0 0 1 263 322)">Weight/Scale Variations</text>
  <text style="stroke:none;fill:black;font-family:sans-serif;font-size:13;text-anchor:middle;" transform="matrix(1 0 0 1 559.711 322)">Ultralight</text>
  <text style="stroke:none;fill:black;font-family:sans-serif;font-size:13;text-anchor:middle;" transform="matrix(1 0 0 1 856.422 322)">Thin</text>
  <text style="stroke:none;fill:black;font-family:sans-serif;font-size:13;text-anchor:middle;" transform="matrix(1 0 0 1 1153.13 322)">Light</text>
  <text style="stroke:none;fill:black;font-family:sans-serif;font-size:13;text-anchor:middle;" transform="matrix(1 0 0 1 1449.84 322)">Regular</text>
  <text style="stroke:none;fill:black;font-family:sans-serif;font-size:13;text-anchor:middle;" transform="matrix(1 0 0 1 1746.56 322)">Medium</text>
  <text style="stroke:none;fill:black;font-family:sans-serif;font-size:13;text-anchor:middle;" transform="matrix(1 0 0 1 2043.27 322)">Semibold</text>
  <text style="stroke:none;fill:black;font-family:sans-serif;font-size:13;text-anchor:middle;" transform="matrix(1 0 0 1 2339.98 322)">Bold</text>
  <text style="stroke:none;fill:black;font-family:sans-serif;font-size:13;text-anchor:middle;" transform="matrix(1 0 0 1 2636.69 322)">Heavy</text>
  <text style="stroke:none;fill:black;font-family:sans-serif;font-size:13;text-anchor:middle;" transform="matrix(1 0 0 1 2933.4 322)">Black</text>
  <line style="fill:none;stroke:black;opacity:1;stroke-width:0.5;" x1="263" x2="3036" y1="1903" y2="1903"/>
  <g transform="matrix(1 0 0 1 263 1933)">
   <path d="M9.24805 0.830078C13.5547 0.830078 17.1387-2.74414 17.1387-7.05078C17.1387-11.3574 13.5449-14.9316 9.23828-14.9316C4.94141-14.9316 1.36719-11.3574 1.36719-7.05078C1.36719-2.74414 4.95117 0.830078 9.24805 0.830078ZM9.24805-0.654297C5.70312-0.654297 2.87109-3.49609 2.87109-7.05078C2.87109-10.6055 5.69336-13.4473 9.23828-13.4473C12.793-13.4473 15.6445-10.6055 15.6445-7.05078C15.6445-3.49609 12.8027-0.654297 9.24805-0.654297ZM5.6543-7.05078C5.6543-6.62109 5.95703-6.32812 6.40625-6.32812L8.50586-6.32812L8.50586-4.20898C8.50586-3.76953 8.79883-3.4668 9.22852-3.4668C9.67773-3.4668 9.9707-3.76953 9.9707-4.20898L9.9707-6.32812L12.0898-6.32812C12.5293-6.32812 12.832-6.62109 12.832-7.05078C12.832-7.49023 12.5293-7.79297 12.0898-7.79297L9.9707-7.79297L9.9707-9.90234C9.9707-10.3516 9.67773-10.6543 9.22852-10.6543C8.79883-10.6543 8.50586-10.3516 8.50586-9.90234L8.50586-7.79297L6.40625-7.79297C5.95703-7.79297 5.6543-7.49023 5.6543-7.05078Z"/>
  </g>
  <g transform="matrix(1 0 0 1 281.867 1933)">
   <path d="M11.709 2.91016C17.1582 2.91016 21.6699-1.61133 21.6699-7.05078C21.6699-12.5 17.1484-17.0117 11.6992-17.0117C6.25977-17.0117 1.74805-12.5 1.74805-7.05078C1.74805-1.61133 6.26953 2.91016 11.709 2.91016ZM11.709 1.25C7.09961 1.25 3.41797-2.44141 3.41797-7.05078C3.41797-11.6602 7.08984-15.3516 11.6992-15.3516C16.3086-15.3516 20.0098-11.6602 20.0098-7.05078C20.0098-2.44141 16.3184 1.25 11.709 1.25ZM7.17773-7.05078C7.17773-6.57227 7.50977-6.25 8.00781-6.25L10.8789-6.25L10.8789-3.36914C10.8789-2.88086 11.2109-2.53906 11.6895-2.53906C12.1777-2.53906 12.5195-2.87109 12.5195-3.36914L12.5195-6.25L15.4004-6.25C15.8887-6.25 16.2305-6.57227 16.2305-7.05078C16.2305-7.53906 15.8887-7.88086 15.4004-7.88086L12.5195-7.88086L12.5195-10.752C12.5195-11.25 12.1777-11.5918 11.6895-11.5918C11.2109-11.5918 10.8789-11.25 10.8789-10.752L10.8789-7.88086L8.00781-7.88086C7.50977-7.88086 7.17773-7.53906 7.17773-7.05078Z"/>
  </g>
  <g transform="matrix(1 0 0 1 305.646 1933)">
   <path d="M14.9707 5.66406C21.9336 5.66406 27.6953-0.0976562 27.6953-7.05078C27.6953-14.0137 21.9238-19.7754 14.9609-19.7754C8.00781-19.7754 2.25586-14.0137 2.25586-7.05078C2.25586-0.0976562 8.01758 5.66406 14.9707 5.66406ZM14.9707 3.84766C8.93555 3.84766 4.08203-1.01562 4.08203-7.05078C4.08203-13.0957 8.92578-17.9492 14.9609-17.9492C21.0059-17.9492 25.8691-13.0957 25.8691-7.05078C25.8691-1.01562 21.0156 3.84766 14.9707 3.84766ZM9.19922-7.05078C9.19922-6.5332 9.57031-6.17188 10.1172-6.17188L14.0625-6.17188L14.0625-2.2168C14.0625-1.67969 14.4336-1.29883 14.9512-1.29883C15.4883-1.29883 15.8594-1.66992 15.8594-2.2168L15.8594-6.17188L19.8145-6.17188C20.3516-6.17188 20.7324-6.5332 20.7324-7.05078C20.7324-7.59766 20.3613-7.96875 19.8145-7.96875L15.8594-7.96875L15.8594-11.9141C15.8594-12.4609 15.4883-12.8418 14.9512-12.8418C14.4336-12.8418 14.0625-12.4609 14.0625-11.9141L14.0625-7.96875L10.1172-7.96875C9.57031-7.96875 9.19922-7.59766 9.19922-7.05078Z"/>
  </g>
  <text style="stroke:none;fill:black;font-family:sans-serif;font-size:13;font-weight:bold;" transform="matrix(1 0 0 1 263 1953)">Design Variations</text>
  <text style="stroke:none;fill:black;font-family:sans-serif;font-size:13;" transform="matrix(1 0 0 1 263 1971)">Symbols are supported in up to nine weights and three scales.</text>
  <text style="stroke:none;fill:black;font-family:sans-serif;font-size:13;" transform="matrix(1 0 0 1 263 1989)">For optimal layout with text and other symbols, vertically align</text>
  <text style="stroke:none;fill:black;font-family:sans-serif;font-size:13;" transform="matrix(1 0 0 1 263 2007)">symbols with the adjacent text.</text>
  <line style="fill:none;stroke:#00AEEF;stroke-width:0.5;opacity:1.0;" x1="776" x2="776" y1="1919" y2="1933"/>
  <g transform="matrix(1 0 0 1 776 1933)">
   <path d="M3.31055 0.15625C3.82812 0.15625 4.08203-0.0390625 4.26758-0.585938L5.52734-4.0332L11.2891-4.0332L12.5488-0.585938C12.7344-0.0390625 12.9883 0.15625 13.4961 0.15625C14.0137 0.15625 14.3457-0.15625 14.3457-0.644531C14.3457-0.810547 14.3164-0.966797 14.2383-1.17188L9.6582-13.3691C9.43359-13.9648 9.0332-14.2676 8.4082-14.2676C7.80273-14.2676 7.39258-13.9746 7.17773-13.3789L2.59766-1.16211C2.51953-0.957031 2.49023-0.800781 2.49023-0.634766C2.49023-0.146484 2.80273 0.15625 3.31055 0.15625ZM6.00586-5.51758L8.37891-12.0898L8.42773-12.0898L10.8008-5.51758Z"/>
  </g>
  <line style="fill:none;stroke:#00AEEF;stroke-width:0.5;opacity:1.0;" x1="793.197" x2="793.197" y1="1919" y2="1933"/>
  <text style="stroke:none;fill:black;font-family:sans-serif;font-size:13;font-weight:bold;" transform="matrix(1 0 0 1 776 1953)">Margins</text>
  <text style="stroke:none;fill:black;font-family:sans-serif;font-size:13;" transform="matrix(1 0 0 1 776 1971)">Leading and trailing margins on the left and right side of each symbol</text>
  <text style="stroke:none;fill:black;font-family:sans-serif;font-size:13;" transform="matrix(1 0 0 1 776 1989)">can be adjusted by modifying the x-location of the margin guidelines.</text>
  <text style="stroke:none;fill:black;font-family:sans-serif;font-size:13;" transform="matrix(1 0 0 1 776 2007)">Modifications are automatically applied proportionally to all</text>
  <text style="stroke:none;fill:black;font-family:sans-serif;font-size:13;" transform="matrix(1 0 0 1 776 2025)">scales and weights.</text>
  <g transform="matrix(1 0 0 1 1289 1933)">
   <path d="M2.8418 1.86523L4.54102 3.57422C5.40039 4.44336 6.38672 4.38477 7.31445 3.35938L18.0078-8.42773L17.041-9.4043L6.42578 2.27539C6.07422 2.67578 5.74219 2.77344 5.27344 2.30469L4.10156 1.14258C3.63281 0.683594 3.74023 0.341797 4.14062-0.0195312L15.6152-10.8203L14.6387-11.7871L3.04688-0.898438C2.06055 0.0195312 1.98242 0.996094 2.8418 1.86523ZM9.25781-16.3281C8.83789-15.918 8.80859-15.3418 9.04297-14.9512C9.27734-14.5898 9.73633-14.3555 10.3809-14.5215C11.8457-14.8633 13.3691-14.9219 14.7949-13.9844L14.209-12.5293C13.8672-11.6992 14.043-11.1133 14.5801-10.5664L16.875-8.25195C17.3633-7.76367 17.7734-7.74414 18.3398-7.8418L19.4043-8.03711L20.0684-7.36328L20.0293-6.80664C19.9902-6.30859 20.1172-5.92773 20.6055-5.44922L21.3672-4.70703C21.8457-4.22852 22.4609-4.19922 22.9297-4.66797L25.8398-7.58789C26.3086-8.05664 26.2891-8.65234 25.8105-9.13086L25.0391-9.89258C24.5605-10.3711 24.1895-10.5273 23.7109-10.4883L23.1348-10.4395L22.4902-11.0742L22.7344-12.1973C22.8613-12.7637 22.7051-13.2031 22.1191-13.7891L19.9219-15.9766C16.582-19.2969 12.1484-19.2188 9.25781-16.3281ZM10.752-15.957C13.1836-17.7344 16.4746-17.4316 18.7012-15.2051L21.1328-12.793C21.3672-12.5586 21.4062-12.373 21.3379-12.0312L21.0156-10.5469L22.5195-9.0625L23.5059-9.12109C23.7598-9.13086 23.8379-9.11133 24.0332-8.91602L24.6094-8.33984L22.168-5.89844L21.5918-6.47461C21.3965-6.66992 21.3672-6.74805 21.377-7.01172L21.4453-7.98828L19.9512-9.47266L18.4277-9.21875C18.1055-9.15039 17.959-9.17969 17.7148-9.41406L15.7129-11.416C15.459-11.6504 15.4297-11.8164 15.5859-12.1875L16.4648-14.2773C14.9023-15.7324 12.8711-16.3574 10.8398-15.7617C10.6836-15.7227 10.625-15.8496 10.752-15.957Z"/>
  </g>
  <text style="stroke:none;fill:black;font-family:sans-serif;font-size:13;font-weight:bold;" transform="matrix(1 0 0 1 1289 1953)">Exporting</text>
  <text style="stroke:none;fill:black;font-family:sans-serif;font-size:13;" transform="matrix(1 0 0 1 1289 1971)">Symbols should be outlined when exporting to ensure the</text>
  <text style="stroke:none;fill:black;font-family:sans-serif;font-size:13;" transform="matrix(1 0 0 1 1289 1989)">design is preserved when submitting to Xcode.</text>
  <text id="template-version" style="stroke:none;fill:black;font-family:sans-serif;font-size:13;text-anchor:end;" transform="matrix(1 0 0 1 3036 1933)">Template v.4.0</text>
  <text style="stroke:none;fill:black;font-family:sans-serif;font-size:13;text-anchor:end;" transform="matrix(1 0 0 1 3036 1951)">Requires Xcode 14 or greater</text>
  <text id="descriptive-name" style="stroke:none;fill:black;font-family:sans-serif;font-size:13;text-anchor:end;" transform="matrix(1 0 0 1 3036 1969)">Generated from figure.equestrian.sports</text>
  <text style="stroke:none;fill:black;font-family:sans-serif;font-size:13;text-anchor:end;" transform="matrix(1 0 0 1 3036 1987)">Typeset at 100 points</text>
  <text style="stroke:none;fill:black;font-family:sans-serif;font-size:13;" transform="matrix(1 0 0 1 263 726)">Small</text>
  <text style="stroke:none;fill:black;font-family:sans-serif;font-size:13;" transform="matrix(1 0 0 1 263 1156)">Medium</text>
  <text style="stroke:none;fill:black;font-family:sans-serif;font-size:13;" transform="matrix(1 0 0 1 263 1586)">Large</text>
 </g>
 <g id="Guides">
  <g id="H-reference" style="fill:#27AAE1;stroke:none;" transform="matrix(1 0 0 1 339 696)">
   <path d="M0.993654 0L3.63775 0L29.3281-67.1323L30.0303-67.1323L30.0303-70.459L28.1226-70.459ZM11.6885-24.4799L46.9815-24.4799L46.2315-26.7285L12.4385-26.7285ZM55.1196 0L57.7637 0L30.6382-70.459L29.4326-70.459L29.4326-67.1323Z"/>
  </g>
  <line id="Baseline-S" style="fill:none;stroke:#27AAE1;opacity:1;stroke-width:0.5;" x1="263" x2="3036" y1="696" y2="696"/>
  <line id="Capline-S" style="fill:none;stroke:#27AAE1;opacity:1;stroke-width:0.5;" x1="263" x2="3036" y1="625.541" y2="625.541"/>
  <g id="H-reference" style="fill:#27AAE1;stroke:none;" transform="matrix(1 0 0 1 339 1126)">
   <path d="M0.993654 0L3.63775 0L29.3281-67.1323L30.0303-67.1323L30.0303-70.459L28.1226-70.459ZM11.6885-24.4799L46.9815-24.4799L46.2315-26.7285L12.4385-26.7285ZM55.1196 0L57.7637 0L30.6382-70.459L29.4326-70.459L29.4326-67.1323Z"/>
  </g>
  <line id="Baseline-M" style="fill:none;stroke:#27AAE1;opacity:1;stroke-width:0.5;" x1="263" x2="3036" y1="1126" y2="1126"/>
  <line id="Capline-M" style="fill:none;stroke:#27AAE1;opacity:1;stroke-width:0.5;" x1="263" x2="3036" y1="1055.54" y2="1055.54"/>
  <g id="H-reference" style="fill:#27AAE1;stroke:none;" transform="matrix(1 0 0 1 339 1556)">
   <path d="M0.993654 0L3.63775 0L29.3281-67.1323L30.0303-67.1323L30.0303-70.459L28.1226-70.459ZM11.6885-24.4799L46.9815-24.4799L46.2315-26.7285L12.4385-26.7285ZM55.1196 0L57.7637 0L30.6382-70.459L29.4326-70.459L29.4326-67.1323Z"/>
  </g>
  <line id="Baseline-L" style="fill:none;stroke:#27AAE1;opacity:1;stroke-width:0.5;" x1="263" x2="3036" y1="1556" y2="1556"/>
  <line id="Capline-L" style="fill:none;stroke:#27AAE1;opacity:1;stroke-width:0.5;" x1="263" x2="3036" y1="1485.54" y2="1485.54"/>
  <line id="left-margin-Regular-M" style="fill:none;stroke:#00AEEF;stroke-width:0.5;opacity:1.0;" x1="1383.12" x2="1383.12" y1="1030.79" y2="1150.12"/>
  <line id="right-margin-Regular-M" style="fill:none;stroke:#00AEEF;stroke-width:0.5;opacity:1.0;" x1="1516.57" x2="1516.57" y1="1030.79" y2="1150.12"/>
 </g>
 <g id="Symbols">
  <g id="Black-L" transform="matrix(1 0 0 1 2838.86 1556)">
   <path d="M104.449-69.3746C112.975-69.3746 119.919-76.3398 119.919-84.8879C119.919-93.4139 112.975-100.357 104.449-100.357C95.9008-100.357 88.9355-93.4139 88.9355-84.8879C88.9355-76.3398 95.9008-69.3746 104.449-69.3746ZM113.966-22.2824C118.478-22.2824 122.113-25.8384 122.113-30.3714C122.113-34.9045 118.478-38.4605 113.966-38.4605L90.8463-38.4605L90.8463-62.1209C90.8463-71.123 83.2465-76.9624 74.8438-75.2616L33.99-66.8579C18.2367-63.5951 14.2448-45.1123 25.42-34.8102L49.2553-12.7775L49.2553 21.6947C49.2553 26.1265 52.8709 29.8202 57.3235 29.8202C61.7762 29.8202 65.4698 26.1265 65.4698 21.6947L65.4698-15.9314C65.4698-18.6909 64.8121-20.3256 63.1124-22.2237L45.7378-40.848C44.8688-41.7171 45.2553-42.8922 46.424-43.1335L72.3623-47.9347C73.9016-48.2408 74.6902-47.5934 74.6902-46.1409L74.6902-30.3714C74.6902-25.8384 78.3255-22.2824 82.7793-22.2824ZM151.133 8.23037L165.492 8.23037C169.787 8.23037 172.973 5.10204 172.973 0.82866L172.973-61.8332C172.973-66.0738 169.787-69.2009 165.504-69.2009L150.891-69.2009C127.293-69.2009 112.593-63.1486 97.4581-45.9954L112.466-45.9954C112.94-45.9954 113.472-45.9954 113.946-45.937C124.095-54.4974 135.051-57.7287 150.891-57.7287L161.459-57.7287L161.459-3.32345L151.133-3.32345C149.301-3.32345 148.307-3.96605 147.572-5.49326L141.555-17.5462C139.972-20.6121 136.81-21.2079 134.297-20.1813C131.526-19.113 129.407-16.0067 131.288-12.3255L137.305-0.250467C139.92 4.93957 145.302 8.23037 151.133 8.23037ZM73.0268 0.610615C79.0492-3.82253 84.0024-9.12472 88.3199-14.7266L82.7793-14.7266C79.9403-14.7266 77.2609-15.5095 75.01-16.883C74.3738-16.1551 73.7131-15.4139 73.0268-14.7777ZM21.9465 11.7041L35.1291 11.7041C37.5722 11.7041 39.9505 11.6005 41.6983 11.4904L41.6983-0.0246266C39.9129 0.0866365 37.6306 0.211083 35.1291 0.211083L21.9465 0.211083C18.8377 0.211083 16.1287 2.54764 16.1287 6.04843C16.1287 9.0559 18.7793 11.7041 21.9465 11.7041Z"/>
  </g>
  <g id="Heavy-L" transform="matrix(1 0 0 1 2544.29 1556)">
   <path d="M102.364-68.995C110.653-68.995 117.392-75.764 117.392-84.0887C117.392-92.3776 110.653-99.1107 102.364-99.1107C94.0395-99.1107 87.2706-92.3776 87.2706-84.0887C87.2706-75.764 94.0395-68.995 102.364-68.995ZM111.928-22.8371C116.23-22.8371 119.71-26.242 119.71-30.5738C119.71-34.9055 116.23-38.3104 111.928-38.3104L88.8405-38.3104L88.8405-61.9255C88.8405-70.6398 81.4966-76.2828 73.3541-74.6322L33.025-66.3372C17.6957-63.161 13.7442-45.1199 24.6645-35.1515L48.5603-13.3163L48.5603 20.837C48.5603 25.0582 52.0155 28.5825 56.2668 28.5825C60.5182 28.5825 64.0425 25.0582 64.0425 20.837L64.0425-16.3191C64.0425-18.9826 63.4261-20.5258 61.7811-22.3461L44.1359-40.9698C43.23-41.8758 43.6534-43.1248 44.8453-43.3661L70.7938-48.1733C72.5774-48.5164 73.4029-47.8271 73.4029-46.1811L73.4029-30.5738C73.4029-26.242 76.8827-22.8371 81.1396-22.8371ZM148.643 6.27544L161.778 6.27544C165.791 6.27544 168.686 3.41958 168.686-0.557643L168.686-61.6957C168.686-65.5866 165.791-68.4369 161.834-68.4369L148.402-68.4369C125.119-68.4369 110.722-62.4695 95.813-45.4582L109.347-45.4582C109.761-45.4582 110.22-45.4582 110.634-45.4136C121.045-54.6054 132.153-58.0655 148.402-58.0655L158.254-58.0655L158.254-4.18194L148.643-4.18194C146.689-4.18194 145.508-4.94311 144.705-6.58889L138.769-18.4836C137.332-21.2489 134.507-21.8038 132.231-20.9007C129.7-19.9373 127.763-17.1172 129.475-13.7724L135.41-1.84193C137.926 3.12971 143.04 6.27544 148.643 6.27544ZM71.2261-0.352944C77.2418-4.75571 82.1415-10.0644 86.4607-15.6591L81.1396-15.6591C78.6426-15.6591 76.3007-16.3097 74.2958-17.4636C73.3215-16.3293 72.3001-15.2275 71.2261-14.2532ZM21.4981 10.4813L34.1183 10.4813C36.782 10.4813 39.3439 10.3595 41.3767 10.1805L41.3767-0.256817C39.3294-0.0722175 36.8266 0.079797 34.1183 0.079797L21.4981 0.079797C18.6668 0.079797 16.2264 2.21668 16.2264 5.37607C16.2264 8.09676 18.6222 10.4813 21.4981 10.4813Z"/>
  </g>
  <g id="Bold-L" transform="matrix(1 0 0 1 2250.25 1556)">
   <path d="M99.8048-68.4741C107.802-68.4741 114.294-75.0047 114.294-83.0528C114.294-91.0496 107.802-97.529 99.8048-97.529C91.7567-97.529 85.2261-91.0496 85.2261-83.0528C85.2261-75.0047 91.7567-68.4741 99.8048-68.4741ZM109.333-23.4763C113.389-23.4763 116.684-26.7042 116.684-30.7974C116.684-34.8907 113.389-38.1185 109.333-38.1185L86.3585-38.1185L86.3585-61.6052C86.3585-69.9734 79.3223-75.3781 71.495-73.7889L31.8786-65.6396C17.0719-62.5709 13.1815-45.0829 23.7793-35.5145L47.6625-13.9699L47.6625 19.7169C47.6625 23.6918 50.9328 27.016 54.9456 27.016C58.9584 27.016 62.2827 23.6918 62.2827 19.7169L62.2827-16.7956C62.2827-19.3438 61.7125-20.7793 60.1366-22.5072L42.2503-41.0712C41.3057-42.0159 41.7678-43.3422 42.9829-43.5834L68.8573-48.376C70.9033-48.7577 71.7675-48.0296 71.7675-46.1751L71.7675-30.7974C71.7675-26.7042 75.0626-23.4763 79.0886-23.4763ZM145.428 3.91458L157.161 3.91458C160.82 3.91458 163.339 1.4117 163.339-2.19675L163.339-61.467C163.339-64.9052 160.82-67.3948 157.293-67.3948L145.187-67.3948C122.355-67.3948 108.364-61.5574 93.7692-44.7824L105.437-44.7824C105.782-44.7824 106.156-44.7824 106.501-44.7532C117.205-54.6914 128.476-58.4209 145.187-58.4209L154.289-58.4209L154.289-5.15299L145.428-5.15299C143.313-5.15299 141.908-6.06018 141.02-7.85198L135.193-19.5321C133.939-21.921 131.53-22.4222 129.553-21.6654C127.336-20.8325 125.637-18.3808 127.135-15.4659L132.962-3.73462C135.348 0.960572 140.116 3.91458 145.428 3.91458ZM68.9977-1.58875C74.9684-5.93076 79.7842-11.2174 84.081-16.7745L79.0886-16.7745C77.0142-16.7745 75.0874-17.2636 73.3898-18.156C72.0078-16.5296 70.5482-14.9895 68.9977-13.6076ZM20.9672 8.9154L32.918 8.9154C35.8284 8.9154 38.5983 8.77053 40.9474 8.51445L40.9474-0.548675C38.6071-0.279361 35.8576-0.0965082 32.918-0.0965082L20.9672-0.0965082C18.4891-0.0965082 16.3866 1.77954 16.3866 4.50886C16.3866 6.86858 18.4599 8.9154 20.9672 8.9154Z"/>
  </g>
  <g id="Semibold-L" transform="matrix(1 0 0 1 1955.38 1556)">
   <path d="M98.0403-68.115C105.836-68.115 112.159-74.4812 112.159-82.3386C112.159-90.1341 105.836-96.4385 98.0403-96.4385C90.1829-96.4385 83.8166-90.1341 83.8166-82.3386C83.8166-74.4812 90.1829-68.115 98.0403-68.115ZM107.545-23.917C111.43-23.917 114.598-27.0228 114.598-30.9516C114.598-34.8804 111.43-37.9862 107.545-37.9862L84.6475-37.9862L84.6475-61.3844C84.6475-69.5139 77.8233-74.7543 70.2134-73.2076L31.0882-65.1587C16.6418-62.1642 12.7936-45.0574 23.169-35.7647L47.0435-14.4204L47.0435 18.9448C47.0435 22.7498 50.1863 25.9361 54.0347 25.9361C57.8831 25.9361 61.0694 22.7498 61.0694 18.9448L61.0694-17.1242C61.0694-19.5927 60.5312-20.9539 59.0029-22.6182L40.9504-41.1412C39.9791-42.1124 40.4678-43.492 41.6989-43.7333L67.5222-48.5157C69.7493-48.924 70.6401-48.1692 70.6401-46.171L70.6401-30.9516C70.6401-27.0228 73.8079-23.917 77.6747-23.917ZM143.211 2.28702L153.977 2.28702C157.393 2.28702 159.653 0.0274808 159.653-3.32674L159.653-61.3094C159.653-64.4354 157.393-66.6765 154.162-66.6765L142.97-66.6765C120.449-66.6765 106.739-60.9285 92.3603-44.3165L102.742-44.3165C103.039-44.3165 103.355-44.3165 103.652-44.2979C114.558-54.7507 125.94-58.6659 142.97-58.6659L151.556-58.6659L151.556-5.82242L143.211-5.82242C140.985-5.82242 139.427-6.83028 138.481-8.72275L132.727-20.2549C131.6-22.3844 129.477-22.8486 127.707-22.1925C125.707-21.4497 124.172-19.252 125.521-16.6334L131.275-5.03943C133.57-0.534815 138.1 2.28702 143.211 2.28702ZM67.4615-2.4407C73.4012-6.74083 78.1591-12.0122 82.4405-17.5434L77.6747-17.5434C75.8916-17.5434 74.2509-17.9213 72.7651-18.6334C71.1022-16.6676 69.3405-14.8255 67.4615-13.1626ZM20.6012 7.83586L32.0905 7.83586C35.171 7.83586 38.0844 7.67511 40.6514 7.36587L40.6514-0.74988C38.1092-0.422165 35.1896-0.218052 32.0905-0.218052L20.6012-0.218052C18.3665-0.218052 16.497 1.47818 16.497 3.911C16.497 6.02187 18.3479 7.83586 20.6012 7.83586Z"/>
  </g>
  <g id="Medium-L" transform="matrix(1 0 0 1 1660.06 1556)">
   <path d="M96.7024-67.8427C104.345-67.8427 110.539-74.0843 110.539-81.7971C110.539-89.44 104.345-95.6117 96.7024-95.6117C88.9896-95.6117 82.7479-89.44 82.7479-81.7971C82.7479-74.0843 88.9896-67.8427 96.7024-67.8427ZM106.188-24.2512C109.945-24.2512 113.016-27.2645 113.016-31.0685C113.016-34.8726 109.945-37.8859 106.188-37.8859L83.3501-37.8859L83.3501-61.217C83.3501-69.1656 76.6867-74.2814 69.2416-72.7668L30.489-64.794C16.3157-61.8557 12.4994-45.0381 22.7063-35.9545L46.5741-14.7621L46.5741 18.3593C46.5741 22.0355 49.6204 25.1173 53.3441 25.1173C57.0677 25.1173 60.1495 22.0355 60.1495 18.3593L60.1495-17.3732C60.1495-19.7815 59.6354-21.0864 58.1433-22.7024L39.9647-41.1942C38.9732-42.1856 39.4822-43.6056 40.7254-43.8469L66.5099-48.6217C68.8742-49.0502 69.7852-48.275 69.7852-46.1679L69.7852-31.0685C69.7852-27.2645 72.8565-24.2512 76.6026-24.2512ZM141.53 1.05293L151.564 1.05293C154.795 1.05293 156.858-1.02209 156.858-4.18355L156.858-61.1898C156.858-64.0792 154.795-66.1318 151.788-66.1318L141.289-66.1318C119.005-66.1318 105.506-60.4517 91.2919-43.9632L100.698-43.9632C100.959-43.9632 101.23-43.9632 101.491-43.9526C112.55-54.7957 124.018-58.8517 141.289-58.8517L149.483-58.8517L149.483-6.33002L141.53-6.33002C139.22-6.33002 137.545-7.4142 136.555-9.383L130.857-20.803C129.827-22.7357 127.921-23.1719 126.307-22.5922C124.472-21.9177 123.061-19.9125 124.298-17.5187L129.995-6.0288C132.223-1.66868 136.572 1.05293 141.53 1.05293ZM66.2966-3.08669C72.2128-7.35506 76.9268-12.6149 81.1966-18.1265L76.6026-18.1265C75.0405-18.1265 73.6167-18.42 72.2915-18.9953C70.4155-16.7723 68.4247-14.7011 66.2966-12.8251ZM20.3236 7.0173L31.4631 7.0173C34.6725 7.0173 37.6947 6.84451 40.427 6.49498L40.427-0.902442C37.7316-0.530445 34.683-0.310212 31.4631-0.310212L20.3236-0.310212C18.2736-0.310212 16.5807 1.24967 16.5807 3.45769C16.5807 5.37987 18.263 7.0173 20.3236 7.0173Z"/>
  </g>
  <g id="Regular-L" transform="matrix(1 0 0 1 1365.17 1556)">
   <path d="M94.9573-67.4875C102.401-67.4875 108.427-73.5666 108.427-81.0908C108.427-88.5346 102.401-94.5333 94.9573-94.5333C87.4331-94.5333 81.354-88.5346 81.354-81.0908C81.354-73.5666 87.4331-67.4875 94.9573-67.4875ZM104.419-24.687C108.007-24.687 110.953-27.5796 110.953-31.221C110.953-34.8625 108.007-37.7551 104.419-37.7551L81.6578-37.7551L81.6578-60.9986C81.6578-68.7112 75.2042-73.6645 67.9741-72.1919L29.7073-64.3184C15.8904-61.4534 12.1158-45.0129 22.1027-36.202L45.9619-15.2077L45.9619 17.5956C45.9619 21.1039 48.8822 24.0492 52.4432 24.0492C56.0042 24.0492 58.9496 21.1039 58.9496 17.5956L58.9496-17.6981C58.9496-20.0278 58.467-21.2592 57.022-22.8123L38.679-41.2633C37.6612-42.2811 38.1965-43.7538 39.4556-43.9951L65.1896-48.7598C67.7328-49.2147 68.6702-48.4131 68.6702-46.1639L68.6702-31.221C68.6702-27.5796 71.6155-24.687 75.2042-24.687ZM139.338-0.556741L148.415-0.556741C151.406-0.556741 153.212-2.3911 153.212-5.30112L153.212-61.0339C153.212-63.6146 151.406-65.4213 148.692-65.4213L139.097-65.4213C117.12-65.4213 103.899-59.8297 89.8985-43.5023L98.0325-43.5023C98.2461-43.5023 98.4597-43.5023 98.6733-43.5023C109.932-54.8543 121.51-59.094 139.097-59.094L146.78-59.094L146.78-6.9921L139.338-6.9921C136.918-6.9921 135.091-8.17584 134.043-10.2442L128.418-21.5179C127.514-23.194 125.891-23.5935 124.481-23.1135C122.86-22.528 121.611-20.7741 122.702-18.6734L128.326-7.31927C130.465-3.14763 134.578-0.556741 139.338-0.556741ZM64.7773-3.92928C70.6628-8.15623 75.3195-13.401 79.5741-18.887L75.2042-18.887C73.9302-18.887 72.7894-19.0704 71.6738-19.4674C69.5199-16.9089 67.2303-14.5388 64.7773-12.3849ZM19.9616 5.94962L30.6447 5.94962C34.0223 5.94962 37.1864 5.76113 40.1342 5.35903L40.1342-1.10144C37.2391-0.671679 34.0223-0.43042 30.6447-0.43042L19.9616-0.43042C18.1523-0.43042 16.6899 0.951625 16.6899 2.8664C16.6899 4.54247 18.1523 5.94962 19.9616 5.94962Z"/>
  </g>
  <g id="Light-L" transform="matrix(1 0 0 1 1070.43 1556)">
   <path d="M93.335-66.8004C100.588-66.8004 106.5-72.746 106.5-80.0793C106.5-87.3322 100.588-93.1973 93.335-93.1973C86.0017-93.1973 80.0562-87.3322 80.0562-80.0793C80.0562-72.746 86.0017-66.8004 93.335-66.8004ZM102.167-24.8206C105.679-24.8206 108.548-27.6559 108.548-31.202C108.548-34.748 105.679-37.5833 102.167-37.5833L79.9592-37.5833L79.9592-60.2733C79.9592-67.8142 73.6583-72.6339 66.5999-71.1994L29.2302-63.4977C15.7568-60.7091 12.0967-44.6884 21.8164-36.0684L45.1031-15.5703L45.1031 16.4505C45.1031 19.8824 47.9852 22.7514 51.4508 22.7514C54.9164 22.7514 57.7854 19.8824 57.7854 16.4505L57.7854-18.0035C57.7854-20.2759 57.3028-21.4691 55.9151-22.984L38.0111-41.0152C37.0123-42.0139 37.5285-43.4484 38.7685-43.6897L63.8918-48.3018C66.3587-48.7376 67.2769-47.9932 67.2769-45.8012L67.2769-31.202C67.2769-27.6559 70.1459-24.8206 73.6583-24.8206ZM136.265-1.79728L145.114-1.79728C147.837-1.79728 149.281-3.28811 149.281-5.93094L149.281-60.4995C149.281-62.6412 147.837-64.0853 145.581-64.0853L136.024-64.0853C114.753-64.0853 102.009-58.7419 88.448-42.968L95.0361-42.968C95.2306-42.968 95.4251-42.968 95.6196-42.968C106.878-54.6062 118.399-58.9413 136.024-58.9413L144.07-58.9413L144.07-7.06844L136.265-7.06844C133.673-7.06844 131.751-8.34761 130.646-10.5114L125.136-21.5179C124.384-22.9077 123.028-23.25 121.866-22.8273C120.57-22.3372 119.569-20.9268 120.469-19.2078L125.979-8.12085C127.984-4.17824 131.773-1.79728 136.265-1.79728ZM63.2504-5.05531C68.8688-9.09141 73.3537-14.1262 77.4366-19.4023L73.6583-19.4023C72.6706-19.4023 71.797-19.4903 70.9104-19.7727C68.5465-16.947 66.0088-14.3289 63.2504-11.9651ZM19.7517 4.53731L30.1485 4.53731C33.5261 4.53731 36.7092 4.32973 39.638 3.92763L39.638-1.33046C36.7429-0.881617 33.5261-0.640358 30.1485-0.640358L19.7517-0.640358C18.2478-0.640358 17.0525 0.474493 17.0525 2.04574C17.0525 3.43552 18.2478 4.53731 19.7517 4.53731Z"/>
  </g>
  <g id="Thin-L" transform="matrix(1 0 0 1 776.335 1556)">
   <path d="M91.1895-65.8917C98.19-65.8917 103.95-71.6606 103.95-78.7415C103.95-85.742 98.19-91.4304 91.1895-91.4304C84.1086-91.4304 78.3397-85.742 78.3397-78.7415C78.3397-71.6606 84.1086-65.8917 91.1895-65.8917ZM99.1882-24.9973C102.6-24.9973 105.368-27.7569 105.368-31.1767C105.368-34.5965 102.6-37.3561 99.1882-37.3561L77.7127-37.3561L77.7127-59.3142C77.7127-66.6279 71.6137-71.2709 64.7825-69.8868L28.5991-62.4123C15.5801-59.7247 12.0714-44.2593 21.4378-35.8917L43.9672-16.0499L43.9672 14.936C43.9672 18.2669 46.7988 21.035 50.1382 21.035C53.4776 21.035 56.2456 18.2669 56.2456 14.936L56.2456-18.4074C56.2456-20.604 55.7631-21.7468 54.4511-23.2112L37.1276-40.6871C36.1541-41.6606 36.6451-43.0446 37.8598-43.2858L62.1753-47.696C64.5412-48.1065 65.4343-47.4379 65.4343-45.3216L65.4343-31.1767C65.4343-27.7569 68.2023-24.9973 71.6137-24.9973ZM132.201-3.438L140.747-3.438C143.117-3.438 144.081-4.47447 144.081-6.76392L144.081-59.7927C144.081-61.3539 143.117-62.3184 141.467-62.3184L131.96-62.3184C111.623-62.3184 99.5104-57.3031 86.5296-42.2612L91.0731-42.2612C91.2424-42.2612 91.4117-42.2612 91.5809-42.2612C102.84-54.2781 114.285-58.7394 131.96-58.7394L140.485-58.7394L140.485-7.1694L132.201-7.1694C129.382-7.1694 127.334-8.57478 126.153-10.8648L120.794-21.5179C120.244-22.5291 119.241-22.7956 118.408-22.4486C117.541-22.0848 116.868-21.1287 117.515-19.9145L122.874-9.18101C124.702-5.5413 128.062-3.438 132.201-3.438ZM61.2311-6.54458C66.4961-10.3283 70.7538-15.0854 74.6095-20.0838L71.6137-20.0838C71.0046-20.0838 70.4844-20.0456 69.9007-20.1766C67.2592-16.9975 64.3933-14.0512 61.2311-11.4097ZM19.474 2.66942L29.4922 2.66942C32.8698 2.66942 36.0782 2.43659 38.9817 2.03449L38.9817-1.63336C36.0866-1.15928 32.8698-0.918018 29.4922-0.918018L19.474-0.918018C18.374-0.918018 17.5321-0.156552 17.5321 0.960338C17.5321 1.9715 18.374 2.66942 19.474 2.66942Z"/>
  </g>
  <g id="Ultralight-L" transform="matrix(1 0 0 1 480.962 1556)">
   <path d="M90.0905-65.4263C96.9617-65.4263 102.645-71.1046 102.645-78.0563C102.645-84.9274 96.9617-90.5254 90.0905-90.5254C83.1389-90.5254 77.4606-84.9274 77.4606-78.0563C77.4606-71.1046 83.1389-65.4263 90.0905-65.4263ZM97.6626-25.0878C101.022-25.0878 103.739-27.8086 103.739-31.1638C103.739-34.519 101.022-37.2398 97.6626-37.2398L76.562-37.2398L76.562-58.8229C76.562-66.0202 70.5665-70.5727 63.8516-69.2146L28.2759-61.8564C15.4896-59.2205 12.0585-44.0395 21.2439-35.8012L43.3854-16.2955L43.3854 14.1603C43.3854 17.4395 46.1911 20.1558 49.4659 20.1558C52.7407 20.1558 55.457 17.4395 55.457 14.1603L55.457-18.6142C55.457-20.7721 54.9744-21.889 53.7012-23.3276L36.6751-40.519C35.7145-41.4796 36.1926-42.8377 37.3944-43.079L61.2962-47.3857C63.6104-47.7833 64.4905-47.1534 64.4905-45.076L64.4905-31.1638C64.4905-27.8086 67.2068-25.0878 70.5665-25.0878ZM130.12-4.27837L138.51-4.27837C140.699-4.27837 141.418-5.08212 141.418-7.19056L141.418-59.4307C141.418-60.6945 140.699-61.4134 139.359-61.4134L129.879-61.4134C110.02-61.4134 98.2305-56.5662 85.547-41.8992L89.0433-41.8992C89.1996-41.8992 89.356-41.8992 89.5123-41.8992C100.771-54.11 112.177-58.636 129.879-58.636L138.649-58.636L138.649-7.22112L130.12-7.22112C127.184-7.22112 125.071-8.69114 123.851-11.0458L118.57-21.5179C118.124-22.3351 117.302-22.5629 116.637-22.2547C115.989-21.9555 115.485-21.2322 116.003-20.2765L121.284-9.72402C123.021-6.23945 126.162-4.27837 130.12-4.27837ZM60.1968-7.30737C65.2808-10.9618 69.4222-15.5767 73.1615-20.4329L70.5665-20.4329C70.1513-20.4329 69.8121-20.33 69.3835-20.3835C66.5998-17.0234 63.5659-13.909 60.1968-11.1253ZM19.3318 1.71269L29.156 1.71269C32.5337 1.71269 35.755 1.46694 38.6456 1.06484L38.6456-1.78851C35.7505-1.30149 32.5337-1.06023 29.156-1.06023L19.3318-1.06023C18.4386-1.06023 17.7777-0.479771 17.7777 0.404402C17.7777 1.22163 18.4386 1.71269 19.3318 1.71269Z"/>
  </g>
  <g id="Black-M" transform="matrix(1 0 0 1 2858.59 1126)">
   <path d="M82.4927-61.9162C89.2761-61.9162 94.8175-67.4631 94.8175-74.2518C94.8175-81.0352 89.2761-86.5769 82.4927-86.5769C75.704-86.5769 70.1571-81.0352 70.1571-74.2518C70.1571-67.4631 75.704-61.9162 82.4927-61.9162ZM89.74-24.7402C93.4065-24.7402 96.3461-27.6173 96.3461-31.2892C96.3461-34.9612 93.4065-37.8383 89.74-37.8383L71.8762-37.8383L71.8762-56.1331C71.8762-63.3315 65.7891-68.0061 59.0786-66.6505L27.0982-60.0697C14.5755-57.4778 11.4638-42.8356 20.3044-34.5933L38.6411-17.4211L38.6411 9.45406C38.6411 13.0583 41.575 16.055 45.1846 16.055C48.7943 16.055 51.7911 13.0583 51.7911 9.45406L51.7911-19.9866C51.7911-22.1992 51.246-23.5392 49.8901-25.0714L36.7212-39.4441C36.0823-40.0831 36.3474-40.9249 37.2304-41.1118L57.2342-44.8057C58.2066-45.0085 58.7832-44.5507 58.7832-43.5994L58.7832-31.2892C58.7832-27.6173 61.7229-24.7402 65.3323-24.7402ZM118.812-0.0472587L130.958-0.0472587C134.492-0.0472587 137.161-2.65854 137.161-6.18763L137.161-55.8862C137.161-59.4126 134.492-62.0242 130.955-62.0242L118.625-62.0242C100.167-62.0242 88.5821-57.2958 76.7222-43.9596L89.4073-43.9596C89.8228-43.9596 90.2955-43.9596 90.7111-43.9025C98.3489-50.0307 106.699-52.3504 118.625-52.3504L127.476-52.3504L127.476-9.78308L118.812-9.78308C117.475-9.78308 116.853-10.192 116.334-11.2862L111.618-20.724C110.287-23.3188 107.584-23.8077 105.467-22.9139C103.157-22.0092 101.393-19.4031 102.969-16.3137L107.685-6.87063C109.78-2.69302 114.135-0.0472587 118.812-0.0472587ZM57.9176-6.78711C62.5529-10.2219 66.4131-14.2957 69.7335-18.6134L65.3323-18.6134C62.8777-18.6134 60.5481-19.3208 58.6238-20.558C58.393-20.3071 58.1574-20.0093 57.9176-19.7785ZM17.3597 1.99149L28.0175 1.99149C29.7207 1.99149 31.4081 1.92426 32.5146 1.89822L32.5146-7.78628C31.3564-7.76053 29.7778-7.6878 28.0175-7.6878L17.3597-7.6878C14.7542-7.6878 12.4608-5.74217 12.4608-2.78311C12.4608-0.245399 14.6971 1.99149 17.3597 1.99149Z"/>
  </g>
  <g id="Heavy-M" transform="matrix(1 0 0 1 2563.78 1126)">
   <path d="M80.6045-61.6086C87.1737-61.6086 92.5246-66.9759 92.5246-73.5638C92.5246-80.133 87.1737-85.4816 80.6045-85.4816C74.0166-85.4816 68.6493-80.133 68.6493-73.5638C68.6493-66.9759 74.0166-61.6086 80.6045-61.6086ZM87.956-25.2701C91.4237-25.2701 94.2184-28.0048 94.2184-31.4888C94.2184-34.9728 91.4237-37.7075 87.956-37.7075L70.0721-37.7075L70.0721-56.0089C70.0721-62.9418 64.221-67.4369 57.7492-66.1268L26.1989-59.6364C14.059-57.1221 10.9761-42.873 19.5923-34.9392L38.0409-17.9143L38.0409 8.72124C38.0409 12.1266 40.8215 14.9649 44.2432 14.9649C47.6649 14.9649 50.5032 12.1266 50.5032 8.72124L50.5032-20.3375C50.5032-22.4615 49.9986-23.7156 48.6907-25.1752L35.2169-39.5861C34.5401-40.2629 34.8431-41.1804 35.7504-41.3673L55.8207-45.0812C57.0388-45.3218 57.6533-44.8178 57.6533-43.6721L57.6533-31.4888C57.6533-28.0048 60.448-25.2701 63.872-25.2701ZM116.662-1.8439L127.632-1.8439C130.915-1.8439 133.333-4.22051 133.333-7.48473L133.333-55.8011C133.333-59.0262 130.915-61.4006 127.655-61.4006L116.475-61.4006C98.2601-61.4006 86.9276-56.7323 75.2478-43.4838L86.6343-43.4838C86.9934-43.4838 87.3962-43.4838 87.7553-43.4401C95.6491-50.1592 104.153-52.6938 116.475-52.6938L124.593-52.6938L124.593-10.6153L116.662-10.6153C115.221-10.6153 114.425-11.1312 113.845-12.3326L109.198-21.6403C107.995-23.9677 105.597-24.4219 103.688-23.6436C101.584-22.8325 99.9745-20.4746 101.404-17.6788L106.05-8.35244C108.059-4.36721 112.183-1.8439 116.662-1.8439ZM56.2982-7.62517C60.9516-11.0479 64.7754-15.1474 68.1131-19.4775L63.872-19.4775C61.7253-19.4775 59.7009-20.0643 57.996-21.0975C57.4541-20.474 56.8889-19.8465 56.2982-19.3045ZM16.9408 0.926422L27.0751 0.926422C28.994 0.926422 30.859 0.84316 32.246 0.749745L32.246-7.99214C30.8318-7.89645 29.0376-7.79678 27.0751-7.79678L16.9408-7.79678C14.5783-7.79678 12.5228-6.02169 12.5228-3.36467C12.5228-1.08091 14.5347 0.926422 16.9408 0.926422Z"/>
  </g>
  <g id="Bold-M" transform="matrix(1 0 0 1 2269.21 1126)">
   <path d="M78.4923-61.2644C84.8218-61.2644 89.9596-66.4308 89.9596-72.7942C89.9596-79.1238 84.8218-84.2564 78.4923-84.2564C72.1289-84.2564 66.9625-79.1238 66.9625-72.7942C66.9625-66.4308 72.1289-61.2644 78.4923-61.2644ZM85.9605-25.8629C89.2056-25.8629 91.8381-28.4383 91.8381-31.7121C91.8381-34.9858 89.2056-37.5612 85.9605-37.5612L68.0539-37.5612L68.0539-55.8701C68.0539-62.5059 62.4669-66.8001 56.262-65.5409L25.1928-59.1516C13.4813-56.7241 10.4306-42.9148 18.7957-35.3262L37.3696-18.4661L37.3696 7.90147C37.3696 11.0843 39.9786 13.7454 43.1901 13.7454C46.4015 13.7454 49.0626 11.0843 49.0626 7.90147L49.0626-20.7299C49.0626-22.755 48.6031-23.9129 47.3491-25.2914L33.5341-39.7448C32.8149-40.464 33.1603-41.4663 34.0949-41.6532L54.2394-45.3893C55.7325-45.6724 56.3894-45.1166 56.3894-43.7534L56.3894-31.7121C56.3894-28.4383 59.0219-25.8629 62.2385-25.8629ZM114.257-3.8537L123.912-3.8537C126.913-3.8537 129.051-5.96779 129.051-8.93573L129.051-55.706C129.051-58.594 126.913-60.7029 123.963-60.7029L114.07-60.7029C96.1268-60.7029 85.0768-56.102 73.5985-42.9515L83.5323-42.9515C83.8283-42.9515 84.1528-42.9515 84.4488-42.9229C92.629-50.3029 101.305-53.0779 114.07-53.0779L121.368-53.0779L121.368-11.5462L114.257-11.5462C112.7-11.5462 111.708-12.182 111.059-13.5031L106.49-22.6653C105.431-24.6935 103.374-25.109 101.699-24.4599C99.8235-23.7535 98.3872-21.6732 99.652-19.206L104.221-10.0101C106.135-6.24003 109.999-3.8537 114.257-3.8537ZM54.4866-8.56267C59.1603-11.9718 62.9433-16.1002 66.3005-20.444L62.2385-20.444C60.4362-20.444 58.7533-20.896 57.2938-21.701C56.4038-20.6606 55.4698-19.6643 54.4866-18.7743ZM16.4722-0.265006L26.021-0.265006C28.181-0.265006 30.2449-0.366202 31.9455-0.534984L31.9455-8.22242C30.245-8.0485 28.2096-7.91868 26.021-7.91868L16.4722-7.91868C14.3816-7.91868 12.5922-6.33437 12.5922-4.01523C12.5922-2.01554 14.353-0.265006 16.4722-0.265006Z"/>
  </g>
  <g id="Semibold-M" transform="matrix(1 0 0 1 1973.97 1126)">
   <path d="M77.0361-61.0272C83.2005-61.0272 88.1914-66.0551 88.1914-72.2636C88.1914-78.428 83.2005-83.4118 77.0361-83.4118C70.8276-83.4118 65.7997-78.428 65.7997-72.2636C65.7997-66.0551 70.8276-61.0272 77.0361-61.0272ZM84.5847-26.2716C87.6765-26.2716 90.1972-28.7371 90.1972-31.866C90.1972-34.9948 87.6765-37.4603 84.5847-37.4603L66.6626-37.4603L66.6626-55.7744C66.6626-62.2054 61.2577-66.3611 55.2368-65.137L24.4992-58.8174C13.083-56.4498 10.0545-42.9436 18.2466-35.5929L36.9067-18.8465L36.9067 7.33632C36.9067 10.3658 39.3975 12.9047 42.464 12.9047C45.5306 12.9047 48.0694 10.3658 48.0694 7.33632L48.0694-21.0005C48.0694-22.9572 47.6411-24.0489 46.4242-25.3715L32.374-39.8543C31.6256-40.6027 32.0001-41.6633 32.9536-41.8502L53.1493-45.6018C54.832-45.9141 55.5181-45.3227 55.5181-43.8095L55.5181-31.866C55.5181-28.7371 58.0388-26.2716 61.1124-26.2716ZM112.599-5.23924L121.347-5.23924C124.154-5.23924 126.099-7.17236 126.099-9.93604L126.099-55.6404C126.099-58.296 124.154-60.222 121.418-60.222L112.412-60.222C94.6561-60.222 83.8008-55.6675 72.4614-42.5845L81.3938-42.5845C81.6463-42.5845 81.9169-42.5845 82.1693-42.5663C90.547-50.402 99.3419-53.3427 112.412-53.3427L119.145-53.3427L119.145-12.188L112.599-12.188C110.962-12.188 109.836-12.9064 109.139-14.3101L104.623-23.3719C103.663-25.1939 101.841-25.5827 100.327-25.0226C98.6101-24.3885 97.293-22.4995 98.4445-20.2588L102.96-11.1528C104.808-7.53114 108.493-5.23924 112.599-5.23924ZM53.2378-9.20898C57.9254-12.6088 61.6802-16.7571 65.0509-21.1104L61.1124-21.1104C59.5475-21.1104 58.1-21.4693 56.8096-22.117C55.6797-20.7892 54.4915-19.5387 53.2378-18.4088ZM16.1492-1.08637L25.2943-1.08637C27.6205-1.08637 29.8215-1.19993 31.7384-1.42067L31.7384-8.38117C29.8404-8.15332 27.6387-8.00272 25.2943-8.00272L16.1492-8.00272C14.246-8.00272 12.6401-6.54993 12.6401-4.46372C12.6401-2.65988 14.2278-1.08637 16.1492-1.08637Z"/>
  </g>
  <g id="Medium-M" transform="matrix(1 0 0 1 1678.37 1126)">
   <path d="M75.932-60.8473C81.9711-60.8473 86.8506-65.7702 86.8506-71.8613C86.8506-77.9004 81.9711-82.7713 75.932-82.7713C69.8408-82.7713 64.9179-77.9004 64.9179-71.8613C64.9179-65.7702 69.8408-60.8473 75.932-60.8473ZM83.5416-26.5815C86.5171-26.5815 88.953-28.9637 88.953-31.9826C88.953-35.0016 86.5171-37.3838 83.5416-37.3838L65.6077-37.3838L65.6077-55.7018C65.6077-61.9776 60.3408-66.0282 54.4594-64.8308L23.9733-58.564C12.781-56.2418 9.76939-42.9655 17.8302-35.7952L36.5558-19.1349L36.5558 6.90781C36.5558 9.821 38.9569 12.2672 41.9135 12.2672C44.8702 12.2672 47.3164 9.821 47.3164 6.90781L47.3164-21.2056C47.3164-23.1106 46.9117-24.152 45.7229-25.4322L31.4943-39.9373C30.7238-40.7078 31.1205-41.8127 32.0882-41.9997L52.3228-45.7629C54.1491-46.0973 54.8574-45.4789 54.8574-43.852L54.8574-31.9826C54.8574-28.9637 57.2933-26.5815 60.2585-26.5815ZM111.342-6.28982L119.402-6.28982C122.063-6.28982 123.86-8.08572 123.86-10.6945L123.86-55.5906C123.86-58.07 122.063-59.8573 119.488-59.8573L111.155-59.8573C93.5409-59.8573 82.8334-55.338 71.5992-42.3063L79.7723-42.3063C79.9918-42.3063 80.2215-42.3063 80.4409-42.296C88.9683-50.4771 97.8533-53.5435 111.155-53.5435L117.46-53.5435L117.46-12.6746L111.342-12.6746C109.644-12.6746 108.416-13.4556 107.683-14.922L103.208-23.9077C102.322-25.5733 100.68-25.9419 99.2871-25.4493C97.69-24.8699 96.4632-23.1261 97.5289-21.057L102.004-12.0193C103.802-8.51012 107.351-6.28982 111.342-6.28982ZM52.2909-9.69903C56.9891-13.0918 60.7226-17.2551 64.1034-21.6156L60.2585-21.6156C58.8736-21.6156 57.6047-21.904 56.4425-22.4325C55.1307-20.8867 53.7497-19.4434 52.2909-18.1316ZM15.9042-1.70916L24.7432-1.70916C27.1956-1.70916 29.5005-1.83209 31.5813-2.09223L31.5813-8.50154C29.5336-8.2328 27.2059-8.06644 24.7432-8.06644L15.9042-8.06644C14.1431-8.06644 12.6764-6.71338 12.6764-4.80378C12.6764-3.14844 14.1329-1.70916 15.9042-1.70916Z"/>
  </g>
  <g id="Regular-M" transform="matrix(1 0 0 1 1383.12 1126)">
   <path d="M74.4918-60.6126C80.3676-60.6126 85.1017-65.3986 85.1017-71.3366C85.1017-77.2123 80.3676-81.9359 74.4918-81.9359C68.5538-81.9359 63.7679-77.2123 63.7679-71.3366C63.7679-65.3986 68.5538-60.6126 74.4918-60.6126ZM82.181-26.9857C85.0048-26.9857 87.3301-29.2593 87.3301-32.1349C87.3301-35.0104 85.0048-37.284 82.181-37.284L64.2317-37.284L64.2317-55.6072C64.2317-61.6804 59.1448-65.594 53.4454-64.4313L23.2874-58.2335C12.3871-55.9704 9.39746-42.994 17.287-36.0591L36.0981-19.5111L36.0981 6.34887C36.0981 9.11038 38.3822 11.4358 41.1955 11.4358C44.0087 11.4358 46.3341 9.11038 46.3341 6.34887L46.3341-21.4732C46.3341-23.3107 45.9603-24.2865 44.8082-25.5115L30.3469-40.0456C29.5475-40.845 29.9731-42.0076 30.9594-42.1946L51.2446-45.973C53.2585-46.3363 53.9956-45.6826 53.9956-43.9074L53.9956-32.1349C53.9956-29.2593 56.321-26.9857 59.1448-26.9857ZM109.702-7.66013L116.865-7.66013C119.334-7.66013 120.941-9.27705 120.941-11.6838L120.941-55.5258C120.941-57.7753 119.334-59.3816 116.971-59.3816L109.515-59.3816C92.0864-59.3816 81.5715-54.9083 70.4747-41.9433L77.6574-41.9433C77.8337-41.9433 78.0101-41.9433 78.1864-41.9433C86.9091-50.575 95.9116-53.8053 109.515-53.8053L115.261-53.8053L115.261-13.3093L109.702-13.3093C107.925-13.3093 106.564-14.172 105.784-15.7201L101.362-24.6065C100.574-26.0682 99.164-26.4104 97.9305-26.0059C96.4899-25.4979 95.381-23.9433 96.3347-22.0983L100.757-13.1495C102.49-9.78704 105.862-7.66013 109.702-7.66013ZM51.0557-10.3382C55.7678-13.7218 59.4734-17.9047 62.8675-22.2746L59.1448-22.2746C57.9946-22.2746 56.9586-22.4711 55.9637-22.8439C54.4146-21.014 52.7822-19.3192 51.0557-17.7701ZM15.5847-2.5215L24.0245-2.5215C26.6413-2.5215 29.0817-2.65666 31.3765-2.96818L31.3765-8.65855C29.1335-8.33647 26.6413-8.14956 24.0245-8.14956L15.5847-8.14956C14.009-8.14956 12.7237-6.92657 12.7237-5.24735C12.7237-3.78569 14.009-2.5215 15.5847-2.5215Z"/>
  </g>
  <g id="Light-M" transform="matrix(1 0 0 1 1088.18 1126)">
   <path d="M73.0374-59.9966C78.742-59.9966 83.3735-64.6628 83.3735-70.4297C83.3735-76.1343 78.742-80.7382 73.0374-80.7382C67.2705-80.7382 62.6043-76.1343 62.6043-70.4297C62.6043-64.6628 67.2705-59.9966 73.0374-59.9966ZM80.1619-27.1055C82.9172-27.1055 85.1742-29.3277 85.1742-32.1177C85.1742-34.9078 82.9172-37.13 80.1619-37.13L62.7088-37.13L62.7088-54.957C62.7088-60.8762 57.7588-64.67 52.2134-63.5416L22.8596-57.4977C12.2673-55.3031 9.38035-42.7031 17.0304-35.9393L35.3281-19.8362L35.3281 5.32222C35.3281 8.01528 37.578 10.2722 40.3057 10.2722C43.0334 10.2722 45.2904 8.01528 45.2904 5.32222L45.2904-21.747C45.2904-23.5331 44.9165-24.4747 43.8157-25.6655L29.748-39.8231C28.9657-40.6054 29.3742-41.7339 30.3434-41.9208L50.0811-45.5624C52.0265-45.9085 52.7465-45.3062 52.7465-43.5823L52.7465-32.1177C52.7465-29.3277 55.0034-27.1055 57.7588-27.1055ZM106.947-8.77234L113.905-8.77234C116.134-8.77234 117.416-10.0813 117.416-12.2485L117.416-55.0467C117.416-56.9026 116.134-58.1839 114.182-58.1839L106.76-58.1839C89.9646-58.1839 79.8775-53.9329 69.1743-41.4642L74.9709-41.4642C75.1302-41.4642 75.2894-41.4642 75.4487-41.4642C84.1713-50.3526 93.1225-53.6685 106.76-53.6685L112.831-53.6685L112.831-13.3777L106.947-13.3777C105.016-13.3777 103.569-14.326 102.739-15.9596L98.4187-24.6065C97.7677-25.8115 96.5974-26.1024 95.5863-25.7492C94.4366-25.3268 93.5501-24.0802 94.3327-22.5774L98.6527-13.8682C100.266-10.711 103.347-8.77234 106.947-8.77234ZM49.6868-11.3478C54.1593-14.5602 57.711-18.555 60.9511-22.7366L57.7588-22.7366C56.8653-22.7366 56.0688-22.8475 55.2793-23.1177C53.542-21.0482 51.6871-19.131 49.6868-17.3937ZM15.3965-3.78771L23.5796-3.78771C26.1964-3.78771 28.654-3.93998 30.9316-4.2515L30.9316-8.86388C28.6886-8.52469 26.1964-8.33778 23.5796-8.33778L15.3965-8.33778C14.0946-8.33778 13.0488-7.35434 13.0488-5.98312C13.0488-4.77813 14.0946-3.78771 15.3965-3.78771Z"/>
  </g>
  <g id="Thin-M" transform="matrix(1 0 0 1 793.809 1126)">
   <path d="M71.1138-59.1819C76.5921-59.1819 81.0878-63.6897 81.0878-69.2303C81.0878-74.7086 76.5921-79.154 71.1138-79.154C65.5732-79.154 61.0655-74.7086 61.0655-69.2303C61.0655-63.6897 65.5732-59.1819 71.1138-59.1819ZM77.4915-27.2639C80.1563-27.2639 82.3227-29.4183 82.3227-32.0951C82.3227-34.772 80.1563-36.9264 77.4915-36.9264L60.6947-36.9264L60.6947-54.097C60.6947-59.8125 55.9257-63.448 50.584-62.3648L22.2939-56.5246C12.1089-54.4205 9.35772-42.3184 16.6909-35.7809L34.3097-20.2662L34.3097 3.96438C34.3097 6.56692 36.5144 8.73333 39.1289 8.73333C41.7435 8.73333 43.9099 6.56692 43.9099 3.96438L43.9099-22.1091C43.9099-23.8273 43.5361-24.7236 42.5031-25.8691L28.956-39.5289C28.1963-40.2886 28.5821-41.3718 29.5287-41.5587L48.5422-45.0192C50.3971-45.3428 51.0945-44.8083 51.0945-43.1524L51.0945-32.0951C51.0945-29.4183 53.2609-27.2639 55.9257-27.2639ZM103.304-10.2433L109.99-10.2433C111.903-10.2433 112.754-11.1449 112.754-12.9953L112.754-54.413C112.754-55.7485 111.903-56.5997 110.493-56.5997L103.117-56.5997C87.1584-56.5997 77.6371-52.643 67.4543-40.8306L71.4179-40.8306C71.5546-40.8306 71.6912-40.8306 71.8278-40.8306C80.5505-50.0584 89.4338-53.4874 103.117-53.4874L109.617-53.4874L109.617-13.4683L103.304-13.4683C101.169-13.4683 99.609-14.5297 98.7104-16.2765L94.5262-24.6065C94.0563-25.4721 93.2028-25.695 92.4859-25.4098C91.7209-25.1005 91.1287-24.2612 91.6849-23.211L95.8691-14.8186C97.3239-11.9331 100.02-10.2433 103.304-10.2433ZM47.8764-12.683C52.0321-15.6691 55.38-19.4149 58.4165-23.3476L55.9257-23.3476C55.3717-23.3476 54.892-23.3454 54.374-23.4798C52.3878-21.0935 50.2387-18.882 47.8764-16.8958ZM15.1476-5.46237L22.9912-5.46237C25.608-5.46237 28.0882-5.63727 30.3432-5.9488L30.3432-9.13544C28.1002-8.77363 25.608-8.58671 22.9912-8.58671L15.1476-8.58671C14.2077-8.58671 13.4788-7.92011 13.4788-6.95623C13.4788-6.0907 14.2077-5.46237 15.1476-5.46237Z"/>
  </g>
  <g id="Ultralight-M" transform="matrix(1 0 0 1 498.297 1126)">
   <path d="M70.1285-58.7647C75.491-58.7647 79.9171-63.1912 79.9171-68.616C79.9171-73.9784 75.491-78.3426 70.1285-78.3426C64.7038-78.3426 60.2772-73.9784 60.2772-68.616C60.2772-63.1912 64.7038-58.7647 70.1285-58.7647ZM76.1237-27.345C78.7422-27.345 80.8622-29.4646 80.8622-32.0835C80.8622-34.7024 78.7422-36.822 76.1237-36.822L59.663-36.822L59.663-53.6565C59.663-59.2677 54.9868-62.822 49.7494-61.762L22.0041-56.0262C12.0278-53.9685 9.34612-42.1213 16.5171-35.6997L33.7881-20.4864L33.7881 3.2689C33.7881 5.82508 35.9696 7.94512 38.5262 7.94512C41.0828 7.94512 43.2028 5.82508 43.2028 3.2689L43.2028-22.2945C43.2028-23.978 42.829-24.8511 41.8309-25.9735L28.5503-39.3782C27.8022-40.1263 28.1764-41.1863 29.1114-41.3732L47.754-44.7411C49.5625-45.053 50.2483-44.5533 50.2483-42.9321L50.2483-32.0835C50.2483-29.4646 52.3683-27.345 54.9868-27.345ZM101.437-10.9968L107.985-10.9968C109.735-10.9968 110.366-11.6897 110.366-13.3778L110.366-54.0884C110.366-55.1573 109.735-55.7883 108.603-55.7883L101.251-55.7883C85.7211-55.7883 76.4895-51.9823 66.5734-40.506L69.5981-40.506C69.7231-40.506 69.8482-40.506 69.9732-40.506C78.6958-49.9077 87.5444-53.3947 101.251-53.3947L107.971-53.3947L107.971-13.5146L101.437-13.5146C99.1983-13.5146 97.5805-14.634 96.6472-16.4387L92.5325-24.6065C92.1553-25.2982 91.4641-25.4864 90.8979-25.2359C90.33-24.9846 89.8884-24.354 90.3287-23.5356L94.4434-15.3055C95.817-12.559 98.3164-10.9968 101.437-10.9968ZM46.9491-13.3669C50.9425-16.2371 54.1861-19.8554 57.1182-23.6606L54.9868-23.6606C54.6067-23.6606 54.2893-23.6004 53.9104-23.6652C51.7967-21.1166 49.4969-18.7545 46.9491-16.6408ZM15.0201-6.32013L22.6898-6.32013C25.3066-6.32013 27.7984-6.50662 30.0418-6.81814L30.0418-9.27454C27.7988-8.90113 25.3066-8.71422 22.6898-8.71422L15.0201-8.71422C14.2657-8.71422 13.699-8.20989 13.699-7.45466C13.699-6.76299 14.2657-6.32013 15.0201-6.32013Z"/>
  </g>
  <g id="Black-S" transform="matrix(1 0 0 1 2874.29 696)">
   <path d="M65.1367-56.2012C70.5078-56.2012 74.9023-60.5957 74.9023-65.9668C74.9023-71.3379 70.5078-75.7324 65.1367-75.7324C59.7656-75.7324 55.3711-71.3379 55.3711-65.9668C55.3711-60.5957 59.7656-56.2012 65.1367-56.2012ZM70.752-26.8555C73.6816-26.8555 76.0254-29.1504 76.0254-32.0801C76.0254-35.0098 73.6816-37.3047 70.752-37.3047L56.7871-37.3047L56.7871-51.6113C56.7871-57.3242 51.9531-61.0352 46.6309-59.9609L21.4844-54.7852C11.5723-52.7344 9.13086-41.1621 16.1133-34.6191L30.4199-21.1426L30.4199-0.0488281C30.4199 2.83203 32.7637 5.22461 35.6445 5.22461C38.5254 5.22461 40.918 2.83203 40.918-0.0488281L40.918-23.1934C40.918-24.9512 40.4785-26.0254 39.4043-27.2461L29.1992-38.4766C28.7109-38.9648 28.9062-39.5996 29.5898-39.7461L45.2148-42.627C45.8984-42.7734 46.3379-42.4316 46.3379-41.748L46.3379-32.0801C46.3379-29.1504 48.6816-26.8555 51.5625-26.8555ZM93.6035-7.17773L103.467-7.17773C106.299-7.17773 108.447-9.27734 108.447-12.1094L108.447-51.416C108.447-54.248 106.299-56.3477 103.467-56.3477L93.457-56.3477C78.9551-56.3477 69.8242-52.6367 60.498-42.1875L70.752-42.1875C71.0938-42.1875 71.4844-42.1875 71.8262-42.1387C77.7344-46.7773 84.2285-48.5352 93.457-48.5352L100.635-48.5352L100.635-15.0391L93.6035-15.0391C92.5781-15.0391 92.1387-15.332 91.748-16.1621L88.0371-23.584C86.9629-25.6836 84.7656-26.0742 83.0566-25.3418C81.2012-24.6094 79.7852-22.5098 81.0547-20.0195L84.7656-12.5977C86.4258-9.27734 89.8926-7.17773 93.6035-7.17773ZM45.8008-12.7441C49.4141-15.4297 52.4414-18.6035 55.0293-21.9727L51.5625-21.9727C49.5605-21.9727 47.6562-22.5586 46.0938-23.584C45.9961-23.4863 45.8984-23.3398 45.8008-23.2422ZM13.7207-5.81055L22.2168-5.81055C23.4863-5.81055 24.7559-5.85938 25.5371-5.85938L25.5371-13.6719C24.707-13.6719 23.5352-13.623 22.2168-13.623L13.7207-13.623C11.6211-13.623 9.76562-12.0605 9.76562-9.66797C9.76562-7.61719 11.5723-5.81055 13.7207-5.81055Z"/>
  </g>
  <g id="Heavy-S" transform="matrix(1 0 0 1 2578.99 696)">
   <path d="M63.7077-56.0168C68.9174-56.0168 73.1621-60.273 73.1621-65.4943C73.1621-70.704 68.9174-74.9488 63.7077-74.9488C58.4864-74.9488 54.2302-70.704 54.2302-65.4943C54.2302-60.273 58.4864-56.0168 63.7077-56.0168ZM69.4843-27.2934C72.2526-27.2934 74.4811-29.4731 74.4811-32.2529C74.4811-35.0328 72.2526-37.2125 69.4843-37.2125L55.4387-37.2125L55.4387-51.5883C55.4387-57.0937 50.7892-60.6664 45.6513-59.6267L20.7699-54.5086C11.1459-52.5154 8.71598-41.2313 15.5371-34.9303L30.005-21.5229L30.005-0.54438C30.005 2.17514 32.222 4.44095 34.9531 4.44095C37.6841 4.44095 39.9499 2.17514 39.9499-0.54438L39.9499-23.4584C39.9499-25.1471 39.545-26.1522 38.5054-27.3152L27.9891-38.6264C27.4663-39.1492 27.6962-39.8531 28.4028-39.9996L44.1546-42.9151C45.0572-43.0961 45.5312-42.7082 45.5312-41.8518L45.5312-32.2529C45.5312-29.4731 47.7597-27.2934 50.4907-27.2934ZM92.1169-8.57219L101.001-8.57219C103.648-8.57219 105.624-10.5105 105.624-13.1466L105.624-51.4045C105.624-54.0291 103.648-55.9673 101.001-55.9673L91.9704-55.9673C77.5952-55.9673 68.6257-52.2795 59.4032-41.8418L68.7236-41.8418C69.0193-41.8418 69.3523-41.8418 69.648-41.8045C75.7752-46.9156 82.4077-48.8463 91.9704-48.8463L98.4797-48.8463L98.4797-15.7421L92.1169-15.7421C91.0223-15.7421 90.4446-16.1157 90.0079-17.0264L86.343-24.3676C85.361-26.2713 83.3942-26.6389 81.835-25.9987C80.1179-25.3354 78.8056-23.4087 79.9714-21.1259L83.6362-13.7732C85.2388-10.5911 88.5442-8.57219 92.1169-8.57219ZM44.5907-13.3319C48.2501-16.029 51.2659-19.2489 53.8884-22.6526L50.4907-22.6526C48.7193-22.6526 47.0455-23.1463 45.6443-24.0104C45.3046-23.6246 44.9534-23.2246 44.5907-22.8849ZM13.3865-6.55964L21.4677-6.55964C22.9216-6.55964 24.341-6.61999 25.3642-6.67761L25.3642-13.8217C24.3152-13.7641 22.9589-13.6922 21.4677-13.6922L13.3865-13.6922C11.4598-13.6922 9.77715-12.2449 9.77715-10.0713C9.77715-8.20494 11.4224-6.55964 13.3865-6.55964Z"/>
  </g>
  <g id="Bold-S" transform="matrix(1 0 0 1 2283.85 696)">
   <path d="M62.1094-55.8105C67.1387-55.8105 71.2158-59.9121 71.2158-64.9658C71.2158-69.9951 67.1387-74.0723 62.1094-74.0723C57.0557-74.0723 52.9541-69.9951 52.9541-64.9658C52.9541-59.9121 57.0557-55.8105 62.1094-55.8105ZM68.0664-27.7832C70.6543-27.7832 72.7539-29.834 72.7539-32.4463C72.7539-35.0586 70.6543-37.1094 68.0664-37.1094L53.9307-37.1094L53.9307-51.5625C53.9307-56.8359 49.4873-60.2539 44.5557-59.2529L19.9707-54.1992C10.6689-52.2705 8.25195-41.3086 14.8926-35.2783L29.541-21.9482L29.541-1.09863C29.541 1.44043 31.6162 3.56445 34.1797 3.56445C36.7432 3.56445 38.8672 1.44043 38.8672-1.09863L38.8672-23.7549C38.8672-25.3662 38.501-26.2939 37.5-27.3926L26.6357-38.7939C26.0742-39.3555 26.3428-40.1367 27.0752-40.2832L42.9688-43.2373C44.1162-43.457 44.6289-43.0176 44.6289-41.9678L44.6289-32.4463C44.6289-29.834 46.7285-27.7832 49.292-27.7832ZM90.4541-10.1318L98.2422-10.1318C100.684-10.1318 102.466-11.8896 102.466-14.3066L102.466-51.3916C102.466-53.7842 100.684-55.542 98.2422-55.542L90.3076-55.542C76.0742-55.542 67.2852-51.8799 58.1787-41.4551L66.4551-41.4551C66.6992-41.4551 66.9678-41.4551 67.2119-41.4307C73.584-47.0703 80.3711-49.1943 90.3076-49.1943L96.0693-49.1943L96.0693-16.5283L90.4541-16.5283C89.2822-16.5283 88.5498-16.9922 88.0615-17.9932L84.4482-25.2441C83.5693-26.9287 81.8604-27.2705 80.4688-26.7334C78.9062-26.1475 77.71-24.4141 78.7598-22.3633L82.373-15.0879C83.9111-12.0605 87.0361-10.1318 90.4541-10.1318ZM43.2373-13.9893C46.9482-16.6992 49.9512-19.9707 52.6123-23.4131L49.292-23.4131C47.7783-23.4131 46.3623-23.8037 45.1416-24.4873C44.5312-23.7793 43.8965-23.0957 43.2373-22.4854ZM13.0127-7.39746L20.6299-7.39746C22.29-7.39746 23.877-7.4707 25.1709-7.59277L25.1709-13.9893C23.877-13.8672 22.3145-13.7695 20.6299-13.7695L13.0127-13.7695C11.2793-13.7695 9.79004-12.4512 9.79004-10.5225C9.79004-8.8623 11.2549-7.39746 13.0127-7.39746Z"/>
  </g>
  <g id="Semibold-S" transform="matrix(1 0 0 1 1988.22 696)">
   <path d="M61.0074-55.6684C65.9123-55.6684 69.8739-59.6633 69.8739-64.6015C69.8739-69.5063 65.9123-73.468 61.0074-73.468C56.0692-73.468 52.0743-69.5063 52.0743-64.6015C52.0743-59.6633 56.0692-55.6684 61.0074-55.6684ZM67.0889-28.1209C69.5523-28.1209 71.5631-30.0828 71.5631-32.5796C71.5631-35.0764 69.5523-37.0383 67.0889-37.0383L52.8909-37.0383L52.8909-51.5447C52.8909-56.6582 48.5897-59.9695 43.8003-58.9952L19.4197-53.9859C10.3401-52.1017 7.93203-41.3619 14.4482-35.5183L29.2211-22.2415L29.2211-1.48076C29.2211 0.933887 31.1985 2.96016 33.6465 2.96016C36.0944 2.96016 38.1207 0.933887 38.1207-1.48076L38.1207-23.9593C38.1207-25.5173 37.7812-26.3917 36.8068-27.4459L25.7026-38.9095C25.1145-39.4977 25.4097-40.3322 26.1599-40.4787L42.1512-43.4595C43.4675-43.7059 44.0068-43.2309 44.0068-42.0478L44.0068-32.5796C44.0068-30.0828 46.0176-28.1209 48.4655-28.1209ZM89.3077-11.2071L96.3404-11.2071C98.6396-11.2071 100.289-12.8405 100.289-15.1064L100.289-51.3827C100.289-53.6153 98.6396-55.2487 96.3404-55.2487L89.1612-55.2487C75.0256-55.2487 66.3609-51.6044 57.3345-41.1885L64.891-41.1885C65.0996-41.1885 65.3237-41.1885 65.5323-41.1729C72.0732-47.177 78.967-49.4343 89.1612-49.4343L94.4075-49.4343L94.4075-17.0704L89.3077-17.0704C88.0825-17.0704 87.2435-17.5965 86.7196-18.6597L83.1419-25.8484C82.3341-27.3819 80.8028-27.706 79.5268-27.2399C78.0709-26.7073 76.9546-25.1072 77.9244-23.2164L81.5021-15.9943C82.9958-13.0736 85.9964-11.2071 89.3077-11.2071ZM42.3042-14.4425C46.0507-17.1613 49.0447-20.4684 51.7325-23.9374L48.4655-23.9374C47.1296-23.9374 45.8913-24.2569 44.795-24.8161C43.998-23.8859 43.1678-23.0068 42.3042-22.2099ZM12.755-7.9751L20.0522-7.9751C21.8546-7.9751 23.557-8.05723 25.0376-8.22373L25.0376-14.1048C23.5748-13.9383 21.8701-13.8229 20.0522-13.8229L12.755-13.8229C11.1549-13.8229 9.79893-12.5934 9.79893-10.8335C9.79893-9.31553 11.1394-7.9751 12.755-7.9751Z"/>
  </g>
  <g id="Medium-S" transform="matrix(1 0 0 1 1692.33 696)">
   <path d="M60.1719-55.5605C64.9824-55.5605 68.8564-59.4746 68.8564-64.3252C68.8564-69.1357 64.9824-73.0098 60.1719-73.0098C55.3213-73.0098 51.4072-69.1357 51.4072-64.3252C51.4072-59.4746 55.3213-55.5605 60.1719-55.5605ZM66.3477-28.377C68.7168-28.377 70.6602-30.2715 70.6602-32.6807C70.6602-35.0898 68.7168-36.9844 66.3477-36.9844L52.1025-36.9844L52.1025-51.5312C52.1025-56.5234 47.9092-59.7539 43.2275-58.7998L19.002-53.8242C10.0908-51.9736 7.68945-41.4023 14.1113-35.7002L28.9785-22.4639L28.9785-1.77051C28.9785 0.549805 30.8818 2.50195 33.2422 2.50195C35.6025 2.50195 37.5547 0.549805 37.5547-1.77051L37.5547-24.1143C37.5547-25.6318 37.2354-26.4658 36.2812-27.4863L24.9951-38.9971C24.3867-39.6055 24.7021-40.4805 25.4658-40.627L41.5312-43.6279C42.9756-43.8945 43.5352-43.3926 43.5352-42.1084L43.5352-32.6807C43.5352-30.2715 45.4785-28.377 47.8389-28.377ZM88.4385-12.0225L94.8984-12.0225C97.0898-12.0225 98.6377-13.5615 98.6377-15.7129L98.6377-51.376C98.6377-53.4873 97.0898-55.0264 94.8984-55.0264L88.292-55.0264C74.2305-55.0264 65.6602-51.3955 56.6943-40.9863L63.7051-40.9863C63.8867-40.9863 64.0771-40.9863 64.2588-40.9775C70.9277-47.2578 77.9023-49.6162 88.292-49.6162L93.1475-49.6162L93.1475-17.4814L88.4385-17.4814C87.1729-17.4814 86.2529-18.0547 85.7021-19.165L82.1514-26.3066C81.3975-27.7256 80.001-28.0361 78.8125-27.624C77.4375-27.1318 76.3818-25.6328 77.291-23.8633L80.8418-16.6816C82.3018-13.8418 85.208-12.0225 88.4385-12.0225ZM41.5967-14.7861C45.3701-17.5117 48.3574-20.8457 51.0654-24.335L47.8389-24.335C46.6377-24.335 45.5342-24.6006 44.5322-25.0654C43.5938-23.9668 42.6152-22.9395 41.5967-22.001ZM12.5596-8.41309L19.6143-8.41309C21.5244-8.41309 23.3145-8.50195 24.9365-8.70215L24.9365-14.1924C23.3457-13.9922 21.5332-13.8633 19.6143-13.8633L12.5596-13.8633C11.0605-13.8633 9.80566-12.7012 9.80566-11.0693C9.80566-9.65918 11.0518-8.41309 12.5596-8.41309Z"/>
  </g>
  <g id="Regular-S" transform="matrix(1 0 0 1 1396.7 696)">
   <path d="M59.082-55.4199C63.7695-55.4199 67.5293-59.2285 67.5293-63.9648C67.5293-68.6523 63.7695-72.4121 59.082-72.4121C54.3457-72.4121 50.5371-68.6523 50.5371-63.9648C50.5371-59.2285 54.3457-55.4199 59.082-55.4199ZM65.3809-28.7109C67.627-28.7109 69.4824-30.5176 69.4824-32.8125C69.4824-35.1074 67.627-36.9141 65.3809-36.9141L51.0742-36.9141L51.0742-51.5137C51.0742-56.3477 47.0215-59.4727 42.4805-58.5449L18.457-53.6133C9.76562-51.8066 7.37305-41.4551 13.6719-35.9375L28.6621-22.7539L28.6621-2.14844C28.6621 0.0488281 30.4688 1.9043 32.7148 1.9043C34.9609 1.9043 36.8164 0.0488281 36.8164-2.14844L36.8164-24.3164C36.8164-25.7812 36.5234-26.5625 35.5957-27.5391L24.0723-39.1113C23.4375-39.7461 23.7793-40.6738 24.5605-40.8203L40.7227-43.8477C42.334-44.1406 42.9199-43.6035 42.9199-42.1875L42.9199-32.8125C42.9199-30.5176 44.7754-28.7109 47.0215-28.7109ZM87.3047-13.0859L93.0176-13.0859C95.0684-13.0859 96.4844-14.502 96.4844-16.5039L96.4844-51.3672C96.4844-53.3203 95.0684-54.7363 93.0176-54.7363L87.1582-54.7363C73.1934-54.7363 64.7461-51.123 55.8594-40.7227L62.1582-40.7227C62.3047-40.7227 62.4512-40.7227 62.5977-40.7227C69.4336-47.3633 76.5137-49.8535 87.1582-49.8535L91.5039-49.8535L91.5039-18.0176L87.3047-18.0176C85.9863-18.0176 84.9609-18.6523 84.375-19.8242L80.8594-26.9043C80.1758-28.1738 78.9551-28.4668 77.8809-28.125C76.6113-27.6855 75.6348-26.3184 76.4648-24.707L79.9805-17.5781C81.3965-14.8438 84.1797-13.0859 87.3047-13.0859ZM40.6738-15.2344C44.4824-17.9688 47.4609-21.3379 50.1953-24.8535L47.0215-24.8535C45.9961-24.8535 45.0684-25.0488 44.1895-25.3906C43.0664-24.0723 41.8945-22.8516 40.6738-21.7285ZM12.3047-8.98438L19.043-8.98438C21.0938-8.98438 22.998-9.08203 24.8047-9.32617L24.8047-14.3066C23.0469-14.0625 21.0938-13.916 19.043-13.916L12.3047-13.916C10.9375-13.916 9.81445-12.8418 9.81445-11.377C9.81445-10.1074 10.9375-8.98438 12.3047-8.98438Z"/>
  </g>
  <g id="Light-S" transform="matrix(1 0 0 1 1101.55 696)">
   <path d="M57.7954-54.875C62.3316-54.875 66.0005-58.5776 66.0005-63.1626C66.0005-67.6987 62.3316-71.3525 57.7954-71.3525C53.2105-71.3525 49.5078-67.6987 49.5078-63.1626C49.5078-58.5776 53.2105-54.875 57.7954-54.875ZM63.5947-28.8169C65.7803-28.8169 67.5752-30.5781 67.5752-32.7974C67.5752-35.0166 65.7803-36.7778 63.5947-36.7778L49.7271-36.7778L49.7271-50.9385C49.7271-55.6362 45.7954-58.6553 41.3906-57.7578L18.0786-52.9624C9.65967-51.2163 7.35791-41.1978 13.4448-35.8315L27.981-23.0415L27.981-3.05663C27.981-0.919914 29.7573 0.875008 31.9277 0.875008C34.0982 0.875008 35.8931-0.919914 35.8931-3.05663L35.8931-24.5586C35.8931-25.978 35.6001-26.729 34.7178-27.6753L23.5425-38.9146C22.9229-39.5342 23.2495-40.4316 24.0156-40.5781L39.6934-43.4844C41.2441-43.7622 41.815-43.2705 41.815-41.8999L41.815-32.7974C41.815-30.5781 43.6099-28.8169 45.7954-28.8169ZM84.8677-14.0698L90.3989-14.0698C92.2378-14.0698 93.3662-15.2134 93.3662-17.0034L93.3662-50.9434C93.3662-52.5483 92.2378-53.6768 90.5503-53.6768L84.7212-53.6768C71.3164-53.6768 63.2476-50.2603 54.709-40.2988L59.7818-40.2988C59.9131-40.2988 60.0445-40.2988 60.1758-40.2988C67.0117-47.1665 74.0464-49.7324 84.7212-49.7324L89.3545-49.7324L89.3545-18.0781L84.8677-18.0781C83.4131-18.0781 82.312-18.7886 81.6807-20.0361L78.2559-26.9043C77.6934-27.9468 76.6846-28.1943 75.8071-27.898C74.7949-27.5342 74.0151-26.4395 74.6939-25.1309L78.1187-18.2139C79.4287-15.6611 81.9546-14.0698 84.8677-14.0698ZM39.4629-16.1274C43.0596-18.7104 45.9019-21.9131 48.5-25.2622L45.7954-25.2622C44.9971-25.2622 44.2813-25.3818 43.584-25.6328C42.2944-24.1025 40.9258-22.6851 39.4629-21.3955ZM12.1382-10.1045L18.6494-10.1045C20.7002-10.1045 22.6196-10.2173 24.4111-10.4614L24.4111-14.4883C22.6533-14.229 20.7002-14.0825 18.6494-14.0825L12.1382-14.0825C11.0132-14.0825 10.102-13.2202 10.102-12.0278C10.102-10.9853 11.0132-10.1045 12.1382-10.1045Z"/>
  </g>
  <g id="Thin-S" transform="matrix(1 0 0 1 806.911 696)">
   <path d="M56.0938-54.1543C60.4297-54.1543 63.9785-57.7168 63.9785-62.1016C63.9785-66.4375 60.4297-69.9512 56.0938-69.9512C51.709-69.9512 48.1465-66.4375 48.1465-62.1016C48.1465-57.7168 51.709-54.1543 56.0938-54.1543ZM61.2325-28.957C63.3379-28.957 65.0528-30.6582 65.0528-32.7773C65.0528-34.8965 63.3379-36.5977 61.2325-36.5977L47.9453-36.5977L47.9453-50.1777C47.9453-54.6953 44.1739-57.5742 39.9492-56.7168L17.5781-52.1016C9.51953-50.4356 7.33789-40.8574 13.1445-35.6914L27.0801-23.4219L27.0801-4.2578C27.0801-2.20115 28.8164-0.486309 30.8867-0.486309C32.957-0.486309 34.6719-2.20115 34.6719-4.2578L34.6719-24.8789C34.6719-26.2383 34.3789-26.9492 33.5567-27.8555L22.8418-38.6543C22.2422-39.2539 22.5488-40.1113 23.2949-40.2578L38.3321-43.0039C39.8028-43.2617 40.3535-42.8301 40.3535-41.5195L40.3535-32.7773C40.3535-30.6582 42.0684-28.957 44.1739-28.957ZM81.6446-15.3711L86.9356-15.3711C88.4942-15.3711 89.2422-16.1543 89.2422-17.6641L89.2422-50.3828C89.2422-51.5274 88.4942-52.2754 87.2872-52.2754L81.4981-52.2754C68.834-52.2754 61.2657-49.1192 53.1875-39.7383L56.6387-39.7383C56.75-39.7383 56.8614-39.7383 56.9727-39.7383C63.8086-46.9063 70.7832-49.5723 81.4981-49.5723L86.5118-49.5723L86.5118-18.1582L81.6446-18.1582C80.0098-18.1582 78.8086-18.9687 78.1172-20.3164L74.8125-26.9043C74.4102-27.6465 73.6817-27.834 73.0645-27.5977C72.3926-27.334 71.8731-26.5996 72.3516-25.6914L75.6563-19.0547C76.8262-16.7422 79.0118-15.3711 81.6446-15.3711ZM37.8614-17.3086C41.1778-19.6914 43.8399-22.6738 46.2578-25.8027L44.1739-25.8027C43.6758-25.8027 43.2402-25.8223 42.7832-25.9531C41.2735-24.1426 39.6445-22.4648 37.8614-20.9551ZM11.918-11.5859L18.1289-11.5859C20.1797-11.5859 22.1191-11.7187 23.8906-11.9629L23.8906-14.7285C22.1328-14.4492 20.1797-14.3027 18.1289-14.3027L11.918-14.3027C11.1133-14.3027 10.4824-13.7207 10.4824-12.8887C10.4824-12.1465 11.1133-11.5859 11.918-11.5859Z"/>
  </g>
  <g id="Ultralight-S" transform="matrix(1 0 0 1 511.262 696)">
   <path d="M55.2222-53.7852C59.4556-53.7852 62.9429-57.2759 62.9429-61.5581C62.9429-65.7915 59.4556-69.2334 55.2222-69.2334C50.94-69.2334 47.4492-65.7915 47.4492-61.5581C47.4492-57.2759 50.94-53.7852 55.2222-53.7852ZM60.0225-29.0288C62.087-29.0288 63.7608-30.6992 63.7608-32.7671C63.7608-34.835 62.087-36.5054 60.0225-36.5054L47.0327-36.5054L47.0327-49.7881C47.0327-54.2134 43.3433-57.0205 39.211-56.1836L17.3218-51.6607C9.44776-50.0357 7.32764-40.6831 12.9907-35.6196L26.6187-23.6167L26.6187-4.87303C26.6187-2.8574 28.3345-1.18357 30.3535-1.18357C32.3726-1.18357 34.0464-2.8574 34.0464-4.87303L34.0464-25.043C34.0464-26.3716 33.7534-27.062 32.9619-27.9478L22.4829-38.521C21.8936-39.1104 22.19-39.9473 22.9258-40.0938L37.6348-42.7578C39.0645-43.0054 39.605-42.6045 39.605-41.3247L39.605-32.7671C39.605-30.6992 41.2788-29.0288 43.3433-29.0288ZM79.9937-16.0376L85.1617-16.0376C86.5767-16.0376 87.13-16.6362 87.13-18.0024L87.13-50.0957C87.13-51.0044 86.5767-51.5576 85.6158-51.5576L79.8472-51.5576C67.5625-51.5576 60.2505-48.5347 52.4082-39.4512L55.0289-39.4512C55.1299-39.4512 55.231-39.4512 55.3321-39.4512C62.168-46.773 69.1119-49.4902 79.8472-49.4902L85.0557-49.4902L85.0557-18.1992L79.9937-18.1992C78.2667-18.1992 77.0142-19.061 76.2921-20.46L73.0489-26.9043C72.7286-27.4927 72.1436-27.6494 71.6597-27.4439C71.1622-27.2314 70.7759-26.6816 71.1519-25.9785L74.3951-19.4853C75.4932-17.2959 77.5044-16.0376 79.9937-16.0376ZM37.041-17.9136C40.2139-20.1938 42.7837-23.0635 45.1094-26.0796L43.3433-26.0796C42.999-26.0796 42.707-26.0478 42.3731-26.1172C40.7505-24.1631 38.9883-22.3521 37.041-20.7295ZM11.8052-12.3447L17.8623-12.3447C19.9131-12.3447 21.8628-12.4878 23.624-12.7319L23.624-14.8516C21.8662-14.562 19.9131-14.4155 17.8623-14.4155L11.8052-14.4155C11.1645-14.4155 10.6772-13.977 10.6772-13.3296C10.6772-12.7412 11.1645-12.3447 11.8052-12.3447Z"/>
  </g>
 </g>
</svg>
