<?xml version="1.0" encoding="UTF-8"?>
<!--Generator: Apple Native CoreSVG 175.5-->
<!DOCTYPE svg
PUBLIC "-//W3C//DTD SVG 1.1//EN"
       "http://www.w3.org/Graphics/SVG/1.1/DTD/svg11.dtd">
<svg version="1.1" xmlns="http://www.w3.org/2000/svg" xmlns:xlink="http://www.w3.org/1999/xlink" width="3300" height="2200">
 <!--glyph: "uni101311.medium", point size: 100.0, font version: "18.0d12e2", template writer version: "101"-->
 <g id="Notes">
  <rect height="2200" id="artboard" style="fill:white;opacity:1" width="3300" x="0" y="0"/>
  <line style="fill:none;stroke:black;opacity:1;stroke-width:0.5;" x1="263" x2="3036" y1="292" y2="292"/>
  <text style="stroke:none;fill:black;font-family:sans-serif;font-size:13;font-weight:bold;" transform="matrix(1 0 0 1 263 322)">Weight/Scale Variations</text>
  <text style="stroke:none;fill:black;font-family:sans-serif;font-size:13;text-anchor:middle;" transform="matrix(1 0 0 1 559.711 322)">Ultralight</text>
  <text style="stroke:none;fill:black;font-family:sans-serif;font-size:13;text-anchor:middle;" transform="matrix(1 0 0 1 856.422 322)">Thin</text>
  <text style="stroke:none;fill:black;font-family:sans-serif;font-size:13;text-anchor:middle;" transform="matrix(1 0 0 1 1153.13 322)">Light</text>
  <text style="stroke:none;fill:black;font-family:sans-serif;font-size:13;text-anchor:middle;" transform="matrix(1 0 0 1 1449.84 322)">Regular</text>
  <text style="stroke:none;fill:black;font-family:sans-serif;font-size:13;text-anchor:middle;" transform="matrix(1 0 0 1 1746.56 322)">Medium</text>
  <text style="stroke:none;fill:black;font-family:sans-serif;font-size:13;text-anchor:middle;" transform="matrix(1 0 0 1 2043.27 322)">Semibold</text>
  <text style="stroke:none;fill:black;font-family:sans-serif;font-size:13;text-anchor:middle;" transform="matrix(1 0 0 1 2339.98 322)">Bold</text>
  <text style="stroke:none;fill:black;font-family:sans-serif;font-size:13;text-anchor:middle;" transform="matrix(1 0 0 1 2636.69 322)">Heavy</text>
  <text style="stroke:none;fill:black;font-family:sans-serif;font-size:13;text-anchor:middle;" transform="matrix(1 0 0 1 2933.4 322)">Black</text>
  <line style="fill:none;stroke:black;opacity:1;stroke-width:0.5;" x1="263" x2="3036" y1="1903" y2="1903"/>
  <g transform="matrix(1 0 0 1 263 1933)">
   <path d="M9.24805 0.830078C13.5547 0.830078 17.1387-2.74414 17.1387-7.05078C17.1387-11.3574 13.5449-14.9316 9.23828-14.9316C4.94141-14.9316 1.36719-11.3574 1.36719-7.05078C1.36719-2.74414 4.95117 0.830078 9.24805 0.830078ZM9.24805-0.654297C5.70312-0.654297 2.87109-3.49609 2.87109-7.05078C2.87109-10.6055 5.69336-13.4473 9.23828-13.4473C12.793-13.4473 15.6445-10.6055 15.6445-7.05078C15.6445-3.49609 12.8027-0.654297 9.24805-0.654297ZM5.6543-7.05078C5.6543-6.62109 5.95703-6.32812 6.40625-6.32812L8.50586-6.32812L8.50586-4.20898C8.50586-3.76953 8.79883-3.4668 9.22852-3.4668C9.67773-3.4668 9.9707-3.76953 9.9707-4.20898L9.9707-6.32812L12.0898-6.32812C12.5293-6.32812 12.832-6.62109 12.832-7.05078C12.832-7.49023 12.5293-7.79297 12.0898-7.79297L9.9707-7.79297L9.9707-9.90234C9.9707-10.3516 9.67773-10.6543 9.22852-10.6543C8.79883-10.6543 8.50586-10.3516 8.50586-9.90234L8.50586-7.79297L6.40625-7.79297C5.95703-7.79297 5.6543-7.49023 5.6543-7.05078Z"/>
  </g>
  <g transform="matrix(1 0 0 1 281.867 1933)">
   <path d="M11.709 2.91016C17.1582 2.91016 21.6699-1.61133 21.6699-7.05078C21.6699-12.5 17.1484-17.0117 11.6992-17.0117C6.25977-17.0117 1.74805-12.5 1.74805-7.05078C1.74805-1.61133 6.26953 2.91016 11.709 2.91016ZM11.709 1.25C7.09961 1.25 3.41797-2.44141 3.41797-7.05078C3.41797-11.6602 7.08984-15.3516 11.6992-15.3516C16.3086-15.3516 20.0098-11.6602 20.0098-7.05078C20.0098-2.44141 16.3184 1.25 11.709 1.25ZM7.17773-7.05078C7.17773-6.57227 7.50977-6.25 8.00781-6.25L10.8789-6.25L10.8789-3.36914C10.8789-2.88086 11.2109-2.53906 11.6895-2.53906C12.1777-2.53906 12.5195-2.87109 12.5195-3.36914L12.5195-6.25L15.4004-6.25C15.8887-6.25 16.2305-6.57227 16.2305-7.05078C16.2305-7.53906 15.8887-7.88086 15.4004-7.88086L12.5195-7.88086L12.5195-10.752C12.5195-11.25 12.1777-11.5918 11.6895-11.5918C11.2109-11.5918 10.8789-11.25 10.8789-10.752L10.8789-7.88086L8.00781-7.88086C7.50977-7.88086 7.17773-7.53906 7.17773-7.05078Z"/>
  </g>
  <g transform="matrix(1 0 0 1 305.646 1933)">
   <path d="M14.9707 5.66406C21.9336 5.66406 27.6953-0.0976562 27.6953-7.05078C27.6953-14.0137 21.9238-19.7754 14.9609-19.7754C8.00781-19.7754 2.25586-14.0137 2.25586-7.05078C2.25586-0.0976562 8.01758 5.66406 14.9707 5.66406ZM14.9707 3.84766C8.93555 3.84766 4.08203-1.01562 4.08203-7.05078C4.08203-13.0957 8.92578-17.9492 14.9609-17.9492C21.0059-17.9492 25.8691-13.0957 25.8691-7.05078C25.8691-1.01562 21.0156 3.84766 14.9707 3.84766ZM9.19922-7.05078C9.19922-6.5332 9.57031-6.17188 10.1172-6.17188L14.0625-6.17188L14.0625-2.2168C14.0625-1.67969 14.4336-1.29883 14.9512-1.29883C15.4883-1.29883 15.8594-1.66992 15.8594-2.2168L15.8594-6.17188L19.8145-6.17188C20.3516-6.17188 20.7324-6.5332 20.7324-7.05078C20.7324-7.59766 20.3613-7.96875 19.8145-7.96875L15.8594-7.96875L15.8594-11.9141C15.8594-12.4609 15.4883-12.8418 14.9512-12.8418C14.4336-12.8418 14.0625-12.4609 14.0625-11.9141L14.0625-7.96875L10.1172-7.96875C9.57031-7.96875 9.19922-7.59766 9.19922-7.05078Z"/>
  </g>
  <text style="stroke:none;fill:black;font-family:sans-serif;font-size:13;font-weight:bold;" transform="matrix(1 0 0 1 263 1953)">Design Variations</text>
  <text style="stroke:none;fill:black;font-family:sans-serif;font-size:13;" transform="matrix(1 0 0 1 263 1971)">Symbols are supported in up to nine weights and three scales.</text>
  <text style="stroke:none;fill:black;font-family:sans-serif;font-size:13;" transform="matrix(1 0 0 1 263 1989)">For optimal layout with text and other symbols, vertically align</text>
  <text style="stroke:none;fill:black;font-family:sans-serif;font-size:13;" transform="matrix(1 0 0 1 263 2007)">symbols with the adjacent text.</text>
  <line style="fill:none;stroke:#00AEEF;stroke-width:0.5;opacity:1.0;" x1="776" x2="776" y1="1919" y2="1933"/>
  <g transform="matrix(1 0 0 1 776 1933)">
   <path d="M3.31055 0.15625C3.82812 0.15625 4.08203-0.0390625 4.26758-0.585938L5.52734-4.0332L11.2891-4.0332L12.5488-0.585938C12.7344-0.0390625 12.9883 0.15625 13.4961 0.15625C14.0137 0.15625 14.3457-0.15625 14.3457-0.644531C14.3457-0.810547 14.3164-0.966797 14.2383-1.17188L9.6582-13.3691C9.43359-13.9648 9.0332-14.2676 8.4082-14.2676C7.80273-14.2676 7.39258-13.9746 7.17773-13.3789L2.59766-1.16211C2.51953-0.957031 2.49023-0.800781 2.49023-0.634766C2.49023-0.146484 2.80273 0.15625 3.31055 0.15625ZM6.00586-5.51758L8.37891-12.0898L8.42773-12.0898L10.8008-5.51758Z"/>
  </g>
  <line style="fill:none;stroke:#00AEEF;stroke-width:0.5;opacity:1.0;" x1="793.197" x2="793.197" y1="1919" y2="1933"/>
  <text style="stroke:none;fill:black;font-family:sans-serif;font-size:13;font-weight:bold;" transform="matrix(1 0 0 1 776 1953)">Margins</text>
  <text style="stroke:none;fill:black;font-family:sans-serif;font-size:13;" transform="matrix(1 0 0 1 776 1971)">Leading and trailing margins on the left and right side of each symbol</text>
  <text style="stroke:none;fill:black;font-family:sans-serif;font-size:13;" transform="matrix(1 0 0 1 776 1989)">can be adjusted by modifying the x-location of the margin guidelines.</text>
  <text style="stroke:none;fill:black;font-family:sans-serif;font-size:13;" transform="matrix(1 0 0 1 776 2007)">Modifications are automatically applied proportionally to all</text>
  <text style="stroke:none;fill:black;font-family:sans-serif;font-size:13;" transform="matrix(1 0 0 1 776 2025)">scales and weights.</text>
  <g transform="matrix(1 0 0 1 1289 1933)">
   <path d="M2.8418 1.86523L4.54102 3.57422C5.40039 4.44336 6.38672 4.38477 7.31445 3.35938L18.0078-8.42773L17.041-9.4043L6.42578 2.27539C6.07422 2.67578 5.74219 2.77344 5.27344 2.30469L4.10156 1.14258C3.63281 0.683594 3.74023 0.341797 4.14062-0.0195312L15.6152-10.8203L14.6387-11.7871L3.04688-0.898438C2.06055 0.0195312 1.98242 0.996094 2.8418 1.86523ZM9.25781-16.3281C8.83789-15.918 8.80859-15.3418 9.04297-14.9512C9.27734-14.5898 9.73633-14.3555 10.3809-14.5215C11.8457-14.8633 13.3691-14.9219 14.7949-13.9844L14.209-12.5293C13.8672-11.6992 14.043-11.1133 14.5801-10.5664L16.875-8.25195C17.3633-7.76367 17.7734-7.74414 18.3398-7.8418L19.4043-8.03711L20.0684-7.36328L20.0293-6.80664C19.9902-6.30859 20.1172-5.92773 20.6055-5.44922L21.3672-4.70703C21.8457-4.22852 22.4609-4.19922 22.9297-4.66797L25.8398-7.58789C26.3086-8.05664 26.2891-8.65234 25.8105-9.13086L25.0391-9.89258C24.5605-10.3711 24.1895-10.5273 23.7109-10.4883L23.1348-10.4395L22.4902-11.0742L22.7344-12.1973C22.8613-12.7637 22.7051-13.2031 22.1191-13.7891L19.9219-15.9766C16.582-19.2969 12.1484-19.2188 9.25781-16.3281ZM10.752-15.957C13.1836-17.7344 16.4746-17.4316 18.7012-15.2051L21.1328-12.793C21.3672-12.5586 21.4062-12.373 21.3379-12.0312L21.0156-10.5469L22.5195-9.0625L23.5059-9.12109C23.7598-9.13086 23.8379-9.11133 24.0332-8.91602L24.6094-8.33984L22.168-5.89844L21.5918-6.47461C21.3965-6.66992 21.3672-6.74805 21.377-7.01172L21.4453-7.98828L19.9512-9.47266L18.4277-9.21875C18.1055-9.15039 17.959-9.17969 17.7148-9.41406L15.7129-11.416C15.459-11.6504 15.4297-11.8164 15.5859-12.1875L16.4648-14.2773C14.9023-15.7324 12.8711-16.3574 10.8398-15.7617C10.6836-15.7227 10.625-15.8496 10.752-15.957Z"/>
  </g>
  <text style="stroke:none;fill:black;font-family:sans-serif;font-size:13;font-weight:bold;" transform="matrix(1 0 0 1 1289 1953)">Exporting</text>
  <text style="stroke:none;fill:black;font-family:sans-serif;font-size:13;" transform="matrix(1 0 0 1 1289 1971)">Symbols should be outlined when exporting to ensure the</text>
  <text style="stroke:none;fill:black;font-family:sans-serif;font-size:13;" transform="matrix(1 0 0 1 1289 1989)">design is preserved when submitting to Xcode.</text>
  <text id="template-version" style="stroke:none;fill:black;font-family:sans-serif;font-size:13;text-anchor:end;" transform="matrix(1 0 0 1 3036 1933)">Template v.4.0</text>
  <text style="stroke:none;fill:black;font-family:sans-serif;font-size:13;text-anchor:end;" transform="matrix(1 0 0 1 3036 1951)">Requires Xcode 14 or greater</text>
  <text id="descriptive-name" style="stroke:none;fill:black;font-family:sans-serif;font-size:13;text-anchor:end;" transform="matrix(1 0 0 1 3036 1969)">Generated from figure.cross.training</text>
  <text style="stroke:none;fill:black;font-family:sans-serif;font-size:13;text-anchor:end;" transform="matrix(1 0 0 1 3036 1987)">Typeset at 100 points</text>
  <text style="stroke:none;fill:black;font-family:sans-serif;font-size:13;" transform="matrix(1 0 0 1 263 726)">Small</text>
  <text style="stroke:none;fill:black;font-family:sans-serif;font-size:13;" transform="matrix(1 0 0 1 263 1156)">Medium</text>
  <text style="stroke:none;fill:black;font-family:sans-serif;font-size:13;" transform="matrix(1 0 0 1 263 1586)">Large</text>
 </g>
 <g id="Guides">
  <g id="H-reference" style="fill:#27AAE1;stroke:none;" transform="matrix(1 0 0 1 339 696)">
   <path d="M0.993654 0L3.63775 0L29.3281-67.1323L30.0303-67.1323L30.0303-70.459L28.1226-70.459ZM11.6885-24.4799L46.9815-24.4799L46.2315-26.7285L12.4385-26.7285ZM55.1196 0L57.7637 0L30.6382-70.459L29.4326-70.459L29.4326-67.1323Z"/>
  </g>
  <line id="Baseline-S" style="fill:none;stroke:#27AAE1;opacity:1;stroke-width:0.5;" x1="263" x2="3036" y1="696" y2="696"/>
  <line id="Capline-S" style="fill:none;stroke:#27AAE1;opacity:1;stroke-width:0.5;" x1="263" x2="3036" y1="625.541" y2="625.541"/>
  <g id="H-reference" style="fill:#27AAE1;stroke:none;" transform="matrix(1 0 0 1 339 1126)">
   <path d="M0.993654 0L3.63775 0L29.3281-67.1323L30.0303-67.1323L30.0303-70.459L28.1226-70.459ZM11.6885-24.4799L46.9815-24.4799L46.2315-26.7285L12.4385-26.7285ZM55.1196 0L57.7637 0L30.6382-70.459L29.4326-70.459L29.4326-67.1323Z"/>
  </g>
  <line id="Baseline-M" style="fill:none;stroke:#27AAE1;opacity:1;stroke-width:0.5;" x1="263" x2="3036" y1="1126" y2="1126"/>
  <line id="Capline-M" style="fill:none;stroke:#27AAE1;opacity:1;stroke-width:0.5;" x1="263" x2="3036" y1="1055.54" y2="1055.54"/>
  <g id="H-reference" style="fill:#27AAE1;stroke:none;" transform="matrix(1 0 0 1 339 1556)">
   <path d="M0.993654 0L3.63775 0L29.3281-67.1323L30.0303-67.1323L30.0303-70.459L28.1226-70.459ZM11.6885-24.4799L46.9815-24.4799L46.2315-26.7285L12.4385-26.7285ZM55.1196 0L57.7637 0L30.6382-70.459L29.4326-70.459L29.4326-67.1323Z"/>
  </g>
  <line id="Baseline-L" style="fill:none;stroke:#27AAE1;opacity:1;stroke-width:0.5;" x1="263" x2="3036" y1="1556" y2="1556"/>
  <line id="Capline-L" style="fill:none;stroke:#27AAE1;opacity:1;stroke-width:0.5;" x1="263" x2="3036" y1="1485.54" y2="1485.54"/>
  <line id="left-margin-Regular-M" style="fill:none;stroke:#00AEEF;stroke-width:0.5;opacity:1.0;" x1="1400.61" x2="1400.61" y1="1030.79" y2="1150.12"/>
  <line id="right-margin-Regular-M" style="fill:none;stroke:#00AEEF;stroke-width:0.5;opacity:1.0;" x1="1499.08" x2="1499.08" y1="1030.79" y2="1150.12"/>
 </g>
 <g id="Symbols">
  <g id="Black-L" transform="matrix(1 0 0 1 2866.39 1556)">
   <path d="M58.6676-84.4434C67.1936-84.4434 74.1565-91.4062 74.1565-99.9115C74.1565-108.436 67.1936-115.399 58.6676-115.399C50.1624-115.399 43.1787-108.436 43.1787-99.9115C43.1787-91.4062 50.1624-84.4434 58.6676-84.4434ZM19.5076-50.5343C11.1412-38.9647 18.6838-22.9985 35.1389-25.4803L57.5355-28.8388L48.8837-3.14303C45.2693 7.52381 60.4252 12.1141 63.8191 1.91011L76.2034-35.5255C77.9418-40.8771 74.5686-46.1483 68.4348-46.1483L46.8039-46.1483L57.9377-61.0259C58.9676-62.419 59.1865-62.4631 60.7341-62.4631L110.172-62.4631C114.464-62.4631 117.939-65.8582 117.939-70.2096C117.939-74.5026 114.544-77.977 110.172-77.977L47.2568-77.977C42.2932-77.977 37.51-75.4148 34.4081-71.1518ZM23.9617 37.1949C23.9617 41.6919 27.1712 44.8586 31.8082 44.8586L80.7738 44.8586C85.3536 44.8586 88.5619 41.6919 88.5619 37.1949L88.5619 20.3058C88.5619 15.8076 85.3536 12.6201 80.7738 12.6201L31.8082 12.6201C27.1712 12.6201 23.9617 15.8076 23.9617 20.3058Z"/>
  </g>
  <g id="Heavy-L" transform="matrix(1 0 0 1 2570.58 1556)">
   <path d="M57.8629-83.744C66.1518-83.744 72.9095-90.5017 72.9095-98.7604C72.9095-107.044 66.1518-113.801 57.8629-113.801C49.6042-113.801 42.8163-107.044 42.8163-98.7604C42.8163-90.5017 49.6042-83.744 57.8629-83.744ZM19.421-50.2353C11.2873-38.9757 18.5923-23.4981 34.6095-25.9115L57.1261-29.2936L48.4093-3.40333C44.9598 6.80583 59.4291 11.1766 62.6676 1.4254L74.9288-35.66C76.5939-40.769 73.3856-45.7975 67.5082-45.7975L45.6288-45.7975L56.935-60.9038C58.0019-62.3527 58.3542-62.4243 59.9068-62.4243L108.716-62.4243C112.807-62.4243 116.131-65.6683 116.131-69.8091C116.131-73.9052 112.887-77.2241 108.716-77.2241L46.606-77.2241C41.7791-77.2241 37.1377-74.7303 34.1224-70.5858ZM24.1243 36.3279C24.1243 40.4096 27.0371 43.2564 31.2495 43.2564L79.7866 43.2564C83.9599 43.2564 86.8671 40.4096 86.8671 36.3279L86.8671 18.9225C86.8671 14.8352 83.9599 11.9582 79.7866 11.9582L31.2495 11.9582C27.0371 11.9582 24.1243 14.8352 24.1243 18.9225Z"/>
  </g>
  <g id="Bold-L" transform="matrix(1 0 0 1 2275.04 1556)">
   <path d="M56.8342-82.8385C64.8311-82.8385 71.3352-89.3426 71.3352-97.3015C71.3352-105.285 64.8311-111.789 56.8342-111.789C48.8753-111.789 42.3332-105.285 42.3332-97.3015C42.3332-89.3426 48.8753-82.8385 56.8342-82.8385ZM19.3135-49.8366C11.4642-38.9612 18.4845-24.0757 33.9637-26.4045L56.537-29.8025L47.7581-3.71859C44.5011 5.95182 58.1623 10.061 61.2161 0.848373L73.3237-35.7917C74.904-40.6159 71.8882-45.3597 66.311-45.3597L44.2286-45.3597L55.6903-60.6682C56.7958-62.1713 57.2947-62.2738 58.8475-62.2738L106.799-62.2738C110.651-62.2738 113.798-65.3408 113.798-69.2352C113.798-73.1004 110.731-76.2346 106.799-76.2346L45.7843-76.2346C41.1265-76.2346 36.6543-73.8253 33.7465-69.8269ZM24.2794 35.2C24.2794 38.7744 26.8309 41.2366 30.5281 41.2366L78.535 41.2366C82.2162 41.2366 84.7544 38.7744 84.7544 35.2L84.7544 17.1717C84.7544 13.5842 82.2162 11.0839 78.535 11.0839L30.5281 11.0839C26.8309 11.0839 24.2794 13.5842 24.2794 17.1717Z"/>
  </g>
  <g id="Semibold-L" transform="matrix(1 0 0 1 1979.13 1556)">
   <path d="M56.1251-82.2143C63.9206-82.2143 70.2499-88.5436 70.2499-96.2957C70.2499-104.073 63.9206-110.402 56.1251-110.402C48.3729-110.402 42.0002-104.073 42.0002-96.2957C42.0002-88.5436 48.3729-82.2143 56.1251-82.2143ZM19.2393-49.5618C11.5861-38.9512 18.4102-24.4738 33.5186-26.7444L56.1309-30.1533L47.3092-3.93593C44.1848 5.36306 57.2889 9.29194 60.2154 0.450577L72.2171-35.8825C73.7391-40.5104 70.8559-45.0578 65.4857-45.0578L43.2633-45.0578L54.8322-60.5058C55.9643-62.0463 56.5643-62.17 58.1172-62.17L105.477-62.17C109.165-62.17 112.19-65.115 112.19-68.8396C112.19-72.5456 109.245-75.5525 105.477-75.5525L45.2178-75.5525C40.6766-75.5525 36.3211-73.2015 33.4874-69.3037ZM24.3863 34.4225C24.3863 37.647 26.6887 39.8442 30.0308 39.8442L77.6721 39.8442C81.0141 39.8442 83.298 37.647 83.298 34.4225L83.298 15.9648C83.298 12.7217 81.0141 10.4812 77.6721 10.4812L30.0308 10.4812C26.6887 10.4812 24.3863 12.7217 24.3863 15.9648Z"/>
  </g>
  <g id="Medium-L" transform="matrix(1 0 0 1 1683.03 1556)">
   <path d="M55.5874-81.7409C63.2302-81.7409 69.427-87.9377 69.427-95.5331C69.427-103.154 63.2302-109.35 55.5874-109.35C47.9919-109.35 41.7478-103.154 41.7478-95.5331C41.7478-87.9377 47.9919-81.7409 55.5874-81.7409ZM19.1831-49.3534C11.6786-38.9436 18.3539-24.7757 33.181-27.0022L55.823-30.4193L46.9689-4.10073C43.9451 4.91665 56.6267 8.70879 59.4567 0.148952L71.3781-35.9513C72.8557-40.4303 70.0732-44.8289 64.8599-44.8289L42.5314-44.8289L54.1816-60.3827C55.3339-61.9515 56.0105-62.0913 57.5634-62.0913L104.475-62.0913C108.038-62.0913 110.97-64.9438 110.97-68.5396C110.97-72.1249 108.118-75.0353 104.475-75.0353L44.7883-75.0353C40.3354-75.0353 36.0684-72.7284 33.291-68.907ZM24.4674 33.8329C24.4674 36.7923 26.5809 38.7884 29.6537 38.7884L77.0179 38.7884C80.1026 38.7884 82.1936 36.7923 82.1936 33.8329L82.1936 15.0496C82.1936 12.0678 80.1026 10.0242 77.0179 10.0242L29.6537 10.0242C26.5809 10.0242 24.4674 12.0678 24.4674 15.0496Z"/>
  </g>
  <g id="Regular-L" transform="matrix(1 0 0 1 1387.11 1556)">
   <path d="M54.886-81.1236C62.3298-81.1236 68.3536-87.1474 68.3536-94.5384C68.3536-101.954 62.3298-107.978 54.886-107.978C47.495-107.978 41.4184-101.954 41.4184-94.5384C41.4184-87.1474 47.495-81.1236 54.886-81.1236ZM19.1097-49.0815C11.7992-38.9337 18.2804-25.1695 32.7407-27.3383L55.4213-30.7662L46.5249-4.31568C43.6323 4.33436 55.763 7.94816 58.467-0.244473L70.2837-36.0411C71.7036-40.326 69.0523-44.5303 64.0437-44.5303L41.5767-44.5303L53.3329-60.222C54.5116-61.8279 55.2881-61.9887 56.8412-61.9887L103.167-61.9887C106.568-61.9887 109.38-64.7205 109.38-68.1483C109.38-71.5762 106.648-74.3606 103.167-74.3606L44.228-74.3606C39.8904-74.3606 35.7388-72.1114 33.0347-68.3896ZM24.5732 33.0639C24.5732 35.6773 26.4403 37.4113 29.1618 37.4113L76.1645 37.4113C78.9137 37.4113 80.7532 35.6773 80.7532 33.0639L80.7532 13.8559C80.7532 11.2148 78.9137 9.42808 76.1645 9.42808L29.1618 9.42808C26.4403 9.42808 24.5732 11.2148 24.5732 13.8559Z"/>
  </g>
  <g id="Light-L" transform="matrix(1 0 0 1 1091.51 1556)">
   <path d="M53.9699-80.2456C61.2228-80.2456 67.0749-86.0977 67.0749-93.3169C67.0749-100.523 61.2228-106.375 53.9699-106.375C46.7507-106.375 40.8649-100.523 40.8649-93.3169C40.8649-86.0977 46.7507-80.2456 53.9699-80.2456ZM19.0334-48.6235C11.8946-38.7429 18.2423-25.3031 32.359-27.4147L54.4861-30.7662L45.666-4.48745C42.8307 3.97174 54.6751 7.47103 57.3028-0.492582L69.005-35.9075C70.4058-40.0969 67.8117-44.2059 62.8986-44.2059L40.966-44.2059L52.455-59.5159C53.6146-61.0645 54.372-61.2253 55.8869-61.2253L101.106-61.2253C104.411-61.2253 107.166-63.8998 107.166-67.2513C107.166-70.6028 104.491-73.311 101.106-73.311L43.56-73.311C39.337-73.311 35.2617-71.119 32.6339-67.4926ZM24.3823 31.9379C24.3823 34.2459 26.0395 35.789 28.4748 35.789L75.1148 35.789C77.5968 35.789 79.2073 34.2459 79.2073 31.9379L79.2073 12.4054C79.2073 10.0506 77.5968 8.47382 75.1148 8.47382L28.4748 8.47382C26.0395 8.47382 24.3823 10.0506 24.3823 12.4054Z"/>
  </g>
  <g id="Thin-L" transform="matrix(1 0 0 1 796.261 1556)">
   <path d="M52.7583-79.0845C59.7588-79.0845 65.3837-84.7094 65.3837-91.7015C65.3837-98.63 59.7588-104.255 52.7583-104.255C45.7663-104.255 40.1329-98.63 40.1329-91.7015C40.1329-84.7094 45.7663-79.0845 52.7583-79.0845ZM18.9324-48.0177C12.0208-38.4904 18.1918-25.4798 31.8542-27.5156L53.2493-30.7662L44.5302-4.71463C41.7706 3.49215 53.2363 6.83998 55.7631-0.820725L67.3138-35.7309C68.6893-39.794 66.171-43.7768 61.3841-43.7768L40.1582-43.7768L51.2939-58.5819C52.4282-60.0548 53.1604-60.2156 54.6248-60.2156L98.3801-60.2156C101.559-60.2156 104.238-62.8144 104.238-66.0649C104.238-69.3155 101.639-71.9227 98.3801-71.9227L42.6766-71.9227C38.605-71.9227 34.6306-69.8064 32.1039-66.3062ZM24.1299 30.4486C24.1299 32.3528 25.5094 33.6435 27.5661 33.6435L73.7265 33.6435C75.8551 33.6435 77.1627 32.3528 77.1627 30.4486L77.1627 10.487C77.1627 8.51082 75.8551 7.21172 73.7265 7.21172L27.5661 7.21172C25.5094 7.21172 24.1299 8.51082 24.1299 10.487Z"/>
  </g>
  <g id="Ultralight-L" transform="matrix(1 0 0 1 500.3 1556)">
   <path d="M52.1377-78.4898C59.0089-78.4898 64.5175-83.9983 64.5175-90.874C64.5175-97.6603 59.0089-103.169 52.1377-103.169C45.262-103.169 39.758-97.6603 39.758-90.874C39.758-83.9983 45.262-78.4898 52.1377-78.4898ZM18.8807-47.7074C12.0855-38.3612 18.1659-25.5703 31.5956-27.5674L52.6158-30.7662L43.9484-4.83098C41.2276 3.2465 52.4994 6.51676 54.9744-0.988799L66.4475-35.6404C67.8102-39.6389 65.3306-43.557 60.6083-43.557L39.7445-43.557L50.6992-58.1036C51.8205-59.5377 52.5398-59.6985 53.9784-59.6985L96.9837-59.6985C100.098-59.6985 102.738-62.2585 102.738-65.4573C102.738-68.6561 100.178-71.2116 96.9837-71.2116L42.2241-71.2116C38.23-71.2116 34.3074-69.1341 31.8324-65.6985ZM24.0006 29.6858C24.0006 31.3831 25.2379 32.5445 27.1006 32.5445L73.0155 32.5445C74.9631 32.5445 76.1154 31.3831 76.1154 29.6858L76.1154 9.50444C76.1154 7.72217 74.9631 6.56529 73.0155 6.56529L27.1006 6.56529C25.2379 6.56529 24.0006 7.72217 24.0006 9.50444Z"/>
  </g>
  <g id="Black-M" transform="matrix(1 0 0 1 2880.86 1126)">
   <path d="M46.0197-73.8397C52.8031-73.8397 58.3506-79.3872 58.3506-86.1651C58.3506-92.9488 52.8031-98.4963 46.0197-98.4963C39.2418-98.4963 33.6888-92.9488 33.6888-86.1651C33.6888-79.3872 39.2418-73.8397 46.0197-73.8397ZM15.1774-47.2816C8.5189-38.088 14.5486-25.3424 27.6269-27.3162L44.8003-29.8874L38.1636-10.1703C35.2295-1.5388 47.5226 2.19057 50.2753-6.07292L59.9601-35.3251C61.3674-39.6668 58.6201-43.9463 53.6605-43.9463L37.1882-43.9463L45.6295-55.2242C46.3931-56.248 46.4454-56.2584 47.635-56.2584L86.3266-56.2584C89.8117-56.2584 92.6265-59.0109 92.6265-62.5528C92.6265-66.0376 89.874-68.8526 86.3266-68.8526L37.0806-68.8526C33.1331-68.8526 29.3159-66.8166 26.8487-63.4249ZM18.3985 21.4734C18.3985 25.2729 21.1116 27.9753 25.0302 27.9753L63.2851 27.9753C67.1464 27.9753 69.8597 25.2729 69.8597 21.4734L69.8597 8.78828C69.8597 4.98904 67.1464 2.28118 63.2851 2.28118L25.0302 2.28118C21.1116 2.28118 18.3985 4.98904 18.3985 8.78828Z"/>
  </g>
  <g id="Heavy-M" transform="matrix(1 0 0 1 2584.93 1126)">
   <path d="M45.3176-73.237C51.8868-73.237 57.2495-78.5997 57.2495-85.1525C57.2495-91.7195 51.8868-97.0822 45.3176-97.0822C38.7648-97.0822 33.3856-91.7195 33.3856-85.1525C33.3856-78.5997 38.7648-73.237 45.3176-73.237ZM15.0998-47.0316C8.65295-38.1163 14.4627-25.8184 27.1446-27.7306L44.4864-30.3321L37.7791-10.4089C35.0008-2.20721 46.6492 1.31817 49.257-6.52387L58.8321-35.4689C60.1694-39.5823 57.578-43.6333 52.8603-43.6333L36.0957-43.6333L44.7303-55.1701C45.5318-56.2535 45.7163-56.2909 46.9143-56.2909L85.0938-56.2909C88.3909-56.2909 91.0632-58.901 91.0632-62.244C91.0632-65.5434 88.4532-68.2135 85.0938-68.2135L36.506-68.2135C32.6816-68.2135 28.996-66.239 26.6063-62.9543ZM18.5751 20.7296C18.5751 24.1514 21.0175 26.5587 24.5474 26.5587L62.4168 26.5587C65.9054 26.5587 68.3456 24.1514 68.3456 20.7296L68.3456 7.56988C68.3456 4.14586 65.9054 1.72214 62.4168 1.72214L24.5474 1.72214C21.0175 1.72214 18.5751 4.14586 18.5751 7.56988Z"/>
  </g>
  <g id="Bold-M" transform="matrix(1 0 0 1 2289.09 1126)">
   <path d="M44.5321-72.5628C50.8617-72.5628 56.0178-77.7189 56.0178-84.0199C56.0178-90.3443 50.8617-95.5005 44.5321-95.5005C38.2312-95.5005 33.0464-90.3443 33.0464-84.0199C33.0464-77.7189 38.2312-72.5628 44.5321-72.5628ZM15.013-46.7519C8.80292-38.148 14.3665-26.3509 26.605-28.1943L44.1352-30.8295L37.3489-10.6759C34.745-2.95494 45.6722 0.342256 48.1178-7.02833L57.5702-35.6298C58.8293-39.4876 56.4124-43.2832 51.9652-43.2832L34.8737-43.2832L43.7245-55.1095C44.5683-56.2597 44.9007-56.3272 46.108-56.3272L83.7146-56.3272C86.8015-56.3272 89.3145-58.778 89.3145-61.8985C89.3145-64.9905 86.8638-67.4984 83.7146-67.4984L35.8633-67.4984C32.1766-67.4984 28.6381-65.5928 26.3352-62.428ZM18.7726 19.8976C18.7726 22.8968 20.9122 24.974 24.0073 24.974L61.4456 24.974C64.5173 24.974 66.6518 22.8968 66.6518 19.8976L66.6518 6.20692C66.6518 3.20265 64.5173 1.09678 61.4456 1.09678L24.0073 1.09678C20.9122 1.09678 18.7726 3.20265 18.7726 6.20692Z"/>
  </g>
  <g id="Semibold-M" transform="matrix(1 0 0 1 1992.98 1126)">
   <path d="M43.9906-72.098C50.155-72.098 55.1687-77.1117 55.1687-83.239C55.1687-89.3963 50.155-94.41 43.9906-94.41C37.8633-94.41 32.8126-89.3963 32.8126-83.239C32.8126-77.1117 37.8633-72.098 43.9906-72.098ZM14.9532-46.5591C8.9063-38.1699 14.3002-26.7181 26.233-28.5139L43.8931-31.1724L37.0524-10.8599C34.5687-3.47041 44.9987-0.330532 47.3325-7.3761L56.7003-35.7407C57.9055-39.4224 55.6087-43.0418 51.3481-43.0418L34.0312-43.0418L43.0311-55.0677C43.9041-56.264 44.3385-56.3523 45.5522-56.3523L82.7639-56.3523C85.7058-56.3523 88.109-58.6932 88.109-61.6604C88.109-64.6094 85.7681-67.0055 82.7639-67.0055L35.4202-67.0055C31.8285-67.0055 28.3914-65.1473 26.1483-62.0652ZM18.9087 19.3241C18.9087 22.0319 20.8396 23.8816 23.635 23.8816L60.776 23.8816C63.5603 23.8816 65.4841 22.0319 65.4841 19.3241L65.4841 5.26731C65.4841 2.5524 63.5603 0.665664 60.776 0.665664L23.635 0.665664C20.8396 0.665664 18.9087 2.5524 18.9087 5.26731Z"/>
  </g>
  <g id="Medium-M" transform="matrix(1 0 0 1 1696.73 1126)">
   <path d="M43.5801-71.7455C49.6192-71.7455 54.5249-76.6512 54.5249-82.6469C54.5249-88.6774 49.6192-93.5831 43.5801-93.5831C37.5844-93.5831 32.6352-88.6774 32.6352-82.6469C32.6352-76.6512 37.5844-71.7455 43.5801-71.7455ZM14.9078-46.4129C8.98469-38.1865 14.2499-26.9964 25.951-28.7563L43.7095-31.4324L36.8275-10.9994C34.435-3.86126 44.488-0.840667 46.737-7.6398L56.0407-35.8248C57.205-39.373 54.9994-42.8588 50.8802-42.8588L33.3924-42.8588L42.5053-55.036C43.4005-56.2672 43.9121-56.3713 45.1308-56.3713L82.043-56.3713C84.875-56.3713 87.1949-58.6289 87.1949-61.4798C87.1949-64.3204 84.9373-66.6317 82.043-66.6317L35.0842-66.6317C31.5645-66.6317 28.2043-64.8096 26.0066-61.79ZM19.012 18.8892C19.012 21.3761 20.7846 23.0532 23.3527 23.0532L60.2683 23.0532C62.8347 23.0532 64.5987 21.3761 64.5987 18.8892L64.5987 4.55485C64.5987 2.05935 62.8347 0.338771 60.2683 0.338771L23.3527 0.338771C20.7846 0.338771 19.012 2.05935 19.012 4.55485Z"/>
  </g>
  <g id="Regular-M" transform="matrix(1 0 0 1 1400.61 1126)">
   <path d="M43.0445-71.2858C48.9203-71.2858 53.6851-76.0506 53.6851-81.8746C53.6851-87.7398 48.9203-92.5046 43.0445-92.5046C37.2205-92.5046 32.404-87.7398 32.404-81.8746C32.404-76.0506 37.2205-71.2858 43.0445-71.2858ZM14.8486-46.2223C9.08693-38.2081 14.1844-27.3595 25.5831-29.0724L43.4701-31.7716L36.5342-11.1814C34.2606-4.37108 43.8218-1.50606 45.9603-7.98375L55.1804-35.9344C56.2913-39.3084 54.2046-42.6201 50.2699-42.6201L32.5592-42.6201L41.8195-54.9947C42.7436-56.2714 43.3561-56.396 44.581-56.396L81.1027-56.396C83.7913-56.396 86.0026-58.545 86.0026-61.2442C86.0026-63.9434 83.8536-66.1442 81.1027-66.1442L34.6459-66.1442C31.2202-66.1442 27.9602-64.369 25.8218-61.4312ZM19.1466 18.3219C19.1466 20.5207 20.7128 21.9728 22.9844 21.9728L59.606 21.9728C61.8882 21.9728 63.4438 20.5207 63.4438 18.3219L63.4438 3.62556C63.4438 1.41625 61.8882-0.0876105 59.606-0.0876105L22.9844-0.0876105C20.7128-0.0876105 19.1466 1.41625 19.1466 3.62556Z"/>
  </g>
  <g id="Light-M" transform="matrix(1 0 0 1 1104.89 1126)">
   <path d="M42.2232-70.4987C47.9278-70.4987 52.5386-75.1095 52.5386-80.7795C52.5386-86.4565 47.9278-91.0673 42.2232-91.0673C36.5532-91.0673 31.9078-86.4565 31.9078-80.7795C31.9078-75.1095 36.5532-70.4987 42.2232-70.4987ZM14.7802-45.8116C9.17249-38.037 14.1501-27.4793 25.2409-29.1408L42.6317-31.7716L35.7642-11.3354C33.5419-4.69618 42.8465-1.93383 44.9165-8.20619L54.034-35.8147C55.1278-39.1031 53.0924-42.3293 49.2432-42.3293L32.0117-42.3293L41.0324-54.3616C41.9393-55.587 42.5347-55.7116 43.7255-55.7116L79.2547-55.7116C81.8578-55.7116 84.0178-57.8093 84.0178-60.44C84.0178-63.0708 81.9201-65.2031 79.2547-65.2031L34.0471-65.2031C30.724-65.2031 27.5325-63.4793 25.4625-60.6269ZM18.9755 17.3124C18.9755 19.2374 20.3535 20.5184 22.3684 20.5184L58.6649 20.5184C60.7075 20.5184 62.0578 19.2374 62.0578 17.3124L62.0578 2.32513C62.0578 0.372483 60.7075-0.943157 58.6649-0.943157L22.3684-0.943157C20.3535-0.943157 18.9755 0.372483 18.9755 2.32513Z"/>
  </g>
  <g id="Thin-M" transform="matrix(1 0 0 1 809.495 1126)">
   <path d="M41.1369-69.4577C46.6153-69.4577 51.0224-73.8649 51.0224-79.3312C51.0224-84.7592 46.6153-89.1663 41.1369-89.1663C35.6706-89.1663 31.2515-84.7592 31.2515-79.3312C31.2515-73.8649 35.6706-69.4577 41.1369-69.4577ZM14.6897-45.2685C9.28564-37.8106 14.1049-27.6377 24.7883-29.2313L41.5228-31.7716L34.7458-11.5391C32.5914-5.12616 41.5566-2.4996 43.5361-8.50039L52.5177-35.6563C53.5889-38.8315 51.6214-41.9445 47.8854-41.9445L31.2875-41.9445L39.9914-53.5242C40.8757-54.6818 41.4485-54.8064 42.594-54.8064L76.8106-54.8064C79.3005-54.8064 81.3926-56.8361 81.3926-59.3764C81.3926-61.9166 79.3628-63.9584 76.8106-63.9584L33.255-63.9584C30.0677-63.9584 26.9667-62.3025 24.9872-59.5633ZM18.7492 15.9772C18.7492 17.5401 19.8782 18.5948 21.5537 18.5948L57.4202 18.5948C59.146 18.5948 60.2247 17.5401 60.2247 15.9772L60.2247 0.605206C60.2247-1.00798 59.146-2.07469 57.4202-2.07469L21.5537-2.07469C19.8782-2.07469 18.7492-1.00798 18.7492 0.605206Z"/>
  </g>
  <g id="Ultralight-M" transform="matrix(1 0 0 1 513.457 1126)">
   <path d="M40.5806-68.9245C45.943-68.9245 50.2458-73.2273 50.2458-78.5893C50.2458-83.8899 45.943-88.1927 40.5806-88.1927C35.2186-88.1927 30.9153-83.8899 30.9153-78.5893C30.9153-73.2273 35.2186-68.9245 40.5806-68.9245ZM14.6433-44.9903C9.3436-37.6947 14.0817-27.7188 24.5565-29.2777L40.9548-31.7716L34.2242-11.6434C32.1046-5.3464 40.8959-2.78938 42.829-8.65107L51.7411-35.5751C52.8007-38.6925 50.868-41.7475 47.1899-41.7475L30.9166-41.7475L39.4582-53.0954C40.3309-54.2181 40.8921-54.3427 42.0144-54.3427L75.5587-54.3427C77.9907-54.3427 80.048-56.3377 80.048-58.8316C80.048-61.3255 78.053-63.3209 75.5587-63.3209L32.8493-63.3209C29.7315-63.3209 26.6769-61.6997 24.7438-59.0185ZM18.6333 15.2933C18.6333 16.6707 19.6348 17.6095 21.1364 17.6095L56.7827 17.6095C58.3462 17.6095 59.2858 16.6707 59.2858 15.2933L59.2858-0.275731C59.2858-1.71505 58.3462-2.65425 56.7827-2.65425L21.1364-2.65425C19.6348-2.65425 18.6333-1.71505 18.6333-0.275731Z"/>
  </g>
  <g id="Black-S" transform="matrix(1 0 0 1 2892.04 696)">
   <path d="M36.2305-65.625C41.6016-65.625 45.9961-70.0195 45.9961-75.3906C45.9961-80.7617 41.6016-85.1562 36.2305-85.1562C30.8594-85.1562 26.4648-80.7617 26.4648-75.3906C26.4648-70.0195 30.8594-65.625 36.2305-65.625ZM11.9141-44.7266C6.64062-37.4512 11.4258-27.3438 21.7773-28.9062L35.1562-30.9082L29.9805-15.5273C27.6367-8.64258 37.4512-5.66406 39.6484-12.2559L47.2656-35.2539C48.3887-38.7207 46.1914-42.1387 42.2363-42.1387L29.4434-42.1387L35.9863-50.8789C36.5723-51.6602 36.5723-51.6602 37.5-51.6602L67.9199-51.6602C70.7031-51.6602 72.9492-53.8574 72.9492-56.6895C72.9492-59.4727 70.752-61.7188 67.9199-61.7188L29.1992-61.7188C26.0742-61.7188 23.0469-60.1074 21.0938-57.4219ZM14.3555 9.375C14.3555 12.4512 16.5527 14.6484 19.7266 14.6484L49.8047 14.6484C52.9297 14.6484 55.127 12.4512 55.127 9.375L55.127-0.439453C55.127-3.51562 52.9297-5.71289 49.8047-5.71289L19.7266-5.71289C16.5527-5.71289 14.3555-3.51562 14.3555-0.439453Z"/>
  </g>
  <g id="Heavy-S" transform="matrix(1 0 0 1 2595.87 696)">
   <path d="M35.7349-65.2101C40.9447-65.2101 45.2009-69.4664 45.2009-74.6646C45.2009-79.8743 40.9447-84.1306 35.7349-84.1306C30.5367-84.1306 26.2689-79.8743 26.2689-74.6646C26.2689-69.4664 30.5367-65.2101 35.7349-65.2101ZM11.8564-44.5652C6.74435-37.4973 11.3566-27.7356 21.4086-29.252L34.9949-31.2885L29.75-15.7117C27.533-9.1727 36.8289-6.35553 38.9109-12.6131L46.4474-35.3922C47.5128-38.6746 45.4423-41.9082 41.6832-41.9082L28.579-41.9082L35.3179-50.9135C35.9384-51.7524 36.0537-51.7754 36.9929-51.7754L67.1017-51.7754C69.7351-51.7754 71.8659-53.8574 71.8659-56.5281C71.8659-59.1615 69.7839-61.2923 67.1017-61.2923L28.7843-61.2923C25.7515-61.2923 22.8279-59.7271 20.9324-57.1222ZM14.5283 8.86792C14.5283 11.656 16.5182 13.6228 19.3924 13.6228L49.1824 13.6228C52.0193 13.6228 54.0091 11.656 54.0091 8.86792L54.0091-1.31531C54.0091-4.10337 52.0193-6.08167 49.1824-6.08167L19.3924-6.08167C16.5182-6.08167 14.5283-4.10337 14.5283-1.31531Z"/>
  </g>
  <g id="Bold-S" transform="matrix(1 0 0 1 2299.77 696)">
   <path d="M35.1807-64.7461C40.21-64.7461 44.3115-68.8477 44.3115-73.8525C44.3115-78.8818 40.21-82.9834 35.1807-82.9834C30.1758-82.9834 26.0498-78.8818 26.0498-73.8525C26.0498-68.8477 30.1758-64.7461 35.1807-64.7461ZM11.792-44.3848C6.86035-37.5488 11.2793-28.1738 20.9961-29.6387L34.8145-31.7139L29.4922-15.918C27.417-9.76562 36.1328-7.12891 38.0859-13.0127L45.5322-35.5469C46.5332-38.623 44.6045-41.6504 41.0645-41.6504L27.6123-41.6504L34.5703-50.9521C35.2295-51.8555 35.4736-51.9043 36.4258-51.9043L66.1865-51.9043C68.6523-51.9043 70.6543-53.8574 70.6543-56.3477C70.6543-58.8135 68.7012-60.8154 66.1865-60.8154L28.3203-60.8154C25.3906-60.8154 22.583-59.3018 20.752-56.7871ZM14.7217 8.30078C14.7217 10.7666 16.4795 12.4756 19.0186 12.4756L48.4863 12.4756C51.001 12.4756 52.7588 10.7666 52.7588 8.30078L52.7588-2.29492C52.7588-4.76074 51.001-6.49414 48.4863-6.49414L19.0186-6.49414C16.4795-6.49414 14.7217-4.76074 14.7217-2.29492Z"/>
  </g>
  <g id="Semibold-S" transform="matrix(1 0 0 1 2003.47 696)">
   <path d="M34.7985-64.4262C39.7034-64.4262 43.6983-68.4211 43.6983-73.2927C43.6983-78.1976 39.7034-82.1925 34.7985-82.1925C29.927-82.1925 25.8987-78.1976 25.8987-73.2927C25.8987-68.4211 29.927-64.4262 34.7985-64.4262ZM11.7476-44.2604C6.94033-37.5844 11.226-28.476 20.7117-29.9053L34.69-32.0071L29.3145-16.0602C27.337-10.1744 35.6529-7.66211 37.5172-13.2882L44.9013-35.6535C45.8578-38.5875 44.0269-41.4727 40.6379-41.4727L26.9458-41.4727L34.0549-50.9788C34.7407-51.9266 35.0737-51.9932 36.0348-51.9932L65.5556-51.9932C67.9059-51.9932 69.8189-53.8574 69.8189-56.2232C69.8189-58.5735 67.9547-60.4866 65.5556-60.4866L28.0004-60.4866C25.1418-60.4866 22.4142-59.0085 20.6275-56.5561ZM14.855 7.90977C14.855 10.1534 16.4528 11.6847 18.7608 11.6847L48.0064 11.6847C50.2989 11.6847 51.8968 10.1534 51.8968 7.90977L51.8968-2.97031C51.8968-5.21396 50.2989-6.77852 48.0064-6.77852L18.7608-6.77852C16.4528-6.77852 14.855-5.21396 14.855-2.97031Z"/>
  </g>
  <g id="Medium-S" transform="matrix(1 0 0 1 1707.08 696)">
   <path d="M34.5088-64.1836C39.3193-64.1836 43.2334-68.0977 43.2334-72.8682C43.2334-77.6787 39.3193-81.5928 34.5088-81.5928C29.7383-81.5928 25.7842-77.6787 25.7842-72.8682C25.7842-68.0977 29.7383-64.1836 34.5088-64.1836ZM11.7139-44.166C7.00098-37.6113 11.1855-28.7051 20.4961-30.1074L34.5957-32.2295L29.1797-16.168C27.2764-10.4844 35.2891-8.06641 37.0859-13.4971L44.4229-35.7344C45.3457-38.5605 43.5889-41.3379 40.3145-41.3379L26.4404-41.3379L33.6641-50.999C34.3701-51.9805 34.7705-52.0605 35.7383-52.0605L65.0771-52.0605C67.3398-52.0605 69.1855-53.8574 69.1855-56.1289C69.1855-58.3916 67.3887-60.2373 65.0771-60.2373L27.7578-60.2373C24.9531-60.2373 22.2861-58.7861 20.5332-56.3809ZM14.9561 7.61328C14.9561 9.68848 16.4326 11.085 18.5654 11.085L47.6426 11.085C49.7666 11.085 51.2432 9.68848 51.2432 7.61328L51.2432-3.48242C51.2432-5.55762 49.7666-6.99414 47.6426-6.99414L18.5654-6.99414C16.4326-6.99414 14.9561-5.55762 14.9561-3.48242Z"/>
  </g>
  <g id="Regular-S" transform="matrix(1 0 0 1 1410.78 696)">
   <path d="M34.1309-63.8672C38.8184-63.8672 42.627-67.6758 42.627-72.3145C42.627-77.002 38.8184-80.8105 34.1309-80.8105C29.4922-80.8105 25.6348-77.002 25.6348-72.3145C25.6348-67.6758 29.4922-63.8672 34.1309-63.8672ZM11.6699-44.043C7.08008-37.6465 11.1328-29.0039 20.2148-30.3711L34.4727-32.5195L29.0039-16.3086C27.1973-10.8887 34.8145-8.59375 36.5234-13.7695L43.7988-35.8398C44.6777-38.5254 43.0176-41.1621 39.8926-41.1621L25.7812-41.1621L33.1543-51.0254C33.8867-52.0508 34.375-52.1484 35.3516-52.1484L64.4531-52.1484C66.6016-52.1484 68.3594-53.8574 68.3594-56.0059C68.3594-58.1543 66.6504-59.9121 64.4531-59.9121L27.4414-59.9121C24.707-59.9121 22.1191-58.4961 20.4102-56.1523ZM15.0879 7.22656C15.0879 9.08203 16.4062 10.3027 18.3105 10.3027L47.168 10.3027C49.0723 10.3027 50.3906 9.08203 50.3906 7.22656L50.3906-4.15039C50.3906-6.00586 49.0723-7.27539 47.168-7.27539L18.3105-7.27539C16.4062-7.27539 15.0879-6.00586 15.0879-4.15039Z"/>
  </g>
  <g id="Light-S" transform="matrix(1 0 0 1 1114.95 696)">
   <path d="M33.4043-63.1709C37.9404-63.1709 41.6128-66.8433 41.6128-71.3457C41.6128-75.8667 37.9404-79.5391 33.4043-79.5391C28.9019-79.5391 25.1958-75.8667 25.1958-71.3457C25.1958-66.8433 28.9019-63.1709 33.4043-63.1709ZM11.6094-43.6797C7.15576-37.4951 11.1025-29.1099 19.9121-30.4316L33.731-32.5195L28.3228-16.4448C26.5615-11.1763 33.9517-8.97216 35.6001-13.9663L42.7847-35.7339C43.6484-38.3438 42.0337-40.9048 38.9844-40.9048L25.2969-40.9048L32.458-50.4653C33.1753-51.4453 33.6484-51.543 34.5947-51.543L62.8184-51.543C64.8911-51.543 66.6035-53.2065 66.6035-55.2944C66.6035-57.3823 64.94-59.0796 62.8184-59.0796L26.9116-59.0796C24.2681-59.0796 21.7407-57.709 20.0923-55.4409ZM14.9365 6.3335C14.9365 7.94679 16.0884 9.01612 17.7656 9.01612L46.3355 9.01612C48.0278 9.01612 49.1646 7.94679 49.1646 6.3335L49.1646-5.30077C49.1646-6.92919 48.0278-8.03222 46.3355-8.03222L17.7656-8.03222C16.0884-8.03222 14.9365-6.92919 14.9365-5.30077Z"/>
  </g>
  <g id="Thin-S" transform="matrix(1 0 0 1 819.399 696)">
   <path d="M32.4434-62.25C36.7793-62.25 40.2715-65.7422 40.2715-70.0645C40.2715-74.3653 36.7793-77.8574 32.4434-77.8574C28.1211-77.8574 24.6152-74.3653 24.6152-70.0645C24.6152-65.7422 28.1211-62.25 32.4434-62.25ZM11.5293-43.1992C7.25586-37.2949 11.0625-29.25 19.5117-30.5117L32.75-32.5195L27.4219-16.625C25.7207-11.5566 32.8106-9.47265 34.3789-14.2266L41.4434-35.5938C42.2871-38.1035 40.7324-40.5645 37.7832-40.5645L24.6563-40.5645L31.5371-49.7246C32.2344-50.6445 32.6875-50.7422 33.5938-50.7422L60.6563-50.7422C62.6289-50.7422 64.2813-52.3457 64.2813-54.3535C64.2813-56.3613 62.6778-57.9785 60.6563-57.9785L26.2109-57.9785C23.6875-57.9785 21.2402-56.668 19.6719-54.5ZM14.7363 5.15236C14.7363 6.44533 15.668 7.31448 17.0449 7.31448L45.2344 7.31448C46.6465 7.31448 47.543 6.44533 47.543 5.15236L47.543-6.82224C47.543-8.15037 46.6465-9.03319 45.2344-9.03319L17.0449-9.03319C15.668-9.03319 14.7363-8.15037 14.7363-6.82224Z"/>
  </g>
  <g id="Ultralight-S" transform="matrix(1 0 0 1 523.282 696)">
   <path d="M31.9512-61.7783C36.1846-61.7783 39.5845-65.1782 39.5845-69.4082C39.5845-73.5962 36.1846-76.9961 31.9512-76.9961C27.7212-76.9961 24.3179-73.5962 24.3179-69.4082C24.3179-65.1782 27.7212-61.7783 31.9512-61.7783ZM11.4883-42.9531C7.30713-37.1924 11.042-29.3218 19.3066-30.5527L32.2476-32.5195L26.9605-16.7173C25.2901-11.7515 32.2261-9.72899 33.7534-14.3599L40.7564-35.522C41.5899-37.9805 40.0659-40.3901 37.168-40.3901L24.3281-40.3901L31.0654-49.3452C31.7525-50.2344 32.1953-50.332 33.0811-50.332L59.5489-50.332C61.4703-50.332 63.0918-51.9048 63.0918-53.8716C63.0918-55.8384 61.5191-57.4146 59.5489-57.4146L25.8521-57.4146C23.3901-57.4146 20.9839-56.1348 19.4566-54.0181ZM14.6338 4.54738C14.6338 5.6763 15.4526 6.4429 16.6758 6.4429L44.6704 6.4429C45.939 6.4429 46.7124 5.6763 46.7124 4.54738L46.7124-7.60154C46.7124-8.77586 45.939-9.54588 44.6704-9.54588L16.6758-9.54588C15.4526-9.54588 14.6338-8.77586 14.6338-7.60154Z"/>
  </g>
 </g>
</svg>
