<?xml version="1.0" encoding="UTF-8"?>
<!--Generator: Apple Native CoreSVG 175.5-->
<!DOCTYPE svg
PUBLIC "-//W3C//DTD SVG 1.1//EN"
       "http://www.w3.org/Graphics/SVG/1.1/DTD/svg11.dtd">
<svg version="1.1" xmlns="http://www.w3.org/2000/svg" xmlns:xlink="http://www.w3.org/1999/xlink" width="3300" height="2200">
 <!--glyph: "", point size: 100.0, font version: "18.0d12e2", template writer version: "101"-->
 <g id="Notes">
  <rect height="2200" id="artboard" style="fill:white;opacity:1" width="3300" x="0" y="0"/>
  <line style="fill:none;stroke:black;opacity:1;stroke-width:0.5;" x1="263" x2="3036" y1="292" y2="292"/>
  <text style="stroke:none;fill:black;font-family:sans-serif;font-size:13;font-weight:bold;" transform="matrix(1 0 0 1 263 322)">Weight/Scale Variations</text>
  <text style="stroke:none;fill:black;font-family:sans-serif;font-size:13;text-anchor:middle;" transform="matrix(1 0 0 1 559.711 322)">Ultralight</text>
  <text style="stroke:none;fill:black;font-family:sans-serif;font-size:13;text-anchor:middle;" transform="matrix(1 0 0 1 856.422 322)">Thin</text>
  <text style="stroke:none;fill:black;font-family:sans-serif;font-size:13;text-anchor:middle;" transform="matrix(1 0 0 1 1153.13 322)">Light</text>
  <text style="stroke:none;fill:black;font-family:sans-serif;font-size:13;text-anchor:middle;" transform="matrix(1 0 0 1 1449.84 322)">Regular</text>
  <text style="stroke:none;fill:black;font-family:sans-serif;font-size:13;text-anchor:middle;" transform="matrix(1 0 0 1 1746.56 322)">Medium</text>
  <text style="stroke:none;fill:black;font-family:sans-serif;font-size:13;text-anchor:middle;" transform="matrix(1 0 0 1 2043.27 322)">Semibold</text>
  <text style="stroke:none;fill:black;font-family:sans-serif;font-size:13;text-anchor:middle;" transform="matrix(1 0 0 1 2339.98 322)">Bold</text>
  <text style="stroke:none;fill:black;font-family:sans-serif;font-size:13;text-anchor:middle;" transform="matrix(1 0 0 1 2636.69 322)">Heavy</text>
  <text style="stroke:none;fill:black;font-family:sans-serif;font-size:13;text-anchor:middle;" transform="matrix(1 0 0 1 2933.4 322)">Black</text>
  <line style="fill:none;stroke:black;opacity:1;stroke-width:0.5;" x1="263" x2="3036" y1="1903" y2="1903"/>
  <g transform="matrix(1 0 0 1 263 1933)">
   <path d="M9.24805 0.830078C13.5547 0.830078 17.1387-2.74414 17.1387-7.05078C17.1387-11.3574 13.5449-14.9316 9.23828-14.9316C4.94141-14.9316 1.36719-11.3574 1.36719-7.05078C1.36719-2.74414 4.95117 0.830078 9.24805 0.830078ZM9.24805-0.654297C5.70312-0.654297 2.87109-3.49609 2.87109-7.05078C2.87109-10.6055 5.69336-13.4473 9.23828-13.4473C12.793-13.4473 15.6445-10.6055 15.6445-7.05078C15.6445-3.49609 12.8027-0.654297 9.24805-0.654297ZM5.6543-7.05078C5.6543-6.62109 5.95703-6.32812 6.40625-6.32812L8.50586-6.32812L8.50586-4.20898C8.50586-3.76953 8.79883-3.4668 9.22852-3.4668C9.67773-3.4668 9.9707-3.76953 9.9707-4.20898L9.9707-6.32812L12.0898-6.32812C12.5293-6.32812 12.832-6.62109 12.832-7.05078C12.832-7.49023 12.5293-7.79297 12.0898-7.79297L9.9707-7.79297L9.9707-9.90234C9.9707-10.3516 9.67773-10.6543 9.22852-10.6543C8.79883-10.6543 8.50586-10.3516 8.50586-9.90234L8.50586-7.79297L6.40625-7.79297C5.95703-7.79297 5.6543-7.49023 5.6543-7.05078Z"/>
  </g>
  <g transform="matrix(1 0 0 1 281.867 1933)">
   <path d="M11.709 2.91016C17.1582 2.91016 21.6699-1.61133 21.6699-7.05078C21.6699-12.5 17.1484-17.0117 11.6992-17.0117C6.25977-17.0117 1.74805-12.5 1.74805-7.05078C1.74805-1.61133 6.26953 2.91016 11.709 2.91016ZM11.709 1.25C7.09961 1.25 3.41797-2.44141 3.41797-7.05078C3.41797-11.6602 7.08984-15.3516 11.6992-15.3516C16.3086-15.3516 20.0098-11.6602 20.0098-7.05078C20.0098-2.44141 16.3184 1.25 11.709 1.25ZM7.17773-7.05078C7.17773-6.57227 7.50977-6.25 8.00781-6.25L10.8789-6.25L10.8789-3.36914C10.8789-2.88086 11.2109-2.53906 11.6895-2.53906C12.1777-2.53906 12.5195-2.87109 12.5195-3.36914L12.5195-6.25L15.4004-6.25C15.8887-6.25 16.2305-6.57227 16.2305-7.05078C16.2305-7.53906 15.8887-7.88086 15.4004-7.88086L12.5195-7.88086L12.5195-10.752C12.5195-11.25 12.1777-11.5918 11.6895-11.5918C11.2109-11.5918 10.8789-11.25 10.8789-10.752L10.8789-7.88086L8.00781-7.88086C7.50977-7.88086 7.17773-7.53906 7.17773-7.05078Z"/>
  </g>
  <g transform="matrix(1 0 0 1 305.646 1933)">
   <path d="M14.9707 5.66406C21.9336 5.66406 27.6953-0.0976562 27.6953-7.05078C27.6953-14.0137 21.9238-19.7754 14.9609-19.7754C8.00781-19.7754 2.25586-14.0137 2.25586-7.05078C2.25586-0.0976562 8.01758 5.66406 14.9707 5.66406ZM14.9707 3.84766C8.93555 3.84766 4.08203-1.01562 4.08203-7.05078C4.08203-13.0957 8.92578-17.9492 14.9609-17.9492C21.0059-17.9492 25.8691-13.0957 25.8691-7.05078C25.8691-1.01562 21.0156 3.84766 14.9707 3.84766ZM9.19922-7.05078C9.19922-6.5332 9.57031-6.17188 10.1172-6.17188L14.0625-6.17188L14.0625-2.2168C14.0625-1.67969 14.4336-1.29883 14.9512-1.29883C15.4883-1.29883 15.8594-1.66992 15.8594-2.2168L15.8594-6.17188L19.8145-6.17188C20.3516-6.17188 20.7324-6.5332 20.7324-7.05078C20.7324-7.59766 20.3613-7.96875 19.8145-7.96875L15.8594-7.96875L15.8594-11.9141C15.8594-12.4609 15.4883-12.8418 14.9512-12.8418C14.4336-12.8418 14.0625-12.4609 14.0625-11.9141L14.0625-7.96875L10.1172-7.96875C9.57031-7.96875 9.19922-7.59766 9.19922-7.05078Z"/>
  </g>
  <text style="stroke:none;fill:black;font-family:sans-serif;font-size:13;font-weight:bold;" transform="matrix(1 0 0 1 263 1953)">Design Variations</text>
  <text style="stroke:none;fill:black;font-family:sans-serif;font-size:13;" transform="matrix(1 0 0 1 263 1971)">Symbols are supported in up to nine weights and three scales.</text>
  <text style="stroke:none;fill:black;font-family:sans-serif;font-size:13;" transform="matrix(1 0 0 1 263 1989)">For optimal layout with text and other symbols, vertically align</text>
  <text style="stroke:none;fill:black;font-family:sans-serif;font-size:13;" transform="matrix(1 0 0 1 263 2007)">symbols with the adjacent text.</text>
  <line style="fill:none;stroke:#00AEEF;stroke-width:0.5;opacity:1.0;" x1="776" x2="776" y1="1919" y2="1933"/>
  <g transform="matrix(1 0 0 1 776 1933)">
   <path d="M3.31055 0.15625C3.82812 0.15625 4.08203-0.0390625 4.26758-0.585938L5.52734-4.0332L11.2891-4.0332L12.5488-0.585938C12.7344-0.0390625 12.9883 0.15625 13.4961 0.15625C14.0137 0.15625 14.3457-0.15625 14.3457-0.644531C14.3457-0.810547 14.3164-0.966797 14.2383-1.17188L9.6582-13.3691C9.43359-13.9648 9.0332-14.2676 8.4082-14.2676C7.80273-14.2676 7.39258-13.9746 7.17773-13.3789L2.59766-1.16211C2.51953-0.957031 2.49023-0.800781 2.49023-0.634766C2.49023-0.146484 2.80273 0.15625 3.31055 0.15625ZM6.00586-5.51758L8.37891-12.0898L8.42773-12.0898L10.8008-5.51758Z"/>
  </g>
  <line style="fill:none;stroke:#00AEEF;stroke-width:0.5;opacity:1.0;" x1="793.197" x2="793.197" y1="1919" y2="1933"/>
  <text style="stroke:none;fill:black;font-family:sans-serif;font-size:13;font-weight:bold;" transform="matrix(1 0 0 1 776 1953)">Margins</text>
  <text style="stroke:none;fill:black;font-family:sans-serif;font-size:13;" transform="matrix(1 0 0 1 776 1971)">Leading and trailing margins on the left and right side of each symbol</text>
  <text style="stroke:none;fill:black;font-family:sans-serif;font-size:13;" transform="matrix(1 0 0 1 776 1989)">can be adjusted by modifying the x-location of the margin guidelines.</text>
  <text style="stroke:none;fill:black;font-family:sans-serif;font-size:13;" transform="matrix(1 0 0 1 776 2007)">Modifications are automatically applied proportionally to all</text>
  <text style="stroke:none;fill:black;font-family:sans-serif;font-size:13;" transform="matrix(1 0 0 1 776 2025)">scales and weights.</text>
  <g transform="matrix(1 0 0 1 1289 1933)">
   <path d="M2.8418 1.86523L4.54102 3.57422C5.40039 4.44336 6.38672 4.38477 7.31445 3.35938L18.0078-8.42773L17.041-9.4043L6.42578 2.27539C6.07422 2.67578 5.74219 2.77344 5.27344 2.30469L4.10156 1.14258C3.63281 0.683594 3.74023 0.341797 4.14062-0.0195312L15.6152-10.8203L14.6387-11.7871L3.04688-0.898438C2.06055 0.0195312 1.98242 0.996094 2.8418 1.86523ZM9.25781-16.3281C8.83789-15.918 8.80859-15.3418 9.04297-14.9512C9.27734-14.5898 9.73633-14.3555 10.3809-14.5215C11.8457-14.8633 13.3691-14.9219 14.7949-13.9844L14.209-12.5293C13.8672-11.6992 14.043-11.1133 14.5801-10.5664L16.875-8.25195C17.3633-7.76367 17.7734-7.74414 18.3398-7.8418L19.4043-8.03711L20.0684-7.36328L20.0293-6.80664C19.9902-6.30859 20.1172-5.92773 20.6055-5.44922L21.3672-4.70703C21.8457-4.22852 22.4609-4.19922 22.9297-4.66797L25.8398-7.58789C26.3086-8.05664 26.2891-8.65234 25.8105-9.13086L25.0391-9.89258C24.5605-10.3711 24.1895-10.5273 23.7109-10.4883L23.1348-10.4395L22.4902-11.0742L22.7344-12.1973C22.8613-12.7637 22.7051-13.2031 22.1191-13.7891L19.9219-15.9766C16.582-19.2969 12.1484-19.2188 9.25781-16.3281ZM10.752-15.957C13.1836-17.7344 16.4746-17.4316 18.7012-15.2051L21.1328-12.793C21.3672-12.5586 21.4062-12.373 21.3379-12.0312L21.0156-10.5469L22.5195-9.0625L23.5059-9.12109C23.7598-9.13086 23.8379-9.11133 24.0332-8.91602L24.6094-8.33984L22.168-5.89844L21.5918-6.47461C21.3965-6.66992 21.3672-6.74805 21.377-7.01172L21.4453-7.98828L19.9512-9.47266L18.4277-9.21875C18.1055-9.15039 17.959-9.17969 17.7148-9.41406L15.7129-11.416C15.459-11.6504 15.4297-11.8164 15.5859-12.1875L16.4648-14.2773C14.9023-15.7324 12.8711-16.3574 10.8398-15.7617C10.6836-15.7227 10.625-15.8496 10.752-15.957Z"/>
  </g>
  <text style="stroke:none;fill:black;font-family:sans-serif;font-size:13;font-weight:bold;" transform="matrix(1 0 0 1 1289 1953)">Exporting</text>
  <text style="stroke:none;fill:black;font-family:sans-serif;font-size:13;" transform="matrix(1 0 0 1 1289 1971)">Symbols should be outlined when exporting to ensure the</text>
  <text style="stroke:none;fill:black;font-family:sans-serif;font-size:13;" transform="matrix(1 0 0 1 1289 1989)">design is preserved when submitting to Xcode.</text>
  <text id="template-version" style="stroke:none;fill:black;font-family:sans-serif;font-size:13;text-anchor:end;" transform="matrix(1 0 0 1 3036 1933)">Template v.4.0</text>
  <text style="stroke:none;fill:black;font-family:sans-serif;font-size:13;text-anchor:end;" transform="matrix(1 0 0 1 3036 1951)">Requires Xcode 14 or greater</text>
  <text id="descriptive-name" style="stroke:none;fill:black;font-family:sans-serif;font-size:13;text-anchor:end;" transform="matrix(1 0 0 1 3036 1969)">Generated from custom.figure.walk</text>
  <text style="stroke:none;fill:black;font-family:sans-serif;font-size:13;text-anchor:end;" transform="matrix(1 0 0 1 3036 1987)">Typeset at 100 points</text>
  <text style="stroke:none;fill:black;font-family:sans-serif;font-size:13;" transform="matrix(1 0 0 1 263 726)">Small</text>
  <text style="stroke:none;fill:black;font-family:sans-serif;font-size:13;" transform="matrix(1 0 0 1 263 1156)">Medium</text>
  <text style="stroke:none;fill:black;font-family:sans-serif;font-size:13;" transform="matrix(1 0 0 1 263 1586)">Large</text>
 </g>
 <g id="Guides">
  <g id="H-reference" style="fill:#27AAE1;stroke:none;" transform="matrix(1 0 0 1 339 696)">
   <path d="M0.993654 0L3.63775 0L29.3281-67.1323L30.0303-67.1323L30.0303-70.459L28.1226-70.459ZM11.6885-24.4799L46.9815-24.4799L46.2315-26.7285L12.4385-26.7285ZM55.1196 0L57.7637 0L30.6382-70.459L29.4326-70.459L29.4326-67.1323Z"/>
  </g>
  <line id="Baseline-S" style="fill:none;stroke:#27AAE1;opacity:1;stroke-width:0.5;" x1="263" x2="3036" y1="696" y2="696"/>
  <line id="Capline-S" style="fill:none;stroke:#27AAE1;opacity:1;stroke-width:0.5;" x1="263" x2="3036" y1="625.541" y2="625.541"/>
  <g id="H-reference" style="fill:#27AAE1;stroke:none;" transform="matrix(1 0 0 1 339 1126)">
   <path d="M0.993654 0L3.63775 0L29.3281-67.1323L30.0303-67.1323L30.0303-70.459L28.1226-70.459ZM11.6885-24.4799L46.9815-24.4799L46.2315-26.7285L12.4385-26.7285ZM55.1196 0L57.7637 0L30.6382-70.459L29.4326-70.459L29.4326-67.1323Z"/>
  </g>
  <line id="Baseline-M" style="fill:none;stroke:#27AAE1;opacity:1;stroke-width:0.5;" x1="263" x2="3036" y1="1126" y2="1126"/>
  <line id="Capline-M" style="fill:none;stroke:#27AAE1;opacity:1;stroke-width:0.5;" x1="263" x2="3036" y1="1055.54" y2="1055.54"/>
  <g id="H-reference" style="fill:#27AAE1;stroke:none;" transform="matrix(1 0 0 1 339 1556)">
   <path d="M0.993654 0L3.63775 0L29.3281-67.1323L30.0303-67.1323L30.0303-70.459L28.1226-70.459ZM11.6885-24.4799L46.9815-24.4799L46.2315-26.7285L12.4385-26.7285ZM55.1196 0L57.7637 0L30.6382-70.459L29.4326-70.459L29.4326-67.1323Z"/>
  </g>
  <line id="Baseline-L" style="fill:none;stroke:#27AAE1;opacity:1;stroke-width:0.5;" x1="263" x2="3036" y1="1556" y2="1556"/>
  <line id="Capline-L" style="fill:none;stroke:#27AAE1;opacity:1;stroke-width:0.5;" x1="263" x2="3036" y1="1485.54" y2="1485.54"/>
  <line id="left-margin-Regular-M" style="fill:none;stroke:#00AEEF;stroke-width:0.5;opacity:1.0;" x1="1404.51" x2="1404.51" y1="1030.79" y2="1150.12"/>
  <line id="right-margin-Regular-M" style="fill:none;stroke:#00AEEF;stroke-width:0.5;opacity:1.0;" x1="1495.18" x2="1495.18" y1="1030.79" y2="1150.12"/>
 </g>
 <g id="Symbols">
  <g id="Black-L" transform="matrix(1 0 0 1 2871.58 1556)">
   <path d="M28.843 33.8837L48.8351 10.1398C50.9356 7.65682 51.3545 6.97946 52.0966 4.5329L52.5937 3.00186L40.6057-12.0053L37.8198 0.82968L18.3013 24.0194C11.1524 32.5277 22.9124 40.9533 28.843 33.8837ZM75.9607 31.7247C80.6158 41.113 94.5955 35.2616 89.5616 25.0548L76.0233-2.36161C74.9816-4.42569 73.6156-6.59111 72.1757-8.68987L63.9228-20.4765L64.3105-21.7577C66.4198-28.9278 67.5172-33.0596 67.9986-39.856L69.3426-59.0868C70.0431-69.0123 64.0237-76.1598 54.3141-76.1598C46.9868-76.1598 41.9427-72.3572 35.4667-66.0408L25.2598-56.052C21.9345-52.7476 20.6543-49.8685 20.2742-45.1865L19.0327-29.4443C18.6538-24.9488 21.324-21.7169 25.5186-21.5572C29.7729-21.2576 32.4638-23.9277 32.8439-28.6048L34.2891-45.4443L38.249-48.98C39.4694-50.098 41.2754-49.465 41.1354-47.7921L40.1495-34.518C39.5878-27.3129 41.0978-23.4156 46.5803-16.6112L60.0357 0.253417C61.2639 1.80215 61.482 2.32876 62.1021 3.54816ZM99.917-50.2093L85.0221-50.2093L76.9215-59.102L75.624-40.7306L76.939-39.4364C79.2599-37.1155 81.3968-36.3565 85.6587-36.3565L99.917-36.3565C104.529-36.3565 107.564-39.0707 107.564-43.2444C107.564-47.4171 104.45-50.2093 99.917-50.2093ZM62.1789-80.7002C70.7049-80.7002 77.6677-87.663 77.6677-96.1879C77.6677-104.714 70.7049-111.677 62.1789-111.677C53.632-111.677 46.6911-104.714 46.6911-96.1879C46.6911-87.663 53.632-80.7002 62.1789-80.7002Z"/>
  </g>
  <g id="Heavy-L" transform="matrix(1 0 0 1 2575.73 1556)">
   <path d="M28.2954 32.8164L47.9924 9.4035C50.0338 6.98447 50.4202 6.3435 51.1629 3.93335L51.8888 1.73009L40.3663-12.7162L37.4976 0.458433L18.2147 23.3767C11.367 31.5289 22.6157 39.5893 28.2954 32.8164ZM75.0991 30.7303C79.5716 39.7446 92.9624 34.1397 88.1292 24.3482L74.7724-2.7058C73.7439-4.73844 72.3824-6.88178 70.9976-8.88849L62.7894-20.6127L63.2185-21.9948C65.3283-28.9962 66.3612-33.0783 66.8382-39.7705L68.1639-58.7294C68.8462-68.3483 63.0469-75.3374 53.564-75.3374C46.4186-75.3374 41.5113-71.6396 35.1352-65.4186L25.0734-55.5567C21.8066-52.3201 20.5771-49.5271 20.2108-44.9962L19.0013-29.4763C18.6405-25.159 21.1553-22.0869 25.1811-21.9317C29.2572-21.6458 31.802-24.1605 32.1684-28.6688L33.6047-45.3686L37.7167-49.0428C39.043-50.2528 40.9445-49.5366 40.8138-47.8554L39.8186-34.4821C39.2612-27.3306 40.7994-23.5794 46.1175-16.9713L59.3826-0.342255C60.6246 1.21584 60.8245 1.77003 61.4265 2.94366ZM98.5369-49.7498L83.7402-49.7498L75.3833-58.9492L74.1404-41.363L76.0316-39.502C78.2841-37.2495 80.3345-36.5225 84.4733-36.5225L98.5369-36.5225C102.943-36.5225 105.846-39.1087 105.846-43.1043C105.846-47.0944 102.869-49.7498 98.5369-49.7498ZM61.2197-80.149C69.5086-80.149 76.2663-86.9067 76.2663-95.19C76.2663-103.479 69.5086-110.237 61.2197-110.237C52.9006-110.237 46.1786-103.479 46.1786-95.19C46.1786-86.9067 52.9006-80.149 61.2197-80.149Z"/>
  </g>
  <g id="Bold-L" transform="matrix(1 0 0 1 2280.11 1556)">
   <path d="M27.6266 31.4351L46.9399 8.45938C48.9047 6.11725 49.2601 5.52236 49.9953 3.15826L50.9905 0.154864L40.0369-13.5998L37.0757-0.0398351L18.1071 22.5106C11.6283 30.2321 22.2543 37.8467 27.6266 31.4351ZM73.964 29.4412C78.2136 37.9944 90.8893 32.6893 86.3021 23.4052L73.1831-3.16578C72.1774-5.15255 70.8235-7.25779 69.5004-9.16422L61.361-20.7892L61.8363-22.2869C63.9387-29.0807 64.9021-33.0939 65.3715-39.6481L66.6742-58.2465C67.3335-67.5037 61.7883-74.2782 52.6045-74.2782C45.6894-74.2782 40.9512-70.7111 34.7056-64.6129L24.8354-54.9197C21.6528-51.7751 20.4773-49.097 20.1264-44.7432L18.9554-29.5147C18.6177-25.4127 20.9478-22.5329 24.7661-22.3854C28.6269-22.1149 30.9948-24.4449 31.3458-28.7458L32.7668-45.2466L37.041-49.0675C38.483-50.3778 40.5073-49.5765 40.3844-47.8727L39.3814-34.4286C38.8317-27.361 40.3932-23.7867 45.5115-17.417L58.5235-1.10229C59.781 0.463625 59.9579 1.04865 60.5368 2.16842ZM96.7416-49.1663L82.0976-49.1663L73.4404-58.7274L72.2666-42.0946L74.8426-39.5566C77.0106-37.3886 78.9534-36.7001 82.9386-36.7001L96.7416-36.7001C100.902-36.7001 103.643-39.1325 103.643-42.9128C103.643-46.6799 100.835-49.1663 96.7416-49.1663ZM59.9915-79.3907C67.9884-79.3907 74.4925-85.8948 74.4925-93.8784C74.4925-101.875 67.9884-108.379 59.9915-108.379C51.9567-108.379 45.5037-101.875 45.5037-93.8784C45.5037-85.8948 51.9567-79.3907 59.9915-79.3907Z"/>
  </g>
  <g id="Semibold-L" transform="matrix(1 0 0 1 1984.16 1556)">
   <path d="M27.1655 30.4829L46.2144 7.80851C48.1262 5.5194 48.4603 4.95626 49.1904 2.62393L50.3713-0.931086L39.8098-14.2089L36.7849-0.383338L18.033 21.9135C11.8085 29.3382 22.0052 36.6454 27.1655 30.4829ZM73.1815 28.5524C77.2774 36.7878 89.4601 31.6895 85.0425 22.7551L72.0874-3.48289C71.0975-5.43803 69.7488-7.51701 68.4683-9.3543L60.3762-20.9109L60.8834-22.4882C62.9807-29.139 63.8962-33.1047 64.3603-39.5637L65.6472-57.9136C66.2906-66.9215 60.9206-73.5481 51.943-73.5481C45.1867-73.5481 40.5651-70.0709 34.4093-64.0574L24.6713-54.4805C21.5468-51.3993 20.4085-48.8005 20.0683-44.5687L18.9237-29.5412C18.6019-25.5877 20.8047-22.8404 24.48-22.6981C28.1923-22.4383 30.4383-24.641 30.7786-28.7988L32.1892-45.1624L36.5752-49.0845C38.097-50.464 40.2059-49.604 40.0885-47.8846L39.0801-34.3917C38.5356-27.382 40.1133-23.9296 45.0937-17.7243L57.9313-1.62625C59.1994-0.0549497 59.3604 0.551329 59.9234 1.63397ZM95.5039-48.764L80.9652-48.764L72.101-58.5744L70.9748-42.599L74.0229-39.5942C76.1327-37.4845 78.0013-36.8225 81.8806-36.8225L95.5039-36.8225C99.4945-36.8225 102.124-39.1489 102.124-42.7808C102.124-46.3942 99.4326-48.764 95.5039-48.764ZM59.1448-78.8679C66.9403-78.8679 73.2696-85.1972 73.2696-92.9742C73.2696-100.77 66.9403-107.099 59.1448-107.099C51.3059-107.099 45.0384-100.77 45.0384-92.9742C45.0384-85.1972 51.3059-78.8679 59.1448-78.8679Z"/>
  </g>
  <g id="Medium-L" transform="matrix(1 0 0 1 1688.03 1556)">
   <path d="M26.8159 29.7609L45.6642 7.31499C47.536 5.06608 47.8538 4.52703 48.5801 2.21877L49.9018-1.7545L39.6376-14.6708L36.5643-0.643797L17.9768 21.4608C11.9452 28.6603 21.8163 35.7345 26.8159 29.7609ZM72.5881 27.8786C76.5675 35.8729 88.3764 30.9313 84.0874 22.2621L71.2566-3.72333C70.2787-5.6545 68.9339-7.71356 67.6856-9.49843L59.6295-21.0032L60.1609-22.6409C62.2543-29.1832 63.1335-33.1129 63.5936-39.4998L64.8684-57.6612C65.4998-66.48 60.2626-72.9944 51.4414-72.9944C44.8056-72.9944 40.2723-69.5856 34.1847-63.6363L24.5469-54.1475C21.4664-51.1144 20.3564-48.5757 20.0242-44.4365L18.8997-29.5613C18.59-25.7203 20.6963-23.0736 24.263-22.9353C27.8628-22.6835 30.0164-24.7896 30.3486-28.839L31.7513-45.0986L36.2221-49.0974C37.8043-50.5293 39.9774-49.6249 39.864-47.8936L38.8515-34.3637C38.3111-27.398 39.901-24.038 44.7769-17.9572L57.4823-2.02353C58.7584-0.448155 58.9074 0.174243 59.4583 1.22873ZM94.5654-48.459L80.1065-48.459L71.0854-58.4585L69.9954-42.9814L73.4014-39.6228C75.467-37.5572 77.2794-36.9153 81.0783-36.9153L94.5654-36.9153C98.4274-36.9153 100.973-39.1613 100.973-42.6807C100.973-46.1775 98.3695-48.459 94.5654-48.459ZM58.5028-78.4714C66.1457-78.4714 72.3424-84.6682 72.3424-92.2886C72.3424-99.9315 66.1457-106.128 58.5028-106.128C50.8125-106.128 44.6856-99.9315 44.6856-92.2886C44.6856-84.6682 50.8125-78.4714 58.5028-78.4714Z"/>
  </g>
  <g id="Regular-L" transform="matrix(1 0 0 1 1392.06 1556)">
   <path d="M26.3599 28.8191L44.9467 6.67128C46.7661 4.4748 47.0628 3.96716 47.784 1.69031L49.2893-2.82852L39.413-15.2732L36.2766-0.983525L17.9035 20.8703C12.1234 27.7762 21.5699 34.5464 26.3599 28.8191ZM71.8142 26.9996C75.6415 34.6795 86.963 29.9424 82.8416 21.6192L70.173-4.03695C69.2106-5.93685 67.8711-7.96994 66.6648-9.68642L58.6555-21.1235L59.2185-22.84C61.3068-29.2408 62.1387-33.1235 62.5936-39.4163L63.8527-57.332C64.4683-65.9042 59.4045-72.2723 50.7872-72.2723C44.3084-72.2723 39.8904-68.9525 33.8918-63.0869L24.3846-53.7132C21.3615-50.7427 20.2883-48.2824 19.9667-44.264L18.8684-29.5875C18.5744-25.8934 20.5548-23.3777 23.98-23.2446C27.433-23.0033 29.466-24.9836 29.7878-28.8915L31.18-45.0154L35.7614-49.1142C37.4225-50.6146 39.6794-49.6521 39.5713-47.9054L38.5535-34.3272C38.0182-27.4188 39.6241-24.1793 44.3637-18.2611L56.8965-2.54174C58.1832-0.961031 58.3164-0.317609 58.8517 0.700152ZM93.3413-48.0612L78.9865-48.0612L69.7608-58.3072L68.7178-43.4802L72.5907-39.66C74.5987-37.6521 76.3377-37.0364 80.0319-37.0364L93.3413-37.0364C97.0354-37.0364 99.4706-39.1775 99.4706-42.5501C99.4706-45.8949 96.9827-48.0612 93.3413-48.0612ZM57.6654-77.9544C65.1091-77.9544 71.133-83.9782 71.133-91.3943C71.133-98.8381 65.1091-104.862 57.6654-104.862C50.1689-104.862 44.2255-98.8381 44.2255-91.3943C44.2255-83.9782 50.1689-77.9544 57.6654-77.9544Z"/>
  </g>
  <g id="Light-L" transform="matrix(1 0 0 1 1096.36 1556)">
   <path d="M25.9591 27.4831L44.1642 5.81246C45.9073 3.65414 46.2421 3.18466 46.906 0.945972L48.5068-3.91639L38.9741-15.903L35.8377-1.57517L17.8271 19.8206C12.2761 26.4975 21.36 33.0004 25.9591 27.4831ZM70.5927 25.74C74.2865 33.1146 85.2071 28.5492 81.2384 20.5313L68.8179-4.57135C67.9128-6.39492 66.5923-8.33256 65.3861-10.0681L57.5104-21.2953L58.0734-23.0308C60.1044-29.298 60.9554-33.0854 61.3912-39.2255L62.6312-56.7403C63.2278-65.1789 58.2212-71.2798 49.9283-71.2798C43.6404-71.2798 39.3369-68.0555 33.4719-62.3044L24.1747-53.1216C21.2852-50.2656 20.1929-47.9389 19.8713-43.9777L18.7921-29.6066C18.5172-26.0269 20.4212-23.6067 23.7129-23.4927C27.0513-23.2514 28.9889-25.1553 29.3106-28.9296L30.6647-44.7482L35.1888-48.7898C36.8309-50.2711 39.2023-49.3658 39.0751-47.5237L38.0764-34.2318C37.5602-27.4951 39.1088-24.3511 43.7339-18.5665L55.9804-3.20975C57.2671-1.64808 57.3813-1.0047 57.8975-0.00597719ZM91.5472-47.565L77.4978-47.565L68.1767-57.9447L67.191-43.652L71.3502-39.5264C73.3009-37.5757 74.9636-36.9791 78.5433-36.9791L91.5472-36.9791C95.1269-36.9791 97.4667-39.0439 97.4667-42.302C97.4667-45.5132 95.0933-47.565 91.5472-47.565ZM56.5585-76.9429C63.8114-76.9429 69.6634-82.7949 69.6634-90.0011C69.6634-97.254 63.8114-103.106 56.5585-103.106C49.2718-103.106 43.5002-97.254 43.5002-90.0011C43.5002-82.7949 49.2718-76.9429 56.5585-76.9429Z"/>
  </g>
  <g id="Thin-L" transform="matrix(1 0 0 1 800.972 1556)">
   <path d="M25.429 25.7162L43.1293 4.6766C44.7713 2.56875 45.1567 2.14975 45.7449-0.0384691L47.4719-5.3552L38.3935-16.736L35.2571-2.35766L17.7262 18.4323C12.478 24.8063 21.0823 30.9559 25.429 25.7162ZM68.9773 24.074C72.4943 31.0447 82.8849 26.7065 79.1181 19.0925L67.0258-5.27814C66.1963-7.00076 64.9011-8.81216 63.6949-10.573L55.9959-21.5225L56.5589-23.2833C58.5142-29.3737 59.3904-33.0349 59.801-38.973L61.0157-55.9579C61.587-64.2197 56.6562-69.9672 48.7925-69.9672C42.757-69.9672 38.6049-66.8692 32.9166-61.2695L23.8971-52.3391C21.1842-49.6345 20.0667-47.4846 19.7451-43.599L18.6912-29.6318C18.4415-26.2036 20.2445-23.9096 23.3595-23.8208C26.5465-23.5795 28.3579-25.3825 28.6795-28.9801L29.9831-44.3948L34.4315-48.3607C36.0484-49.8168 38.5712-48.9872 38.4187-47.0189L37.4454-34.1056C36.9544-27.5961 38.4273-24.5783 42.9009-18.9704L54.7688-4.09324C56.0555-2.55676 56.1444-1.91343 56.6354-0.93989ZM89.1744-46.9087L75.5289-46.9087L66.0816-57.4651L65.1716-43.8792L69.7095-39.3497C71.5845-37.4747 73.1462-36.9034 76.5745-36.9034L89.1744-36.9034C92.6027-36.9034 94.8163-38.8673 94.8163-41.9739C94.8163-45.0084 92.5943-46.9087 89.1744-46.9087ZM55.0945-75.6051C62.095-75.6051 67.7198-81.2299 67.7198-88.1584C67.7198-95.1589 62.095-100.784 55.0945-100.784C48.0855-100.784 42.5411-95.1589 42.5411-88.1584C42.5411-81.2299 48.0855-75.6051 55.0945-75.6051Z"/>
  </g>
  <g id="Ultralight-L" transform="matrix(1 0 0 1 504.94 1556)">
   <path d="M25.1575 24.8112L42.5992 4.09482C44.1895 2.01282 44.6008 1.61967 45.1502-0.542695L46.9418-6.09215L38.0962-17.1626L34.9598-2.75845L17.6745 17.7212C12.5814 23.94 20.9401 29.9086 25.1575 24.8112ZM68.1498 23.2208C71.5764 29.9846 81.6954 25.7627 78.0321 18.3556L66.1078-5.64015C65.3172-7.31107 64.0349-9.05781 62.8286-10.8315L55.2202-21.6388L55.7831-23.4125C57.6997-29.4125 58.5888-33.009 58.9865-38.8437L60.1882-55.5571C60.7466-63.7284 55.8546-69.2949 48.2107-69.2949C42.3045-69.2949 38.2299-66.2615 32.6322-60.7394L23.7548-51.9383C21.1325-49.3113 20.0021-47.2519 19.6805-43.4051L18.6395-29.6448C18.4027-26.2941 20.154-24.0647 23.1785-23.9889C26.2879-23.7476 28.0347-25.4989 28.3563-29.006L29.6341-44.2138L34.0437-48.1409C35.6476-49.5841 38.248-48.7932 38.0826-46.7603L37.1222-34.041C36.6441-27.6479 38.0783-24.6947 42.4743-19.1773L54.1482-4.54576C55.4349-3.02217 55.5109-2.37888 55.9889-1.41824ZM87.9591-46.5726L74.5205-46.5726L65.0085-57.2195L64.1373-43.9955L68.8692-39.2592C70.7053-37.423 72.2153-36.8646 75.566-36.8646L87.9591-36.8646C91.3098-36.8646 93.4588-38.7768 93.4588-41.8058C93.4588-44.7498 91.3144-46.5726 87.9591-46.5726ZM54.3446-74.9198C61.2158-74.9198 66.7244-80.4284 66.7244-87.2147C66.7244-94.0858 61.2158-99.5944 54.3446-99.5944C47.4778-99.5944 42.0498-94.0858 42.0498-87.2147C42.0498-80.4284 47.4778-74.9198 54.3446-74.9198Z"/>
  </g>
  <g id="Black-M" transform="matrix(1 0 0 1 2884.9 1126)">
   <path d="M22.7623 19.0516L38.4529 0.436464C40.1205-1.53702 40.4782-2.08791 41.0449-4.00946L41.2463-4.66446L31.6052-16.7111L29.5179-7.05404L14.2428 11.0832C8.47658 17.9501 17.9778 24.7553 22.7623 19.0516ZM59.4249 17.3268C63.1702 24.8802 74.4527 20.1583 70.4009 11.9352L59.7899-9.54195C58.9792-11.1578 57.9197-12.8415 56.7568-14.5491L50.3426-23.7059L50.6074-24.6144C52.2334-30.2963 53.1416-33.5271 53.5157-38.8615L54.57-53.9398C55.1258-61.8749 50.281-67.5122 42.6077-67.5122C36.8004-67.5122 32.7904-64.4891 27.7055-59.529L19.7016-51.7071C17.0932-49.1042 16.0552-46.8178 15.7489-43.0683L14.7622-30.7226C14.4555-27.1022 16.6475-24.4737 20.0242-24.3488C23.4577-24.1048 25.6552-26.2968 25.9615-30.0473L27.0835-43.1721L30.0129-45.7847C30.8649-46.5692 32.1976-46.158 32.0784-44.8562L31.3253-34.6962C30.8889-29.0913 32.0269-25.9593 36.4001-20.537L46.9493-7.31796C47.8891-6.12873 48.0711-5.74444 48.5646-4.76297ZM78.3528-47.1626L66.7701-47.1626L60.7017-53.8068L59.6573-38.9711L60.2196-38.4143C62.0687-36.5652 63.7883-35.9523 67.1804-35.9523L78.3528-35.9523C82.0874-35.9523 84.5394-38.1547 84.5394-41.5258C84.5394-44.8973 82.0248-47.1626 78.3528-47.1626ZM48.8469-70.7941C55.6304-70.7941 61.1778-76.3416 61.1778-83.1253C61.1778-89.9087 55.6304-95.4562 48.8469-95.4562C42.058-95.4562 36.5157-89.9087 36.5157-83.1253C36.5157-76.3416 42.058-70.7941 48.8469-70.7941Z"/>
  </g>
  <g id="Heavy-M" transform="matrix(1 0 0 1 2588.94 1126)">
   <path d="M22.2639 18.1315L37.7012-0.204105C39.3183-2.11858 39.6406-2.63741 40.2132-4.52691L40.6294-5.80734L31.4117-17.3479L29.2435-7.36238L14.1652 10.5518C8.6722 17.0916 17.7071 23.5645 22.2639 18.1315ZM58.6953 16.4708C62.2745 23.6869 73.0182 19.1901 69.1486 11.3448L58.6921-9.82913C57.889-11.4212 56.8321-13.0922 55.7231-14.7081L49.3403-23.8233L49.6455-24.8286C51.2773-30.3579 52.1207-33.5489 52.4923-38.7955L53.5305-53.645C54.0703-61.2927 49.4353-66.7998 41.9537-66.7998C36.3066-66.7998 32.4199-63.8703 27.4202-58.993L19.5387-51.2775C16.9752-48.7303 15.9885-46.5157 15.6956-42.9087L14.7385-30.7521C14.4478-27.2952 16.4949-24.8143 19.7189-24.692C22.9889-24.4614 25.0523-26.5085 25.3451-30.1063L26.462-43.1228L29.5454-45.876C30.5026-46.7522 31.9181-46.2544 31.8098-44.9533L31.0458-34.6699C30.6119-29.1016 31.7827-26.1035 36.0058-20.8608L46.3954-7.83865C47.3486-6.6385 47.5146-6.22725 47.9921-5.28876ZM77.1693-46.7592L65.6544-46.7592L59.3441-53.6908L58.3478-39.5736L59.447-38.4907C61.2346-36.7032 62.8766-36.1198 66.159-36.1198L77.1693-36.1198C80.7133-36.1198 83.0447-38.2041 83.0447-41.4117C83.0447-44.6171 80.6533-46.7592 77.1693-46.7592ZM48.0114-70.3487C54.5806-70.3487 59.9434-75.7114 59.9434-82.2784C59.9434-88.8476 54.5806-94.2103 48.0114-94.2103C41.4258-94.2103 36.0816-88.8476 36.0816-82.2784C36.0816-75.7114 41.4258-70.3487 48.0114-70.3487Z"/>
  </g>
  <g id="Bold-M" transform="matrix(1 0 0 1 2293.06 1126)">
   <path d="M21.7064 17.1023L36.8604-0.920673C38.4208-2.76914 38.7037-3.2521 39.2827-5.10574L39.9394-7.08582L31.1951-18.0604L28.9366-7.7073L14.0784 9.95735C8.89104 16.1312 17.4043 22.2325 21.7064 17.1023ZM57.8792 15.5133C61.2725 22.352 71.4136 18.1071 67.7477 10.6843L57.464-10.1504C56.6695-11.716 55.6155-13.3726 54.5667-14.8859L48.219-23.9545L48.5695-25.0682C50.2077-30.4267 50.9787-33.5734 51.3474-38.7217L52.3677-53.3151C52.8895-60.6413 48.4892-66.0029 41.222-66.0029C35.7543-66.0029 32.0053-63.1782 27.1011-58.3933L19.3565-50.7969C16.8432-48.3122 15.9139-46.1778 15.6361-42.7302L14.7119-30.7851C14.4393-27.5112 16.3242-25.1953 19.3774-25.0759C22.4644-24.8604 24.3778-26.7452 24.6556-30.1723L25.7668-43.0677L29.0225-45.9781C30.0974-46.9569 31.6054-46.3622 31.5094-45.0619L30.7331-34.6405C30.3021-29.113 31.5095-26.2649 35.5647-21.2232L45.7757-8.42111C46.744-7.20875 46.8921-6.76735 47.3516-5.87694ZM75.8453-46.308L64.4063-46.308L57.8255-53.5611L56.883-40.2475L58.5828-38.5762C60.3015-36.8576 61.8567-36.3072 65.0164-36.3072L75.8453-36.3072C79.1762-36.3072 81.3727-38.2595 81.3727-41.2841C81.3727-44.3036 79.1191-46.308 75.8453-46.308ZM47.0768-69.8504C53.4063-69.8504 58.5625-75.0065 58.5625-81.331C58.5625-87.6606 53.4063-92.8167 47.0768-92.8167C40.7185-92.8167 35.5961-87.6606 35.5961-81.331C35.5961-75.0065 40.7185-69.8504 47.0768-69.8504Z"/>
  </g>
  <g id="Semibold-M" transform="matrix(1 0 0 1 1996.93 1126)">
   <path d="M21.322 16.3927L36.2808-1.41467C37.8021-3.21763 38.0578-3.67587 38.6413-5.50479L39.4636-7.96719L31.0459-18.5515L28.7249-7.94508L14.0186 9.54754C9.0419 15.4691 17.1955 21.3142 21.322 16.3927ZM57.3166 14.8532C60.5818 21.4317 70.3073 17.3604 66.7819 10.229L56.6174-10.3718C55.8288-11.9192 54.7767-13.5659 53.7696-15.0085L47.4461-24.045L47.8277-25.2334C49.4704-30.4742 50.1913-33.5902 50.5581-38.6708L51.5661-53.0877C52.0755-60.1923 47.837-65.4536 40.7176-65.4536C35.3735-65.4536 31.7195-62.701 26.8811-57.98L19.2309-50.4656C16.7522-48.0239 15.8625-45.9449 15.5951-42.6071L14.6936-30.8078C14.4333-27.6601 16.2065-25.458 19.142-25.3405C22.1028-25.1354 23.9129-26.9085 24.1803-30.2179L25.2875-43.0297L28.662-46.0485C29.8181-47.0981 31.3898-46.4366 31.3022-45.1368L30.5175-34.6202C30.0885-29.1209 31.3211-26.3762 35.2606-21.4729L45.3486-8.82265C46.3272-7.60187 46.4629-7.13968 46.9101-6.28242ZM74.9325-45.997L63.5458-45.997L56.7785-53.4717L55.8731-40.712L57.987-38.6352C59.6582-36.964 61.1536-36.4363 64.2287-36.4363L74.9325-36.4363C78.1165-36.4363 80.22-38.2976 80.22-41.1962C80.22-44.0875 78.0614-45.997 74.9325-45.997ZM46.4324-69.5069C52.5968-69.5069 57.6105-74.5206 57.6105-80.6778C57.6105-86.8422 52.5968-91.8559 46.4324-91.8559C40.231-91.8559 35.2614-86.8422 35.2614-80.6778C35.2614-74.5206 40.231-69.5069 46.4324-69.5069Z"/>
  </g>
  <g id="Medium-M" transform="matrix(1 0 0 1 1700.65 1126)">
   <path d="M21.0306 15.8547L35.8413-1.78924C37.333-3.5577 37.568-3.99719 38.1549-5.80736L39.1029-8.63548L30.9327-18.9239L28.5645-8.12538L13.9732 9.23681C9.15629 14.9671 17.0372 20.6179 21.0306 15.8547ZM56.8899 14.3527C60.058 20.7339 69.4685 16.7943 66.0496 9.88376L55.9755-10.5398C55.1914-12.0733 54.1408-13.7125 53.1651-15.1014L46.8599-24.1136L47.2652-25.3587C48.9113-30.5102 49.5944-33.603 49.9596-38.6323L50.9582-52.9153C51.4583-59.8518 47.3425-65.037 40.3352-65.037C35.0848-65.037 31.5028-62.3392 26.7142-57.6665L19.1357-50.2144C16.6832-47.8053 15.8235-45.7683 15.564-42.5138L14.6798-30.8251C14.4289-27.773 16.1172-25.6571 18.9634-25.5412C21.8286-25.344 23.5603-27.0322 23.8199-30.2524L24.9241-43.0009L28.3886-46.1019C29.6062-47.2051 31.2264-46.4929 31.1452-45.1935L30.3541-34.6049C29.9266-29.1269 31.1783-26.4606 35.0301-21.6623L45.0247-9.12712C46.0112-7.89996 46.1375-7.42201 46.5754-6.58987ZM74.2405-45.7611L62.8934-45.7611L55.9847-53.4039L55.1074-41.0643L57.5353-38.6798C59.1704-37.0447 60.6205-36.5343 63.6314-36.5343L74.2405-36.5343C77.313-36.5343 79.346-38.3266 79.346-41.1295C79.346-43.9237 77.2594-45.7611 74.2405-45.7611ZM45.9438-69.2464C51.983-69.2464 56.8886-74.1521 56.8886-80.1826C56.8886-86.2217 51.983-91.1274 45.9438-91.1274C39.8613-91.1274 35.0076-86.2217 35.0076-80.1826C35.0076-74.1521 39.8613-69.2464 45.9438-69.2464Z"/>
  </g>
  <g id="Regular-M" transform="matrix(1 0 0 1 1404.51 1126)">
   <path d="M20.6505 15.1529L35.268-2.27781C36.7211-4.00126 36.9292-4.4163 37.5206-6.20202L38.6324-9.50717L30.7851-19.4096L28.3552-8.36056L13.9141 8.83151C9.3055 14.3123 16.8308 19.7097 20.6505 15.1529ZM56.3335 13.6998C59.3748 19.8238 68.3744 16.0559 65.0944 9.43345L55.1381-10.7588C54.3599-12.2742 53.3113-13.9037 52.3767-15.2227L46.0955-24.2031L46.5316-25.5221C48.1821-30.5572 48.8157-33.6197 49.179-38.582L50.1654-52.6904C50.6533-59.4078 46.6974-64.4937 39.8363-64.4937C34.7082-64.4937 31.2201-61.8672 26.4966-57.2577L19.0114-49.8867C16.5931-47.5201 15.7726-45.5379 15.5234-42.392L14.6617-30.8475C14.423-27.9203 16.0008-25.9169 18.7306-25.8029C21.471-25.616 23.1004-27.1937 23.3497-30.2974L24.4501-42.9633L28.0321-46.1715C29.33-47.3447 31.0132-46.5665 30.9403-45.2676L30.1409-34.5848C29.7153-29.1347 30.9921-26.5706 34.7293-21.9094L44.6022-9.52425C45.599-8.28876 45.7131-7.79025 46.1387-6.9909ZM73.3377-45.4535L62.0425-45.4535L54.9493-53.3154L54.1086-41.5238L56.946-38.7381C58.5342-37.1499 59.9251-36.662 62.8524-36.662L73.3377-36.662C76.265-36.662 78.206-38.3643 78.206-41.0425C78.206-43.71 76.2133-45.4535 73.3377-45.4535ZM45.3066-68.9067C51.1823-68.9067 55.9471-73.6715 55.9471-79.5367C55.9471-85.4124 51.1823-90.1772 45.3066-90.1772C39.3791-90.1772 34.6766-85.4124 34.6766-79.5367C34.6766-73.6715 39.3791-68.9067 45.3066-68.9067Z"/>
  </g>
  <g id="Light-M" transform="matrix(1 0 0 1 1108.7 1126)">
   <path d="M20.2911 13.9552L34.5664-3.04779C35.9511-4.73702 36.1934-5.11785 36.7334-6.86935L37.9309-10.4825L30.3915-19.9743L27.9616-8.891L13.8456 7.89041C9.44239 13.1659 16.6425 18.3237 20.2911 13.9552ZM55.2384 12.5705C58.16 18.4207 66.8002 14.8068 63.6571 8.45813L53.9233-11.2379C53.1964-12.6849 52.1648-14.2288 51.2303-15.5649L45.0688-24.3571L45.5049-25.6932C47.1041-30.6085 47.7548-33.5854 48.1011-38.4108L49.0703-52.1599C49.541-58.7575 45.6366-63.6039 39.0664-63.6039C34.1094-63.6039 30.7239-61.0631 26.1202-56.5562L18.8232-49.3563C16.5247-47.0924 15.6871-45.2299 15.4379-42.1353L14.5932-30.8647C14.3717-28.04 15.881-26.1222 18.491-26.0253C21.1288-25.8384 22.6727-27.3477 22.9219-30.3316L23.9881-42.7237L27.5188-45.8806C28.7995-47.0367 30.5854-46.3098 30.4954-44.9253L29.7131-34.4993C29.3047-29.2031 30.5301-26.7246 34.1647-22.1831L43.7808-10.1232C44.7777-8.90474 44.8747-8.40627 45.2831-7.62398ZM71.7293-45.0086L60.7078-45.0086L53.5291-52.9903L52.7398-41.6778L55.8338-38.6183C57.3707-37.0814 58.6931-36.6107 61.5177-36.6107L71.7293-36.6107C74.5539-36.6107 76.4094-38.2445 76.4094-40.82C76.4094-43.3677 74.5193-45.0086 71.7293-45.0086ZM44.3142-67.9998C50.0188-67.9998 54.6296-72.6106 54.6296-78.2876C54.6296-83.9922 50.0188-88.603 44.3142-88.603C38.5749-88.603 34.0264-83.9922 34.0264-78.2876C34.0264-72.6106 38.5749-67.9998 44.3142-67.9998Z"/>
  </g>
  <g id="Thin-M" transform="matrix(1 0 0 1 813.175 1126)">
   <path d="M19.8159 12.371L33.6386-4.06614C34.9327-5.71013 35.2203-6.0457 35.6924-7.75195L37.003-11.7725L29.871-20.7211L27.4411-9.59254L13.7551 6.64572C9.62343 11.6496 16.3936 16.4907 19.8159 12.371ZM53.7901 11.0769C56.5532 16.565 64.7182 13.1547 61.7561 7.16818L52.3165-11.8716C51.6575-13.2281 50.6485-14.6588 49.714-16.0175L43.711-24.5608L44.1471-25.9195C45.6784-30.6764 46.3518-33.5402 46.6753-38.1845L47.6219-51.4584C48.07-57.8976 44.2335-62.427 38.048-62.427C33.3173-62.427 30.0676-59.9994 25.6223-55.6283L18.5743-48.6548C16.4342-46.5266 15.5739-44.8226 15.3247-41.7958L14.5027-30.8873C14.3038-28.1984 15.7226-26.3938 18.1742-26.3195C20.6762-26.1326 22.1069-27.5513 22.3562-30.3769L23.3771-42.4069L26.8399-45.4959C28.098-46.6294 30.0197-45.9703 29.907-44.4727L29.1474-34.3862C28.7615-29.2937 29.9191-26.9283 33.4179-22.5453L42.6946-10.9153C43.6914-9.71941 43.7658-9.22099 44.1516-8.46128ZM69.602-44.4202L58.9426-44.4202L51.6507-52.5604L50.9293-41.8815L54.3628-38.4599C55.8319-36.9909 57.0637-36.5428 59.7526-36.5428L69.602-36.5428C72.2908-36.5428 74.0332-38.0862 74.0332-40.5258C74.0332-42.9151 72.2788-44.4202 69.602-44.4202ZM43.0016-66.8004C48.4799-66.8004 52.8871-71.2075 52.8871-76.6355C52.8871-82.1139 48.4799-86.521 43.0016-86.521C37.5112-86.521 33.1665-82.1139 33.1665-76.6355C33.1665-71.2075 37.5112-66.8004 43.0016-66.8004Z"/>
  </g>
  <g id="Ultralight-M" transform="matrix(1 0 0 1 517.073 1126)">
   <path d="M19.5725 11.5596L33.1633-4.58774C34.4111-6.20855 34.7219-6.52094 35.1592-8.20402L36.5278-12.4332L29.6044-21.1036L27.1745-9.95187L13.7088 6.0082C9.71616 10.873 16.2661 15.5518 19.5725 11.5596ZM53.0482 10.3119C55.7302 15.6145 63.6518 12.3086 60.7825 6.50748L51.4935-12.1961C50.8692-13.5063 49.8719-14.8791 48.9374-16.2493L43.0155-24.6651L43.4516-26.0354C44.9482-30.7111 45.6331-33.517 45.9451-38.0686L46.88-51.0991C47.3166-57.4571 43.5148-61.8243 37.5264-61.8243C32.9116-61.8243 29.7315-59.4547 25.3673-55.1531L18.4468-48.2954C16.3879-46.2368 15.516-44.614 15.2668-41.622L14.4564-30.8989C14.269-28.2795 15.6414-26.5329 18.012-26.4702C20.4444-26.2833 21.8172-27.6557 22.0664-30.4001L23.0641-42.2446L26.4921-45.2988C27.7387-46.4208 29.7299-45.7964 29.6056-44.2409L28.8576-34.3282C28.4834-29.3401 29.6062-27.0326 33.0354-22.7307L42.1382-11.321C43.135-10.1367 43.1978-9.63829 43.572-8.89015ZM68.5124-44.1189L58.0385-44.1189L50.6887-52.3402L50.002-41.9858L53.6094-38.3788C55.0437-36.9445 56.2291-36.508 58.8485-36.508L68.5124-36.508C71.1317-36.508 72.8161-38.005 72.8161-40.3752C72.8161-42.6833 71.1313-44.1189 68.5124-44.1189ZM42.3293-66.186C47.6918-66.186 51.9946-70.4888 51.9946-75.7894C51.9946-81.1518 47.6918-85.4546 42.3293-85.4546C36.9664-85.4546 32.726-81.1518 32.726-75.7894C32.726-70.4888 36.9664-66.186 42.3293-66.186Z"/>
  </g>
  <g id="Black-S" transform="matrix(1 0 0 1 2895.22 696)">
   <path d="M17.9688 7.51953L30.3223-7.12891C31.6406-8.69141 31.9336-9.13086 32.373-10.6445L32.4707-10.9863L24.8047-20.5566L23.1934-13.0859L11.1816 1.17188C6.5918 6.64062 14.1602 12.0605 17.9688 7.51953ZM46.7285 6.15234C49.707 12.1582 58.6914 8.39844 55.4688 1.85547L47.1191-15.0391C46.4844-16.3086 45.6543-17.627 44.7266-18.9941L39.6973-26.1719L39.8926-26.8555C41.1621-31.3477 41.8945-33.8867 42.1875-38.0859L43.0176-49.9512C43.457-56.25 39.5996-60.6934 33.5449-60.6934C28.9551-60.6934 25.7812-58.3008 21.7773-54.3945L15.4785-48.2422C13.4277-46.1914 12.5977-44.3848 12.3535-41.4062L11.5723-31.6895C11.3281-28.8086 13.0859-26.709 15.7715-26.6113C18.5059-26.416 20.2637-28.1738 20.5078-31.1523L21.3867-41.4551L23.6328-43.457C24.2676-44.043 25.293-43.75 25.1953-42.7246L24.6094-34.8145C24.2676-30.4199 25.1465-27.9297 28.6133-23.6328L36.9141-13.2324C37.6465-12.3047 37.793-12.0117 38.1836-11.2305ZM61.6699-44.6777L52.5879-44.6777L47.9004-49.8047L47.0703-37.9883L47.3633-37.6953C48.8281-36.2305 50.1953-35.7422 52.8809-35.7422L61.6699-35.7422C64.6484-35.7422 66.6016-37.5 66.6016-40.1855C66.6016-42.8711 64.5996-44.6777 61.6699-44.6777ZM38.4766-63.1836C43.8477-63.1836 48.2422-67.5781 48.2422-72.9492C48.2422-78.3203 43.8477-82.7148 38.4766-82.7148C33.1055-82.7148 28.7109-78.3203 28.7109-72.9492C28.7109-67.5781 33.1055-63.1836 38.4766-63.1836Z"/>
  </g>
  <g id="Heavy-S" transform="matrix(1 0 0 1 2599.03 696)">
   <path d="M17.5885 6.88568L29.7691-7.57836C31.0529-9.09477 31.3113-9.51117 31.7622-11.0018L32.0328-11.8391L24.6895-21.0291L23.009-13.2818L11.124 0.837669C6.74162 6.05287 13.9527 11.2192 17.5885 6.88568ZM46.2445 5.56459C49.0962 11.3169 57.6657 7.73002 54.5814 1.47516L46.3354-15.2235C45.7007-16.4815 44.8706-17.7999 43.989-19.0863L38.9713-26.2526L39.2011-27.0168C40.4821-31.3938 41.1569-33.9098 41.4499-38.0513L42.2685-49.7668C42.6964-55.8351 39.0119-60.1979 33.0839-60.1979C28.6094-60.1979 25.5277-57.8744 21.5814-54.0257L15.3633-47.9426C13.3355-45.9263 12.5516-44.1658 12.3189-41.3025L11.5608-31.7125C11.3281-28.9584 12.9707-26.9741 15.541-26.8764C18.1486-26.6926 19.8027-28.3351 20.0353-31.1984L20.9142-41.4436L23.2986-43.5722C24.0256-44.2389 25.1086-43.8652 25.0224-42.8514L24.425-34.803C24.0832-30.4199 24.9967-28.0334 28.3482-23.8748L36.5453-13.6012C37.2892-12.662 37.4242-12.3459 37.8033-11.5993ZM60.8632-44.3896L51.8042-44.3896L46.9208-49.7471L46.1253-38.4838L46.8447-37.776C48.2634-36.3573 49.573-35.892 52.1779-35.892L60.8632-35.892C63.6919-35.892 65.5529-37.5576 65.5529-40.1164C65.5529-42.6752 63.6431-44.3896 60.8632-44.3896ZM37.8888-62.9185C43.0986-62.9185 47.3548-67.1747 47.3548-72.3845C47.3548-77.5943 43.0986-81.8505 37.8888-81.8505C32.6676-81.8505 28.4228-77.5943 28.4228-72.3845C28.4228-67.1747 32.6676-62.9185 37.8888-62.9185Z"/>
  </g>
  <g id="Bold-S" transform="matrix(1 0 0 1 2302.91 696)">
   <path d="M17.1631 6.17676L29.1504-8.08105C30.3955-9.54591 30.6152-9.93653 31.0791-11.4013L31.5429-12.793L24.5606-21.5576L22.8028-13.501L11.0595 0.463869C6.90918 5.39551 13.7207 10.2783 17.1631 6.17676ZM45.7031 4.90722C48.413 10.376 56.5186 6.98243 53.5889 1.04981L45.4589-15.4297C44.8242-16.6748 43.9942-17.9932 43.1641-19.1895L38.1592-26.3428L38.4278-27.1973C39.7216-31.4454 40.332-33.9356 40.625-38.0127L41.4307-49.5605C41.8457-55.3711 38.3545-59.6436 32.5683-59.6436C28.2227-59.6436 25.2441-57.3974 21.3623-53.6132L15.2344-47.6075C13.2324-45.6299 12.5-43.9209 12.2803-41.1865L11.5478-31.7383C11.3281-29.126 12.8418-27.2705 15.2832-27.1729C17.7491-27.002 19.2871-28.5156 19.5068-31.25L20.3858-41.4307L22.9248-43.7011C23.7549-44.458 24.9024-43.9941 24.8291-42.9932L24.2187-34.79C23.877-30.4199 24.8291-28.1494 28.0517-24.1455L36.1328-14.0136C36.8896-13.0616 37.0118-12.7197 37.3779-12.0118ZM59.9609-44.0673L50.9277-44.0673L45.8252-49.6826L45.0683-39.0381L46.2646-37.8662C47.6318-36.4991 48.8769-36.0596 51.3916-36.0596L59.9609-36.0596C62.6221-36.0596 64.3799-37.6221 64.3799-40.0391C64.3799-42.456 62.5733-44.0673 59.9609-44.0673ZM37.2314-62.6221C42.2607-62.6221 46.3623-66.7236 46.3623-71.7529C46.3623-76.7822 42.2607-80.8837 37.2314-80.8837C32.1778-80.8837 28.1005-76.7822 28.1005-71.7529C28.1005-66.7236 32.1778-62.6221 37.2314-62.6221Z"/>
  </g>
  <g id="Semibold-S" transform="matrix(1 0 0 1 2006.6 696)">
   <path d="M16.8698 5.68798L28.7238-8.42764C29.9423-9.85694 30.1354-10.2298 30.6081-11.6768L31.2052-13.4506L24.4717-21.922L22.6606-13.652L11.0151 0.206154C7.02471 4.94228 13.5607 9.62957 16.8698 5.68798ZM45.3299 4.454C47.9421 9.72725 55.7276 6.467 52.9046 0.756544L44.8547-15.5719C44.22-16.8081 43.3899-18.1265 42.5953-19.2606L37.5993-26.405L37.8945-27.3217C39.1973-31.4809 39.7633-33.9533 40.0562-37.9861L40.8531-49.4184C41.2592-55.0512 37.9013-59.2615 32.2129-59.2615C27.956-59.2615 25.0486-57.0686 21.2112-53.3289L15.1455-47.3764C13.1613-45.4255 12.4644-43.752 12.2536-41.1065L11.539-31.7561C11.3281-29.2415 12.7529-27.4749 15.1055-27.3773C17.4736-27.2152 18.9316-28.64 19.1425-31.2856L20.0214-41.4218L22.6671-43.79C23.5683-44.6091 24.7602-44.083 24.6958-43.0909L24.0766-34.7812C23.7348-30.4199 24.7136-28.2294 27.8473-24.3321L35.8485-14.298C36.6142-13.337 36.7274-12.9774 37.0847-12.2961ZM59.3389-43.8452L50.3235-43.8452L45.0698-49.6382L44.3396-39.4202L45.8647-37.9284C47.1963-36.5968 48.3971-36.1751 50.8495-36.1751L59.3389-36.1751C61.8845-36.1751 63.5712-37.6665 63.5712-39.9857C63.5712-42.305 61.8357-43.8452 59.3389-43.8452ZM36.7782-62.4176C41.6831-62.4176 45.678-66.4126 45.678-71.3174C45.678-76.2223 41.6831-80.2172 36.7782-80.2172C31.84-80.2172 27.8784-76.2223 27.8784-71.3174C27.8784-66.4126 31.84-62.4176 36.7782-62.4176Z"/>
  </g>
  <g id="Medium-S" transform="matrix(1 0 0 1 1710.19 696)">
   <path d="M16.6475 5.31738L28.4004-8.69043C29.5986-10.0928 29.7715-10.4522 30.251-11.8857L30.9492-13.9492L24.4043-22.1982L22.5527-13.7666L10.9814 0.0107428C7.1123 4.59863 13.4394 9.13768 16.6475 5.31738ZM45.0468 4.11035C47.5849 9.23535 55.1279 6.07618 52.3858 0.53418L44.3965-15.6797C43.7618-16.9092 42.9317-18.2276 42.1641-19.3145L37.1748-26.4522L37.4902-27.4161C38.7998-31.5078 39.332-33.9668 39.625-37.9659L40.4151-49.3105C40.8145-54.8086 37.5576-58.9717 31.9434-58.9717C27.7539-58.9717 24.9004-56.8193 21.0967-53.1132L15.0781-47.2012C13.1074-45.2705 12.4375-43.624 12.2334-41.0459L11.5322-31.7695C11.3281-29.3291 12.6856-27.6299 14.9707-27.5322C17.2647-27.377 18.6621-28.7344 18.8662-31.3125L19.7451-41.415L22.4717-43.8574C23.4268-44.7236 24.6523-44.1504 24.5947-43.165L23.9687-34.7744C23.6269-30.4199 24.626-28.29 27.6924-24.4736L35.6328-14.5136C36.4053-13.5459 36.5117-13.1728 36.8623-12.5118ZM58.8672-43.6767L49.8653-43.6767L44.4971-49.6045L43.7871-39.71L45.5615-37.9756C46.8662-36.6709 48.0332-36.2627 50.4384-36.2627L58.8672-36.2627C61.3252-36.2627 62.958-37.7002 62.958-39.9453C62.958-42.1904 61.2764-43.6767 58.8672-43.6767ZM36.4346-62.2627C41.2451-62.2627 45.1592-66.1767 45.1592-70.9873C45.1592-75.7978 41.2451-79.7119 36.4346-79.7119C31.584-79.7119 27.7099-75.7978 27.7099-70.9873C27.7099-66.1767 31.584-62.2627 36.4346-62.2627Z"/>
  </g>
  <g id="Regular-S" transform="matrix(1 0 0 1 1413.88 696)">
   <path d="M16.3574 4.83398L27.9785-9.0332C29.1504-10.4004 29.2969-10.7422 29.7852-12.1582L30.6152-14.5996L24.3164-22.5586L22.4121-13.916L10.9375-0.244141C7.22656 4.15039 13.2812 8.49609 16.3574 4.83398ZM44.6777 3.66211C47.1191 8.59375 54.3457 5.56641 51.709 0.244141L43.7988-15.8203C43.1641-17.041 42.334-18.3594 41.6016-19.3848L36.6211-26.5137L36.9629-27.5391C38.2812-31.543 38.7695-33.9844 39.0625-37.9395L39.8438-49.1699C40.2344-54.4922 37.1094-58.5938 31.5918-58.5938C27.4902-58.5938 24.707-56.4941 20.9473-52.832L14.9902-46.9727C13.0371-45.0684 12.4023-43.457 12.207-40.9668L11.5234-31.7871C11.3281-29.4434 12.5977-27.832 14.7949-27.7344C16.9922-27.5879 18.3105-28.8574 18.5059-31.3477L19.3848-41.4062L22.2168-43.9453C23.2422-44.873 24.5117-44.2383 24.4629-43.2617L23.8281-34.7656C23.4863-30.4199 24.5117-28.3691 27.4902-24.6582L35.3516-14.7949C36.1328-13.8184 36.2305-13.4277 36.5723-12.793ZM58.252-43.457L49.2676-43.457L43.75-49.5605L43.0664-40.0879L45.166-38.0371C46.4355-36.7676 47.5586-36.377 49.9023-36.377L58.252-36.377C60.5957-36.377 62.1582-37.7441 62.1582-39.8926C62.1582-42.041 60.5469-43.457 58.252-43.457ZM35.9863-62.0605C40.6738-62.0605 44.4824-65.8691 44.4824-70.5566C44.4824-75.2441 40.6738-79.0527 35.9863-79.0527C31.25-79.0527 27.4902-75.2441 27.4902-70.5566C27.4902-65.8691 31.25-62.0605 35.9863-62.0605Z"/>
  </g>
  <g id="Light-S" transform="matrix(1 0 0 1 1117.96 696)">
   <path d="M16.0395 3.77442L27.3579-9.71433C28.4692-11.0513 28.646-11.3628 29.0889-12.7485L29.9946-15.4624L23.9683-23.0581L22.064-14.3852L10.877-1.07665C7.34765 3.13624 13.1147 7.27003 16.0395 3.77442ZM43.709 2.66309C46.0444 7.35255 52.9531 4.46144 50.4375-0.618646L42.7241-16.2441C42.1348-17.4043 41.3198-18.647 40.5874-19.6875L35.7129-26.6499L36.0547-27.6905C37.3276-31.5884 37.831-33.9541 38.1089-37.7881L38.875-48.7007C39.2505-53.917 36.1709-57.8067 30.9107-57.8067C26.9604-57.8067 24.268-55.7827 20.6143-52.2114L14.8237-46.5035C12.9766-44.69 12.3266-43.1846 12.1313-40.7397L11.4629-31.8022C11.2827-29.5493 12.4917-28.0136 14.583-27.9312C16.6895-27.7847 17.9321-28.9936 18.1275-31.378L18.9761-41.1943L21.7627-43.688C22.773-44.6006 24.1333-44.0112 24.0693-42.959L23.4497-34.6899C23.123-30.4805 24.103-28.5053 26.9907-24.9004L34.625-15.3247C35.4062-14.3633 35.4888-13.9726 35.8155-13.353ZM56.8291-43.0635L48.0869-43.0635L42.4937-49.2729L41.8555-40.2241L44.1821-37.9311C45.4062-36.707 46.4688-36.3316 48.7217-36.3316L56.8291-36.3316C59.082-36.3316 60.5689-37.6382 60.5689-39.6958C60.5689-41.7383 59.0484-43.0635 56.8291-43.0635ZM35.1084-61.2583C39.6445-61.2583 43.3169-64.9306 43.3169-69.4516C43.3169-73.9878 39.6445-77.6601 35.1084-77.6601C30.5386-77.6601 26.915-73.9878 26.915-69.4516C26.915-64.9306 30.5386-61.2583 35.1084-61.2583Z"/>
  </g>
  <g id="Thin-S" transform="matrix(1 0 0 1 822.305 696)">
   <path d="M15.6191 2.37307L26.5371-10.6152C27.5683-11.9121 27.7852-12.1836 28.168-13.5293L29.1738-16.6035L23.5078-23.7187L21.6035-15.0058L10.7969-2.17772C7.50781 1.79494 12.8945 5.64846 15.6191 2.37307ZM42.4277 1.34182C44.623 5.71096 51.1114 3.00002 48.7559-1.75975L41.3027-16.8047C40.7735-17.8848 39.9785-19.0274 39.2461-20.0879L34.5117-26.8301L34.8535-27.8907C36.0664-31.6484 36.5898-33.9141 36.8477-37.5879L37.5938-48.0801C37.9492-53.1563 34.9297-56.7656 30.0098-56.7656C26.2598-56.7656 23.6875-54.8418 20.1739-51.3906L14.6035-45.8829C12.8965-44.1895 12.2266-42.8243 12.0313-40.4394L11.3828-31.8222C11.2227-29.6894 12.3516-28.2539 14.3027-28.1914C16.2891-28.0449 17.4316-29.1738 17.627-31.418L18.4356-40.914L21.1621-43.3476C22.1524-44.2403 23.6328-43.7109 23.5488-42.5586L22.9492-34.5899C22.6426-30.5606 23.5625-28.6855 26.3301-25.2207L33.6641-16.0254C34.4453-15.084 34.5078-14.6934 34.8145-14.0937ZM54.9473-42.543L46.5254-42.543L40.8321-48.8926L40.2539-40.4043L42.8809-37.791C44.0449-36.6269 45.0274-36.2715 47.1602-36.2715L54.9473-36.2715C57.0801-36.2715 58.4668-37.4981 58.4668-39.4356C58.4668-41.3379 57.0664-42.543 54.9473-42.543ZM33.9473-60.1972C38.2832-60.1972 41.7754-63.6894 41.7754-67.9902C41.7754-72.3262 38.2832-75.8184 33.9473-75.8184C29.5976-75.8184 26.1543-72.3262 26.1543-67.9902C26.1543-63.6894 29.5976-60.1972 33.9473-60.1972Z"/>
  </g>
  <g id="Ultralight-S" transform="matrix(1 0 0 1 526.133 696)">
   <path d="M15.4038 1.6553L26.1167-11.0766C27.1069-12.353 27.3443-12.604 27.6963-13.9292L28.7534-17.188L23.272-24.0571L21.3677-15.3237L10.7559-2.74168C7.58984 1.10793 12.7817 4.8179 15.4038 1.6553ZM41.7715 0.665063C43.895 4.87015 50.168 2.25149 47.8946-2.34422L40.5747-17.0918C40.0762-18.1309 39.2915-19.2222 38.5591-20.293L33.8965-26.9224L34.2383-27.9932C35.4204-31.6792 35.9541-33.8936 36.2017-37.4854L36.9375-47.7622C37.2827-52.7666 34.294-56.2324 29.5484-56.2324C25.9009-56.2324 23.3901-54.3599 19.9483-50.9702L14.4907-45.565C12.8555-43.9331 12.1753-42.6397 11.98-40.2856L11.3418-31.8325C11.1919-29.7612 12.2798-28.3769 14.1592-28.3247C16.084-28.1782 17.1753-29.2661 17.3706-31.4385L18.1587-40.7705L20.8545-43.1733C21.8345-44.0557 23.3765-43.5571 23.2822-42.3535L22.6929-34.5386C22.3965-30.6016 23.2857-28.7778 25.9917-25.3848L33.1719-16.3843C33.9531-15.4531 34.0054-15.0625 34.3018-14.4731ZM53.9834-42.2764L45.7256-42.2764L39.981-48.6978L39.4336-40.4966L42.2144-37.7192C43.3477-36.5859 44.2891-36.2407 46.3604-36.2407L53.9834-36.2407C56.0547-36.2407 57.3902-37.4263 57.3902-39.3023C57.3902-41.1328 56.0513-42.2764 53.9834-42.2764ZM33.3526-59.6538C37.586-59.6538 40.9859-63.0537 40.9859-67.2417C40.9859-71.4751 37.586-74.875 33.3526-74.875C29.1157-74.875 25.7647-71.4751 25.7647-67.2417C25.7647-63.0537 29.1157-59.6538 33.3526-59.6538Z"/>
  </g>
 </g>
</svg>
