<?xml version="1.0" encoding="UTF-8"?>
<!--Generator: Apple Native CoreSVG 175.5-->
<!DOCTYPE svg
PUBLIC "-//W3C//DTD SVG 1.1//EN"
       "http://www.w3.org/Graphics/SVG/1.1/DTD/svg11.dtd">
<svg version="1.1" xmlns="http://www.w3.org/2000/svg" xmlns:xlink="http://www.w3.org/1999/xlink" width="3300" height="2200">
 <!--glyph: "uni10151C.medium", point size: 100.0, font version: "18.0d12e2", template writer version: "101"-->
 <g id="Notes">
  <rect height="2200" id="artboard" style="fill:white;opacity:1" width="3300" x="0" y="0"/>
  <line style="fill:none;stroke:black;opacity:1;stroke-width:0.5;" x1="263" x2="3036" y1="292" y2="292"/>
  <text style="stroke:none;fill:black;font-family:sans-serif;font-size:13;font-weight:bold;" transform="matrix(1 0 0 1 263 322)">Weight/Scale Variations</text>
  <text style="stroke:none;fill:black;font-family:sans-serif;font-size:13;text-anchor:middle;" transform="matrix(1 0 0 1 559.711 322)">Ultralight</text>
  <text style="stroke:none;fill:black;font-family:sans-serif;font-size:13;text-anchor:middle;" transform="matrix(1 0 0 1 856.422 322)">Thin</text>
  <text style="stroke:none;fill:black;font-family:sans-serif;font-size:13;text-anchor:middle;" transform="matrix(1 0 0 1 1153.13 322)">Light</text>
  <text style="stroke:none;fill:black;font-family:sans-serif;font-size:13;text-anchor:middle;" transform="matrix(1 0 0 1 1449.84 322)">Regular</text>
  <text style="stroke:none;fill:black;font-family:sans-serif;font-size:13;text-anchor:middle;" transform="matrix(1 0 0 1 1746.56 322)">Medium</text>
  <text style="stroke:none;fill:black;font-family:sans-serif;font-size:13;text-anchor:middle;" transform="matrix(1 0 0 1 2043.27 322)">Semibold</text>
  <text style="stroke:none;fill:black;font-family:sans-serif;font-size:13;text-anchor:middle;" transform="matrix(1 0 0 1 2339.98 322)">Bold</text>
  <text style="stroke:none;fill:black;font-family:sans-serif;font-size:13;text-anchor:middle;" transform="matrix(1 0 0 1 2636.69 322)">Heavy</text>
  <text style="stroke:none;fill:black;font-family:sans-serif;font-size:13;text-anchor:middle;" transform="matrix(1 0 0 1 2933.4 322)">Black</text>
  <line style="fill:none;stroke:black;opacity:1;stroke-width:0.5;" x1="263" x2="3036" y1="1903" y2="1903"/>
  <g transform="matrix(1 0 0 1 263 1933)">
   <path d="M9.24805 0.830078C13.5547 0.830078 17.1387-2.74414 17.1387-7.05078C17.1387-11.3574 13.5449-14.9316 9.23828-14.9316C4.94141-14.9316 1.36719-11.3574 1.36719-7.05078C1.36719-2.74414 4.95117 0.830078 9.24805 0.830078ZM9.24805-0.654297C5.70312-0.654297 2.87109-3.49609 2.87109-7.05078C2.87109-10.6055 5.69336-13.4473 9.23828-13.4473C12.793-13.4473 15.6445-10.6055 15.6445-7.05078C15.6445-3.49609 12.8027-0.654297 9.24805-0.654297ZM5.6543-7.05078C5.6543-6.62109 5.95703-6.32812 6.40625-6.32812L8.50586-6.32812L8.50586-4.20898C8.50586-3.76953 8.79883-3.4668 9.22852-3.4668C9.67773-3.4668 9.9707-3.76953 9.9707-4.20898L9.9707-6.32812L12.0898-6.32812C12.5293-6.32812 12.832-6.62109 12.832-7.05078C12.832-7.49023 12.5293-7.79297 12.0898-7.79297L9.9707-7.79297L9.9707-9.90234C9.9707-10.3516 9.67773-10.6543 9.22852-10.6543C8.79883-10.6543 8.50586-10.3516 8.50586-9.90234L8.50586-7.79297L6.40625-7.79297C5.95703-7.79297 5.6543-7.49023 5.6543-7.05078Z"/>
  </g>
  <g transform="matrix(1 0 0 1 281.867 1933)">
   <path d="M11.709 2.91016C17.1582 2.91016 21.6699-1.61133 21.6699-7.05078C21.6699-12.5 17.1484-17.0117 11.6992-17.0117C6.25977-17.0117 1.74805-12.5 1.74805-7.05078C1.74805-1.61133 6.26953 2.91016 11.709 2.91016ZM11.709 1.25C7.09961 1.25 3.41797-2.44141 3.41797-7.05078C3.41797-11.6602 7.08984-15.3516 11.6992-15.3516C16.3086-15.3516 20.0098-11.6602 20.0098-7.05078C20.0098-2.44141 16.3184 1.25 11.709 1.25ZM7.17773-7.05078C7.17773-6.57227 7.50977-6.25 8.00781-6.25L10.8789-6.25L10.8789-3.36914C10.8789-2.88086 11.2109-2.53906 11.6895-2.53906C12.1777-2.53906 12.5195-2.87109 12.5195-3.36914L12.5195-6.25L15.4004-6.25C15.8887-6.25 16.2305-6.57227 16.2305-7.05078C16.2305-7.53906 15.8887-7.88086 15.4004-7.88086L12.5195-7.88086L12.5195-10.752C12.5195-11.25 12.1777-11.5918 11.6895-11.5918C11.2109-11.5918 10.8789-11.25 10.8789-10.752L10.8789-7.88086L8.00781-7.88086C7.50977-7.88086 7.17773-7.53906 7.17773-7.05078Z"/>
  </g>
  <g transform="matrix(1 0 0 1 305.646 1933)">
   <path d="M14.9707 5.66406C21.9336 5.66406 27.6953-0.0976562 27.6953-7.05078C27.6953-14.0137 21.9238-19.7754 14.9609-19.7754C8.00781-19.7754 2.25586-14.0137 2.25586-7.05078C2.25586-0.0976562 8.01758 5.66406 14.9707 5.66406ZM14.9707 3.84766C8.93555 3.84766 4.08203-1.01562 4.08203-7.05078C4.08203-13.0957 8.92578-17.9492 14.9609-17.9492C21.0059-17.9492 25.8691-13.0957 25.8691-7.05078C25.8691-1.01562 21.0156 3.84766 14.9707 3.84766ZM9.19922-7.05078C9.19922-6.5332 9.57031-6.17188 10.1172-6.17188L14.0625-6.17188L14.0625-2.2168C14.0625-1.67969 14.4336-1.29883 14.9512-1.29883C15.4883-1.29883 15.8594-1.66992 15.8594-2.2168L15.8594-6.17188L19.8145-6.17188C20.3516-6.17188 20.7324-6.5332 20.7324-7.05078C20.7324-7.59766 20.3613-7.96875 19.8145-7.96875L15.8594-7.96875L15.8594-11.9141C15.8594-12.4609 15.4883-12.8418 14.9512-12.8418C14.4336-12.8418 14.0625-12.4609 14.0625-11.9141L14.0625-7.96875L10.1172-7.96875C9.57031-7.96875 9.19922-7.59766 9.19922-7.05078Z"/>
  </g>
  <text style="stroke:none;fill:black;font-family:sans-serif;font-size:13;font-weight:bold;" transform="matrix(1 0 0 1 263 1953)">Design Variations</text>
  <text style="stroke:none;fill:black;font-family:sans-serif;font-size:13;" transform="matrix(1 0 0 1 263 1971)">Symbols are supported in up to nine weights and three scales.</text>
  <text style="stroke:none;fill:black;font-family:sans-serif;font-size:13;" transform="matrix(1 0 0 1 263 1989)">For optimal layout with text and other symbols, vertically align</text>
  <text style="stroke:none;fill:black;font-family:sans-serif;font-size:13;" transform="matrix(1 0 0 1 263 2007)">symbols with the adjacent text.</text>
  <line style="fill:none;stroke:#00AEEF;stroke-width:0.5;opacity:1.0;" x1="776" x2="776" y1="1919" y2="1933"/>
  <g transform="matrix(1 0 0 1 776 1933)">
   <path d="M3.31055 0.15625C3.82812 0.15625 4.08203-0.0390625 4.26758-0.585938L5.52734-4.0332L11.2891-4.0332L12.5488-0.585938C12.7344-0.0390625 12.9883 0.15625 13.4961 0.15625C14.0137 0.15625 14.3457-0.15625 14.3457-0.644531C14.3457-0.810547 14.3164-0.966797 14.2383-1.17188L9.6582-13.3691C9.43359-13.9648 9.0332-14.2676 8.4082-14.2676C7.80273-14.2676 7.39258-13.9746 7.17773-13.3789L2.59766-1.16211C2.51953-0.957031 2.49023-0.800781 2.49023-0.634766C2.49023-0.146484 2.80273 0.15625 3.31055 0.15625ZM6.00586-5.51758L8.37891-12.0898L8.42773-12.0898L10.8008-5.51758Z"/>
  </g>
  <line style="fill:none;stroke:#00AEEF;stroke-width:0.5;opacity:1.0;" x1="793.197" x2="793.197" y1="1919" y2="1933"/>
  <text style="stroke:none;fill:black;font-family:sans-serif;font-size:13;font-weight:bold;" transform="matrix(1 0 0 1 776 1953)">Margins</text>
  <text style="stroke:none;fill:black;font-family:sans-serif;font-size:13;" transform="matrix(1 0 0 1 776 1971)">Leading and trailing margins on the left and right side of each symbol</text>
  <text style="stroke:none;fill:black;font-family:sans-serif;font-size:13;" transform="matrix(1 0 0 1 776 1989)">can be adjusted by modifying the x-location of the margin guidelines.</text>
  <text style="stroke:none;fill:black;font-family:sans-serif;font-size:13;" transform="matrix(1 0 0 1 776 2007)">Modifications are automatically applied proportionally to all</text>
  <text style="stroke:none;fill:black;font-family:sans-serif;font-size:13;" transform="matrix(1 0 0 1 776 2025)">scales and weights.</text>
  <g transform="matrix(1 0 0 1 1289 1933)">
   <path d="M2.8418 1.86523L4.54102 3.57422C5.40039 4.44336 6.38672 4.38477 7.31445 3.35938L18.0078-8.42773L17.041-9.4043L6.42578 2.27539C6.07422 2.67578 5.74219 2.77344 5.27344 2.30469L4.10156 1.14258C3.63281 0.683594 3.74023 0.341797 4.14062-0.0195312L15.6152-10.8203L14.6387-11.7871L3.04688-0.898438C2.06055 0.0195312 1.98242 0.996094 2.8418 1.86523ZM9.25781-16.3281C8.83789-15.918 8.80859-15.3418 9.04297-14.9512C9.27734-14.5898 9.73633-14.3555 10.3809-14.5215C11.8457-14.8633 13.3691-14.9219 14.7949-13.9844L14.209-12.5293C13.8672-11.6992 14.043-11.1133 14.5801-10.5664L16.875-8.25195C17.3633-7.76367 17.7734-7.74414 18.3398-7.8418L19.4043-8.03711L20.0684-7.36328L20.0293-6.80664C19.9902-6.30859 20.1172-5.92773 20.6055-5.44922L21.3672-4.70703C21.8457-4.22852 22.4609-4.19922 22.9297-4.66797L25.8398-7.58789C26.3086-8.05664 26.2891-8.65234 25.8105-9.13086L25.0391-9.89258C24.5605-10.3711 24.1895-10.5273 23.7109-10.4883L23.1348-10.4395L22.4902-11.0742L22.7344-12.1973C22.8613-12.7637 22.7051-13.2031 22.1191-13.7891L19.9219-15.9766C16.582-19.2969 12.1484-19.2188 9.25781-16.3281ZM10.752-15.957C13.1836-17.7344 16.4746-17.4316 18.7012-15.2051L21.1328-12.793C21.3672-12.5586 21.4062-12.373 21.3379-12.0312L21.0156-10.5469L22.5195-9.0625L23.5059-9.12109C23.7598-9.13086 23.8379-9.11133 24.0332-8.91602L24.6094-8.33984L22.168-5.89844L21.5918-6.47461C21.3965-6.66992 21.3672-6.74805 21.377-7.01172L21.4453-7.98828L19.9512-9.47266L18.4277-9.21875C18.1055-9.15039 17.959-9.17969 17.7148-9.41406L15.7129-11.416C15.459-11.6504 15.4297-11.8164 15.5859-12.1875L16.4648-14.2773C14.9023-15.7324 12.8711-16.3574 10.8398-15.7617C10.6836-15.7227 10.625-15.8496 10.752-15.957Z"/>
  </g>
  <text style="stroke:none;fill:black;font-family:sans-serif;font-size:13;font-weight:bold;" transform="matrix(1 0 0 1 1289 1953)">Exporting</text>
  <text style="stroke:none;fill:black;font-family:sans-serif;font-size:13;" transform="matrix(1 0 0 1 1289 1971)">Symbols should be outlined when exporting to ensure the</text>
  <text style="stroke:none;fill:black;font-family:sans-serif;font-size:13;" transform="matrix(1 0 0 1 1289 1989)">design is preserved when submitting to Xcode.</text>
  <text id="template-version" style="stroke:none;fill:black;font-family:sans-serif;font-size:13;text-anchor:end;" transform="matrix(1 0 0 1 3036 1933)">Template v.4.0</text>
  <text style="stroke:none;fill:black;font-family:sans-serif;font-size:13;text-anchor:end;" transform="matrix(1 0 0 1 3036 1951)">Requires Xcode 14 or greater</text>
  <text id="descriptive-name" style="stroke:none;fill:black;font-family:sans-serif;font-size:13;text-anchor:end;" transform="matrix(1 0 0 1 3036 1969)">Generated from figure.bowling</text>
  <text style="stroke:none;fill:black;font-family:sans-serif;font-size:13;text-anchor:end;" transform="matrix(1 0 0 1 3036 1987)">Typeset at 100 points</text>
  <text style="stroke:none;fill:black;font-family:sans-serif;font-size:13;" transform="matrix(1 0 0 1 263 726)">Small</text>
  <text style="stroke:none;fill:black;font-family:sans-serif;font-size:13;" transform="matrix(1 0 0 1 263 1156)">Medium</text>
  <text style="stroke:none;fill:black;font-family:sans-serif;font-size:13;" transform="matrix(1 0 0 1 263 1586)">Large</text>
 </g>
 <g id="Guides">
  <g id="H-reference" style="fill:#27AAE1;stroke:none;" transform="matrix(1 0 0 1 339 696)">
   <path d="M0.993654 0L3.63775 0L29.3281-67.1323L30.0303-67.1323L30.0303-70.459L28.1226-70.459ZM11.6885-24.4799L46.9815-24.4799L46.2315-26.7285L12.4385-26.7285ZM55.1196 0L57.7637 0L30.6382-70.459L29.4326-70.459L29.4326-67.1323Z"/>
  </g>
  <line id="Baseline-S" style="fill:none;stroke:#27AAE1;opacity:1;stroke-width:0.5;" x1="263" x2="3036" y1="696" y2="696"/>
  <line id="Capline-S" style="fill:none;stroke:#27AAE1;opacity:1;stroke-width:0.5;" x1="263" x2="3036" y1="625.541" y2="625.541"/>
  <g id="H-reference" style="fill:#27AAE1;stroke:none;" transform="matrix(1 0 0 1 339 1126)">
   <path d="M0.993654 0L3.63775 0L29.3281-67.1323L30.0303-67.1323L30.0303-70.459L28.1226-70.459ZM11.6885-24.4799L46.9815-24.4799L46.2315-26.7285L12.4385-26.7285ZM55.1196 0L57.7637 0L30.6382-70.459L29.4326-70.459L29.4326-67.1323Z"/>
  </g>
  <line id="Baseline-M" style="fill:none;stroke:#27AAE1;opacity:1;stroke-width:0.5;" x1="263" x2="3036" y1="1126" y2="1126"/>
  <line id="Capline-M" style="fill:none;stroke:#27AAE1;opacity:1;stroke-width:0.5;" x1="263" x2="3036" y1="1055.54" y2="1055.54"/>
  <g id="H-reference" style="fill:#27AAE1;stroke:none;" transform="matrix(1 0 0 1 339 1556)">
   <path d="M0.993654 0L3.63775 0L29.3281-67.1323L30.0303-67.1323L30.0303-70.459L28.1226-70.459ZM11.6885-24.4799L46.9815-24.4799L46.2315-26.7285L12.4385-26.7285ZM55.1196 0L57.7637 0L30.6382-70.459L29.4326-70.459L29.4326-67.1323Z"/>
  </g>
  <line id="Baseline-L" style="fill:none;stroke:#27AAE1;opacity:1;stroke-width:0.5;" x1="263" x2="3036" y1="1556" y2="1556"/>
  <line id="Capline-L" style="fill:none;stroke:#27AAE1;opacity:1;stroke-width:0.5;" x1="263" x2="3036" y1="1485.54" y2="1485.54"/>
  <line id="left-margin-Regular-M" style="fill:none;stroke:#00AEEF;stroke-width:0.5;opacity:1.0;" x1="1387.91" x2="1387.91" y1="1030.79" y2="1150.12"/>
  <line id="right-margin-Regular-M" style="fill:none;stroke:#00AEEF;stroke-width:0.5;opacity:1.0;" x1="1511.78" x2="1511.78" y1="1030.79" y2="1150.12"/>
 </g>
 <g id="Symbols">
  <g id="Black-L" transform="matrix(1 0 0 1 2849.17 1556)">
   <path d="M120.106-82.2753C128.632-82.2753 135.575-89.2174 135.575-97.785C135.575-106.289 128.632-113.252 120.106-113.252C111.561-113.252 104.598-106.289 104.598-97.785C104.598-89.2174 111.561-82.2753 120.106-82.2753ZM71.2456-24.9702L104.236 0.194089L94.0009 31.6656C92.2637 37.0976 95.7745 40.9521 99.7314 41.9303C103.367 42.7489 107.639 41.2506 109.296 36.1778L120.968 0.0552625C121.947-2.98064 121.407-6.23819 119.252-8.39186L97.4466-30.1962L122.581-55.3317C123.237-55.9892 124.26-55.988 124.918-55.3317L133.086-47.2656L121.647-35.7891C118.471-32.5547 118.493-27.5612 121.647-24.5241C124.524-21.5894 129.678-21.2898 132.911-24.5241L149.979-41.5935C153.192-44.8279 153.054-49.6802 149.979-52.8561L133.473-69.5818C129.385-73.7072 124.202-75.8089 118.215-75.8089L38.9335-75.8089C34.5613-75.8089 30.9261-72.2541 30.9261-67.8223C30.9261-63.4489 34.5613-59.8137 38.9335-59.8137L84.4808-59.8137C85.9697-59.8137 86.4299-58.77 85.4079-57.7481L72.2106-44.5132C65.8655-38.0889 66.6101-28.4666 71.2456-24.9702ZM68.5026-17.548L65.6387-0.499466L34.9637-0.499466C30.4295-0.499466 26.8747 3.11495 26.8747 7.50917C26.8747 11.941 30.4295 15.5554 34.9637 15.5554L72.1073 15.5554C76.2615 15.5554 78.9977 13.3797 80.1148 9.76528L84.6752-5.25196ZM32.0942-36.9504C40.9187-36.9504 48.1032-44.1557 48.1032-52.9802C48.1032-61.7851 40.9187-68.9905 32.0942-68.9905C23.2893-68.9905 16.084-61.7851 16.084-52.9802C16.084-44.1557 23.2893-36.9504 32.0942-36.9504Z"/>
  </g>
  <g id="Heavy-L" transform="matrix(1 0 0 1 2553.59 1556)">
   <path d="M119.173-81.7364C127.462-81.7364 134.189-88.4639 134.189-96.8132C134.189-105.066 127.462-111.824 119.173-111.824C110.859-111.824 104.102-105.066 104.102-96.8132C104.102-88.4639 110.859-81.7364 119.173-81.7364ZM70.4529-25.4885L103.161-0.539417L93.0063 30.7091C91.3468 35.8985 94.6746 39.5837 98.476 40.5162C101.956 41.2934 106.022 39.864 107.601 35.0107L119.129-0.66446C120.061-3.57243 119.54-6.69708 117.5-8.73166L95.7859-30.4399L120.783-55.4429C121.541-56.2062 122.698-56.2006 123.461-55.4429L131.719-47.3013L120.222-35.7901C117.183-32.7069 117.219-27.9284 120.222-25.0148C122.975-22.2175 127.914-21.9316 130.992-25.0148L147.847-41.8763C150.895-44.9595 150.775-49.6018 147.847-52.6404L131.549-69.1444C127.538-73.1694 122.506-75.2165 116.67-75.2165L38.3914-75.2165C34.2204-75.2165 30.7407-71.8172 30.7407-67.596C30.7407-63.4195 34.2204-59.9397 38.3914-59.9397L83.36-59.9397C85.0148-59.9397 85.6084-58.6061 84.4575-57.4552L71.418-44.4012C65.251-38.1594 66.005-28.8432 70.4529-25.4885ZM67.9206-18.384L64.9828-0.865222L34.4756-0.865222C30.1383-0.865222 26.739 2.58433 26.739 6.79105C26.739 11.0122 30.1383 14.4618 34.4756 14.4618L71.1493 14.4618C75.1203 14.4618 77.7424 12.3914 78.7999 8.94184L83.4893-6.53629ZM31.6332-37.3655C40.2023-37.3655 47.1767-44.3701 47.1767-52.9393C47.1767-61.4839 40.2023-68.4885 31.6332-68.4885C23.0886-68.4885 16.084-61.4839 16.084-52.9393C16.084-44.3701 23.0886-37.3655 31.6332-37.3655Z"/>
  </g>
  <g id="Bold-L" transform="matrix(1 0 0 1 2258.35 1556)">
   <path d="M117.797-81.0158C125.793-81.0158 132.26-87.4819 132.26-95.5547C132.26-103.5 125.793-110.004 117.797-110.004C109.775-110.004 103.271-103.5 103.271-95.5547C103.271-87.4819 109.775-81.0158 117.797-81.0158ZM69.3949-26.0817L101.683-1.45363L91.6501 29.4438C90.083 34.3484 93.1952 37.8335 96.8119 38.7121C100.107 39.4431 103.934 38.0907 105.421 33.499L116.75-1.56325C117.629-4.3174 117.13-7.28804 115.221-9.18403L93.682-30.7098L118.443-55.4843C119.309-56.3634 120.612-56.3501 121.491-55.4843L129.819-47.2878L118.298-35.7753C115.421-32.8691 115.472-28.3445 118.298-25.5772C120.905-22.9414 125.59-22.671 128.483-25.5772L145.048-42.1551C147.903-45.0613 147.806-49.4498 145.048-52.3268L129.033-68.5318C125.122-72.4339 120.274-74.4119 114.622-74.4119L37.7153-74.4119C33.7829-74.4119 30.4879-71.1972 30.4879-67.2224C30.4879-63.2768 33.7829-59.9817 37.7153-59.9817L81.8947-59.9817C83.7272-59.9817 84.4674-58.3317 83.1775-57.0418L70.36-44.2331C64.4083-38.2142 65.1701-29.2671 69.3949-26.0817ZM67.1089-19.3915L64.0938-1.37073L33.8761-1.37073C29.7697-1.37073 26.555 1.88635 26.555 5.86996C26.555 9.84478 29.7697 13.1019 33.8761 13.1019L69.9062 13.1019C73.6618 13.1019 76.1455 11.1547 77.1337 7.89758L81.962-8.07471ZM31.0719-37.8058C39.326-37.8058 46.0466-44.5644 46.0466-52.8185C46.0466-61.0479 39.326-67.8065 31.0719-67.8065C22.8426-67.8065 16.084-61.0479 16.084-52.8185C16.084-44.5644 22.8426-37.8058 31.0719-37.8058Z"/>
  </g>
  <g id="Semibold-L" transform="matrix(1 0 0 1 1962.65 1556)">
   <path d="M116.848-80.5189C124.643-80.5189 130.929-86.8049 130.929-94.6871C130.929-102.421 124.643-108.75 116.848-108.75C109.027-108.75 102.698-102.421 102.698-94.6871C102.698-86.8049 109.027-80.5189 116.848-80.5189ZM68.6655-26.4906L100.663-2.08389L90.7151 28.5715C89.2117 33.2797 92.1753 36.6269 95.6648 37.4684C98.8325 38.1674 102.495 36.8683 103.918 32.4569L115.11-2.18288C115.952-4.83098 115.469-7.69545 113.65-9.49589L92.2315-30.8959L116.83-55.5129C117.77-56.4717 119.175-56.4532 120.133-55.5129L128.51-47.2784L116.972-35.765C114.206-32.9809 114.268-28.6314 116.972-25.9648C119.478-23.4405 123.988-23.1807 126.754-25.9648L143.118-42.3474C145.84-45.1315 145.759-49.345 143.118-52.1106L127.298-68.1096C123.456-71.9268 118.735-73.8572 113.211-73.8572L37.2493-73.8572C33.4813-73.8572 30.3136-70.7698 30.3136-66.9648C30.3136-63.1784 33.4813-60.0106 37.2493-60.0106L80.8846-60.0106C82.8395-60.0106 83.6807-58.1425 82.295-56.7568L69.6306-44.1172C63.8273-38.252 64.5945-29.5594 68.6655-26.4906ZM66.5494-20.086L63.481-1.71923L33.4628-1.71923C29.5156-1.71923 26.4282 1.40517 26.4282 5.23496C26.4282 9.03996 29.5156 12.1644 33.4628 12.1644L69.0493 12.1644C72.6563 12.1644 75.0445 10.3021 75.985 7.17767L80.9091-9.13528ZM30.685-38.1093C38.7219-38.1093 45.2676-44.6984 45.2676-52.7353C45.2676-60.7473 38.7219-67.3363 30.685-67.3363C22.673-67.3363 16.084-60.7473 16.084-52.7353C16.084-44.6984 22.673-38.1093 30.685-38.1093Z"/>
  </g>
  <g id="Medium-L" transform="matrix(1 0 0 1 1666.71 1556)">
   <path d="M116.128-80.1423C123.771-80.1423 129.92-86.2916 129.92-94.0293C129.92-101.602 123.771-107.799 116.128-107.799C108.46-107.799 102.264-101.602 102.264-94.0293C102.264-86.2916 108.46-80.1423 116.128-80.1423ZM68.1125-26.8007L99.8906-2.56177L90.0062 27.91C88.551 32.4694 91.402 35.712 94.7949 36.5253C97.8662 37.2002 101.404 35.9413 102.779 31.6667L113.867-2.6527C114.68-5.22039 114.209-8.00436 112.459-9.73236L91.1317-31.037L115.607-55.5345C116.604-56.5539 118.084-56.5314 119.104-55.5345L127.517-47.2713L115.966-35.7573C113.285-33.0657 113.355-28.849 115.966-26.2588C118.396-23.819 122.773-23.5672 125.442-26.2588L141.654-42.4931C144.276-45.1847 144.207-49.2656 141.654-51.9467L125.983-67.7894C122.193-71.5424 117.569-73.4366 112.14-73.4366L36.8959-73.4366C33.2526-73.4366 30.1814-70.4458 30.1814-66.7695C30.1814-63.1038 33.2526-60.0326 36.8959-60.0326L80.1187-60.0326C82.1664-60.0326 83.0843-57.9991 81.6259-56.5407L69.0775-44.0293C63.3868-38.2806 64.1581-29.781 68.1125-26.8007ZM66.1251-20.6127L63.0163-1.98347L33.1495-1.98347C29.3229-1.98347 26.3321 1.04032 26.3321 4.75348C26.3321 8.42971 29.3229 11.4535 33.1495 11.4535L68.3995 11.4535C71.8938 11.4535 74.2098 9.6556 75.114 6.63181L80.1108-9.93946ZM30.3916-38.3395C38.2638-38.3395 44.6768-44.8 44.6768-52.6721C44.6768-60.5193 38.2638-66.9798 30.3916-66.9798C22.5445-66.9798 16.084-60.5193 16.084-52.6721C16.084-44.8 22.5445-38.3395 30.3916-38.3395Z"/>
  </g>
  <g id="Regular-L" transform="matrix(1 0 0 1 1371.01 1556)">
   <path d="M115.19-79.6509C122.634-79.6509 128.605-85.622 128.605-93.1713C128.605-100.535 122.634-106.558 115.19-106.558C107.721-106.558 101.697-100.535 101.697-93.1713C101.697-85.622 107.721-79.6509 115.19-79.6509ZM67.3911-27.2052L98.8826-3.1851L89.0815 27.0473C87.6893 31.4125 90.3934 34.5187 93.6604 35.2952C96.6057 35.9386 99.9808 34.7323 101.293 30.636L112.245-3.26552C113.021-5.72833 112.566-8.40729 110.905-10.0408L89.6972-31.221L114.011-55.5628C115.082-56.661 116.663-56.6334 117.761-55.5628L126.222-47.2621L114.655-35.7471C112.084-33.1762 112.164-29.1327 114.655-26.6422C116.984-24.3126 121.189-24.0713 123.732-26.6422L139.745-42.6832C142.236-45.2541 142.183-49.1619 139.745-51.7328L124.267-67.3718C120.545-71.0409 116.047-72.888 110.744-72.888L36.4349-72.888C32.9543-72.888 30.009-70.0231 30.009-66.5148C30.009-63.0065 32.9543-60.0612 36.4349-60.0612L79.1197-60.0612C81.2885-60.0612 82.3063-57.812 80.7532-56.2589L68.3561-43.9146C62.8123-38.318 63.5888-30.0701 67.3911-27.2052ZM65.5717-21.2996L62.4102-2.32814L32.7407-2.32814C29.0716-2.32814 26.2067 0.564432 26.2067 4.12546C26.2067 7.63373 29.0716 10.5263 32.7407 10.5263L67.5519 10.5263C70.8994 10.5263 73.1209 8.81238 73.9779 5.91981L79.0695-10.9884ZM30.009-38.6397C37.6663-38.6397 43.9063-44.9324 43.9063-52.5898C43.9063-60.222 37.6663-66.5148 30.009-66.5148C22.3767-66.5148 16.084-60.222 16.084-52.5898C16.084-44.9324 22.3767-38.6397 30.009-38.6397Z"/>
  </g>
  <g id="Light-L" transform="matrix(1 0 0 1 1075.8 1556)">
   <path d="M112.823-78.8112C120.076-78.8112 125.895-84.6296 125.895-91.9498C125.895-99.1223 120.076-104.974 112.823-104.974C105.584-104.974 99.7315-99.1223 99.7315-91.9498C99.7315-84.6296 105.584-78.8112 112.823-78.8112ZM66.1696-27.3006L96.9168-3.85308L87.3448 25.6541C85.9907 29.9239 88.6184 32.9537 91.8091 33.7112C94.6781 34.3545 97.9959 33.1482 99.2696 29.1664L109.954-3.9335C110.712-6.31997 110.276-8.96077 108.634-10.5561L87.9414-31.202L111.664-54.9711C112.696-56.0503 114.258-56.0035 115.337-54.9711L123.589-46.8804L112.307-35.6326C109.794-33.119 109.874-29.1709 112.307-26.7376C114.58-24.4653 118.689-24.224 121.155-26.7376L136.787-42.416C139.22-44.9297 139.187-48.7039 136.787-51.2175L121.672-66.4938C118.045-70.0866 113.661-71.8765 108.473-71.8765L35.9387-71.8765C32.5535-71.8765 29.6845-69.0879 29.6845-65.656C29.6845-62.224 32.5535-59.355 35.9387-59.355L77.6119-59.355C79.7235-59.355 80.7222-57.1631 79.2073-55.6482L67.1347-43.6093C61.7053-38.1462 62.4628-30.0891 66.1696-27.3006ZM64.4265-21.8149L61.3032-3.01521L32.359-3.01521C28.7662-3.01521 25.9777-0.179894 25.9777 3.28571C25.9777 6.71764 28.7662 9.55295 32.359 9.55295L66.3305 9.55295C69.6016 9.55295 71.7468 7.8772 72.5847 5.04189L77.6381-11.7136ZM29.6845-38.4679C37.1319-38.4679 43.2383-44.608 43.2383-52.0554C43.2383-59.5159 37.1319-65.656 29.6845-65.656C22.2241-65.656 16.084-59.5159 16.084-52.0554C16.084-44.608 22.2241-38.4679 29.6845-38.4679Z"/>
  </g>
  <g id="Thin-L" transform="matrix(1 0 0 1 781.086 1556)">
   <path d="M109.693-77.7005C116.694-77.7005 122.31-83.317 122.31-90.3343C122.31-97.2544 116.694-102.879 109.693-102.879C102.756-102.879 97.1316-97.2544 97.1316-90.3343C97.1316-83.317 102.756-77.7005 109.693-77.7005ZM64.5542-27.4268L94.3169-4.73655L85.0478 23.8114C83.7442 27.955 86.2709 30.8839 89.3606 31.6161C92.1287 32.2595 95.3708 31.0532 96.5939 27.2228L106.925-4.81697C107.658-7.10247 107.247-9.69278 105.63-11.2376L85.6191-31.1767L108.559-54.1886C109.541-55.2425 111.077-55.1706 112.131-54.1886L120.105-46.3755L109.202-35.4812C106.765-33.0433 106.845-29.2213 109.202-26.8638C111.399-24.6672 115.382-24.4259 117.748-26.8638L132.875-42.0627C135.232-44.5006 135.224-48.0981 132.875-50.536L118.239-65.3327C114.738-68.8245 110.506-70.5386 105.469-70.5386L35.2824-70.5386C32.0234-70.5386 29.2554-67.851 29.2554-64.5201C29.2554-61.1891 32.0234-58.4211 35.2824-58.4211L75.6178-58.4211C77.6536-58.4211 78.6271-56.3049 77.1627-54.8404L65.5192-43.2054C60.2413-37.9191 60.9735-30.1144 64.5542-27.4268ZM62.912-22.4964L59.8392-3.92391L31.8542-3.92391C28.3624-3.92391 25.6748-1.16432 25.6748 2.17507C25.6748 5.50603 28.3624 8.26562 31.8542 8.26562L64.715 8.26562C67.8851 8.26562 69.9294 6.64035 70.742 3.88076L75.7449-12.6728ZM29.2554-38.2407C36.4252-38.2407 42.3549-44.1789 42.3549-51.3486C42.3549-58.5819 36.4252-64.5201 29.2554-64.5201C22.0221-64.5201 16.084-58.5819 16.084-51.3486C16.084-44.1789 22.0221-38.2407 29.2554-38.2407Z"/>
  </g>
  <g id="Ultralight-L" transform="matrix(1 0 0 1 485.396 1556)">
   <path d="M108.09-77.1316C114.961-77.1316 120.474-82.6447 120.474-89.5069C120.474-96.2977 114.961-101.806 108.09-101.806C101.308-101.806 95.7999-96.2977 95.7999-89.5069C95.7999-82.6447 101.308-77.1316 108.09-77.1316ZM63.7267-27.4914L92.9852-5.18905L83.8713 22.8676C82.5935 26.9466 85.0686 29.8237 88.1066 30.543C90.8229 31.1864 94.0262 29.9801 95.2235 26.2273L105.374-5.26947C106.093-7.50326 105.696-10.0677 104.092-11.5867L84.4297-31.1638L106.969-53.7879C107.925-54.8288 109.448-54.7439 110.489-53.7879L118.321-46.117L107.612-35.4036C105.213-33.0045 105.294-29.2472 107.612-26.9285C109.77-24.7706 113.688-24.5294 116.002-26.9285L130.871-41.8817C133.189-44.2808 133.194-47.7878 130.871-50.1869L116.48-64.738C113.045-68.1781 108.89-69.8534 103.931-69.8534L34.9463-69.8534C31.7519-69.8534 29.0356-67.2175 29.0356-63.9383C29.0356-60.659 31.7519-57.9427 34.9463-57.9427L74.5965-57.9427C76.5935-57.9427 77.554-55.8653 76.1154-54.4267L64.6918-42.9986C59.4914-37.8027 60.2107-30.1273 63.7267-27.4914ZM62.1363-22.8455L59.0893-4.38935L31.5956-4.38935C28.1555-4.38935 25.5196-1.66855 25.5196 1.60621C25.5196 4.88545 28.1555 7.60625 31.5956 7.60625L63.8876 7.60625C67.006 7.60625 68.9985 6.00684 69.7982 3.28604L74.7753-13.1641ZM29.0356-38.1244C36.0632-38.1244 41.9024-43.9591 41.9024-50.9866C41.9024-58.1036 36.0632-63.9383 29.0356-63.9383C21.9187-63.9383 16.084-58.1036 16.084-50.9866C16.084-43.9591 21.9187-38.1244 29.0356-38.1244Z"/>
  </g>
  <g id="Black-M" transform="matrix(1 0 0 1 2867.38 1126)">
   <path d="M93.5332-72.0273C100.317-72.0273 105.859-77.5692 105.859-84.3637C105.859-91.1419 100.317-96.6893 93.5332-96.6893C86.744-96.6893 81.1965-91.1419 81.1965-84.3637C81.1965-77.5692 86.744-72.0273 93.5332-72.0273ZM55.7127-26.8487L81.4139-7.24546L73.4459 17.2302C72.0384 21.6342 74.9054 24.7556 78.0943 25.5502C81.0339 26.2199 84.5132 24.9999 85.8585 20.8967L94.99-7.36487C95.7846-9.81652 95.3534-12.4493 93.5879-14.215L76.6853-31.118L96.1954-50.6278C96.6115-51.0436 97.2869-51.0439 97.7027-50.6278L103.926-44.472L95.1523-35.6466C92.5815-33.0187 92.5867-28.9781 95.1523-26.5267C97.479-24.1429 101.644-23.8989 104.272-26.5267L117.627-39.8808C120.249-42.5086 120.13-46.4304 117.627-49.0012L104.709-62.1007C101.488-65.3728 97.3591-67.0402 92.6069-67.0402L30.5621-67.0402C27.0147-67.0402 24.0751-64.1629 24.0751-60.5587C24.0751-57.0116 27.0147-54.0719 30.5621-54.0719L66.2098-54.0719C67.2129-54.0719 67.4522-53.5203 66.7765-52.8446L56.4604-42.4769C51.407-37.3609 51.9732-29.669 55.7127-26.8487ZM53.4169-20.8822L51.2667-8.10143L27.4556-8.10143C23.7839-8.10143 20.9065-5.16725 20.9065-1.61466C20.9065 1.98953 23.7839 4.92371 27.4556 4.92371L56.5225 4.92371C59.8879 4.92371 62.0955 3.15277 63.0095 0.218587L66.4266-10.9991ZM25.217-36.1827C32.2447-36.1827 37.9733-41.9168 37.9733-48.9445C37.9733-55.9665 32.2447-61.7006 25.217-61.7006C18.195-61.7006 12.4609-55.9665 12.4609-48.9445C12.4609-41.9168 18.195-36.1827 25.217-36.1827Z"/>
  </g>
  <g id="Heavy-M" transform="matrix(1 0 0 1 2571.63 1126)">
   <path d="M92.8389-71.5779C99.4081-71.5779 104.754-76.9242 104.754-83.5263C104.754-90.0768 99.4081-95.4396 92.8389-95.4396C86.2555-95.4396 80.8928-90.0768 80.8928-83.5263C80.8928-76.9242 86.2555-71.5779 92.8389-71.5779ZM55.0505-27.3466L80.5442-7.90089L72.6339 16.4237C71.2988 20.5994 73.9938 23.5623 77.0378 24.3139C79.8325 24.9432 83.1154 23.7905 84.3882 19.8913L93.403-8.00682C94.1547-10.3404 93.7395-12.8469 92.0844-14.4997L75.2239-31.3579L94.6547-50.7911C95.1735-51.3121 95.9811-51.3098 96.5021-50.7911L102.832-44.5421L93.9754-35.6582C91.5336-33.1727 91.5522-29.3336 93.9754-26.9977C96.1867-24.7428 100.15-24.5122 102.634-26.9977L115.816-40.1818C118.282-42.6673 118.179-46.396 115.816-48.8378L103.068-61.7541C99.9138-64.935 95.9211-66.5544 91.3055-66.5544L30.0779-66.5544C26.7185-66.5544 23.9238-63.822 23.9238-60.4167C23.9238-57.055 26.7185-54.2603 30.0779-54.2603L65.2532-54.2603C66.4238-54.2603 66.7953-53.4199 65.99-52.6146L55.7982-42.3956C50.9083-37.4457 51.4855-30.0353 55.0505-27.3466ZM52.9536-21.652L50.7277-8.3956L27.0137-8.3956C23.5274-8.3956 20.795-5.61731 20.795-2.2392C20.795 1.16612 23.5274 3.94441 27.0137 3.94441L55.6986 3.94441C58.892 3.94441 60.9951 2.2729 61.8527-0.505391L65.3994-12.1877ZM24.7962-36.6044C31.5937-36.6044 37.1292-42.1563 37.1292-48.9538C37.1292-55.7371 31.5937-61.2891 24.7962-61.2891C18.0129-61.2891 12.4609-55.7371 12.4609-48.9538C12.4609-42.1563 18.0129-36.6044 24.7962-36.6044Z"/>
  </g>
  <g id="Bold-M" transform="matrix(1 0 0 1 2276 1126)">
   <path d="M92.0621-71.0752C98.3917-71.0752 103.519-76.2027 103.519-82.5896C103.519-88.8854 98.3917-94.0415 92.0621-94.0415C85.7091-94.0415 80.5529-88.8854 80.5529-82.5896C80.5529-76.2027 85.7091-71.0752 92.0621-71.0752ZM54.3097-27.9035L79.5713-8.63408L71.7254 15.5215C70.4715 19.4417 72.9742 22.2274 75.8559 22.9309C78.4884 23.515 81.5518 22.4377 82.7435 18.7667L91.6278-8.72494C92.3314-10.9265 91.9341-13.2916 90.4025-14.8181L73.589-31.6264L92.9312-50.9738C93.5649-51.6125 94.5203-51.6074 95.1591-50.9738L101.608-44.6206L92.6589-35.6712C90.3613-33.345 90.3951-29.7312 92.6589-27.5245C94.741-25.4138 98.4795-25.1983 100.8-27.5245L113.789-40.5186C116.082-42.8448 115.996-46.3575 113.789-48.6551L101.231-61.3662C98.1523-64.4453 94.3125-66.0109 89.8497-66.0109L29.5363-66.0109C26.3871-66.0109 23.7546-63.4407 23.7546-60.2578C23.7546-57.1035 26.3871-54.471 29.5363-54.471L64.1832-54.471C65.5412-54.471 66.0605-53.3076 65.1102-52.3573L55.0574-42.3046C50.3505-37.5405 50.9399-30.4452 54.3097-27.9035ZM52.4353-22.513L50.1247-8.72467L26.5194-8.72467C23.2404-8.72467 20.6702-6.12077 20.6702-2.93784C20.6702 0.245007 23.2404 2.84891 26.5194 2.84891L54.7769 2.84891C57.7781 2.84891 59.7642 1.28864 60.5586-1.31527L64.2504-13.5174ZM24.3255-37.0761C30.8655-37.0761 36.185-42.4242 36.185-48.9642C36.185-55.4806 30.8655-60.8288 24.3255-60.8288C17.8091-60.8288 12.4609-55.4806 12.4609-48.9642C12.4609-42.4242 17.8091-37.0761 24.3255-37.0761Z"/>
  </g>
  <g id="Semibold-M" transform="matrix(1 0 0 1 1980.03 1126)">
   <path d="M91.5267-70.7287C97.6911-70.7287 102.668-75.7053 102.668-81.9438C102.668-88.064 97.6911-93.0777 91.5267-93.0777C85.3324-93.0777 80.3187-88.064 80.3187-81.9438C80.3187-75.7053 85.3324-70.7287 91.5267-70.7287ZM53.7991-28.2875L78.9006-9.13954L71.0991 14.8996C69.9011 18.6436 72.2712 21.3071 75.0412 21.9775C77.5619 22.5304 80.4739 21.5051 81.6096 17.9914L90.404-9.22C91.0744-11.3306 90.6896-13.5981 89.243-15.0376L72.462-31.8115L91.7431-51.0997C92.4559-51.8196 93.5133-51.8125 94.2332-51.0997L100.765-44.6747L91.7513-35.6801C89.5531-33.4638 89.5973-30.0053 91.7513-27.8876C93.7444-25.8764 97.3275-25.6713 99.5367-27.8876L112.393-40.7508C114.565-42.9671 114.492-46.3309 112.393-48.5291L99.9657-61.0989C96.938-64.1077 93.2035-65.6362 88.846-65.6362L29.1629-65.6362C26.1587-65.6362 23.6379-63.1778 23.6379-60.1483C23.6379-57.137 26.1587-54.6162 29.1629-54.6162L63.4455-54.6162C64.9326-54.6162 65.5539-53.2302 64.5036-52.1799L54.5467-42.2419C49.966-37.6059 50.5638-30.7277 53.7991-28.2875ZM52.078-23.1066L49.7089-8.95153L26.1786-8.95153C23.0426-8.95153 20.5842-6.46785 20.5842-3.41948C20.5842-0.389999 23.0426 2.09368 26.1786 2.09368L54.1415 2.09368C57.0101 2.09368 58.9156 0.610092 59.6665-1.87359L63.4582-14.434ZM24.0011-37.4012C30.3634-37.4012 35.5341-42.6089 35.5341-48.9713C35.5341-55.3037 30.3634-60.5114 24.0011-60.5114C17.6687-60.5114 12.4609-55.3037 12.4609-48.9713C12.4609-42.6089 17.6687-37.4012 24.0011-37.4012Z"/>
  </g>
  <g id="Medium-M" transform="matrix(1 0 0 1 1683.88 1126)">
   <path d="M91.1207-70.4659C97.1598-70.4659 102.022-75.3282 102.022-81.4541C102.022-87.4412 97.1598-92.3469 91.1207-92.3469C85.0467-92.3469 80.141-87.4412 80.141-81.4541C80.141-75.3282 85.0467-70.4659 91.1207-70.4659ZM53.4118-28.5786L78.392-9.5228L70.6243 14.428C69.4686 18.0385 71.7382 20.6093 74.4234 21.2546C76.8593 21.7839 79.6565 20.7979 80.7499 17.4035L89.4761-9.59538C90.1214-11.6369 89.7458-13.8306 88.3638-15.204L71.6074-31.9518L90.8422-51.1952C91.615-51.9766 92.7497-51.968 93.5312-51.1952L100.125-44.7157L91.0631-35.6869C88.9404-33.5539 88.9924-30.2132 91.0631-28.163C92.9887-26.2272 96.454-26.03 98.5784-28.163L111.334-40.9269C113.415-43.0599 113.351-46.3108 111.334-48.4336L99.006-60.8962C96.0172-63.8517 92.3627-65.3521 88.0851-65.3521L28.8797-65.3521C25.9854-65.3521 23.5495-62.9784 23.5495-60.0653C23.5495-57.1623 25.9854-54.7264 28.8797-54.7264L62.8861-54.7264C64.4712-54.7264 65.1698-53.1715 64.0437-52.0453L54.1595-42.1943C49.6744-37.6555 50.2786-30.942 53.4118-28.5786ZM51.807-23.5567L49.3937-9.12354L25.9202-9.12354C22.8926-9.12354 20.519-6.73102 20.519-3.78468C20.519-0.871488 22.8926 1.52103 25.9202 1.52103L53.6598 1.52103C56.4278 1.52103 58.2722 0.095591 58.99-2.29693L62.8576-15.129ZM23.755-37.6478C29.9827-37.6478 35.0405-42.749 35.0405-48.9767C35.0405-55.1696 29.9827-60.2708 23.755-60.2708C17.5621-60.2708 12.4609-55.1696 12.4609-48.9767C12.4609-42.749 17.5621-37.6478 23.755-37.6478Z"/>
  </g>
  <g id="Regular-M" transform="matrix(1 0 0 1 1387.91 1126)">
   <path d="M90.5911-70.1232C96.4668-70.1232 101.18-74.8362 101.18-80.8155C101.18-86.6289 96.4668-91.3937 90.5911-91.3937C84.6741-91.3937 79.9093-86.6289 79.9093-80.8155C79.9093-74.8362 84.6741-70.1232 90.5911-70.1232ZM52.9068-28.9583L77.7287-10.0227L70.0049 13.8129C68.9045 17.2492 71.043 19.6992 73.6176 20.3117C75.9429 20.8101 78.5904 19.8755 79.6285 16.6367L88.2657-10.085C88.8782-12.0366 88.5149-14.1338 87.2171-15.4211L70.4928-32.1349L89.6671-51.3197C90.5182-52.1814 91.7538-52.1709 92.6155-51.3197L99.2906-44.7692L90.1655-35.6958C88.1411-33.6714 88.2034-30.4843 90.1655-28.5222C92.003-26.6847 95.3147-26.4978 97.3285-28.5222L109.952-41.1565C111.914-43.1809 111.863-46.2846 109.952-48.309L97.7541-60.6317C94.8163-63.5179 91.2659-64.9815 87.0925-64.9815L28.5104-64.9815C25.7595-64.9815 23.4341-62.7184 23.4341-59.9569C23.4341-57.1954 25.7595-54.8701 28.5104-54.8701L62.1565-54.8701C63.8694-54.8701 64.6688-53.0949 63.4438-51.8699L53.6544-42.1323C49.2941-37.7202 49.9066-31.2214 52.9068-28.9583ZM51.4537-24.1438L48.9826-9.3479L25.5831-9.3479C22.697-9.3479 20.4339-7.07428 20.4339-4.26102C20.4339-1.49952 22.697 0.774104 25.5831 0.774104L53.0314 0.774104C55.6683 0.774104 57.4329-0.575497 58.1077-2.84912L62.0741-16.0356ZM23.4341-37.9694C29.4862-37.9694 34.3967-42.9317 34.3967-48.9838C34.3967-54.9947 29.4862-59.9569 23.4341-59.9569C17.4232-59.9569 12.4609-54.9947 12.4609-48.9838C12.4609-42.9317 17.4232-37.9694 23.4341-37.9694Z"/>
  </g>
  <g id="Light-M" transform="matrix(1 0 0 1 1092.55 1126)">
   <path d="M88.4693-69.3703C94.174-69.3703 98.7501-73.9464 98.7501-79.7204C98.7501-85.3627 94.174-89.9735 88.4693-89.9735C82.7577-89.9735 78.1469-85.3627 78.1469-79.7204C78.1469-73.9464 82.7577-69.3703 88.4693-69.3703ZM51.8117-29.0439L75.9662-10.6216L68.4478 12.5638C67.3816 15.9145 69.4517 18.2961 71.9578 18.8915C74.2147 19.3899 76.8108 18.4553 77.8147 15.3191L86.2124-10.6839C86.8078-12.567 86.4616-14.63 85.1809-15.8831L68.9186-32.1177L87.5624-50.7893C88.3794-51.6339 89.5978-51.6062 90.4424-50.7893L96.9293-44.4269L88.0609-35.5931C86.0878-33.62 86.1501-30.5185 88.0609-28.6077C89.847-26.8216 93.0732-26.6347 95.0186-28.6077L107.3-40.9169C109.211-42.89 109.176-45.8739 107.3-47.847L95.427-59.8446C92.5747-62.6623 89.127-64.0746 85.0563-64.0746L28.0656-64.0746C25.4002-64.0746 23.1432-61.88 23.1432-59.1869C23.1432-56.4939 25.4002-54.237 28.0656-54.237L60.8047-54.237C62.4663-54.237 63.2486-52.5131 62.0578-51.3223L52.5593-41.8585C48.3017-37.5662 48.897-31.2385 51.8117-29.0439ZM50.427-24.6058L47.9901-9.9639L25.2409-9.9639C22.4232-9.9639 20.2286-7.74161 20.2286-5.0139C20.2286-2.32084 22.4232-0.0985538 25.2409-0.0985538L51.9363-0.0985538C54.5047-0.0985538 56.2009-1.41393 56.8586-3.63622L60.7908-16.6858ZM23.1432-37.8154C29.0071-37.8154 33.7978-42.6408 33.7978-48.5047C33.7978-54.3616 29.0071-59.1869 23.1432-59.1869C17.2863-59.1869 12.4609-54.3616 12.4609-48.5047C12.4609-42.6408 17.2863-37.8154 23.1432-37.8154Z"/>
  </g>
  <g id="Thin-M" transform="matrix(1 0 0 1 797.623 1126)">
   <path d="M85.6631-68.3745C91.1415-68.3745 95.5366-72.7696 95.5366-78.272C95.5366-83.688 91.1415-88.0952 85.6631-88.0952C80.2231-88.0952 75.816-83.688 75.816-78.272C75.816-72.7696 80.2231-68.3745 85.6631-68.3745ZM50.3633-29.157L73.6353-11.4137L66.3884 10.9117C65.3675 14.1493 67.347 16.4404 69.7626 17.0131C71.929 17.5116 74.4573 16.577 75.4159 13.5766L83.4967-11.476C84.0695-13.2685 83.7459-15.2863 82.4878-16.4941L66.8366-32.0951L84.7789-50.0877C85.5505-50.9097 86.7463-50.8594 87.5683-50.0877L93.8063-43.9743L85.2773-35.4573C83.3721-33.5521 83.4344-30.5638 85.2773-28.7209C86.9956-27.0026 90.1085-26.8157 91.9634-28.7209L103.792-40.6001C105.635-42.5053 105.623-45.3308 103.792-47.2359L92.3493-58.8036C89.6101-61.5308 86.2982-62.8752 82.3632-62.8752L27.4772-62.8752C24.9249-62.8752 22.7585-60.7711 22.7585-58.1686C22.7585-55.566 24.9249-53.3996 27.4772-53.3996L59.0169-53.3996C60.6106-53.3996 61.3702-51.7437 60.2247-50.5982L51.111-41.4964C46.9891-37.3625 47.5618-31.2611 50.3633-29.157ZM49.0692-25.2168L46.6776-10.7786L24.7883-10.7786C22.0611-10.7786 19.957-8.6242 19.957-6.00965C19.957-3.40711 22.0611-1.25271 24.7883-1.25271L50.4879-1.25271C52.9658-1.25271 54.5715-2.52283 55.2066-4.67723L59.0935-17.5458ZM22.7585-37.6117C28.3734-37.6117 33.0058-42.2561 33.0058-47.871C33.0058-53.5242 28.3734-58.1686 22.7585-58.1686C17.1053-58.1686 12.4609-53.5242 12.4609-47.871C12.4609-42.2561 17.1053-37.6117 22.7585-37.6117Z"/>
  </g>
  <g id="Ultralight-M" transform="matrix(1 0 0 1 501.828 1126)">
   <path d="M84.2258-67.8645C89.5882-67.8645 93.8906-72.1669 93.8906-77.5302C93.8906-82.8303 89.5882-87.1331 84.2258-87.1331C78.9249-87.1331 74.6221-82.8303 74.6221-77.5302C74.6221-72.1669 78.9249-67.8645 84.2258-67.8645ZM49.6215-29.215L72.4414-11.8194L65.3336 10.0656C64.3359 13.2452 66.269 15.4899 68.6383 16.051C70.7583 16.5495 73.2518 15.6149 74.1872 12.6841L82.1058-11.8817C82.6669-13.6279 82.355-15.6225 81.1085-16.8071L65.7702-32.0835L83.3531-49.7284C84.1016-50.5388 85.2858-50.4769 86.0962-49.7284L92.2067-43.7425L83.8516-35.3878C81.9812-33.5174 82.0435-30.587 83.8516-28.7789C85.5351-27.0954 88.5901-26.9084 90.3986-28.7789L101.996-40.4378C103.804-42.3082 103.803-45.0526 101.996-46.923L90.7729-58.2704C88.0917-60.9512 84.8493-62.2609 80.9839-62.2609L27.1758-62.2609C24.6815-62.2609 22.5615-60.2031 22.5615-57.647C22.5615-55.0908 24.6815-52.9707 27.1758-52.9707L58.1012-52.9707C59.6601-52.9707 60.4082-51.3496 59.2858-50.2272L50.3691-41.3109C46.3168-37.2582 46.878-31.2727 49.6215-29.215ZM48.3737-25.5298L46.0053-11.1959L24.5565-11.1959C21.8757-11.1959 19.8179-9.07626 19.8179-6.51967C19.8179-3.96349 21.8757-1.84387 24.5565-1.84387L49.7461-1.84387C52.1776-1.84387 53.7369-3.0908 54.3604-5.21043L58.2241-17.9863ZM22.5615-37.5074C28.0489-37.5074 32.6001-42.059 32.6001-47.5465C32.6001-53.0954 28.0489-57.647 22.5615-57.647C17.0125-57.647 12.4609-53.0954 12.4609-47.5465C12.4609-42.059 17.0125-37.5074 22.5615-37.5074Z"/>
  </g>
  <g id="Black-S" transform="matrix(1 0 0 1 2881.45 696)">
   <path d="M73.3887-64.1602C78.7598-64.1602 83.1543-68.5547 83.1543-73.9258C83.1543-79.2969 78.7598-83.6914 73.3887-83.6914C68.0176-83.6914 63.623-79.2969 63.623-73.9258C63.623-68.5547 68.0176-64.1602 73.3887-64.1602ZM43.7988-28.5156L63.9648-13.1348L57.7148 6.05469C56.5918 9.57031 58.8867 12.0605 61.4258 12.6953C63.7695 13.2324 66.5527 12.2559 67.627 8.98438L74.8047-13.2324C75.4395-15.1855 75.0977-17.2852 73.6816-18.7012L60.4492-31.9336L75.7324-47.2168C76.0254-47.5098 76.5137-47.5098 76.8066-47.2168L81.6406-42.4316L74.8047-35.5469C72.7539-33.4473 72.7539-30.2246 74.8047-28.2715C76.6602-26.3672 79.9805-26.1719 82.0801-28.2715L92.5781-38.7695C94.6777-40.8691 94.5801-43.9941 92.5781-46.0449L82.4219-56.3477C79.8828-58.9355 76.6113-60.2539 72.8516-60.2539L24.0723-60.2539C21.2402-60.2539 18.8965-57.959 18.8965-55.0781C18.8965-52.2461 21.2402-49.9023 24.0723-49.9023L52.0996-49.9023C52.832-49.9023 52.9785-49.5605 52.4902-49.0723L44.3848-40.918C40.3809-36.8652 40.8203-30.7617 43.7988-28.5156ZM41.9434-23.7793L40.2832-13.916L21.6309-13.916C18.7012-13.916 16.4062-11.5723 16.4062-8.74023C16.4062-5.85938 18.7012-3.51562 21.6309-3.51562L44.4824-3.51562C47.168-3.51562 48.9258-4.93164 49.6582-7.27539L52.2949-15.918ZM19.873-35.8398C25.4395-35.8398 29.9805-40.3809 29.9805-45.9473C29.9805-51.5137 25.4395-56.0547 19.873-56.0547C14.3066-56.0547 9.76562-51.5137 9.76562-45.9473C9.76562-40.3809 14.3066-35.8398 19.873-35.8398Z"/>
  </g>
  <g id="Heavy-S" transform="matrix(1 0 0 1 2585.39 696)">
   <path d="M73.066-63.872C78.2757-63.872 82.5205-68.1168 82.5205-73.3496C82.5205-78.5478 78.2757-82.804 73.066-82.804C67.8447-82.804 63.5885-78.5478 63.5885-73.3496C63.5885-68.1168 67.8447-63.872 73.066-63.872ZM43.3724-28.9305L63.4462-13.6188L57.2193 5.52456C56.1539 8.8558 58.3105 11.2193 60.7343 11.8195C62.9628 12.322 65.5847 11.403 66.6013 8.29291L73.7099-13.7049C74.3101-15.5659 73.9798-17.5617 72.656-18.8856L59.4005-32.141L74.6837-47.4242C75.0689-47.8094 75.6724-47.8094 76.0576-47.4242L81.0068-42.5354L74.0671-35.5699C72.1201-33.5856 72.1316-30.5242 74.0671-28.6633C75.8304-26.8627 78.9894-26.679 80.9737-28.6633L91.3681-39.0576C93.3409-41.042 93.2548-44.0172 91.3681-45.9643L81.3155-56.1517C78.8226-58.6705 75.6548-59.9543 71.9988-59.9543L23.715-59.9543C21.0328-59.9543 18.8043-57.7746 18.8043-55.0551C18.8043-52.3729 21.0328-50.1444 23.715-50.1444L51.4542-50.1444C52.3365-50.1444 52.5982-49.549 51.9947-48.9455L43.9584-40.8834C40.0812-36.9574 40.5322-31.0729 43.3724-28.9305ZM41.6783-24.3786L39.949-14.0889L21.2966-14.0889C18.5168-14.0889 16.3371-11.8719 16.3371-9.17816C16.3371-6.45865 18.5168-4.24167 21.2966-4.24167L43.9177-4.24167C46.465-4.24167 48.1421-5.57701 48.8284-7.79399L51.5804-16.8515ZM19.5504-36.2202C24.9439-36.2202 29.3351-40.6229 29.3351-46.0164C29.3351-51.3984 24.9439-55.8011 19.5504-55.8011C14.1683-55.8011 9.76562-51.3984 9.76562-46.0164C9.76562-40.6229 14.1683-36.2202 19.5504-36.2202Z"/>
  </g>
  <g id="Bold-S" transform="matrix(1 0 0 1 2289.4 696)">
   <path d="M72.7051-63.5498C77.7344-63.5498 81.8115-67.627 81.8115-72.7051C81.8115-77.71 77.7344-81.8115 72.7051-81.8115C67.6514-81.8115 63.5498-77.71 63.5498-72.7051C63.5498-67.627 67.6514-63.5498 72.7051-63.5498ZM42.8955-29.3945L62.8662-14.1602L56.665 4.93164C55.6641 8.05664 57.666 10.2783 59.9609 10.8398C62.0605 11.3037 64.502 10.4492 65.4541 7.51953L72.4854-14.2334C73.0469-15.9912 72.7295-17.8711 71.5088-19.0918L58.2275-32.373L73.5107-47.6562C73.999-48.1445 74.7314-48.1445 75.2197-47.6562L80.2979-42.6514L73.2422-35.5957C71.4111-33.7402 71.4355-30.8594 73.2422-29.1016C74.9023-27.417 77.8809-27.2461 79.7363-29.1016L90.0146-39.3799C91.8457-41.2354 91.7725-44.043 90.0146-45.874L80.0781-55.9326C77.6367-58.374 74.585-59.6191 71.0449-59.6191L23.3154-59.6191C20.8008-59.6191 18.7012-57.5684 18.7012-55.0293C18.7012-52.5146 20.8008-50.415 23.3154-50.415L50.7324-50.415C51.7822-50.415 52.1729-49.5361 51.4404-48.8037L43.4814-40.8447C39.7461-37.0605 40.21-31.4209 42.8955-29.3945ZM41.3818-25.0488L39.5752-14.2822L20.9229-14.2822C18.3105-14.2822 16.2598-12.207 16.2598-9.66797C16.2598-7.12891 18.3105-5.05371 20.9229-5.05371L43.2861-5.05371C45.6787-5.05371 47.2656-6.29883 47.9004-8.37402L50.7812-17.8955ZM19.1895-36.6455C24.3896-36.6455 28.6133-40.8936 28.6133-46.0938C28.6133-51.2695 24.3896-55.5176 19.1895-55.5176C14.0137-55.5176 9.76562-51.2695 9.76562-46.0938C9.76562-40.8936 14.0137-36.6455 19.1895-36.6455Z"/>
  </g>
  <g id="Semibold-S" transform="matrix(1 0 0 1 1993.2 696)">
   <path d="M72.4562-63.3276C77.3611-63.3276 81.3228-67.2893 81.3228-72.2607C81.3228-77.1323 77.3611-81.1272 72.4562-81.1272C67.5181-81.1272 63.5231-77.1323 63.5231-72.2607C63.5231-67.2893 67.5181-63.3276 72.4562-63.3276ZM42.5667-29.7145L62.4663-14.5334L56.2829 4.52285C55.3264 7.50566 57.2217 9.62959 59.4277 10.1645C61.4385 10.6017 63.7555 9.7916 64.6632 6.98633L71.6411-14.5978C72.176-16.2845 71.8675-18.0844 70.7179-19.234L57.4188-32.533L72.7021-47.8162C73.2614-48.3756 74.0827-48.3756 74.6421-47.8162L79.8091-42.7313L72.6734-35.6135C70.9224-33.8469 70.9557-31.0904 72.6734-29.4037C74.2625-27.7991 77.1166-27.6371 78.8832-29.4037L89.0815-39.6021C90.8148-41.3687 90.7505-44.0607 89.0815-45.8118L79.225-55.7815C76.8191-58.1696 73.8474-59.3881 70.3873-59.3881L23.0399-59.3881C20.6408-59.3881 18.6301-57.4262 18.6301-55.0115C18.6301-52.6124 20.6408-50.6017 23.0399-50.6017L50.2348-50.6017C51.4001-50.6017 51.8796-49.5272 51.0583-48.706L43.1526-40.8181C39.515-37.1316 39.9878-31.6608 42.5667-29.7145ZM41.1774-25.5109L39.3175-14.4155L20.6651-14.4155C18.1684-14.4155 16.2064-12.4381 16.2064-10.0057C16.2064-7.59102 18.1684-5.61357 20.6651-5.61357L42.8507-5.61357C45.1366-5.61357 46.6613-6.79648 47.2605-8.77393L50.2303-18.6153ZM18.9406-36.9388C24.0075-36.9388 28.1156-41.0802 28.1156-46.1471C28.1156-51.1807 24.0075-55.3221 18.9406-55.3221C13.907-55.3221 9.76562-51.1807 9.76562-46.1471C9.76562-41.0802 13.907-36.9388 18.9406-36.9388Z"/>
  </g>
  <g id="Medium-S" transform="matrix(1 0 0 1 1696.86 696)">
   <path d="M72.2676-63.1592C77.0781-63.1592 80.9521-67.0332 80.9521-71.9238C80.9521-76.6943 77.0781-80.6084 72.2676-80.6084C67.417-80.6084 63.5029-76.6943 63.5029-71.9238C63.5029-67.0332 67.417-63.1592 72.2676-63.1592ZM42.3174-29.957L62.1631-14.8164L55.9932 4.21289C55.0703 7.08789 56.8848 9.1377 59.0234 9.65234C60.9668 10.0693 63.1895 9.29297 64.0635 6.58203L71.001-14.874C71.5156-16.5068 71.2139-18.2461 70.1182-19.3418L56.8057-32.6543L72.0889-47.9375C72.7021-48.5508 73.5908-48.5508 74.2041-47.9375L79.4385-42.792L72.2422-35.627C70.5518-33.9277 70.5918-31.2656 72.2422-29.6328C73.7773-28.0889 76.5371-27.9336 78.2363-29.6328L88.374-39.7705C90.0332-41.4697 89.9756-44.0742 88.374-45.7646L78.5781-55.667C76.1992-58.0146 73.2881-59.2129 69.8887-59.2129L22.8311-59.2129C20.5195-59.2129 18.5762-57.3184 18.5762-54.998C18.5762-52.6865 20.5195-50.7432 22.8311-50.7432L49.8574-50.7432C51.1104-50.7432 51.6572-49.5205 50.7686-48.6318L42.9033-40.7979C39.3398-37.1855 39.8193-31.8428 42.3174-29.957ZM41.0225-25.8613L39.1221-14.5166L20.4697-14.5166C18.0605-14.5166 16.166-12.6133 16.166-10.2617C16.166-7.94141 18.0605-6.03809 20.4697-6.03809L42.5205-6.03809C44.7256-6.03809 46.2031-7.17383 46.7754-9.07715L49.8125-19.1611ZM18.752-37.1611C23.7178-37.1611 27.7383-41.2217 27.7383-46.1875C27.7383-51.1133 23.7178-55.1738 18.752-55.1738C13.8262-55.1738 9.76562-51.1133 9.76562-46.1875C9.76562-41.2217 13.8262-37.1611 18.752-37.1611Z"/>
  </g>
  <g id="Regular-S" transform="matrix(1 0 0 1 1400.65 696)">
   <path d="M72.0215-62.9395C76.709-62.9395 80.4688-66.6992 80.4688-71.4844C80.4688-76.123 76.709-79.9316 72.0215-79.9316C67.2852-79.9316 63.4766-76.123 63.4766-71.4844C63.4766-66.6992 67.2852-62.9395 72.0215-62.9395ZM41.9922-30.2734L61.7676-15.1855L55.6152 3.80859C54.7363 6.54297 56.4453 8.49609 58.4961 8.98438C60.3516 9.375 62.4512 8.64258 63.2812 6.05469L70.166-15.2344C70.6543-16.7969 70.3613-18.457 69.3359-19.4824L56.0059-32.8125L71.2891-48.0957C71.9727-48.7793 72.9492-48.7793 73.6328-48.0957L78.9551-42.8711L71.6797-35.6445C70.0684-34.0332 70.1172-31.4941 71.6797-29.9316C73.1445-28.4668 75.7812-28.3203 77.3926-29.9316L87.4512-39.9902C89.0137-41.6016 88.9648-44.0918 87.4512-45.7031L77.7344-55.5176C75.3906-57.8125 72.5586-58.9844 69.2383-58.9844L22.5586-58.9844C20.3613-58.9844 18.5059-57.1777 18.5059-54.9805C18.5059-52.7832 20.3613-50.9277 22.5586-50.9277L49.3652-50.9277C50.7324-50.9277 51.3672-49.5117 50.3906-48.5352L42.5781-40.7715C39.1113-37.2559 39.5996-32.0801 41.9922-30.2734ZM40.8203-26.3184L38.8672-14.6484L20.2148-14.6484C17.9199-14.6484 16.1133-12.8418 16.1133-10.5957C16.1133-8.39844 17.9199-6.5918 20.2148-6.5918L42.0898-6.5918C44.1895-6.5918 45.6055-7.66602 46.1426-9.47266L49.2676-19.873ZM18.5059-37.4512C23.3398-37.4512 27.2461-41.4062 27.2461-46.2402C27.2461-51.0254 23.3398-54.9805 18.5059-54.9805C13.7207-54.9805 9.76562-51.0254 9.76562-46.2402C9.76562-41.4062 13.7207-37.4512 18.5059-37.4512Z"/>
  </g>
  <g id="Light-S" transform="matrix(1 0 0 1 1105.13 696)">
   <path d="M70.1445-62.2734C74.6807-62.2734 78.3194-65.9121 78.3194-70.5156C78.3194-75.0029 74.6807-78.6753 70.1445-78.6753C65.5899-78.6753 61.9175-75.0029 61.9175-70.5156C61.9175-65.9121 65.5899-62.2734 70.1445-62.2734ZM41.0234-30.3491L60.2085-15.7153L54.2378 2.70362C53.3892 5.36231 55.0376 7.25489 57.0278 7.72804C58.8228 8.11866 60.877 7.38624 61.6768 4.88917L68.3496-15.7642C68.8228-17.2661 68.5449-18.896 67.5347-19.8911L54.6133-32.7974L69.4273-47.6265C70.0806-48.2949 71.042-48.2798 71.7105-47.6265L76.8662-42.5684L69.8179-35.5537C68.252-33.9878 68.3008-31.5244 69.8179-30.0073C71.2373-28.5879 73.7984-28.4414 75.3491-30.0073L85.105-39.7783C86.6221-41.3442 86.5884-43.7285 85.105-45.2944L75.6758-54.8213C73.4077-57.0557 70.6665-58.1821 67.437-58.1821L22.165-58.1821C20.0435-58.1821 18.2485-56.436 18.2485-54.2993C18.2485-52.1626 20.0435-50.3677 22.165-50.3677L48.1694-50.3677C49.4912-50.3677 50.1108-48.9971 49.1646-48.0508L41.6094-40.5293C38.2334-37.1196 38.7066-32.0952 41.0234-30.3491ZM39.9121-26.727L37.9893-15.1934L19.9121-15.1934C17.6777-15.1934 15.9316-13.4321 15.9316-11.2617C15.9316-9.12499 17.6777-7.36376 19.9121-7.36376L41.1211-7.36376C43.1602-7.36376 44.5156-8.40771 45.0376-10.1689L48.1323-20.4482ZM18.2485-37.3149C22.916-37.3149 26.7163-41.1489 26.7163-45.8164C26.7163-50.4653 22.916-54.2993 18.2485-54.2993C13.5996-54.2993 9.76562-50.4653 9.76562-45.8164C9.76562-41.1489 13.5996-37.3149 18.2485-37.3149Z"/>
  </g>
  <g id="Thin-S" transform="matrix(1 0 0 1 810.005 696)">
   <path d="M67.6621-61.3926C71.9981-61.3926 75.4766-64.8711 75.4766-69.2344C75.4766-73.5215 71.9981-77.0137 67.6621-77.0137C63.3477-77.0137 59.8555-73.5215 59.8555-69.2344C59.8555-64.8711 63.3477-61.3926 67.6621-61.3926ZM39.7422-30.4492L58.1465-16.416L52.416 1.24221C51.6074 3.8008 53.1758 5.6133 55.086 6.06643C56.8008 6.45705 58.795 5.72463 59.5547 3.34768L65.9473-16.4648C66.4004-17.8867 66.1426-19.4766 65.1524-20.4316L52.7715-32.7773L66.9649-47.0059C67.5782-47.6543 68.5196-47.6191 69.168-47.0059L74.1036-42.168L67.3555-35.4336C65.8496-33.9277 65.8985-31.5645 67.3555-30.1074C68.7149-28.748 71.1758-28.6016 72.6465-30.1074L82.002-39.4981C83.459-41.0039 83.4454-43.2481 82.002-44.7539L72.9532-53.9004C70.7852-56.0547 68.1641-57.1211 65.0547-57.1211L21.6445-57.1211C19.6231-57.1211 17.9082-55.4551 17.9082-53.3984C17.9082-51.3418 19.6231-49.627 21.6445-49.627L46.5879-49.627C47.8496-49.627 48.4492-48.3164 47.543-47.4102L40.3281-40.209C37.0723-36.9395 37.5254-32.1152 39.7422-30.4492ZM38.711-27.2676L36.8281-15.9141L19.5117-15.9141C17.3574-15.9141 15.6914-14.2129 15.6914-12.1426C15.6914-10.0859 17.3574-8.38475 19.5117-8.38475L39.8399-8.38475C41.7988-8.38475 43.0742-9.38866 43.5762-11.0898L46.6309-21.209ZM17.9082-37.1348C22.3555-37.1348 26.0156-40.8086 26.0156-45.2559C26.0156-49.7246 22.3555-53.3984 17.9082-53.3984C13.4395-53.3984 9.76562-49.7246 9.76562-45.2559C9.76562-40.8086 13.4395-37.1348 17.9082-37.1348Z"/>
  </g>
  <g id="Ultralight-S" transform="matrix(1 0 0 1 514.104 696)">
   <path d="M66.3907-60.9414C70.6241-60.9414 74.0206-64.3379 74.0206-68.5781C74.0206-72.7627 70.6241-76.1626 66.3907-76.1626C62.1993-76.1626 58.7994-72.7627 58.7994-68.5781C58.7994-64.3379 62.1993-60.9414 66.3907-60.9414ZM39.086-30.5005L57.0904-16.7749L51.4829 0.493678C50.6949 3.001 52.2222 4.77249 54.0913 5.21536C55.7652 5.60599 57.7286 4.87356 58.4678 2.55813L64.7168-16.8237C65.1597-18.2046 64.9122-19.7739 63.9322-20.7085L51.8282-32.7671L65.7037-46.688C66.2964-47.3262 67.2276-47.2808 67.8658-46.688L72.6885-41.9629L66.0943-35.3721C64.6192-33.897 64.668-31.585 66.0943-30.1587C67.4229-28.8301 69.8326-28.6836 71.2623-30.1587L80.4127-39.3545C81.8389-40.8296 81.8355-43.002 80.4127-44.4771L71.5586-53.4287C69.4419-55.542 66.8824-56.5777 63.8345-56.5777L21.3779-56.5777C19.4077-56.5777 17.7339-54.9527 17.7339-52.937C17.7339-50.9214 19.4077-49.2476 21.3779-49.2476L45.7779-49.2476C47.0088-49.2476 47.5982-47.9678 46.7124-47.082L39.6719-40.0449C36.4776-36.8472 36.9204-32.1255 39.086-30.5005ZM38.0957-27.5444L36.2334-16.2832L19.3066-16.2832C17.1934-16.2832 15.5684-14.6128 15.5684-12.5937C15.5684-10.5781 17.1934-8.9077 19.3066-8.9077L39.1836-8.9077C41.1016-8.9077 42.336-9.8911 42.8277-11.5615L45.8618-21.5986ZM17.7339-37.0425C22.0684-37.0425 25.6568-40.6343 25.6568-44.9688C25.6568-49.3452 22.0684-52.937 17.7339-52.937C13.3574-52.937 9.76562-49.3452 9.76562-44.9688C9.76562-40.6343 13.3574-37.0425 17.7339-37.0425Z"/>
  </g>
 </g>
</svg>
