<?xml version="1.0" encoding="UTF-8"?>
<!--Generator: Apple Native CoreSVG 175.5-->
<!DOCTYPE svg
PUBLIC "-//W3C//DTD SVG 1.1//EN"
       "http://www.w3.org/Graphics/SVG/1.1/DTD/svg11.dtd">
<svg version="1.1" xmlns="http://www.w3.org/2000/svg" xmlns:xlink="http://www.w3.org/1999/xlink" width="3300" height="2200">
 <!--glyph: "uni101551.medium", point size: 100.0, font version: "18.0d12e2", template writer version: "101"-->
 <g id="Notes">
  <rect height="2200" id="artboard" style="fill:white;opacity:1" width="3300" x="0" y="0"/>
  <line style="fill:none;stroke:black;opacity:1;stroke-width:0.5;" x1="263" x2="3036" y1="292" y2="292"/>
  <text style="stroke:none;fill:black;font-family:sans-serif;font-size:13;font-weight:bold;" transform="matrix(1 0 0 1 263 322)">Weight/Scale Variations</text>
  <text style="stroke:none;fill:black;font-family:sans-serif;font-size:13;text-anchor:middle;" transform="matrix(1 0 0 1 559.711 322)">Ultralight</text>
  <text style="stroke:none;fill:black;font-family:sans-serif;font-size:13;text-anchor:middle;" transform="matrix(1 0 0 1 856.422 322)">Thin</text>
  <text style="stroke:none;fill:black;font-family:sans-serif;font-size:13;text-anchor:middle;" transform="matrix(1 0 0 1 1153.13 322)">Light</text>
  <text style="stroke:none;fill:black;font-family:sans-serif;font-size:13;text-anchor:middle;" transform="matrix(1 0 0 1 1449.84 322)">Regular</text>
  <text style="stroke:none;fill:black;font-family:sans-serif;font-size:13;text-anchor:middle;" transform="matrix(1 0 0 1 1746.56 322)">Medium</text>
  <text style="stroke:none;fill:black;font-family:sans-serif;font-size:13;text-anchor:middle;" transform="matrix(1 0 0 1 2043.27 322)">Semibold</text>
  <text style="stroke:none;fill:black;font-family:sans-serif;font-size:13;text-anchor:middle;" transform="matrix(1 0 0 1 2339.98 322)">Bold</text>
  <text style="stroke:none;fill:black;font-family:sans-serif;font-size:13;text-anchor:middle;" transform="matrix(1 0 0 1 2636.69 322)">Heavy</text>
  <text style="stroke:none;fill:black;font-family:sans-serif;font-size:13;text-anchor:middle;" transform="matrix(1 0 0 1 2933.4 322)">Black</text>
  <line style="fill:none;stroke:black;opacity:1;stroke-width:0.5;" x1="263" x2="3036" y1="1903" y2="1903"/>
  <g transform="matrix(1 0 0 1 263 1933)">
   <path d="M9.24805 0.830078C13.5547 0.830078 17.1387-2.74414 17.1387-7.05078C17.1387-11.3574 13.5449-14.9316 9.23828-14.9316C4.94141-14.9316 1.36719-11.3574 1.36719-7.05078C1.36719-2.74414 4.95117 0.830078 9.24805 0.830078ZM9.24805-0.654297C5.70312-0.654297 2.87109-3.49609 2.87109-7.05078C2.87109-10.6055 5.69336-13.4473 9.23828-13.4473C12.793-13.4473 15.6445-10.6055 15.6445-7.05078C15.6445-3.49609 12.8027-0.654297 9.24805-0.654297ZM5.6543-7.05078C5.6543-6.62109 5.95703-6.32812 6.40625-6.32812L8.50586-6.32812L8.50586-4.20898C8.50586-3.76953 8.79883-3.4668 9.22852-3.4668C9.67773-3.4668 9.9707-3.76953 9.9707-4.20898L9.9707-6.32812L12.0898-6.32812C12.5293-6.32812 12.832-6.62109 12.832-7.05078C12.832-7.49023 12.5293-7.79297 12.0898-7.79297L9.9707-7.79297L9.9707-9.90234C9.9707-10.3516 9.67773-10.6543 9.22852-10.6543C8.79883-10.6543 8.50586-10.3516 8.50586-9.90234L8.50586-7.79297L6.40625-7.79297C5.95703-7.79297 5.6543-7.49023 5.6543-7.05078Z"/>
  </g>
  <g transform="matrix(1 0 0 1 281.867 1933)">
   <path d="M11.709 2.91016C17.1582 2.91016 21.6699-1.61133 21.6699-7.05078C21.6699-12.5 17.1484-17.0117 11.6992-17.0117C6.25977-17.0117 1.74805-12.5 1.74805-7.05078C1.74805-1.61133 6.26953 2.91016 11.709 2.91016ZM11.709 1.25C7.09961 1.25 3.41797-2.44141 3.41797-7.05078C3.41797-11.6602 7.08984-15.3516 11.6992-15.3516C16.3086-15.3516 20.0098-11.6602 20.0098-7.05078C20.0098-2.44141 16.3184 1.25 11.709 1.25ZM7.17773-7.05078C7.17773-6.57227 7.50977-6.25 8.00781-6.25L10.8789-6.25L10.8789-3.36914C10.8789-2.88086 11.2109-2.53906 11.6895-2.53906C12.1777-2.53906 12.5195-2.87109 12.5195-3.36914L12.5195-6.25L15.4004-6.25C15.8887-6.25 16.2305-6.57227 16.2305-7.05078C16.2305-7.53906 15.8887-7.88086 15.4004-7.88086L12.5195-7.88086L12.5195-10.752C12.5195-11.25 12.1777-11.5918 11.6895-11.5918C11.2109-11.5918 10.8789-11.25 10.8789-10.752L10.8789-7.88086L8.00781-7.88086C7.50977-7.88086 7.17773-7.53906 7.17773-7.05078Z"/>
  </g>
  <g transform="matrix(1 0 0 1 305.646 1933)">
   <path d="M14.9707 5.66406C21.9336 5.66406 27.6953-0.0976562 27.6953-7.05078C27.6953-14.0137 21.9238-19.7754 14.9609-19.7754C8.00781-19.7754 2.25586-14.0137 2.25586-7.05078C2.25586-0.0976562 8.01758 5.66406 14.9707 5.66406ZM14.9707 3.84766C8.93555 3.84766 4.08203-1.01562 4.08203-7.05078C4.08203-13.0957 8.92578-17.9492 14.9609-17.9492C21.0059-17.9492 25.8691-13.0957 25.8691-7.05078C25.8691-1.01562 21.0156 3.84766 14.9707 3.84766ZM9.19922-7.05078C9.19922-6.5332 9.57031-6.17188 10.1172-6.17188L14.0625-6.17188L14.0625-2.2168C14.0625-1.67969 14.4336-1.29883 14.9512-1.29883C15.4883-1.29883 15.8594-1.66992 15.8594-2.2168L15.8594-6.17188L19.8145-6.17188C20.3516-6.17188 20.7324-6.5332 20.7324-7.05078C20.7324-7.59766 20.3613-7.96875 19.8145-7.96875L15.8594-7.96875L15.8594-11.9141C15.8594-12.4609 15.4883-12.8418 14.9512-12.8418C14.4336-12.8418 14.0625-12.4609 14.0625-11.9141L14.0625-7.96875L10.1172-7.96875C9.57031-7.96875 9.19922-7.59766 9.19922-7.05078Z"/>
  </g>
  <text style="stroke:none;fill:black;font-family:sans-serif;font-size:13;font-weight:bold;" transform="matrix(1 0 0 1 263 1953)">Design Variations</text>
  <text style="stroke:none;fill:black;font-family:sans-serif;font-size:13;" transform="matrix(1 0 0 1 263 1971)">Symbols are supported in up to nine weights and three scales.</text>
  <text style="stroke:none;fill:black;font-family:sans-serif;font-size:13;" transform="matrix(1 0 0 1 263 1989)">For optimal layout with text and other symbols, vertically align</text>
  <text style="stroke:none;fill:black;font-family:sans-serif;font-size:13;" transform="matrix(1 0 0 1 263 2007)">symbols with the adjacent text.</text>
  <line style="fill:none;stroke:#00AEEF;stroke-width:0.5;opacity:1.0;" x1="776" x2="776" y1="1919" y2="1933"/>
  <g transform="matrix(1 0 0 1 776 1933)">
   <path d="M3.31055 0.15625C3.82812 0.15625 4.08203-0.0390625 4.26758-0.585938L5.52734-4.0332L11.2891-4.0332L12.5488-0.585938C12.7344-0.0390625 12.9883 0.15625 13.4961 0.15625C14.0137 0.15625 14.3457-0.15625 14.3457-0.644531C14.3457-0.810547 14.3164-0.966797 14.2383-1.17188L9.6582-13.3691C9.43359-13.9648 9.0332-14.2676 8.4082-14.2676C7.80273-14.2676 7.39258-13.9746 7.17773-13.3789L2.59766-1.16211C2.51953-0.957031 2.49023-0.800781 2.49023-0.634766C2.49023-0.146484 2.80273 0.15625 3.31055 0.15625ZM6.00586-5.51758L8.37891-12.0898L8.42773-12.0898L10.8008-5.51758Z"/>
  </g>
  <line style="fill:none;stroke:#00AEEF;stroke-width:0.5;opacity:1.0;" x1="793.197" x2="793.197" y1="1919" y2="1933"/>
  <text style="stroke:none;fill:black;font-family:sans-serif;font-size:13;font-weight:bold;" transform="matrix(1 0 0 1 776 1953)">Margins</text>
  <text style="stroke:none;fill:black;font-family:sans-serif;font-size:13;" transform="matrix(1 0 0 1 776 1971)">Leading and trailing margins on the left and right side of each symbol</text>
  <text style="stroke:none;fill:black;font-family:sans-serif;font-size:13;" transform="matrix(1 0 0 1 776 1989)">can be adjusted by modifying the x-location of the margin guidelines.</text>
  <text style="stroke:none;fill:black;font-family:sans-serif;font-size:13;" transform="matrix(1 0 0 1 776 2007)">Modifications are automatically applied proportionally to all</text>
  <text style="stroke:none;fill:black;font-family:sans-serif;font-size:13;" transform="matrix(1 0 0 1 776 2025)">scales and weights.</text>
  <g transform="matrix(1 0 0 1 1289 1933)">
   <path d="M2.8418 1.86523L4.54102 3.57422C5.40039 4.44336 6.38672 4.38477 7.31445 3.35938L18.0078-8.42773L17.041-9.4043L6.42578 2.27539C6.07422 2.67578 5.74219 2.77344 5.27344 2.30469L4.10156 1.14258C3.63281 0.683594 3.74023 0.341797 4.14062-0.0195312L15.6152-10.8203L14.6387-11.7871L3.04688-0.898438C2.06055 0.0195312 1.98242 0.996094 2.8418 1.86523ZM9.25781-16.3281C8.83789-15.918 8.80859-15.3418 9.04297-14.9512C9.27734-14.5898 9.73633-14.3555 10.3809-14.5215C11.8457-14.8633 13.3691-14.9219 14.7949-13.9844L14.209-12.5293C13.8672-11.6992 14.043-11.1133 14.5801-10.5664L16.875-8.25195C17.3633-7.76367 17.7734-7.74414 18.3398-7.8418L19.4043-8.03711L20.0684-7.36328L20.0293-6.80664C19.9902-6.30859 20.1172-5.92773 20.6055-5.44922L21.3672-4.70703C21.8457-4.22852 22.4609-4.19922 22.9297-4.66797L25.8398-7.58789C26.3086-8.05664 26.2891-8.65234 25.8105-9.13086L25.0391-9.89258C24.5605-10.3711 24.1895-10.5273 23.7109-10.4883L23.1348-10.4395L22.4902-11.0742L22.7344-12.1973C22.8613-12.7637 22.7051-13.2031 22.1191-13.7891L19.9219-15.9766C16.582-19.2969 12.1484-19.2188 9.25781-16.3281ZM10.752-15.957C13.1836-17.7344 16.4746-17.4316 18.7012-15.2051L21.1328-12.793C21.3672-12.5586 21.4062-12.373 21.3379-12.0312L21.0156-10.5469L22.5195-9.0625L23.5059-9.12109C23.7598-9.13086 23.8379-9.11133 24.0332-8.91602L24.6094-8.33984L22.168-5.89844L21.5918-6.47461C21.3965-6.66992 21.3672-6.74805 21.377-7.01172L21.4453-7.98828L19.9512-9.47266L18.4277-9.21875C18.1055-9.15039 17.959-9.17969 17.7148-9.41406L15.7129-11.416C15.459-11.6504 15.4297-11.8164 15.5859-12.1875L16.4648-14.2773C14.9023-15.7324 12.8711-16.3574 10.8398-15.7617C10.6836-15.7227 10.625-15.8496 10.752-15.957Z"/>
  </g>
  <text style="stroke:none;fill:black;font-family:sans-serif;font-size:13;font-weight:bold;" transform="matrix(1 0 0 1 1289 1953)">Exporting</text>
  <text style="stroke:none;fill:black;font-family:sans-serif;font-size:13;" transform="matrix(1 0 0 1 1289 1971)">Symbols should be outlined when exporting to ensure the</text>
  <text style="stroke:none;fill:black;font-family:sans-serif;font-size:13;" transform="matrix(1 0 0 1 1289 1989)">design is preserved when submitting to Xcode.</text>
  <text id="template-version" style="stroke:none;fill:black;font-family:sans-serif;font-size:13;text-anchor:end;" transform="matrix(1 0 0 1 3036 1933)">Template v.4.0</text>
  <text style="stroke:none;fill:black;font-family:sans-serif;font-size:13;text-anchor:end;" transform="matrix(1 0 0 1 3036 1951)">Requires Xcode 14 or greater</text>
  <text id="descriptive-name" style="stroke:none;fill:black;font-family:sans-serif;font-size:13;text-anchor:end;" transform="matrix(1 0 0 1 3036 1969)">Generated from figure.flexibility</text>
  <text style="stroke:none;fill:black;font-family:sans-serif;font-size:13;text-anchor:end;" transform="matrix(1 0 0 1 3036 1987)">Typeset at 100 points</text>
  <text style="stroke:none;fill:black;font-family:sans-serif;font-size:13;" transform="matrix(1 0 0 1 263 726)">Small</text>
  <text style="stroke:none;fill:black;font-family:sans-serif;font-size:13;" transform="matrix(1 0 0 1 263 1156)">Medium</text>
  <text style="stroke:none;fill:black;font-family:sans-serif;font-size:13;" transform="matrix(1 0 0 1 263 1586)">Large</text>
 </g>
 <g id="Guides">
  <g id="H-reference" style="fill:#27AAE1;stroke:none;" transform="matrix(1 0 0 1 339 696)">
   <path d="M0.993654 0L3.63775 0L29.3281-67.1323L30.0303-67.1323L30.0303-70.459L28.1226-70.459ZM11.6885-24.4799L46.9815-24.4799L46.2315-26.7285L12.4385-26.7285ZM55.1196 0L57.7637 0L30.6382-70.459L29.4326-70.459L29.4326-67.1323Z"/>
  </g>
  <line id="Baseline-S" style="fill:none;stroke:#27AAE1;opacity:1;stroke-width:0.5;" x1="263" x2="3036" y1="696" y2="696"/>
  <line id="Capline-S" style="fill:none;stroke:#27AAE1;opacity:1;stroke-width:0.5;" x1="263" x2="3036" y1="625.541" y2="625.541"/>
  <g id="H-reference" style="fill:#27AAE1;stroke:none;" transform="matrix(1 0 0 1 339 1126)">
   <path d="M0.993654 0L3.63775 0L29.3281-67.1323L30.0303-67.1323L30.0303-70.459L28.1226-70.459ZM11.6885-24.4799L46.9815-24.4799L46.2315-26.7285L12.4385-26.7285ZM55.1196 0L57.7637 0L30.6382-70.459L29.4326-70.459L29.4326-67.1323Z"/>
  </g>
  <line id="Baseline-M" style="fill:none;stroke:#27AAE1;opacity:1;stroke-width:0.5;" x1="263" x2="3036" y1="1126" y2="1126"/>
  <line id="Capline-M" style="fill:none;stroke:#27AAE1;opacity:1;stroke-width:0.5;" x1="263" x2="3036" y1="1055.54" y2="1055.54"/>
  <g id="H-reference" style="fill:#27AAE1;stroke:none;" transform="matrix(1 0 0 1 339 1556)">
   <path d="M0.993654 0L3.63775 0L29.3281-67.1323L30.0303-67.1323L30.0303-70.459L28.1226-70.459ZM11.6885-24.4799L46.9815-24.4799L46.2315-26.7285L12.4385-26.7285ZM55.1196 0L57.7637 0L30.6382-70.459L29.4326-70.459L29.4326-67.1323Z"/>
  </g>
  <line id="Baseline-L" style="fill:none;stroke:#27AAE1;opacity:1;stroke-width:0.5;" x1="263" x2="3036" y1="1556" y2="1556"/>
  <line id="Capline-L" style="fill:none;stroke:#27AAE1;opacity:1;stroke-width:0.5;" x1="263" x2="3036" y1="1485.54" y2="1485.54"/>
  <line id="left-margin-Regular-M" style="fill:none;stroke:#00AEEF;stroke-width:0.5;opacity:1.0;" x1="1385.03" x2="1385.03" y1="1030.79" y2="1150.12"/>
  <line id="right-margin-Regular-M" style="fill:none;stroke:#00AEEF;stroke-width:0.5;opacity:1.0;" x1="1514.66" x2="1514.66" y1="1030.79" y2="1150.12"/>
 </g>
 <g id="Symbols">
  <g id="Black-L" transform="matrix(1 0 0 1 2845.25 1556)">
   <path d="M57.6453-73.8836C66.1922-73.8836 73.1574-80.8489 73.1574-89.3969C73.1574-97.923 66.1922-104.866 57.6453-104.866C49.1389-104.866 42.1528-97.923 42.1528-89.3969C42.1528-80.8489 49.1389-73.8836 57.6453-73.8836ZM156.06 17.8579L112.5-5.57073L87.3494-23.0983C85.8526-24.149 84.5166-25.3461 83.3051-26.7041C85.5025-28.6386 86.3119-31.6249 85.5893-34.5516L80.6545-54.5478C78.7928-62.2124 71.9092-67.4173 64.0837-67.4173L48.3582-67.4173C43.2922-67.4173 39.6129-66.177 36.2101-62.7742L18.3401-44.8457C15.8427-42.3483 15.347-38.4146 17.1426-35.2607L29.5029-13.5705L29.5029 24.8651C29.5029 29.1372 33.1161 32.7713 37.4287 32.7713C41.8021 32.7713 45.3945 29.1372 45.3945 24.8651L45.3945-7.16023L82.3843-4.43194L105.455 8.68733L148.556 31.7722C153.147 34.2672 157.659 31.8747 159.316 28.6183C161.272 24.7263 159.834 19.8947 156.06 17.8579ZM33.8748-37.8957L43.5983-47.7204L51.6721-27.0029L45.6792-23.594L42.1018-23.594Z"/>
  </g>
  <g id="Heavy-L" transform="matrix(1 0 0 1 2549.72 1556)">
   <path d="M56.8588-73.4032C65.1779-73.4032 71.9468-80.1721 71.9468-88.4968C71.9468-96.7857 65.1779-103.519 56.8588-103.519C48.5945-103.519 41.7954-96.7857 41.7954-88.4968C41.7954-80.1721 48.5945-73.4032 56.8588-73.4032ZM153.879 17.2886L110.879-5.8598L86.05-23.1568C84.4793-24.2538 83.0694-25.5386 81.8116-26.9842C84.0646-28.8133 84.9204-31.7451 84.2022-34.6266L79.3214-54.3695C77.51-61.8152 70.8271-66.8833 63.2205-66.8833L47.6848-66.8833C42.7418-66.8833 39.1905-65.6794 35.8836-62.3725L18.2348-44.6791C15.8427-42.287 15.3928-38.527 17.0969-35.5242L29.3402-14.0409L29.3402 23.971C29.3402 28.0369 32.7841 31.511 36.9048 31.511C41.0813 31.511 44.4951 28.0369 44.4951 23.971L44.4951-7.91903L81.3644-5.21281L104.182 7.7575L146.741 30.5484C151.117 32.9292 155.419 30.6646 156.998 27.5456C158.863 23.8459 157.483 19.2339 153.879 17.2886ZM33.0648-38.0357L43.0848-48.1663L51.2892-27.1176L45.1017-23.6067L41.3672-23.6067Z"/>
  </g>
  <g id="Bold-L" transform="matrix(1 0 0 1 2254.56 1556)">
   <path d="M55.8532-72.7667C63.8881-72.7667 70.4186-79.2973 70.4186-87.3454C70.4186-95.3422 63.8881-101.822 55.8532-101.822C47.8811-101.822 41.3125-95.3422 41.3125-87.3454C41.3125-79.2973 47.8811-72.7667 55.8532-72.7667ZM151.003 16.5072L108.769-6.25812L84.3768-23.2409C82.7289-24.3844 81.2417-25.7619 79.9374-27.3002C82.2447-29.0062 83.1469-31.8688 82.4364-34.689L77.6322-54.0871C75.8822-61.2638 69.4453-66.1628 62.1077-66.1628L46.8325-66.1628C42.0431-66.1628 38.6456-65.005 35.4541-61.8135L18.1116-44.4418C15.8427-42.173 15.4467-38.6207 17.043-35.7949L29.118-14.6099L29.118 22.8048C29.118 26.6321 32.3618 29.9139 36.2518 29.9139C40.1974 29.9139 43.4033 26.6321 43.4033 22.8048L43.4033-8.82673L80.0147-6.15861L102.48 6.60493L144.296 28.9973C148.418 31.2397 152.473 29.129 153.96 26.1715C155.717 22.6952 154.407 18.3448 151.003 16.5072ZM32.1105-38.1602L42.4247-48.5928L50.7458-27.2486L44.3648-23.637L40.4679-23.637Z"/>
  </g>
  <g id="Semibold-L" transform="matrix(1 0 0 1 1958.91 1556)">
   <path d="M55.1599-72.3279C62.9988-72.3279 69.3651-78.6942 69.3651-86.5516C69.3651-94.3471 62.9988-100.651 55.1599-100.651C47.3893-100.651 40.9797-94.3471 40.9797-86.5516C40.9797-78.6942 47.3893-72.3279 55.1599-72.3279ZM149.02 15.9685L107.315-6.53271L83.2234-23.2989C81.5221-24.4744 79.9817-25.9158 78.6454-27.5181C80.9901-29.1391 81.9243-31.9541 81.219-34.732L76.4676-53.8924C74.76-60.8837 68.4926-65.6661 61.3406-65.6661L46.2449-65.6661C41.5614-65.6661 38.2699-64.5401 35.158-61.4281L18.0267-44.2783C15.8427-42.0943 15.4838-38.6852 17.0058-35.9815L28.9648-15.0022L28.9648 22.0009C28.9648 25.6636 32.0707 28.8128 35.8016 28.8128C39.588 28.8128 42.6506 25.6636 42.6506 22.0009L42.6506-9.4525L79.0843-6.81063L101.307 5.81036L142.61 27.928C146.557 30.075 150.443 28.0703 151.866 25.2243C153.549 21.9019 152.287 17.7318 149.02 15.9685ZM31.4525-38.246L41.9697-48.8869L50.3711-27.3389L43.8567-23.6579L39.8479-23.6579Z"/>
  </g>
  <g id="Medium-L" transform="matrix(1 0 0 1 1663.01 1556)">
   <path d="M54.6343-71.9952C62.3246-71.9952 68.5663-78.2369 68.5663-85.9497C68.5663-93.5925 62.3246-99.7643 54.6343-99.7643C47.0164-99.7643 40.7273-93.5925 40.7273-85.9497C40.7273-78.2369 47.0164-71.9952 54.6343-71.9952ZM147.516 15.56L106.212-6.74092L82.3488-23.3429C80.6071-24.5427 79.0263-26.0325 77.6658-27.6833C80.0388-29.2399 80.9973-32.0188 80.296-34.7646L75.5845-53.7448C73.9091-60.5954 67.7703-65.2895 60.7589-65.2895L45.7993-65.2895C41.1961-65.2895 37.9851-64.1876 34.9334-61.1359L17.9623-44.1543C15.8427-42.0347 15.512-38.7341 16.9777-36.123L28.8487-15.2997L28.8487 21.3913C28.8487 24.9292 31.85 27.978 35.4603 27.978C39.126 27.978 42.0799 24.9292 42.0799 21.3913L42.0799-9.92698L78.3787-7.30502L100.417 5.20788L141.332 27.1172C145.147 29.1919 148.903 27.2676 150.278 24.5061C151.905 21.3004 150.679 17.267 147.516 15.56ZM30.9537-38.311L41.6247-49.1098L50.0871-27.4073L43.4714-23.6737L39.3778-23.6737Z"/>
  </g>
  <g id="Regular-L" transform="matrix(1 0 0 1 1367.35 1556)">
   <path d="M53.9486-71.5612C61.4451-71.5612 67.5243-77.6404 67.5243-85.1646C67.5243-92.6083 61.4451-98.6071 53.9486-98.6071C46.53-98.6071 40.3981-92.6083 40.3981-85.1646C40.3981-77.6404 46.53-71.5612 53.9486-71.5612ZM145.556 15.0273L104.773-7.0125L81.208-23.4003C79.4137-24.6317 77.7802-26.1848 76.3879-27.8987C78.798-29.3714 79.7881-32.1031 79.092-34.8072L74.4328-53.5523C72.7992-60.2195 66.8282-64.7983 60.0001-64.7983L45.2182-64.7983C40.7197-64.7983 37.6136-63.7278 34.6406-60.7548L17.8783-43.9925C15.8427-41.9569 15.5487-38.798 16.9409-36.3075L28.6972-15.6876L28.6972 20.5962C28.6972 23.9713 31.5621 26.889 35.015 26.889C38.5233 26.889 41.3354 23.9713 41.3354 20.5962L41.3354-10.5459L77.4585-7.94988L99.257 4.42204L139.665 26.0597C143.306 28.04 146.895 26.2205 148.207 23.5692C149.76 20.5158 148.581 16.6608 145.556 15.0273ZM30.303-38.3959L41.1746-49.4007L49.7166-27.4966L42.969-23.6943L38.7646-23.6943Z"/>
  </g>
  <g id="Light-L" transform="matrix(1 0 0 1 1072.23 1556)">
   <path d="M53.0516-70.8551C60.3382-70.8551 66.2837-76.8007 66.2837-84.134C66.2837-91.3869 60.3382-97.252 53.0516-97.252C45.7857-97.252 39.8064-91.3869 39.8064-84.134C39.8064-76.8007 45.7857-70.8551 53.0516-70.8551ZM142.445 13.9967L102.655-7.54688L79.643-23.5339C77.8869-24.7271 76.2915-26.2421 74.9375-27.9178C77.2902-29.3523 78.2422-32.0268 77.5652-34.6545L73.0204-52.9606C71.4251-59.4561 65.6067-63.9204 58.9504-63.9204L44.512-63.9204C40.1281-63.9204 37.0983-62.888 34.1825-59.9723L17.8402-43.6299C15.8427-41.6325 15.5678-38.569 16.9219-36.1357L28.4109-15.993L28.4109 19.413C28.4109 22.7308 31.1995 25.553 34.5379 25.553C37.9698 25.553 40.7247 22.7308 40.7247 19.413L40.7247-10.9657L75.9699-8.46518L97.2721 3.62046L136.707 24.7619C140.253 26.6659 143.765 24.9227 145.039 22.3287C146.554 19.3325 145.394 15.592 142.445 13.9967ZM29.9595-38.1669L40.5639-48.8854L48.8959-27.5157L42.3201-23.8088L38.2111-23.8088Z"/>
  </g>
  <g id="Thin-L" transform="matrix(1 0 0 1 777.63 1556)">
   <path d="M51.8652-69.9211C58.8742-69.9211 64.643-75.69 64.643-82.7709C64.643-89.7714 58.8742-95.4598 51.8652-95.4598C44.8012-95.4598 39.0239-89.7714 39.0239-82.7709C39.0239-75.69 44.8012-69.9211 51.8652-69.9211ZM138.33 12.6336L99.8529-8.25366L77.5732-23.7106C75.8675-24.8534 74.3227-26.3178 73.0191-27.9431C75.2961-29.3271 76.1976-31.9258 75.5458-34.4526L71.1525-52.1781C69.6077-58.4464 63.9912-62.7593 57.5621-62.7593L43.5781-62.7593C39.3456-62.7593 36.4167-61.7774 33.5767-58.9374L17.7897-43.1503C15.8427-41.2034 15.593-38.2661 16.8966-35.9086L28.0323-16.3969L28.0323 17.848C28.0323 21.0901 30.7199 23.7861 33.9069 23.7861C37.2378 23.7861 39.917 21.0901 39.917 17.848L39.917-11.5211L74.001-9.14671L94.647 2.5603L132.794 23.0455C136.214 24.8484 139.625 23.2063 140.849 20.688C142.313 17.7675 141.179 14.1785 138.33 12.6336ZM29.5051-37.864L39.7561-48.2038L47.8105-27.541L41.4618-23.9603L37.4791-23.9603Z"/>
  </g>
  <g id="Ultralight-L" transform="matrix(1 0 0 1 481.998 1556)">
   <path d="M51.2576-69.4428C58.1243-69.4428 63.8027-75.1211 63.8027-82.0728C63.8027-88.9439 58.1243-94.5419 51.2576-94.5419C44.297-94.5419 38.6231-88.9439 38.6231-82.0728C38.6231-75.1211 44.297-69.4428 51.2576-69.4428ZM136.223 11.9355L98.4178-8.61566L76.5131-23.8011C74.8332-24.918 73.3142-26.3566 72.0365-27.956C74.2748-29.3141 75.1504-31.8741 74.5115-34.3491L70.1958-51.7774C68.6768-57.9293 63.1638-62.1646 56.8511-62.1646L43.0997-62.1646C38.9448-62.1646 36.0677-61.2085 33.2664-58.4073L17.7638-42.9047C15.8427-40.9836 15.606-38.1109 16.8837-35.7922L27.8383-16.6037L27.8383 17.0464C27.8383 20.2497 30.4742 22.8811 33.5836 22.8811C36.8629 22.8811 39.5033 20.2497 39.5033 17.0464L39.5033-11.8055L72.9925-9.49579L93.3024 2.01729L130.79 22.1663C134.145 23.9176 137.505 22.3271 138.702 19.8476C140.141 16.966 139.02 13.4544 136.223 11.9355ZM29.2724-37.7088L39.3424-47.8548L47.2546-27.5539L41.0223-24.0379L37.1041-24.0379Z"/>
  </g>
  <g id="Black-M" transform="matrix(1 0 0 1 2864.31 1126)">
   <path d="M45.2147-65.4937C52.0036-65.4937 57.5505-71.0406 57.5505-77.8293C57.5505-84.6127 52.0036-90.1544 45.2147-90.1544C38.437-90.1544 32.8846-84.6127 32.8846-77.8293C32.8846-71.0406 38.437-65.4937 45.2147-65.4937ZM122.359 6.24917L88.2639-12.0756L68.578-25.7988C67.487-26.5678 66.5206-27.4148 65.627-28.3864C67.2738-29.9704 67.8559-32.3232 67.2949-34.6192L63.4407-50.2692C61.9605-56.3722 56.4756-60.5067 50.248-60.5067L37.9482-60.5067C33.9332-60.5067 30.9831-59.5196 28.2721-56.8086L14.2942-42.7736C12.274-40.7535 11.8532-37.5695 13.3179-35.0039L22.9582-18.0865L22.9582 11.9364C22.9582 15.4157 25.8927 18.3557 29.3832 18.3557C32.9303 18.3557 35.8593 15.4157 35.8593 11.9364L35.8593-12.8878L64.5014-10.768L82.5251-0.514772L116.251 17.5555C119.98 19.5763 123.647 17.6231 124.992 14.99C126.581 11.817 125.418 7.90071 122.359 6.24917ZM26.8939-37.1438L34.136-44.4537L40.2504-28.76L35.798-26.2196L33.1744-26.2196Z"/>
  </g>
  <g id="Heavy-M" transform="matrix(1 0 0 1 2568.6 1126)">
   <path d="M44.5286-65.0892C51.1142-65.0892 56.4815-70.4565 56.4815-77.0444C56.4815-83.6136 51.1142-88.9622 44.5286-88.9622C37.9735-88.9622 32.5898-83.6136 32.5898-77.0444C32.5898-70.4565 37.9735-65.0892 44.5286-65.0892ZM120.514 5.78771L86.8752-12.3089L67.4521-25.8436C66.2854-26.6615 65.2432-27.5977 64.3008-28.6585C66.0073-30.143 66.6382-32.4478 66.0798-34.7066L62.2679-50.1495C60.8332-56.0544 55.5304-60.0657 49.501-60.0657L37.3551-60.0657C33.4497-60.0657 30.6176-59.1107 27.9951-56.4882L14.1947-42.6442C12.274-40.7235 11.8962-37.7005 13.2749-35.2774L22.8255-18.5181L22.8255 11.1715C22.8255 14.4545 25.6016 17.2469 28.9151 17.2469C32.2768 17.2469 35.0364 14.4545 35.0364 11.1715L35.0364-13.5909L63.6417-11.4839L81.4642-1.3498L114.75 16.4789C118.278 18.395 121.745 16.5599 123.018 14.0557C124.521 11.0656 123.414 7.35329 120.514 5.78771ZM26.1337-37.3018L33.6904-44.9371L39.9518-28.8704L35.2933-26.2214L32.5073-26.2214Z"/>
  </g>
  <g id="Bold-M" transform="matrix(1 0 0 1 2273.02 1126)">
   <path d="M43.761-64.6367C50.1193-64.6367 55.2857-69.8031 55.2857-76.1664C55.2857-82.496 50.1193-87.6287 43.761-87.6287C37.455-87.6287 32.2599-82.496 32.2599-76.1664C32.2599-69.8031 37.455-64.6367 43.761-64.6367ZM118.45 5.2715L85.3217-12.5698L66.1926-25.8938C64.9411-26.7662 63.8143-27.8022 62.8172-28.9628C64.5905-30.3361 65.276-32.587 64.7204-34.8043L60.9559-50.0157C59.5721-55.6988 54.4731-59.5723 48.6654-59.5723L36.6915-59.5723C32.9088-59.5723 30.2088-58.6532 27.6853-56.1298L14.0835-42.4994C12.274-40.6899 11.9443-37.8471 13.2268-35.5833L22.6771-19.001L22.6771 10.3159C22.6771 13.3792 25.2759 16.0066 28.3914 16.0066C31.5457 16.0066 34.1158 13.3792 34.1158 10.3159L34.1158-14.3773L62.6801-12.2846L80.2774-2.28389L113.071 15.2745C116.373 17.0737 119.618 15.3705 120.81 13.0106C122.217 10.225 121.173 6.74091 118.45 5.2715ZM25.2833-37.4785L33.1919-45.4779L39.6178-28.9938L34.7288-26.2235L31.7611-26.2235Z"/>
  </g>
  <g id="Semibold-M" transform="matrix(1 0 0 1 1977.09 1126)">
   <path d="M43.2319-64.3247C49.4334-64.3247 54.4613-69.3526 54.4613-75.5611C54.4613-81.7255 49.4334-86.7093 43.2319-86.7093C37.0975-86.7093 32.0325-81.7255 32.0325-75.5611C32.0325-69.3526 37.0975-64.3247 43.2319-64.3247ZM117.027 4.91562L84.2507-12.7497L65.3242-25.9284C64.0144-26.8384 62.8291-27.9432 61.7945-29.1726C63.6138-30.4693 64.337-32.6831 63.7833-34.8716L60.0514-49.9234C58.7027-55.4536 53.7442-59.2322 48.0893-59.2322L36.2341-59.2322C32.5359-59.2322 29.9269-58.3379 27.4717-55.8827L14.0068-42.3996C12.274-40.6668 11.9774-37.9481 13.1937-35.7941L22.5748-19.3339L22.5748 9.726C22.5748 12.638 25.0514 15.1516 28.0303 15.1516C31.0417 15.1516 33.4812 12.638 33.4812 9.726L33.4812-14.9195L62.0171-12.8366L79.4592-2.92785L111.913 14.4441C115.06 16.1627 118.152 14.5506 119.287 12.2901C120.628 9.64554 119.628 6.31875 117.027 4.91562ZM24.6971-37.6003L32.8482-45.8507L39.3875-29.0789L34.3396-26.225L31.2467-26.225Z"/>
  </g>
  <g id="Medium-M" transform="matrix(1 0 0 1 1680.97 1126)">
   <path d="M42.8307-64.0882C48.9133-64.0882 53.8362-69.0111 53.8362-75.1022C53.8362-81.1413 48.9133-86.0122 42.8307-86.0122C36.8264-86.0122 31.8601-81.1413 31.8601-75.1022C31.8601-69.0111 36.8264-64.0882 42.8307-64.0882ZM115.948 4.64578L83.4386-12.8861L64.6659-25.9546C63.3117-26.8932 62.0822-28.0501 61.019-29.3317C62.8733-30.5702 63.6249-32.7559 63.0728-34.9227L59.3655-49.8534C58.0435-55.2678 53.1915-58.9744 47.6525-58.9744L35.8872-58.9744C32.2532-58.9744 29.7132-58.0987 27.3098-55.6953L13.9487-42.3239C12.274-40.6493 12.0026-38.0247 13.1685-35.954L22.4972-19.5863L22.4972 9.27874C22.4972 12.0759 24.8811 14.5033 27.7566 14.5033C30.6595 14.5033 33 12.0759 33 9.27874L33-15.3306L61.5144-13.2552L78.8388-3.41612L111.035 13.8146C114.064 15.472 117.04 13.9289 118.133 11.7438C119.424 9.20615 118.457 5.99864 115.948 4.64578ZM24.2526-37.6927L32.5876-46.1334L39.2129-29.1435L34.0445-26.226L30.8567-26.226Z"/>
  </g>
  <g id="Regular-M" transform="matrix(1 0 0 1 1385.03 1126)">
   <path d="M42.3074-63.7796C48.2349-63.7796 53.0208-68.5655 53.0208-74.5036C53.0208-80.3793 48.2349-85.1029 42.3074-85.1029C36.4729-85.1029 31.6352-80.3793 31.6352-74.5036C31.6352-68.5655 36.4729-63.7796 42.3074-63.7796ZM114.541 4.29382L82.3794-13.0641L63.8071-25.9888C62.3952-26.9646 61.1079-28.1896 60.0075-29.5392C61.9073-30.7019 62.6961-32.8509 62.146-34.9893L58.471-49.7621C57.1837-55.0253 52.4706-58.638 47.0828-58.638L35.4348-58.638C31.8844-58.638 29.4345-57.7868 27.0985-55.4509L13.8728-42.2252C12.274-40.6264 12.0354-38.1247 13.1357-36.1626L22.396-19.9156L22.396 8.69535C22.396 11.3428 24.6591 13.6576 27.3995 13.6576C30.161 13.6576 32.3723 11.3428 32.3723 8.69535L32.3723-15.8668L60.8587-13.8012L78.0296-4.05301L109.89 12.9934C112.766 14.5711 115.589 13.118 116.627 11.0313C117.852 8.63304 116.928 5.58111 114.541 4.29382ZM23.6728-37.8131L32.2477-46.5021L38.9852-29.2276L33.6596-26.2275L30.3479-26.2275Z"/>
  </g>
  <g id="Light-M" transform="matrix(1 0 0 1 1089.74 1126)">
   <path d="M41.5032-63.1465C47.2425-63.1465 51.9086-67.8127 51.9086-73.5796C51.9086-79.2842 47.2425-83.8881 41.5032-83.8881C35.8056-83.8881 31.1048-79.2842 31.1048-73.5796C31.1048-67.8127 35.8056-63.1465 41.5032-63.1465ZM111.752 3.36983L80.4801-13.5432L62.404-26.1086C61.0263-27.0501 59.7732-28.2409 58.7071-29.5563C60.5555-30.6847 61.3102-32.7824 60.7771-34.8524L57.2048-49.2316C55.9517-54.3409 51.3755-57.8509 46.1417-57.8509L34.8017-57.8509C31.354-57.8509 28.9725-57.0339 26.6879-54.7494L13.8386-41.9001C12.274-40.3355 12.0525-37.9193 13.1186-36.0086L22.1394-20.1894L22.1394 7.63447C22.1394 10.2306 24.334 12.4599 26.9717 12.4599C29.6648 12.4599 31.8248 10.2306 31.8248 7.63447L31.8248-16.2432L59.524-14.2632L76.2501-4.77167L107.238 11.8298C110.028 13.3391 112.783 11.9544 113.787 9.91906C114.978 7.57216 114.071 4.6229 111.752 3.36983ZM23.3648-37.6078L31.7002-46.0401L38.2494-29.2448L33.0779-26.3301L29.8517-26.3301Z"/>
  </g>
  <g id="Thin-M" transform="matrix(1 0 0 1 794.921 1126)">
   <path d="M40.4396-62.3092C45.9299-62.3092 50.4376-66.8169 50.4376-72.3575C50.4376-77.8359 45.9299-82.2813 40.4396-82.2813C34.923-82.2813 30.4032-77.8359 30.4032-72.3575C30.4032-66.8169 34.923-62.3092 40.4396-62.3092ZM108.063 2.14778L77.9681-14.1768L60.5483-26.267C59.2159-27.1633 58.008-28.3088 56.9871-29.5789C58.7677-30.6621 59.4771-32.6919 58.9666-34.6714L55.5301-48.5301C54.3223-53.4357 49.9272-56.8099 44.897-56.8099L33.9644-56.8099C30.6525-56.8099 28.3614-56.0382 26.1447-53.8215L13.7934-41.4701C12.274-39.9508 12.0751-37.6478 13.096-35.8049L21.7999-20.5515L21.7999 6.23137C21.7999 8.7596 23.904 10.8757 26.406 10.8757C29.0085 10.8757 31.1006 8.7596 31.1006 6.23137L31.1006-16.7411L57.7588-14.8742L73.8965-5.72215L103.73 10.2909C106.407 11.7097 109.072 10.4156 110.03 8.44807C111.176 6.16907 110.292 3.35559 108.063 2.14778ZM22.9574-37.3362L30.976-45.4291L37.2763-29.2674L32.3084-26.4659L29.1954-26.4659Z"/>
  </g>
  <g id="Ultralight-M" transform="matrix(1 0 0 1 499.178 1126)">
   <path d="M39.8948-61.8803C45.2576-61.8803 49.6842-66.3069 49.6842-71.7316C49.6842-77.094 45.2576-81.4583 39.8948-81.4583C34.4709-81.4583 30.0439-77.094 30.0439-71.7316C30.0439-66.3069 34.4709-61.8803 39.8948-61.8803ZM106.173 1.52185L76.6815-14.5014L59.5978-26.3481C58.2885-27.2212 57.1039-28.3436 56.1062-29.5905C57.852-30.6505 58.5382-32.6455 58.0393-34.5787L54.6724-48.1708C53.4877-52.972 49.1853-56.2767 44.2595-56.2767L33.5355-56.2767C30.2931-56.2767 28.0485-55.5282 25.8665-53.3463L13.7702-41.2499C12.274-39.7537 12.0867-37.5087 13.0844-35.7006L21.626-20.7369L21.626 5.51271C21.626 8.00616 23.6838 10.0643 26.1162 10.0643C28.6724 10.0643 30.7297 8.00616 30.7297 5.51271L30.7297-16.9961L56.8547-15.1872L72.691-6.20899L101.933 9.50274C104.552 10.8751 107.171 9.62735 108.106 7.69464C109.229 5.45041 108.356 2.70648 106.173 1.52185ZM22.7488-37.1971L30.6051-45.1161L36.7779-29.279L31.9143-26.5355L28.8593-26.5355Z"/>
  </g>
  <g id="Black-S" transform="matrix(1 0 0 1 2879.03 696)">
   <path d="M35.5957-59.0332C40.9668-59.0332 45.3613-63.4277 45.3613-68.7988C45.3613-74.1699 40.9668-78.5645 35.5957-78.5645C30.2246-78.5645 25.8301-74.1699 25.8301-68.7988C25.8301-63.4277 30.2246-59.0332 35.5957-59.0332ZM96.2891-2.63672L69.4824-17.041L54.0039-27.832C53.1738-28.418 52.4414-29.0527 51.7578-29.7852C53.0273-31.0547 53.4668-32.9102 53.0273-34.7168L50-47.0215C48.8281-51.8555 44.4824-55.127 39.5508-55.127L29.8828-55.127C26.709-55.127 24.3652-54.3457 22.2168-52.1973L11.2305-41.1621C9.61914-39.5508 9.27734-37.0117 10.4492-34.9609L18.0176-21.6797L18.0176 1.9043C18.0176 4.6875 20.3613 7.03125 23.1445 7.03125C25.9766 7.03125 28.3203 4.6875 28.3203 1.9043L28.3203-17.5293L50.7324-15.8691L64.8926-7.8125L91.4062 6.39648C94.3848 8.00781 97.3145 6.44531 98.3887 4.3457C99.6582 1.80664 98.7305-1.31836 96.2891-2.63672ZM21.2891-36.6699L26.8555-42.2852L31.5918-30.127L28.1738-28.1738L26.1719-28.1738Z"/>
  </g>
  <g id="Heavy-S" transform="matrix(1 0 0 1 2583 696)">
   <path d="M35.1117-58.7681C40.333-58.7681 44.5892-63.0244 44.5892-68.2457C44.5892-73.4554 40.333-77.7001 35.1117-77.7001C29.9134-77.7001 25.6457-73.4554 25.6457-68.2457C25.6457-63.0244 29.9134-58.7681 35.1117-58.7681ZM95.0675-2.91331L68.5374-17.1793L53.2202-27.8551C52.321-28.4871 51.5194-29.2026 50.7898-30.0156C52.1169-31.2045 52.6025-33.0254 52.163-34.809L49.1587-46.9869C48.0214-51.6711 43.814-54.8504 39.0322-54.8504L29.4564-54.8504C26.3633-54.8504 24.1117-54.0922 22.0324-52.0129L11.1498-41.093C9.61914-39.5623 9.31192-37.15 10.4146-35.2145L17.9369-22.0139L17.9369 1.3857C17.9369 4.00756 20.1539 6.23606 22.7988 6.23606C25.481 6.23606 27.6865 4.00756 27.6865 1.3857L27.6865-18.0825L50.1677-16.4223L64.2126-8.43482L90.4612 5.62435C93.2784 7.155 96.0468 5.6847 97.0634 3.68881C98.2637 1.29956 97.3821-1.66409 95.0675-2.91331ZM20.6783-36.8313L26.5443-42.7577L31.4305-30.2191L27.8166-28.1623L25.6648-28.1623Z"/>
  </g>
  <g id="Bold-S" transform="matrix(1 0 0 1 2287.05 696)">
   <path d="M34.5703-58.4717C39.624-58.4717 43.7256-62.5732 43.7256-67.627C43.7256-72.6562 39.624-76.7334 34.5703-76.7334C29.5654-76.7334 25.4395-72.6562 25.4395-67.627C25.4395-62.5732 29.5654-58.4717 34.5703-58.4717ZM93.7012-3.22266L67.4805-17.334L52.3438-27.8809C51.3672-28.5645 50.4883-29.3701 49.707-30.2734C51.0986-31.3721 51.6357-33.1543 51.1963-34.9121L48.2178-46.9482C47.1191-51.4648 43.0664-54.541 38.4521-54.541L28.9795-54.541C25.9766-54.541 23.8281-53.8086 21.8262-51.8066L11.0596-41.0156C9.61914-39.5752 9.35059-37.3047 10.376-35.498L17.8467-22.3877L17.8467 0.805664C17.8467 3.24707 19.9219 5.34668 22.4121 5.34668C24.9268 5.34668 26.9775 3.24707 26.9775 0.805664L26.9775-18.7012L49.5361-17.041L63.4521-9.13086L89.4043 4.76074C92.041 6.20117 94.6289 4.83398 95.5811 2.9541C96.7041 0.732422 95.874-2.05078 93.7012-3.22266ZM19.9951-37.0117L26.1963-43.2861L31.25-30.3223L27.417-28.1494L25.0977-28.1494Z"/>
  </g>
  <g id="Semibold-S" transform="matrix(1 0 0 1 1990.86 696)">
   <path d="M34.1971-58.2673C39.1353-58.2673 43.1302-62.2622 43.1302-67.2004C43.1302-72.1053 39.1353-76.0669 34.1971-76.0669C29.3255-76.0669 25.2973-72.1053 25.2973-67.2004C25.2973-62.2622 29.3255-58.2673 34.1971-58.2673ZM92.7592-3.43594L66.7518-17.4406L51.7395-27.8986C50.7096-28.6178 49.7773-29.4856 48.9605-30.4512C50.3966-31.4876 50.9692-33.2432 50.5298-34.9832L47.569-46.9216C46.4971-51.3227 42.551-54.3277 38.0522-54.3277L28.6507-54.3277C25.71-54.3277 23.6326-53.6131 21.684-51.6645L10.9974-40.9623C9.61914-39.5841 9.37725-37.4113 10.3493-35.6936L17.7845-22.6454L17.7845 0.405762C17.7845 2.72275 19.7619 4.7335 22.1455 4.7335C24.5446 4.7335 26.4888 2.72275 26.4888 0.405762L26.4888-19.1277L49.1007-17.4676L62.9278-9.61074L88.6756 4.16533C91.1879 5.54355 93.6514 4.24746 94.5591 2.44756C95.6288 0.341406 94.8343-2.31738 92.7592-3.43594ZM19.5241-37.1361L25.9563-43.6505L31.1256-30.3934L27.1415-28.1405L24.7066-28.1405Z"/>
  </g>
  <g id="Medium-S" transform="matrix(1 0 0 1 1694.55 696)">
   <path d="M33.9141-58.1123C38.7646-58.1123 42.6787-62.0264 42.6787-66.877C42.6787-71.6875 38.7646-75.5615 33.9141-75.5615C29.1436-75.5615 25.1895-71.6875 25.1895-66.877C25.1895-62.0264 29.1436-58.1123 33.9141-58.1123ZM92.0449-3.59766L66.1992-17.5215L51.2812-27.9121C50.2109-28.6582 49.2383-29.5732 48.3945-30.5859C49.8643-31.5752 50.4639-33.3105 50.0244-35.0371L47.0771-46.9014C46.0254-51.2148 42.1602-54.166 37.749-54.166L28.4014-54.166C25.5078-54.166 23.4844-53.4648 21.5762-51.5566L10.9502-40.9219C9.61914-39.5908 9.39746-37.4922 10.3291-35.8418L17.7373-22.8408L17.7373 0.102539C17.7373 2.3252 19.6406 4.26855 21.9434 4.26855C24.2549 4.26855 26.1182 2.3252 26.1182 0.102539L26.1182-19.4512L48.7705-17.791L62.5303-9.97461L88.123 3.71387C90.541 5.04492 92.9102 3.80273 93.7842 2.06348C94.8135 0.0449219 94.0459-2.51953 92.0449-3.59766ZM19.167-37.2305L25.7744-43.9268L31.0312-30.4473L26.9326-28.1338L24.4102-28.1338Z"/>
  </g>
  <g id="Regular-S" transform="matrix(1 0 0 1 1398.36 696)">
   <path d="M33.5449-57.9102C38.2812-57.9102 42.0898-61.7188 42.0898-66.4551C42.0898-71.1426 38.2812-74.9023 33.5449-74.9023C28.9062-74.9023 25.0488-71.1426 25.0488-66.4551C25.0488-61.7188 28.9062-57.9102 33.5449-57.9102ZM91.1133-3.80859L65.4785-17.627L50.6836-27.9297C49.5605-28.7109 48.5352-29.6875 47.6562-30.7617C49.1699-31.6895 49.8047-33.3984 49.3652-35.1074L46.4355-46.875C45.4102-51.0742 41.6504-53.9551 37.3535-53.9551L28.0762-53.9551C25.2441-53.9551 23.291-53.2715 21.4355-51.416L10.8887-40.8691C9.61914-39.5996 9.42383-37.5977 10.3027-36.0352L17.6758-23.0957L17.6758-0.292969C17.6758 1.80664 19.4824 3.66211 21.6797 3.66211C23.877 3.66211 25.6348 1.80664 25.6348-0.292969L25.6348-19.873L48.3398-18.2129L62.0117-10.4492L87.4023 3.125C89.6973 4.39453 91.9434 3.22266 92.7734 1.5625C93.75-0.341797 93.0176-2.7832 91.1133-3.80859ZM18.7012-37.3535L25.5371-44.2871L30.9082-30.5176L26.6602-28.125L24.0234-28.125Z"/>
  </g>
  <g id="Light-S" transform="matrix(1 0 0 1 1102.91 696)">
   <path d="M32.8335-57.3501C37.4033-57.3501 41.106-61.0527 41.106-65.6377C41.106-70.1738 37.4033-73.8276 32.8335-73.8276C28.3159-73.8276 24.5796-70.1738 24.5796-65.6377C24.5796-61.0527 28.3159-57.3501 32.8335-57.3501ZM88.646-4.62597L63.7984-18.0508L49.4424-28.0356C48.3496-28.7866 47.3545-29.7329 46.5059-30.7769C47.9741-31.6743 48.5786-33.3379 48.1543-34.9863L45.3154-46.4058C44.3203-50.4688 40.6816-53.2588 36.521-53.2588L27.5161-53.2588C24.7749-53.2588 22.8823-52.6055 21.0723-50.7954L10.8584-40.5815C9.61914-39.3423 9.43896-37.416 10.2876-35.8989L17.4487-23.3379L17.4487-1.23144C17.4487 0.822762 19.1948 2.60255 21.3013 2.60255C23.438 2.60255 25.1504 0.822762 25.1504-1.23144L25.1504-20.2061L47.1592-18.6216L60.4375-11.085L85.0562 2.09571C87.2754 3.3047 89.461 2.19337 90.2608 0.578621C91.2071-1.28027 90.4898-3.63085 88.646-4.62597ZM18.4287-37.1719L25.0527-43.8784L30.2573-30.5327L26.1455-28.2158L23.5845-28.2158Z"/>
  </g>
  <g id="Thin-S" transform="matrix(1 0 0 1 807.868 696)">
   <path d="M31.8926-56.6094C36.2422-56.6094 39.8047-60.1719 39.8047-64.5567C39.8047-68.8926 36.2422-72.4063 31.8926-72.4063C27.5352-72.4063 23.959-68.8926 23.959-64.5567C23.959-60.1719 27.5352-56.6094 31.8926-56.6094ZM85.3829-5.70702L61.5762-18.6113L47.8008-28.1758C46.7481-28.8867 45.793-29.793 44.9844-30.7969C46.3926-31.6543 46.9571-33.2578 46.5528-34.8262L43.834-45.7852C42.8789-49.668 39.4004-52.3379 35.4199-52.3379L26.7754-52.3379C24.1543-52.3379 22.3418-51.7246 20.5918-49.9746L10.8184-40.2012C9.61914-39.002 9.45898-37.1758 10.2676-35.7188L17.1484-23.6582L17.1484-2.47264C17.1484-0.478498 18.8145 1.20119 20.8008 1.20119C22.8574 1.20119 24.5098-0.478498 24.5098-2.47264L24.5098-20.6465L45.5977-19.1621L58.3555-11.9258L81.9532 0.734394C84.0723 1.8633 86.1778 0.83205 86.9375-0.722638C87.8438-2.52147 87.1465-4.75194 85.3829-5.70702ZM18.0684-36.9316L24.4121-43.3379L29.3965-30.5527L25.4649-28.3359L23.0039-28.3359Z"/>
  </g>
  <g id="Ultralight-S" transform="matrix(1 0 0 1 512.014 696)">
   <path d="M31.4107-56.23C35.6475-56.23 39.1382-59.7207 39.1382-64.0029C39.1382-68.2364 35.6475-71.6782 31.4107-71.6782C27.1353-71.6782 23.6411-68.2364 23.6411-64.0029C23.6411-59.7207 27.1353-56.23 31.4107-56.23ZM83.7115-6.26072L60.438-18.8984L46.96-28.2476C45.9278-28.938 44.9932-29.8237 44.2051-30.8071C45.5825-31.644 46.1265-33.2168 45.7325-34.7441L43.0752-45.4673C42.1407-49.2578 38.7442-51.8662 34.856-51.8662L26.396-51.8662C23.8364-51.8662 22.065-51.2735 20.3457-49.5542L10.7979-40.0064C9.61914-38.8276 9.46924-37.0527 10.2573-35.6265L16.9946-23.8223L16.9946-3.10838C16.9946-1.145 18.6196 0.483423 20.5444 0.483423C22.5601 0.483423 24.1817-1.145 24.1817-3.10838L24.1817-20.8721L44.7979-19.439L57.2891-12.3564L80.3638 0.0371337C82.4317 1.12503 84.4962 0.13479 85.2354-1.38914C86.1212-3.1572 85.4341-5.32615 83.7115-6.26072ZM17.8838-36.8086L24.084-43.061L28.9556-30.563L25.1162-28.3975L22.7066-28.3975Z"/>
  </g>
 </g>
</svg>
