<?xml version="1.0" encoding="UTF-8"?>
<!--Generator: Apple Native CoreSVG 175.5-->
<!DOCTYPE svg
PUBLIC "-//W3C//DTD SVG 1.1//EN"
       "http://www.w3.org/Graphics/SVG/1.1/DTD/svg11.dtd">
<svg version="1.1" xmlns="http://www.w3.org/2000/svg" xmlns:xlink="http://www.w3.org/1999/xlink" width="3300" height="2200">
 <!--glyph: "uni10066C.medium", point size: 100.0, font version: "18.0d12e2", template writer version: "101"-->
 <g id="Notes">
  <rect height="2200" id="artboard" style="fill:white;opacity:1" width="3300" x="0" y="0"/>
  <line style="fill:none;stroke:black;opacity:1;stroke-width:0.5;" x1="263" x2="3036" y1="292" y2="292"/>
  <text style="stroke:none;fill:black;font-family:sans-serif;font-size:13;font-weight:bold;" transform="matrix(1 0 0 1 263 322)">Weight/Scale Variations</text>
  <text style="stroke:none;fill:black;font-family:sans-serif;font-size:13;text-anchor:middle;" transform="matrix(1 0 0 1 559.711 322)">Ultralight</text>
  <text style="stroke:none;fill:black;font-family:sans-serif;font-size:13;text-anchor:middle;" transform="matrix(1 0 0 1 856.422 322)">Thin</text>
  <text style="stroke:none;fill:black;font-family:sans-serif;font-size:13;text-anchor:middle;" transform="matrix(1 0 0 1 1153.13 322)">Light</text>
  <text style="stroke:none;fill:black;font-family:sans-serif;font-size:13;text-anchor:middle;" transform="matrix(1 0 0 1 1449.84 322)">Regular</text>
  <text style="stroke:none;fill:black;font-family:sans-serif;font-size:13;text-anchor:middle;" transform="matrix(1 0 0 1 1746.56 322)">Medium</text>
  <text style="stroke:none;fill:black;font-family:sans-serif;font-size:13;text-anchor:middle;" transform="matrix(1 0 0 1 2043.27 322)">Semibold</text>
  <text style="stroke:none;fill:black;font-family:sans-serif;font-size:13;text-anchor:middle;" transform="matrix(1 0 0 1 2339.98 322)">Bold</text>
  <text style="stroke:none;fill:black;font-family:sans-serif;font-size:13;text-anchor:middle;" transform="matrix(1 0 0 1 2636.69 322)">Heavy</text>
  <text style="stroke:none;fill:black;font-family:sans-serif;font-size:13;text-anchor:middle;" transform="matrix(1 0 0 1 2933.4 322)">Black</text>
  <line style="fill:none;stroke:black;opacity:1;stroke-width:0.5;" x1="263" x2="3036" y1="1903" y2="1903"/>
  <g transform="matrix(1 0 0 1 263 1933)">
   <path d="M9.24805 0.830078C13.5547 0.830078 17.1387-2.74414 17.1387-7.05078C17.1387-11.3574 13.5449-14.9316 9.23828-14.9316C4.94141-14.9316 1.36719-11.3574 1.36719-7.05078C1.36719-2.74414 4.95117 0.830078 9.24805 0.830078ZM9.24805-0.654297C5.70312-0.654297 2.87109-3.49609 2.87109-7.05078C2.87109-10.6055 5.69336-13.4473 9.23828-13.4473C12.793-13.4473 15.6445-10.6055 15.6445-7.05078C15.6445-3.49609 12.8027-0.654297 9.24805-0.654297ZM5.6543-7.05078C5.6543-6.62109 5.95703-6.32812 6.40625-6.32812L8.50586-6.32812L8.50586-4.20898C8.50586-3.76953 8.79883-3.4668 9.22852-3.4668C9.67773-3.4668 9.9707-3.76953 9.9707-4.20898L9.9707-6.32812L12.0898-6.32812C12.5293-6.32812 12.832-6.62109 12.832-7.05078C12.832-7.49023 12.5293-7.79297 12.0898-7.79297L9.9707-7.79297L9.9707-9.90234C9.9707-10.3516 9.67773-10.6543 9.22852-10.6543C8.79883-10.6543 8.50586-10.3516 8.50586-9.90234L8.50586-7.79297L6.40625-7.79297C5.95703-7.79297 5.6543-7.49023 5.6543-7.05078Z"/>
  </g>
  <g transform="matrix(1 0 0 1 281.867 1933)">
   <path d="M11.709 2.91016C17.1582 2.91016 21.6699-1.61133 21.6699-7.05078C21.6699-12.5 17.1484-17.0117 11.6992-17.0117C6.25977-17.0117 1.74805-12.5 1.74805-7.05078C1.74805-1.61133 6.26953 2.91016 11.709 2.91016ZM11.709 1.25C7.09961 1.25 3.41797-2.44141 3.41797-7.05078C3.41797-11.6602 7.08984-15.3516 11.6992-15.3516C16.3086-15.3516 20.0098-11.6602 20.0098-7.05078C20.0098-2.44141 16.3184 1.25 11.709 1.25ZM7.17773-7.05078C7.17773-6.57227 7.50977-6.25 8.00781-6.25L10.8789-6.25L10.8789-3.36914C10.8789-2.88086 11.2109-2.53906 11.6895-2.53906C12.1777-2.53906 12.5195-2.87109 12.5195-3.36914L12.5195-6.25L15.4004-6.25C15.8887-6.25 16.2305-6.57227 16.2305-7.05078C16.2305-7.53906 15.8887-7.88086 15.4004-7.88086L12.5195-7.88086L12.5195-10.752C12.5195-11.25 12.1777-11.5918 11.6895-11.5918C11.2109-11.5918 10.8789-11.25 10.8789-10.752L10.8789-7.88086L8.00781-7.88086C7.50977-7.88086 7.17773-7.53906 7.17773-7.05078Z"/>
  </g>
  <g transform="matrix(1 0 0 1 305.646 1933)">
   <path d="M14.9707 5.66406C21.9336 5.66406 27.6953-0.0976562 27.6953-7.05078C27.6953-14.0137 21.9238-19.7754 14.9609-19.7754C8.00781-19.7754 2.25586-14.0137 2.25586-7.05078C2.25586-0.0976562 8.01758 5.66406 14.9707 5.66406ZM14.9707 3.84766C8.93555 3.84766 4.08203-1.01562 4.08203-7.05078C4.08203-13.0957 8.92578-17.9492 14.9609-17.9492C21.0059-17.9492 25.8691-13.0957 25.8691-7.05078C25.8691-1.01562 21.0156 3.84766 14.9707 3.84766ZM9.19922-7.05078C9.19922-6.5332 9.57031-6.17188 10.1172-6.17188L14.0625-6.17188L14.0625-2.2168C14.0625-1.67969 14.4336-1.29883 14.9512-1.29883C15.4883-1.29883 15.8594-1.66992 15.8594-2.2168L15.8594-6.17188L19.8145-6.17188C20.3516-6.17188 20.7324-6.5332 20.7324-7.05078C20.7324-7.59766 20.3613-7.96875 19.8145-7.96875L15.8594-7.96875L15.8594-11.9141C15.8594-12.4609 15.4883-12.8418 14.9512-12.8418C14.4336-12.8418 14.0625-12.4609 14.0625-11.9141L14.0625-7.96875L10.1172-7.96875C9.57031-7.96875 9.19922-7.59766 9.19922-7.05078Z"/>
  </g>
  <text style="stroke:none;fill:black;font-family:sans-serif;font-size:13;font-weight:bold;" transform="matrix(1 0 0 1 263 1953)">Design Variations</text>
  <text style="stroke:none;fill:black;font-family:sans-serif;font-size:13;" transform="matrix(1 0 0 1 263 1971)">Symbols are supported in up to nine weights and three scales.</text>
  <text style="stroke:none;fill:black;font-family:sans-serif;font-size:13;" transform="matrix(1 0 0 1 263 1989)">For optimal layout with text and other symbols, vertically align</text>
  <text style="stroke:none;fill:black;font-family:sans-serif;font-size:13;" transform="matrix(1 0 0 1 263 2007)">symbols with the adjacent text.</text>
  <line style="fill:none;stroke:#00AEEF;stroke-width:0.5;opacity:1.0;" x1="776" x2="776" y1="1919" y2="1933"/>
  <g transform="matrix(1 0 0 1 776 1933)">
   <path d="M3.31055 0.15625C3.82812 0.15625 4.08203-0.0390625 4.26758-0.585938L5.52734-4.0332L11.2891-4.0332L12.5488-0.585938C12.7344-0.0390625 12.9883 0.15625 13.4961 0.15625C14.0137 0.15625 14.3457-0.15625 14.3457-0.644531C14.3457-0.810547 14.3164-0.966797 14.2383-1.17188L9.6582-13.3691C9.43359-13.9648 9.0332-14.2676 8.4082-14.2676C7.80273-14.2676 7.39258-13.9746 7.17773-13.3789L2.59766-1.16211C2.51953-0.957031 2.49023-0.800781 2.49023-0.634766C2.49023-0.146484 2.80273 0.15625 3.31055 0.15625ZM6.00586-5.51758L8.37891-12.0898L8.42773-12.0898L10.8008-5.51758Z"/>
  </g>
  <line style="fill:none;stroke:#00AEEF;stroke-width:0.5;opacity:1.0;" x1="793.197" x2="793.197" y1="1919" y2="1933"/>
  <text style="stroke:none;fill:black;font-family:sans-serif;font-size:13;font-weight:bold;" transform="matrix(1 0 0 1 776 1953)">Margins</text>
  <text style="stroke:none;fill:black;font-family:sans-serif;font-size:13;" transform="matrix(1 0 0 1 776 1971)">Leading and trailing margins on the left and right side of each symbol</text>
  <text style="stroke:none;fill:black;font-family:sans-serif;font-size:13;" transform="matrix(1 0 0 1 776 1989)">can be adjusted by modifying the x-location of the margin guidelines.</text>
  <text style="stroke:none;fill:black;font-family:sans-serif;font-size:13;" transform="matrix(1 0 0 1 776 2007)">Modifications are automatically applied proportionally to all</text>
  <text style="stroke:none;fill:black;font-family:sans-serif;font-size:13;" transform="matrix(1 0 0 1 776 2025)">scales and weights.</text>
  <g transform="matrix(1 0 0 1 1289 1933)">
   <path d="M2.8418 1.86523L4.54102 3.57422C5.40039 4.44336 6.38672 4.38477 7.31445 3.35938L18.0078-8.42773L17.041-9.4043L6.42578 2.27539C6.07422 2.67578 5.74219 2.77344 5.27344 2.30469L4.10156 1.14258C3.63281 0.683594 3.74023 0.341797 4.14062-0.0195312L15.6152-10.8203L14.6387-11.7871L3.04688-0.898438C2.06055 0.0195312 1.98242 0.996094 2.8418 1.86523ZM9.25781-16.3281C8.83789-15.918 8.80859-15.3418 9.04297-14.9512C9.27734-14.5898 9.73633-14.3555 10.3809-14.5215C11.8457-14.8633 13.3691-14.9219 14.7949-13.9844L14.209-12.5293C13.8672-11.6992 14.043-11.1133 14.5801-10.5664L16.875-8.25195C17.3633-7.76367 17.7734-7.74414 18.3398-7.8418L19.4043-8.03711L20.0684-7.36328L20.0293-6.80664C19.9902-6.30859 20.1172-5.92773 20.6055-5.44922L21.3672-4.70703C21.8457-4.22852 22.4609-4.19922 22.9297-4.66797L25.8398-7.58789C26.3086-8.05664 26.2891-8.65234 25.8105-9.13086L25.0391-9.89258C24.5605-10.3711 24.1895-10.5273 23.7109-10.4883L23.1348-10.4395L22.4902-11.0742L22.7344-12.1973C22.8613-12.7637 22.7051-13.2031 22.1191-13.7891L19.9219-15.9766C16.582-19.2969 12.1484-19.2188 9.25781-16.3281ZM10.752-15.957C13.1836-17.7344 16.4746-17.4316 18.7012-15.2051L21.1328-12.793C21.3672-12.5586 21.4062-12.373 21.3379-12.0312L21.0156-10.5469L22.5195-9.0625L23.5059-9.12109C23.7598-9.13086 23.8379-9.11133 24.0332-8.91602L24.6094-8.33984L22.168-5.89844L21.5918-6.47461C21.3965-6.66992 21.3672-6.74805 21.377-7.01172L21.4453-7.98828L19.9512-9.47266L18.4277-9.21875C18.1055-9.15039 17.959-9.17969 17.7148-9.41406L15.7129-11.416C15.459-11.6504 15.4297-11.8164 15.5859-12.1875L16.4648-14.2773C14.9023-15.7324 12.8711-16.3574 10.8398-15.7617C10.6836-15.7227 10.625-15.8496 10.752-15.957Z"/>
  </g>
  <text style="stroke:none;fill:black;font-family:sans-serif;font-size:13;font-weight:bold;" transform="matrix(1 0 0 1 1289 1953)">Exporting</text>
  <text style="stroke:none;fill:black;font-family:sans-serif;font-size:13;" transform="matrix(1 0 0 1 1289 1971)">Symbols should be outlined when exporting to ensure the</text>
  <text style="stroke:none;fill:black;font-family:sans-serif;font-size:13;" transform="matrix(1 0 0 1 1289 1989)">design is preserved when submitting to Xcode.</text>
  <text id="template-version" style="stroke:none;fill:black;font-family:sans-serif;font-size:13;text-anchor:end;" transform="matrix(1 0 0 1 3036 1933)">Template v.4.0</text>
  <text style="stroke:none;fill:black;font-family:sans-serif;font-size:13;text-anchor:end;" transform="matrix(1 0 0 1 3036 1951)">Requires Xcode 14 or greater</text>
  <text id="descriptive-name" style="stroke:none;fill:black;font-family:sans-serif;font-size:13;text-anchor:end;" transform="matrix(1 0 0 1 3036 1969)">Generated from flame</text>
  <text style="stroke:none;fill:black;font-family:sans-serif;font-size:13;text-anchor:end;" transform="matrix(1 0 0 1 3036 1987)">Typeset at 100 points</text>
  <text style="stroke:none;fill:black;font-family:sans-serif;font-size:13;" transform="matrix(1 0 0 1 263 726)">Small</text>
  <text style="stroke:none;fill:black;font-family:sans-serif;font-size:13;" transform="matrix(1 0 0 1 263 1156)">Medium</text>
  <text style="stroke:none;fill:black;font-family:sans-serif;font-size:13;" transform="matrix(1 0 0 1 263 1586)">Large</text>
 </g>
 <g id="Guides">
  <g id="H-reference" style="fill:#27AAE1;stroke:none;" transform="matrix(1 0 0 1 339 696)">
   <path d="M0.993654 0L3.63775 0L29.3281-67.1323L30.0303-67.1323L30.0303-70.459L28.1226-70.459ZM11.6885-24.4799L46.9815-24.4799L46.2315-26.7285L12.4385-26.7285ZM55.1196 0L57.7637 0L30.6382-70.459L29.4326-70.459L29.4326-67.1323Z"/>
  </g>
  <line id="Baseline-S" style="fill:none;stroke:#27AAE1;opacity:1;stroke-width:0.5;" x1="263" x2="3036" y1="696" y2="696"/>
  <line id="Capline-S" style="fill:none;stroke:#27AAE1;opacity:1;stroke-width:0.5;" x1="263" x2="3036" y1="625.541" y2="625.541"/>
  <g id="H-reference" style="fill:#27AAE1;stroke:none;" transform="matrix(1 0 0 1 339 1126)">
   <path d="M0.993654 0L3.63775 0L29.3281-67.1323L30.0303-67.1323L30.0303-70.459L28.1226-70.459ZM11.6885-24.4799L46.9815-24.4799L46.2315-26.7285L12.4385-26.7285ZM55.1196 0L57.7637 0L30.6382-70.459L29.4326-70.459L29.4326-67.1323Z"/>
  </g>
  <line id="Baseline-M" style="fill:none;stroke:#27AAE1;opacity:1;stroke-width:0.5;" x1="263" x2="3036" y1="1126" y2="1126"/>
  <line id="Capline-M" style="fill:none;stroke:#27AAE1;opacity:1;stroke-width:0.5;" x1="263" x2="3036" y1="1055.54" y2="1055.54"/>
  <g id="H-reference" style="fill:#27AAE1;stroke:none;" transform="matrix(1 0 0 1 339 1556)">
   <path d="M0.993654 0L3.63775 0L29.3281-67.1323L30.0303-67.1323L30.0303-70.459L28.1226-70.459ZM11.6885-24.4799L46.9815-24.4799L46.2315-26.7285L12.4385-26.7285ZM55.1196 0L57.7637 0L30.6382-70.459L29.4326-70.459L29.4326-67.1323Z"/>
  </g>
  <line id="Baseline-L" style="fill:none;stroke:#27AAE1;opacity:1;stroke-width:0.5;" x1="263" x2="3036" y1="1556" y2="1556"/>
  <line id="Capline-L" style="fill:none;stroke:#27AAE1;opacity:1;stroke-width:0.5;" x1="263" x2="3036" y1="1485.54" y2="1485.54"/>
  <line id="left-margin-Regular-M" style="fill:none;stroke:#00AEEF;stroke-width:0.5;opacity:1.0;" x1="1400.46" x2="1400.46" y1="1030.79" y2="1150.12"/>
  <line id="right-margin-Regular-M" style="fill:none;stroke:#00AEEF;stroke-width:0.5;opacity:1.0;" x1="1499.23" x2="1499.23" y1="1030.79" y2="1150.12"/>
 </g>
 <g id="Symbols">
  <g id="Black-L" transform="matrix(1 0 0 1 2865.12 1556)">
   <path d="M65.1317 31.1157C101.242 31.1157 125.311 6.97779 125.311-29.2382C125.311-88.2119 74.2323-113.075 39.7952-113.075C31.476-113.075 25.7555-109.474 25.7555-102.983C25.7555-100.489 26.9042-97.8381 28.6754-95.7089C37.4233-85.0449 43.503-76.4014 43.5446-65.3007C43.5446-64.3179 43.5047-63.5024 42.9644-62.3246L45.0952-63.0628C40.0574-74.5786 34.6599-77.7703 29.3711-77.7703C25.0821-77.7703 22.217-75.0365 22.217-70.2178C22.217-67.2648 22.6995-64.9817 22.6995-60.8432C22.6995-45.4247 11.2588-40.6324 11.2588-15.7277C11.2588 12.3647 32.8168 31.1157 65.1317 31.1157ZM65.924 14.3921C43.2022 14.3921 28.042 2.33979 28.042-15.7277C28.042-32.9223 37.6754-37.3061 37.5586-60.1413C37.5586-61.6574 37.2717-63.0982 37.12-64.4373L33.3821-64.0024C37.2141-58.268 39.6846-50.5647 40.8841-43.6114C41.3798-40.696 43.1113-38.8881 45.8458-38.8881C53.8356-38.8881 58.4946-53.46 58.4946-66.0613C58.4946-79.3522 53.0331-93.1664 44.1664-102.149L39.6112-96.9401C81.509-94.538 108.127-67.3252 108.127-29.6343C108.127-3.20919 91.258 14.3921 65.924 14.3921ZM66.9582 6.00444C80.0678 6.00444 88.057-3.07057 88.057-15.539C88.057-28.7239 80.7132-41.0105 68.0893-46.3116C66.7099-46.8449 65.2577-46.0559 65.6301-44.3636C66.9552-36.5093 66.8677-29.3135 64.0009-23.4333C62.8222-27.554 61.2038-30.5347 58.8755-32.8882C57.5765-34.0484 56.2035-33.2451 56.123-31.9616C55.2528-23.1988 48.3189-20.5867 48.3189-10.4968C48.3189-0.597341 55.7576 6.00444 66.9582 6.00444Z"/>
  </g>
  <g id="Heavy-L" transform="matrix(1 0 0 1 2569.54 1556)">
   <path d="M64.0487 30.1263C99.4392 30.1263 123.038 6.40314 123.038-29.2382C123.038-87.5385 72.7389-112.085 38.5344-112.085C30.8247-112.085 25.6177-108.85 25.6177-102.983C25.6177-100.726 26.6615-98.3301 28.3186-96.3425C36.7716-86.0794 43.1909-76.9428 43.2513-65.576C43.2513-64.1096 43.1313-62.8611 42.216-61.1546L44.5612-61.8514C40.034-72.8185 34.0894-76.781 28.5195-76.781C24.658-76.781 22.0792-74.2644 22.0792-69.9554C22.0792-67.315 22.5617-64.6597 22.5617-60.8432C22.5617-45.6543 11.2588-40.0937 11.2588-15.7277C11.2588 11.7857 32.3513 30.1263 64.0487 30.1263ZM64.7967 15.3859C41.5643 15.3859 26.0494 2.91444 26.0494-15.7277C26.0494-33.7698 36.0384-38.6826 35.9492-60.0736C35.9492-61.8158 35.6016-63.4474 35.3623-64.9393L32.1835-64.0464C36.3027-58.9897 39.1082-51.7943 40.4985-44.4883C40.9485-41.9567 42.4329-40.4377 44.75-40.4377C51.9809-40.4377 56.4177-54.3938 56.4177-65.9332C56.4177-79.425 50.8069-93.1187 41.5949-102.322L37.7389-97.8953C80.3886-95.8687 107.851-67.9894 107.851-29.6122C107.851-2.63453 90.6227 15.3859 64.7967 15.3859ZM65.7626 6.7612C79.2812 6.7612 87.0889-2.7399 87.0889-15.1801C87.0889-28.1344 79.8124-40.7064 66.94-46.2798C65.758-46.7442 64.5583-46.0655 64.8618-44.6302C66.1395-36.2141 65.7025-28.4852 62.7244-22.9343C61.4585-26.9369 59.7761-29.964 57.3139-32.3554C56.2122-33.332 55.0874-32.6803 55.0069-31.5573C54.0953-23.1965 46.9608-20.2801 46.9608-9.98465C46.9608 0.0514299 54.4668 6.7612 65.7626 6.7612Z"/>
  </g>
  <g id="Bold-L" transform="matrix(1 0 0 1 2274.22 1556)">
   <path d="M62.7488 28.9044C97.2479 28.9044 120.263 5.69607 120.263-29.2382C120.263-86.6861 70.9318-110.863 36.9447-110.863C30.0104-110.863 25.4635-108.074 25.4635-102.983C25.4635-101.018 26.3767-98.9446 27.8954-97.1263C36.0318-87.2954 42.8365-77.5592 42.9124-65.9589C42.9124-63.9006 42.6628-62.1143 41.3013-59.8216L43.8407-60.4722C39.8766-70.7854 33.2558-75.5591 27.4519-75.5591C24.1354-75.5591 21.925-73.3339 21.925-69.6698C21.925-67.3765 22.4075-64.3049 22.4075-60.8432C22.4075-45.7747 11.2588-39.4401 11.2588-15.7277C11.2588 11.071 31.7825 28.9044 62.7488 28.9044ZM63.4207 16.6154C39.5581 16.6154 23.5903 3.62151 23.5903-15.7277C23.5903-34.7554 33.9503-40.1126 33.8919-60.0487C33.8919-62.0303 33.4899-63.9076 33.1578-65.6213L30.626-64.2641C35.0316-60.0674 38.3563-53.4723 39.9923-45.8252C40.3883-43.7551 41.5804-42.5673 43.4198-42.5673C49.676-42.5673 53.8884-55.5614 53.8884-65.9209C53.8884-79.5172 48.1453-92.8858 38.4882-102.544L35.4706-99.0413C78.8489-97.5207 107.543-68.901 107.543-29.5742C107.543-1.92746 89.8612 16.6154 63.4207 16.6154ZM64.302 7.48998C78.2085 7.48998 85.7784-2.43691 85.7784-14.7866C85.7784-27.4267 78.6013-40.2404 65.5259-46.0998C64.5673-46.4871 63.6528-45.9318 63.8792-44.7892C65.1253-35.7634 64.3027-27.5079 61.216-22.3493C59.85-26.1984 58.0907-29.2719 55.4894-31.6872C54.6112-32.4557 53.7639-31.9736 53.6835-31.0355C52.7256-23.1592 45.4122-19.9184 45.4122-9.44387C45.4122 0.694199 52.9505 7.48998 64.302 7.48998Z"/>
  </g>
  <g id="Semibold-L" transform="matrix(1 0 0 1 1978.46 1556)">
   <path d="M61.8527 28.0621C95.7373 28.0621 118.35 5.20862 118.35-29.2382C118.35-86.0985 69.6861-110.021 35.8487-110.021C29.4491-110.021 25.3572-107.539 25.3572-102.983C25.3572-101.219 26.1804-99.3683 27.6036-97.6667C35.5219-88.1338 42.5921-77.9842 42.6788-66.2229C42.6788-63.7565 42.3398-61.5994 40.6706-58.9027L43.3441-59.5214C39.7681-69.3838 32.6811-74.7168 26.7158-74.7168C23.7751-74.7168 21.8187-72.6923 21.8187-69.473C21.8187-67.4189 22.3012-64.0602 22.3012-60.8432C22.3012-45.8576 11.2588-38.9895 11.2588-15.7277C11.2588 10.5783 31.3903 28.0621 61.8527 28.0621ZM62.472 17.463C38.175 17.463 21.895 4.10896 21.895-15.7277C21.895-35.4348 32.5107-41.0985 32.4736-60.0316C32.4736-62.1783 32.0341-64.2248 31.6381-66.0915L29.5522-64.4142C34.1553-60.8104 37.838-54.629 39.6433-46.7468C40.0022-44.9949 40.9927-44.0355 42.5028-44.0355C48.087-44.0355 52.1447-56.3663 52.1447-65.9125C52.1447-79.5807 46.3103-92.7254 36.3464-102.698L33.9068-99.8314C77.7874-98.6595 107.33-69.5295 107.33-29.5479C107.33-1.44001 89.3362 17.463 62.472 17.463ZM63.2951 7.99239C77.469 7.99239 84.8749-2.22804 84.8749-14.5153C84.8749-26.9389 77.7663-39.9192 64.551-45.9757C63.7465-46.3098 63.0286-45.8395 63.2018-44.8988C64.4262-35.4527 63.3376-26.8341 60.1762-21.946C58.7412-25.6893 56.9289-28.7949 54.2316-31.2265C53.5075-31.8516 52.8515-31.4864 52.7711-30.6757C51.7813-23.1334 44.3446-19.6691 44.3446-9.07105C44.3446 1.13732 51.9051 7.99239 63.2951 7.99239Z"/>
  </g>
  <g id="Medium-L" transform="matrix(1 0 0 1 1682.48 1556)">
   <path d="M61.1732 27.4234C94.5919 27.4234 116.899 4.83901 116.899-29.2382C116.899-85.6529 68.7415-109.382 35.0178-109.382C29.0234-109.382 25.2766-107.133 25.2766-102.983C25.2766-101.372 26.0315-99.6895 27.3824-98.0764C35.1352-88.7695 42.4068-78.3064 42.5017-66.423C42.5017-63.6472 42.0949-61.209 40.1925-58.2059L42.9675-58.8004C39.6859-68.321 32.2454-74.0781 26.1577-74.0781C23.502-74.0781 21.7381-72.2059 21.7381-69.3237C21.7381-67.4511 22.2206-63.8748 22.2206-60.8432C22.2206-45.9206 11.2588-38.6479 11.2588-15.7277C11.2588 10.2047 31.093 27.4234 61.1732 27.4234ZM61.7527 18.1056C37.1263 18.1056 20.6095 4.47857 20.6095-15.7277C20.6095-35.95 31.4192-41.8461 31.3982-60.0185C31.3982-62.2904 30.9302-64.4654 30.4858-66.448L28.738-64.5281C33.4909-61.3738 37.445-55.5062 39.3786-47.4457C39.7094-45.9349 40.547-45.1487 41.8075-45.1487C46.8821-45.1487 50.8225-56.9767 50.8225-65.9061C50.8225-79.6289 44.919-92.6037 34.7224-102.814L32.7211-100.43C76.9825-99.523 107.169-70.006 107.169-29.528C107.169-1.07041 88.9382 18.1056 61.7527 18.1056ZM62.5316 8.37335C76.9083 8.37335 84.1899-2.06966 84.1899-14.3097C84.1899-26.569 77.1333-39.6757 63.8118-45.8816C63.1241-46.1754 62.5552-45.7696 62.6882-44.9819C63.896-35.2171 62.6059-26.3232 59.3878-21.6402C57.9004-25.3033 56.0479-28.4331 53.2778-30.8772C52.6706-31.3935 52.1597-31.117 52.0793-30.4029C51.0653-23.1139 43.5351-19.48 43.5351-8.78837C43.5351 1.47331 51.1125 8.37335 62.5316 8.37335Z"/>
  </g>
  <g id="Regular-L" transform="matrix(1 0 0 1 1386.71 1556)">
   <path d="M60.2869 26.5903C93.0978 26.5903 115.007 4.35692 115.007-29.2382C115.007-85.0718 67.5094-108.549 33.9339-108.549C28.4683-108.549 25.1714-106.604 25.1714-102.983C25.1714-101.571 25.8374-100.109 27.0939-98.6108C34.6308-89.5987 42.1651-78.7267 42.2707-66.6841C42.2707-63.5047 41.7754-60.6999 39.5688-57.2971L42.4762-57.86C39.5786-66.9348 31.677-73.245 25.4298-73.245C23.1456-73.245 21.633-71.5714 21.633-69.129C21.633-67.493 22.1155-63.6328 22.1155-60.8432C22.1155-46.0026 11.2588-38.2023 11.2588-15.7277C11.2588 9.7174 30.7051 26.5903 60.2869 26.5903ZM60.8145 18.9439C35.7584 18.9439 18.9328 4.96066 18.9328-15.7277C18.9328-36.6219 29.9954-42.8211 29.9954-60.0016C29.9954-62.4367 29.4904-64.7791 28.9827-66.913L27.676-64.6765C32.6242-62.1086 36.9324-56.6502 39.0335-48.3572C39.3275-47.1611 39.9658-46.6007 40.9006-46.6007C45.3105-46.6007 49.0979-57.7728 49.0979-65.8977C49.0979-79.6917 43.1043-92.4449 32.6042-102.966L31.1745-101.212C75.9327-100.649 106.958-70.6276 106.958-29.502C106.958-0.588315 88.419 18.9439 60.8145 18.9439ZM61.5358 8.87024C76.1769 8.87024 83.2964-1.86307 83.2964-14.0414C83.2964-26.0865 76.3075-39.358 62.8476-45.7588C62.3123-46.0001 61.9379-45.6784 62.0183-45.0903C63.2046-34.9098 61.6515-25.6568 58.3594-21.2413C56.8037-24.7998 54.8988-27.9613 52.0338-30.4216C51.579-30.796 51.2573-30.6352 51.1769-30.0471C50.1314-23.0884 42.4792-19.2334 42.4792-8.41965C42.4792 1.91156 50.0787 8.87024 61.5358 8.87024Z"/>
  </g>
  <g id="Light-L" transform="matrix(1 0 0 1 1090.83 1556)">
   <path d="M59.6571 25.7696C91.8573 25.7696 113.347 3.89887 113.347-29.2382C113.347-84.3656 66.536-107.729 32.6552-107.729C27.8575-107.729 25.1714-106.051 25.1714-102.983C25.1714-101.762 25.7419-100.567 26.9221-99.1452C34.5544-90.0185 42.127-78.803 42.1943-67.2185C42.1943-63.6765 41.4128-60.4899 39.0153-57.1253L41.5983-57.6883C38.6434-66.4767 30.2838-72.4243 24.6091-72.4243C22.8021-72.4243 21.633-71.0943 21.633-69.1863C21.633-67.5312 22.1155-63.671 22.1155-60.8432C22.1155-45.0293 11.2588-37.8397 11.2588-15.7277C11.2588 9.24026 30.3616 25.7696 59.6571 25.7696ZM59.9939 19.7837C34.5179 19.7837 17.2915 5.41871 17.2915-15.7277C17.2915-36.8891 28.1633-42.0386 28.1633-60.3642C28.1633-62.7039 27.7536-65.2753 27.2842-67.7718L26.1301-65.8789C30.8302-64.0362 36.1689-58.8069 38.4991-50.8955C38.774-49.9284 39.2978-49.4253 40.1563-49.4253C43.6692-49.4253 47.6284-58.6507 47.6284-66.8329C47.6284-79.768 41.8828-91.1662 30.9629-103.176L29.9339-101.765C73.8906-101.814 106.958-71.83 106.958-29.4066C106.958-0.130268 88.0563 19.7837 59.9939 19.7837ZM60.6578 8.03049C74.8027 8.03049 81.6742-2.3402 81.6742-14.0986C81.6742-25.743 74.857-38.461 61.9315-44.7282C61.4153-44.9695 61.0599-44.6478 61.1403-44.0979C62.4793-34.0509 60.9644-25.2942 57.7868-21.0505C56.2121-24.4563 54.2689-27.5796 51.4804-29.9063C51.0446-30.2616 50.7229-30.1008 50.6425-29.5509C49.597-22.8403 42.2692-19.0998 42.2692-8.64867C42.2692 1.31992 49.5634 8.03049 60.6578 8.03049Z"/>
  </g>
  <g id="Thin-L" transform="matrix(1 0 0 1 795.218 1556)">
   <path d="M58.8241 24.6842C90.2166 24.6842 111.15 3.29307 111.15-29.2382C111.15-83.4317 65.2487-106.643 30.964-106.643C27.0498-106.643 25.1714-105.319 25.1714-102.983C25.1714-102.014 25.6157-101.172 26.6949-99.8519C34.4535-90.5739 42.0765-78.904 42.0934-67.9252C42.0934-63.9037 40.9332-60.2123 38.2833-56.8982L40.4372-57.4611C37.4065-65.8709 28.4411-71.3389 23.5237-71.3389C22.3477-71.3389 21.633-70.4633 21.633-69.262C21.633-67.5816 22.1155-63.7215 22.1155-60.8432C22.1155-43.7419 11.2588-37.3601 11.2588-15.7277C11.2588 8.60922 29.9072 24.6842 58.8241 24.6842ZM58.9085 20.8943C32.8772 20.8943 15.1207 6.02451 15.1207-15.7277C15.1207-37.2425 25.74-41.0037 25.74-60.8438C25.74-63.0573 25.4566-65.9316 25.0376-68.9077L24.0855-67.4691C28.4575-66.5856 35.1593-61.6592 37.7923-54.2527C38.042-53.5885 38.4143-53.1611 39.1718-53.1611C41.4984-53.1611 45.6847-59.8118 45.6847-68.0698C45.6847-79.869 40.2674-89.475 28.7921-103.453L28.2932-102.497C71.1897-103.353 106.958-73.4202 106.958-29.2804C106.958 0.475535 87.5767 20.8943 58.9085 20.8943ZM59.4967 6.91985C72.9853 6.91985 79.5286-2.97125 79.5286-14.1744C79.5286-25.2886 72.9387-37.2746 60.7199-43.3651C60.2289-43.6064 59.8988-43.2847 59.9792-42.7853C61.5201-32.9151 60.0557-24.8146 57.0295-20.7981C55.4296-24.0019 53.436-27.0748 50.7484-29.2247C50.3378-29.5548 50.0161-29.394 49.9357-28.8946C48.8903-22.5122 41.9916-18.9231 41.9916-8.95157C41.9916 0.537424 48.8818 6.91985 59.4967 6.91985Z"/>
  </g>
  <g id="Ultralight-L" transform="matrix(1 0 0 1 499.069 1556)">
   <path d="M58.3974 24.1283C89.3762 24.1283 110.026 2.98278 110.026-29.2382C110.026-82.9533 64.5893-106.087 30.0977-106.087C26.6361-106.087 25.1714-104.944 25.1714-102.983C25.1714-102.144 25.5511-101.483 26.5786-100.214C34.4018-90.8583 42.0506-78.9557 42.0416-68.2872C42.0416-64.02 40.6875-60.07 37.9083-56.7818L39.8425-57.3447C36.773-65.5606 27.4973-70.783 22.9678-70.783C22.115-70.783 21.633-70.1401 21.633-69.3008C21.633-67.6075 22.1155-63.7473 22.1155-60.8432C22.1155-43.0826 11.2588-37.1144 11.2588-15.7277C11.2588 8.286 29.6745 24.1283 58.3974 24.1283ZM58.3525 21.4632C32.0368 21.4632 14.0088 6.3348 14.0088-15.7277C14.0088-37.4235 24.4989-40.4736 24.4989-61.0894C24.4989-63.2383 24.2801-66.2678 23.887-69.4895L23.0383-68.2836C27.2422-67.8914 34.6421-63.1201 37.4303-55.9722C37.6671-55.4632 37.9618-55.0745 38.6676-55.0745C40.3865-55.0745 44.6892-60.4065 44.6892-68.7033C44.6892-79.9207 39.4399-88.6088 27.6802-103.596L27.4529-102.872C69.8063-104.142 106.958-74.2347 106.958-29.2157C106.958 0.785825 87.3311 21.4632 58.3525 21.4632ZM58.902 6.35098C72.0545 6.35098 78.4297-3.29447 78.4297-14.2132C78.4297-25.0559 71.9561-36.6669 60.0993-42.667C59.6213-42.9083 59.3041-42.5866 59.3845-42.113C61.0288-32.3333 59.5903-24.5689 56.6417-20.6688C55.0288-23.7692 53.0093-26.8162 50.3734-28.8756C49.9758-29.1928 49.6541-29.032 49.5737-28.5585C48.5283-22.3441 41.8494-18.8326 41.8494-9.10672C41.8494 0.136633 48.5328 6.35098 58.902 6.35098Z"/>
  </g>
  <g id="Black-M" transform="matrix(1 0 0 1 2879.63 1126)">
   <path d="M51.3058 16.91C79.8185 16.91 98.8117-2.09793 98.8117-30.5878C98.8117-76.7602 58.6624-96.2785 31.7413-96.2785C24.8628-96.2785 20.0723-93.2116 20.0723-87.7212C20.0723-85.6106 21.0394-83.3743 22.4994-81.6132C29.5432-72.9914 33.9666-66.6721 33.9776-58.3627C33.9776-57.9679 33.9767-57.6564 33.8545-57.2035L35.2771-57.8109C30.9276-67.1655 27.1541-68.9268 23.3756-68.9268C19.7501-68.9268 17.3309-66.6685 17.3309-62.5697C17.3309-60.0107 17.7048-58.5616 17.7048-55.0735C17.7048-42.7989 8.72266-39.8293 8.72266-20.1206C8.72266 2.07677 25.778 16.91 51.3058 16.91ZM51.9316 2.4741C34.7101 2.4741 23.2154-6.55481 23.2154-20.1206C23.2154-32.7498 30.3474-35.5493 30.2332-54.637C30.2332-55.6045 30.0759-56.5877 30.0389-57.543L26.6831-57.6463C29.3715-52.7192 31.1372-46.3457 31.9336-41.3136C32.3544-38.7561 33.8927-37.1149 36.3595-37.1149C43.0803-37.1149 46.904-48.67 46.904-59.3531C46.904-69.361 42.8347-79.9835 36.2052-86.955L32.1294-82.2935C63.8347-80.1923 84.0072-59.6875 84.0072-30.9007C84.0072-10.8538 71.1982 2.4741 51.9316 2.4741ZM52.7839-4.04799C62.5218-4.04799 68.8337-10.6635 68.8337-20.2907C68.8337-30.6494 63.1095-39.848 53.6153-43.7029C52.3795-44.1753 51.04-43.4693 51.3878-41.9426C52.4757-36.3584 52.7136-31.3088 50.6037-26.4936C49.7628-29.7667 48.5588-32.0311 46.8804-33.8036C45.7069-34.8577 44.43-34.105 44.3677-32.978C43.729-25.8771 38.5734-24.1305 38.5734-16.5392C38.5734-9.03624 44.2374-4.04799 52.7839-4.04799Z"/>
  </g>
  <g id="Heavy-M" transform="matrix(1 0 0 1 2583.96 1126)">
   <path d="M50.3051 16.0185C78.1701 16.0185 96.7432-2.61743 96.7432-30.5878C96.7432-76.1671 57.2923-95.3871 30.6268-95.3871C24.2824-95.3871 19.9376-92.6524 19.9376-87.7212C19.9376-85.8248 20.811-83.813 22.1664-82.1834C28.9131-73.9639 33.6651-67.1943 33.6979-58.5826C33.6979-57.7483 33.6451-57.0489 33.174-56.0756L34.8361-56.6425C30.991-65.4872 26.7249-68.0353 22.6189-68.0353C19.3672-68.0353 17.1962-65.9578 17.1962-62.3079C17.1962-60.0562 17.57-58.2434 17.57-55.0735C17.57-43.1132 8.72266-39.3361 8.72266-20.1206C8.72266 1.55471 25.3547 16.0185 50.3051 16.0185ZM50.9054 3.36814C33.2234 3.36814 21.4189-6.0353 21.4189-20.1206C21.4189-33.5537 28.9161-36.9671 28.8289-54.5374C28.8289-55.7346 28.6035-56.8833 28.4773-57.9545L25.6541-57.5783C28.6461-53.247 30.6442-47.3488 31.606-41.9367C31.9838-39.7332 33.2911-38.3692 35.357-38.3692C41.4186-38.3692 45.0093-49.5017 45.0093-59.1415C45.0093-69.4251 40.7711-80.0548 33.8428-87.1044L30.4136-83.1761C62.9278-81.3858 83.7377-60.2258 83.7377-30.8879C83.7377-10.3343 70.6106 3.36814 50.9054 3.36814ZM51.6961-3.23074C61.8796-3.23074 68.0369-10.2962 68.0369-19.9345C68.0369-30.1048 62.3627-39.6335 52.5763-43.7669C51.5317-44.172 50.4373-43.5738 50.7177-42.2947C51.7453-36.149 51.6379-30.5326 49.4086-26.0233C48.4843-29.1952 47.2212-31.5083 45.4049-33.3304C44.4226-34.2067 43.3882-33.6022 43.3259-32.6285C42.6468-25.8978 37.2651-23.8431 37.2651-16.0174C37.2651-8.34745 43.023-3.23074 51.6961-3.23074Z"/>
  </g>
  <g id="Bold-M" transform="matrix(1 0 0 1 2288.4 1126)">
   <path d="M49.1857 15.0213C76.3261 15.0213 94.4293-3.19857 94.4293-30.5878C94.4293-75.5035 55.7597-94.3898 29.38-94.3898C23.6332-94.3898 19.7868-92.0268 19.7868-87.7212C19.7868-86.0645 20.5555-84.3037 21.794-82.8212C28.2083-75.0518 33.3278-67.7786 33.385-58.8285C33.385-57.5027 33.2742-56.3692 32.4127-54.8138L34.3427-55.3356C31.0618-63.6097 26.2448-67.0381 21.7724-67.0381C18.9389-67.0381 17.0454-65.1628 17.0454-62.015C17.0454-60.1071 17.4193-57.8873 17.4193-55.0735C17.4193-43.4647 8.72266-38.7843 8.72266-20.1206C8.72266 0.970706 24.8812 15.0213 49.1857 15.0213ZM49.7574 4.36825C31.5603 4.36825 19.4094-5.45416 19.4094-20.1206C19.4094-34.4529 27.3151-38.5531 27.258-54.4259C27.258-55.8801 26.9565-57.2139 26.7305-58.4148L24.5029-57.5022C27.8346-53.8373 30.0927-48.4709 31.2395-42.6336C31.5692-40.8263 32.6182-39.7723 34.2355-39.7723C39.5598-39.7723 42.8898-50.4322 42.8898-58.9048C42.8898-69.4969 38.4627-80.1344 31.2002-87.2715L28.4943-84.1634C61.9133-82.7209 83.4362-60.8281 83.4362-30.8736C83.4362-9.75318 69.9534 4.36825 49.7574 4.36825ZM50.4793-2.31652C61.1611-2.31652 67.1457-9.88535 67.1457-19.5361C67.1457-29.4956 61.5274-39.3936 51.414-43.8386C50.5833-44.1682 49.7631-43.6906 49.9681-42.6886C50.9281-35.9148 50.4345-29.6643 48.0717-25.4973C47.0541-28.5558 45.725-30.9236 43.7543-32.8009C42.9859-33.4784 42.2228-33.0398 42.1605-32.2376C41.4362-25.9209 35.8017-23.5216 35.8017-15.4337C35.8017-7.57693 41.6645-2.31652 50.4793-2.31652Z"/>
  </g>
  <g id="Semibold-M" transform="matrix(1 0 0 1 1992.49 1126)">
   <path d="M48.414 14.3338C75.0549 14.3338 92.8341-3.59921 92.8341-30.5878C92.8341-75.0461 54.7031-93.7023 28.5205-93.7023C23.1856-93.7023 19.6829-91.5955 19.6829-87.7212C19.6829-86.2297 20.3794-84.6419 21.5372-83.2609C27.7224-75.8019 33.0952-68.1813 33.1693-58.998C33.1693-57.3334 33.0185-55.9007 31.8879-53.9439L34.0026-54.4345C31.1107-62.3154 25.9138-66.3506 21.1888-66.3506C18.6436-66.3506 16.9415-64.6147 16.9415-61.8131C16.9415-60.1423 17.3154-57.6419 17.3154-55.0735C17.3154-43.7071 8.72266-38.4039 8.72266-20.1206C8.72266 0.568099 24.5547 14.3338 48.414 14.3338ZM48.966 5.05771C30.4138 5.05771 18.024-5.05352 18.024-20.1206C18.024-35.0729 26.2113-39.6465 26.175-54.3491C26.175-55.9805 25.821-57.4418 25.5262-58.7321L23.7093-57.4498C27.2751-54.2443 29.7124-49.2445 30.9868-43.1141C31.2834-41.5798 32.1543-40.7395 33.4624-40.7395C38.2783-40.7395 41.4287-51.0736 41.4287-58.7417C41.4287-69.5463 36.8713-80.1894 29.3783-87.3867L27.1711-84.8441C61.2139-83.6413 83.2284-61.2433 83.2284-30.8638C83.2284-9.35255 69.5002 5.05771 48.966 5.05771ZM49.6404-1.68626C60.6659-1.68626 66.5312-9.60211 66.5312-19.2614C66.5312-29.0756 60.9515-39.2282 50.6127-43.888C49.9295-44.1657 49.2983-43.7712 49.4513-42.9602C50.3648-35.7533 49.605-29.0657 47.1501-25.1347C46.0681-28.1151 44.6935-30.5204 42.6164-32.4359C41.9955-32.9764 41.4194-32.6521 41.3571-31.9681C40.6017-25.9369 34.7928-23.3 34.7928-15.0314C34.7928-7.04574 40.728-1.68626 49.6404-1.68626Z"/>
  </g>
  <g id="Medium-M" transform="matrix(1 0 0 1 1696.38 1126)">
   <path d="M47.8289 13.8125C74.091 13.8125 91.6246-3.90299 91.6246-30.5878C91.6246-74.6992 53.902-93.181 27.8687-93.181C22.8462-93.181 19.6041-91.2685 19.6041-87.7212C19.6041-86.3549 20.2458-84.8984 21.3426-83.5943C27.354-76.3705 32.9189-68.4867 33.0057-59.1265C33.0057-57.2051 32.8247-55.5455 31.49-53.2844L33.7448-53.7513C31.1478-61.334 25.6628-65.8293 20.7463-65.8293C18.4197-65.8293 16.8627-64.1991 16.8627-61.66C16.8627-60.1689 17.2366-57.4558 17.2366-55.0735C17.2366-43.8909 8.72266-38.1155 8.72266-20.1206C8.72266 0.262825 24.3072 13.8125 47.8289 13.8125ZM48.3659 5.5805C29.5444 5.5805 16.9735-4.74975 16.9735-20.1206C16.9735-35.5429 25.3744-40.4756 25.3539-54.2908C25.3539-56.0566 24.9601-57.6146 24.6131-58.9728L23.1076-57.41C26.851-54.5529 29.4241-49.831 30.7953-43.4784C31.0667-42.1512 31.8026-41.473 32.8762-41.473C37.3067-41.473 40.3208-51.56 40.3208-58.6179C40.3208-69.5838 35.6647-80.231 27.997-87.4741L26.1678-85.3602C60.6836-84.3393 83.0708-61.5581 83.0708-30.8563C83.0708-9.04877 69.1567 5.5805 48.3659 5.5805ZM49.0043-1.20838C60.2903-1.20838 66.0653-9.38735 66.0653-19.0532C66.0653-28.7572 60.5148-39.1028 50.0052-43.9254C49.4337-44.1637 48.9458-43.8323 49.0595-43.1661C49.9376-35.6309 48.976-28.6118 46.4512-24.8597C45.3205-27.7809 43.9114-30.2147 41.7536-32.1592C41.2445-32.5957 40.8103-32.3581 40.748-31.7638C39.9688-25.9489 34.0278-23.132 34.0278-14.7262C34.0278-6.64296 40.0179-1.20838 49.0043-1.20838Z"/>
  </g>
  <g id="Regular-M" transform="matrix(1 0 0 1 1400.46 1126)">
   <path d="M47.0657 13.1325C72.8337 13.1325 90.0469-4.29922 90.0469-30.5878C90.0469-74.2468 52.857-92.5011 27.0187-92.5011C22.4036-92.5011 19.5014-90.842 19.5014-87.7212C19.5014-86.5183 20.0717-85.233 21.0886-84.0291C26.8734-77.1123 32.6889-68.8851 32.7924-59.2942C32.7924-57.0376 32.5718-55.0821 30.971-52.4241L33.4084-52.8602C31.1961-60.0539 25.3354-65.1493 20.1692-65.1493C18.1277-65.1493 16.76-63.657 16.76-61.4603C16.76-60.2036 17.1338-57.213 17.1338-55.0735C17.1338-44.1305 8.72266-37.7393 8.72266-20.1206C8.72266-0.135358 23.9843 13.1325 47.0657 13.1325ZM47.5832 6.26239C28.4105 6.26239 15.6034-4.35351 15.6034-20.1206C15.6034-36.156 24.2828-41.557 24.2828-54.2148C24.2828-56.1558 23.8371-57.84 23.4221-59.2866L22.3227-57.3582C26.2977-54.9554 29.0481-50.5961 30.5454-43.9536C30.7841-42.8964 31.3438-42.4296 32.1116-42.4296C36.0393-42.4296 38.8757-52.1944 38.8757-58.4566C38.8757-69.6327 34.0907-80.2854 26.1951-87.588L24.8591-86.0334C59.9919-85.2496 82.8652-61.9687 82.8652-30.8466C82.8652-8.65254 68.7085 6.26239 47.5832 6.26239ZM48.1746-0.585046C59.8005-0.585046 65.4577-9.10723 65.4577-18.7816C65.4577-28.3418 59.9452-38.9392 49.2127-43.9743C48.7871-44.1612 48.4861-43.912 48.5484-43.4346C49.3805-35.4712 48.1555-28.0197 45.5397-24.501C44.3454-27.3449 42.8913-29.816 40.6282-31.7982C40.2649-32.0992 40.0157-31.9746 39.9534-31.4973C39.1434-25.9647 33.03-22.9128 33.03-14.3283C33.03-6.11761 39.0917-0.585046 48.1746-0.585046Z"/>
  </g>
  <g id="Light-M" transform="matrix(1 0 0 1 1104.49 1126)">
   <path d="M46.501 12.3968C71.7215 12.3968 88.5583-4.70988 88.5583-30.5878C88.5583-73.6137 51.9844-91.7653 25.8722-91.7653C21.856-91.7653 19.5014-90.3458 19.5014-87.7212C19.5014-86.6894 19.9861-85.6437 20.9346-84.5082C26.805-77.4887 32.6546-68.9535 32.7239-59.7733C32.7239-57.1916 32.2467-54.8939 30.4748-52.2701L32.6213-52.7062C30.3576-59.6432 24.0863-64.4136 19.4334-64.4136C17.8197-64.4136 16.76-63.2293 16.76-61.5116C16.76-60.2378 17.1338-57.2472 17.1338-55.0735C17.1338-43.2579 8.72266-37.4142 8.72266-20.1206C8.72266-0.563131 23.6763 12.3968 46.501 12.3968ZM46.8474 7.01527C27.2983 7.01527 14.1318-3.94285 14.1318-20.1206C14.1318-36.3956 22.6402-40.8554 22.6402-54.5399C22.6402-56.3954 22.28-58.2849 21.8992-60.0566L20.9367-58.4362C24.6892-56.6836 28.3636-52.5296 30.0663-46.2293C30.2878-45.3775 30.7449-44.962 31.4442-44.962C34.5677-44.962 37.5581-52.9815 37.5581-59.295C37.5581-69.7012 32.9956-79.1389 24.7236-87.7763L23.7469-86.5296C58.1611-86.2933 82.8652-63.0467 82.8652-30.761C82.8652-8.24187 68.3834 7.01527 46.8474 7.01527ZM47.3875-1.33793C58.5685-1.33793 64.0032-9.53501 64.0032-18.8329C64.0032-28.0338 58.6448-38.1349 48.3914-43.0503C47.9829-43.2372 47.699-42.988 47.7613-42.5449C48.7303-34.7012 47.5395-27.6946 45.0264-24.3299C43.8149-27.0369 42.3266-29.4738 40.132-31.3362C39.7858-31.6201 39.5366-31.4955 39.4743-31.0524C38.6643-25.7422 32.8418-22.793 32.8418-14.5336C32.8418-6.64805 38.6297-1.33793 47.3875-1.33793Z"/>
  </g>
  <g id="Thin-M" transform="matrix(1 0 0 1 808.766 1126)">
   <path d="M45.7542 11.4236C70.2505 11.4236 86.5894-5.25302 86.5894-30.5878C86.5894-72.7764 50.8302-90.7922 24.356-90.7922C21.1318-90.7922 19.5014-89.6895 19.5014-87.7212C19.5014-86.9157 19.873-86.1868 20.731-85.1419C26.7145-77.9866 32.6094-69.044 32.6334-60.4069C32.6334-57.3953 31.8167-54.6449 29.8185-52.0664L31.5803-52.5025C29.2487-59.1001 22.4343-63.4404 18.4603-63.4404C17.4123-63.4404 16.76-62.6635 16.76-61.5795C16.76-60.2831 17.1338-57.2925 17.1338-55.0735C17.1338-42.1037 8.72266-36.9842 8.72266-20.1206C8.72266-1.1289 23.269 11.4236 45.7542 11.4236ZM45.8743 8.01102C25.8273 8.01102 12.1856-3.39972 12.1856-20.1206C12.1856-36.7124 20.4676-39.9276 20.4676-54.9699C20.4676-56.7122 20.2206-58.8733 19.8851-61.075L19.1036-59.8619C22.562-58.9693 27.4584-55.0869 29.4326-49.2392C29.6316-48.6589 29.9528-48.3114 30.5616-48.3114C32.6215-48.3114 35.8156-54.0225 35.8156-60.4039C35.8156-69.7917 31.5473-77.6227 22.7774-88.0252L22.2759-87.1859C55.7396-87.6738 82.8652-64.4724 82.8652-30.6479C82.8652-7.69874 67.9534 8.01102 45.8743 8.01102ZM46.3465-2.33367C56.9391-2.33367 62.0796-10.1008 62.0796-18.9008C62.0796-27.6265 56.9248-37.0713 47.3051-41.8282C46.9193-42.0152 46.658-41.7659 46.7203-41.3681C47.8703-33.6828 46.7248-27.2647 44.3475-24.1036C43.1134-26.6296 41.5798-29.0212 39.4757-30.7252C39.1522-30.9864 38.9029-30.8618 38.8406-30.464C38.0307-25.4481 32.5929-22.6346 32.5929-14.8052C32.5929-7.3496 38.0187-2.33367 46.3465-2.33367Z"/>
  </g>
  <g id="Ultralight-M" transform="matrix(1 0 0 1 512.559 1126)">
   <path d="M45.3717 10.9252C69.4971 10.9252 85.5809-5.53121 85.5809-30.5878C85.5809-72.3475 50.239-90.2938 23.5794-90.2938C20.7609-90.2938 19.5014-89.3533 19.5014-87.7212C19.5014-87.0316 19.815-86.465 20.6266-85.4664C26.6681-78.2416 32.5862-69.0904 32.587-60.7315C32.587-57.4996 31.5965-54.5174 29.4823-51.9621L31.0471-52.3982C28.6808-58.8219 21.5881-62.942 17.9618-62.942C17.2037-62.942 16.76-62.3737 16.76-61.6143C16.76-60.3063 17.1338-57.3157 17.1338-55.0735C17.1338-41.5126 8.72266-36.764 8.72266-20.1206C8.72266-1.41868 23.0603 10.9252 45.3717 10.9252ZM45.3759 8.52103C25.0738 8.52103 11.1887-3.12153 11.1887-20.1206C11.1887-36.8747 19.3549-39.4523 19.3549-55.1901C19.3549-56.8745 19.1658-59.1747 18.8535-61.5966L18.1648-60.5921C21.4724-60.14 26.9948-56.3967 29.1081-50.7808C29.2954-50.3397 29.5472-50.0269 30.1096-50.0269C31.6247-50.0269 34.923-54.5557 34.923-60.9719C34.923-69.8381 30.8054-76.8461 21.7805-88.1527L21.5225-87.5221C54.4993-88.3809 82.8652-65.2027 82.8652-30.5899C82.8652-7.42055 67.7332 8.52103 45.3759 8.52103ZM45.8133-2.84369C56.1045-2.84369 61.0944-10.3906 61.0944-18.9356C61.0944-27.4178 56.0439-36.5265 46.7487-41.2023C46.3745-41.3892 46.1248-41.14 46.1871-40.7653C47.4299-33.1612 46.3075-27.0444 43.9997-23.9877C42.7541-26.421 41.1973-28.7894 39.1395-30.4122C38.8276-30.6619 38.5784-30.5373 38.5161-30.1626C37.7061-25.2974 32.4654-22.5534 32.4654-14.9443C32.4654-7.70893 37.7057-2.84369 45.8133-2.84369Z"/>
  </g>
  <g id="Black-S" transform="matrix(1 0 0 1 2890.99 696)">
   <path d="M40.4785 5.85938C62.9883 5.85938 77.9785-9.13086 77.9785-31.5918C77.9785-67.9199 46.3379-83.3008 25.1465-83.3008C19.6289-83.3008 15.7715-80.8105 15.7715-76.3672C15.7715-74.6582 16.5527-72.8516 17.7246-71.4355C23.3398-64.5508 26.709-59.7168 26.709-53.3203C26.709-53.125 26.709-52.9785 26.709-52.7832L27.7344-53.2715C24.1699-60.7422 21.3379-61.8652 18.5059-61.8652C15.5762-61.8652 13.623-60.0586 13.623-56.7383C13.623-54.6387 13.916-53.6133 13.916-50.7812C13.916-41.0156 6.83594-38.9648 6.83594-23.3887C6.83594-5.85938 20.3125 5.85938 40.4785 5.85938ZM40.9668-5.9082C27.5879-5.9082 18.6523-12.8906 18.6523-23.3887C18.6523-33.0566 24.1211-35.0098 24.0234-50.4883C24.0234-51.1719 23.9258-51.9043 23.9258-52.6367L21.1426-52.8809C23.1445-48.877 24.5117-43.75 25.0977-39.9414C25.4395-37.8418 26.709-36.4746 28.7598-36.4746C34.1797-36.4746 37.2559-45.5566 37.2559-54.248C37.2559-61.9629 34.1309-70.2148 29.0039-75.7324L25.6348-71.875C50.1953-70.166 65.918-54.2969 65.918-31.8359C65.918-16.2598 55.957-5.9082 40.9668-5.9082ZM41.6504-11.084C49.1211-11.084 54.1016-16.1133 54.1016-23.6328C54.1016-31.7871 49.6094-38.8672 42.2852-41.7969C41.2598-42.1875 40.1367-41.6016 40.4297-40.332C41.3086-36.1328 41.6016-32.373 39.9902-28.5156C39.3555-31.1035 38.4277-32.8613 37.1582-34.2285C36.1816-35.1074 35.1074-34.4727 35.0586-33.5449C34.5703-27.8809 30.6152-26.6113 30.6152-20.752C30.6152-14.9414 35.0098-11.084 41.6504-11.084Z"/>
  </g>
  <g id="Heavy-S" transform="matrix(1 0 0 1 2595.07 696)">
   <path d="M39.6949 5.19096C61.7206 5.19096 76.3997-9.52269 76.3997-31.5918C76.3997-67.4935 45.2776-82.6324 24.3398-82.6324C19.2025-82.6324 15.6562-80.3957 15.6562-76.3672C15.6562-74.8195 16.3683-73.1742 17.4595-71.862C22.8097-65.3344 26.4554-60.1547 26.4785-53.4471C26.4785-52.9176 26.467-52.483 26.1904-51.8382L27.4578-52.2919C24.3313-59.3593 21.1305-61.1968 17.9527-61.1968C15.2881-61.1968 13.5078-59.5054 13.5078-56.5078C13.5078-54.6732 13.8008-53.3367 13.8008-50.7812C13.8008-41.3959 6.83594-38.5845 6.83594-23.3887C6.83594-6.25121 19.9898 5.19096 39.6949 5.19096ZM40.1831-5.23978C26.4585-5.23978 17.304-12.4988 17.304-23.3887C17.304-33.7135 23.1069-36.312 23.0323-50.3615C23.0323-51.2525 22.8655-52.1002 22.7849-52.8903L20.4396-52.6849C22.7297-49.1074 24.1775-44.3608 24.8787-40.1834C25.1859-38.3604 26.2711-37.2237 27.9876-37.2237C32.9466-37.2237 35.8038-46.1674 35.8038-53.9599C35.8038-62.009 32.5059-70.4223 27.1715-75.8361L24.3095-72.5665C49.6537-71.0534 65.6875-54.6196 65.6875-31.8359C65.6875-15.8679 55.4961-5.23978 40.1831-5.23978ZM40.8206-10.2888C48.7293-10.2888 53.606-15.7445 53.606-23.3217C53.606-31.3607 49.1369-38.7865 41.5015-41.9697C40.6374-42.3027 39.7218-41.809 39.9572-40.7469C40.7669-36.0521 40.7603-31.7507 39.0337-28.1353C38.3298-30.6541 37.356-32.458 35.9597-33.8828C35.1444-34.6119 34.2777-34.1039 34.2288-33.3029C33.706-27.927 29.5204-26.3808 29.5204-20.2795C29.5204-14.2845 34.0302-10.2888 40.8206-10.2888Z"/>
  </g>
  <g id="Bold-S" transform="matrix(1 0 0 1 2299.24 696)">
   <path d="M38.8184 4.44336C60.3027 4.44336 74.6338-9.96094 74.6338-31.5918C74.6338-67.0166 44.0918-81.8848 23.4375-81.8848C18.7256-81.8848 15.5273-79.9316 15.5273-76.3672C15.5273-75 16.1621-73.5352 17.1631-72.3389C22.2168-66.2109 26.1719-60.6445 26.2207-53.5889C26.2207-52.6855 26.1963-51.9287 25.6104-50.7812L27.1484-51.1963C24.5117-57.8125 20.8984-60.4492 17.334-60.4492C14.9658-60.4492 13.3789-58.8867 13.3789-56.25C13.3789-54.7119 13.6719-53.0273 13.6719-50.7812C13.6719-41.8213 6.83594-38.1592 6.83594-23.3887C6.83594-6.68945 19.6289 4.44336 38.8184 4.44336ZM39.3066-4.49219C25.1953-4.49219 15.7959-12.0605 15.7959-23.3887C15.7959-34.4482 21.9727-37.7686 21.9238-50.2197C21.9238-51.3428 21.6797-52.3193 21.5088-53.1738L19.6533-52.4658C22.2656-49.3652 23.8037-45.0439 24.6338-40.4541C24.9023-38.9404 25.7812-38.0615 27.124-38.0615C31.5674-38.0615 34.1797-46.8506 34.1797-53.6377C34.1797-62.0605 30.6885-70.6543 25.1221-75.9521L22.8271-73.3398C49.0479-72.0459 65.4297-54.9805 65.4297-31.8359C65.4297-15.4297 54.9805-4.49219 39.3066-4.49219ZM39.8926-9.39941C48.291-9.39941 53.0518-15.332 53.0518-22.9736C53.0518-30.8838 48.6084-38.6963 40.625-42.1631C39.9414-42.4316 39.2578-42.041 39.4287-41.2109C40.1611-35.9619 39.8193-31.0547 37.9639-27.71C37.1826-30.1514 36.1572-32.0068 34.6191-33.4961C33.9844-34.0576 33.3496-33.6914 33.3008-33.0322C32.7393-27.9785 28.2959-26.123 28.2959-19.751C28.2959-13.5498 32.9346-9.39941 39.8926-9.39941Z"/>
  </g>
  <g id="Semibold-S" transform="matrix(1 0 0 1 2003.14 696)">
   <path d="M38.2141 3.92793C59.3252 3.92793 73.4163-10.2631 73.4163-31.5918C73.4163-66.6878 43.2742-81.3693 22.8154-81.3693C18.3968-81.3693 15.4385-79.6117 15.4385-76.3672C15.4385-75.1244 16.0199-73.784 16.9587-72.6677C21.808-66.8152 25.9764-60.9822 26.043-53.6866C26.043-52.5256 26.0097-51.5466 25.2104-50.0525L26.9352-50.4409C24.6361-56.7461 20.7385-59.9338 16.9074-59.9338C14.7437-59.9338 13.29-58.4602 13.29-56.0723C13.29-54.7386 13.583-52.8141 13.583-50.7812C13.583-42.1146 6.83594-37.8659 6.83594-23.3887C6.83594-6.9916 19.3801 3.92793 38.2141 3.92793ZM38.7023-3.97676C24.3244-3.97676 14.7562-11.7584 14.7562-23.3887C14.7562-34.9548 21.1906-38.7728 21.1596-50.122C21.1596-51.405 20.8621-52.4704 20.629-53.3693L19.1112-52.3147C21.9457-49.543 23.546-45.5149 24.4649-40.6407C24.7068-39.3403 25.4436-38.6392 26.5286-38.6392C30.6165-38.6392 33.06-47.3216 33.06-53.4155C33.06-62.0961 29.4354-70.8143 23.7091-76.0321L21.8052-73.873C48.6302-72.7302 65.252-55.2293 65.252-31.8359C65.252-15.1275 54.625-3.97676 38.7023-3.97676ZM39.2527-8.78623C47.9889-8.78623 52.6696-15.0477 52.6696-22.7337C52.6696-30.555 48.244-38.6341 40.0207-42.2964C39.4615-42.5205 38.9379-42.201 39.0644-41.5309C39.7435-35.8997 39.1706-30.5748 37.2263-27.4167C36.3917-29.8048 35.3308-31.6958 33.6949-33.2295C33.1846-33.6755 32.7098-33.407 32.6609-32.8456C32.0728-28.0141 27.4517-25.9453 27.4517-19.3866C27.4517-13.0433 32.1792-8.78623 39.2527-8.78623Z"/>
  </g>
  <g id="Medium-S" transform="matrix(1 0 0 1 1706.89 696)">
   <path d="M37.7559 3.53711C58.584 3.53711 72.4932-10.4922 72.4932-31.5918C72.4932-66.4385 42.6543-80.9785 22.3438-80.9785C18.1475-80.9785 15.3711-79.3691 15.3711-76.3672C15.3711-75.2188 15.9121-73.9727 16.8037-72.917C21.498-67.2734 25.8281-61.2383 25.9082-53.7607C25.9082-52.4043 25.8682-51.2568 24.9072-49.5L26.7734-49.8682C24.7305-55.9375 20.6172-59.543 16.584-59.543C14.5752-59.543 13.2227-58.1367 13.2227-55.9375C13.2227-54.7588 13.5156-52.6523 13.5156-50.7812C13.5156-42.3369 6.83594-37.6436 6.83594-23.3887C6.83594-7.2207 19.1914 3.53711 37.7559 3.53711ZM38.2441-3.58594C23.6641-3.58594 13.9678-11.5293 13.9678-23.3887C13.9678-35.3389 20.5977-39.5342 20.5801-50.0479C20.5801-51.4521 20.2422-52.585 19.9619-53.5176L18.7002-52.2002C21.7031-49.6777 23.3506-45.8721 24.3369-40.7822C24.5586-39.6436 25.1875-39.0771 26.0771-39.0771C29.8955-39.0771 32.2109-47.6787 32.2109-53.2471C32.2109-62.123 28.4854-70.9355 22.6377-76.0928L21.0303-74.2773C48.3135-73.249 65.1172-55.418 65.1172-31.8359C65.1172-14.8984 54.3555-3.58594 38.2441-3.58594ZM38.7676-8.32129C47.7598-8.32129 52.3799-14.832 52.3799-22.5518C52.3799-30.3057 47.9678-38.5869 39.5625-42.3975C39.0977-42.5879 38.6953-42.3223 38.7881-41.7734C39.4268-35.8525 38.6787-30.2109 36.667-27.1943C35.792-29.542 34.7041-31.46 32.9941-33.0273C32.5781-33.3857 32.2246-33.1914 32.1758-32.7041C31.5674-28.041 26.8115-25.8105 26.8115-19.1104C26.8115-12.6592 31.6064-8.32129 38.7676-8.32129Z"/>
  </g>
  <g id="Regular-S" transform="matrix(1 0 0 1 1410.78 696)">
   <path d="M37.1582 3.02734C57.6172 3.02734 71.2891-10.791 71.2891-31.5918C71.2891-66.1133 41.8457-80.4688 21.7285-80.4688C17.8223-80.4688 15.2832-79.0527 15.2832-76.3672C15.2832-75.3418 15.7715-74.2188 16.6016-73.2422C21.0938-67.8711 25.6348-61.5723 25.7324-53.8574C25.7324-52.2461 25.6836-50.8789 24.5117-48.7793L26.5625-49.1211C24.8535-54.8828 20.459-59.0332 16.1621-59.0332C14.3555-59.0332 13.1348-57.7148 13.1348-55.7617C13.1348-54.7852 13.4277-52.4414 13.4277-50.7812C13.4277-42.627 6.83594-37.3535 6.83594-23.3887C6.83594-7.51953 18.9453 3.02734 37.1582 3.02734ZM37.6465-3.07617C22.8027-3.07617 12.9395-11.2305 12.9395-23.3887C12.9395-35.8398 19.8242-40.5273 19.8242-49.9512C19.8242-51.5137 19.4336-52.7344 19.0918-53.7109L18.1641-52.0508C21.3867-49.8535 23.0957-46.3379 24.1699-40.9668C24.3652-40.0391 24.8535-39.6484 25.4883-39.6484C28.9551-39.6484 31.1035-48.1445 31.1035-53.0273C31.1035-62.1582 27.2461-71.0938 21.2402-76.1719L20.0195-74.8047C47.9004-73.9258 64.9414-55.6641 64.9414-31.8359C64.9414-14.5996 54.0039-3.07617 37.6465-3.07617ZM38.1348-7.71484C47.4609-7.71484 52.002-14.5508 52.002-22.3145C52.002-29.9805 47.6074-38.5254 38.9648-42.5293C38.623-42.6758 38.3789-42.4805 38.4277-42.0898C39.0137-35.791 38.0371-29.7363 35.9375-26.9043C35.0098-29.1992 33.8867-31.1523 32.0801-32.7637C31.7871-33.0078 31.5918-32.9102 31.543-32.5195C30.9082-28.0762 25.9766-25.6348 25.9766-18.75C25.9766-12.1582 30.8594-7.71484 38.1348-7.71484Z"/>
  </g>
  <g id="Light-S" transform="matrix(1 0 0 1 1114.73 696)">
   <path d="M36.6587 2.37647C56.6333 2.37647 69.9722-11.1543 69.9722-31.5918C69.9722-65.5532 41.0737-79.8179 20.7144-79.8179C17.3379-79.8179 15.2832-78.6138 15.2832-76.3672C15.2832-75.4932 15.6958-74.582 16.4653-73.666C21.0332-68.2041 25.6045-61.6328 25.6719-54.2812C25.6719-52.3823 25.396-50.7124 24.0728-48.6431L25.8662-48.9849C24.1118-54.5195 19.354-58.3823 15.5112-58.3823C14.083-58.3823 13.1348-57.3364 13.1348-55.8071C13.1348-54.8154 13.4277-52.4717 13.4277-50.7812C13.4277-41.855 6.83594-37.0659 6.83594-23.3887C6.83594-7.89795 18.6729 2.37647 36.6587 2.37647ZM36.9956-2.41016C21.8189-2.41016 11.6377-10.8672 11.6377-23.3887C11.6377-36.0518 18.3711-39.9067 18.3711-50.2388C18.3711-51.7256 18.0562-53.1279 17.7446-54.3921L16.938-53.0044C19.9639-51.3823 22.4902-48.0483 23.7461-42.98C23.9263-42.2339 24.3237-41.8887 24.898-41.8887C27.6533-41.8887 29.938-48.8408 29.938-53.769C29.938-62.2187 26.2774-70.0796 19.9385-76.3384L19.0357-75.2436C46.2808-74.8491 64.9414-56.6177 64.9414-31.7603C64.9414-14.2363 53.7163-2.41016 36.9956-2.41016ZM37.4385-8.38085C46.3711-8.38085 50.7153-14.9292 50.7153-22.3599C50.7153-29.708 46.457-37.814 38.2383-41.7119C37.9116-41.8584 37.6826-41.6631 37.7315-41.3027C38.4385-35.1099 37.4922-29.4487 35.4834-26.7529C34.5405-28.9268 33.3872-30.8496 31.6411-32.355C31.3633-32.584 31.168-32.4863 31.1191-32.126C30.4844-27.8794 25.8101-25.5288 25.8101-18.9316C25.8101-12.6274 30.4507-8.38085 37.4385-8.38085Z"/>
  </g>
  <g id="Thin-S" transform="matrix(1 0 0 1 818.889 696)">
   <path d="M35.9981 1.51564C55.332 1.51564 68.2305-11.6348 68.2305-31.5918C68.2305-64.8125 40.0527-78.957 19.3731-78.957C16.6973-78.957 15.2832-78.0332 15.2832-76.3672C15.2832-75.6934 15.5957-75.0625 16.2852-74.2266C20.9531-68.6445 25.5645-61.7129 25.5918-54.8418C25.5918-52.5625 25.0156-50.4922 23.4922-48.4629L24.9453-48.8047C23.1309-54.0391 17.8926-57.5215 14.6504-57.5215C13.7227-57.5215 13.1348-56.8359 13.1348-55.8672C13.1348-54.8555 13.4277-52.5117 13.4277-50.7812C13.4277-40.834 6.83594-36.6856 6.83594-23.3887C6.83594-8.39843 18.3125 1.51564 35.9981 1.51564ZM36.1348-1.52931C20.5176-1.52931 9.91604-10.3867 9.91604-23.3887C9.91604-36.332 16.4492-39.0859 16.4492-50.6191C16.4492-52.0059 16.2344-53.6484 15.9629-55.293L15.3164-54.2656C18.0821-53.4043 21.6895-50.3105 23.1856-45.6425C23.3457-45.1367 23.6231-44.8515 24.1172-44.8515C25.9317-44.8515 28.3965-49.7617 28.3965-54.75C28.3965-62.2988 24.9961-68.7383 18.2168-76.5586L17.7344-75.8242C44.1387-76.0703 64.9414-57.8789 64.9414-31.6602C64.9414-13.7559 53.3359-1.52931 36.1348-1.52931ZM36.5176-9.26171C44.9297-9.26171 49.0137-15.4297 49.0137-22.4199C49.0137-29.3477 44.9356-36.8731 37.2774-40.6309C36.9707-40.7774 36.7617-40.582 36.8106-40.2617C37.6777-34.209 36.7715-29.0684 34.8828-26.5527C33.9199-28.5664 32.7266-30.4492 31.0606-31.8145C30.8027-32.0234 30.6074-31.9258 30.5586-31.6055C29.9238-27.6191 25.5898-25.3887 25.5898-19.1719C25.5898-13.248 29.9102-9.26171 36.5176-9.26171Z"/>
  </g>
  <g id="Ultralight-S" transform="matrix(1 0 0 1 522.624 696)">
   <path d="M35.6597 1.07472C54.6656 1.07472 67.3384-11.8809 67.3384-31.5918C67.3384-64.4331 39.5298-78.5161 18.6861-78.5161C16.3692-78.5161 15.2832-77.7359 15.2832-76.3672C15.2832-75.7959 15.5444-75.3086 16.1929-74.5137C20.9121-68.8701 25.5439-61.7539 25.5508-55.1289C25.5508-52.6548 24.8208-50.3794 23.1948-48.3706L24.4736-48.7124C22.6284-53.793 17.1441-57.0806 14.2095-57.0806C13.5381-57.0806 13.1348-56.5796 13.1348-55.8979C13.1348-54.876 13.4277-52.5322 13.4277-50.7812C13.4277-40.3111 6.83594-36.4907 6.83594-23.3887C6.83594-8.65478 18.1279 1.07472 35.6597 1.07472ZM35.6939-1.07814C19.8511-1.07814 9.03421-10.1406 9.03421-23.3887C9.03421-36.4756 15.4649-38.6655 15.4649-50.814C15.4649-52.1494 15.3013-53.915 15.0503-55.7544L14.4859-54.9116C17.1182-54.4399 21.2793-51.4692 22.8984-47.0063C23.0484-46.6235 23.2642-46.3691 23.7173-46.3691C25.0498-46.3691 27.607-50.2334 27.607-55.2524C27.607-62.3398 24.3399-68.0513 17.335-76.6714L17.0679-76.1216C43.0415-76.6958 64.9414-58.5249 64.9414-31.6089C64.9414-13.5098 53.1411-1.07814 35.6939-1.07814ZM36.0459-9.71287C44.1914-9.71287 48.1421-15.686 48.1421-22.4507C48.1421-29.1631 44.1563-36.3911 36.7852-40.0772C36.4888-40.2237 36.2901-40.0283 36.3389-39.7285C37.2881-33.7476 36.4024-28.8735 34.5752-26.4502C33.6021-28.3818 32.3882-30.2441 30.7632-31.5376C30.5156-31.7363 30.3203-31.6387 30.2715-31.3389C29.6367-27.4858 25.4771-25.3169 25.4771-19.2949C25.4771-13.5659 29.6333-9.71287 36.0459-9.71287Z"/>
  </g>
 </g>
</svg>
