<?xml version="1.0" encoding="UTF-8"?>
<!--Generator: Apple Native CoreSVG 175.5-->
<!DOCTYPE svg
PUBLIC "-//W3C//DTD SVG 1.1//EN"
       "http://www.w3.org/Graphics/SVG/1.1/DTD/svg11.dtd">
<svg version="1.1" xmlns="http://www.w3.org/2000/svg" xmlns:xlink="http://www.w3.org/1999/xlink" width="3300" height="2200">
 <!--glyph: "uni10151D.medium", point size: 100.0, font version: "18.0d12e2", template writer version: "101"-->
 <g id="Notes">
  <rect height="2200" id="artboard" style="fill:white;opacity:1" width="3300" x="0" y="0"/>
  <line style="fill:none;stroke:black;opacity:1;stroke-width:0.5;" x1="263" x2="3036" y1="292" y2="292"/>
  <text style="stroke:none;fill:black;font-family:sans-serif;font-size:13;font-weight:bold;" transform="matrix(1 0 0 1 263 322)">Weight/Scale Variations</text>
  <text style="stroke:none;fill:black;font-family:sans-serif;font-size:13;text-anchor:middle;" transform="matrix(1 0 0 1 559.711 322)">Ultralight</text>
  <text style="stroke:none;fill:black;font-family:sans-serif;font-size:13;text-anchor:middle;" transform="matrix(1 0 0 1 856.422 322)">Thin</text>
  <text style="stroke:none;fill:black;font-family:sans-serif;font-size:13;text-anchor:middle;" transform="matrix(1 0 0 1 1153.13 322)">Light</text>
  <text style="stroke:none;fill:black;font-family:sans-serif;font-size:13;text-anchor:middle;" transform="matrix(1 0 0 1 1449.84 322)">Regular</text>
  <text style="stroke:none;fill:black;font-family:sans-serif;font-size:13;text-anchor:middle;" transform="matrix(1 0 0 1 1746.56 322)">Medium</text>
  <text style="stroke:none;fill:black;font-family:sans-serif;font-size:13;text-anchor:middle;" transform="matrix(1 0 0 1 2043.27 322)">Semibold</text>
  <text style="stroke:none;fill:black;font-family:sans-serif;font-size:13;text-anchor:middle;" transform="matrix(1 0 0 1 2339.98 322)">Bold</text>
  <text style="stroke:none;fill:black;font-family:sans-serif;font-size:13;text-anchor:middle;" transform="matrix(1 0 0 1 2636.69 322)">Heavy</text>
  <text style="stroke:none;fill:black;font-family:sans-serif;font-size:13;text-anchor:middle;" transform="matrix(1 0 0 1 2933.4 322)">Black</text>
  <line style="fill:none;stroke:black;opacity:1;stroke-width:0.5;" x1="263" x2="3036" y1="1903" y2="1903"/>
  <g transform="matrix(1 0 0 1 263 1933)">
   <path d="M9.24805 0.830078C13.5547 0.830078 17.1387-2.74414 17.1387-7.05078C17.1387-11.3574 13.5449-14.9316 9.23828-14.9316C4.94141-14.9316 1.36719-11.3574 1.36719-7.05078C1.36719-2.74414 4.95117 0.830078 9.24805 0.830078ZM9.24805-0.654297C5.70312-0.654297 2.87109-3.49609 2.87109-7.05078C2.87109-10.6055 5.69336-13.4473 9.23828-13.4473C12.793-13.4473 15.6445-10.6055 15.6445-7.05078C15.6445-3.49609 12.8027-0.654297 9.24805-0.654297ZM5.6543-7.05078C5.6543-6.62109 5.95703-6.32812 6.40625-6.32812L8.50586-6.32812L8.50586-4.20898C8.50586-3.76953 8.79883-3.4668 9.22852-3.4668C9.67773-3.4668 9.9707-3.76953 9.9707-4.20898L9.9707-6.32812L12.0898-6.32812C12.5293-6.32812 12.832-6.62109 12.832-7.05078C12.832-7.49023 12.5293-7.79297 12.0898-7.79297L9.9707-7.79297L9.9707-9.90234C9.9707-10.3516 9.67773-10.6543 9.22852-10.6543C8.79883-10.6543 8.50586-10.3516 8.50586-9.90234L8.50586-7.79297L6.40625-7.79297C5.95703-7.79297 5.6543-7.49023 5.6543-7.05078Z"/>
  </g>
  <g transform="matrix(1 0 0 1 281.867 1933)">
   <path d="M11.709 2.91016C17.1582 2.91016 21.6699-1.61133 21.6699-7.05078C21.6699-12.5 17.1484-17.0117 11.6992-17.0117C6.25977-17.0117 1.74805-12.5 1.74805-7.05078C1.74805-1.61133 6.26953 2.91016 11.709 2.91016ZM11.709 1.25C7.09961 1.25 3.41797-2.44141 3.41797-7.05078C3.41797-11.6602 7.08984-15.3516 11.6992-15.3516C16.3086-15.3516 20.0098-11.6602 20.0098-7.05078C20.0098-2.44141 16.3184 1.25 11.709 1.25ZM7.17773-7.05078C7.17773-6.57227 7.50977-6.25 8.00781-6.25L10.8789-6.25L10.8789-3.36914C10.8789-2.88086 11.2109-2.53906 11.6895-2.53906C12.1777-2.53906 12.5195-2.87109 12.5195-3.36914L12.5195-6.25L15.4004-6.25C15.8887-6.25 16.2305-6.57227 16.2305-7.05078C16.2305-7.53906 15.8887-7.88086 15.4004-7.88086L12.5195-7.88086L12.5195-10.752C12.5195-11.25 12.1777-11.5918 11.6895-11.5918C11.2109-11.5918 10.8789-11.25 10.8789-10.752L10.8789-7.88086L8.00781-7.88086C7.50977-7.88086 7.17773-7.53906 7.17773-7.05078Z"/>
  </g>
  <g transform="matrix(1 0 0 1 305.646 1933)">
   <path d="M14.9707 5.66406C21.9336 5.66406 27.6953-0.0976562 27.6953-7.05078C27.6953-14.0137 21.9238-19.7754 14.9609-19.7754C8.00781-19.7754 2.25586-14.0137 2.25586-7.05078C2.25586-0.0976562 8.01758 5.66406 14.9707 5.66406ZM14.9707 3.84766C8.93555 3.84766 4.08203-1.01562 4.08203-7.05078C4.08203-13.0957 8.92578-17.9492 14.9609-17.9492C21.0059-17.9492 25.8691-13.0957 25.8691-7.05078C25.8691-1.01562 21.0156 3.84766 14.9707 3.84766ZM9.19922-7.05078C9.19922-6.5332 9.57031-6.17188 10.1172-6.17188L14.0625-6.17188L14.0625-2.2168C14.0625-1.67969 14.4336-1.29883 14.9512-1.29883C15.4883-1.29883 15.8594-1.66992 15.8594-2.2168L15.8594-6.17188L19.8145-6.17188C20.3516-6.17188 20.7324-6.5332 20.7324-7.05078C20.7324-7.59766 20.3613-7.96875 19.8145-7.96875L15.8594-7.96875L15.8594-11.9141C15.8594-12.4609 15.4883-12.8418 14.9512-12.8418C14.4336-12.8418 14.0625-12.4609 14.0625-11.9141L14.0625-7.96875L10.1172-7.96875C9.57031-7.96875 9.19922-7.59766 9.19922-7.05078Z"/>
  </g>
  <text style="stroke:none;fill:black;font-family:sans-serif;font-size:13;font-weight:bold;" transform="matrix(1 0 0 1 263 1953)">Design Variations</text>
  <text style="stroke:none;fill:black;font-family:sans-serif;font-size:13;" transform="matrix(1 0 0 1 263 1971)">Symbols are supported in up to nine weights and three scales.</text>
  <text style="stroke:none;fill:black;font-family:sans-serif;font-size:13;" transform="matrix(1 0 0 1 263 1989)">For optimal layout with text and other symbols, vertically align</text>
  <text style="stroke:none;fill:black;font-family:sans-serif;font-size:13;" transform="matrix(1 0 0 1 263 2007)">symbols with the adjacent text.</text>
  <line style="fill:none;stroke:#00AEEF;stroke-width:0.5;opacity:1.0;" x1="776" x2="776" y1="1919" y2="1933"/>
  <g transform="matrix(1 0 0 1 776 1933)">
   <path d="M3.31055 0.15625C3.82812 0.15625 4.08203-0.0390625 4.26758-0.585938L5.52734-4.0332L11.2891-4.0332L12.5488-0.585938C12.7344-0.0390625 12.9883 0.15625 13.4961 0.15625C14.0137 0.15625 14.3457-0.15625 14.3457-0.644531C14.3457-0.810547 14.3164-0.966797 14.2383-1.17188L9.6582-13.3691C9.43359-13.9648 9.0332-14.2676 8.4082-14.2676C7.80273-14.2676 7.39258-13.9746 7.17773-13.3789L2.59766-1.16211C2.51953-0.957031 2.49023-0.800781 2.49023-0.634766C2.49023-0.146484 2.80273 0.15625 3.31055 0.15625ZM6.00586-5.51758L8.37891-12.0898L8.42773-12.0898L10.8008-5.51758Z"/>
  </g>
  <line style="fill:none;stroke:#00AEEF;stroke-width:0.5;opacity:1.0;" x1="793.197" x2="793.197" y1="1919" y2="1933"/>
  <text style="stroke:none;fill:black;font-family:sans-serif;font-size:13;font-weight:bold;" transform="matrix(1 0 0 1 776 1953)">Margins</text>
  <text style="stroke:none;fill:black;font-family:sans-serif;font-size:13;" transform="matrix(1 0 0 1 776 1971)">Leading and trailing margins on the left and right side of each symbol</text>
  <text style="stroke:none;fill:black;font-family:sans-serif;font-size:13;" transform="matrix(1 0 0 1 776 1989)">can be adjusted by modifying the x-location of the margin guidelines.</text>
  <text style="stroke:none;fill:black;font-family:sans-serif;font-size:13;" transform="matrix(1 0 0 1 776 2007)">Modifications are automatically applied proportionally to all</text>
  <text style="stroke:none;fill:black;font-family:sans-serif;font-size:13;" transform="matrix(1 0 0 1 776 2025)">scales and weights.</text>
  <g transform="matrix(1 0 0 1 1289 1933)">
   <path d="M2.8418 1.86523L4.54102 3.57422C5.40039 4.44336 6.38672 4.38477 7.31445 3.35938L18.0078-8.42773L17.041-9.4043L6.42578 2.27539C6.07422 2.67578 5.74219 2.77344 5.27344 2.30469L4.10156 1.14258C3.63281 0.683594 3.74023 0.341797 4.14062-0.0195312L15.6152-10.8203L14.6387-11.7871L3.04688-0.898438C2.06055 0.0195312 1.98242 0.996094 2.8418 1.86523ZM9.25781-16.3281C8.83789-15.918 8.80859-15.3418 9.04297-14.9512C9.27734-14.5898 9.73633-14.3555 10.3809-14.5215C11.8457-14.8633 13.3691-14.9219 14.7949-13.9844L14.209-12.5293C13.8672-11.6992 14.043-11.1133 14.5801-10.5664L16.875-8.25195C17.3633-7.76367 17.7734-7.74414 18.3398-7.8418L19.4043-8.03711L20.0684-7.36328L20.0293-6.80664C19.9902-6.30859 20.1172-5.92773 20.6055-5.44922L21.3672-4.70703C21.8457-4.22852 22.4609-4.19922 22.9297-4.66797L25.8398-7.58789C26.3086-8.05664 26.2891-8.65234 25.8105-9.13086L25.0391-9.89258C24.5605-10.3711 24.1895-10.5273 23.7109-10.4883L23.1348-10.4395L22.4902-11.0742L22.7344-12.1973C22.8613-12.7637 22.7051-13.2031 22.1191-13.7891L19.9219-15.9766C16.582-19.2969 12.1484-19.2188 9.25781-16.3281ZM10.752-15.957C13.1836-17.7344 16.4746-17.4316 18.7012-15.2051L21.1328-12.793C21.3672-12.5586 21.4062-12.373 21.3379-12.0312L21.0156-10.5469L22.5195-9.0625L23.5059-9.12109C23.7598-9.13086 23.8379-9.11133 24.0332-8.91602L24.6094-8.33984L22.168-5.89844L21.5918-6.47461C21.3965-6.66992 21.3672-6.74805 21.377-7.01172L21.4453-7.98828L19.9512-9.47266L18.4277-9.21875C18.1055-9.15039 17.959-9.17969 17.7148-9.41406L15.7129-11.416C15.459-11.6504 15.4297-11.8164 15.5859-12.1875L16.4648-14.2773C14.9023-15.7324 12.8711-16.3574 10.8398-15.7617C10.6836-15.7227 10.625-15.8496 10.752-15.957Z"/>
  </g>
  <text style="stroke:none;fill:black;font-family:sans-serif;font-size:13;font-weight:bold;" transform="matrix(1 0 0 1 1289 1953)">Exporting</text>
  <text style="stroke:none;fill:black;font-family:sans-serif;font-size:13;" transform="matrix(1 0 0 1 1289 1971)">Symbols should be outlined when exporting to ensure the</text>
  <text style="stroke:none;fill:black;font-family:sans-serif;font-size:13;" transform="matrix(1 0 0 1 1289 1989)">design is preserved when submitting to Xcode.</text>
  <text id="template-version" style="stroke:none;fill:black;font-family:sans-serif;font-size:13;text-anchor:end;" transform="matrix(1 0 0 1 3036 1933)">Template v.4.0</text>
  <text style="stroke:none;fill:black;font-family:sans-serif;font-size:13;text-anchor:end;" transform="matrix(1 0 0 1 3036 1951)">Requires Xcode 14 or greater</text>
  <text id="descriptive-name" style="stroke:none;fill:black;font-family:sans-serif;font-size:13;text-anchor:end;" transform="matrix(1 0 0 1 3036 1969)">Generated from figure.boxing</text>
  <text style="stroke:none;fill:black;font-family:sans-serif;font-size:13;text-anchor:end;" transform="matrix(1 0 0 1 3036 1987)">Typeset at 100 points</text>
  <text style="stroke:none;fill:black;font-family:sans-serif;font-size:13;" transform="matrix(1 0 0 1 263 726)">Small</text>
  <text style="stroke:none;fill:black;font-family:sans-serif;font-size:13;" transform="matrix(1 0 0 1 263 1156)">Medium</text>
  <text style="stroke:none;fill:black;font-family:sans-serif;font-size:13;" transform="matrix(1 0 0 1 263 1586)">Large</text>
 </g>
 <g id="Guides">
  <g id="H-reference" style="fill:#27AAE1;stroke:none;" transform="matrix(1 0 0 1 339 696)">
   <path d="M0.993654 0L3.63775 0L29.3281-67.1323L30.0303-67.1323L30.0303-70.459L28.1226-70.459ZM11.6885-24.4799L46.9815-24.4799L46.2315-26.7285L12.4385-26.7285ZM55.1196 0L57.7637 0L30.6382-70.459L29.4326-70.459L29.4326-67.1323Z"/>
  </g>
  <line id="Baseline-S" style="fill:none;stroke:#27AAE1;opacity:1;stroke-width:0.5;" x1="263" x2="3036" y1="696" y2="696"/>
  <line id="Capline-S" style="fill:none;stroke:#27AAE1;opacity:1;stroke-width:0.5;" x1="263" x2="3036" y1="625.541" y2="625.541"/>
  <g id="H-reference" style="fill:#27AAE1;stroke:none;" transform="matrix(1 0 0 1 339 1126)">
   <path d="M0.993654 0L3.63775 0L29.3281-67.1323L30.0303-67.1323L30.0303-70.459L28.1226-70.459ZM11.6885-24.4799L46.9815-24.4799L46.2315-26.7285L12.4385-26.7285ZM55.1196 0L57.7637 0L30.6382-70.459L29.4326-70.459L29.4326-67.1323Z"/>
  </g>
  <line id="Baseline-M" style="fill:none;stroke:#27AAE1;opacity:1;stroke-width:0.5;" x1="263" x2="3036" y1="1126" y2="1126"/>
  <line id="Capline-M" style="fill:none;stroke:#27AAE1;opacity:1;stroke-width:0.5;" x1="263" x2="3036" y1="1055.54" y2="1055.54"/>
  <g id="H-reference" style="fill:#27AAE1;stroke:none;" transform="matrix(1 0 0 1 339 1556)">
   <path d="M0.993654 0L3.63775 0L29.3281-67.1323L30.0303-67.1323L30.0303-70.459L28.1226-70.459ZM11.6885-24.4799L46.9815-24.4799L46.2315-26.7285L12.4385-26.7285ZM55.1196 0L57.7637 0L30.6382-70.459L29.4326-70.459L29.4326-67.1323Z"/>
  </g>
  <line id="Baseline-L" style="fill:none;stroke:#27AAE1;opacity:1;stroke-width:0.5;" x1="263" x2="3036" y1="1556" y2="1556"/>
  <line id="Capline-L" style="fill:none;stroke:#27AAE1;opacity:1;stroke-width:0.5;" x1="263" x2="3036" y1="1485.54" y2="1485.54"/>
  <line id="left-margin-Regular-M" style="fill:none;stroke:#00AEEF;stroke-width:0.5;opacity:1.0;" x1="1389.47" x2="1389.47" y1="1030.79" y2="1150.12"/>
  <line id="right-margin-Regular-M" style="fill:none;stroke:#00AEEF;stroke-width:0.5;opacity:1.0;" x1="1510.22" x2="1510.22" y1="1030.79" y2="1150.12"/>
 </g>
 <g id="Symbols">
  <g id="Black-L" transform="matrix(1 0 0 1 2851.31 1556)">
   <path d="M78.6846-85.9594C87.1886-85.9594 94.1514-92.9014 94.1514-101.469C94.1514-109.973 87.1886-116.936 78.6846-116.936C70.1377-116.936 63.1748-109.973 63.1748-101.469C63.1748-92.9014 70.1377-85.9594 78.6846-85.9594ZM18.8798 43.7077C22.135 46.5035 27.1077 46.2843 30.1228 42.8903L53.6878 15.9964C55.0682 14.4344 55.9064 12.674 56.1256 10.4983L58.6459-14.6955C58.7847-16.1791 60.3707-16.6568 61.3221-15.5469L77.5164 3.11048L77.5164 37.6775C77.5164 42.0509 81.1285 45.6861 85.5823 45.6861C89.8752 45.6861 93.5701 42.0509 93.5701 37.6775L93.5701 0.474281C93.5701-1.72223 92.8319-3.21936 91.9121-4.59849L72.1872-33.4353L81.7804-62.1101C82.1461-63.2852 82.6039-63.4977 83.8374-63.4977L136.686-63.4977C141.058-63.4977 144.753-67.0526 144.753-71.5052C144.753-75.8578 141.058-79.493 136.686-79.493L57.0824-79.493C51.3146-79.493 46.4314-77.7922 41.7455-73.1051L28.7287-60.0078C23.5963-54.8754 26.4505-46.3711 33.5394-46.3711L44.197-46.3711L42.0944-39.9685C40.6725-35.6979 39.9719-31.0911 39.9719-26.7413L39.9719 7.36764L18.0624 32.4063C15.1058 35.7419 15.4847 40.773 18.8798 43.7077ZM136.686-56.5184C142.964-56.5184 148.102-61.6572 148.102-68.0959C148.102-74.3542 142.964-79.493 136.686-79.493C130.326-79.493 125.128-74.3542 125.128-68.0959C125.128-61.6572 130.326-56.5184 136.686-56.5184Z"/>
  </g>
  <g id="Heavy-L" transform="matrix(1 0 0 1 2555.69 1556)">
   <path d="M77.636-85.3102C85.8891-85.3102 92.6468-92.0377 92.6468-100.387C92.6468-108.64 85.8891-115.398 77.636-115.398C69.3169-115.398 62.5592-108.64 62.5592-100.387C62.5592-92.0377 69.3169-85.3102 77.636-85.3102ZM18.7563 42.3773C21.8697 45.0496 26.618 44.8441 29.4958 41.6057L52.758 15.0599C54.0926 13.5343 54.8944 11.8335 55.0998 9.76309L57.6802-15.9721C57.8052-17.3051 59.2544-17.7651 60.1286-16.7413L76.7436 2.41498L76.7436 36.6217C76.7436 40.7983 80.1819 44.278 84.4388 44.278C88.535 44.278 92.0649 40.7983 92.0649 36.6217L92.0649-0.102117C92.0649-2.20267 91.3681-3.62647 90.4803-4.95541L70.9303-33.5456L80.4473-61.9693C80.8406-63.2183 81.423-63.5135 82.7166-63.5135L134.896-63.5135C139.067-63.5135 142.597-66.9128 142.597-71.1642C142.597-75.3105 139.067-78.7903 134.896-78.7903L56.2959-78.7903C50.6649-78.7903 45.9185-77.1396 41.3417-72.5573L28.4876-59.6228C23.5841-54.7193 26.3011-46.613 33.0695-46.613L43.9504-46.613L41.7508-39.9607C40.3558-35.7535 39.6735-31.2516 39.6735-26.9696L39.6735 6.80168L17.9847 31.5932C15.1515 34.787 15.5122 39.5799 18.7563 42.3773ZM134.896-56.6247C140.95-56.6247 145.91-61.5853 145.91-67.8002C145.91-73.8296 140.95-78.7903 134.896-78.7903C128.756-78.7903 123.745-73.8296 123.745-67.8002C123.745-61.5853 128.756-56.6247 134.896-56.6247Z"/>
  </g>
  <g id="Bold-L" transform="matrix(1 0 0 1 2260.41 1556)">
   <path d="M76.2703-84.4662C84.216-84.4662 90.7201-90.9323 90.7201-99.0051C90.7201-106.951 84.216-113.455 76.2703-113.455C68.2355-113.455 61.7314-106.951 61.7314-99.0051C61.7314-90.9323 68.2355-84.4662 76.2703-84.4662ZM18.6101 40.6508C21.5543 43.177 26.0408 42.9869 28.757 39.9331L51.6054 13.8624C52.8861 12.3829 53.6418 10.7513 53.8319 8.8041L56.4741-17.4804C56.5837-18.6289 57.8639-19.0585 58.6383-18.1497L75.6863 1.52454L75.6863 35.2185C75.6863 39.1642 78.9169 42.4592 82.9429 42.4592C86.8081 42.4592 90.1456 39.1642 90.1456 35.2185L90.1456-0.853966C90.1456-2.83915 89.4951-4.17824 88.6457-5.44569L69.3556-33.6689L78.758-61.7181C79.1821-63.0444 79.8959-63.4321 81.2514-63.4321L132.519-63.4321C136.451-63.4321 139.789-66.6468 139.789-70.6596C139.789-74.5672 136.451-77.8623 132.519-77.8623L55.2903-77.8623C49.8283-77.8623 45.251-76.2732 40.8125-71.8214L28.1806-59.1091C23.5464-54.4749 26.1017-46.8382 32.493-46.8382L43.5835-46.8382L41.2833-39.9306C39.9267-35.8078 39.2674-31.4364 39.2674-27.2464L39.2674 6.04277L17.8924 30.4748C15.2054 33.4994 15.5431 38.0151 18.6101 40.6508ZM132.519-56.6659C138.304-56.6659 143.049-61.4113 143.049-67.3569C143.049-73.1169 138.304-77.8623 132.519-77.8623C126.64-77.8623 121.852-73.1169 121.852-67.3569C121.852-61.4113 126.64-56.6659 132.519-56.6659Z"/>
  </g>
  <g id="Semibold-L" transform="matrix(1 0 0 1 1964.69 1556)">
   <path d="M75.3289-83.8843C83.0625-83.8843 89.3918-90.1703 89.3918-98.0525C89.3918-105.786 83.0625-112.116 75.3289-112.116C67.49-112.116 61.1607-105.786 61.1607-98.0525C61.1607-90.1703 67.49-83.8843 75.3289-83.8843ZM18.5093 39.4606C21.3368 41.886 25.6429 41.7066 28.2476 38.78L50.8109 13.0368C52.0544 11.5891 52.7784 10.0053 52.9578 8.14298L55.6427-18.5203C55.7416-19.5416 56.9052-19.9502 57.6109-19.1206L74.9574 0.910675L74.9574 34.2512C74.9574 38.0376 78.0448 41.2054 81.9117 41.2054C85.6177 41.2054 88.8225 38.0376 88.8225 34.2512L88.8225-1.37229C88.8225-3.27794 88.2038-4.55862 87.381-5.78368L68.27-33.754L77.5935-61.545C78.0388-62.9245 78.8431-63.376 80.2413-63.376L130.88-63.376C134.648-63.376 137.853-66.4634 137.853-70.3117C137.853-74.0548 134.648-77.2226 130.88-77.2226L54.597-77.2226C49.2516-77.2226 44.7908-75.6758 40.4476-71.3141L27.9688-58.755C23.5204-54.3065 25.9643-46.9934 32.0956-46.9934L43.3305-46.9934L40.9611-39.9099C39.6308-35.8452 38.9874-31.5639 38.9874-27.4372L38.9874 5.51958L17.8287 29.7037C15.2425 32.6117 15.5643 36.9363 18.5093 39.4606ZM130.88-56.6943C136.479-56.6943 141.076-61.2912 141.076-67.0513C141.076-72.6256 136.479-77.2226 130.88-77.2226C125.182-77.2226 120.548-72.6256 120.548-67.0513C120.548-61.2912 125.182-56.6943 130.88-56.6943Z"/>
  </g>
  <g id="Medium-L" transform="matrix(1 0 0 1 1668.72 1556)">
   <path d="M74.615-83.4432C82.188-83.4432 88.3847-89.5925 88.3847-97.3302C88.3847-104.903 82.188-111.1 74.615-111.1C66.9247-111.1 60.7279-104.903 60.7279-97.3302C60.7279-89.5925 66.9247-83.4432 74.615-83.4432ZM18.4329 38.5582C21.1719 40.9071 25.3412 40.7357 27.8614 37.9057L50.2084 12.4108C51.4238 10.9872 52.1236 9.43959 52.295 7.64168L55.0122-19.3087C55.1031-20.2336 56.1783-20.6262 56.8319-19.8568L74.4047 0.445219L74.4047 33.5177C74.4047 37.1834 77.3836 40.2546 81.1297 40.2546C84.715 40.2546 87.8192 37.1834 87.8192 33.5177L87.8192-1.7653C87.8192-3.61065 87.2248-4.84705 86.422-6.03996L67.4469-33.8185L76.7104-61.4137C77.1719-62.8336 78.0448-63.3335 79.4753-63.3335L129.637-63.3335C133.281-63.3335 136.385-66.3243 136.385-70.048C136.385-73.6662 133.281-76.7375 129.637-76.7375L54.0713-76.7375C48.8143-76.7375 44.4419-75.2229 40.1709-70.9295L27.8083-58.4865C23.5007-54.1788 25.8601-47.1111 31.7943-47.1111L43.1387-47.1111L40.7168-39.8942C39.4065-35.8735 38.7751-31.6605 38.7751-27.5819L38.7751 5.12287L17.7804 29.1191C15.2707 31.9386 15.5804 36.1184 18.4329 38.5582ZM129.637-56.7159C135.096-56.7159 139.58-61.2002 139.58-66.8196C139.58-72.2531 135.096-76.7375 129.637-76.7375C124.076-76.7375 119.559-72.2531 119.559-66.8196C119.559-61.2002 124.076-56.7159 129.637-56.7159Z"/>
  </g>
  <g id="Regular-L" transform="matrix(1 0 0 1 1372.99 1556)">
   <path d="M73.6839-82.8677C81.0472-82.8677 87.071-88.8388 87.071-96.3881C87.071-103.751 81.0472-109.775 73.6839-109.775C66.1874-109.775 60.1635-103.751 60.1635-96.3881C60.1635-88.8388 66.1874-82.8677 73.6839-82.8677ZM18.3332 37.3811C20.9568 39.6303 24.9476 39.4694 27.3577 36.7654L49.4226 11.5943C50.6012 10.2021 51.2697 8.70175 51.4305 6.98783L54.1899-20.3371C54.2703-21.1362 55.2302-21.5081 55.8157-20.8171L73.6839-0.161897L73.6839 32.561C73.6839 36.0692 76.5211 39.0146 80.1098 39.0146C83.5377 39.0146 86.5106 36.0692 86.5106 32.561L86.5106-2.27792C86.5106-4.04461 85.9477-5.22325 85.1712-6.37424L66.3733-33.9026L75.5586-61.2424C76.0412-62.7151 77.0036-63.278 78.4763-63.278L128.017-63.278C131.497-63.278 134.47-66.1429 134.47-69.7039C134.47-73.1594 131.497-76.1048 128.017-76.1048L53.3857-76.1048C48.2439-76.1048 43.9868-74.6321 39.81-70.4277L27.5989-58.1362C23.475-54.0122 25.7242-47.2646 31.4012-47.2646L42.8885-47.2646L40.3981-39.8736C39.1139-35.9105 38.4982-31.7865 38.4982-27.7706L38.4982 4.60543L17.7175 28.3566C15.3074 31.0606 15.6015 35.0514 18.3332 37.3811ZM128.017-56.744C133.292-56.744 137.629-61.0816 137.629-66.5174C137.629-71.7672 133.292-76.1048 128.017-76.1048C122.634-76.1048 118.268-71.7672 118.268-66.5174C118.268-61.0816 122.634-56.744 128.017-56.744Z"/>
  </g>
  <g id="Light-L" transform="matrix(1 0 0 1 1077.74 1556)">
   <path d="M72.3097-82.0279C79.4822-82.0279 85.3343-87.8463 85.3343-95.1666C85.3343-102.339 79.4822-108.191 72.3097-108.191C65.0232-108.191 59.1711-102.339 59.1711-95.1666C59.1711-87.8463 65.0232-82.0279 72.3097-82.0279ZM18.2759 35.6825C20.8232 37.8744 24.7377 37.7136 27.0905 35.0859L48.621 10.5255C49.7805 9.17147 50.4108 7.69023 50.5717 6.01448L53.2929-20.9097C53.3733-21.5942 54.2187-21.8898 54.7088-21.3324L72.3097-0.963479L72.3097 30.9769C72.3097 34.4088 75.0516 37.2778 78.5639 37.2778C81.9154 37.2778 84.8311 34.4088 84.8311 30.9769L84.8311-3.04133C84.8311-4.75077 84.2682-5.91032 83.5107-7.02314L65.1709-33.9026L74.1463-60.5744C74.6288-62.0089 75.5341-62.5718 76.9686-62.5718L125.345-62.5718C128.73-62.5718 131.646-65.3604 131.646-68.826C131.646-72.2243 128.73-75.0933 125.345-75.0933L52.4887-75.0933C47.4614-75.0933 43.3188-73.6588 39.2565-69.5498L27.3317-57.5446C23.3032-53.516 25.4952-46.9402 31.0386-46.9402L42.2396-46.9402L39.8064-39.721C38.5795-35.8533 37.9829-31.8247 37.9829-27.9233L37.9829 3.70843L17.6793 26.8679C15.3265 29.4957 15.6015 33.4101 18.2759 35.6825ZM125.345-56.1905C130.486-56.1905 134.709-60.4136 134.709-65.7158C134.709-70.8702 130.486-75.0933 125.345-75.0933C120.076-75.0933 115.806-70.8702 115.806-65.7158C115.806-60.4136 120.076-56.1905 125.345-56.1905Z"/>
  </g>
  <g id="Thin-L" transform="matrix(1 0 0 1 782.957 1556)">
   <path d="M70.4923-80.9173C77.4124-80.9173 83.0373-86.5338 83.0373-93.5511C83.0373-100.471 77.4124-106.096 70.4923-106.096C63.4834-106.096 57.8585-100.471 57.8585-93.5511C57.8585-86.5338 63.4834-80.9173 70.4923-80.9173ZM18.2002 33.4359C20.6466 35.5522 24.46 35.3913 26.7371 32.8646L47.5608 9.112C48.6951 7.80841 49.2749 6.35241 49.4358 4.72714L52.1065-21.6669C52.1869-22.2 52.8809-22.3946 53.2448-22.0139L70.4923-2.02364L70.4923 28.8818C70.4923 32.2128 73.1079 34.9808 76.5193 34.9808C79.7699 34.9808 82.6099 32.2128 82.6099 28.8818L82.6099-4.05101C82.6099-5.68471 82.0469-6.81903 81.3147-7.88136L63.5807-33.9026L72.2784-59.6909C72.7609-61.075 73.5905-61.6379 74.9745-61.6379L121.811-61.6379C125.07-61.6379 127.91-64.3255 127.91-67.6649C127.91-70.9874 125.07-73.7554 121.811-73.7554L51.3023-73.7554C46.4265-73.7554 42.4353-72.3714 38.5245-68.3887L26.9784-56.7621C23.076-52.8597 25.1922-46.5111 30.559-46.5111L41.3814-46.5111L39.0239-39.519C37.8727-35.7775 37.3014-31.8752 37.3014-28.1253L37.3014 2.52206L17.6288 24.8991C15.3518 27.4258 15.6015 31.2393 18.2002 33.4359ZM121.811-55.4585C126.776-55.4585 130.847-59.5301 130.847-64.6556C130.847-69.6838 126.776-73.7554 121.811-73.7554C116.694-73.7554 112.55-69.6838 112.55-64.6556C112.55-59.5301 116.694-55.4585 121.811-55.4585Z"/>
  </g>
  <g id="Ultralight-L" transform="matrix(1 0 0 1 487.235 1556)">
   <path d="M69.5614-80.3484C76.3522-80.3484 81.8608-85.8615 81.8608-92.7237C81.8608-99.5144 76.3522-105.023 69.5614-105.023C62.6948-105.023 57.1862-99.5144 57.1862-92.7237C57.1862-85.8615 62.6948-80.3484 69.5614-80.3484ZM18.1614 32.2853C20.5561 34.3627 24.3178 34.2019 26.5561 31.7268L47.0178 8.38799C48.1392 7.11026 48.6931 5.66719 48.854 4.06778L51.4989-22.0548C51.5793-22.5103 52.1957-22.6532 52.4949-22.363L69.5614-2.56664L69.5614 27.8087C69.5614 31.088 72.1124 33.8043 75.4721 33.8043C78.6709 33.8043 81.4721 31.088 81.4721 27.8087L81.4721-4.56816C81.4721-6.16308 80.9092-7.28446 80.1899-8.32094L62.7662-33.9026L71.3217-59.2384C71.8042-60.5966 72.5949-61.1595 73.9531-61.1595L120.001-61.1595C123.195-61.1595 125.996-63.7954 125.996-67.0702C125.996-70.3539 123.195-73.0702 120.001-73.0702L50.6947-73.0702C45.8964-73.0702 41.9828-71.7121 38.1496-67.794L26.7974-56.3613C22.9597-52.5236 25.0371-46.2913 30.3134-46.2913L40.9418-46.2913L38.6231-39.4156C37.5107-35.7387 36.9523-31.9011 36.9523-28.2287L36.9523 1.91441L17.603 23.8906C15.3647 26.3657 15.6015 30.1274 18.1614 32.2853ZM120.001-55.0836C124.875-55.0836 128.869-59.0776 128.869-64.1126C128.869-69.0762 124.875-73.0702 120.001-73.0702C114.961-73.0702 110.882-69.0762 110.882-64.1126C110.882-59.0776 114.961-55.0836 120.001-55.0836Z"/>
  </g>
  <g id="Black-M" transform="matrix(1 0 0 1 2869.05 1126)">
   <path d="M61.6752-74.9762C68.4534-74.9762 74.0009-80.5182 74.0009-87.3126C74.0009-94.0908 68.4534-99.6383 61.6752-99.6383C54.8863-99.6383 49.3388-94.0908 49.3388-87.3126C49.3388-80.5182 54.8863-74.9762 61.6752-74.9762ZM14.7254 26.8397C17.3588 29.1041 21.3939 28.9224 23.84 26.1697L42.2847 5.11745C43.3909 3.8812 44.0664 2.46875 44.2481 0.697802L46.1438-18.3014C46.2632-19.5647 47.594-19.9396 48.3845-19.0239L60.5333-5.03678L60.5333 21.9474C60.5333 25.4945 63.468 28.4341 67.0774 28.4341C70.5622 28.4341 73.5587 25.4945 73.5587 21.9474L73.5587-7.17634C73.5587-8.95278 72.9513-10.1731 72.2138-11.2795L56.8437-33.7447L64.313-56.0855C64.5726-56.9273 64.8125-57.0209 65.7114-57.0209L107.073-57.0209C110.62-57.0209 113.616-59.8982 113.616-63.5079C113.616-67.0495 110.62-69.9892 107.073-69.9892L44.7785-69.9892C40.208-69.9892 36.3227-68.6335 32.614-64.9251L22.4282-54.677C18.2682-50.517 20.5898-43.6095 26.339-43.6095L34.3654-43.6095L32.8275-38.887C31.7104-35.5368 31.1546-31.8906 31.1546-28.4778L31.1546-1.86284L14.0554 17.6679C11.6663 20.3636 11.9729 24.4558 14.7254 26.8397ZM107.073-51.5566C112.111-51.5566 116.229-55.6754 116.229-60.8381C116.229-65.8704 112.111-69.9892 107.073-69.9892C101.972-69.9892 97.7968-65.8704 97.7968-60.8381C97.7968-55.6754 101.972-51.5566 107.073-51.5566Z"/>
  </g>
  <g id="Heavy-M" transform="matrix(1 0 0 1 2573.28 1126)">
   <path d="M60.7769-74.4191C67.3275-74.4191 72.6902-79.7654 72.6902-86.3674C72.6902-92.918 67.3275-98.2807 60.7769-98.2807C54.1913-98.2807 48.8286-92.918 48.8286-86.3674C48.8286-79.7654 54.1913-74.4191 60.7769-74.4191ZM14.6099 25.6958C17.1118 27.8448 20.9346 27.6766 23.2518 25.0688L41.4497 4.30053C42.5129 3.09635 43.1563 1.74034 43.3245 0.0688374L45.2826-19.4965C45.3885-20.6232 46.5961-20.9879 47.3199-20.144L59.9045-5.64273L59.9045 21.0614C59.9045 24.4231 62.6783 27.2178 66.1023 27.2178C69.4016 27.2178 72.2422 24.4231 72.2422 21.0614L72.2422-7.66938C72.2422-9.3573 71.6752-10.5077 70.9672-11.5686L55.726-33.8525L63.1401-56.0095C63.4267-56.927 63.7936-57.1014 64.7548-57.1014L105.569-57.1014C108.929-57.1014 111.769-59.8338 111.769-63.2555C111.769-66.6008 108.929-69.3955 105.569-69.3955L44.0924-69.3955C39.645-69.3955 35.8829-68.0854 32.2704-64.4706L22.2173-54.3552C18.2722-50.4101 20.4648-43.8759 25.9132-43.8759L34.1841-43.8759L32.5461-38.8935C31.4502-35.5965 30.9104-32.0439 30.9104-28.6869L30.9104-2.33335L13.9829 17.0104C11.7093 19.5745 11.9999 23.4409 14.6099 25.6958ZM105.569-51.7115C110.401-51.7115 114.356-55.6668 114.356-60.6229C114.356-65.4403 110.401-69.3955 105.569-69.3955C100.673-69.3955 96.672-65.4403 96.672-60.6229C96.672-55.6668 100.673-51.7115 105.569-51.7115Z"/>
  </g>
  <g id="Bold-M" transform="matrix(1 0 0 1 2277.62 1126)">
   <path d="M59.7721-73.7958C66.0679-73.7958 71.2241-78.9233 71.2241-85.3101C71.2241-91.606 66.0679-96.7621 59.7721-96.7621C53.4139-96.7621 48.2578-91.606 48.2578-85.3101C48.2578-78.9233 53.4139-73.7958 59.7721-73.7958ZM14.4808 24.4163C16.8355 26.4361 20.4207 26.2829 22.5937 23.8373L40.5156 3.38668C41.5307 2.21837 42.1383 0.925522 42.2914-0.63475L44.3191-20.8334C44.4099-21.8072 45.4798-22.1605 46.1291-21.3969L59.2012-6.32058L59.2012 20.0703C59.2012 23.2246 61.7948 25.8572 65.0114 25.8572C68.1034 25.8572 70.7696 23.2246 70.7696 20.0703L70.7696-8.22092C70.7696-9.80981 70.2478-10.882 69.5728-11.8919L54.4755-33.9731L61.8281-55.9245C62.1449-56.9267 62.6539-57.1916 63.6847-57.1916L103.888-57.1916C107.037-57.1916 109.703-59.7618 109.703-62.9732C109.703-66.0989 107.037-68.7314 103.888-68.7314L43.3249-68.7314C39.0152-68.7314 35.3909-67.4723 31.8859-63.9622L21.9813-53.9952C18.2766-50.2905 20.3249-44.174 25.4368-44.174L33.9813-44.174L32.2314-38.9008C31.159-35.6632 30.6372-32.2155 30.6372-28.9208L30.6372-2.85969L13.9018 16.2748C11.7574 18.6918 12.03 22.3056 14.4808 24.4163ZM103.888-51.8848C108.488-51.8848 112.26-55.6571 112.26-60.3822C112.26-64.9592 108.488-68.7314 103.888-68.7314C99.2196-68.7314 95.4137-64.9592 95.4137-60.3822C95.4137-55.6571 99.2196-51.8848 103.888-51.8848Z"/>
  </g>
  <g id="Semibold-M" transform="matrix(1 0 0 1 1981.63 1126)">
   <path d="M59.0794-73.3661C65.1996-73.3661 70.2133-78.3428 70.2133-84.5812C70.2133-90.7015 65.1996-95.7152 59.0794-95.7152C52.878-95.7152 47.8643-90.7015 47.8643-84.5812C47.8643-78.3428 52.878-73.3661 59.0794-73.3661ZM14.3917 23.5342C16.6451 25.4649 20.0665 25.3222 22.1401 22.9884L39.8717 2.75668C40.8536 1.6131 41.4364 0.363789 41.5792-1.1198L43.6549-21.7551C43.7353-22.6235 44.7102-22.9689 45.3081-22.2607L58.7163-6.78788L58.7163 19.3871C58.7163 22.3984 61.1857 24.9191 64.2594 24.9191C67.2084 24.9191 69.7544 22.3984 69.7544 19.3871L69.7544-8.60115C69.7544-10.1218 69.2638-11.14 68.6115-12.1149L53.6135-34.0562L60.9236-55.8659C61.2611-56.9265 61.8682-57.2537 62.947-57.2537L102.728-57.2537C105.732-57.2537 108.278-59.7121 108.278-62.7786C108.278-65.7529 105.732-68.2736 102.728-68.2736L42.7958-68.2736C38.5811-68.2736 35.0517-67.0496 31.6209-63.6117L21.8186-53.7471C18.2796-50.2081 20.2285-44.3795 25.1083-44.3795L33.8416-44.3795L32.0144-38.9058C30.9584-35.7093 30.4489-32.3337 30.4489-29.082L30.4489-3.22254L13.8459 15.7677C11.7905 18.0833 12.0508 21.5229 14.3917 23.5342ZM102.728-52.0043C107.169-52.0043 110.816-55.6505 110.816-60.2162C110.816-64.6275 107.169-68.2736 102.728-68.2736C98.2176-68.2736 94.5462-64.6275 94.5462-60.2162C94.5462-55.6505 98.2176-52.0043 102.728-52.0043Z"/>
  </g>
  <g id="Medium-M" transform="matrix(1 0 0 1 1685.47 1126)">
   <path d="M58.5541-73.0403C64.5412-73.0403 69.4469-77.9026 69.4469-84.0285C69.4469-90.0156 64.5412-94.9213 58.5541-94.9213C52.4716-94.9213 47.5659-90.0156 47.5659-84.0285C47.5659-77.9026 52.4716-73.0403 58.5541-73.0403ZM14.3242 22.8653C16.5006 24.7286 19.7979 24.5937 21.7961 22.3446L39.3834 2.27899C40.3402 1.15416 40.9043-0.0621407 41.0392-1.48758L43.1512-22.4539C43.2238-23.2425 44.1267-23.5819 44.6856-22.9157L58.3486-7.14221L58.3486 18.869C58.3486 21.7719 60.7239 24.2079 63.6891 24.2079C66.5297 24.2079 68.9846 21.7719 68.9846 18.869L68.9846-8.88945C68.9846-10.3583 68.5176-11.3357 67.8826-12.2839L52.9599-34.1192L60.2378-55.8214C60.5911-56.9263 61.2725-57.3008 62.3877-57.3008L101.849-57.3008C104.743-57.3008 107.198-59.6744 107.198-62.6311C107.198-65.4905 104.743-67.9265 101.849-67.9265L42.3946-67.9265C38.2519-67.9265 34.7945-66.7291 31.42-63.346L21.6952-53.5589C18.2819-50.1456 20.1554-44.5353 24.8593-44.5353L33.7356-44.5353L31.8498-38.9096C30.8062-35.7442 30.3061-32.4234 30.3061-29.2043L30.3061-3.49768L13.8035 15.3831C11.8157 17.6219 12.0666 20.9295 14.3242 22.8653ZM101.849-52.0949C106.17-52.0949 109.72-55.6454 109.72-60.0904C109.72-64.376 106.17-67.9265 101.849-67.9265C97.4578-67.9265 93.8884-64.376 93.8884-60.0904C93.8884-55.6454 97.4578-52.0949 101.849-52.0949Z"/>
  </g>
  <g id="Regular-M" transform="matrix(1 0 0 1 1389.47 1126)">
   <path d="M57.869-72.6153C63.6825-72.6153 68.4473-77.3284 68.4473-83.3076C68.4473-89.1211 63.6825-93.8859 57.869-93.8859C51.9415-93.8859 47.1767-89.1211 47.1767-83.3076C47.1767-77.3284 51.9415-72.6153 57.869-72.6153ZM14.2361 21.9929C16.3123 23.7681 19.4476 23.6435 21.3474 21.505L38.7465 1.65592C39.6705 0.555537 40.2102-0.617701 40.3348-1.9673L42.4943-23.3655C42.5566-24.0498 43.3656-24.3814 43.8736-23.7699L57.869-7.60437L57.869 18.1933C57.869 20.9548 60.1216 23.2802 62.9454 23.2802C65.6446 23.2802 67.9805 20.9548 67.9805 18.1933L67.9805-9.2655C67.9805-10.6669 67.5444-11.5909 66.9319-12.5043L52.1074-34.2015L59.3432-55.7634C59.7171-56.9261 60.4954-57.3622 61.6581-57.3622L100.703-57.3622C103.453-57.3622 105.789-59.6253 105.789-62.4386C105.789-65.1483 103.453-67.4737 100.703-67.4737L41.8713-67.4737C37.8225-67.4737 34.459-66.311 31.1579-62.9993L21.5343-53.3134C18.2849-50.0641 20.0601-44.7385 24.5345-44.7385L33.5973-44.7385L31.6352-38.9145C30.6077-35.7897 30.1198-32.5403 30.1198-29.3638L30.1198-3.85654L13.7482 14.8816C11.8484 17.0201 12.0871 20.1554 14.2361 21.9929ZM100.703-52.2131C104.865-52.2131 108.291-55.6388 108.291-59.9263C108.291-64.0479 104.865-67.4737 100.703-67.4737C96.4668-67.4737 93.0305-64.0479 93.0305-59.9263C93.0305-55.6388 96.4668-52.2131 100.703-52.2131Z"/>
  </g>
  <g id="Light-M" transform="matrix(1 0 0 1 1094.07 1126)">
   <path d="M56.637-71.8625C62.2794-71.8625 66.8902-76.4386 66.8902-82.2125C66.8902-87.8549 62.2794-92.4657 56.637-92.4657C50.8978-92.4657 46.287-87.8549 46.287-82.2125C46.287-76.4386 50.8978-71.8625 56.637-71.8625ZM14.1848 20.47C16.1925 22.1939 19.2594 22.0693 21.1078 19.9992L38.0278 0.697707C38.9348-0.368454 39.4402-1.52458 39.5648-2.83996L41.6901-23.8788C41.7524-24.4605 42.4587-24.7236 42.8812-24.2319L56.637-8.32303L56.637 16.7731C56.637 19.4662 58.804 21.7231 61.5594 21.7231C64.1901 21.7231 66.4747 19.4662 66.4747 16.7731L66.4747-9.94994C66.4747-11.3 66.0386-12.2069 65.4432-13.0861L51.0294-34.2015L58.077-55.1645C58.4509-56.293 59.1778-56.7291 60.3063-56.7291L98.307-56.7291C100.972-56.7291 103.257-58.9238 103.257-61.6515C103.257-64.3099 100.972-66.5668 98.307-66.5668L41.0671-66.5668C37.1209-66.5668 33.8602-65.4384 30.6617-62.2122L21.2948-52.783C18.1309-49.6192 19.8548-44.4476 24.2094-44.4476L33.0155-44.4476L31.1048-38.7776C30.1286-35.7384 29.6578-32.5746 29.6578-29.5007L29.6578-4.66076L13.714 13.547C11.8656 15.617 12.0871 18.6839 14.1848 20.47ZM98.307-51.7168C102.35-51.7168 105.673-55.0399 105.673-59.2076C105.673-63.2437 102.35-66.5668 98.307-66.5668C94.174-66.5668 90.8232-63.2437 90.8232-59.2076C90.8232-55.0399 94.174-51.7168 98.307-51.7168Z"/>
  </g>
  <g id="Thin-M" transform="matrix(1 0 0 1 799.086 1126)">
   <path d="M55.0076-70.8667C60.4237-70.8667 64.8308-75.2618 64.8308-80.7642C64.8308-86.1802 60.4237-90.5873 55.0076-90.5873C49.5173-90.5873 45.1102-86.1802 45.1102-80.7642C45.1102-75.2618 49.5173-70.8667 55.0076-70.8667ZM14.1169 18.4559C16.0341 20.1119 19.0105 19.9872 20.791 18.0077L37.0774-0.569607C37.9616-1.59051 38.4218-2.724 38.5464-3.99412L40.6265-24.5577C40.6888-25.0036 41.2593-25.1763 41.5686-24.843L55.0076-9.27352L55.0076 14.8948C55.0076 17.4973 57.0615 19.6637 59.7263 19.6637C62.2665 19.6637 64.4832 17.4973 64.4832 14.8948L64.4832-10.8552C64.4832-12.1373 64.0471-13.0216 63.4744-13.8556L49.6036-34.2015L56.4024-54.3725C56.7762-55.4557 57.4353-55.8918 58.5185-55.8918L95.1387-55.8918C97.691-55.8918 99.9077-57.9959 99.9077-60.6105C99.9077-63.201 97.691-65.3674 95.1387-65.3674L40.0034-65.3674C36.1931-65.3674 33.0681-64.2842 30.0054-61.1712L20.9779-52.0815C17.9272-49.0308 19.5832-44.0629 23.7794-44.0629L32.2461-44.0629L30.4032-38.5966C29.4949-35.6705 29.0468-32.6198 29.0468-29.6817L29.0468-5.7244L13.6688 11.7818C11.8882 13.7613 12.0871 16.7376 14.1169 18.4559ZM95.1387-51.0606C99.0234-51.0606 102.211-54.2479 102.211-58.2571C102.211-62.1801 99.0234-65.3674 95.1387-65.3674C91.1415-65.3674 87.9039-62.1801 87.9039-58.2571C87.9039-54.2479 91.1415-51.0606 95.1387-51.0606Z"/>
  </g>
  <g id="Ultralight-M" transform="matrix(1 0 0 1 503.262 1126)">
   <path d="M54.1731-70.3567C59.4732-70.3567 63.776-74.6591 63.776-80.0223C63.776-85.3225 59.4732-89.6253 54.1731-89.6253C48.8102-89.6253 44.5074-85.3225 44.5074-80.0223C44.5074-74.6591 48.8102-70.3567 54.1731-70.3567ZM14.0821 17.4243C15.9529 19.0455 18.8829 18.9208 20.6287 16.9877L36.5905-1.21872C37.4632-2.21644 37.9002-3.33834 38.0248-4.58528L40.0817-24.9054C40.144-25.2818 40.645-25.4081 40.8963-25.1559L54.1731-9.76035L54.1731 13.9327C54.1731 16.4889 56.1689 18.6089 58.7874 18.6089C61.2813 18.6089 63.4632 16.4889 63.4632 13.9327L63.4632-11.3188C63.4632-12.5662 63.0271-13.4389 62.4659-14.2497L48.8734-34.2015L55.5446-53.9668C55.9184-55.0268 56.5428-55.4629 57.6028-55.4629L93.5159-55.4629C96.0102-55.4629 98.1922-57.5207 98.1922-60.0773C98.1922-62.633 96.0102-64.7531 93.5159-64.7531L39.4586-64.7531C35.7178-64.7531 32.6624-63.693 29.6692-60.638L20.8157-51.7221C17.8229-48.7294 19.4441-43.8658 23.5592-43.8658L31.852-43.8658L30.0439-38.5039C29.1704-35.6357 28.7338-32.643 28.7338-29.7745L28.7338-6.26919L13.6456 10.8776C11.8998 12.8108 12.0871 15.7408 14.0821 17.4243ZM93.5159-50.7244C97.3195-50.7244 100.437-53.8422 100.437-57.7703C100.437-61.6353 97.3195-64.7531 93.5159-64.7531C89.5882-64.7531 86.4086-61.6353 86.4086-57.7703C86.4086-53.8422 89.5882-50.7244 93.5159-50.7244Z"/>
  </g>
  <g id="Black-S" transform="matrix(1 0 0 1 2882.77 696)">
   <path d="M48.5352-66.5039C53.9062-66.5039 58.3008-70.8984 58.3008-76.2695C58.3008-81.6406 53.9062-86.0352 48.5352-86.0352C43.1641-86.0352 38.7695-81.6406 38.7695-76.2695C38.7695-70.8984 43.1641-66.5039 48.5352-66.5039ZM11.5723 13.6719C13.6719 15.4785 16.8945 15.332 18.8477 13.1348L33.3496-3.41797C34.2285-4.39453 34.7656-5.51758 34.9121-6.93359L36.377-21.6309C36.4746-22.6562 37.5488-22.9492 38.1836-22.2168L47.5586-11.4258L47.5586 9.76562C47.5586 12.5977 49.9023 14.9414 52.7832 14.9414C55.5664 14.9414 57.959 12.5977 57.959 9.76562L57.959-13.1348C57.959-14.5508 57.4707-15.5273 56.8848-16.4062L44.8242-34.0332L50.6836-51.5625C50.8789-52.1973 51.0254-52.2461 51.709-52.2461L84.2285-52.2461C87.0605-52.2461 89.4531-54.541 89.4531-57.4219C89.4531-60.2539 87.0605-62.5977 84.2285-62.5977L35.2539-62.5977C31.6406-62.5977 28.5645-61.5234 25.6348-58.5938L17.627-50.5371C14.3066-47.2168 16.1621-41.6992 20.752-41.6992L26.9531-41.6992L25.7812-38.0859C24.9023-35.4492 24.4629-32.5684 24.4629-29.8828L24.4629-8.98438L11.0352 6.34766C9.13086 8.49609 9.375 11.7676 11.5723 13.6719ZM84.2285-47.9492C88.2324-47.9492 91.5039-51.2207 91.5039-55.3223C91.5039-59.3262 88.2324-62.5977 84.2285-62.5977C80.1758-62.5977 76.8555-59.3262 76.8555-55.3223C76.8555-51.2207 80.1758-47.9492 84.2285-47.9492Z"/>
  </g>
  <g id="Heavy-S" transform="matrix(1 0 0 1 2586.69 696)">
   <path d="M47.9244-66.1236C53.1226-66.1236 57.3788-70.3683 57.3788-75.6011C57.3788-80.7993 53.1226-85.0556 47.9244-85.0556C42.7031-85.0556 38.4468-80.7993 38.4468-75.6011C38.4468-70.3683 42.7031-66.1236 47.9244-66.1236ZM11.4801 12.8882C13.476 14.6027 16.5257 14.4677 18.3752 12.3857L32.7273-3.99419C33.5716-4.94771 34.0857-6.02465 34.2206-7.36L35.7431-22.5874C35.8292-23.5091 36.8113-23.802 37.3999-23.1157L47.1783-11.8522L47.1783 9.1894C47.1783 11.8716 49.3953 14.1001 52.1263 14.1001C54.7597 14.1001 57.0255 11.8716 57.0255 9.1894L57.0255-13.469C57.0255-14.8158 56.5718-15.7348 56.0089-16.5791L44.006-34.1254L49.8423-51.574C50.0607-52.2779 50.3224-52.3959 51.0636-52.3959L83.2489-52.3959C85.9311-52.3959 88.197-54.5756 88.197-57.3066C88.197-59.9773 85.9311-62.2058 83.2489-62.2058L34.7699-62.2058C31.2488-62.2058 28.2648-61.1662 25.4043-58.3056L17.4771-50.3297C14.3297-47.1822 16.0814-41.9643 20.4293-41.9643L26.8725-41.9643L25.6084-38.109C24.741-35.5068 24.3131-32.6951 24.3131-30.0442L24.3131-9.28401L10.9775 5.95582C9.16543 8.00054 9.39805 11.0876 11.4801 12.8882ZM83.2489-48.1451C87.0915-48.1451 90.2362-51.2898 90.2362-55.2301C90.2362-59.0611 87.0915-62.2058 83.2489-62.2058C79.3575-62.2058 76.1755-59.0611 76.1755-55.2301C76.1755-51.2898 79.3575-48.1451 83.2489-48.1451Z"/>
  </g>
  <g id="Bold-S" transform="matrix(1 0 0 1 2290.69 696)">
   <path d="M47.2412-65.6982C52.2461-65.6982 56.3477-69.7754 56.3477-74.8535C56.3477-79.8584 52.2461-83.96 47.2412-83.96C42.1875-83.96 38.0859-79.8584 38.0859-74.8535C38.0859-69.7754 42.1875-65.6982 47.2412-65.6982ZM11.377 12.0117C13.2568 13.623 16.1133 13.501 17.8467 11.5479L32.0312-4.63867C32.8369-5.56641 33.3252-6.5918 33.4473-7.83691L35.0342-23.6572C35.1074-24.4629 35.9863-24.7559 36.5234-24.1211L46.7529-12.3291L46.7529 8.54492C46.7529 11.0596 48.8281 13.1592 51.3916 13.1592C53.8574 13.1592 55.9814 11.0596 55.9814 8.54492L55.9814-13.8428C55.9814-15.1123 55.5664-15.9668 55.0293-16.7725L43.0908-34.2285L48.9014-51.5869C49.1455-52.3682 49.5361-52.5635 50.3418-52.5635L82.1533-52.5635C84.668-52.5635 86.792-54.6143 86.792-57.1777C86.792-59.668 84.668-61.7676 82.1533-61.7676L34.2285-61.7676C30.8105-61.7676 27.9297-60.7666 25.1465-57.9834L17.3096-50.0977C14.3555-47.1436 15.9912-42.2607 20.0684-42.2607L26.7822-42.2607L25.415-38.1348C24.5605-35.5713 24.1455-32.8369 24.1455-30.2246L24.1455-9.61914L10.9131 5.51758C9.2041 7.44629 9.42383 10.3271 11.377 12.0117ZM82.1533-48.3643C85.8154-48.3643 88.8184-51.3672 88.8184-55.127C88.8184-58.7646 85.8154-61.7676 82.1533-61.7676C78.4424-61.7676 75.415-58.7646 75.415-55.127C75.415-51.3672 78.4424-48.3643 82.1533-48.3643Z"/>
  </g>
  <g id="Semibold-S" transform="matrix(1 0 0 1 1994.46 696)">
   <path d="M46.7702-65.405C51.6418-65.405 55.6367-69.3666 55.6367-74.3381C55.6367-79.2097 51.6418-83.2046 46.7702-83.2046C41.832-83.2046 37.8371-79.2097 37.8371-74.3381C37.8371-69.3666 41.832-65.405 46.7702-65.405ZM11.3059 11.4074C13.1058 12.9477 15.8289 12.8345 17.4823 10.9702L31.5514-5.08301C32.3304-5.99297 32.8009-6.98281 32.9141-8.16572L34.5454-24.3948C34.6098-25.1205 35.4176-25.4135 35.9191-24.8143L46.4597-12.6579L46.4597 8.10059C46.4597 10.4997 48.4371 12.5104 50.8851 12.5104C53.2354 12.5104 55.2616 10.4997 55.2616 8.10059L55.2616-14.1005C55.2616-15.3167 54.8732-16.1268 54.3539-16.9058L42.4599-34.2996L48.2526-51.5958C48.5146-52.4304 48.994-52.679 49.8441-52.679L81.3979-52.679C83.7971-52.679 85.8233-54.6409 85.8233-57.0889C85.8233-59.4547 83.7971-61.4654 81.3979-61.4654L33.8553-61.4654C30.5084-61.4654 27.6986-60.4911 24.9688-57.7612L17.194-49.9377C14.3732-47.1169 15.929-42.4651 19.8195-42.4651L26.72-42.4651L25.2817-38.1525C24.4361-35.6157 24.03-32.9347 24.03-30.349L24.03-9.8502L10.8687 5.21543C9.23076 7.06416 9.4416 9.80283 11.3059 11.4074ZM81.3979-48.5153C84.9356-48.5153 87.8408-51.4205 87.8408-55.0559C87.8408-58.5603 84.9356-61.4654 81.3979-61.4654C77.8114-61.4654 74.8907-58.5603 74.8907-55.0559C74.8907-51.4205 77.8114-48.5153 81.3979-48.5153Z"/>
  </g>
  <g id="Medium-S" transform="matrix(1 0 0 1 1698.12 696)">
   <path d="M46.4131-65.1826C51.1836-65.1826 55.0977-69.0566 55.0977-73.9473C55.0977-78.7178 51.1836-82.6318 46.4131-82.6318C41.5625-82.6318 37.6484-78.7178 37.6484-73.9473C37.6484-69.0566 41.5625-65.1826 46.4131-65.1826ZM11.252 10.9492C12.9912 12.4355 15.6133 12.3291 17.2061 10.5322L31.1875-5.41992C31.9463-6.31641 32.4033-7.2793 32.5098-8.41504L34.1748-24.9541C34.2324-25.6191 34.9863-25.9121 35.4609-25.3398L46.2373-12.9072L46.2373 7.76367C46.2373 10.0752 48.1406 12.0186 50.501 12.0186C52.7637 12.0186 54.7158 10.0752 54.7158 7.76367L54.7158-14.2959C54.7158-15.4717 54.3477-16.248 53.8418-17.0068L41.9814-34.3535L47.7607-51.6025C48.0361-52.4775 48.583-52.7666 49.4668-52.7666L80.8252-52.7666C83.1367-52.7666 85.0889-54.6611 85.0889-57.0215C85.0889-59.293 83.1367-61.2363 80.8252-61.2363L33.5723-61.2363C30.2793-61.2363 27.5234-60.2822 24.834-57.5928L17.1064-49.8164C14.3867-47.0967 15.8818-42.6201 19.6309-42.6201L26.6729-42.6201L25.1807-38.166C24.3418-35.6494 23.9424-33.0088 23.9424-30.4434L23.9424-10.0254L10.835 4.98633C9.25098 6.77441 9.45508 9.40527 11.252 10.9492ZM80.8252-48.6299C84.2686-48.6299 87.0996-51.4609 87.0996-55.002C87.0996-58.4053 84.2686-61.2363 80.8252-61.2363C77.333-61.2363 74.4932-58.4053 74.4932-55.002C74.4932-51.4609 77.333-48.6299 80.8252-48.6299Z"/>
  </g>
  <g id="Regular-S" transform="matrix(1 0 0 1 1401.9 696)">
   <path d="M45.9473-64.8926C50.5859-64.8926 54.3945-68.6523 54.3945-73.4375C54.3945-78.0762 50.5859-81.8848 45.9473-81.8848C41.2109-81.8848 37.4023-78.0762 37.4023-73.4375C37.4023-68.6523 41.2109-64.8926 45.9473-64.8926ZM11.1816 10.3516C12.8418 11.7676 15.332 11.6699 16.8457 9.96094L30.7129-5.85938C31.4453-6.73828 31.8848-7.66602 31.9824-8.74023L33.6914-25.6836C33.7402-26.2695 34.4238-26.5625 34.8633-26.0254L45.9473-13.2324L45.9473 7.32422C45.9473 9.52148 47.7539 11.377 50 11.377C52.1484 11.377 54.0039 9.52148 54.0039 7.32422L54.0039-14.5508C54.0039-15.6738 53.6621-16.4062 53.1738-17.1387L41.3574-34.4238L47.1191-51.6113C47.4121-52.5391 48.0469-52.8809 48.9746-52.8809L80.0781-52.8809C82.2754-52.8809 84.1309-54.6875 84.1309-56.9336C84.1309-59.082 82.2754-60.9375 80.0781-60.9375L33.2031-60.9375C29.9805-60.9375 27.2949-60.0098 24.6582-57.373L16.9922-49.6582C14.4043-47.0703 15.8203-42.8223 19.3848-42.8223L26.6113-42.8223L25.0488-38.1836C24.2188-35.6934 23.8281-33.1055 23.8281-30.5664L23.8281-10.2539L10.791 4.6875C9.27734 6.39648 9.47266 8.88672 11.1816 10.3516ZM80.0781-48.7793C83.3984-48.7793 86.1328-51.5137 86.1328-54.9316C86.1328-58.2031 83.3984-60.9375 80.0781-60.9375C76.709-60.9375 73.9746-58.2031 73.9746-54.9316C73.9746-51.5137 76.709-48.7793 80.0781-48.7793Z"/>
  </g>
  <g id="Light-S" transform="matrix(1 0 0 1 1106.34 696)">
   <path d="M44.8574-64.2266C49.3447-64.2266 53.0171-67.8652 53.0171-72.4688C53.0171-76.9561 49.3447-80.6284 44.8574-80.6284C40.2876-80.6284 36.6152-76.9561 36.6152-72.4688C36.6152-67.8652 40.2876-64.2266 44.8574-64.2266ZM11.1362 9.00441C12.7358 10.375 15.1655 10.2774 16.6338 8.62892L30.0772-6.70702C30.7944-7.55566 31.2036-8.46826 31.3013-9.5122L32.98-26.1377C33.0288-26.6328 33.6216-26.8652 33.9854-26.4341L44.8574-13.8682L44.8574 6.06788C44.8574 8.2046 46.5884 9.99952 48.7739 9.99952C50.8618 9.99952 52.6719 8.2046 52.6719 6.06788L52.6719-15.1562C52.6719-16.2339 52.3301-16.9512 51.8569-17.6533L40.4038-34.4238L45.999-51.0815C46.292-51.979 46.8814-52.3208 47.7788-52.3208L77.959-52.3208C80.0806-52.3208 81.8906-54.0669 81.8906-56.2373C81.8906-58.3403 80.0806-60.1353 77.959-60.1353L32.4917-60.1353C29.3599-60.1353 26.7651-59.2378 24.2192-56.6768L16.7803-49.189C14.2681-46.6768 15.6387-42.5649 19.0972-42.5649L26.0967-42.5649L24.5796-38.0625C23.7949-35.6479 23.4194-33.1357 23.4194-30.6875L23.4194-10.9653L10.7607 3.50685C9.29248 5.15528 9.47266 7.58497 11.1362 9.00441ZM77.959-48.3403C81.1734-48.3403 83.8169-50.9839 83.8169-54.2959C83.8169-57.4917 81.1734-60.1353 77.959-60.1353C74.6807-60.1353 72.022-57.4917 72.022-54.2959C72.022-50.9839 74.6807-48.3403 77.959-48.3403Z"/>
  </g>
  <g id="Thin-S" transform="matrix(1 0 0 1 811.162 696)">
   <path d="M43.416-63.3457C47.7031-63.3457 51.1953-66.8242 51.1953-71.1875C51.1953-75.4746 47.7031-78.9668 43.416-78.9668C39.0664-78.9668 35.5742-75.4746 35.5742-71.1875C35.5742-66.8242 39.0664-63.3457 43.416-63.3457ZM11.0762 7.22268C12.5957 8.53323 14.9453 8.43557 16.3535 6.86721L29.2363-7.82811C29.9336-8.6367 30.3027-9.52928 30.4004-10.5332L32.0391-26.7383C32.0879-27.1133 32.5606-27.2656 32.8242-26.9746L43.416-14.709L43.416 4.40627C43.416 6.46291 45.0469 8.17776 47.1524 8.17776C49.1602 8.17776 50.9102 6.46291 50.9102 4.40627L50.9102-15.957C50.9102-16.9746 50.5684-17.6719 50.1153-18.334L39.1426-34.4238L44.5176-50.3809C44.8106-51.2383 45.3399-51.5801 46.1973-51.5801L75.1563-51.5801C77.1778-51.5801 78.9278-53.2461 78.9278-55.3164C78.9278-57.3594 77.1778-59.0742 75.1563-59.0742L31.5508-59.0742C28.5391-59.0742 26.0645-58.2168 23.6387-55.7559L16.5-48.5684C14.0879-46.1563 15.3984-42.2246 18.7168-42.2246L25.416-42.2246L23.959-37.9023C23.2344-35.5879 22.8789-33.1758 22.8789-30.8477L22.8789-11.9062L10.7207 1.94533C9.3125 3.51369 9.47266 5.86331 11.0762 7.22268ZM75.1563-47.7598C78.2305-47.7598 80.7539-50.2832 80.7539-53.4551C80.7539-56.5508 78.2305-59.0742 75.1563-59.0742C71.9981-59.0742 69.4395-56.5508 69.4395-53.4551C69.4395-50.2832 71.9981-47.7598 75.1563-47.7598Z"/>
  </g>
  <g id="Ultralight-S" transform="matrix(1 0 0 1 515.236 696)">
   <path d="M42.6778-62.8945C46.8623-62.8945 50.2622-66.291 50.2622-70.5313C50.2622-74.7158 46.8623-78.1158 42.6778-78.1158C38.4409-78.1158 35.041-74.7158 35.041-70.5313C35.041-66.291 38.4409-62.8945 42.6778-62.8945ZM11.0454 6.31009C12.5239 7.58988 14.8325 7.49222 16.21 5.96488L28.8057-8.40232C29.4927-9.19041 29.8413-10.0727 29.939-11.0561L31.5571-27.0459C31.606-27.3594 32.0171-27.4707 32.2295-27.2515L42.6778-15.1396L42.6778 3.55521C42.6778 5.57083 44.2574 7.24466 46.3218 7.24466C48.2886 7.24466 50.0078 5.57083 50.0078 3.55521L50.0078-16.3672C50.0078-17.354 49.666-18.041 49.2232-18.6826L38.4966-34.4238L43.7588-50.022C44.0518-50.8589 44.5503-51.2007 45.3872-51.2007L73.7208-51.2007C75.691-51.2007 77.4102-52.8257 77.4102-54.8447C77.4102-56.857 75.691-58.5308 73.7208-58.5308L31.0689-58.5308C28.1187-58.5308 25.7056-57.6939 23.3413-55.2842L16.3565-48.2505C13.9956-45.8897 15.2754-42.0503 18.522-42.0503L25.0674-42.0503L23.6411-37.8203C22.9473-35.5571 22.6021-33.1963 22.6021-30.9297L22.6021-12.3882L10.7002 1.14554C9.32275 2.67288 9.47266 4.98148 11.0454 6.31009ZM73.7208-47.4624C76.7232-47.4624 79.1851-49.9243 79.1851-53.0244C79.1851-56.0689 76.7232-58.5308 73.7208-58.5308C70.6241-58.5308 68.1167-56.0689 68.1167-53.0244C68.1167-49.9243 70.6241-47.4624 73.7208-47.4624Z"/>
  </g>
 </g>
</svg>
