<?xml version="1.0" encoding="UTF-8"?>
<!--Generator: Apple Native CoreSVG 175.5-->
<!DOCTYPE svg
PUBLIC "-//W3C//DTD SVG 1.1//EN"
       "http://www.w3.org/Graphics/SVG/1.1/DTD/svg11.dtd">
<svg version="1.1" xmlns="http://www.w3.org/2000/svg" xmlns:xlink="http://www.w3.org/1999/xlink" width="3300" height="2200">
 <!--glyph: "uni10152A.medium", point size: 100.0, font version: "18.0d12e2", template writer version: "101"-->
 <g id="Notes">
  <rect height="2200" id="artboard" style="fill:white;opacity:1" width="3300" x="0" y="0"/>
  <line style="fill:none;stroke:black;opacity:1;stroke-width:0.5;" x1="263" x2="3036" y1="292" y2="292"/>
  <text style="stroke:none;fill:black;font-family:sans-serif;font-size:13;font-weight:bold;" transform="matrix(1 0 0 1 263 322)">Weight/Scale Variations</text>
  <text style="stroke:none;fill:black;font-family:sans-serif;font-size:13;text-anchor:middle;" transform="matrix(1 0 0 1 559.711 322)">Ultralight</text>
  <text style="stroke:none;fill:black;font-family:sans-serif;font-size:13;text-anchor:middle;" transform="matrix(1 0 0 1 856.422 322)">Thin</text>
  <text style="stroke:none;fill:black;font-family:sans-serif;font-size:13;text-anchor:middle;" transform="matrix(1 0 0 1 1153.13 322)">Light</text>
  <text style="stroke:none;fill:black;font-family:sans-serif;font-size:13;text-anchor:middle;" transform="matrix(1 0 0 1 1449.84 322)">Regular</text>
  <text style="stroke:none;fill:black;font-family:sans-serif;font-size:13;text-anchor:middle;" transform="matrix(1 0 0 1 1746.56 322)">Medium</text>
  <text style="stroke:none;fill:black;font-family:sans-serif;font-size:13;text-anchor:middle;" transform="matrix(1 0 0 1 2043.27 322)">Semibold</text>
  <text style="stroke:none;fill:black;font-family:sans-serif;font-size:13;text-anchor:middle;" transform="matrix(1 0 0 1 2339.98 322)">Bold</text>
  <text style="stroke:none;fill:black;font-family:sans-serif;font-size:13;text-anchor:middle;" transform="matrix(1 0 0 1 2636.69 322)">Heavy</text>
  <text style="stroke:none;fill:black;font-family:sans-serif;font-size:13;text-anchor:middle;" transform="matrix(1 0 0 1 2933.4 322)">Black</text>
  <line style="fill:none;stroke:black;opacity:1;stroke-width:0.5;" x1="263" x2="3036" y1="1903" y2="1903"/>
  <g transform="matrix(1 0 0 1 263 1933)">
   <path d="M9.24805 0.830078C13.5547 0.830078 17.1387-2.74414 17.1387-7.05078C17.1387-11.3574 13.5449-14.9316 9.23828-14.9316C4.94141-14.9316 1.36719-11.3574 1.36719-7.05078C1.36719-2.74414 4.95117 0.830078 9.24805 0.830078ZM9.24805-0.654297C5.70312-0.654297 2.87109-3.49609 2.87109-7.05078C2.87109-10.6055 5.69336-13.4473 9.23828-13.4473C12.793-13.4473 15.6445-10.6055 15.6445-7.05078C15.6445-3.49609 12.8027-0.654297 9.24805-0.654297ZM5.6543-7.05078C5.6543-6.62109 5.95703-6.32812 6.40625-6.32812L8.50586-6.32812L8.50586-4.20898C8.50586-3.76953 8.79883-3.4668 9.22852-3.4668C9.67773-3.4668 9.9707-3.76953 9.9707-4.20898L9.9707-6.32812L12.0898-6.32812C12.5293-6.32812 12.832-6.62109 12.832-7.05078C12.832-7.49023 12.5293-7.79297 12.0898-7.79297L9.9707-7.79297L9.9707-9.90234C9.9707-10.3516 9.67773-10.6543 9.22852-10.6543C8.79883-10.6543 8.50586-10.3516 8.50586-9.90234L8.50586-7.79297L6.40625-7.79297C5.95703-7.79297 5.6543-7.49023 5.6543-7.05078Z"/>
  </g>
  <g transform="matrix(1 0 0 1 281.867 1933)">
   <path d="M11.709 2.91016C17.1582 2.91016 21.6699-1.61133 21.6699-7.05078C21.6699-12.5 17.1484-17.0117 11.6992-17.0117C6.25977-17.0117 1.74805-12.5 1.74805-7.05078C1.74805-1.61133 6.26953 2.91016 11.709 2.91016ZM11.709 1.25C7.09961 1.25 3.41797-2.44141 3.41797-7.05078C3.41797-11.6602 7.08984-15.3516 11.6992-15.3516C16.3086-15.3516 20.0098-11.6602 20.0098-7.05078C20.0098-2.44141 16.3184 1.25 11.709 1.25ZM7.17773-7.05078C7.17773-6.57227 7.50977-6.25 8.00781-6.25L10.8789-6.25L10.8789-3.36914C10.8789-2.88086 11.2109-2.53906 11.6895-2.53906C12.1777-2.53906 12.5195-2.87109 12.5195-3.36914L12.5195-6.25L15.4004-6.25C15.8887-6.25 16.2305-6.57227 16.2305-7.05078C16.2305-7.53906 15.8887-7.88086 15.4004-7.88086L12.5195-7.88086L12.5195-10.752C12.5195-11.25 12.1777-11.5918 11.6895-11.5918C11.2109-11.5918 10.8789-11.25 10.8789-10.752L10.8789-7.88086L8.00781-7.88086C7.50977-7.88086 7.17773-7.53906 7.17773-7.05078Z"/>
  </g>
  <g transform="matrix(1 0 0 1 305.646 1933)">
   <path d="M14.9707 5.66406C21.9336 5.66406 27.6953-0.0976562 27.6953-7.05078C27.6953-14.0137 21.9238-19.7754 14.9609-19.7754C8.00781-19.7754 2.25586-14.0137 2.25586-7.05078C2.25586-0.0976562 8.01758 5.66406 14.9707 5.66406ZM14.9707 3.84766C8.93555 3.84766 4.08203-1.01562 4.08203-7.05078C4.08203-13.0957 8.92578-17.9492 14.9609-17.9492C21.0059-17.9492 25.8691-13.0957 25.8691-7.05078C25.8691-1.01562 21.0156 3.84766 14.9707 3.84766ZM9.19922-7.05078C9.19922-6.5332 9.57031-6.17188 10.1172-6.17188L14.0625-6.17188L14.0625-2.2168C14.0625-1.67969 14.4336-1.29883 14.9512-1.29883C15.4883-1.29883 15.8594-1.66992 15.8594-2.2168L15.8594-6.17188L19.8145-6.17188C20.3516-6.17188 20.7324-6.5332 20.7324-7.05078C20.7324-7.59766 20.3613-7.96875 19.8145-7.96875L15.8594-7.96875L15.8594-11.9141C15.8594-12.4609 15.4883-12.8418 14.9512-12.8418C14.4336-12.8418 14.0625-12.4609 14.0625-11.9141L14.0625-7.96875L10.1172-7.96875C9.57031-7.96875 9.19922-7.59766 9.19922-7.05078Z"/>
  </g>
  <text style="stroke:none;fill:black;font-family:sans-serif;font-size:13;font-weight:bold;" transform="matrix(1 0 0 1 263 1953)">Design Variations</text>
  <text style="stroke:none;fill:black;font-family:sans-serif;font-size:13;" transform="matrix(1 0 0 1 263 1971)">Symbols are supported in up to nine weights and three scales.</text>
  <text style="stroke:none;fill:black;font-family:sans-serif;font-size:13;" transform="matrix(1 0 0 1 263 1989)">For optimal layout with text and other symbols, vertically align</text>
  <text style="stroke:none;fill:black;font-family:sans-serif;font-size:13;" transform="matrix(1 0 0 1 263 2007)">symbols with the adjacent text.</text>
  <line style="fill:none;stroke:#00AEEF;stroke-width:0.5;opacity:1.0;" x1="776" x2="776" y1="1919" y2="1933"/>
  <g transform="matrix(1 0 0 1 776 1933)">
   <path d="M3.31055 0.15625C3.82812 0.15625 4.08203-0.0390625 4.26758-0.585938L5.52734-4.0332L11.2891-4.0332L12.5488-0.585938C12.7344-0.0390625 12.9883 0.15625 13.4961 0.15625C14.0137 0.15625 14.3457-0.15625 14.3457-0.644531C14.3457-0.810547 14.3164-0.966797 14.2383-1.17188L9.6582-13.3691C9.43359-13.9648 9.0332-14.2676 8.4082-14.2676C7.80273-14.2676 7.39258-13.9746 7.17773-13.3789L2.59766-1.16211C2.51953-0.957031 2.49023-0.800781 2.49023-0.634766C2.49023-0.146484 2.80273 0.15625 3.31055 0.15625ZM6.00586-5.51758L8.37891-12.0898L8.42773-12.0898L10.8008-5.51758Z"/>
  </g>
  <line style="fill:none;stroke:#00AEEF;stroke-width:0.5;opacity:1.0;" x1="793.197" x2="793.197" y1="1919" y2="1933"/>
  <text style="stroke:none;fill:black;font-family:sans-serif;font-size:13;font-weight:bold;" transform="matrix(1 0 0 1 776 1953)">Margins</text>
  <text style="stroke:none;fill:black;font-family:sans-serif;font-size:13;" transform="matrix(1 0 0 1 776 1971)">Leading and trailing margins on the left and right side of each symbol</text>
  <text style="stroke:none;fill:black;font-family:sans-serif;font-size:13;" transform="matrix(1 0 0 1 776 1989)">can be adjusted by modifying the x-location of the margin guidelines.</text>
  <text style="stroke:none;fill:black;font-family:sans-serif;font-size:13;" transform="matrix(1 0 0 1 776 2007)">Modifications are automatically applied proportionally to all</text>
  <text style="stroke:none;fill:black;font-family:sans-serif;font-size:13;" transform="matrix(1 0 0 1 776 2025)">scales and weights.</text>
  <g transform="matrix(1 0 0 1 1289 1933)">
   <path d="M2.8418 1.86523L4.54102 3.57422C5.40039 4.44336 6.38672 4.38477 7.31445 3.35938L18.0078-8.42773L17.041-9.4043L6.42578 2.27539C6.07422 2.67578 5.74219 2.77344 5.27344 2.30469L4.10156 1.14258C3.63281 0.683594 3.74023 0.341797 4.14062-0.0195312L15.6152-10.8203L14.6387-11.7871L3.04688-0.898438C2.06055 0.0195312 1.98242 0.996094 2.8418 1.86523ZM9.25781-16.3281C8.83789-15.918 8.80859-15.3418 9.04297-14.9512C9.27734-14.5898 9.73633-14.3555 10.3809-14.5215C11.8457-14.8633 13.3691-14.9219 14.7949-13.9844L14.209-12.5293C13.8672-11.6992 14.043-11.1133 14.5801-10.5664L16.875-8.25195C17.3633-7.76367 17.7734-7.74414 18.3398-7.8418L19.4043-8.03711L20.0684-7.36328L20.0293-6.80664C19.9902-6.30859 20.1172-5.92773 20.6055-5.44922L21.3672-4.70703C21.8457-4.22852 22.4609-4.19922 22.9297-4.66797L25.8398-7.58789C26.3086-8.05664 26.2891-8.65234 25.8105-9.13086L25.0391-9.89258C24.5605-10.3711 24.1895-10.5273 23.7109-10.4883L23.1348-10.4395L22.4902-11.0742L22.7344-12.1973C22.8613-12.7637 22.7051-13.2031 22.1191-13.7891L19.9219-15.9766C16.582-19.2969 12.1484-19.2188 9.25781-16.3281ZM10.752-15.957C13.1836-17.7344 16.4746-17.4316 18.7012-15.2051L21.1328-12.793C21.3672-12.5586 21.4062-12.373 21.3379-12.0312L21.0156-10.5469L22.5195-9.0625L23.5059-9.12109C23.7598-9.13086 23.8379-9.11133 24.0332-8.91602L24.6094-8.33984L22.168-5.89844L21.5918-6.47461C21.3965-6.66992 21.3672-6.74805 21.377-7.01172L21.4453-7.98828L19.9512-9.47266L18.4277-9.21875C18.1055-9.15039 17.959-9.17969 17.7148-9.41406L15.7129-11.416C15.459-11.6504 15.4297-11.8164 15.5859-12.1875L16.4648-14.2773C14.9023-15.7324 12.8711-16.3574 10.8398-15.7617C10.6836-15.7227 10.625-15.8496 10.752-15.957Z"/>
  </g>
  <text style="stroke:none;fill:black;font-family:sans-serif;font-size:13;font-weight:bold;" transform="matrix(1 0 0 1 1289 1953)">Exporting</text>
  <text style="stroke:none;fill:black;font-family:sans-serif;font-size:13;" transform="matrix(1 0 0 1 1289 1971)">Symbols should be outlined when exporting to ensure the</text>
  <text style="stroke:none;fill:black;font-family:sans-serif;font-size:13;" transform="matrix(1 0 0 1 1289 1989)">design is preserved when submitting to Xcode.</text>
  <text id="template-version" style="stroke:none;fill:black;font-family:sans-serif;font-size:13;text-anchor:end;" transform="matrix(1 0 0 1 3036 1933)">Template v.4.0</text>
  <text style="stroke:none;fill:black;font-family:sans-serif;font-size:13;text-anchor:end;" transform="matrix(1 0 0 1 3036 1951)">Requires Xcode 14 or greater</text>
  <text id="descriptive-name" style="stroke:none;fill:black;font-family:sans-serif;font-size:13;text-anchor:end;" transform="matrix(1 0 0 1 3036 1969)">Generated from figure.gymnastics</text>
  <text style="stroke:none;fill:black;font-family:sans-serif;font-size:13;text-anchor:end;" transform="matrix(1 0 0 1 3036 1987)">Typeset at 100 points</text>
  <text style="stroke:none;fill:black;font-family:sans-serif;font-size:13;" transform="matrix(1 0 0 1 263 726)">Small</text>
  <text style="stroke:none;fill:black;font-family:sans-serif;font-size:13;" transform="matrix(1 0 0 1 263 1156)">Medium</text>
  <text style="stroke:none;fill:black;font-family:sans-serif;font-size:13;" transform="matrix(1 0 0 1 263 1586)">Large</text>
 </g>
 <g id="Guides">
  <g id="H-reference" style="fill:#27AAE1;stroke:none;" transform="matrix(1 0 0 1 339 696)">
   <path d="M0.993654 0L3.63775 0L29.3281-67.1323L30.0303-67.1323L30.0303-70.459L28.1226-70.459ZM11.6885-24.4799L46.9815-24.4799L46.2315-26.7285L12.4385-26.7285ZM55.1196 0L57.7637 0L30.6382-70.459L29.4326-70.459L29.4326-67.1323Z"/>
  </g>
  <line id="Baseline-S" style="fill:none;stroke:#27AAE1;opacity:1;stroke-width:0.5;" x1="263" x2="3036" y1="696" y2="696"/>
  <line id="Capline-S" style="fill:none;stroke:#27AAE1;opacity:1;stroke-width:0.5;" x1="263" x2="3036" y1="625.541" y2="625.541"/>
  <g id="H-reference" style="fill:#27AAE1;stroke:none;" transform="matrix(1 0 0 1 339 1126)">
   <path d="M0.993654 0L3.63775 0L29.3281-67.1323L30.0303-67.1323L30.0303-70.459L28.1226-70.459ZM11.6885-24.4799L46.9815-24.4799L46.2315-26.7285L12.4385-26.7285ZM55.1196 0L57.7637 0L30.6382-70.459L29.4326-70.459L29.4326-67.1323Z"/>
  </g>
  <line id="Baseline-M" style="fill:none;stroke:#27AAE1;opacity:1;stroke-width:0.5;" x1="263" x2="3036" y1="1126" y2="1126"/>
  <line id="Capline-M" style="fill:none;stroke:#27AAE1;opacity:1;stroke-width:0.5;" x1="263" x2="3036" y1="1055.54" y2="1055.54"/>
  <g id="H-reference" style="fill:#27AAE1;stroke:none;" transform="matrix(1 0 0 1 339 1556)">
   <path d="M0.993654 0L3.63775 0L29.3281-67.1323L30.0303-67.1323L30.0303-70.459L28.1226-70.459ZM11.6885-24.4799L46.9815-24.4799L46.2315-26.7285L12.4385-26.7285ZM55.1196 0L57.7637 0L30.6382-70.459L29.4326-70.459L29.4326-67.1323Z"/>
  </g>
  <line id="Baseline-L" style="fill:none;stroke:#27AAE1;opacity:1;stroke-width:0.5;" x1="263" x2="3036" y1="1556" y2="1556"/>
  <line id="Capline-L" style="fill:none;stroke:#27AAE1;opacity:1;stroke-width:0.5;" x1="263" x2="3036" y1="1485.54" y2="1485.54"/>
  <line id="left-margin-Regular-M" style="fill:none;stroke:#00AEEF;stroke-width:0.5;opacity:1.0;" x1="1385.11" x2="1385.11" y1="1030.79" y2="1150.12"/>
  <line id="right-margin-Regular-M" style="fill:none;stroke:#00AEEF;stroke-width:0.5;opacity:1.0;" x1="1514.58" x2="1514.58" y1="1030.79" y2="1150.12"/>
 </g>
 <g id="Symbols">
  <g id="Black-L" transform="matrix(1 0 0 1 2845.4 1556)">
   <path d="M88.3517-66.8239C96.8766-66.8239 103.842-73.7891 103.842-82.3372C103.842-90.8632 96.8766-97.8285 88.3517-97.8285C79.8037-97.8285 72.8384-90.8632 72.8384-82.3372C72.8384-73.7891 79.8037-66.8239 88.3517-66.8239ZM26.7429-3.89221L59.9155-1.06552C64.062-0.699815 68.4783 0.168341 72.6547 1.34349L113.01 12.6959L149.352 26.0332C152.929 27.3319 158.098 26.0332 159.536 21.2225C160.813 17.2072 158.996 12.6742 154.863 11.177L118.523-2.05905C117.982-2.21989 116.836-2.64281 116.376-2.86205L89.3438-12.6225C93.0151-19.9003 97.7603-31.0632 99.0446-43.1314C99.1471-44.1093 99.388-44.3062 100.264-44.3062L148.76-44.3062C153.112-44.3062 156.645-47.9183 156.645-52.132C156.645-56.5846 153.112-60.1186 148.76-60.1186L95.5699-60.1186C86.6861-60.1186 86.0584-60.0811 76.4288-62.7677L26.1075-76.7264C21.8949-77.9238 17.6019-75.3693 16.3825-71.2735C15.1862-67.0026 17.6824-62.6292 21.8949-61.4901L68.8654-48.4953C69.6968-48.2332 69.8949-47.9911 69.8145-47.0948C68.3682-35.9243 63.0392-25.0547 59.9516-19.667L35.3276-19.667L35.3276-45.4744C35.3276-49.8454 31.5756-53.3002 27.3994-53.3002C23.048-53.3002 19.4348-49.8454 19.4348-45.4744L19.4348-11.8192C19.4348-7.32377 21.6677-4.35152 26.7429-3.89221Z"/>
  </g>
  <g id="Heavy-L" transform="matrix(1 0 0 1 2549.86 1556)">
   <path d="M87.1763-66.4339C95.4596-66.4339 102.229-73.2028 102.229-81.5275C102.229-89.8164 95.4596-96.5854 87.1763-96.5854C78.8516-96.5854 72.0827-89.8164 72.0827-81.5275C72.0827-73.2028 78.8516-66.4339 87.1763-66.4339ZM26.3773-4.69128L59.1295-1.91478C63.6311-1.52151 67.2804-0.768043 71.7336 0.480974L111.602 11.6933L147.482 24.8634C150.917 26.112 155.83 24.8634 157.209 20.2816C158.422 16.4355 156.682 12.1038 152.746 10.68L116.871-2.37957C116.344-2.54041 115.194-2.9727 114.747-3.17816L87.7824-12.9132C91.4179-20.0823 96.1917-31.1877 97.4672-43.2079C97.5834-44.2873 97.9716-44.6039 98.9347-44.6039L146.821-44.6039C150.967-44.6039 154.331-48.0422 154.331-52.0635C154.331-56.3148 150.967-59.684 146.821-59.684L94.2952-59.684C85.5289-59.684 84.8642-59.6695 75.3383-62.3154L25.6498-76.0931C21.6341-77.231 17.538-74.7999 16.3643-70.8735C15.232-66.8132 17.6184-62.6366 21.6341-61.5433L68.0032-48.725C68.8948-48.4536 69.217-48.0598 69.1365-47.0665C67.6946-35.8983 62.3276-25.0217 59.2853-19.757L34.5639-19.757L34.5639-45.4963C34.5639-49.6616 30.9949-52.9559 26.988-52.9559C22.8473-52.9559 19.4034-49.6616 19.4034-45.4963L19.4034-12.2615C19.4034-7.94419 21.5128-5.13239 26.3773-4.69128Z"/>
  </g>
  <g id="Bold-L" transform="matrix(1 0 0 1 2254.69 1556)">
   <path d="M85.642-65.92C93.6256-65.92 100.156-72.4506 100.156-80.4987C100.156-88.4956 93.6256-95.0261 85.642-95.0261C77.5939-95.0261 71.0633-88.4956 71.0633-80.4987C71.0633-72.4506 77.5939-65.92 85.642-65.92ZM25.9388-5.66011L58.1165-2.94511C62.9964-2.52099 65.7824-1.8985 70.5291-0.572199L109.723 10.4486L144.975 23.3889C148.241 24.5759 152.853 23.3889 154.163 19.0764C155.299 15.4305 153.652 11.3373 149.947 9.99817L114.708-2.82378C114.196-2.98462 113.046-3.4247 112.614-3.61474L85.8163-13.2892C89.3983-20.3127 94.1881-31.3191 95.4484-43.2481C95.58-44.4355 96.1301-44.8833 97.186-44.8833L144.237-44.8833C148.144-44.8833 151.308-48.1139 151.308-51.9119C151.308-55.9247 148.144-59.1014 144.237-59.1014L92.623-59.1014C84.0176-59.1014 83.3142-59.1101 73.9338-61.7023L25.111-75.2348C21.3263-76.3034 17.4611-74.0186 16.3412-70.2922C15.2858-66.4782 17.5415-62.5326 21.3263-61.4932L66.8756-48.9125C67.829-48.6332 68.2899-48.0699 68.2095-46.976C66.7752-35.8452 61.3844-24.9981 58.4034-19.887L33.656-19.887L33.656-45.4673C33.656-49.3865 30.3025-52.496 26.4957-52.496C22.6013-52.496 19.3575-49.3865 19.3575-45.4673L19.3575-12.8072C19.3575-8.70514 21.3207-6.07819 25.9388-5.66011Z"/>
  </g>
  <g id="Semibold-L" transform="matrix(1 0 0 1 1959.03 1556)">
   <path d="M84.5842-65.5658C92.3612-65.5658 98.7275-71.932 98.7275-79.7894C98.7275-87.5849 92.3612-93.9512 84.5842-93.9512C76.7268-93.9512 70.3606-87.5849 70.3606-79.7894C70.3606-71.932 76.7268-65.5658 84.5842-65.5658ZM25.6366-6.32802L57.4181-3.6554C62.5589-3.21003 64.7498-2.67783 69.6988-1.29825L108.428 9.59046L143.247 22.3724C146.396 23.517 150.802 22.3724 152.064 18.2456C153.147 14.7376 151.563 10.8088 148.018 9.52813L113.217-3.13001C112.716-3.29085 111.565-3.73631 111.144-3.91572L84.4609-13.5485C88.006-20.4715 92.8068-31.4096 94.0566-43.2757C94.1988-44.5377 94.8607-45.0759 95.9804-45.0759L142.456-45.0759C146.199-45.0759 149.224-48.1633 149.224-51.8074C149.224-55.6557 146.199-58.6997 142.456-58.6997L91.4702-58.6997C82.9757-58.6997 82.2457-58.7245 72.9656-61.2796L24.7396-74.6431C21.114-75.6639 17.408-73.4799 16.3253-69.8914C15.323-66.2473 17.4885-62.4608 21.114-61.4586L66.0981-49.0417C67.0942-48.7571 67.6508-48.0768 67.5704-46.9137C66.1413-35.8086 60.7342-24.9818 57.7954-19.9767L33.0301-19.9767L33.0301-45.4473C33.0301-49.1968 29.8252-52.1788 26.1563-52.1788C22.4318-52.1788 19.3258-49.1968 19.3258-45.4473L19.3258-13.1833C19.3258-9.22973 21.1882-6.73021 25.6366-6.32802Z"/>
  </g>
  <g id="Medium-L" transform="matrix(1 0 0 1 1663.12 1556)">
   <path d="M83.7822-65.2972C91.4026-65.2972 97.6442-71.5388 97.6442-79.2516C97.6442-86.8945 91.4026-93.1362 83.7822-93.1362C76.0694-93.1362 69.8277-86.8945 69.8277-79.2516C69.8277-71.5388 76.0694-65.2972 83.7822-65.2972ZM25.4074-6.83445L56.8885-4.19398C62.2272-3.73249 63.9668-3.26875 69.0693-1.84877L107.446 8.93982L141.937 21.6016C144.998 22.7141 149.246 21.6016 150.472 17.6156C151.514 14.2122 149.979 10.4081 146.554 9.17172L112.086-3.3622C111.593-3.52304 110.442-3.97259 110.03-4.14394L83.4332-13.745C86.9503-20.5919 91.7595-31.4783 93.0013-43.2967C93.1516-44.6152 93.8981-45.2219 95.0663-45.2219L141.105-45.2219C144.723-45.2219 147.644-48.2008 147.644-51.7281C147.644-55.4518 144.723-58.3952 141.105-58.3952L90.5961-58.3952C82.1857-58.3952 81.4355-58.4321 72.2314-60.9592L24.458-74.1944C20.9531-75.179 17.3678-73.0714 16.3133-69.5876C15.3511-66.0722 17.4482-62.4065 20.9531-61.4323L65.5087-49.1397C66.5371-48.851 67.1662-48.082 67.0858-46.8664C65.6607-35.7808 60.2411-24.9695 57.3344-20.0446L32.5555-20.0446L32.5555-45.4322C32.5555-49.053 29.4633-51.9384 25.899-51.9384C22.3032-51.9384 19.3019-49.053 19.3019-45.4322L19.3019-13.4685C19.3019-9.6275 21.0878-7.2246 25.4074-6.83445Z"/>
  </g>
  <g id="Regular-L" transform="matrix(1 0 0 1 1367.46 1556)">
   <path d="M82.736-64.9468C90.1521-64.9468 96.2313-71.026 96.2313-78.5501C96.2313-85.9939 90.1521-92.073 82.736-92.073C75.2118-92.073 69.1327-85.9939 69.1327-78.5501C69.1327-71.026 75.2118-64.9468 82.736-64.9468ZM25.1085-7.49502L56.1978-4.89647C61.7945-4.41395 62.9455-4.03951 68.2481-2.56684L106.165 8.09115L140.228 20.5962C143.173 21.6668 147.217 20.5962 148.395 16.794C149.385 13.5269 147.913 9.88549 144.646 8.70685L110.611-3.66507C110.129-3.82591 108.978-4.28077 108.576-4.44161L82.0927-14.0014C85.5733-20.749 90.3934-31.5678 91.6248-43.3241C91.7856-44.7163 92.6426-45.4124 93.874-45.4124L139.343-45.4124C142.799-45.4124 145.583-48.2497 145.583-51.6248C145.583-55.1858 142.799-57.9979 139.343-57.9979L89.456-57.9979C81.1553-57.9979 80.3787-58.0507 71.2738-60.5412L24.0907-73.6092C20.7432-74.5466 17.3154-72.5386 16.2976-69.1912C15.3879-65.8438 17.3958-62.3355 20.7432-61.3981L64.7398-49.2675C65.8104-48.9735 66.5341-48.0888 66.4537-46.8047C65.0338-35.7446 59.598-24.9534 56.7331-20.1333L31.9365-20.1333L31.9365-45.4124C31.9365-48.8654 28.9912-51.6248 25.5633-51.6248C22.1355-51.6248 19.2706-48.8654 19.2706-45.4124L19.2706-13.8405C19.2706-10.1463 20.9568-7.86946 25.1085-7.49502Z"/>
  </g>
  <g id="Light-L" transform="matrix(1 0 0 1 1072.33 1556)">
   <path d="M81.171-64.3933C88.3772-64.3933 94.3227-70.3389 94.3227-77.6722C94.3227-84.9251 88.3772-90.8707 81.171-90.8707C73.8377-90.8707 67.8921-84.9251 67.8921-77.6722C67.8921-70.3389 73.8377-64.3933 81.171-64.3933ZM24.8985-8.0294L55.2436-5.46903C60.7066-4.98651 61.8194-4.63115 67.0075-3.19666L104.009 7.21322L137.27 19.413C140.139 20.4454 144.087 19.413 145.246 15.7061C146.198 12.5154 144.764 8.9694 141.573 7.80984L108.359-4.2758C107.877-4.43664 106.764-4.87241 106.362-5.03325L80.5277-14.364C83.9128-20.9399 88.6184-31.5106 89.8117-42.9996C89.9725-44.3537 90.8104-45.0307 92.0036-45.0307L136.385-45.0307C139.783-45.0307 142.491-47.7725 142.491-51.0904C142.491-54.556 139.783-57.3109 136.385-57.3109L87.7001-57.3109C79.6094-57.3109 78.8519-57.3445 69.9569-59.7778L23.8998-72.5404C20.6287-73.4587 17.2772-71.508 16.2785-68.237C15.4069-64.9659 17.3576-61.5339 20.6287-60.6156L63.5756-48.7713C64.608-48.4963 65.3318-47.6117 65.2514-46.3848C63.8505-35.5728 58.5483-25.0488 55.7598-20.3432L31.5548-20.3432L31.5548-45.0307C31.5548-48.3692 28.6858-51.0904 25.3343-51.0904C21.9828-51.0904 19.1942-48.3692 19.1942-45.0307L19.1942-14.2032C19.1942-10.6235 20.8232-8.38476 24.8985-8.0294Z"/>
  </g>
  <g id="Thin-L" transform="matrix(1 0 0 1 777.715 1556)">
   <path d="M79.1012-63.6613C86.0297-63.6613 91.7985-69.4302 91.7985-76.5111C91.7985-83.5116 86.0297-89.2804 79.1012-89.2804C72.0203-89.2804 66.2514-83.5116 66.2514-76.5111C66.2514-69.4302 72.0203-63.6613 79.1012-63.6613ZM24.6209-8.73618L53.9815-6.22629C59.2678-5.74377 60.3302-5.41365 65.3668-4.02964L101.157 6.0521L133.357 17.848C136.125 18.8299 139.947 17.848 141.081 14.2673C141.983 11.1776 140.599 7.75779 137.509 6.62348L105.381-5.08353C104.898-5.24437 103.836-5.65491 103.434-5.81575L78.4578-14.8436C81.7168-21.1923 86.2709-31.4349 87.4137-42.5705C87.5745-43.8741 88.3872-44.5259 89.5299-44.5259L132.472-44.5259C135.795-44.5259 138.402-47.1415 138.402-50.3836C138.402-53.723 135.795-56.4022 132.472-56.4022L85.3779-56.4022C77.5648-56.4022 76.8326-56.4106 68.2152-58.7681L23.6474-71.1269C20.4773-72.0199 17.2267-70.145 16.2533-66.9749C15.4322-63.8047 17.3072-60.4738 20.4773-59.5807L62.0358-48.115C63.0178-47.8653 63.7415-46.9807 63.6611-45.8295C62.2855-35.3456 57.16-25.175 54.4724-20.6209L31.05-20.6209L31.05-44.5259C31.05-47.7129 28.282-50.3836 25.0314-50.3836C21.7809-50.3836 19.0933-47.7129 19.0933-44.5259L19.0933-14.6828C19.0933-11.2545 20.6466-9.06629 24.6209-8.73618Z"/>
  </g>
  <g id="Ultralight-L" transform="matrix(1 0 0 1 482.077 1556)">
   <path d="M78.041-63.2864C84.8273-63.2864 90.5057-68.9648 90.5057-75.9164C90.5057-82.7876 84.8273-88.4659 78.041-88.4659C71.0894-88.4659 65.4111-82.7876 65.4111-75.9164C65.4111-68.9648 71.0894-63.2864 78.041-63.2864ZM24.4787-9.09818L53.335-6.61415C58.5309-6.13163 59.5674-5.81444 64.5264-4.45629L99.6956 5.45738L131.353 17.0464C134.069 18.0024 137.827 17.0464 138.948 13.5304C139.824 10.4924 138.466 7.13721 135.428 6.01583L103.855-5.49725C103.372-5.65809 102.336-6.0557 101.934-6.21654L77.3977-15.0892C80.592-21.3216 85.0686-31.3961 86.1855-42.3507C86.3463-43.6284 87.146-44.2673 88.2629-44.2673L130.469-44.2673C133.752-44.2673 136.308-46.8183 136.308-50.0216C136.308-53.2963 133.752-55.9367 130.469-55.9367L84.1884-55.9367C76.5175-55.9367 75.7983-55.9322 67.3232-58.2509L23.5181-70.4029C20.3997-71.283 17.2009-69.4468 16.2403-66.3284C15.4451-63.21 17.2813-59.9308 20.3997-59.0506L61.2472-47.7788C62.2032-47.5421 62.927-46.6574 62.8466-45.545C61.484-35.2293 56.449-25.2397 53.8131-20.7631L30.7914-20.7631L30.7914-44.2673C30.7914-47.3767 28.0751-50.0216 24.8763-50.0216C21.6774-50.0216 19.0416-47.3767 19.0416-44.2673L19.0416-14.9284C19.0416-11.5777 20.5561-9.41537 24.4787-9.09818Z"/>
  </g>
  <g id="Black-M" transform="matrix(1 0 0 1 2864.43 1126)">
   <path d="M69.248-59.9672C76.0317-59.9672 81.5786-65.5141 81.5786-72.3027C81.5786-79.0861 76.0317-84.633 69.248-84.633C62.4593-84.633 56.9124-79.0861 56.9124-72.3027C56.9124-65.5141 62.4593-59.9672 69.248-59.9672ZM21.0046-10.3368L46.9653-8.10892C49.8545-7.84929 53.9299-7.08071 56.9122-6.23893L88.4724 2.64307L116.916 13.0783C119.798 14.1224 124.01 13.0783 125.173 9.16753C126.212 5.92155 124.742 2.24956 121.382 1.02922L92.9387-9.33824C92.5078-9.46285 91.6298-9.77986 91.2612-9.96157L70.3482-17.5143C73.2104-23.2228 76.8466-31.8868 77.8441-41.2417C77.9116-41.907 77.9692-41.9541 78.5669-41.9541L116.516-41.9541C120.057-41.9541 122.93-44.8889 122.93-48.3111C122.93-51.9208 120.057-54.7926 116.516-54.7926L74.8997-54.7926C67.9445-54.7926 67.4924-54.741 59.9713-56.8498L20.594-67.7783C17.1716-68.7546 13.6868-66.6771 12.7052-63.3688C11.7286-59.8892 13.7491-56.3421 17.1716-55.4229L53.9361-45.2424C54.5234-45.0499 54.5703-44.9927 54.508-44.3894C53.3862-35.7668 49.3084-27.388 46.8878-23.1237L27.9745-23.1237L27.9745-43.0961C27.9745-46.6437 24.9206-49.453 21.55-49.453C18.0081-49.453 15.0737-46.6437 15.0737-43.0961L15.0737-16.7616C15.0737-13.1412 16.902-10.7057 21.0046-10.3368Z"/>
  </g>
  <g id="Heavy-M" transform="matrix(1 0 0 1 2568.72 1126)">
   <path d="M68.2433-59.637C74.8102-59.637 80.1775-65.0043 80.1775-71.5922C80.1775-78.1614 74.8102-83.5287 68.2433-83.5287C61.6554-83.5287 56.2881-78.1614 56.2881-71.5922C56.2881-65.0043 61.6554-59.637 68.2433-59.637ZM20.6666-11.0687L46.285-8.88632C49.5336-8.59973 52.8628-7.94151 56.1262-7.024L87.2942 1.74392L115.361 12.0439C118.112 13.0425 122.082 12.0439 123.188 8.34806C124.168 5.26052 122.771 1.77649 119.596 0.62608L91.5321-9.59523C91.1147-9.71984 90.2283-10.0478 89.8731-10.216L68.9662-17.765C71.8022-23.3831 75.477-32.0139 76.4693-41.3464C76.5503-42.1144 76.7535-42.2803 77.4405-42.2803L114.893-42.2803C118.239-42.2803 120.952-45.054 120.952-48.2934C120.952-51.7151 118.239-54.4311 114.893-54.4311L73.8155-54.4311C66.9558-54.4311 66.4659-54.4039 59.0268-56.4781L20.1642-67.2578C16.9271-68.1777 13.6278-66.2156 12.6892-63.0658C11.7716-59.7851 13.6901-56.4234 16.9271-55.5471L53.2007-45.5127C53.8503-45.3094 54.0185-45.1039 53.9562-44.4005C52.8369-35.7573 48.7096-27.3469 46.3262-23.1923L27.2631-23.1923L27.2631-43.1527C27.2631-46.5099 24.3811-49.1658 21.169-49.1658C17.826-49.1658 15.05-46.5099 15.05-43.1527L15.05-17.1605C15.05-13.7037 16.7628-11.4216 20.6666-11.0687Z"/>
  </g>
  <g id="Bold-M" transform="matrix(1 0 0 1 2273.13 1126)">
   <path d="M67.1194-59.2677C73.4439-59.2677 78.6103-64.4341 78.6103-70.7974C78.6103-77.127 73.4439-82.2934 67.1194-82.2934C60.7561-82.2934 55.5897-77.127 55.5897-70.7974C55.5897-64.4341 60.7561-59.2677 67.1194-59.2677ZM20.2884-11.8874L45.5239-9.75594C49.1746-9.43921 51.669-8.90443 55.2469-7.9022L85.9761 0.738088L113.621 10.8868C116.225 11.8345 119.924 10.8868 120.968 7.43135C121.882 4.52106 120.566 1.24729 117.598 0.175109L89.9586-9.88271C89.5562-10.0073 88.6604-10.3475 88.3204-10.5006L67.4203-18.0454C70.2269-23.5624 73.9448-32.156 74.9314-41.4636C75.0275-42.3465 75.3937-42.6451 76.1804-42.6451L113.078-42.6451C116.204-42.6451 118.74-45.2388 118.74-48.2736C118.74-51.4851 116.204-54.0267 113.078-54.0267L72.6028-54.0267C65.8499-54.0267 65.3176-54.0267 57.9703-56.0622L19.6834-66.6756C16.6537-67.5323 13.5617-65.6994 12.6713-62.7268C11.8197-59.6686 13.624-56.5143 16.6537-55.6861L52.3781-45.8152C53.0973-45.5997 53.4011-45.2284 53.3388-44.413C52.2225-35.7466 48.0398-27.3009 45.698-23.269L26.4673-23.269L26.4673-43.2161C26.4673-46.3601 23.7777-48.8446 20.7428-48.8446C17.6222-48.8446 15.0234-46.3601 15.0234-43.2161L15.0234-17.6068C15.0234-14.3329 16.6071-12.2223 20.2884-11.8874Z"/>
  </g>
  <g id="Semibold-M" transform="matrix(1 0 0 1 1977.19 1126)">
   <path d="M66.3446-59.013C72.5019-59.013 77.5298-64.0409 77.5298-70.2495C77.5298-76.4139 72.5019-81.4418 66.3446-81.4418C60.1361-81.4418 55.1082-76.4139 55.1082-70.2495C55.1082-64.0409 60.1361-59.013 66.3446-59.013ZM20.0277-12.4518L44.9993-10.3555C48.9271-10.0179 50.8461-9.56827 54.6407-8.50763L85.0675 0.0446756L112.422 10.0891C114.924 11.0017 118.437 10.0891 119.437 6.79938C120.306 4.01129 119.045 0.882459 116.221-0.135788L88.8738-10.0809C88.4818-10.2055 87.5796-10.5541 87.2499-10.6968L66.3546-18.2387C69.1409-23.6861 72.8885-32.254 73.8712-41.5444C73.9777-42.5064 74.4562-42.8967 75.3117-42.8967L111.827-42.8967C114.801-42.8967 117.216-45.3661 117.216-48.26C117.216-51.3265 114.801-53.7479 111.827-53.7479L71.7667-53.7479C65.0875-53.7479 64.526-53.7667 57.2419-55.7755L19.352-66.2742C16.4652-67.0874 13.5162-65.3436 12.6589-62.4931C11.8528-59.5883 13.5785-56.577 16.4652-55.7819L51.811-46.0237C52.5782-45.7998 52.9756-45.3142 52.9133-44.4215C51.7989-35.7393 47.5781-27.2692 45.2649-23.3218L25.9187-23.3218L25.9187-43.2598C25.9187-46.2569 23.3616-48.6231 20.4489-48.6231C17.4817-48.6231 15.0052-46.2569 15.0052-43.2598L15.0052-17.9144C15.0052-14.7667 16.4998-12.7743 20.0277-12.4518Z"/>
  </g>
  <g id="Medium-M" transform="matrix(1 0 0 1 1681.06 1126)">
   <path d="M65.7571-58.82C71.7877-58.82 76.7106-63.7429 76.7106-69.834C76.7106-75.8731 71.7877-80.796 65.7571-80.796C59.666-80.796 54.7431-75.8731 54.7431-69.834C54.7431-63.7429 59.666-58.82 65.7571-58.82ZM19.8301-12.8797L44.6015-10.81C48.7394-10.4568 50.2221-10.0716 54.1811-8.96669L84.3785-0.481098L111.512 9.48428C113.938 10.3702 117.309 9.48428 118.277 6.3202C119.11 3.62475 117.892 0.605833 115.176-0.371524L88.0513-10.2312C87.6672-10.3558 86.7601-10.7107 86.4383-10.8456L65.5465-18.3853C68.3175-23.7798 72.0876-32.3284 73.0673-41.6057C73.1816-42.6277 73.7453-43.0874 74.6531-43.0874L110.878-43.0874C113.738-43.0874 116.059-45.4627 116.059-48.2496C116.059-51.2062 113.738-53.5364 110.878-53.5364L71.1328-53.5364C64.5094-53.5364 63.9258-53.5696 56.6896-55.5581L19.1006-65.9699C16.3223-66.75 13.4817-65.0737 12.6495-62.316C11.878-59.5274 13.544-56.6245 16.3223-55.8546L51.3809-46.1818C52.1846-45.9515 52.6529-45.3792 52.5906-44.428C51.4777-35.7337 47.2279-27.2451 44.9365-23.3619L25.5027-23.3619L25.5027-43.2929C25.5027-46.1786 23.0462-48.4552 20.2261-48.4552C17.3752-48.4552 14.9913-46.1786 14.9913-43.2929L14.9913-18.1477C14.9913-15.0956 16.4184-13.1929 19.8301-12.8797Z"/>
  </g>
  <g id="Regular-M" transform="matrix(1 0 0 1 1385.11 1126)">
   <path d="M64.9909-58.5681C70.8561-58.5681 75.642-63.354 75.642-69.2921C75.642-75.1678 70.8561-79.9537 64.9909-79.9537C59.0528-79.9537 54.2669-75.1678 54.2669-69.2921C54.2669-63.354 59.0528-58.5681 64.9909-58.5681ZM19.5722-13.4379L44.0826-11.403C48.4947-11.0291 49.4082-10.7282 53.5816-9.56547L83.4798-1.16689L110.326 8.69535C112.651 9.54651 115.839 8.69535 116.763 5.69517C117.551 3.12058 116.389 0.245015 113.814-0.679004L86.9784-10.4272C86.6046-10.5518 85.6911-10.9151 85.3796-11.0397L64.4924-18.5765C67.2434-23.9021 71.043-32.4253 72.0187-41.6856C72.1434-42.786 72.8182-43.3361 73.7939-43.3361L109.641-43.3361C112.351-43.3361 114.551-45.5887 114.551-48.2361C114.551-51.0494 112.351-53.2607 109.641-53.2607L70.3059-53.2607C63.7553-53.2607 63.1428-53.3124 55.9692-55.2745L18.7728-65.5729C16.1359-66.31 13.4367-64.7217 12.6373-62.0849C11.9107-59.448 13.499-56.6864 16.1359-55.9493L50.8201-46.3881C51.6712-46.1494 52.232-45.4641 52.1697-44.4365C51.0587-35.7264 46.7713-27.2138 44.5082-23.4142L24.9601-23.4142L24.9601-43.3361C24.9601-46.0766 22.6347-48.2361 19.9355-48.2361C17.2363-48.2361 14.9732-46.0766 14.9732-43.3361L14.9732-18.4519C14.9732-15.5246 16.3123-13.7389 19.5722-13.4379Z"/>
  </g>
  <g id="Light-M" transform="matrix(1 0 0 1 1089.82 1126)">
   <path d="M63.5878-58.0719C69.2647-58.0719 73.9309-62.7381 73.9309-68.505C73.9309-74.2096 69.2647-78.8758 63.5878-78.8758C57.8208-78.8758 53.1547-74.2096 53.1547-68.505C53.1547-62.7381 57.8208-58.0719 63.5878-58.0719ZM19.384-13.917L43.2271-11.9163C47.5194-11.5425 48.3986-11.2586 52.4694-10.1301L81.5463-1.95399L107.674 7.63447C109.931 8.45141 113.032 7.63447 113.939 4.71985C114.694 2.2137 113.565-0.57631 111.059-1.48322L84.9593-10.9747C84.5855-11.0993 83.7062-11.4455 83.3947-11.5701L63.0893-18.9017C65.7547-24.0732 69.4517-32.3739 70.3932-41.3947C70.5178-42.4608 71.1755-42.9939 72.1171-42.9939L106.989-42.9939C109.647-42.9939 111.779-45.1609 111.779-47.757C111.779-50.4847 109.647-52.6447 106.989-52.6447L68.7317-52.6447C62.3693-52.6447 61.774-52.6793 54.7886-54.5901L18.6017-64.6147C16.0332-65.3347 13.4025-63.7978 12.6202-61.2293C11.9279-58.6608 13.4648-55.9678 16.0332-55.2478L49.7763-45.9432C50.5932-45.7216 51.154-45.0363 51.0917-44.0601C49.9978-35.5724 45.8302-27.2993 43.6355-23.6024L24.6179-23.6024L24.6179-42.9939C24.6179-45.6317 22.3609-47.757 19.7302-47.757C17.0994-47.757 14.9048-45.6317 14.9048-42.9939L14.9048-18.777C14.9048-15.9524 16.1925-14.2009 19.384-13.917Z"/>
  </g>
  <g id="Thin-M" transform="matrix(1 0 0 1 794.99 1126)">
   <path d="M61.7321-57.4156C67.1601-57.4156 71.6678-61.9234 71.6678-67.464C71.6678-72.9423 67.1601-77.45 61.7321-77.45C56.1914-77.45 51.6837-72.9423 51.6837-67.464C51.6837-61.9234 56.1914-57.4156 61.7321-57.4156ZM19.1351-14.5507L42.0955-12.5952C46.2294-12.2214 47.0634-11.9601 50.9984-10.8769L78.989-2.995L104.166 6.23137C106.333 7.00305 109.321 6.23137 110.205 3.42991C110.915 1.01428 109.831-1.66258 107.416-2.54686L82.2889-11.6989C81.9151-11.8235 81.0811-12.1471 80.7696-12.2717L61.2336-19.3316C63.7859-24.2995 67.347-32.3061 68.2433-41.01C68.3679-42.0309 69.003-42.5413 69.8993-42.5413L103.481-42.5413C106.071-42.5413 108.113-44.5951 108.113-47.1234C108.113-49.7379 106.071-51.83 103.481-51.83L66.6496-51.83C60.5363-51.83 59.9635-51.842 53.2271-53.6849L18.3754-63.3474C15.8975-64.0447 13.3572-62.5757 12.5976-60.0978C11.9505-57.6198 13.4195-55.0173 15.8975-54.3199L48.3958-45.3548C49.1675-45.1559 49.7282-44.4705 49.6659-43.5622C48.5948-35.3688 44.5855-27.4125 42.4814-23.8514L24.1652-23.8514L24.1652-42.5413C24.1652-45.0433 21.9988-47.1234 19.4586-47.1234C16.9184-47.1234 14.8143-45.0433 14.8143-42.5413L14.8143-19.207C14.8143-16.5182 16.0341-14.8119 19.1351-14.5507Z"/>
  </g>
  <g id="Ultralight-M" transform="matrix(1 0 0 1 499.241 1126)">
   <path d="M60.7816-57.0795C66.0821-57.0795 70.5087-61.5061 70.5087-66.9308C70.5087-72.2932 66.0821-76.7198 60.7816-76.7198C55.3569-76.7198 50.9303-72.2932 50.9303-66.9308C50.9303-61.5061 55.3569-57.0795 60.7816-57.0795ZM19.0076-14.8752L41.516-12.9429C45.5687-12.5691 46.3795-12.3195 50.2449-11.2595L77.6792-3.5282L102.37 5.51271C104.49 6.26121 107.42 5.51271 108.293 2.7692C108.979 0.399941 107.919-2.21896 105.55-3.09165L80.9211-12.0698C80.5473-12.1944 79.7365-12.5064 79.425-12.631L60.2831-19.5519C62.7774-24.4154 66.269-32.2713 67.1421-40.8129C67.2667-41.8106 67.8902-42.3095 68.7633-42.3095L101.684-42.3095C104.24-42.3095 106.235-44.3053 106.235-46.7988C106.235-49.3554 104.24-51.4127 101.684-51.4127L65.5832-51.4127C59.5974-51.4127 59.0362-51.4131 52.4273-53.2212L18.2595-62.6983C15.8279-63.384 13.334-61.9498 12.586-59.5182C11.9621-57.0866 13.3963-54.5305 15.8279-53.8447L47.6888-45.0534C48.4373-44.8661 48.998-44.1807 48.9357-43.3072C47.8761-35.2644 43.948-27.4705 41.8902-23.9789L23.9334-23.9789L23.9334-42.3095C23.9334-44.7419 21.8134-46.7988 19.3195-46.7988C16.8256-46.7988 14.7679-44.7419 14.7679-42.3095L14.7679-19.4273C14.7679-16.8079 15.9529-15.1249 19.0076-14.8752Z"/>
  </g>
  <g id="Black-S" transform="matrix(1 0 0 1 2879.13 696)">
   <path d="M54.4922-54.6875C59.8633-54.6875 64.2578-59.082 64.2578-64.4531C64.2578-69.8242 59.8633-74.2188 54.4922-74.2188C49.1211-74.2188 44.7266-69.8242 44.7266-64.4531C44.7266-59.082 49.1211-54.6875 54.4922-54.6875ZM16.5527-15.5273L36.9629-13.7695C39.1113-13.5742 42.5293-12.9395 44.7754-12.3047L69.5801-5.32227L91.9434 2.88086C94.2383 3.71094 97.6074 2.88086 98.5352-0.244141C99.3652-2.83203 98.1934-5.76172 95.5078-6.73828L73.1445-14.8926C72.8027-14.9902 72.1191-15.2344 71.8262-15.3809L55.4688-21.2891C57.7148-25.7812 60.5469-32.5684 61.3281-39.8926C61.377-40.3809 61.377-40.3809 61.8164-40.3809L91.6504-40.3809C94.4824-40.3809 96.7773-42.7246 96.7773-45.459C96.7773-48.3398 94.4824-50.6348 91.6504-50.6348L58.9355-50.6348C53.4668-50.6348 53.125-50.5859 47.2168-52.2461L16.2598-60.8398C13.5254-61.6211 10.7422-59.9609 9.96094-57.3242C9.17969-54.541 10.791-51.709 13.5254-50.9766L42.4316-42.9688C42.8711-42.8223 42.8711-42.8223 42.8223-42.3828C41.9434-35.6445 38.7695-29.1016 36.8652-25.7324L22.1191-25.7324L22.1191-41.3574C22.1191-44.1895 19.6777-46.4355 16.9922-46.4355C14.1602-46.4355 11.8164-44.1895 11.8164-41.3574L11.8164-20.6543C11.8164-17.7734 13.2812-15.8203 16.5527-15.5273Z"/>
  </g>
  <g id="Heavy-S" transform="matrix(1 0 0 1 2583.09 696)">
   <path d="M53.8122-54.4685C59.022-54.4685 63.2782-58.7248 63.2782-63.946C63.2782-69.1558 59.022-73.412 53.8122-73.412C48.591-73.412 44.3347-69.1558 44.3347-63.946C44.3347-58.7248 48.591-54.4685 53.8122-54.4685ZM16.2877-16.092L36.4904-14.3688C38.9615-14.1504 41.7456-13.6079 44.2453-12.904L68.8195-5.99068L90.9523 2.13177C93.1435 2.92727 96.3167 2.13177 97.1983-0.820364C97.9823-3.28149 96.868-6.06135 94.3323-6.9803L72.1995-15.0424C71.8693-15.1401 71.1741-15.3957 70.8927-15.5307L54.4661-21.4619C56.7007-25.8965 59.5788-32.6836 60.3601-40.0193C60.4204-40.5998 60.5472-40.7035 61.0673-40.7035L90.6017-40.7035C93.2724-40.7035 95.4405-42.9205 95.4405-45.5051C95.4405-48.2361 93.2724-50.4043 90.6017-50.4043L58.2095-50.4043C52.7984-50.4043 52.422-50.3785 46.5599-52.0156L15.914-60.5172C13.3295-61.2523 10.6961-59.6844 9.94941-57.1744C9.21426-54.5525 10.7449-51.8703 13.3295-51.1725L41.9361-43.2569C42.4332-43.0989 42.5369-42.9721 42.4881-42.4404C41.6091-35.6561 38.3777-29.0555 36.4965-25.767L21.5544-25.767L21.5544-41.4496C21.5544-44.1318 19.2513-46.2512 16.6926-46.2512C14.0219-46.2512 11.8049-44.1318 11.8049-41.4496L11.8049-20.9539C11.8049-18.1998 13.1775-16.3735 16.2877-16.092Z"/>
  </g>
  <g id="Bold-S" transform="matrix(1 0 0 1 2287.13 696)">
   <path d="M53.0518-54.2236C58.0811-54.2236 62.1826-58.3252 62.1826-63.3789C62.1826-68.4082 58.0811-72.5098 53.0518-72.5098C47.998-72.5098 43.8965-68.4082 43.8965-63.3789C43.8965-58.3252 47.998-54.2236 53.0518-54.2236ZM15.9912-16.7236L35.9619-15.0391C38.7939-14.7949 40.8691-14.3555 43.6523-13.5742L67.9688-6.73828L89.8438 1.29395C91.9189 2.05078 94.873 1.29395 95.7031-1.46484C96.4355-3.78418 95.3857-6.39648 93.0176-7.25098L71.1426-15.21C70.8252-15.3076 70.1172-15.5762 69.8486-15.6982L53.3447-21.6553C55.5664-26.0254 58.4961-32.8125 59.2773-40.1611C59.3506-40.8447 59.6191-41.0645 60.2295-41.0645L89.4287-41.0645C91.9189-41.0645 93.9453-43.1396 93.9453-45.5566C93.9453-48.1201 91.9189-50.1465 89.4287-50.1465L57.3975-50.1465C52.0508-50.1465 51.6357-50.1465 45.8252-51.7578L15.5273-60.1562C13.1104-60.8398 10.6445-59.375 9.93652-57.0068C9.25293-54.5654 10.6934-52.0508 13.1104-51.3916L41.3818-43.5791C41.9434-43.4082 42.1631-43.1396 42.1143-42.5049C41.2354-35.6689 37.9395-29.0039 36.084-25.8057L20.9229-25.8057L20.9229-41.5527C20.9229-44.0674 18.7744-46.0449 16.3574-46.0449C13.8672-46.0449 11.792-44.0674 11.792-41.5527L11.792-21.2891C11.792-18.6768 13.0615-16.9922 15.9912-16.7236Z"/>
  </g>
  <g id="Semibold-S" transform="matrix(1 0 0 1 1990.94 696)">
   <path d="M52.5274-54.0548C57.4323-54.0548 61.4272-58.0497 61.4272-62.9879C61.4272-67.8928 57.4323-71.8877 52.5274-71.8877C47.5893-71.8877 43.5943-67.8928 43.5943-62.9879C43.5943-58.0497 47.5893-54.0548 52.5274-54.0548ZM15.7868-17.1591L35.5976-15.5012C38.6784-15.2393 40.2648-14.8709 43.2436-14.0363L67.3822-7.25371L89.0795 0.716309C91.0747 1.44648 93.8777 0.716309 94.6723-1.90918C95.3691-4.13076 94.3638-6.62754 92.1111-7.4376L70.4139-15.3255C70.1054-15.4231 69.3885-15.7006 69.1288-15.8138L52.5716-21.7886C54.7844-26.1143 57.7496-32.9014 58.5309-40.2589C58.613-41.0136 58.9793-41.3133 59.6519-41.3133L88.62-41.3133C90.9858-41.3133 92.9145-43.2907 92.9145-45.5922C92.9145-48.0401 90.9858-49.9688 88.62-49.9688L56.8376-49.9688C51.5354-49.9688 51.0937-49.9865 45.3187-51.5801L15.2607-59.9074C12.9593-60.5555 10.609-59.1617 9.92764-56.8913C9.27959-54.5743 10.6578-52.1752 12.9593-51.5427L40.9997-43.8013C41.6057-43.6215 41.9054-43.2552 41.8565-42.5493C40.9776-35.6778 37.6373-28.9684 35.7996-25.8323L20.4874-25.8323L20.4874-41.6238C20.4874-44.0229 18.4456-45.9027 16.1264-45.9027C13.7605-45.9027 11.7831-44.0229 11.7831-41.6238L11.7831-21.5201C11.7831-19.0056 12.9815-17.4187 15.7868-17.1591Z"/>
  </g>
  <g id="Medium-S" transform="matrix(1 0 0 1 1694.63 696)">
   <path d="M52.1299-53.9268C56.9404-53.9268 60.8545-57.8408 60.8545-62.6914C60.8545-67.502 56.9404-71.416 52.1299-71.416C47.2793-71.416 43.3652-67.502 43.3652-62.6914C43.3652-57.8408 47.2793-53.9268 52.1299-53.9268ZM15.6318-17.4893L35.3213-15.8516C38.5908-15.5762 39.8066-15.2617 42.9336-14.3867L66.9375-7.64453L88.5 0.27832C90.4346 0.988281 93.123 0.27832 93.8906-2.24609C94.5605-4.39355 93.5889-6.80273 91.4238-7.5791L69.8613-15.4131C69.5596-15.5107 68.8359-15.7949 68.583-15.9014L51.9854-21.8896C54.1914-26.1816 57.1836-32.9688 57.9648-40.333C58.0537-41.1416 58.4941-41.502 59.2139-41.502L88.0068-41.502C90.2783-41.502 92.1328-43.4053 92.1328-45.6191C92.1328-47.9795 90.2783-49.834 88.0068-49.834L56.4131-49.834C51.1445-49.834 50.6826-49.8652 44.9346-51.4453L15.0586-59.7188C12.8447-60.3398 10.582-59 9.9209-56.8037C9.2998-54.5811 10.6309-52.2695 12.8447-51.6572L40.71-43.9697C41.3496-43.7832 41.71-43.3428 41.6611-42.583C40.7822-35.6846 37.4082-28.9414 35.584-25.8525L20.1572-25.8525L20.1572-41.6777C20.1572-43.9893 18.1963-45.7949 15.9512-45.7949C13.6797-45.7949 11.7764-43.9893 11.7764-41.6777L11.7764-21.6953C11.7764-19.2549 12.9209-17.7422 15.6318-17.4893Z"/>
  </g>
  <g id="Regular-S" transform="matrix(1 0 0 1 1398.43 696)">
   <path d="M51.6113-53.7598C56.2988-53.7598 60.1074-57.5684 60.1074-62.3047C60.1074-66.9922 56.2988-70.8008 51.6113-70.8008C46.875-70.8008 43.0664-66.9922 43.0664-62.3047C43.0664-57.5684 46.875-53.7598 51.6113-53.7598ZM15.4297-17.9199L34.9609-16.3086C38.4766-16.0156 39.209-15.7715 42.5293-14.8438L66.3574-8.1543L87.7441-0.292969C89.5996 0.390625 92.1387-0.292969 92.8711-2.68555C93.5059-4.73633 92.5781-7.03125 90.5273-7.76367L69.1406-15.5273C68.8477-15.625 68.1152-15.918 67.8711-16.0156L51.2207-22.0215C53.418-26.2695 56.4453-33.0566 57.2266-40.4297C57.3242-41.3086 57.8613-41.748 58.6426-41.748L87.207-41.748C89.3555-41.748 91.1133-43.5547 91.1133-45.6543C91.1133-47.9004 89.3555-49.6582 87.207-49.6582L55.8594-49.6582C50.6348-49.6582 50.1465-49.707 44.4336-51.2695L14.7949-59.4727C12.6953-60.0586 10.5469-58.7891 9.91211-56.6895C9.32617-54.5898 10.5957-52.3926 12.6953-51.8066L40.332-44.1895C41.0156-43.9941 41.4551-43.457 41.4062-42.627C40.5273-35.6934 37.1094-28.9062 35.3027-25.8789L19.7266-25.8789L19.7266-41.748C19.7266-43.9453 17.8711-45.6543 15.7227-45.6543C13.5742-45.6543 11.7676-43.9453 11.7676-41.748L11.7676-21.9238C11.7676-19.5801 12.8418-18.1641 15.4297-17.9199Z"/>
  </g>
  <g id="Light-S" transform="matrix(1 0 0 1 1102.97 696)">
   <path d="M50.3701-53.3208C54.8911-53.3208 58.5938-57.0234 58.5938-61.6084C58.5938-66.1445 54.8911-69.8472 50.3701-69.8472C45.7852-69.8472 42.0825-66.1445 42.0825-61.6084C42.0825-57.0234 45.7852-53.3208 50.3701-53.3208ZM15.2632-18.3437L34.2041-16.7627C37.6138-16.4697 38.3159-16.2407 41.5454-15.3433L64.647-8.85058L85.398-1.23144C87.1929-0.578117 89.6563-1.23144 90.3736-3.54833C90.978-5.53857 90.0806-7.75781 88.0904-8.47509L67.3545-16.0117C67.0615-16.1094 66.3594-16.3872 66.1152-16.4849L49.9795-22.3091C52.1011-26.4209 55.0376-33.0112 55.7886-40.1724C55.8862-41.021 56.4082-41.4453 57.1592-41.4453L84.8609-41.4453C86.9639-41.4453 88.6612-43.1763 88.6612-45.2305C88.6612-47.4009 86.9639-49.1133 84.8609-49.1133L54.4668-49.1133C49.4087-49.1133 48.9356-49.147 43.3892-50.6641L14.6436-58.625C12.6045-59.1958 10.5166-57.9717 9.89697-55.9326C9.34131-53.8936 10.5654-51.7568 12.6045-51.186L39.4087-43.7959C40.062-43.6157 40.5015-43.0786 40.4526-42.2939C39.5889-35.5571 36.2769-28.9819 34.5308-26.0454L19.4238-26.0454L19.4238-41.4453C19.4238-43.5518 17.6289-45.2305 15.541-45.2305C13.4531-45.2305 11.707-43.5518 11.707-41.4453L11.707-22.2114C11.707-19.9585 12.7358-18.5728 15.2632-18.3437Z"/>
  </g>
  <g id="Thin-S" transform="matrix(1 0 0 1 807.924 696)">
   <path d="M48.7285-52.7402C53.0293-52.7402 56.5918-56.3027 56.5918-60.6875C56.5918-65.0235 53.0293-68.586 48.7285-68.586C44.3438-68.586 40.7813-65.0235 40.7813-60.6875C40.7813-56.3027 44.3438-52.7402 48.7285-52.7402ZM15.043-18.9043L33.2031-17.3633C36.4727-17.0703 37.1348-16.8613 40.2442-16.0039L62.3848-9.77147L82.295-2.47264C84.0098-1.85936 86.3731-2.47264 87.0704-4.68944C87.6348-6.59959 86.7774-8.71874 84.8672-9.416L64.9922-16.6523C64.6993-16.75 64.0371-17.0078 63.793-17.1055L48.3379-22.6894C50.3594-26.6211 53.1758-32.9512 53.8867-39.832C53.9844-40.6406 54.4864-41.0449 55.1973-41.0449L81.7579-41.0449C83.8008-41.0449 85.418-42.6758 85.418-44.6699C85.418-46.7402 83.8008-48.3926 81.7579-48.3926L52.625-48.3926C47.7871-48.3926 47.334-48.4063 42.0078-49.8633L14.4434-57.5039C12.4844-58.0547 10.4766-56.8906 9.87695-54.9317C9.36133-52.9727 10.5254-50.916 12.4844-50.3652L38.1875-43.2754C38.8008-43.1152 39.2403-42.5781 39.1914-41.8535C38.3477-35.377 35.1758-29.082 33.5098-26.2656L19.0234-26.2656L19.0234-41.0449C19.0234-43.0313 17.3086-44.6699 15.3008-44.6699C13.293-44.6699 11.627-43.0313 11.627-41.0449L11.627-22.5918C11.627-20.459 12.5957-19.1133 15.043-18.9043Z"/>
  </g>
  <g id="Ultralight-S" transform="matrix(1 0 0 1 512.064 696)">
   <path d="M47.8877-52.4429C52.0757-52.4429 55.5664-55.9336 55.5664-60.2158C55.5664-64.4492 52.0757-67.94 47.8877-67.94C43.6055-67.94 40.1148-64.4492 40.1148-60.2158C40.1148-55.9336 43.6055-52.4429 47.8877-52.4429ZM14.9302-19.1914L32.6904-17.6709C35.8882-17.3779 36.5298-17.1792 39.5777-16.3423L61.2261-10.2431L80.7056-3.10838C82.3795-2.5156 84.6915-3.10838 85.3785-5.27391C85.9224-7.14305 85.0855-9.21092 83.2164-9.89793L63.7823-16.9805C63.4893-17.0781 62.8477-17.3257 62.6036-17.4233L47.4971-22.8843C49.4673-26.7236 52.2222-32.9204 52.9126-39.6577C53.0103-40.4458 53.502-40.8399 54.1924-40.8399L80.1685-40.8399C82.1807-40.8399 83.7569-42.4194 83.7569-44.3828C83.7569-46.4019 82.1807-48.0235 80.1685-48.0235L51.6817-48.0235C46.9566-48.0235 46.5137-48.0269 41.3003-49.4531L14.3408-56.9297C12.4229-57.4702 10.4561-56.3369 9.8667-54.419C9.37158-52.501 10.5049-50.4854 12.4229-49.9448L37.562-43.0088C38.1548-42.8589 38.5943-42.3218 38.5454-41.6279C37.7119-35.2847 34.6118-29.1333 32.9868-26.3784L18.8184-26.3784L18.8184-40.8399C18.8184-42.7647 17.1445-44.3828 15.1777-44.3828C13.2109-44.3828 11.5859-42.7647 11.5859-40.8399L11.5859-22.7866C11.5859-20.7153 12.5239-19.3901 14.9302-19.1914Z"/>
  </g>
 </g>
</svg>
