<?xml version="1.0" encoding="UTF-8"?>
<!--Generator: Apple Native CoreSVG 175.5-->
<!DOCTYPE svg
PUBLIC "-//W3C//DTD SVG 1.1//EN"
       "http://www.w3.org/Graphics/SVG/1.1/DTD/svg11.dtd">
<svg version="1.1" xmlns="http://www.w3.org/2000/svg" xmlns:xlink="http://www.w3.org/1999/xlink" width="3300" height="2200">
 <!--glyph: "uni101313.medium", point size: 100.0, font version: "18.0d12e2", template writer version: "101"-->
 <g id="Notes">
  <rect height="2200" id="artboard" style="fill:white;opacity:1" width="3300" x="0" y="0"/>
  <line style="fill:none;stroke:black;opacity:1;stroke-width:0.5;" x1="263" x2="3036" y1="292" y2="292"/>
  <text style="stroke:none;fill:black;font-family:sans-serif;font-size:13;font-weight:bold;" transform="matrix(1 0 0 1 263 322)">Weight/Scale Variations</text>
  <text style="stroke:none;fill:black;font-family:sans-serif;font-size:13;text-anchor:middle;" transform="matrix(1 0 0 1 559.711 322)">Ultralight</text>
  <text style="stroke:none;fill:black;font-family:sans-serif;font-size:13;text-anchor:middle;" transform="matrix(1 0 0 1 856.422 322)">Thin</text>
  <text style="stroke:none;fill:black;font-family:sans-serif;font-size:13;text-anchor:middle;" transform="matrix(1 0 0 1 1153.13 322)">Light</text>
  <text style="stroke:none;fill:black;font-family:sans-serif;font-size:13;text-anchor:middle;" transform="matrix(1 0 0 1 1449.84 322)">Regular</text>
  <text style="stroke:none;fill:black;font-family:sans-serif;font-size:13;text-anchor:middle;" transform="matrix(1 0 0 1 1746.56 322)">Medium</text>
  <text style="stroke:none;fill:black;font-family:sans-serif;font-size:13;text-anchor:middle;" transform="matrix(1 0 0 1 2043.27 322)">Semibold</text>
  <text style="stroke:none;fill:black;font-family:sans-serif;font-size:13;text-anchor:middle;" transform="matrix(1 0 0 1 2339.98 322)">Bold</text>
  <text style="stroke:none;fill:black;font-family:sans-serif;font-size:13;text-anchor:middle;" transform="matrix(1 0 0 1 2636.69 322)">Heavy</text>
  <text style="stroke:none;fill:black;font-family:sans-serif;font-size:13;text-anchor:middle;" transform="matrix(1 0 0 1 2933.4 322)">Black</text>
  <line style="fill:none;stroke:black;opacity:1;stroke-width:0.5;" x1="263" x2="3036" y1="1903" y2="1903"/>
  <g transform="matrix(1 0 0 1 263 1933)">
   <path d="M9.24805 0.830078C13.5547 0.830078 17.1387-2.74414 17.1387-7.05078C17.1387-11.3574 13.5449-14.9316 9.23828-14.9316C4.94141-14.9316 1.36719-11.3574 1.36719-7.05078C1.36719-2.74414 4.95117 0.830078 9.24805 0.830078ZM9.24805-0.654297C5.70312-0.654297 2.87109-3.49609 2.87109-7.05078C2.87109-10.6055 5.69336-13.4473 9.23828-13.4473C12.793-13.4473 15.6445-10.6055 15.6445-7.05078C15.6445-3.49609 12.8027-0.654297 9.24805-0.654297ZM5.6543-7.05078C5.6543-6.62109 5.95703-6.32812 6.40625-6.32812L8.50586-6.32812L8.50586-4.20898C8.50586-3.76953 8.79883-3.4668 9.22852-3.4668C9.67773-3.4668 9.9707-3.76953 9.9707-4.20898L9.9707-6.32812L12.0898-6.32812C12.5293-6.32812 12.832-6.62109 12.832-7.05078C12.832-7.49023 12.5293-7.79297 12.0898-7.79297L9.9707-7.79297L9.9707-9.90234C9.9707-10.3516 9.67773-10.6543 9.22852-10.6543C8.79883-10.6543 8.50586-10.3516 8.50586-9.90234L8.50586-7.79297L6.40625-7.79297C5.95703-7.79297 5.6543-7.49023 5.6543-7.05078Z"/>
  </g>
  <g transform="matrix(1 0 0 1 281.867 1933)">
   <path d="M11.709 2.91016C17.1582 2.91016 21.6699-1.61133 21.6699-7.05078C21.6699-12.5 17.1484-17.0117 11.6992-17.0117C6.25977-17.0117 1.74805-12.5 1.74805-7.05078C1.74805-1.61133 6.26953 2.91016 11.709 2.91016ZM11.709 1.25C7.09961 1.25 3.41797-2.44141 3.41797-7.05078C3.41797-11.6602 7.08984-15.3516 11.6992-15.3516C16.3086-15.3516 20.0098-11.6602 20.0098-7.05078C20.0098-2.44141 16.3184 1.25 11.709 1.25ZM7.17773-7.05078C7.17773-6.57227 7.50977-6.25 8.00781-6.25L10.8789-6.25L10.8789-3.36914C10.8789-2.88086 11.2109-2.53906 11.6895-2.53906C12.1777-2.53906 12.5195-2.87109 12.5195-3.36914L12.5195-6.25L15.4004-6.25C15.8887-6.25 16.2305-6.57227 16.2305-7.05078C16.2305-7.53906 15.8887-7.88086 15.4004-7.88086L12.5195-7.88086L12.5195-10.752C12.5195-11.25 12.1777-11.5918 11.6895-11.5918C11.2109-11.5918 10.8789-11.25 10.8789-10.752L10.8789-7.88086L8.00781-7.88086C7.50977-7.88086 7.17773-7.53906 7.17773-7.05078Z"/>
  </g>
  <g transform="matrix(1 0 0 1 305.646 1933)">
   <path d="M14.9707 5.66406C21.9336 5.66406 27.6953-0.0976562 27.6953-7.05078C27.6953-14.0137 21.9238-19.7754 14.9609-19.7754C8.00781-19.7754 2.25586-14.0137 2.25586-7.05078C2.25586-0.0976562 8.01758 5.66406 14.9707 5.66406ZM14.9707 3.84766C8.93555 3.84766 4.08203-1.01562 4.08203-7.05078C4.08203-13.0957 8.92578-17.9492 14.9609-17.9492C21.0059-17.9492 25.8691-13.0957 25.8691-7.05078C25.8691-1.01562 21.0156 3.84766 14.9707 3.84766ZM9.19922-7.05078C9.19922-6.5332 9.57031-6.17188 10.1172-6.17188L14.0625-6.17188L14.0625-2.2168C14.0625-1.67969 14.4336-1.29883 14.9512-1.29883C15.4883-1.29883 15.8594-1.66992 15.8594-2.2168L15.8594-6.17188L19.8145-6.17188C20.3516-6.17188 20.7324-6.5332 20.7324-7.05078C20.7324-7.59766 20.3613-7.96875 19.8145-7.96875L15.8594-7.96875L15.8594-11.9141C15.8594-12.4609 15.4883-12.8418 14.9512-12.8418C14.4336-12.8418 14.0625-12.4609 14.0625-11.9141L14.0625-7.96875L10.1172-7.96875C9.57031-7.96875 9.19922-7.59766 9.19922-7.05078Z"/>
  </g>
  <text style="stroke:none;fill:black;font-family:sans-serif;font-size:13;font-weight:bold;" transform="matrix(1 0 0 1 263 1953)">Design Variations</text>
  <text style="stroke:none;fill:black;font-family:sans-serif;font-size:13;" transform="matrix(1 0 0 1 263 1971)">Symbols are supported in up to nine weights and three scales.</text>
  <text style="stroke:none;fill:black;font-family:sans-serif;font-size:13;" transform="matrix(1 0 0 1 263 1989)">For optimal layout with text and other symbols, vertically align</text>
  <text style="stroke:none;fill:black;font-family:sans-serif;font-size:13;" transform="matrix(1 0 0 1 263 2007)">symbols with the adjacent text.</text>
  <line style="fill:none;stroke:#00AEEF;stroke-width:0.5;opacity:1.0;" x1="776" x2="776" y1="1919" y2="1933"/>
  <g transform="matrix(1 0 0 1 776 1933)">
   <path d="M3.31055 0.15625C3.82812 0.15625 4.08203-0.0390625 4.26758-0.585938L5.52734-4.0332L11.2891-4.0332L12.5488-0.585938C12.7344-0.0390625 12.9883 0.15625 13.4961 0.15625C14.0137 0.15625 14.3457-0.15625 14.3457-0.644531C14.3457-0.810547 14.3164-0.966797 14.2383-1.17188L9.6582-13.3691C9.43359-13.9648 9.0332-14.2676 8.4082-14.2676C7.80273-14.2676 7.39258-13.9746 7.17773-13.3789L2.59766-1.16211C2.51953-0.957031 2.49023-0.800781 2.49023-0.634766C2.49023-0.146484 2.80273 0.15625 3.31055 0.15625ZM6.00586-5.51758L8.37891-12.0898L8.42773-12.0898L10.8008-5.51758Z"/>
  </g>
  <line style="fill:none;stroke:#00AEEF;stroke-width:0.5;opacity:1.0;" x1="793.197" x2="793.197" y1="1919" y2="1933"/>
  <text style="stroke:none;fill:black;font-family:sans-serif;font-size:13;font-weight:bold;" transform="matrix(1 0 0 1 776 1953)">Margins</text>
  <text style="stroke:none;fill:black;font-family:sans-serif;font-size:13;" transform="matrix(1 0 0 1 776 1971)">Leading and trailing margins on the left and right side of each symbol</text>
  <text style="stroke:none;fill:black;font-family:sans-serif;font-size:13;" transform="matrix(1 0 0 1 776 1989)">can be adjusted by modifying the x-location of the margin guidelines.</text>
  <text style="stroke:none;fill:black;font-family:sans-serif;font-size:13;" transform="matrix(1 0 0 1 776 2007)">Modifications are automatically applied proportionally to all</text>
  <text style="stroke:none;fill:black;font-family:sans-serif;font-size:13;" transform="matrix(1 0 0 1 776 2025)">scales and weights.</text>
  <g transform="matrix(1 0 0 1 1289 1933)">
   <path d="M2.8418 1.86523L4.54102 3.57422C5.40039 4.44336 6.38672 4.38477 7.31445 3.35938L18.0078-8.42773L17.041-9.4043L6.42578 2.27539C6.07422 2.67578 5.74219 2.77344 5.27344 2.30469L4.10156 1.14258C3.63281 0.683594 3.74023 0.341797 4.14062-0.0195312L15.6152-10.8203L14.6387-11.7871L3.04688-0.898438C2.06055 0.0195312 1.98242 0.996094 2.8418 1.86523ZM9.25781-16.3281C8.83789-15.918 8.80859-15.3418 9.04297-14.9512C9.27734-14.5898 9.73633-14.3555 10.3809-14.5215C11.8457-14.8633 13.3691-14.9219 14.7949-13.9844L14.209-12.5293C13.8672-11.6992 14.043-11.1133 14.5801-10.5664L16.875-8.25195C17.3633-7.76367 17.7734-7.74414 18.3398-7.8418L19.4043-8.03711L20.0684-7.36328L20.0293-6.80664C19.9902-6.30859 20.1172-5.92773 20.6055-5.44922L21.3672-4.70703C21.8457-4.22852 22.4609-4.19922 22.9297-4.66797L25.8398-7.58789C26.3086-8.05664 26.2891-8.65234 25.8105-9.13086L25.0391-9.89258C24.5605-10.3711 24.1895-10.5273 23.7109-10.4883L23.1348-10.4395L22.4902-11.0742L22.7344-12.1973C22.8613-12.7637 22.7051-13.2031 22.1191-13.7891L19.9219-15.9766C16.582-19.2969 12.1484-19.2188 9.25781-16.3281ZM10.752-15.957C13.1836-17.7344 16.4746-17.4316 18.7012-15.2051L21.1328-12.793C21.3672-12.5586 21.4062-12.373 21.3379-12.0312L21.0156-10.5469L22.5195-9.0625L23.5059-9.12109C23.7598-9.13086 23.8379-9.11133 24.0332-8.91602L24.6094-8.33984L22.168-5.89844L21.5918-6.47461C21.3965-6.66992 21.3672-6.74805 21.377-7.01172L21.4453-7.98828L19.9512-9.47266L18.4277-9.21875C18.1055-9.15039 17.959-9.17969 17.7148-9.41406L15.7129-11.416C15.459-11.6504 15.4297-11.8164 15.5859-12.1875L16.4648-14.2773C14.9023-15.7324 12.8711-16.3574 10.8398-15.7617C10.6836-15.7227 10.625-15.8496 10.752-15.957Z"/>
  </g>
  <text style="stroke:none;fill:black;font-family:sans-serif;font-size:13;font-weight:bold;" transform="matrix(1 0 0 1 1289 1953)">Exporting</text>
  <text style="stroke:none;fill:black;font-family:sans-serif;font-size:13;" transform="matrix(1 0 0 1 1289 1971)">Symbols should be outlined when exporting to ensure the</text>
  <text style="stroke:none;fill:black;font-family:sans-serif;font-size:13;" transform="matrix(1 0 0 1 1289 1989)">design is preserved when submitting to Xcode.</text>
  <text id="template-version" style="stroke:none;fill:black;font-family:sans-serif;font-size:13;text-anchor:end;" transform="matrix(1 0 0 1 3036 1933)">Template v.4.0</text>
  <text style="stroke:none;fill:black;font-family:sans-serif;font-size:13;text-anchor:end;" transform="matrix(1 0 0 1 3036 1951)">Requires Xcode 14 or greater</text>
  <text id="descriptive-name" style="stroke:none;fill:black;font-family:sans-serif;font-size:13;text-anchor:end;" transform="matrix(1 0 0 1 3036 1969)">Generated from figure.pilates</text>
  <text style="stroke:none;fill:black;font-family:sans-serif;font-size:13;text-anchor:end;" transform="matrix(1 0 0 1 3036 1987)">Typeset at 100 points</text>
  <text style="stroke:none;fill:black;font-family:sans-serif;font-size:13;" transform="matrix(1 0 0 1 263 726)">Small</text>
  <text style="stroke:none;fill:black;font-family:sans-serif;font-size:13;" transform="matrix(1 0 0 1 263 1156)">Medium</text>
  <text style="stroke:none;fill:black;font-family:sans-serif;font-size:13;" transform="matrix(1 0 0 1 263 1586)">Large</text>
 </g>
 <g id="Guides">
  <g id="H-reference" style="fill:#27AAE1;stroke:none;" transform="matrix(1 0 0 1 339 696)">
   <path d="M0.993654 0L3.63775 0L29.3281-67.1323L30.0303-67.1323L30.0303-70.459L28.1226-70.459ZM11.6885-24.4799L46.9815-24.4799L46.2315-26.7285L12.4385-26.7285ZM55.1196 0L57.7637 0L30.6382-70.459L29.4326-70.459L29.4326-67.1323Z"/>
  </g>
  <line id="Baseline-S" style="fill:none;stroke:#27AAE1;opacity:1;stroke-width:0.5;" x1="263" x2="3036" y1="696" y2="696"/>
  <line id="Capline-S" style="fill:none;stroke:#27AAE1;opacity:1;stroke-width:0.5;" x1="263" x2="3036" y1="625.541" y2="625.541"/>
  <g id="H-reference" style="fill:#27AAE1;stroke:none;" transform="matrix(1 0 0 1 339 1126)">
   <path d="M0.993654 0L3.63775 0L29.3281-67.1323L30.0303-67.1323L30.0303-70.459L28.1226-70.459ZM11.6885-24.4799L46.9815-24.4799L46.2315-26.7285L12.4385-26.7285ZM55.1196 0L57.7637 0L30.6382-70.459L29.4326-70.459L29.4326-67.1323Z"/>
  </g>
  <line id="Baseline-M" style="fill:none;stroke:#27AAE1;opacity:1;stroke-width:0.5;" x1="263" x2="3036" y1="1126" y2="1126"/>
  <line id="Capline-M" style="fill:none;stroke:#27AAE1;opacity:1;stroke-width:0.5;" x1="263" x2="3036" y1="1055.54" y2="1055.54"/>
  <g id="H-reference" style="fill:#27AAE1;stroke:none;" transform="matrix(1 0 0 1 339 1556)">
   <path d="M0.993654 0L3.63775 0L29.3281-67.1323L30.0303-67.1323L30.0303-70.459L28.1226-70.459ZM11.6885-24.4799L46.9815-24.4799L46.2315-26.7285L12.4385-26.7285ZM55.1196 0L57.7637 0L30.6382-70.459L29.4326-70.459L29.4326-67.1323Z"/>
  </g>
  <line id="Baseline-L" style="fill:none;stroke:#27AAE1;opacity:1;stroke-width:0.5;" x1="263" x2="3036" y1="1556" y2="1556"/>
  <line id="Capline-L" style="fill:none;stroke:#27AAE1;opacity:1;stroke-width:0.5;" x1="263" x2="3036" y1="1485.54" y2="1485.54"/>
  <line id="left-margin-Regular-M" style="fill:none;stroke:#00AEEF;stroke-width:0.5;opacity:1.0;" x1="1370.7" x2="1370.7" y1="1030.79" y2="1150.12"/>
  <line id="right-margin-Regular-M" style="fill:none;stroke:#00AEEF;stroke-width:0.5;opacity:1.0;" x1="1528.99" x2="1528.99" y1="1030.79" y2="1150.12"/>
 </g>
 <g id="Symbols">
  <g id="Black-L" transform="matrix(1 0 0 1 2825.75 1556)">
   <path d="M31.5765-8.62829C40.1221-8.62829 47.0666-15.5727 47.0666-24.1208C47.0666-32.6456 40.1221-39.6109 31.5765-39.6109C23.0492-39.6109 16.084-32.6456 16.084-24.1208C16.084-15.5727 23.0492-8.62829 31.5765-8.62829ZM46.513-5.17057C43.7316 1.95433 46.491 9.21926 52.3744 13.4019C61.5151 19.7754 70.1292 22.1196 83.5625 22.1196L104.602 22.1196C121.801 22.1196 126.701 8.43033 120.795-2.98081L103.923-35.5177L103.923-84.8244C103.923-89.3574 100.309-92.8122 95.7167-92.8122C91.2629-92.8122 87.7885-89.3574 87.7885-84.8244L87.7885-33.5613C87.7885-32.6194 87.8689-31.6048 88.1674-30.8458L97.2493-5.04643L86.41-5.04643C78.7004-5.04643 74.3197-7.15577 68.063-10.9087C66.8074-11.6973 66.5597-12.3624 67.2239-13.8592L82.6277-53.3094C84.2261-57.3819 82.1088-62.1938 77.9558-63.7118C73.6992-65.3686 69.187-63.2733 67.5302-59.0607ZM130.463 10.9284L153.529 3.42857L192.461-3.59359C196.893-4.41097 199.886-8.4847 199.069-12.9969C198.229-17.4495 194.017-20.3038 189.643-19.4864L149.187-12.0602L126.844-8.00596L127.679-6.53369C130.903-1.00835 131.524 5.39157 130.463 10.9284Z"/>
  </g>
  <g id="Heavy-L" transform="matrix(1 0 0 1 2530.49 1556)">
   <path d="M31.1474-9.13912C39.4609-9.13912 46.1997-15.8779 46.1997-24.2026C46.1997-32.4859 39.4609-39.2548 31.1474-39.2548C22.8529-39.2548 16.084-32.4859 16.084-24.2026C16.084-15.8779 22.8529-9.13912 31.1474-9.13912ZM46.0988-5.43984C43.3995 1.48433 46.063 8.53914 51.7777 12.6032C60.7639 18.8631 69.196 21.1571 82.4252 21.1571L103.202 21.1571C119.974 21.1571 124.704 7.86048 118.948-3.24954L102.256-35.4212L102.256-84.1685C102.256-88.5002 98.8125-91.7946 94.4305-91.7946C90.1735-91.7946 86.8546-88.5002 86.8546-84.1685L86.8546-33.5563C86.8546-32.6327 86.935-31.6914 87.2153-30.9644L96.3038-5.14092L85.2319-5.14092C77.5621-5.14092 73.1759-7.2508 67.0052-10.9723C65.6757-11.7978 65.3773-12.6239 66.0509-14.1946L81.2649-53.1477C82.7993-57.0328 80.7736-61.6203 76.8081-63.0742C72.7208-64.6533 68.4192-62.6633 66.8402-58.6476ZM128.305 10.2291L151.436 2.71982L189.904-4.23503C194.125-5.00664 196.967-8.8973 196.195-13.1989C195.388-17.4502 191.372-20.1672 187.196-19.3956L147.11-12.0565L124.804-8.0144L125.566-6.66672C128.722-1.28257 129.33 4.9122 128.305 10.2291Z"/>
  </g>
  <g id="Bold-L" transform="matrix(1 0 0 1 2235.66 1556)">
   <path d="M30.6247-9.83635C38.6463-9.83635 45.1389-16.3289 45.1389-24.377C45.1389-32.3606 38.6463-38.8912 30.6247-38.8912C22.6146-38.8912 16.084-32.3606 16.084-24.377C16.084-16.3289 22.6146-9.83635 30.6247-9.83635ZM45.5766-5.83741C42.9773 0.840782 45.5254 7.64183 51.0325 11.5598C59.8192 17.6739 68.0209 19.9064 80.9817 19.9064L101.399 19.9064C117.64 19.9064 122.17 7.08652 116.599-3.65455L100.16-35.3133L100.16-83.2795C100.16-87.3728 96.9159-90.4822 92.7802-90.4822C88.7542-90.4822 85.6199-87.3728 85.6199-83.2795L85.6199-33.5561C85.6199-32.6555 85.7003-31.799 85.9576-31.1104L95.0239-5.34566L83.7347-5.34566C76.1334-5.34566 71.7545-7.44811 65.6988-11.1237C64.2921-11.9879 63.9396-12.9914 64.6209-14.6394L79.5745-52.9107C81.032-56.5726 79.114-60.8983 75.3717-62.2754C71.4845-63.7621 67.4292-61.8953 65.9425-58.1105ZM125.52 9.32357L148.705 1.80653L186.529-5.04892C190.504-5.76666 193.169-9.44182 192.451-13.4971C191.682-17.5099 187.898-20.0652 183.952-19.3474L144.298-12.1085L122.165-8.10414L122.849-6.8878C125.913-1.68033 126.505 4.26085 125.52 9.32357Z"/>
  </g>
  <g id="Semibold-L" transform="matrix(1 0 0 1 1940.24 1556)">
   <path d="M30.2643-10.317C38.0847-10.317 44.4076-16.6399 44.4076-24.4973C44.4076-32.2743 38.0847-38.6406 30.2643-38.6406C22.4502-38.6406 16.084-32.2743 16.084-24.4973C16.084-16.6399 22.4502-10.317 30.2643-10.317ZM45.2166-6.1115C42.6862 0.397127 45.1547 7.02322 50.5188 10.8406C59.1679 16.8541 67.2109 19.0442 79.9866 19.0442L100.155 19.0442C116.031 19.0442 120.424 6.55296 114.979-3.93375L98.7143-35.2389L98.7143-82.6667C98.7143-86.5955 95.6083-89.5775 91.6425-89.5775C87.7757-89.5775 84.7687-86.5955 84.7687-82.6667L84.7687-33.556C84.7687-32.6713 84.8492-31.8731 85.0905-31.2111L94.1416-5.48681L82.7025-5.48681C75.1486-5.48681 70.7746-7.58413 64.7982-11.2281C63.3382-12.1189 62.9484-13.2447 63.6352-14.946L78.4092-52.7473C79.8137-56.2554 77.9699-60.4006 74.3814-61.7247C70.6321-63.1477 66.7467-61.3658 65.3237-57.7403ZM123.599 8.69933L146.822 1.17691L184.203-5.61002C188.008-6.29061 190.551-9.8172 189.87-13.7026C189.128-17.551 185.502-19.9949 181.716-19.3143L142.359-12.1444L120.345-8.16601L120.976-7.04021C123.977-1.95454 124.558 3.81182 123.599 8.69933Z"/>
  </g>
  <g id="Medium-L" transform="matrix(1 0 0 1 1644.51 1556)">
   <path d="M29.991-10.6815C37.6588-10.6815 43.8531-16.8757 43.8531-24.5885C43.8531-32.2089 37.6588-38.4506 29.991-38.4506C22.3257-38.4506 16.084-32.2089 16.084-24.5885C16.084-16.8757 22.3257-10.6815 29.991-10.6815ZM44.9436-6.31932C42.4654 0.0607291 44.8737 6.55417 50.1293 10.2952C58.6741 16.2325 66.5966 18.3905 79.232 18.3905L99.2127 18.3905C114.811 18.3905 119.099 6.14839 113.751-4.14546L97.6183-35.1825L97.6183-82.202C97.6183-86.0061 94.6169-88.8915 90.7799-88.8915C87.0337-88.8915 84.1233-86.0061 84.1233-82.202L84.1233-33.5559C84.1233-32.6832 84.2037-31.9294 84.4331-31.2874L93.4726-5.59383L81.9199-5.59383C74.4018-5.59383 70.0316-7.68727 64.1153-11.3072C62.6149-12.2183 62.1969-13.4368 62.8877-15.1785L77.5256-52.6233C78.8898-56.0148 77.1024-60.0232 73.6305-61.3071C69.9859-62.6819 66.2292-60.9644 64.8544-57.4595ZM122.143 8.22601L145.395 0.69951L182.439-6.03546C186.115-6.6879 188.566-10.1018 187.913-13.8585C187.191-17.5822 183.686-19.9416 180.02-19.2891L140.889-12.1716L118.965-8.21292L119.555-7.15578C122.508-2.16246 123.082 3.47134 122.143 8.22601Z"/>
  </g>
  <g id="Regular-L" transform="matrix(1 0 0 1 1349.08 1556)">
   <path d="M29.6345-11.1569C37.1034-11.1569 43.1298-17.1833 43.1298-24.7074C43.1298-32.1235 37.1034-38.2027 29.6345-38.2027C22.1631-38.2027 16.084-32.1235 16.084-24.7074C16.084-17.1833 22.1631-11.1569 29.6345-11.1569ZM44.5875-6.59039C42.1775-0.378051 44.5071 5.94237 49.6212 9.58382C58.03 15.4217 65.7955 17.5377 78.2478 17.5377L97.983 17.5377C113.22 17.5377 117.371 5.62069 112.149-4.4216L96.1887-35.1089L96.1887-81.5959C96.1887-85.2373 93.3238-87.9967 89.6547-87.9967C86.066-87.9967 83.2815-85.2373 83.2815-81.5959L83.2815-33.5558C83.2815-32.6988 83.3619-32.0027 83.5755-31.387L92.6-5.73343L80.8991-5.73343C73.4277-5.73343 69.0625-7.8218 63.2246-11.4105C61.6715-12.3479 61.2166-13.6874 61.9127-15.4817L76.373-52.4617C77.6849-55.7011 75.9709-59.531 72.6512-60.7624C69.1429-62.0742 65.5542-60.4407 64.2424-57.0933ZM120.244 7.60863L143.533 0.0768122L180.138-6.59039C183.647-7.20609 185.976-10.4731 185.36-14.0618C184.664-17.6228 181.317-19.872 177.809-19.2563L138.971-12.207L117.165-8.27411L117.703-7.30652C120.593-2.43366 121.156 3.02724 120.244 7.60863Z"/>
  </g>
  <g id="Light-L" transform="matrix(1 0 0 1 1054.26 1556)">
   <path d="M29.3292-12.0539C36.569-12.0539 42.4809-17.9658 42.4809-25.2991C42.4809-32.5052 36.569-38.4508 29.3292-38.4508C22.0295-38.4508 16.084-32.5052 16.084-25.2991C16.084-17.9658 22.0295-12.0539 29.3292-12.0539ZM44.1677-7.27746C41.8149-1.2178 44.0873 4.96902 49.0678 8.51504C57.2857 14.2193 64.8603 16.2972 77.0263 16.2972L96.2844 16.2972C111.159 16.2972 115.234 4.64734 110.126-5.16593L94.5283-35.1089L94.5283-80.4889C94.5283-84.035 91.7397-86.7562 88.1469-86.7562C84.6346-86.7562 81.9264-84.035 81.9264-80.4889L81.9264-33.5939C81.9264-32.7561 82.0069-32.079 82.2014-31.4824L91.0159-6.43958L79.6204-6.43958C72.3208-6.43958 68.0509-8.4707 62.3466-11.983C60.8317-12.9013 60.396-14.2217 61.073-15.9779L75.1897-52.0609C76.4634-55.2049 74.7876-58.9585 71.5633-60.1517C68.1314-61.4253 64.619-59.83 63.3454-56.5589ZM117.591 6.73071L140.746-0.782025L176.474-7.27746C179.906-7.87408 182.178-11.0647 181.582-14.5771C180.905-18.0427 177.633-20.2347 174.202-19.638L135.478-12.6078L114.608-8.84667L115.184-7.82182C117.959-3.08256 118.522 2.20658 117.591 6.73071Z"/>
  </g>
  <g id="Thin-L" transform="matrix(1 0 0 1 760.048 1556)">
   <path d="M28.9253-13.2402C35.8622-13.2402 41.6227-19.0007 41.6227-26.0816C41.6227-33.0101 35.8622-38.7789 28.9253-38.7789C21.8529-38.7789 16.084-33.0101 16.084-26.0816C16.084-19.0007 21.8529-13.2402 28.9253-13.2402ZM43.6124-8.18617C41.3353-2.32844 43.5319 3.68168 48.3358 7.1015C56.3013 12.6291 63.6234 14.6565 75.4109 14.6565L94.0379 14.6565C108.433 14.6565 112.407 3.36 107.451-6.15036L92.3322-35.1089L92.3322-79.0249C92.3322-82.4447 89.6446-85.1155 86.1528-85.1155C82.7415-85.1155 80.1343-82.4447 80.1343-79.0249L80.1343-33.6444C80.1343-32.8318 80.2147-32.18 80.384-31.6086L88.9209-7.37353L77.9292-7.37353C70.8567-7.37353 66.7131-9.32892 61.1855-12.7403C59.7211-13.6334 59.3106-14.9285 59.9624-16.6342L73.6248-51.5308C74.8479-54.5486 73.2227-58.2012 70.1245-59.344C66.7936-60.5671 63.3822-59.0223 62.159-55.8522ZM114.082 5.56958L137.061-1.91791L171.627-8.18617C174.958-8.75754 177.155-11.8472 176.584-15.2586C175.932-18.598 172.762-20.7142 169.431-20.1429L130.859-13.1379L111.225-9.60392L111.852-8.50335C114.476-3.94078 115.039 1.12118 114.082 5.56958Z"/>
  </g>
  <g id="Ultralight-L" transform="matrix(1 0 0 1 464.617 1556)">
   <path d="M28.7185-13.8479C35.5002-13.8479 41.1831-19.5308 41.1831-26.4824C41.1831-33.2686 35.5002-38.947 28.7185-38.947C21.7624-38.947 16.084-33.2686 16.084-26.4824C16.084-19.5308 21.7624-13.8479 28.7185-13.8479ZM43.3279-8.6516C41.0896-2.89731 43.2475 3.02232 47.9608 6.37749C55.7971 11.8146 62.9899 13.8161 74.5834 13.8161L92.8873 13.8161C107.036 13.8161 110.959 2.70064 106.08-6.65458L91.2074-35.1089L91.2074-78.2751C91.2074-81.6302 88.5715-84.2751 85.1315-84.2751C81.7718-84.2751 79.2163-81.6302 79.2163-78.2751L79.2163-33.6703C79.2163-32.8706 79.2967-32.2317 79.4531-31.6733L87.8478-7.85189L77.063-7.85189C70.1069-7.85189 66.0279-9.76849 60.5908-13.1282C59.1522-14.0083 58.7546-15.2905 59.3935-16.9703L72.8232-51.2593C74.0205-54.2124 72.4211-57.8133 69.3876-58.9302C66.1083-60.1276 62.7487-58.6086 61.5513-55.4902ZM112.285 4.97486L135.173-2.4997L169.145-8.6516C172.424-9.21005 174.582-12.248 174.024-15.6077C173.385-18.8825 170.267-20.9599 166.987-20.4014L128.493-13.4094L109.493-9.99178L110.145-8.85243C112.692-4.38036 113.255 0.565242 112.285 4.97486Z"/>
  </g>
  <g id="Black-M" transform="matrix(1 0 0 1 2849.02 1126)">
   <path d="M24.791-14.3029C31.5802-14.3029 37.1216-19.8444 37.1216-26.633C37.1216-33.4167 31.5802-38.9636 24.791-38.9636C18.0078-38.9636 12.4609-33.4167 12.4609-26.633C12.4609-19.8444 18.0078-14.3029 24.791-14.3029ZM36.3347-11.8033C34.1169-6.13146 36.3295-0.340544 41.0145 2.98887C48.203 8.00628 55.0073 9.86036 65.5513 9.86036L82.0118 9.86036C95.6563 9.86036 99.5876-1.04653 94.8976-10.115L81.7201-35.5357L81.7201-74.0664C81.7201-77.7384 78.7857-80.5477 75.0569-80.5477C71.4475-80.5477 68.6324-77.7384 68.6324-74.0664L68.6324-33.9465C68.6324-33.2037 68.6947-32.3572 68.939-31.7443L75.9411-11.8599L67.7847-11.8599C61.8009-11.8599 58.4246-13.4859 53.5214-16.4101C52.6173-16.9867 52.4715-17.3611 52.9755-18.452L65.026-49.3214C66.3141-52.6248 64.6003-56.5353 61.2346-57.7611C57.8017-59.1063 54.1352-57.3977 52.79-53.9752ZM102.57 1.01312L120.366-4.78671L150.809-10.2617C154.413-10.9317 156.854-14.2347 156.184-17.9012C155.509-21.5109 152.086-23.8325 148.539-23.1625L116.892-17.3368L99.677-14.2086L100.393-12.9531C102.933-8.56918 103.427-3.45785 102.57 1.01312Z"/>
  </g>
  <g id="Heavy-M" transform="matrix(1 0 0 1 2553.54 1126)">
   <path d="M24.3997-14.7196C30.9831-14.7196 36.334-20.0705 36.334-26.6584C36.334-33.2253 30.9831-38.5926 24.3997-38.5926C17.8282-38.5926 12.4609-33.2253 12.4609-26.6584C12.4609-20.0705 17.8282-14.7196 24.3997-14.7196ZM35.9685-12.0031C33.8258-6.51345 35.9498-0.91561 40.4822 2.30669C47.5374 7.22536 54.1813 9.0339 64.5522 9.0339L80.8006 9.0339C94.0596 9.0339 97.8325-1.5138 93.2791-10.309L80.2445-35.4414L80.2445-73.5274C80.2445-77.0114 77.4685-79.6674 73.9386-79.6674C70.5146-79.6674 67.8445-77.0114 67.8445-73.5274L67.8445-33.9381C67.8445-33.2114 67.9068-32.4348 68.1351-31.8514L75.1629-11.8871L66.751-11.8871C60.7902-11.8871 57.3997-13.5189 52.5683-16.4194C51.5885-17.0339 51.3914-17.5674 51.9063-18.7341L63.803-49.2003C65.0321-52.3292 63.4042-56.0274 60.213-57.1942C56.9386-58.4669 53.4709-56.8577 52.1982-53.6206ZM100.706 0.410413L118.577-5.40033L148.647-10.8253C152.052-11.4523 154.351-14.5835 153.724-18.0511C153.078-21.4729 149.841-23.6655 146.479-23.0384L115.185-17.2962L97.9195-14.164L98.5596-13.0356C101.044-8.77739 101.524-3.85076 100.706 0.410413Z"/>
  </g>
  <g id="Bold-M" transform="matrix(1 0 0 1 2258.22 1126)">
   <path d="M23.9621-15.1856C30.3151-15.1856 35.4529-20.3234 35.4529-26.6867C35.4529-33.0112 30.3151-38.1776 23.9621-38.1776C17.6273-38.1776 12.4609-33.0112 12.4609-26.6867C12.4609-20.3234 17.6273-15.1856 23.9621-15.1856ZM35.5589-12.2267C33.5001-6.94077 35.5251-1.5589 39.8868 1.54358C46.7927 6.35179 53.2574 8.10939 63.4346 8.10939L79.4456 8.10939C92.2735 8.10939 95.8692-2.03651 91.4686-10.5261L78.5939-35.3359L78.5939-72.9244C78.5939-76.1981 75.9951-78.6826 72.6876-78.6826C69.471-78.6826 66.9631-76.1981 66.9631-72.9244L66.9631-33.9288C66.9631-33.22 67.0254-32.5216 67.2358-31.9712L74.2924-11.9176L65.5946-11.9176C59.6596-11.9176 56.2533-13.5558 51.5022-16.4299C50.4376-17.0867 50.1831-17.7982 50.7102-19.0497L62.4349-49.0649C63.598-51.9986 62.0662-55.4592 59.0702-56.56C55.973-57.7517 52.7279-56.2537 51.5362-53.224ZM98.6199-0.2638L116.577-6.08676L146.229-11.4559C149.412-12.0348 151.551-14.9736 150.972-18.2188C150.359-21.4303 147.33-23.4786 144.175-22.8997L113.275-17.2507L95.9535-14.1142L96.5089-13.1279C98.9314-9.0103 99.396-4.29029 98.6199-0.2638Z"/>
  </g>
  <g id="Semibold-M" transform="matrix(1 0 0 1 1962.46 1126)">
   <path d="M23.6603-15.5069C29.8547-15.5069 34.8455-20.4978 34.8455-26.7063C34.8455-32.8636 29.8547-37.8915 23.6603-37.8915C17.4888-37.8915 12.4609-32.8636 12.4609-26.7063C12.4609-20.4978 17.4888-15.5069 23.6603-15.5069ZM35.2765-12.3808C33.2756-7.23536 35.2324-2.00239 39.4763 1.0175C46.2794 5.74955 52.6204 7.47204 62.6641 7.47204L78.5116 7.47204C91.0422 7.47204 94.5156-2.39686 90.2205-10.6757L77.4559-35.2631L77.4559-72.5086C77.4559-75.6375 74.9793-78.0036 71.8252-78.0036C68.7516-78.0036 66.3555-75.6375 66.3555-72.5086L66.3555-33.9223C66.3555-33.2259 66.4178-32.5815 66.6158-32.0538L73.6923-11.9386L64.7975-11.9386C58.8802-11.9386 55.4629-13.5813 50.7672-16.4371C49.6443-17.1231 49.3502-17.9573 49.8856-19.2672L61.4917-48.9715C62.6093-51.7707 61.1438-55.0675 58.2824-56.1228C55.3074-57.2586 52.2156-55.8373 51.0798-52.9506ZM97.182-0.728599L115.198-6.55998L144.562-11.8905C147.591-12.4363 149.621-15.2426 149.075-18.3344C148.485-21.4009 145.598-23.3498 142.587-22.804L111.958-17.2194L94.5982-14.0798L95.0952-13.1916C97.4746-9.17086 97.9289-4.5933 97.182-0.728599Z"/>
  </g>
  <g id="Medium-M" transform="matrix(1 0 0 1 1666.47 1126)">
   <path d="M23.4315-15.7505C29.5055-15.7505 34.385-20.63 34.385-26.7211C34.385-32.7516 29.5055-37.6745 23.4315-37.6745C17.3838-37.6745 12.4609-32.7516 12.4609-26.7211C12.4609-20.63 17.3838-15.7505 23.4315-15.7505ZM35.0624-12.4976C33.1054-7.45873 35.0104-2.33865 39.165 0.618603C45.8902 5.29291 52.1374 6.98877 62.0799 6.98877L77.8033 6.98877C90.1086 6.98877 93.4894-2.67009 89.274-10.7892L76.5931-35.208L76.5931-72.1934C76.5931-75.2124 74.2091-77.4889 71.1713-77.4889C68.2061-77.4889 65.8948-75.2124 65.8948-72.1934L65.8948-33.9174C65.8948-33.2304 65.9571-32.6269 66.1457-32.1165L73.2373-11.9545L64.193-11.9545C58.2892-11.9545 54.8637-13.6006 50.2099-16.4425C49.0427-17.1507 48.7186-18.078 49.2604-19.4321L60.7765-48.9007C61.8596-51.5979 60.4444-54.7706 57.685-55.7913C54.8026-56.8847 51.8271-55.5216 50.7338-52.7433ZM96.0917-1.08103L114.152-6.91879L143.298-12.2201C146.211-12.7408 148.157-15.4465 147.636-18.422C147.064-21.3786 144.285-23.2522 141.382-22.7315L110.959-17.1956L93.5705-14.0537L94.0232-13.2398C96.37-9.29261 96.8165-4.82306 96.0917-1.08103Z"/>
  </g>
  <g id="Regular-M" transform="matrix(1 0 0 1 1370.7 1126)">
   <path d="M23.1331-16.0683C29.0501-16.0683 33.7842-20.8024 33.7842-26.7405C33.7842-32.6056 29.0501-37.3916 23.1331-37.3916C17.2468-37.3916 12.4609-32.6056 12.4609-26.7405C12.4609-20.8024 17.2468-16.0683 23.1331-16.0683ZM34.7831-12.6501C32.8833-7.75009 34.7208-2.77726 38.7591 0.098302C45.3825 4.6973 51.5074 6.35842 61.3179 6.35842L76.8795 6.35842C88.8908 6.35842 92.1507-3.02648 88.0396-10.9372L75.4676-35.136L75.4676-71.7823C75.4676-74.6578 73.2045-76.8174 70.3184-76.8174C67.4946-76.8174 65.2938-74.6578 65.2938-71.7823L65.2938-33.911C65.2938-33.2362 65.3561-32.6861 65.5325-32.1982L72.6438-11.9753L63.4046-11.9753C57.5183-11.9753 54.082-13.6258 49.483-16.4496C48.258-17.1867 47.8947-18.2354 48.4449-19.6473L59.8437-48.8084C60.8818-51.3725 59.5322-54.3832 56.9058-55.3589C54.1443-56.397 51.3205-55.1097 50.2824-52.4728ZM94.6695-1.54072L112.789-7.38681L141.649-12.6501C144.41-13.1379 146.248-15.7125 145.76-18.5363C145.21-21.3496 142.573-23.1248 139.811-22.6369L109.657-17.1646L92.2301-14.0198L92.625-13.3027C94.9293-9.45141 95.3654-5.12274 94.6695-1.54072Z"/>
  </g>
  <g id="Light-M" transform="matrix(1 0 0 1 1075.69 1126)">
   <path d="M22.8594-16.8725C28.571-16.8725 33.2025-21.504 33.2025-27.2709C33.2025-32.9479 28.571-37.614 22.8594-37.614C17.1271-37.614 12.4609-32.9479 12.4609-27.2709C12.4609-21.504 17.1271-16.8725 22.8594-16.8725ZM34.4067-13.266C32.5582-8.50297 34.3444-3.64992 38.2628-0.859911C44.7151 3.61931 50.669 5.24621 60.2228 5.24621L75.3566 5.24621C87.0428 5.24621 90.2343-3.89914 86.2258-11.6045L73.979-35.136L73.979-70.7898C73.979-73.5799 71.7843-75.7052 68.9667-75.7052C66.2113-75.7052 64.079-73.5799 64.079-70.7898L64.079-33.9453C64.079-33.2876 64.1413-32.7545 64.3005-32.2837L71.2236-12.6084L62.2582-12.6084C56.5259-12.6084 53.1751-14.2076 48.6959-16.963C47.5051-17.683 47.159-18.7145 47.6921-20.0922L58.7828-48.4491C59.7867-50.9276 58.4713-53.8698 55.9305-54.8114C53.2374-55.8153 50.4821-54.5622 49.4782-51.9937ZM92.2911-2.32782L110.29-8.1568L138.364-13.266C141.057-13.7368 142.843-16.243 142.372-18.9983C141.839-21.726 139.27-23.4499 136.577-22.9791L106.526-17.524L89.9372-14.5331L90.3664-13.7647C92.568-10.0332 93.0041-5.85851 92.2911-2.32782Z"/>
  </g>
  <g id="Thin-M" transform="matrix(1 0 0 1 781.215 1126)">
   <path d="M22.4973-17.9361C27.9373-17.9361 32.433-22.4318 32.433-27.9724C32.433-33.4005 27.9373-37.9082 22.4973-37.9082C16.9687-37.9082 12.4609-33.4005 12.4609-27.9724C12.4609-22.4318 16.9687-17.9361 22.4973-17.9361ZM33.9088-14.0807C32.1282-9.49871 33.8465-4.80408 37.6066-2.12722C43.8325 2.19358 49.5601 3.77522 58.7744 3.77522L73.3425 3.77522C84.5987 3.77522 87.6997-5.0533 83.827-12.4871L72.0101-35.136L72.0101-69.4773C72.0101-72.1541 69.906-74.2342 67.1788-74.2342C64.514-74.2342 62.4722-72.1541 62.4722-69.4773L62.4722-33.9905C62.4722-33.3555 62.5345-32.845 62.6711-32.3969L69.3452-13.4457L60.7419-13.4457C55.2133-13.4457 51.9757-14.977 47.6549-17.6419C46.5094-18.3392 46.1859-19.3481 46.6963-20.6806L57.3797-47.9738C58.3383-50.3392 57.0682-53.1909 54.6405-54.0872C52.038-55.0458 49.3732-53.838 48.4146-51.3601ZM89.1455-3.36883L106.986-9.17518L134.018-14.0807C136.621-14.5289 138.339-16.9445 137.891-19.6094C137.381-22.2239 134.903-23.8799 132.3-23.4317L102.384-17.9992L86.9047-15.212L87.3792-14.3758C89.445-10.8026 89.8811-6.83162 89.1455-3.36883Z"/>
  </g>
  <g id="Ultralight-M" transform="matrix(1 0 0 1 485.651 1126)">
   <path d="M22.3118-18.4809C27.6128-18.4809 32.0389-22.9071 32.0389-28.3318C32.0389-33.6323 27.6128-38.0589 22.3118-38.0589C16.8875-38.0589 12.4609-33.6323 12.4609-28.3318C12.4609-22.9071 16.8875-18.4809 22.3118-18.4809ZM33.6538-14.498C31.908-10.0087 33.5915-5.39524 37.2704-2.77634C43.3805 1.46333 48.9921 3.02179 58.0326 3.02179L72.3109 3.02179C83.3468 3.02179 86.4014-5.64446 82.5983-12.9392L71.0017-35.136L71.0017-68.805C71.0017-71.4239 68.9439-73.4808 66.2631-73.4808C63.6446-73.4808 61.6492-71.4239 61.6492-68.805L61.6492-34.0137C61.6492-33.3902 61.7115-32.8914 61.8366-32.4548L68.3832-13.8746L59.9653-13.8746C54.541-13.8746 51.3614-15.3711 47.1217-17.9896C45.9994-18.6754 45.6874-19.6727 46.1863-20.9819L56.6611-47.7304C57.5965-50.0378 56.3495-52.8432 53.9798-53.7163C51.4237-54.6517 48.8052-53.4671 47.8698-51.0355ZM87.5343-3.90203L105.294-9.69679L131.793-14.498C134.349-14.9346 136.033-17.3038 135.596-19.9223C135.097-22.4789 132.666-24.1001 130.109-23.6636L100.263-18.2426L85.3515-15.5597L85.8491-14.6887C87.8454-11.1967 88.2815-7.33005 87.5343-3.90203Z"/>
  </g>
  <g id="Black-S" transform="matrix(1 0 0 1 2866.99 696)">
   <path d="M19.5312-18.75C24.9023-18.75 29.2969-23.1445 29.2969-28.5156C29.2969-33.8867 24.9023-38.2812 19.5312-38.2812C14.1602-38.2812 9.76562-33.8867 9.76562-28.5156C9.76562-23.1445 14.1602-18.75 19.5312-18.75ZM28.5645-16.8457C26.8066-12.3535 28.5645-7.76367 32.2754-5.12695C37.9395-1.17188 43.3105 0.292969 51.6113 0.292969L64.5508 0.292969C75.3418 0.292969 78.4668-8.34961 74.7559-15.5273L64.4043-35.498L64.4043-65.7715C64.4043-68.7012 62.0605-70.9473 59.082-70.9473C56.2012-70.9473 53.9551-68.7012 53.9551-65.7715L53.9551-34.2285C53.9551-33.6426 54.0039-32.959 54.1992-32.4707L59.668-16.9434L53.3691-16.9434C48.6816-16.9434 46.0449-18.2129 42.1875-20.5078C41.5039-20.9473 41.4062-21.1914 41.7969-22.0215L51.2695-46.2891C52.2949-48.9258 50.9277-52.0508 48.2422-53.0273C45.5078-54.1016 42.5781-52.7344 41.5039-50ZM80.8105-6.68945L94.7266-11.2305L118.652-15.5273C121.533-16.0645 123.486-18.7012 122.949-21.6309C122.412-24.5117 119.678-26.3672 116.846-25.8301L91.9434-21.2402L78.5156-18.7988L79.1016-17.7734C81.1035-14.3066 81.4941-10.2539 80.8105-6.68945Z"/>
  </g>
  <g id="Heavy-S" transform="matrix(1 0 0 1 2571.12 696)">
   <path d="M19.2316-19.0035C24.4529-19.0035 28.6976-23.2483 28.6976-28.4695C28.6976-33.6793 24.4529-37.9355 19.2316-37.9355C14.0219-37.9355 9.76562-33.6793 9.76562-28.4695C9.76562-23.2483 14.0219-19.0035 19.2316-19.0035ZM28.2994-16.9379C26.5992-12.584 28.2879-8.14398 31.8836-5.58793C37.4554-1.702 42.7113-0.27173 50.8968-0.27173L63.7095-0.27173C74.2124-0.27173 77.2106-8.63772 73.6034-15.608L63.3325-35.4174L63.3325-65.4373C63.3325-68.2171 61.1155-70.3365 58.2984-70.3365C55.5673-70.3365 53.4365-68.2171 53.4365-65.4373L53.4365-34.217C53.4365-33.6426 53.4853-33.0166 53.6691-32.5514L59.1839-16.8857L52.6316-16.8857C47.9441-16.8857 45.2843-18.1668 41.473-20.4502C40.7202-20.9242 40.5765-21.3067 40.9786-22.2059L50.3591-46.2314C51.3384-48.7299 50.0404-51.682 47.4931-52.6125C44.8855-53.6291 42.1171-52.3425 41.1005-49.758ZM79.5198-7.10433L93.5165-11.6569L117.223-15.9307C119.943-16.4332 121.781-18.9317 121.278-21.7C120.764-24.431 118.18-26.1828 115.497-25.6803L90.8831-21.1596L77.3056-18.6951L77.8223-17.785C79.7897-14.4104 80.1688-10.4959 79.5198-7.10433Z"/>
  </g>
  <g id="Bold-S" transform="matrix(1 0 0 1 2275.35 696)">
   <path d="M18.8965-19.2871C23.9502-19.2871 28.0273-23.3643 28.0273-28.418C28.0273-33.4473 23.9502-37.5488 18.8965-37.5488C13.8672-37.5488 9.76562-33.4473 9.76562-28.418C9.76562-23.3643 13.8672-19.2871 18.8965-19.2871ZM28.0029-17.041C26.3672-12.8418 27.9785-8.56934 31.4453-6.10352C36.9141-2.29492 42.041-0.90332 50.0977-0.90332L62.7686-0.90332C72.9492-0.90332 75.8057-8.95996 72.3145-15.6982L62.1338-35.3271L62.1338-65.0635C62.1338-67.6758 60.0586-69.6533 57.4219-69.6533C54.8584-69.6533 52.8564-67.6758 52.8564-65.0635L52.8564-34.2041C52.8564-33.6426 52.9053-33.0811 53.0762-32.6416L58.6426-16.8213L51.8066-16.8213C47.1191-16.8213 44.4336-18.1152 40.6738-20.3857C39.8438-20.8984 39.6484-21.4355 40.0635-22.4121L49.3408-46.167C50.2686-48.5107 49.0479-51.2695 46.6553-52.1484C44.1895-53.1006 41.6016-51.9043 40.6494-49.4873ZM78.0762-7.56836L92.1631-12.1338L115.625-16.3818C118.164-16.8457 119.873-19.1895 119.409-21.7773C118.921-24.3408 116.504-25.9766 113.989-25.5127L89.6973-21.0693L75.9521-18.5791L76.3916-17.7979C78.3203-14.5264 78.6865-10.7666 78.0762-7.56836Z"/>
  </g>
  <g id="Semibold-S" transform="matrix(1 0 0 1 1979.29 696)">
   <path d="M18.6654-19.4826C23.6036-19.4826 27.5652-23.4442 27.5652-28.3824C27.5652-33.2873 23.6036-37.2822 18.6654-37.2822C13.7605-37.2822 9.76562-33.2873 9.76562-28.3824C9.76562-23.4442 13.7605-19.4826 18.6654-19.4826ZM27.7985-17.1121C26.2072-13.0195 27.7652-8.8626 31.1432-6.45898C36.5408-2.70371 41.5789-1.33877 49.5467-1.33877L62.1198-1.33877C72.0783-1.33877 74.837-9.18213 71.4258-15.7604L61.3073-35.2649L61.3073-64.8058C61.3073-67.3025 59.3299-69.1823 56.8176-69.1823C54.3696-69.1823 52.4565-67.3025 52.4565-64.8058L52.4565-34.1952C52.4565-33.6426 52.5054-33.1255 52.6674-32.7038L58.2693-16.7769L51.2379-16.7769C46.5504-16.7769 43.8471-18.0797 40.1229-20.3413C39.2395-20.8807 39.0086-21.5244 39.4325-22.5543L48.6388-46.1226C49.531-48.3597 48.3636-50.9852 46.0776-51.8285C43.7096-52.7362 41.2461-51.6021 40.3384-49.3007ZM77.0809-7.88828L91.23-12.4626L114.523-16.6929C116.938-17.1301 118.558-19.3672 118.121-21.8307C117.65-24.2786 115.349-25.8344 112.95-25.3972L88.8797-21.0071L75.019-18.4991L75.4052-17.8067C77.3072-14.6063 77.6646-10.9532 77.0809-7.88828Z"/>
  </g>
  <g id="Medium-S" transform="matrix(1 0 0 1 1683.07 696)">
   <path d="M18.4902-19.6309C23.3408-19.6309 27.2148-23.5049 27.2148-28.3555C27.2148-33.166 23.3408-37.0801 18.4902-37.0801C13.6797-37.0801 9.76562-33.166 9.76562-28.3555C9.76562-23.5049 13.6797-19.6309 18.4902-19.6309ZM27.6436-17.166C26.0859-13.1543 27.6035-9.08496 30.9141-6.72852C36.2578-3.01367 41.2285-1.66895 49.1289-1.66895L61.6279-1.66895C71.418-1.66895 74.1025-9.35059 70.752-15.8076L60.6807-35.2178L60.6807-64.6104C60.6807-67.0195 58.7773-68.8252 56.3594-68.8252C53.999-68.8252 52.1533-67.0195 52.1533-64.6104L52.1533-34.1885C52.1533-33.6426 52.2021-33.1592 52.3574-32.751L57.9863-16.7432L50.8066-16.7432C46.1191-16.7432 43.4023-18.0527 39.7051-20.3076C38.7812-20.8672 38.5234-21.5918 38.9541-22.6621L48.1064-46.0889C48.9717-48.2451 47.8447-50.7695 45.6396-51.5859C43.3457-52.46 40.9766-51.373 40.1025-49.1592ZM76.3262-8.13086L90.5225-12.7119L113.688-16.9287C116.008-17.3457 117.561-19.502 117.144-21.8711C116.687-24.2314 114.473-25.7266 112.161-25.3096L88.2598-20.96L74.3115-18.4385L74.6572-17.8135C76.5391-14.667 76.8896-11.0947 76.3262-8.13086Z"/>
  </g>
  <g id="Regular-S" transform="matrix(1 0 0 1 1387 696)">
   <path d="M18.2617-19.8242C22.998-19.8242 26.7578-23.584 26.7578-28.3203C26.7578-33.0078 22.998-36.8164 18.2617-36.8164C13.5742-36.8164 9.76562-33.0078 9.76562-28.3203C9.76562-23.584 13.5742-19.8242 18.2617-19.8242ZM27.4414-17.2363C25.9277-13.3301 27.3926-9.375 30.6152-7.08008C35.8887-3.41797 40.7715-2.09961 48.584-2.09961L60.9863-2.09961C70.5566-2.09961 73.1445-9.57031 69.873-15.8691L59.8633-35.1562L59.8633-64.3555C59.8633-66.6504 58.0566-68.3594 55.7617-68.3594C53.5156-68.3594 51.7578-66.6504 51.7578-64.3555L51.7578-34.1797C51.7578-33.6426 51.8066-33.2031 51.9531-32.8125L57.6172-16.6992L50.2441-16.6992C45.5566-16.6992 42.8223-18.0176 39.1602-20.2637C38.1836-20.8496 37.8906-21.6797 38.3301-22.8027L47.4121-46.0449C48.2422-48.0957 47.168-50.4883 45.0684-51.2695C42.8711-52.0996 40.625-51.0742 39.7949-48.9746ZM75.3418-8.44727L89.5996-13.0371L112.598-17.2363C114.795-17.627 116.26-19.6777 115.869-21.9238C115.43-24.1699 113.33-25.5859 111.133-25.1953L87.4512-20.8984L73.3887-18.3594L73.6816-17.8223C75.5371-14.7461 75.8789-11.2793 75.3418-8.44727Z"/>
  </g>
  <g id="Light-S" transform="matrix(1 0 0 1 1091.79 696)">
   <path d="M18.0195-20.5356C22.5742-20.5356 26.2432-24.2046 26.2432-28.7895C26.2432-33.3105 22.5742-37.0132 18.0195-37.0132C13.4683-37.0132 9.76562-33.3105 9.76562-28.7895C9.76562-24.2046 13.4683-20.5356 18.0195-20.5356ZM27.1084-17.7812C25.6401-13.9961 27.0596-10.147 30.1763-7.92773C35.2983-4.37157 40.0298-3.08349 47.6152-3.08349L59.6392-3.08349C68.9219-3.08349 71.4492-10.3423 68.2686-16.4595L58.5464-35.1562L58.5464-63.4775C58.5464-65.6968 56.8003-67.3755 54.5659-67.3755C52.3804-67.3755 50.6831-65.6968 50.6831-63.4775L50.6831-34.21C50.6831-33.688 50.7319-33.2637 50.8633-32.8882L56.3608-17.2593L49.23-17.2593C44.6787-17.2593 42.02-18.5322 38.4639-20.7178C37.5176-21.2886 37.2398-22.1035 37.6641-23.1963L46.4736-45.7271C47.2734-47.7022 46.2295-50.0342 44.2056-50.7852C42.0689-51.585 39.8833-50.5898 39.0835-48.5508ZM73.2378-9.14355L87.3897-13.7183L109.691-17.7812C111.828-18.1567 113.248-20.147 112.872-22.3325C112.448-24.5029 110.409-25.8735 108.272-25.498L84.6812-21.2163L71.3604-18.8135L71.6836-18.231C73.4483-15.2607 73.7901-11.9302 73.2378-9.14355Z"/>
  </g>
  <g id="Thin-S" transform="matrix(1 0 0 1 797.061 696)">
   <path d="M17.6992-21.4765C22.0137-21.4765 25.5625-25.0254 25.5625-29.4101C25.5625-33.7109 22.0137-37.2734 17.6992-37.2734C13.3281-37.2734 9.76562-33.7109 9.76562-29.4101C9.76562-25.0254 13.3281-21.4765 17.6992-21.4765ZM26.668-18.5019C25.2598-14.8769 26.6191-11.168 29.5957-9.04881C34.5176-5.6328 39.0488-4.38475 46.334-4.38475L57.8574-4.38475C66.7598-4.38475 69.2071-11.3633 66.1465-17.2402L56.8047-35.1562L56.8047-62.3164C56.8047-64.4356 55.1387-66.0742 52.9844-66.0742C50.8789-66.0742 49.2617-64.4356 49.2617-62.3164L49.2617-34.25C49.2617-33.748 49.3106-33.3437 49.4219-32.9883L54.6992-18L47.8887-18C43.5176-18 40.959-19.2129 37.543-21.3184C36.6367-21.8691 36.3789-22.6641 36.7832-23.7168L45.2324-45.3066C45.9922-47.1816 44.9883-49.4336 43.0645-50.1445C41.0078-50.9043 38.9024-49.9492 38.1426-47.9902ZM70.4551-10.0644L84.4668-14.6191L105.848-18.5019C107.904-18.8574 109.264-20.7676 108.908-22.873C108.504-24.9434 106.545-26.2539 104.488-25.8984L81.0176-21.6367L68.6778-19.4141L69.0411-18.7715C70.6856-15.9414 71.0274-12.791 70.4551-10.0644Z"/>
  </g>
  <g id="Ultralight-S" transform="matrix(1 0 0 1 501.365 696)">
   <path d="M17.5352-21.9585C21.7266-21.9585 25.2139-25.4458 25.2139-29.728C25.2139-33.916 21.7266-37.4067 17.5352-37.4067C13.2564-37.4067 9.76562-33.916 9.76562-29.728C9.76562-25.4458 13.2564-21.9585 17.5352-21.9585ZM26.4424-18.8711C25.0649-15.3281 26.3936-11.6909 29.2984-9.62303C34.1177-6.27879 38.5464-5.05125 45.6778-5.05125L56.9449-5.05125C65.6524-5.05125 68.0586-11.8862 65.0596-17.6401L55.9126-35.1562L55.9126-61.7217C55.9126-63.7896 54.2876-65.4077 52.1743-65.4077C50.1099-65.4077 48.5337-63.7896 48.5337-61.7217L48.5337-34.2705C48.5337-33.7788 48.5825-33.3848 48.6836-33.0395L53.8482-18.3794L47.2017-18.3794C42.9229-18.3794 40.4155-19.5615 37.0713-21.626C36.1856-22.1665 35.938-22.9512 36.332-23.9834L44.5967-45.0913C45.336-46.915 44.3526-49.126 42.48-49.8164C40.4644-50.5557 38.3999-49.6211 37.6607-47.7031ZM69.0298-10.5361L82.9698-15.0806L103.879-18.8711C105.895-19.2163 107.223-21.0854 106.878-23.1499C106.484-25.1689 104.566-26.4487 102.55-26.1035L79.1412-21.852L67.3038-19.7217L67.6875-19.0483C69.2706-16.29 69.6124-13.2319 69.0298-10.5361Z"/>
  </g>
 </g>
</svg>
